<svg width="30" height="30" viewBox="0 0 30 30" fill="none" xmlns="http://www.w3.org/2000/svg">
<circle cx="15" cy="15" r="15" fill="#555555"/>
<g clip-path="url(#clip0_769_40683)">
<path d="M14 12H16V10H14M15 23C10.59 23 7 19.41 7 15C7 10.59 10.59 7 15 7C19.41 7 23 10.59 23 15C23 19.41 19.41 23 15 23ZM15 5C13.6868 5 12.3864 5.25866 11.1732 5.7612C9.95991 6.26375 8.85752 7.00035 7.92893 7.92893C6.05357 9.8043 5 12.3478 5 15C5 17.6522 6.05357 20.1957 7.92893 22.0711C8.85752 22.9997 9.95991 23.7362 11.1732 24.2388C12.3864 24.7413 13.6868 25 15 25C17.6522 25 20.1957 23.9464 22.0711 22.0711C23.9464 20.1957 25 17.6522 25 15C25 13.6868 24.7413 12.3864 24.2388 11.1732C23.7362 9.95991 22.9997 8.85752 22.0711 7.92893C21.1425 7.00035 20.0401 6.26375 18.8268 5.7612C17.6136 5.25866 16.3132 5 15 5ZM14 20H16V14H14V20Z" fill="white"/>
</g>
<defs>
<clipPath id="clip0_769_40683">
<rect width="20" height="20" fill="white" transform="translate(5 5)"/>
</clipPath>
</defs>
</svg>
