<svg width="108" height="100" viewBox="0 0 108 100" fill="none" xmlns="http://www.w3.org/2000/svg">
<g id="Vector">
<path d="M13.3794 0.215148C10.8757 0.542708 9.71119 0.870267 8.58551 1.58319C7.80918 2.08416 7.24634 2.75855 7.44042 2.95123C7.49864 3.00904 8.04208 3.16318 8.66314 3.27879L9.78883 3.51001L9.71119 6.99755L9.65297 10.4851L10.1964 10.8512C10.6622 11.1402 11.1474 11.198 13.3211 11.198C15.2232 11.198 15.9607 11.2558 16.0771 11.4485C16.1742 11.6219 16.4653 11.6605 17.0087 11.5641C17.4551 11.5063 17.9597 11.5256 18.1344 11.6412C18.8331 12.0073 13.7869 12.8358 10.7592 12.8358H8.93486L8.83782 13.6451C8.62433 15.1865 8.13912 21.545 8.13912 22.5855C8.13912 23.3948 8.21675 23.6453 8.50788 23.8187C8.72137 23.915 10.0605 24.0306 11.4774 24.0306C13.9228 24.0499 13.981 24.0692 12.7001 24.2233C9.24539 24.6665 6.25651 25.2638 3.15118 26.1694C2.14195 26.4584 1.73437 26.6704 1.73437 26.8823C1.73437 27.4218 2.39425 28.4431 2.99591 28.8284C3.50053 29.156 3.51994 29.2138 3.17059 29.2138C2.53011 29.2138 2.10313 29.8496 1.90905 31.0828C1.812 31.6994 1.65674 37.0559 1.5597 42.9905C1.3268 56.8058 1.21035 60.197 0.763955 66.2087C0.550464 68.9063 0.298156 72.548 0.181706 74.3014C-0.0900109 78.6367 -0.0511943 87.7891 0.259339 91.5849C0.472831 94.4174 0.550464 94.7834 1.01626 95.4771C1.63733 96.402 2.93769 97.192 4.43213 97.5388C5.13083 97.7122 8.13912 97.8664 13.0688 98.0012C17.2416 98.1168 20.6575 98.2325 20.6963 98.2517C20.8128 98.3866 17.2028 99.1573 15.5143 99.3693C12.0402 99.7932 7.45983 99.2922 4.04396 98.1168C2.35544 97.5388 1.88964 97.481 2.31662 97.8856C2.80183 98.3288 4.72325 98.9454 7.32397 99.4656C11.7297 100.371 16.3877 100.121 20.7157 98.7527C22.5013 98.1747 22.9671 97.8278 21.9773 97.7893C21.4532 97.7508 21.4532 97.7508 21.919 97.6929C24.5392 97.2883 26.0918 96.3634 26.6935 94.822C27.3145 93.1842 26.7905 91.7969 25.2184 91.0261C24.3839 90.6022 24.151 90.583 20.0752 90.6022L15.8054 90.6408L15.7472 86.2669C15.6501 79.5038 16.0965 72.6636 17.164 64.0892C17.7656 59.3107 18.4061 54.8019 18.4838 54.7249C18.5226 54.6863 18.6584 56.1893 18.7749 58.0775C19.1242 62.9717 21.0845 85.8815 21.3174 87.5964C21.4726 88.8488 21.5697 89.0993 22.0937 89.5618C22.7924 90.1784 23.0253 90.2169 23.9763 89.8123C24.4809 89.6003 24.7526 89.3113 25.0632 88.6176L25.4708 87.6927L25.3543 70.7367C25.199 50.1968 24.6944 30.2928 24.3257 29.3101C24.248 29.1367 23.9763 28.9055 23.724 28.7513C23.2582 28.5201 23.297 28.5009 24.5586 28.2889C26.4218 27.9806 26.8487 27.3062 25.8977 26.1694C25.0826 25.206 21.9578 24.0884 19.7841 23.9921C19.3765 23.9728 19.2601 23.9343 19.5124 23.8765C19.8617 23.8187 19.9782 23.5489 20.2305 22.3158C20.7157 20.0229 20.9874 17.7299 21.0068 15.726C21.0262 14.1268 20.9874 13.7992 20.5604 13.067C20.0946 12.2385 18.639 11.1017 18.0374 11.1017C17.7656 11.1017 17.7074 10.697 17.6686 7.51779L17.6298 3.93391L18.6584 4.04952C19.2213 4.10732 21.5309 4.1844 23.7822 4.20366C27.5086 4.2422 27.9162 4.22293 28.4402 3.89537C29.2554 3.35586 29.4689 3.00904 29.4883 2.1805C29.4883 1.25563 28.8478 0.61978 27.5863 0.311489C26.1306 -0.0546063 16.0577 -0.112411 13.3794 0.215148ZM27.0622 0.696853C28.9448 1.08222 29.663 2.23831 28.6149 3.20172L28.0909 3.68342L17.1252 3.56781L17.2222 7.03609C17.2998 10.1575 17.2804 10.5236 16.9893 10.6392C16.8146 10.7163 16.6206 10.7163 16.5623 10.6778C16.5235 10.62 16.4071 9.19413 16.3294 7.49853C16.1742 4.14586 15.9801 3.56781 14.9708 3.18245C14.3304 2.93196 13.5735 3.24026 13.5735 3.72196C13.5735 3.91464 13.7093 5.32122 13.8452 6.84341C14.0004 8.36559 14.0781 9.73364 14.0198 9.86851C13.884 10.2539 12.9136 10.1961 12.5642 9.79144C12.079 9.23266 12.0402 8.86657 12.3119 7.69121C12.6807 6.22682 12.6613 5.43683 12.3119 4.74317C11.982 4.10732 11.4774 3.77976 10.8757 3.77976C10.6428 3.77976 10.4681 3.64489 10.4681 3.49074C10.4681 3.24026 9.40066 2.81635 8.68255 2.81635C8.17794 2.81635 8.1003 2.52733 8.50788 2.16124C9.32303 1.40978 11.555 0.908803 15.9995 0.427099C17.3969 0.292221 26.0724 0.484903 27.0622 0.696853ZM15.4366 4.06879C15.689 4.45415 15.786 5.22488 15.8636 7.6334L15.9607 10.7163H14.932C13.9228 10.7163 13.9034 10.7163 14.2527 10.331C14.5633 9.98412 14.5827 9.77217 14.3692 7.40218C14.0587 3.66416 14.0587 3.58708 14.6409 3.58708C14.932 3.58708 15.2426 3.77976 15.4366 4.06879ZM11.5356 4.49269C12.1566 5.09 12.2537 5.70658 11.9237 7.07463C11.7685 7.78755 11.6326 8.63535 11.6326 8.92437C11.6326 9.57949 12.0984 10.2924 12.6807 10.5236C12.9718 10.6392 12.7583 10.697 11.8849 10.697C10.1576 10.7163 10.08 10.62 10.1964 7.96096C10.3323 4.68537 10.4293 4.16513 10.8563 4.16513C11.0504 4.16513 11.3609 4.30001 11.5356 4.49269ZM20.3858 13.78C20.6963 14.6663 20.5022 18.019 19.9782 21.0055C19.7647 22.2772 19.5512 23.337 19.5124 23.3948C19.1242 23.7609 19.0466 22.6626 19.0078 17.6143L18.9884 11.9687L19.5706 12.5275C19.9006 12.8358 20.2693 13.3946 20.3858 13.78ZM18.6196 23.4333H17.5133L17.3969 21.256C17.2222 18.4236 17.2222 12.7395 17.3969 12.5853C17.4551 12.5083 17.7656 12.4505 18.0762 12.4505H18.6196V23.4333ZM16.9117 17.9804C16.9505 20.9285 16.9505 23.3755 16.9311 23.4141C16.8923 23.4526 15.1455 23.5297 13.0494 23.5875C9.98291 23.6453 9.12894 23.6067 8.85723 23.3948C8.50788 23.1443 8.50788 22.9709 8.89604 18.3273C9.12894 15.7068 9.32303 13.5295 9.36184 13.5102C9.38125 13.4909 10.1576 13.4139 11.1086 13.3561L12.7971 13.2404V18.2309C12.7971 22.547 12.8359 23.2406 13.0882 23.2406C13.3406 23.2406 13.3794 22.547 13.3794 18.2309V13.2404L14.0198 13.1441C14.3498 13.0863 15.0873 12.9707 15.6113 12.8744C16.1548 12.778 16.64 12.6817 16.7176 12.6624C16.7758 12.6624 16.8729 15.0517 16.9117 17.9804ZM18.6972 26.3428C18.7555 27.4026 18.7749 28.366 18.7167 28.4623C18.639 28.5587 18.3867 28.6357 18.1344 28.6357C17.8821 28.6357 17.6492 28.7321 17.6104 28.867C17.5522 29.0018 17.2998 28.9248 16.8923 28.6165C15.9413 27.9228 13.7869 27.9035 9.32303 28.5201C7.34338 28.7899 5.48018 29.0211 5.15024 29.0211C3.94692 29.0018 2.31662 27.9421 2.31662 27.1714C2.31662 26.8631 3.03473 26.6126 5.75189 25.9575C9.51711 25.0519 13.6705 24.4931 17.2804 24.416L18.5614 24.3967L18.6972 26.3428ZM21.7444 24.7821C22.9865 25.0326 24.6944 25.6877 25.2961 26.1501C25.8201 26.5548 25.9754 27.3448 25.5872 27.5953C25.3543 27.7301 20.5604 28.4238 19.7453 28.4431H19.2019V24.4353L20.0364 24.5316C20.4828 24.5701 21.2591 24.6858 21.7444 24.7821ZM15.6695 28.5587C15.9995 28.6165 16.5429 28.9055 16.8923 29.1945C17.4745 29.6955 17.5133 29.7918 17.4745 30.8516C17.4551 31.4682 17.3387 32.104 17.2222 32.2582C16.9893 32.5279 16.213 32.5086 13.6511 32.1811C12.7389 32.0655 12.603 32.104 12.0402 32.6243C11.5356 33.0482 11.3803 33.3757 11.2445 34.2235C11.128 35.1098 11.0892 34.8979 11.0698 32.8747C11.031 29.8882 10.9145 29.0211 10.4875 29.0018C10.3129 28.9826 10.701 28.867 11.3415 28.7321C12.6224 28.4623 14.7574 28.3852 15.6695 28.5587ZM23.6852 29.3294C24.0151 29.6377 24.0539 30.2543 24.4421 43.0869C24.7138 51.6805 25.0826 86.132 24.9273 87.3845C24.8303 88.1745 24.6556 88.5598 24.248 88.9837C23.5493 89.6581 22.6371 89.7159 22.2296 89.0993C21.8414 88.502 21.7832 88.0203 21.3368 82.5867C21.1233 79.9855 20.6769 74.9565 20.3664 71.4111C19.8035 64.9755 19.3571 59.6383 19.0078 54.6093C18.8525 52.22 18.8719 51.6227 19.3183 48.4434C20.347 41.0252 20.4246 40.1003 20.4246 36.343C20.4246 32.3738 20.1141 30.1001 19.4736 29.3872C19.1825 29.0789 19.2019 29.0404 19.7259 28.9633C20.7351 28.7899 23.3552 29.0211 23.6852 29.3294ZM18.4061 30.023C18.3867 30.8323 18.3479 30.9479 18.2314 30.5626C17.9985 29.8689 17.9985 29.0211 18.2314 29.0211C18.3479 29.0211 18.4255 29.4835 18.4061 30.023ZM10.5458 30.6011C10.6234 31.2755 10.5846 32.1233 10.4875 32.4894C10.3323 33.0867 10.3129 33.0096 10.2934 31.7957C10.274 30.9286 10.177 30.3121 9.98291 30.0616C9.59474 29.5606 9.61415 29.4065 10.0605 29.4065C10.3711 29.4065 10.4487 29.5991 10.5458 30.6011ZM4.80089 29.7918H5.32491L4.74266 30.1001C4.00515 30.4855 3.15118 31.2755 2.68538 32.0077L2.31662 32.5857L2.33603 31.7186C2.37485 30.3313 2.54952 29.9074 3.19 29.7726C3.51994 29.6955 3.8887 29.6762 4.02455 29.7148C4.17982 29.7533 4.52917 29.7918 4.80089 29.7918ZM19.3571 30.1194C19.7259 31.0443 19.9782 33.5684 19.9782 36.3045C19.9782 38.6552 19.2213 46.6322 18.8331 48.482C18.5614 49.6959 18.4061 39.5223 18.6002 34.9942C18.7167 32.605 18.8137 30.4277 18.8137 30.1194C18.8137 29.8304 18.8913 29.5991 18.9884 29.5991C19.0854 29.5991 19.2407 29.8304 19.3571 30.1194ZM9.38125 30.1001C9.55593 30.2543 9.75001 30.6011 9.80824 30.8708C10.0411 31.815 9.75001 44.0696 9.42007 46.0735C8.5661 51.6227 7.30456 55.4763 5.01438 59.4648C3.15118 62.7404 3.2094 62.3165 3.24822 71.2184C3.30645 78.3284 3.2094 79.8891 2.82124 79.5038C2.54952 79.2147 1.88964 75.0528 1.71496 72.3167C1.48206 69.0989 1.57911 61.8541 1.92845 56.4783C2.0255 54.879 2.12254 50.4281 2.12254 46.5552C2.14195 37.0174 2.31662 33.7611 2.87946 32.605C3.4229 31.4874 4.41272 30.6782 5.81012 30.1965C7.14929 29.734 8.95427 29.6762 9.38125 30.1001ZM18.1732 34.0694C18.1344 34.5318 18.0956 34.1657 18.0956 33.2601C18.0956 32.3545 18.1344 31.9884 18.1732 32.4316C18.212 32.894 18.212 33.6262 18.1732 34.0694ZM15.2426 32.9133C15.9801 33.0674 16.4265 33.0674 16.8729 32.9133L17.4939 32.6821L17.4163 34.6089L17.3581 36.5164L16.5817 37.3064C15.8248 38.0772 15.8054 38.1157 15.8442 39.3489C15.883 40.1967 15.8054 40.794 15.5919 41.1793C15.2037 41.9501 13.7869 42.5859 12.8748 42.4125L12.2149 42.2969V41.1023C12.2149 40.4471 12.1178 39.0984 12.0208 38.0964C11.7491 35.5723 11.7491 33.7611 12.0208 33.2794C12.4478 32.4701 12.9136 32.4316 15.2426 32.9133ZM11.1668 37.1137C11.652 39.0406 11.7685 40.9288 11.4191 41.5647C11.2639 41.873 11.2833 42.0464 11.5162 42.2969C12.0984 42.9327 11.8849 50.5437 10.9339 64.1856C10.3323 72.7021 10.1188 83.5501 10.4487 87.8662C10.5652 89.4462 10.6234 90.7757 10.5846 90.8142C10.5458 90.872 9.38125 91.0262 8.00326 91.1803C6.64468 91.3537 4.47095 91.6813 3.19 91.9318C1.90905 92.163 0.841589 92.3557 0.82218 92.3364C0.686322 92.2208 0.375789 85.8045 0.375789 83.184C0.375789 79.9855 0.666914 73.2416 0.93863 70.4477C1.05508 69.0604 1.07449 69.1375 1.21035 71.8928C1.3268 74.7638 1.46266 75.7657 2.06431 78.5018C2.39425 80.0818 2.70479 80.3708 3.34526 79.7157C3.77225 79.2918 3.77225 79.2726 3.71402 71.6038C3.6752 65.3609 3.71402 63.7231 3.94692 62.9717C4.08278 62.4707 4.99497 60.5439 5.94598 58.6941C9.10954 52.4898 10.1188 47.9425 10.4099 38.5589C10.4875 36.1118 10.5846 34.3777 10.6234 34.7052C10.6622 35.0135 10.8951 36.1118 11.1668 37.1137ZM18.3091 51.2951C18.3673 51.4493 18.1926 53.0678 17.9403 54.8983C15.9801 68.1355 15.4366 74.2435 15.4172 82.4325C15.4172 86.0935 15.359 89.003 15.3008 88.8874C14.9903 88.2901 14.6797 83.4345 14.6021 77.4806C14.5245 72.3745 14.6021 69.0989 14.932 62.6441C15.1649 58.0775 15.3784 51.6034 15.4172 48.2508C15.4755 42.374 15.4755 42.1235 15.883 41.6225C16.213 41.1986 16.2906 40.8518 16.2906 39.6764C16.2906 38.2891 16.31 38.2506 17.0669 37.422C17.5522 36.9018 17.8627 36.3815 17.8821 36.0347C17.9015 35.7264 17.9791 38.9635 18.0568 43.241C18.1344 47.5186 18.2509 51.141 18.3091 51.2951ZM14.5439 60.1392C13.8258 75.284 13.8452 81.6233 14.6409 87.6927C15.0679 90.9105 15.2232 90.6022 13.1659 90.7757C12.1955 90.8335 11.3221 90.8335 11.225 90.7371C11.1474 90.6601 10.9533 88.3864 10.8369 85.7081C10.5458 80.0433 10.7398 73.7618 11.555 62.5478C11.8267 58.6556 12.0984 52.9522 12.1566 49.2912L12.2731 42.8942L13.1659 42.8749C13.6511 42.8749 14.2333 42.7979 14.4468 42.7208C14.835 42.5666 14.835 42.663 14.8932 47.3066C14.9126 50.1005 14.7768 55.38 14.5439 60.1392ZM25.0244 91.4886C26.2277 92.0859 26.6935 93.03 26.3829 94.1861C26.2471 94.6293 25.9754 95.2459 25.7813 95.5349C25.2767 96.2286 23.627 96.98 22.3072 97.1342C21.2397 97.2498 2.35544 95.6505 1.69555 95.4C1.21035 95.2073 0.647505 92.7988 1.07449 92.7988C1.13271 92.7988 2.08372 92.6254 3.17059 92.4135C5.3055 92.0088 9.36184 91.4501 10.2934 91.4501C10.8175 91.4501 10.8563 91.4886 10.8563 92.2208C10.8563 94.8027 14.4662 94.3017 15.5143 91.5657L15.7084 91.0647H19.9394C23.9375 91.0647 24.2092 91.084 25.0244 91.4886ZM14.8544 91.8161C14.3498 92.7796 13.457 93.3769 12.506 93.3769C12.0402 93.3769 11.6132 93.3191 11.5744 93.2227C11.5162 93.1457 11.4191 92.6832 11.3415 92.163L11.2056 91.2574H15.1455L14.8544 91.8161ZM10.3129 96.7488C14.408 97.1149 18.0956 97.4425 18.5226 97.481C20.1141 97.6159 14.4662 97.5966 9.78883 97.4232C4.89793 97.2498 3.51994 97.0571 2.60775 96.3827C2.08372 95.9781 1.67615 95.9588 10.3129 96.7488Z" fill="url(#paint0_linear_692_609)"/>
<path d="M14.1453 0.215148C11.6417 0.542708 10.4772 0.870267 9.35147 1.58319C8.57514 2.08416 8.01229 2.75855 8.20638 2.95123C8.2646 3.00904 8.80803 3.16318 9.4291 3.27879L10.5548 3.51001L10.4772 6.99755L10.4189 10.4851L10.9624 10.8512C11.4282 11.1402 11.9134 11.198 14.0871 11.198C15.9891 11.198 16.7266 11.2558 16.8431 11.4485C16.9401 11.6219 17.2312 11.6605 17.7747 11.5641C18.2211 11.5063 18.7257 11.5256 18.9004 11.6412C19.5991 12.0073 14.5529 12.8358 11.5252 12.8358H9.70082L9.60378 13.6451C9.39028 15.1865 8.90508 21.545 8.90508 22.5855C8.90508 23.3948 8.98271 23.6453 9.27383 23.8187C9.48733 23.915 10.8265 24.0306 12.2433 24.0306C14.6888 24.0499 14.747 24.0692 13.466 24.2233C10.0114 24.6665 7.02247 25.2638 3.91714 26.1694C2.9079 26.4584 2.50033 26.6704 2.50033 26.8823C2.50033 27.4218 3.16021 28.4431 3.76187 28.8284C4.26649 29.156 4.28589 29.2138 3.93654 29.2138C3.29607 29.2138 2.86909 29.8496 2.675 31.0828C2.57796 31.6994 2.4227 37.0559 2.32565 42.9905C2.09275 56.8058 1.9763 60.197 1.52991 66.2087C1.31642 68.9063 1.06411 72.548 0.947663 74.3014C0.675947 78.6367 0.714763 87.7891 1.0253 91.5849C1.23879 94.4174 1.31642 94.7834 1.78222 95.4771C2.40329 96.402 3.70365 97.192 5.19809 97.5388C5.89679 97.7122 8.90508 97.8664 13.8348 98.0012C18.0076 98.1168 21.4234 98.2325 21.4623 98.2517C21.5787 98.3866 17.9688 99.1573 16.2802 99.3693C12.8061 99.7932 8.22579 99.2922 4.80992 98.1168C3.1214 97.5388 2.6556 97.481 3.08258 97.8856C3.56779 98.3288 5.48921 98.9454 8.08993 99.4656C12.4956 100.371 17.1536 100.121 21.4817 98.7527C23.2672 98.1747 23.733 97.8278 22.7432 97.7893C22.2192 97.7508 22.2192 97.7508 22.685 97.6929C25.3051 97.2883 26.8578 96.3634 27.4594 94.822C28.0805 93.1842 27.5565 91.7969 25.9844 91.0261C25.1498 90.6022 24.9169 90.583 20.8412 90.6022L16.5714 90.6408L16.5131 86.2669C16.4161 79.5038 16.8625 72.6636 17.9299 64.0892C18.5316 59.3107 19.1721 54.8019 19.2497 54.7249C19.2885 54.6863 19.4244 56.1893 19.5408 58.0775C19.8902 62.9717 21.8504 85.8815 22.0833 87.5964C22.2386 88.8488 22.3356 89.0993 22.8597 89.5618C23.5584 90.1784 23.7913 90.2169 24.7423 89.8123C25.2469 89.6003 25.5186 89.3113 25.8291 88.6176L26.2367 87.6927L26.1203 70.7367C25.965 50.1968 25.4604 30.2928 25.0916 29.3101C25.014 29.1367 24.7423 28.9055 24.49 28.7513C24.0242 28.5201 24.063 28.5009 25.3245 28.2889C27.1877 27.9806 27.6147 27.3062 26.6637 26.1694C25.8485 25.206 22.7238 24.0884 20.5501 23.9921C20.1425 23.9728 20.026 23.9343 20.2784 23.8765C20.6277 23.8187 20.7442 23.5489 20.9965 22.3158C21.4817 20.0229 21.7534 17.7299 21.7728 15.726C21.7922 14.1268 21.7534 13.7992 21.3264 13.067C20.8606 12.2385 19.405 11.1017 18.8033 11.1017C18.5316 11.1017 18.4734 10.697 18.4346 7.51779L18.3957 3.93391L19.4244 4.04952C19.9872 4.10732 22.2968 4.1844 24.5482 4.20366C28.2746 4.2422 28.6822 4.22293 29.2062 3.89537C30.0213 3.35586 30.2348 3.00904 30.2542 2.1805C30.2542 1.25563 29.6138 0.61978 28.3522 0.311489C26.8966 -0.0546063 16.8237 -0.112411 14.1453 0.215148ZM27.8282 0.696853C29.7108 1.08222 30.4289 2.23831 29.3809 3.20172L28.8568 3.68342L17.8911 3.56781L17.9882 7.03609C18.0658 10.1575 18.0464 10.5236 17.7553 10.6392C17.5806 10.7163 17.3865 10.7163 17.3283 10.6778C17.2895 10.62 17.173 9.19413 17.0954 7.49853C16.9401 4.14586 16.746 3.56781 15.7368 3.18245C15.0963 2.93196 14.3394 3.24026 14.3394 3.72196C14.3394 3.91464 14.4753 5.32122 14.6111 6.84341C14.7664 8.36559 14.844 9.73364 14.7858 9.86851C14.6499 10.2539 13.6795 10.1961 13.3302 9.79144C12.845 9.23266 12.8061 8.86657 13.0779 7.69121C13.4466 6.22682 13.4272 5.43683 13.0779 4.74317C12.7479 4.10732 12.2433 3.77976 11.6417 3.77976C11.4088 3.77976 11.2341 3.64489 11.2341 3.49074C11.2341 3.24026 10.1666 2.81635 9.44851 2.81635C8.94389 2.81635 8.86626 2.52733 9.27383 2.16124C10.089 1.40978 12.3209 0.908803 16.7654 0.427099C18.1628 0.292221 26.8384 0.484903 27.8282 0.696853ZM16.2026 4.06879C16.4549 4.45415 16.552 5.22488 16.6296 7.6334L16.7266 10.7163H15.698C14.6888 10.7163 14.6693 10.7163 15.0187 10.331C15.3292 9.98412 15.3486 9.77217 15.1351 7.40218C14.8246 3.66416 14.8246 3.58708 15.4069 3.58708C15.698 3.58708 16.0085 3.77976 16.2026 4.06879ZM12.3015 4.49269C12.9226 5.09 13.0196 5.70658 12.6897 7.07463C12.5344 7.78755 12.3986 8.63535 12.3986 8.92437C12.3986 9.57949 12.8644 10.2924 13.4466 10.5236C13.7377 10.6392 13.5243 10.697 12.6509 10.697C10.9235 10.7163 10.8459 10.62 10.9624 7.96096C11.0982 4.68537 11.1953 4.16513 11.6222 4.16513C11.8163 4.16513 12.1269 4.30001 12.3015 4.49269ZM21.1517 13.78C21.4623 14.6663 21.2682 18.019 20.7442 21.0055C20.5307 22.2772 20.3172 23.337 20.2784 23.3948C19.8902 23.7609 19.8126 22.6626 19.7737 17.6143L19.7543 11.9687L20.3366 12.5275C20.6665 12.8358 21.0353 13.3946 21.1517 13.78ZM19.3856 23.4333H18.2793L18.1628 21.256C17.9882 18.4236 17.9882 12.7395 18.1628 12.5853C18.2211 12.5083 18.5316 12.4505 18.8421 12.4505H19.3856V23.4333ZM17.6776 17.9804C17.7165 20.9285 17.7165 23.3755 17.697 23.4141C17.6582 23.4526 15.9115 23.5297 13.8154 23.5875C10.7489 23.6453 9.8949 23.6067 9.62318 23.3948C9.27383 23.1443 9.27383 22.9709 9.662 18.3273C9.8949 15.7068 10.089 13.5295 10.1278 13.5102C10.1472 13.4909 10.9235 13.4139 11.8745 13.3561L13.5631 13.2404V18.2309C13.5631 22.547 13.6019 23.2406 13.8542 23.2406C14.1065 23.2406 14.1453 22.547 14.1453 18.2309V13.2404L14.7858 13.1441C15.1157 13.0863 15.8533 12.9707 16.3773 12.8744C16.9207 12.778 17.4059 12.6817 17.4836 12.6624C17.5418 12.6624 17.6388 15.0517 17.6776 17.9804ZM19.4632 26.3428C19.5214 27.4026 19.5408 28.366 19.4826 28.4623C19.405 28.5587 19.1527 28.6357 18.9004 28.6357C18.6481 28.6357 18.4152 28.7321 18.3763 28.867C18.3181 29.0018 18.0658 28.9248 17.6582 28.6165C16.7072 27.9228 14.5529 27.9035 10.089 28.5201C8.10933 28.7899 6.24614 29.0211 5.91619 29.0211C4.71288 29.0018 3.08258 27.9421 3.08258 27.1714C3.08258 26.8631 3.80069 26.6126 6.51785 25.9575C10.2831 25.0519 14.4364 24.4931 18.0464 24.416L19.3273 24.3967L19.4632 26.3428ZM22.5103 24.7821C23.7524 25.0326 25.4604 25.6877 26.062 26.1501C26.5861 26.5548 26.7413 27.3448 26.3532 27.5953C26.1203 27.7301 21.3264 28.4238 20.5113 28.4431H19.9678V24.4353L20.8024 24.5316C21.2488 24.5701 22.0251 24.6858 22.5103 24.7821ZM16.4355 28.5587C16.7654 28.6165 17.3089 28.9055 17.6582 29.1945C18.2405 29.6955 18.2793 29.7918 18.2405 30.8516C18.2211 31.4682 18.1046 32.104 17.9882 32.2582C17.7553 32.5279 16.9789 32.5086 14.417 32.1811C13.5049 32.0655 13.369 32.104 12.8061 32.6243C12.3015 33.0482 12.1463 33.3757 12.0104 34.2235C11.894 35.1098 11.8551 34.8979 11.8357 32.8747C11.7969 29.8882 11.6805 29.0211 11.2535 29.0018C11.0788 28.9826 11.467 28.867 12.1074 28.7321C13.3884 28.4623 15.5233 28.3852 16.4355 28.5587ZM24.4511 29.3294C24.7811 29.6377 24.8199 30.2543 25.2081 43.0869C25.4798 51.6805 25.8485 86.132 25.6933 87.3845C25.5962 88.1745 25.4216 88.5598 25.014 88.9837C24.3153 89.6581 23.4031 89.7159 22.9955 89.0993C22.6074 88.502 22.5491 88.0203 22.1027 82.5867C21.8892 79.9855 21.4429 74.9565 21.1323 71.4111C20.5695 64.9755 20.1231 59.6383 19.7737 54.6093C19.6185 52.22 19.6379 51.6227 20.0843 48.4434C21.1129 41.0252 21.1905 40.1003 21.1905 36.343C21.1905 32.3738 20.88 30.1001 20.2395 29.3872C19.9484 29.0789 19.9678 29.0404 20.4918 28.9633C21.5011 28.7899 24.1212 29.0211 24.4511 29.3294ZM19.1721 30.023C19.1527 30.8323 19.1139 30.9479 18.9974 30.5626C18.7645 29.8689 18.7645 29.0211 18.9974 29.0211C19.1139 29.0211 19.1915 29.4835 19.1721 30.023ZM11.3117 30.6011C11.3893 31.2755 11.3505 32.1233 11.2535 32.4894C11.0982 33.0867 11.0788 33.0096 11.0594 31.7957C11.04 30.9286 10.943 30.3121 10.7489 30.0616C10.3607 29.5606 10.3801 29.4065 10.8265 29.4065C11.137 29.4065 11.2147 29.5991 11.3117 30.6011ZM5.56684 29.7918H6.09087L5.50862 30.1001C4.7711 30.4855 3.91714 31.2755 3.45134 32.0077L3.08258 32.5857L3.10199 31.7186C3.1408 30.3313 3.31548 29.9074 3.95595 29.7726C4.28589 29.6955 4.65465 29.6762 4.79051 29.7148C4.94578 29.7533 5.29513 29.7918 5.56684 29.7918ZM20.1231 30.1194C20.4918 31.0443 20.7442 33.5684 20.7442 36.3045C20.7442 38.6552 19.9872 46.6322 19.5991 48.482C19.3273 49.6959 19.1721 39.5223 19.3662 34.9942C19.4826 32.605 19.5797 30.4277 19.5797 30.1194C19.5797 29.8304 19.6573 29.5991 19.7543 29.5991C19.8514 29.5991 20.0066 29.8304 20.1231 30.1194ZM10.1472 30.1001C10.3219 30.2543 10.516 30.6011 10.5742 30.8708C10.8071 31.815 10.516 44.0696 10.186 46.0735C9.33206 51.6227 8.07052 55.4763 5.78034 59.4648C3.91714 62.7404 3.97536 62.3165 4.01418 71.2184C4.0724 78.3284 3.97536 79.8891 3.5872 79.5038C3.31548 79.2147 2.6556 75.0528 2.48092 72.3167C2.24802 69.0989 2.34506 61.8541 2.69441 56.4783C2.79145 54.879 2.8885 50.4281 2.8885 46.5552C2.9079 37.0174 3.08258 33.7611 3.64542 32.605C4.18885 31.4874 5.17868 30.6782 6.57608 30.1965C7.91525 29.734 9.72023 29.6762 10.1472 30.1001ZM18.9392 34.0694C18.9004 34.5318 18.8615 34.1657 18.8615 33.2601C18.8615 32.3545 18.9004 31.9884 18.9392 32.4316C18.978 32.894 18.978 33.6262 18.9392 34.0694ZM16.0085 32.9133C16.746 33.0674 17.1924 33.0674 17.6388 32.9133L18.2599 32.6821L18.1823 34.6089L18.124 36.5164L17.3477 37.3064C16.5908 38.0772 16.5714 38.1157 16.6102 39.3489C16.649 40.1967 16.5714 40.794 16.3579 41.1793C15.9697 41.9501 14.5529 42.5859 13.6407 42.4125L12.9808 42.2969V41.1023C12.9808 40.4471 12.8838 39.0984 12.7867 38.0964C12.515 35.5723 12.515 33.7611 12.7867 33.2794C13.2137 32.4701 13.6795 32.4316 16.0085 32.9133ZM11.9328 37.1137C12.418 39.0406 12.5344 40.9288 12.1851 41.5647C12.0298 41.873 12.0492 42.0464 12.2821 42.2969C12.8644 42.9327 12.6509 50.5437 11.6999 64.1856C11.0982 72.7021 10.8847 83.5501 11.2147 87.8662C11.3311 89.4462 11.3893 90.7757 11.3505 90.8142C11.3117 90.872 10.1472 91.0262 8.76922 91.1803C7.41063 91.3537 5.2369 91.6813 3.95595 91.9318C2.675 92.163 1.60755 92.3557 1.58814 92.3364C1.45228 92.2208 1.14175 85.8045 1.14175 83.184C1.14175 79.9855 1.43287 73.2416 1.70459 70.4477C1.82104 69.0604 1.84045 69.1375 1.9763 71.8928C2.09275 74.7638 2.22861 75.7657 2.83027 78.5018C3.16021 80.0818 3.47075 80.3708 4.11122 79.7157C4.5382 79.2918 4.5382 79.2726 4.47998 71.6038C4.44116 65.3609 4.47998 63.7231 4.71288 62.9717C4.84874 62.4707 5.76093 60.5439 6.71194 58.6941C9.87549 52.4898 10.8847 47.9425 11.1758 38.5589C11.2535 36.1118 11.3505 34.3777 11.3893 34.7052C11.4282 35.0135 11.6611 36.1118 11.9328 37.1137ZM19.075 51.2951C19.1333 51.4493 18.9586 53.0678 18.7063 54.8983C16.746 68.1355 16.2026 74.2435 16.1832 82.4325C16.1832 86.0935 16.125 89.003 16.0667 88.8874C15.7562 88.2901 15.4457 83.4345 15.368 77.4806C15.2904 72.3745 15.368 69.0989 15.698 62.6441C15.9309 58.0775 16.1444 51.6034 16.1832 48.2508C16.2414 42.374 16.2414 42.1235 16.649 41.6225C16.9789 41.1986 17.0566 40.8518 17.0566 39.6764C17.0566 38.2891 17.076 38.2506 17.8329 37.422C18.3181 36.9018 18.6286 36.3815 18.6481 36.0347C18.6675 35.7264 18.7451 38.9635 18.8227 43.241C18.9004 47.5186 19.0168 51.141 19.075 51.2951ZM15.3098 60.1392C14.5917 75.284 14.6111 81.6233 15.4069 87.6927C15.8338 90.9105 15.9891 90.6022 13.9318 90.7757C12.9614 90.8335 12.088 90.8335 11.991 90.7371C11.9134 90.6601 11.7193 88.3864 11.6028 85.7081C11.3117 80.0433 11.5058 73.7618 12.3209 62.5478C12.5927 58.6556 12.8644 52.9522 12.9226 49.2912L13.039 42.8942L13.9318 42.8749C14.417 42.8749 14.9993 42.7979 15.2128 42.7208C15.6009 42.5666 15.6009 42.663 15.6592 47.3066C15.6786 50.1005 15.5427 55.38 15.3098 60.1392ZM25.7903 91.4886C26.9936 92.0859 27.4594 93.03 27.1489 94.1861C27.013 94.6293 26.7413 95.2459 26.5472 95.5349C26.0426 96.2286 24.3929 96.98 23.0732 97.1342C22.0057 97.2498 3.1214 95.6505 2.46151 95.4C1.9763 95.2073 1.41346 92.7988 1.84045 92.7988C1.89867 92.7988 2.84968 92.6254 3.93654 92.4135C6.07146 92.0088 10.1278 91.4501 11.0594 91.4501C11.5834 91.4501 11.6222 91.4886 11.6222 92.2208C11.6222 94.8027 15.2322 94.3017 16.2802 91.5657L16.4743 91.0647H20.7053C24.7035 91.0647 24.9752 91.084 25.7903 91.4886ZM15.6204 91.8161C15.1157 92.7796 14.223 93.3769 13.2719 93.3769C12.8061 93.3769 12.3792 93.3191 12.3404 93.2227C12.2821 93.1457 12.1851 92.6832 12.1074 92.163L11.9716 91.2574H15.9115L15.6204 91.8161ZM11.0788 96.7488C15.174 97.1149 18.8615 97.4425 19.2885 97.481C20.88 97.6159 15.2322 97.5966 10.5548 97.4232C5.66389 97.2498 4.28589 97.0571 3.3737 96.3827C2.84968 95.9781 2.4421 95.9588 11.0788 96.7488Z" fill="url(#paint1_linear_692_609)"/>
<path d="M102.172 13.6259C100.678 13.703 97.5145 13.915 95.1466 14.0884C92.7788 14.2618 90.5469 14.3389 90.1781 14.2811C89.7899 14.204 89.3241 14.2425 89.1106 14.3581C88.8777 14.4737 87.8103 14.6664 86.704 14.7628C85.5977 14.8591 84.3362 14.994 83.8898 15.0711L83.0552 15.1674V17.3832C83.0552 20.023 83.2493 20.3505 84.7244 20.3505C85.4425 20.3505 85.7142 20.4469 86.18 20.9093C86.4905 21.2176 86.7428 21.6415 86.7428 21.8535C86.7428 22.181 86.5682 22.2581 85.3454 22.3737C84.5691 22.4508 83.851 22.5856 83.7345 22.6627C83.6375 22.7398 82.8418 22.8554 81.9878 22.8939C81.1338 22.9325 80.2216 23.0866 79.9693 23.2215C79.5423 23.4527 79.5229 23.5491 79.62 24.763C79.6782 25.4566 79.8723 26.9788 80.0275 28.1542C80.2022 29.3102 80.3381 31.1215 80.3381 32.1427C80.3381 33.9346 80.3187 34.031 79.9111 34.108C79.6588 34.1466 78.9019 34.2814 78.2032 34.4163C77.5045 34.5319 76.3982 34.8209 75.7383 35.0329C74.438 35.4568 72.6524 36.5166 72.7106 36.8248C72.73 36.9212 73.4287 37.0946 74.2633 37.1717C77.6015 37.5185 77.6986 37.557 75.486 37.7304C74.3603 37.8075 73.2346 37.9424 72.9823 38.0002L72.5165 38.0965L72.6524 40.7363C72.73 42.1814 73.2929 51.777 73.9333 62.0662C74.5544 72.3361 75.2143 83.0878 75.389 85.9587C75.6995 91.2382 75.913 93.4733 76.3011 95.6506C76.5535 96.9801 76.6699 97.0572 77.8732 96.5562C78.9019 96.1323 78.9407 96.1901 78.0285 96.8453C77.5821 97.1728 77.1163 97.6545 76.9804 97.9436C76.7864 98.3867 76.8252 98.4831 77.2716 98.8684C77.815 99.3309 78.242 99.4079 82.376 99.7355C85.9083 100.025 93.9821 99.9667 97.7085 99.6392C102.425 99.2345 102.852 99.1574 102.852 98.8106C102.852 98.5794 102.677 98.5601 101.94 98.6565C96.8158 99.3694 86.8593 99.5621 81.2697 99.0611C78.1061 98.7914 77.3686 98.5987 77.5627 98.0977C77.718 97.6738 79.0959 96.7875 80.241 96.3443C81.8131 95.747 85.0155 95.8626 88.2955 96.614C92.8176 97.6545 93.2252 97.6931 97.8056 97.6931C102.541 97.6931 103.123 97.5967 103.55 96.6526C103.803 96.1131 104.463 64.6867 104.443 53.0101C104.443 46.2277 104.172 40.0619 103.803 38.9058C103.57 38.1544 103.046 37.9809 100.465 37.7883C99.3194 37.6919 98.776 37.5763 98.8342 37.4414C98.9313 37.1139 100.853 36.7092 102.056 36.767C102.696 36.8056 103.143 36.7478 103.182 36.6129C103.298 36.2853 101.571 35.2256 100.329 34.8402C99.4553 34.5897 98.5431 34.5319 95.3989 34.5705C92.216 34.609 87.5774 34.3778 87.4221 34.1851C87.4027 34.1466 87.4415 31.5261 87.5192 28.3468C87.5968 24.6666 87.5774 22.47 87.4609 22.3159C87.131 21.892 87.4998 21.8149 87.9656 22.2196C88.1985 22.4315 89.0136 22.971 89.7899 23.4142C92.3518 24.8786 92.7594 25.842 92.3907 29.7534C92.0219 33.5107 92.3324 34.4163 93.9239 34.4163C94.7973 34.4163 95.593 33.5685 95.7677 32.4702C95.8259 32.0078 95.8259 29.7727 95.7289 27.499C95.5348 22.5471 95.593 22.6627 93.1476 22.6627C91.7308 22.6627 91.5949 22.6242 91.2262 22.1617C90.4498 21.1791 90.8574 19.522 92.1966 18.1925C92.9341 17.4603 93.3805 17.2098 94.5062 16.863C95.7289 16.4969 96.2141 16.4584 98.6013 16.5354L101.299 16.6125L102.91 17.4218C103.783 17.8649 104.773 18.231 105.123 18.231C106.074 18.231 106.675 17.5567 107.044 16.1501C107.374 14.8013 107.277 13.8957 106.733 13.6067C106.345 13.3947 106.151 13.3947 102.172 13.6259ZM106.636 14.4352C106.772 14.9747 106.423 16.6318 106.035 17.2098C105.627 17.8457 104.851 17.7686 103.298 16.9786C101.59 16.0923 100.173 15.861 97.3204 15.9574C94.7002 16.0537 93.5163 16.4006 92.1772 17.4603C90.1975 19.021 89.6929 21.6993 91.1485 22.8554C91.5561 23.1637 91.9443 23.2408 93.167 23.2408C94.4479 23.2408 94.7197 23.2986 94.8749 23.6069C94.9914 23.7995 95.1078 25.9576 95.1272 28.501C95.1854 32.7593 95.166 33.0483 94.8167 33.4336C94.5256 33.7419 94.2539 33.8383 93.7492 33.7997C93.1282 33.7419 93.0311 33.6649 92.8759 33.029C92.7594 32.5473 92.7788 31.4876 92.9341 29.9268C93.3999 25.63 92.9341 24.6281 89.5376 22.6049C86.704 20.9093 85.9083 18.8284 87.228 16.574C87.4803 16.1308 87.9073 15.6491 88.1596 15.4757C88.6448 15.1674 92.5265 14.782 99.4553 14.3774C101.377 14.2618 103.337 14.1462 103.822 14.1269C106.345 13.9535 106.52 13.9728 106.636 14.4352ZM86.8399 16.1115C86.2576 17.0364 85.9471 18.3274 86.0829 19.233L86.1994 19.9074L85.1708 19.811C84.5885 19.7725 84.0063 19.6376 83.8898 19.5413C83.7151 19.4064 83.6375 18.732 83.6375 17.441V15.5528L84.7632 15.4757C85.3648 15.4371 86.1994 15.3986 86.607 15.3793L87.3251 15.3408L86.8399 16.1115ZM86.9563 27.7881C86.9369 30.3122 86.8787 32.8171 86.8011 33.3373L86.6846 34.2622L85.8112 34.1466C85.326 34.0888 84.6855 34.031 84.3944 34.031H83.8316V23.26L85.2484 23.2022C86.0053 23.1637 86.7234 23.1444 86.8205 23.1444C86.9369 23.1637 86.9757 25.0905 86.9563 27.7881ZM83.2493 34.031H80.9786L80.8427 31.1793C80.7845 29.6185 80.5516 27.4027 80.3575 26.2466C80.144 25.0905 80.0275 24.0308 80.0858 23.8959C80.2022 23.5683 80.5904 23.4913 82.046 23.4527L83.2493 23.4334V34.031ZM80.3381 35.6109C80.3381 37.2295 80.4351 37.1717 76.961 36.9019C75.2919 36.767 73.9333 36.6129 73.9333 36.5358C73.9333 36.1119 77.9703 34.8595 80.1052 34.6283C80.2605 34.609 80.3381 34.9173 80.3381 35.6109ZM83.2493 37.3065H81.9684C80.7262 37.3065 80.6874 37.2873 80.8039 36.8634C80.8621 36.6322 80.9203 36.0348 80.9203 35.5146V34.609H83.2493V37.3065ZM86.2964 34.7246C86.5293 34.7824 86.7816 35.0329 86.8593 35.2641C87.0534 35.8422 87.2863 35.9578 88.4702 35.9578C89.2853 35.9578 89.6347 36.0541 89.984 36.3817C90.838 37.1717 90.6245 37.2295 87.131 37.2487L83.8316 37.268V34.609H84.8602C85.4037 34.609 86.0635 34.6668 86.2964 34.7246ZM94.0598 35.0907C98.7954 35.1292 99.2612 35.1678 100.562 35.5917L101.978 36.0348L100.29 36.3624C98.3684 36.7478 98.1549 36.8248 98.2326 37.268C98.2714 37.4414 98.1937 37.5763 98.0967 37.557C97.9803 37.5378 96.3888 37.4607 94.545 37.3836C91.5949 37.268 91.2067 37.2102 91.1097 36.9019C91.0515 36.7092 90.6827 36.2853 90.2946 35.9385C89.6541 35.399 89.4988 35.3412 88.7225 35.4568C87.8685 35.5724 87.3251 35.3797 87.3251 34.9366C87.3251 34.821 87.6356 34.8017 88.1596 34.898C88.606 34.9751 91.265 35.0714 94.0598 35.0907ZM90.8186 38.0773C91.0709 38.5397 91.4591 42.4319 91.362 43.5109C91.2456 44.6863 90.7798 45.2065 89.8482 45.2065C88.7613 45.2065 88.509 45.4955 88.2955 47.1333C87.9462 49.6767 87.8297 56.4591 88.082 59.3686C88.9166 68.7715 91.9249 76.9027 96.9322 83.2612C98.3296 85.0339 101.454 88.1746 101.823 88.1746C102.134 88.1746 102.134 87.9819 101.784 86.1321C100.736 80.5636 100.212 73.7427 99.9405 62.5479C99.6882 51.1989 99.3971 43.5109 99.1448 40.6977C99.0477 39.4453 98.9895 38.3663 99.0477 38.3278C99.1059 38.27 99.9987 38.3085 101.027 38.4241C102.367 38.559 102.988 38.6939 103.143 38.9251C103.434 39.2912 103.589 41.2758 103.822 47.037C103.997 51.1218 103.686 75.9393 103.318 89.0994C103.201 93.0109 103.162 93.3577 102.91 92.8568C102.755 92.5677 101.59 91.3346 100.329 90.1399C94.8555 84.9761 91.3038 78.5598 89.0718 69.7735C87.7715 64.7252 87.0728 59.7155 86.4517 51.0255C86.277 48.6555 86.0441 46.6516 85.8889 46.2855C85.6171 45.6304 84.7438 44.8211 84.3168 44.8211C83.8898 44.8211 83.8316 44.3202 83.8316 41.0638V37.9039L84.6661 37.8268C85.1125 37.7883 86.6458 37.7497 88.0626 37.7497C90.2751 37.7497 90.6633 37.7883 90.8186 38.0773ZM83.2493 41.1795C83.2493 42.9907 83.327 44.6285 83.4434 44.8211C83.5405 45.0138 83.9286 45.2643 84.278 45.3799C85.3648 45.746 85.5589 46.4589 85.8889 50.9677C87.0534 67.7118 89.3824 76.3824 94.9526 84.7641C96.1753 86.6139 97.0875 87.6929 99.3194 89.8894C100.853 91.4309 102.289 92.9531 102.483 93.2614C103.026 94.1477 102.968 95.2075 102.347 95.8241C101.862 96.3058 101.804 96.325 99.8823 96.2094C98.6595 96.1323 97.1845 95.9011 96.0588 95.5928C90.8186 94.1477 89.7705 93.955 87.4221 93.955C86.1412 93.955 84.5303 94.0899 83.6763 94.2633C82.4924 94.4945 78.3584 95.747 77.3104 96.1901C77.1939 96.2479 77.0387 96.1516 76.961 95.9782C76.6699 95.2075 76.2429 90.6794 75.8742 84.5136C75.6607 80.8527 74.962 69.3881 74.3215 59.0411C73.681 48.694 73.157 39.8307 73.157 39.3682V38.5012L74.7679 38.3663C78.0091 38.0773 80.0858 37.9424 81.6579 37.9039L83.2493 37.8846V41.1795ZM98.252 38.27C98.5625 38.559 98.9507 45.7653 99.1448 54.6479C99.5523 72.6251 99.8629 77.6927 100.911 84.2824C101.124 85.5734 101.299 86.7487 101.299 86.8643C101.299 86.9992 100.717 86.5368 100.018 85.8624C94.4285 80.4095 90.4886 72.1434 89.0524 62.8369C88.3343 58.3089 88.3731 46.9021 89.1106 46.035C89.2271 45.9002 89.6347 45.7845 90.0422 45.7845C90.935 45.7845 91.6919 45.0138 91.9054 43.8963C92.0413 43.1641 91.7114 38.7902 91.4785 38.1736C91.3426 37.8461 91.5173 37.8268 94.7197 37.9617C96.5828 38.0387 98.1743 38.1736 98.252 38.27ZM93.2058 95.4194C97.825 96.614 99.4165 96.9031 100.95 96.8067C101.998 96.7489 102.347 96.6526 102.755 96.2672C103.318 95.747 103.434 96.0745 102.871 96.6333C102.405 97.0957 99.3388 97.327 95.7677 97.1728C93.1476 97.0379 91.7502 96.826 87.8103 95.9589C86.1606 95.5928 84.8796 95.4387 83.4046 95.4194C82.2401 95.4194 81.3085 95.3809 81.3085 95.3809C81.3085 95.3616 81.9878 95.1882 82.8223 95.0148C86.6458 94.1477 88.5672 94.2248 93.2058 95.4194Z" fill="url(#paint2_linear_692_609)"/>
<path d="M102.938 13.6259C101.444 13.703 98.2804 13.915 95.9126 14.0884C93.5448 14.2618 91.3128 14.3389 90.9441 14.2811C90.5559 14.204 90.0901 14.2425 89.8766 14.3581C89.6437 14.4737 88.5762 14.6664 87.47 14.7628C86.3637 14.8591 85.1022 14.994 84.6558 15.0711L83.8212 15.1674V17.3832C83.8212 20.023 84.0153 20.3505 85.4903 20.3505C86.2084 20.3505 86.4801 20.4469 86.9459 20.9093C87.2565 21.2176 87.5088 21.6415 87.5088 21.8535C87.5088 22.181 87.3341 22.2581 86.1114 22.3737C85.3351 22.4508 84.617 22.5856 84.5005 22.6627C84.4035 22.7398 83.6077 22.8554 82.7537 22.8939C81.8998 22.9325 80.9876 23.0866 80.7353 23.2215C80.3083 23.4527 80.2889 23.5491 80.3859 24.763C80.4442 25.4566 80.6382 26.9788 80.7935 28.1542C80.9682 29.3102 81.104 31.1215 81.104 32.1427C81.104 33.9346 81.0846 34.031 80.6771 34.108C80.4248 34.1466 79.6678 34.2814 78.9691 34.4163C78.2704 34.5319 77.1642 34.8209 76.5043 35.0329C75.2039 35.4568 73.4183 36.5166 73.4766 36.8248C73.496 36.9212 74.1947 37.0946 75.0292 37.1717C78.3675 37.5185 78.4645 37.557 76.252 37.7304C75.1263 37.8075 74.0006 37.9424 73.7483 38.0002L73.2825 38.0965L73.4183 40.7363C73.496 42.1814 74.0588 51.777 74.6993 62.0662C75.3204 72.3361 75.9802 83.0878 76.1549 85.9587C76.4655 91.2382 76.6789 93.4733 77.0671 95.6506C77.3194 96.9801 77.4359 97.0572 78.6392 96.5562C79.6678 96.1323 79.7066 96.1901 78.7944 96.8453C78.3481 97.1728 77.8823 97.6545 77.7464 97.9436C77.5523 98.3867 77.5911 98.4831 78.0375 98.8684C78.581 99.3309 79.0079 99.4079 83.1419 99.7355C86.6742 100.025 94.7481 99.9667 98.4745 99.6392C103.191 99.2345 103.618 99.1574 103.618 98.8106C103.618 98.5794 103.443 98.5601 102.705 98.6565C97.5817 99.3694 87.6252 99.5621 82.0356 99.0611C78.8721 98.7914 78.1346 98.5987 78.3287 98.0977C78.4839 97.6738 79.8619 96.7875 81.007 96.3443C82.5791 95.747 85.7814 95.8626 89.0615 96.614C93.5836 97.6545 93.9912 97.6931 98.5715 97.6931C103.307 97.6931 103.889 97.5967 104.316 96.6526C104.569 96.1131 105.229 64.6867 105.209 53.0101C105.209 46.2277 104.937 40.0619 104.569 38.9058C104.336 38.1544 103.812 37.9809 101.23 37.7883C100.085 37.6919 99.5419 37.5763 99.6002 37.4414C99.6972 37.1139 101.619 36.7092 102.822 36.767C103.462 36.8056 103.909 36.7478 103.948 36.6129C104.064 36.2853 102.337 35.2256 101.095 34.8402C100.221 34.5897 99.3091 34.5319 96.1649 34.5705C92.9819 34.609 88.3433 34.3778 88.1881 34.1851C88.1687 34.1466 88.2075 31.5261 88.2851 28.3468C88.3628 24.6666 88.3433 22.47 88.2269 22.3159C87.897 21.892 88.2657 21.8149 88.7315 22.2196C88.9644 22.4315 89.7796 22.971 90.5559 23.4142C93.1178 24.8786 93.5254 25.842 93.1566 29.7534C92.7878 33.5107 93.0984 34.4163 94.6899 34.4163C95.5632 34.4163 96.359 33.5685 96.5337 32.4702C96.5919 32.0078 96.5919 29.7727 96.4948 27.499C96.3008 22.5471 96.359 22.6627 93.9135 22.6627C92.4967 22.6627 92.3609 22.6242 91.9921 22.1617C91.2158 21.1791 91.6234 19.522 92.9625 18.1925C93.7 17.4603 94.1464 17.2098 95.2721 16.863C96.4948 16.4969 96.98 16.4584 99.3673 16.5354L102.065 16.6125L103.676 17.4218C104.549 17.8649 105.539 18.231 105.888 18.231C106.839 18.231 107.441 17.5567 107.81 16.1501C108.14 14.8013 108.043 13.8957 107.499 13.6067C107.111 13.3947 106.917 13.3947 102.938 13.6259ZM107.402 14.4352C107.538 14.9747 107.189 16.6318 106.801 17.2098C106.393 17.8457 105.617 17.7686 104.064 16.9786C102.356 16.0923 100.939 15.861 98.0863 15.9574C95.4662 16.0537 94.2823 16.4006 92.9431 17.4603C90.9635 19.021 90.4589 21.6993 91.9145 22.8554C92.3221 23.1637 92.7102 23.2408 93.9329 23.2408C95.2139 23.2408 95.4856 23.2986 95.6409 23.6069C95.7573 23.7995 95.8738 25.9576 95.8932 28.501C95.9514 32.7593 95.932 33.0483 95.5826 33.4336C95.2915 33.7419 95.0198 33.8383 94.5152 33.7997C93.8941 33.7419 93.7971 33.6649 93.6418 33.029C93.5254 32.5473 93.5448 31.4876 93.7 29.9268C94.1658 25.63 93.7 24.6281 90.3036 22.6049C87.47 20.9093 86.6742 18.8284 87.994 16.574C88.2463 16.1308 88.6733 15.6491 88.9256 15.4757C89.4108 15.1674 93.2925 14.782 100.221 14.3774C102.143 14.2618 104.103 14.1462 104.588 14.1269C107.111 13.9535 107.286 13.9728 107.402 14.4352ZM87.6058 16.1115C87.0236 17.0364 86.713 18.3274 86.8489 19.233L86.9654 19.9074L85.9367 19.811C85.3545 19.7725 84.7722 19.6376 84.6558 19.5413C84.4811 19.4064 84.4035 18.732 84.4035 17.441V15.5528L85.5291 15.4757C86.1308 15.4371 86.9654 15.3986 87.3729 15.3793L88.091 15.3408L87.6058 16.1115ZM87.7223 27.7881C87.7029 30.3122 87.6446 32.8171 87.567 33.3373L87.4506 34.2622L86.5772 34.1466C86.092 34.0888 85.4515 34.031 85.1604 34.031H84.5975V23.26L86.0143 23.2022C86.7713 23.1637 87.4894 23.1444 87.5864 23.1444C87.7029 23.1637 87.7417 25.0905 87.7223 27.7881ZM84.0153 34.031H81.7445L81.6087 31.1793C81.5504 29.6185 81.3175 27.4027 81.1235 26.2466C80.91 25.0905 80.7935 24.0308 80.8517 23.8959C80.9682 23.5683 81.3564 23.4913 82.812 23.4527L84.0153 23.4334V34.031ZM81.104 35.6109C81.104 37.2295 81.2011 37.1717 77.727 36.9019C76.0579 36.767 74.6993 36.6129 74.6993 36.5358C74.6993 36.1119 78.7362 34.8595 80.8711 34.6283C81.0264 34.609 81.104 34.9173 81.104 35.6109ZM84.0153 37.3065H82.7343C81.4922 37.3065 81.4534 37.2873 81.5698 36.8634C81.6281 36.6322 81.6863 36.0348 81.6863 35.5146V34.609H84.0153V37.3065ZM87.0624 34.7246C87.2953 34.7824 87.5476 35.0329 87.6252 35.2641C87.8193 35.8422 88.0522 35.9578 89.2361 35.9578C90.0513 35.9578 90.4006 36.0541 90.75 36.3817C91.6039 37.1717 91.3904 37.2295 87.8969 37.2487L84.5975 37.268V34.609H85.6262C86.1696 34.609 86.8295 34.6668 87.0624 34.7246ZM94.8257 35.0907C99.5614 35.1292 100.027 35.1678 101.328 35.5917L102.744 36.0348L101.056 36.3624C99.1344 36.7478 98.9209 36.8248 98.9985 37.268C99.0373 37.4414 98.9597 37.5763 98.8627 37.557C98.7462 37.5378 97.1547 37.4607 95.3109 37.3836C92.3609 37.268 91.9727 37.2102 91.8757 36.9019C91.8174 36.7092 91.4487 36.2853 91.0605 35.9385C90.42 35.399 90.2648 35.3412 89.4884 35.4568C88.6345 35.5724 88.091 35.3797 88.091 34.9366C88.091 34.821 88.4016 34.8017 88.9256 34.898C89.372 34.9751 92.0309 35.0714 94.8257 35.0907ZM91.5845 38.0773C91.8368 38.5397 92.225 42.4319 92.128 43.5109C92.0115 44.6863 91.5457 45.2065 90.6141 45.2065C89.5273 45.2065 89.2749 45.4955 89.0615 47.1333C88.7121 49.6767 88.5957 56.4591 88.848 59.3686C89.6825 68.7715 92.6908 76.9027 97.6982 83.2612C99.0956 85.0339 102.22 88.1746 102.589 88.1746C102.9 88.1746 102.9 87.9819 102.55 86.1321C101.502 80.5636 100.978 73.7427 100.706 62.5479C100.454 51.1989 100.163 43.5109 99.9107 40.6977C99.8137 39.4453 99.7554 38.3663 99.8137 38.3278C99.8719 38.27 100.765 38.3085 101.793 38.4241C103.132 38.559 103.754 38.6939 103.909 38.9251C104.2 39.2912 104.355 41.2758 104.588 47.037C104.763 51.1218 104.452 75.9393 104.084 89.0994C103.967 93.0109 103.928 93.3577 103.676 92.8568C103.521 92.5677 102.356 91.3346 101.095 90.1399C95.6215 84.9761 92.0697 78.5598 89.8378 69.7735C88.5374 64.7252 87.8387 59.7155 87.2177 51.0255C87.043 48.6555 86.8101 46.6516 86.6548 46.2855C86.3831 45.6304 85.5097 44.8211 85.0827 44.8211C84.6558 44.8211 84.5975 44.3202 84.5975 41.0638V37.9039L85.4321 37.8268C85.8785 37.7883 87.4117 37.7497 88.8286 37.7497C91.0411 37.7497 91.4293 37.7883 91.5845 38.0773ZM84.0153 41.1795C84.0153 42.9907 84.0929 44.6285 84.2094 44.8211C84.3064 45.0138 84.6946 45.2643 85.0439 45.3799C86.1308 45.746 86.3249 46.4589 86.6548 50.9677C87.8193 67.7118 90.1483 76.3824 95.7185 84.7641C96.9412 86.6139 97.8534 87.6929 100.085 89.8894C101.619 91.4309 103.055 92.9531 103.249 93.2614C103.792 94.1477 103.734 95.2075 103.113 95.8241C102.628 96.3058 102.57 96.325 100.648 96.2094C99.4255 96.1323 97.9505 95.9011 96.8248 95.5928C91.5845 94.1477 90.5365 93.955 88.1881 93.955C86.9071 93.955 85.2962 94.0899 84.4423 94.2633C83.2584 94.4945 79.1244 95.747 78.0763 96.1901C77.9599 96.2479 77.8046 96.1516 77.727 95.9782C77.4359 95.2075 77.0089 90.6794 76.6401 84.5136C76.4266 80.8527 75.7279 69.3881 75.0875 59.0411C74.447 48.694 73.923 39.8307 73.923 39.3682V38.5012L75.5339 38.3663C78.775 38.0773 80.8517 37.9424 82.4238 37.9039L84.0153 37.8846V41.1795ZM99.0179 38.27C99.3285 38.559 99.7166 45.7653 99.9107 54.6479C100.318 72.6251 100.629 77.6927 101.677 84.2824C101.89 85.5734 102.065 86.7487 102.065 86.8643C102.065 86.9992 101.483 86.5368 100.784 85.8624C95.1945 80.4095 91.2546 72.1434 89.8184 62.8369C89.1003 58.3089 89.1391 46.9021 89.8766 46.035C89.993 45.9002 90.4006 45.7845 90.8082 45.7845C91.701 45.7845 92.4579 45.0138 92.6714 43.8963C92.8073 43.1641 92.4773 38.7902 92.2444 38.1736C92.1086 37.8461 92.2832 37.8268 95.4856 37.9617C97.3488 38.0387 98.9403 38.1736 99.0179 38.27ZM93.9718 95.4194C98.5909 96.614 100.182 96.9031 101.716 96.8067C102.764 96.7489 103.113 96.6526 103.521 96.2672C104.083 95.747 104.2 96.0745 103.637 96.6333C103.171 97.0957 100.105 97.327 96.5337 97.1728C93.9135 97.0379 92.5161 96.826 88.5762 95.9589C86.9265 95.5928 85.6456 95.4387 84.1706 95.4194C83.0061 95.4194 82.0745 95.3809 82.0745 95.3809C82.0745 95.3616 82.7537 95.1882 83.5883 95.0148C87.4117 94.1477 89.3332 94.2248 93.9718 95.4194Z" fill="url(#paint3_linear_692_609)"/>
<path d="M43.2682 46.3819C40.0076 46.5553 35.893 47.1141 32.8265 47.8077C30.3422 48.3665 29.6824 48.5785 29.6824 48.8675C29.6824 48.9831 30.1287 49.9465 30.6722 51.0448C31.2156 52.1238 31.7979 53.3377 31.9337 53.7424C32.2248 54.5516 32.1666 54.6672 30.8469 55.4765C29.3524 56.4206 30.2258 58.0199 32.5354 58.5209C33.3311 58.7135 34.8256 58.7521 37.7368 58.6943C44.5685 58.5401 54.2727 58.7521 63.5887 59.2531C66.5388 59.4072 67.1792 59.677 67.2957 60.7945C67.3733 61.5845 67.1404 61.6616 65.1996 61.3918C63.6663 61.1799 63.5499 61.1991 63.0065 61.6038C62.3272 62.0855 64.2874 62.1047 44.258 61.3726C33.7775 60.9872 33.4864 60.9872 33.0012 61.334C32.2443 61.9121 32.0502 62.8755 31.8173 67.1337C31.7008 69.3303 31.4291 74.2437 31.235 78.0588C30.6722 88.059 30.7498 91.1419 31.6038 92.799C32.5354 94.6102 34.845 94.8607 35.6795 93.2421C35.8348 92.9531 35.893 89.0031 35.893 79.7544C35.893 69.6193 35.9512 66.575 36.1453 66.2089C36.2812 65.9391 36.6888 65.6308 37.0575 65.5152C38.0085 65.2069 41.405 64.8601 43.5399 64.8601C45.112 64.8601 45.3643 64.8986 45.4419 65.1877C45.6554 66.0933 44.8985 81.7776 44.3356 88.4636C43.9281 93.1651 43.9281 93.4348 44.6074 94.1863L45.1702 94.8221L48.5861 94.8799C51.9437 94.9377 51.9825 94.9378 52.2737 94.4946C52.6424 93.9358 52.9724 84.3788 52.9724 74.051V66.9603L53.4381 66.4979C54.1563 65.785 57.6109 64.9564 57.9021 65.4189C57.9797 65.5345 58.1738 66.9411 58.329 68.5596C58.9113 74.3786 58.6396 83.9741 57.7274 89.4463C57.5721 90.3904 57.4363 91.508 57.4363 91.9319C57.4363 93.0687 58.0379 94.2056 58.9113 94.7451C59.5712 95.1497 59.9011 95.2075 61.4538 95.2075C62.4242 95.2075 63.2782 95.1497 63.3558 95.0726C64.1321 94.3019 64.3844 81.0261 63.8022 72.3747C63.6081 69.7735 63.414 66.5364 63.3364 65.1684L63.2005 62.6828L64.8114 62.7984C66.7329 62.914 67.3151 63.2608 67.6645 64.4747C68.2273 66.4016 68.3632 69.3303 68.2273 77.5771C68.0914 86.6332 67.8585 91.3924 67.451 93.3578C66.9463 95.747 65.6848 97.6546 64.0739 98.4446C62.6765 99.1575 61.5508 99.2538 54.6221 99.2346C45.209 99.196 38.8625 98.8107 36.3588 98.0977C34.6703 97.616 33.3311 96.4792 33.9522 96.0553C34.2627 95.8434 59.2218 95.959 63.317 96.2094C65.316 96.3058 65.4325 96.3058 65.3549 95.959C65.2966 95.6121 65.0249 95.5929 61.8031 95.4773C59.8817 95.4002 53.0694 95.2846 46.6646 95.2075C37.9115 95.0919 34.8062 95.1112 34.1851 95.2846C31.9725 95.8819 33.0788 97.7702 36.2036 98.7336C38.7266 99.5043 47.2275 100.005 56.3688 99.8897C62.0166 99.8319 62.463 99.7933 63.5305 99.3887C65.0443 98.8299 66.2865 97.7702 67.0628 96.3829C68.3826 94.0129 68.5961 91.9897 68.8872 80.1205C69.1007 71.103 68.9648 66.7291 68.3826 64.5518C68.0914 63.4342 67.4898 62.5479 67.024 62.5479C66.8881 62.5479 66.7134 62.4516 66.6552 62.3552C66.5776 62.2396 66.597 62.1625 66.694 62.1818C67.5286 62.3167 68.1691 61.4111 67.975 60.3706C67.7227 59.0796 66.1506 58.5209 62.6183 58.4631C60.561 58.4438 60.6192 58.4438 63.744 58.2896C67.2181 58.1162 68.5184 57.9043 69.7217 57.307C70.5563 56.9023 70.5951 56.7675 70.0323 56.2665C69.3724 55.6692 69.2171 55.0719 69.1977 52.6248C69.1783 50.0814 68.8872 49.1372 67.9168 48.4436C67.0046 47.7885 58.756 46.7095 52.0019 46.3626C47.8485 46.1507 47.4022 46.1507 43.2682 46.3819ZM57.5333 47.4224C62.4436 47.9426 66.9658 48.6363 67.4704 48.9831C68.2467 49.4841 68.499 50.3704 68.499 52.6826C68.499 54.7636 68.6931 55.804 69.1977 56.4014C69.4306 56.6711 69.4112 56.7289 68.9842 56.9216C68.1303 57.307 67.9168 57.2106 67.8974 56.4206C67.8974 56.0353 67.7809 54.4745 67.645 52.9716C67.4121 50.2548 67.2763 49.8309 66.5388 49.4455C65.9953 49.1372 34.5538 48.2316 33.9134 48.5014C33.2923 48.7519 32.9235 49.5997 32.5936 51.5072L32.3607 52.9138L31.4291 51.0255C30.8275 49.8116 30.5945 49.118 30.7304 49.0409C31.5456 48.5785 37.8727 47.4995 41.7155 47.1334C44.4133 46.8829 54.1369 47.0563 57.5333 47.4224ZM50.721 49.4455C67.2957 49.9465 66.1118 49.8887 66.4805 50.2355C66.7134 50.4668 66.8493 51.3338 67.024 53.8965C67.1792 55.7462 67.2569 57.2877 67.1987 57.3455C66.8105 57.7694 42.6083 57.7887 38.5131 57.3455C35.9124 57.0757 33.5446 56.6326 33.2923 56.3821C33.0012 56.0931 33.0594 52.5285 33.3699 51.0833C33.8357 48.9253 33.6611 49.0602 36.0095 49.0602C37.1546 49.0602 43.7728 49.2336 50.721 49.4455ZM33.564 57.1914C34.0492 57.3648 35.272 57.6345 36.2812 57.7887L38.125 58.0584L35.9901 58.097C33.4282 58.1162 31.7785 57.7694 31.0798 57.095C30.6528 56.6711 30.614 56.5555 30.8469 56.2857C31.0021 56.1123 31.3709 55.8619 31.7008 55.727C32.3025 55.4958 32.3025 55.4958 32.4966 56.1701C32.6712 56.7289 32.8459 56.9216 33.564 57.1914ZM47.1499 62.1625C53.2829 62.3745 59.2995 62.6057 60.5028 62.6635L62.6765 62.7791V64.494C62.6765 65.4189 62.8512 68.945 63.0841 72.3169C63.7052 81.5078 63.6469 89.9473 62.9288 93.9165L62.8124 94.5716L61.2015 94.4946C58.2902 94.379 57.805 93.5312 58.4067 89.5619C59.1054 84.8605 59.2801 82.3363 59.2801 76.5173C59.2801 70.7176 58.9889 66.1896 58.5231 65.2455C58.3873 64.9179 58.1156 64.7445 57.7274 64.6867C56.854 64.5903 54.7385 65.0142 53.7487 65.4959C52.1766 66.2474 52.2737 65.5152 52.1378 79.9278C52.0602 86.9607 51.9437 93.0495 51.8661 93.4734L51.7108 94.2441H48.8966C47.3439 94.2441 45.8495 94.1863 45.5584 94.1092C44.782 93.878 44.6074 93.1265 44.8209 90.8144C45.4419 84.3402 46.3541 65.9776 46.1212 65.0142C45.9077 64.205 45.112 64.0123 42.5889 64.1664C40.027 64.3013 37.6204 64.6096 36.7276 64.8794C36.3782 64.995 35.9124 65.3033 35.6989 65.573C35.3108 66.0547 35.3108 66.3245 35.3108 79.2534C35.3108 90.6602 35.272 92.51 35.0196 92.9917C34.418 94.1478 33.0206 93.878 32.2443 92.4522C31.6232 91.3539 31.4097 88.1361 31.6426 83.5502C31.7396 81.7005 31.992 76.71 32.2054 72.471C32.4189 68.232 32.6518 64.3206 32.7101 63.8003C32.9624 61.8928 33.3117 61.5652 35.0196 61.7001C35.5631 61.7579 41.0168 61.9506 47.1499 62.1625ZM64.8697 62.1047C64.6173 62.1433 64.2292 62.1433 63.9963 62.1047C63.744 62.0662 63.9381 62.0277 64.4233 62.0277C64.9085 62.0277 65.1026 62.0662 64.8697 62.1047Z" fill="url(#paint4_linear_692_609)"/>
<path d="M44.0341 46.3819C40.7735 46.5553 36.659 47.1141 33.5925 47.8077C31.1082 48.3665 30.4483 48.5785 30.4483 48.8675C30.4483 48.9831 30.8947 49.9465 31.4381 51.0448C31.9816 52.1238 32.5638 53.3377 32.6997 53.7424C32.9908 54.5516 32.9326 54.6672 31.6128 55.4765C30.1184 56.4206 30.9918 58.0199 33.3013 58.5209C34.0971 58.7135 35.5915 58.7521 38.5028 58.6943C45.3345 58.5401 55.0387 58.7521 64.3547 59.2531C67.3047 59.4072 67.9452 59.677 68.0617 60.7945C68.1393 61.5845 67.9064 61.6616 65.9656 61.3918C64.4323 61.1799 64.3158 61.1991 63.7724 61.6038C63.0931 62.0855 65.0534 62.1047 45.024 61.3726C34.5435 60.9872 34.2524 60.9872 33.7671 61.334C33.0102 61.9121 32.8161 62.8755 32.5832 67.1337C32.4668 69.3303 32.1951 74.2437 32.001 78.0588C31.4381 88.059 31.5158 91.1419 32.3697 92.799C33.3013 94.6102 35.6109 94.8607 36.4455 93.2421C36.6008 92.9531 36.659 89.0031 36.659 79.7544C36.659 69.6193 36.7172 66.575 36.9113 66.2089C37.0471 65.9391 37.4547 65.6308 37.8235 65.5152C38.7745 65.2069 42.1709 64.8601 44.3059 64.8601C45.8779 64.8601 46.1302 64.8986 46.2079 65.1877C46.4214 66.0933 45.6644 81.7776 45.1016 88.4636C44.694 93.1651 44.694 93.4348 45.3733 94.1863L45.9362 94.8221L49.352 94.8799C52.7097 94.9377 52.7485 94.9378 53.0396 94.4946C53.4084 93.9358 53.7383 84.3788 53.7383 74.051V66.9603L54.2041 66.4979C54.9222 65.785 58.3769 64.9564 58.668 65.4189C58.7457 65.5345 58.9397 66.9411 59.095 68.5596C59.6773 74.3786 59.4055 83.9741 58.4934 89.4463C58.3381 90.3904 58.2022 91.508 58.2022 91.9319C58.2022 93.0687 58.8039 94.2056 59.6773 94.7451C60.3371 95.1497 60.6671 95.2075 62.2197 95.2075C63.1902 95.2075 64.0441 95.1497 64.1218 95.0726C64.8981 94.3019 65.1504 81.0261 64.5682 72.3747C64.3741 69.7735 64.18 66.5364 64.1024 65.1684L63.9665 62.6828L65.5774 62.7984C67.4988 62.914 68.0811 63.2608 68.4304 64.4747C68.9933 66.4016 69.1291 69.3303 68.9933 77.5771C68.8574 86.6332 68.6245 91.3924 68.2169 93.3578C67.7123 95.747 66.4508 97.6546 64.8399 98.4446C63.4425 99.1575 62.3168 99.2538 55.388 99.2346C45.975 99.196 39.6285 98.8107 37.1248 98.0977C35.4363 97.616 34.0971 96.4792 34.7182 96.0553C35.0287 95.8434 59.9878 95.959 64.0829 96.2094C66.082 96.3058 66.1985 96.3058 66.1208 95.959C66.0626 95.6121 65.7909 95.5929 62.5691 95.4773C60.6477 95.4002 53.8354 95.2846 47.4306 95.2075C38.6774 95.0919 35.5721 95.1112 34.9511 95.2846C32.7385 95.8819 33.8448 97.7702 36.9695 98.7336C39.4926 99.5043 47.9934 100.005 57.1348 99.8897C62.7826 99.8319 63.229 99.7933 64.2964 99.3887C65.8103 98.8299 67.0524 97.7702 67.8288 96.3829C69.1485 94.0129 69.362 91.9897 69.6531 80.1205C69.8666 71.103 69.7308 66.7291 69.1485 64.5518C68.8574 63.4342 68.2557 62.5479 67.7899 62.5479C67.6541 62.5479 67.4794 62.4516 67.4212 62.3552C67.3435 62.2396 67.363 62.1625 67.46 62.1818C68.2946 62.3167 68.935 61.4111 68.7409 60.3706C68.4886 59.0796 66.9166 58.5209 63.3842 58.4631C61.327 58.4438 61.3852 58.4438 64.5099 58.2896C67.984 58.1162 69.2844 57.9043 70.4877 57.307C71.3223 56.9023 71.3611 56.7675 70.7982 56.2665C70.1383 55.6692 69.9831 55.0719 69.9637 52.6248C69.9443 50.0814 69.6531 49.1372 68.6827 48.4436C67.7705 47.7885 59.522 46.7095 52.7679 46.3626C48.6145 46.1507 48.1681 46.1507 44.0341 46.3819ZM58.2993 47.4224C63.2096 47.9426 67.7317 48.6363 68.2363 48.9831C69.0127 49.4841 69.265 50.3704 69.265 52.6826C69.265 54.7636 69.4591 55.804 69.9637 56.4014C70.1966 56.6711 70.1772 56.7289 69.7502 56.9216C68.8962 57.307 68.6827 57.2106 68.6633 56.4206C68.6633 56.0353 68.5469 54.4745 68.411 52.9716C68.1781 50.2548 68.0423 49.8309 67.3047 49.4455C66.7613 49.1372 35.3198 48.2316 34.6793 48.5014C34.0583 48.7519 33.6895 49.5997 33.3596 51.5072L33.1267 52.9138L32.1951 51.0255C31.5934 49.8116 31.3605 49.118 31.4964 49.0409C32.3115 48.5785 38.6386 47.4995 42.4815 47.1334C45.1792 46.8829 54.9028 47.0563 58.2993 47.4224ZM51.4869 49.4455C68.0617 49.9465 66.8777 49.8887 67.2465 50.2355C67.4794 50.4668 67.6153 51.3338 67.7899 53.8965C67.9452 55.7462 68.0228 57.2877 67.9646 57.3455C67.5764 57.7694 43.3743 57.7887 39.2791 57.3455C36.6784 57.0757 34.3106 56.6326 34.0583 56.3821C33.7671 56.0931 33.8254 52.5285 34.1359 51.0833C34.6017 48.9253 34.427 49.0602 36.7754 49.0602C37.9205 49.0602 44.5388 49.2336 51.4869 49.4455ZM34.33 57.1914C34.8152 57.3648 36.0379 57.6345 37.0471 57.7887L38.8909 58.0584L36.756 58.097C34.1941 58.1162 32.5444 57.7694 31.8457 57.095C31.4187 56.6711 31.3799 56.5555 31.6128 56.2857C31.7681 56.1123 32.1368 55.8619 32.4668 55.727C33.0684 55.4958 33.0684 55.4958 33.2625 56.1701C33.4372 56.7289 33.6119 56.9216 34.33 57.1914ZM47.9158 62.1625C54.0488 62.3745 60.0654 62.6057 61.2687 62.6635L63.4425 62.7791V64.494C63.4425 65.4189 63.6171 68.945 63.85 72.3169C64.4711 81.5078 64.4129 89.9473 63.6948 93.9165L63.5783 94.5716L61.9674 94.4946C59.0562 94.379 58.571 93.5312 59.1726 89.5619C59.8713 84.8605 60.046 82.3363 60.046 76.5173C60.046 70.7176 59.7549 66.1896 59.2891 65.2455C59.1532 64.9179 58.8815 64.7445 58.4934 64.6867C57.62 64.5903 55.5045 65.0142 54.5146 65.4959C52.9426 66.2474 53.0396 65.5152 52.9038 79.9278C52.8261 86.9607 52.7097 93.0495 52.632 93.4734L52.4768 94.2441H49.6626C48.1099 94.2441 46.6155 94.1863 46.3243 94.1092C45.548 93.878 45.3733 93.1265 45.5868 90.8144C46.2079 84.3402 47.1201 65.9776 46.8872 65.0142C46.6737 64.205 45.8779 64.0123 43.3549 64.1664C40.793 64.3013 38.3863 64.6096 37.4935 64.8794C37.1442 64.995 36.6784 65.3033 36.4649 65.573C36.0767 66.0547 36.0767 66.3245 36.0767 79.2534C36.0767 90.6602 36.0379 92.51 35.7856 92.9917C35.184 94.1478 33.7866 93.878 33.0102 92.4522C32.3892 91.3539 32.1757 88.1361 32.4086 83.5502C32.5056 81.7005 32.7579 76.71 32.9714 72.471C33.1849 68.232 33.4178 64.3206 33.476 63.8003C33.7283 61.8928 34.0777 61.5652 35.7856 61.7001C36.329 61.7579 41.7828 61.9506 47.9158 62.1625ZM65.6356 62.1047C65.3833 62.1433 64.9951 62.1433 64.7622 62.1047C64.5099 62.0662 64.704 62.0277 65.1892 62.0277C65.6744 62.0277 65.8685 62.0662 65.6356 62.1047Z" fill="url(#paint5_linear_692_609)"/>
</g>
<defs>
<linearGradient id="paint0_linear_692_609" x1="59.1156" y1="51.2979" x2="62.1328" y2="51.2979" gradientUnits="userSpaceOnUse">
<stop stop-color="#FECF24"/>
<stop offset="1" stop-color="#FE9724"/>
</linearGradient>
<linearGradient id="paint1_linear_692_609" x1="59.1156" y1="51.2979" x2="62.1328" y2="51.2979" gradientUnits="userSpaceOnUse">
<stop stop-color="#FECF24"/>
<stop offset="1" stop-color="#FE9724"/>
</linearGradient>
<linearGradient id="paint2_linear_692_609" x1="59.1156" y1="51.2979" x2="62.1328" y2="51.2979" gradientUnits="userSpaceOnUse">
<stop stop-color="#FECF24"/>
<stop offset="1" stop-color="#FE9724"/>
</linearGradient>
<linearGradient id="paint3_linear_692_609" x1="59.1156" y1="51.2979" x2="62.1328" y2="51.2979" gradientUnits="userSpaceOnUse">
<stop stop-color="#FECF24"/>
<stop offset="1" stop-color="#FE9724"/>
</linearGradient>
<linearGradient id="paint4_linear_692_609" x1="59.1156" y1="51.2979" x2="62.1328" y2="51.2979" gradientUnits="userSpaceOnUse">
<stop stop-color="#FECF24"/>
<stop offset="1" stop-color="#FE9724"/>
</linearGradient>
<linearGradient id="paint5_linear_692_609" x1="59.1156" y1="51.2979" x2="62.1328" y2="51.2979" gradientUnits="userSpaceOnUse">
<stop stop-color="#FECF24"/>
<stop offset="1" stop-color="#FE9724"/>
</linearGradient>
</defs>
</svg>
