<svg width="90" height="134" viewBox="0 0 90 134" fill="none" xmlns="http://www.w3.org/2000/svg">
<g id="Group">
<path id="Vector" d="M48.6462 0.85318C47.0721 1.17451 44.3415 1.88142 42.6068 2.42769C34.9932 4.80553 29.9818 4.5806 28.7289 1.88144C28.3434 0.98172 28.0543 0.98172 27.7973 1.88144C27.2512 3.97008 28.4398 6.18723 30.6564 7.15122C31.3953 7.47255 31.4595 7.56895 30.9776 7.60108C30.6243 7.60108 29.8533 7.31189 29.275 6.95843C28.6968 6.60497 28.1507 6.31577 28.0222 6.31577C27.6688 6.31577 28.2149 11.5856 28.7289 13.0637C30.3673 17.6587 33.9331 19.2653 38.8482 17.5623C39.8119 17.2409 40.6793 17.016 40.7435 17.1124C40.8078 17.1767 39.8762 17.6908 38.6554 18.2692C35.8606 19.5866 32.7445 19.7473 31.2346 18.6548C29.018 17.016 27.5082 14.0277 27.0584 10.3966C26.8336 8.46867 26.3196 8.21161 22.4967 8.21161C19.734 8.17947 18.6739 8.43654 17.5174 9.33626C16.7464 9.94678 16.7464 11.8426 17.5174 12.9673C18.1278 13.9634 20.3444 14.9595 21.8221 14.9916C22.6574 14.9916 22.818 15.088 22.4646 15.313C21.019 16.2448 17.6459 15.0238 16.7786 13.2565C16.4894 12.6138 16.1361 12.0997 16.0076 12.0997C15.6863 12.0997 15.4293 13.7706 15.6221 14.7667C15.8148 15.8271 17.8066 17.5623 18.8345 17.5623C19.22 17.5623 19.6377 17.6908 19.734 17.8836C20.1838 18.6227 16.5858 17.8515 15.6542 16.9839C15.333 16.7268 15.076 16.1484 15.076 15.7307C15.076 14.7346 14.2728 14.7667 12.7309 15.795C10.5785 17.2731 10.0003 19.6509 11.221 22.2858C11.5423 23.057 11.7029 23.6675 11.5744 23.6675C11.1246 23.6675 10.3215 22.575 10.0966 21.6431C9.67902 20.0686 9.29352 20.3578 9.29352 22.2215C9.29352 23.8282 9.42202 24.1495 10.2894 25.0171C11.1568 25.9168 11.3816 25.9811 12.6666 25.7883C13.4697 25.6919 14.9796 25.1778 16.0397 24.6315C17.0998 24.0852 17.9672 23.7639 17.9672 23.8603C17.9672 24.1816 15.7506 26.8808 14.6262 27.9412C13.4376 29.098 10.8355 30.4154 9.83964 30.4154C8.7474 30.4154 7.0448 29.1622 6.33806 27.8448C5.82406 26.9451 5.75982 26.2703 5.85619 24.4708C5.95257 23.2177 6.11318 21.9645 6.24168 21.6431C6.59505 20.8077 5.88831 20.9684 4.8282 22.0287C3.54322 23.3141 3.06134 25.1777 3.51109 27.2664C3.70383 28.1661 3.76809 28.9694 3.70384 29.0337C3.28622 29.4514 2.19398 28.2946 1.64786 26.8487C1.32661 25.9168 0.94112 25.3384 0.812622 25.5312C0.395002 26.206 -0.0226199 29.2908 0.170128 30.319C0.619873 32.6968 3.18985 33.9822 6.37018 33.3395C7.33392 33.1467 8.16917 33.0503 8.26554 33.1146C8.58679 33.4359 5.92044 35.4924 4.73183 35.8459C3.47897 36.2315 2.70798 36.1351 1.35874 35.4924C0.298629 34.9783 0.138008 35.3639 0.844749 36.5849C2.38673 39.252 6.17744 40.4409 9.03653 39.1877C10.6428 38.4486 11.0604 37.7096 11.3816 34.8497C11.6065 32.9539 12.4739 31.3794 13.3412 31.3794C13.7267 31.3794 13.7267 31.5079 13.3091 32.1506C12.6987 33.0824 12.6666 33.8215 12.9879 38.6093C13.2127 41.8547 13.1806 42.2724 12.5702 43.4935C11.7671 45.0359 10.4821 46.1605 9.45415 46.1605C8.32978 46.1605 7.10905 44.9716 5.24582 42.1118C4.3142 40.6658 3.38259 39.3805 3.18984 39.252C1.96911 38.4808 0.941124 41.8547 0.941124 46.6104C0.941124 49.7915 1.51936 51.5588 2.8686 52.7478C3.63959 53.4547 6.27381 53.6475 8.16917 53.1333L9.16502 52.8763L9.55052 55.479C9.96814 58.371 11.1889 61.4558 12.3775 62.5804C13.0842 63.2552 13.1485 63.4801 12.9557 65.2474C12.506 69.8424 14.1122 75.1444 16.7786 77.9078C18.3527 79.5466 20.5371 80.8319 20.5371 80.0928C20.5371 79.8679 20.3123 79.4502 19.991 79.2252C18.3205 77.8114 15.9112 72.638 15.3651 69.1676C14.9796 66.8862 15.4615 64.0907 16.4252 63.1267C17.1641 62.3876 18.7382 62.484 19.9589 63.3195C20.6656 63.8336 20.6335 63.8336 19.22 63.8336C17.2926 63.8336 16.5858 64.5726 16.6179 66.5328C16.6822 69.5532 18.8988 74.0518 21.5651 76.5582C23.2999 78.1648 24.5848 78.4219 25.6128 77.2973C26.416 76.4618 26.6408 75.305 26.6408 71.8989C26.6408 69.971 26.7693 68.9106 27.0906 68.4607C27.5403 67.8502 27.5724 67.8502 28.7611 68.4929C29.6605 68.9748 30.4637 69.9067 31.7486 71.9632C36.0855 78.8396 37.2741 80.5105 39.2015 82.4064C44.6306 87.8047 51.1519 90.3432 58.9582 90.1183L62.5562 90.0219L64.0018 91.0823C68.0495 93.9742 73.0609 93.7493 77.3014 90.536L78.9718 89.2507L81.1563 90.3111C82.3449 90.9216 83.6942 91.757 84.1118 92.239C85.204 93.3958 84.7543 93.2994 82.9874 91.9498C80.1283 89.7648 79.5822 89.7648 81.3812 91.9177C81.9594 92.6568 82.8268 93.9421 83.3087 94.8418C83.9833 96.1271 84.1439 96.2556 83.9833 95.4845C83.8869 94.9382 83.4372 93.9742 82.9874 93.2994C82.0237 91.8213 82.4734 91.757 83.7584 93.203C84.5294 94.1027 84.7864 94.2313 84.9149 93.8135C85.3968 92.5604 87.8061 96.1914 88.802 99.6296C89.2517 101.108 89.316 102.361 89.2196 105.414C88.9626 111.551 87.5491 114.989 84.5294 116.628C78.49 119.905 61.5282 118.524 49.9954 113.832C45.2731 111.904 44.213 111.39 42.0285 109.944C39.3622 108.145 37.9487 106.602 36.728 104.16C35.8606 102.329 35.7963 102.007 35.5715 95.9986C35.443 91.7249 35.1539 88.6402 34.672 86.423C33.4191 80.2535 31.5559 74.823 30.5922 74.5017C30.303 74.4053 30.2067 75.4014 30.2709 78.454C30.3352 82.3742 30.303 82.5349 29.5642 83.1454C28.6004 83.9166 27.0906 83.9166 24.9703 83.1133C24.0387 82.7598 23.1714 82.4706 23.075 82.4706C22.9465 82.4706 23.2035 83.5953 23.589 84.977C24.6812 88.7044 25.3237 92.8817 25.7413 98.8905C26.1268 104.192 26.1268 104.225 25.2595 107.406C21.7579 120.516 23.2677 128.71 29.789 131.987L30.9776 132.566H30.0139C28.5362 132.598 26.6087 131.57 25.131 129.963C23.0107 127.649 22.1112 125.561 21.2118 120.869L20.6335 117.977L20.7299 120.998C22.0791 129.031 26.159 133.53 31.8129 133.176C33.5155 133.08 33.9652 132.534 32.5196 132.341C31.074 132.18 28.5041 130.831 27.3154 129.674C24.9061 127.264 23.4605 122.123 23.9102 117.335C24.1672 114.571 25.2595 108.884 25.8698 107.149C26.8657 104.257 26.1589 92.9138 24.5527 86.5515C24.103 84.8163 23.7496 83.3382 23.7496 83.2418C23.7496 83.1776 24.1994 83.3382 24.7455 83.5953C25.2595 83.8845 26.3838 84.2058 27.2191 84.3022C30.2388 84.6557 31.4595 82.4706 30.8492 77.8756C30.6564 76.4618 30.56 75.2408 30.6243 75.1765C30.817 74.9516 32.0699 78.1327 32.9051 81.0247C34.2865 85.8767 34.9932 90.536 34.9932 95.1631C34.9932 100.304 35.3787 102.618 36.6958 105.06C38.5591 108.563 42.3819 111.326 49.2244 114.057C60.2753 118.524 75.7594 120.323 82.6983 117.945C86.2963 116.756 87.774 115.053 89.0268 110.748C90.7937 104.707 89.7657 97.9587 86.3605 93.685C85.3968 92.464 85.3968 92.4318 85.7823 90.6003C86.3284 88.0618 86.232 84.2058 85.6217 82.5028C85.3325 81.6995 85.1077 80.0285 85.0755 78.4862C85.0755 77.0723 84.947 75.5942 84.8185 75.2408C84.5615 74.6302 84.5615 74.6302 84.3366 75.305C83.7905 77.0402 81.8631 77.5865 80.7708 76.3654C80.2247 75.7549 80.2247 75.5942 80.7708 72.7023C81.4454 69.007 81.1242 66.4363 79.7107 64.1549L78.7791 62.6768L79.7107 61.5843C80.289 60.8774 80.6102 60.1062 80.6102 59.4314V58.4031L79.4537 59.1743C78.8112 59.6242 77.976 59.9776 77.5905 59.9776C77.0765 59.9776 77.1729 59.8491 78.0081 59.3993C79.5501 58.6281 79.8392 58.0175 79.3573 56.8286C78.5542 54.9007 76.9801 55.4148 76.5946 57.7605C76.3698 58.9815 76.3376 59.0137 75.1169 59.0137C73.607 59.0137 73.2858 58.4995 73.8961 57.0536C74.2816 56.0574 75.7594 55.1577 76.9801 55.1577C79.1967 55.1577 81.5739 53.5511 81.5739 52.073C81.5739 51.1411 81.5739 51.1411 80.2247 51.9444C79.6464 52.2658 78.0081 52.7477 76.5946 53.0048C73.5107 53.5511 72.7397 53.9045 72.0972 55.1577C70.8122 57.632 71.9687 60.5239 75.8879 64.7012C79.9998 69.1355 80.546 71.2884 78.2009 74.0518C76.9801 75.4657 75.7273 75.9155 74.4744 75.4335L73.7034 75.1122H74.5708C76.0485 75.0801 76.0164 74.4053 74.5065 73.377C73.093 72.4131 71.7438 72.6701 69.9448 74.2768C69.0453 75.0801 68.1137 75.7227 67.8567 75.7227C66.9893 75.7227 66.0899 75.0158 65.6722 74.0197C64.9013 72.156 66.0256 71.2241 69.3666 70.935C71.4225 70.7422 71.4547 70.7422 71.3904 69.8424C71.2619 68.1715 70.2339 66.597 68.692 65.8258C67.5355 65.2153 66.9251 65.0868 65.351 65.2153C64.2909 65.3117 63.1344 65.4724 62.8131 65.633C62.2992 65.8258 62.3634 65.6009 63.1665 64.4441C64.2266 62.9339 65.1261 60.4275 64.7728 60.074C64.6443 59.9776 64.2266 60.1704 63.809 60.5239C62.9095 61.3594 60.5644 62.5483 59.8256 62.5483C58.2836 62.5483 57.2556 60.6846 58.0908 59.3671C58.3157 59.0458 58.4442 59.1743 58.6048 59.9134C58.8618 61.1666 59.5043 61.7128 60.4681 61.4558C61.3675 61.2308 61.8815 60.2347 62.1707 58.0818C62.3634 56.5073 62.3634 56.443 61.4639 56.0896C60.0504 55.5433 56.838 56.4752 54.268 58.1782C51.184 60.2347 51.0555 60.2668 52.983 58.4353C55.4887 56.0896 57.1271 55.3184 59.7934 55.3184C61.6245 55.3184 62.0743 55.4469 62.6847 56.0574C63.295 56.668 63.4235 57.0857 63.3593 58.5317C63.295 60.1704 63.3593 60.2668 63.9054 59.9776C64.837 59.4957 65.8329 57.5998 65.8329 56.3466C65.8329 55.4469 65.5759 54.9971 64.6121 54.1295C62.1385 51.9123 58.7976 51.7516 51.7302 53.5511C49.5136 54.0973 47.3933 54.4829 46.9757 54.3544C45.9156 54.0973 46.0441 53.1334 47.3291 52.0087C50.0597 49.5987 54.7499 49.2131 60.3717 50.884C67.3106 52.9727 69.9448 53.0369 74.2817 51.2054C75.7273 50.5948 77.2692 49.9843 77.719 49.8558L78.5221 49.663L77.719 50.3057C77.2692 50.6591 76.2734 51.2054 75.4703 51.4946C74.6671 51.8159 73.8961 52.1694 73.7355 52.33C73.2215 52.7799 76.8837 52.6192 78.5221 52.1372C81.1563 51.3339 83.1159 48.7311 81.06 48.7311C80.4175 48.7311 80.289 48.6026 80.4496 48.1206C80.5781 47.735 80.3211 47.1566 79.775 46.4818C78.9718 45.55 78.8755 45.1001 78.6506 42.0797C78.3615 37.9988 77.9117 36.0387 76.691 33.3395C75.7915 31.283 75.7915 31.2509 76.3376 30.1262C77.0122 28.7445 77.0765 25.0814 76.4661 23.2498C75.92 21.6431 75.5024 21.7395 75.6951 23.4426C75.92 25.4027 75.3096 28.9694 74.5386 30.0298C74.1853 30.5439 73.2215 31.283 72.3863 31.7329C70.9728 32.4398 70.4909 32.5041 66.6681 32.4719C63.552 32.4398 61.6567 32.247 59.408 31.7329C57.2877 31.2187 54.8462 30.9617 51.3768 30.8331C48.6462 30.7367 46.3653 30.6082 46.3011 30.5761C46.012 30.3512 46.7187 29.4836 47.2327 29.3872C47.7146 29.3229 48.1001 28.6802 48.6783 26.8808C50.5737 21.2897 53.6576 16.9518 56.7416 15.5379C59.1509 14.4454 62.2349 14.5739 64.8049 15.8914C66.9893 17.016 67.3749 16.8232 65.7686 15.4415C63.2308 13.3207 59.4722 12.6459 56.7095 13.8349C54.7499 14.6703 52.4048 16.5662 50.8628 18.6548C49.0959 20.9684 47.04 25.1456 46.526 27.4271L46.1405 29.1301H44.1487C43.0565 29.1301 41.0327 29.2265 39.6834 29.355L37.1777 29.5478L40.5508 25.0492C44.4057 19.908 47.2648 16.8553 50.7343 14.2847C53.6255 12.1318 55.2639 11.2642 57.7375 10.6537C62.8774 9.33627 68.0495 12.8066 71.6153 19.908C72.5148 21.6753 73.2215 23.2819 73.2215 23.539C73.2215 23.796 73.35 23.9888 73.5107 23.9888C74.3459 23.9888 74.1532 17.1445 73.1894 13.6421C71.9687 9.04707 67.8888 3.77728 64.2266 2.07423C60.0504 0.114136 54.4286 -0.335739 48.6462 0.85318ZM61.0142 1.36731C63.9375 2.23489 65.8971 3.39168 67.9852 5.54459C71.4868 9.11134 73.5749 14.6382 73.5107 20.2293V22.5429L72.7397 20.872C70.7479 16.4376 66.9893 12.0997 64.0018 10.718C62.781 10.1717 61.8815 10.011 59.7292 10.011C57.3198 10.0432 56.7416 10.1717 54.9105 11.0393C52.1157 12.421 47.7146 15.795 45.241 18.462C44.1488 19.6509 41.8358 22.4786 40.1332 24.7922C38.4306 27.0736 36.8243 29.1301 36.5673 29.3229C36.3103 29.5157 35.0575 29.837 33.7404 30.062L31.331 30.4475L29.7569 28.9052C27.1227 26.3345 26.3196 23.5711 27.4439 20.872C28.0864 19.3617 27.8616 19.201 26.7693 20.3257C24.2957 22.9927 23.3641 27.2985 24.6812 30.2547C25.4843 32.0542 25.4522 32.0221 24.9703 32.0221C24.7776 32.0221 23.4284 32.6004 22.0149 33.2752C19.0915 34.6891 17.0034 36.36 15.8791 38.1273C14.819 39.7982 13.277 44.3289 12.6987 47.4458C12.1526 50.2093 11.992 55.479 12.4417 55.479C12.5702 55.479 12.8594 53.9045 13.0842 51.9766C13.534 48.0242 14.6583 43.7505 15.9112 41.2442C16.3931 40.3445 17.6459 38.7057 18.7382 37.6453C20.2801 36.0708 21.1796 35.4924 22.9465 34.8176C26.673 33.4359 26.5766 33.4038 28.7289 35.2032C32.1984 38.0309 36.3746 39.6697 38.9446 39.1877C40.5829 38.8985 42.1891 37.9345 43.3456 36.6492C44.3736 35.4603 45.9156 32.5683 45.9156 31.765C45.9156 31.0259 54.4607 31.2509 59.0867 32.1506C66.9251 33.693 70.3624 33.5644 73.3179 31.7007C75.0848 30.5761 75.663 29.5478 76.0485 26.8487L76.3697 24.7922L76.4019 26.7201C76.434 28.1018 76.2413 29.0337 75.7915 29.9334L75.149 31.2187L76.0806 33.1467C77.3014 35.6531 78.0402 38.77 78.0402 41.3727C78.0724 44.0076 78.4578 45.6785 79.3573 46.8996C80.289 48.1528 79.9356 48.6669 77.719 49.3738C76.7552 49.663 74.8278 50.3699 73.4464 50.9483C69.4951 52.5228 67.2464 52.3622 58.4442 49.8558C55.9064 49.1167 51.441 49.3417 49.1923 50.3057C47.554 51.0447 45.5943 52.8442 45.5943 53.6475C45.5943 54.3544 46.3332 54.8364 47.3933 54.8364C47.9716 54.8364 50.2203 54.3865 52.4048 53.8724C58.7655 52.2979 61.8815 52.4264 64.1945 54.3865C65.5437 55.5112 65.6723 56.186 64.837 57.9533L64.1303 59.4957L63.9054 57.9211C63.6805 56.1217 62.524 54.8685 61.0784 54.8043C57.6732 54.6115 55.7136 55.3505 52.9188 57.8569C51.698 58.9815 50.3488 59.8491 49.3208 60.2026C47.9073 60.6846 47.8109 60.781 48.5498 60.8774C49.899 61.038 51.8265 60.3954 53.6898 59.1422C56.4203 57.2785 57.8017 56.7001 59.8256 56.5073L61.753 56.3466L61.5603 58.2103C61.4318 59.4314 61.1427 60.299 60.7572 60.6846C60.1789 61.2951 60.1147 61.2951 59.5686 60.7488C59.1509 60.299 59.0546 59.817 59.1509 58.6281C59.2473 57.7926 59.2152 57.0857 59.0546 57.0857C58.6691 57.0857 57.5126 59.1743 57.2877 60.2668C57.1271 61.0702 57.2235 61.4558 57.8017 62.0663C58.8939 63.2231 60.7572 63.1588 62.7489 61.9056C64.2266 60.9416 64.2588 60.9416 64.066 61.6486C63.6484 63.0303 62.2992 65.0868 61.2712 65.8901C60.0504 66.8541 60.2432 66.9183 62.4277 66.2436C64.58 65.5688 67.5676 65.633 68.7562 66.3078C69.6236 66.8219 70.9728 68.9748 70.9728 69.8424C70.9728 70.0352 70.1055 70.2923 69.0453 70.4208C66.7645 70.6779 65.0619 71.674 64.9334 72.8629C64.8691 73.3128 65.1583 74.1482 65.5759 74.7588C66.1862 75.6585 66.5717 75.9155 67.5033 75.9798C68.4992 76.0762 68.9168 75.8513 70.2982 74.6302C72.0972 73.0236 72.9003 72.8308 74.2817 73.7305C75.4381 74.5017 75.1169 74.7588 73.4785 74.3732C71.4547 73.9233 71.3583 74.5981 73.35 75.5299C75.1169 76.3654 76.5625 76.2047 77.8796 75.048C81.2206 72.0917 80.6744 68.9748 75.8558 63.93C73.35 61.263 72.1614 59.1743 72.1936 57.3749C72.2257 54.7079 73.0609 53.9688 76.5304 53.4868C77.8154 53.3261 79.2931 52.9727 79.8713 52.7478C81.1242 52.2336 81.2206 52.5228 80.1926 53.4868C79.7107 53.9367 78.6185 54.3544 77.1407 54.6115C74.6029 55.0935 73.6713 55.7361 73.2858 57.2142C72.836 58.8851 73.1252 59.3029 74.8599 59.5278C75.7272 59.6563 76.4661 59.9455 76.5625 60.1704C76.7552 60.6846 77.9117 60.5239 79.4216 59.7527C79.9035 59.5278 80.2889 59.3993 80.2889 59.4957C80.2889 59.9455 79.3252 61.4558 78.7148 61.9699L78.0402 62.5483L79.004 63.93C80.6423 66.3721 80.9315 69.0712 80.0962 74.1804C79.775 76.1405 80.1283 76.9438 81.4776 77.2973C82.4092 77.5543 82.8911 77.5222 83.6299 77.1687C84.1439 76.9117 84.6258 76.6867 84.69 76.6867C84.7222 76.6867 84.7864 77.4901 84.7864 78.4862V80.2856L83.5978 79.2574C82.0558 77.8756 79.518 76.751 77.719 76.6225L76.2734 76.5261L76.3697 78.3255C76.4982 80.2856 76.1449 80.864 75.3418 80.0285C74.7635 79.4502 74.6672 78.2291 75.149 77.3294C75.6309 76.3975 75.1169 76.3011 72.1936 76.6867C68.8526 77.1687 66.7324 78.0042 62.9738 80.4784C61.0142 81.7959 59.6649 82.4706 59.0225 82.4706C58.0908 82.4706 57.0628 81.6673 56.324 80.382C56.0027 79.8036 55.9385 79.8036 55.3924 80.6712C54.4929 82.0208 54.5893 85.0091 55.5851 86.4873C56.4846 87.8368 58.5084 88.8972 60.1147 88.8972C61.9779 88.8972 65.1582 87.7404 68.2422 85.941C74.5065 82.31 74.8599 82.1493 76.8516 82.1493C78.9076 82.1493 79.9677 82.5349 79.9677 83.3382C79.9677 83.6917 79.775 83.7881 79.261 83.5953C78.8433 83.4668 77.6869 83.3061 76.691 83.2097C75.1169 83.049 74.635 83.1454 73.4464 83.8524C72.0008 84.6878 70.0091 86.7122 70.0091 87.3227C70.0091 88.4152 73.35 87.7083 77.5905 85.6839C79.0682 84.977 80.6423 84.3986 81.0921 84.3986C82.2807 84.3986 83.7263 83.5632 84.2403 82.567L84.69 81.6995L85.0755 82.4385C85.6859 83.5632 85.8786 87.3227 85.4289 89.6684C85.204 90.8252 84.9149 91.7892 84.7864 91.7892C84.6258 91.7892 83.7905 91.3072 82.891 90.7288C81.9916 90.1183 80.7066 89.4756 79.9998 89.2185C78.7791 88.833 78.6827 88.833 77.462 89.8291C72.9645 93.3637 67.8567 93.5244 63.6805 90.2468C62.4919 89.3149 62.4277 89.2828 60.2111 89.572C58.7976 89.7648 56.9665 89.7648 55.2317 89.5399C45.9156 88.4474 39.4586 83.9166 34.1259 74.823C30.7849 69.1034 29.532 67.6895 27.7331 67.6895C26.4802 67.6895 26.159 68.525 26.1268 72.0275C26.0947 76.8474 25.2916 78.2934 23.1714 77.2009C21.6936 76.4297 19.9268 74.2125 18.5775 71.3848C15.8791 65.8258 16.8107 63.1588 20.9548 64.6048C22.561 65.1832 22.561 64.5405 20.9226 63.4159C18.9952 62.0663 17.8708 61.7771 16.7464 62.3555C13.5018 64.0264 14.3371 72.0275 18.3848 77.9078C19.1237 79.0324 19.1879 79.2574 18.706 78.9682C17.7744 78.4862 15.847 76.2369 15.1081 74.823C14.0158 72.7023 13.4697 69.8746 13.4697 66.4042C13.4697 63.2552 13.4376 63.1267 12.506 61.9378C11.221 60.3311 10.2894 57.8248 10.0645 55.3827C9.96814 54.2901 9.83965 53.1012 9.7754 52.7156L9.61477 52.0408L7.84792 52.6514C2.70798 54.3865 0.427126 50.884 1.61574 43.1722C1.96911 40.7943 2.35461 39.7339 2.83648 39.7339C2.9971 39.7339 3.9287 40.9871 4.92457 42.5295C6.7878 45.4536 8.29766 46.8032 9.61477 46.8032C10.6428 46.8032 13.02 44.2647 13.4376 42.7223C13.8873 41.1478 13.8873 39.8625 13.4376 36.6492C12.9879 33.468 13.1806 32.504 14.4335 31.7329C15.4936 31.0902 15.3972 30.7367 14.1443 30.7367C12.3775 30.7367 10.8998 32.6004 10.8998 34.8497C10.8998 37.806 9.51839 39.1877 6.56293 39.1556C5.63131 39.1556 4.37846 38.8985 3.80022 38.6093C2.64373 38.0309 1.26237 36.8741 1.26237 36.5207C1.26237 36.3921 2.06548 36.36 3.02922 36.4564C4.47483 36.5849 4.98883 36.4564 6.20956 35.7495C7.65517 34.914 9.71114 32.729 9.45415 32.3434C9.35777 32.2149 8.55466 32.3112 7.62305 32.5683C6.69143 32.8254 5.14945 32.9539 4.18571 32.8896C2.70797 32.7932 2.29035 32.6004 1.51936 31.7329C0.812621 30.9295 0.619873 30.4154 0.619873 29.1944C0.619873 28.3589 0.780501 27.4592 0.941124 27.2021C1.166 26.8487 1.26237 26.8165 1.26237 27.1379C1.26237 27.3949 1.55149 28.0054 1.93699 28.5196C2.41886 29.1944 2.8686 29.4514 3.57534 29.4514C4.4427 29.4514 4.53908 29.355 4.31421 28.7124C3.76809 26.9129 3.80022 24.4708 4.41058 23.3783C5.27795 21.7717 5.75982 21.7395 5.3422 23.2498C4.69971 25.724 5.69557 28.6802 7.71942 30.1905C9.74327 31.6686 13.3734 30.319 16.0718 27.1057C18.0957 24.6958 19.4128 22.7357 19.1879 22.5107C19.0915 22.4143 18.2884 22.7999 17.4211 23.314C15.4293 24.5351 13.4055 25.2742 11.992 25.2742C10.8355 25.2742 9.61477 24.0852 9.61477 22.9606C9.61477 22.4465 9.74327 22.4786 10.45 23.314C11.3174 24.3423 12.506 24.6636 12.506 23.8603C12.506 23.6032 12.3775 23.2819 12.1847 23.1855C12.0241 23.0891 11.6386 22.2215 11.3816 21.2897C10.9319 19.7152 10.9319 19.4581 11.4137 18.2371C11.735 17.4337 12.3454 16.6626 13.0521 16.2448C14.2086 15.5058 14.3371 15.5379 14.8832 16.6625C15.7506 18.4299 19.5413 19.0404 24.0066 18.0764C26.9621 17.4337 26.8657 17.1767 23.7175 17.4337C19.1558 17.7872 16.0397 16.4376 16.0397 14.1241V13.3207L16.9713 14.3169C17.4853 14.8631 18.2884 15.4415 18.7382 15.6343C20.0553 16.1163 22.4646 16.0199 24.4242 15.4094L26.159 14.8631L23.4284 14.6703C20.1195 14.4132 18.4169 13.6742 17.7423 12.2282C17.0034 10.718 17.3889 9.68972 18.9309 9.07919C20.248 8.56507 22.9786 8.4044 25.0988 8.75787C26.2553 8.95066 26.2553 8.9828 26.6408 11.1036C27.2833 14.9595 29.2108 18.1407 31.6201 19.3938C32.9373 20.1008 35.7321 20.0044 37.7881 19.2332C40.2617 18.3013 46.9115 13.6421 46.4617 13.1601C46.3653 13.0958 45.1125 13.7706 43.6669 14.6382C40.101 16.8232 37.8844 17.6265 35.3145 17.6908C33.644 17.7229 33.0015 17.5623 32.0378 16.9839C30.3994 15.9556 28.9859 13.0315 28.6004 9.85039C28.4077 8.53294 28.3113 7.40829 28.3756 7.37616C28.4077 7.34402 29.0502 7.53681 29.8212 7.79388C30.6564 8.08307 32.0378 8.24374 33.1942 8.17947L35.1539 8.08308L33.7082 7.66535C30.0782 6.6371 28.2471 5.19112 28.2471 3.42381V2.49196L29.0823 3.26315C31.1704 5.19113 35.3145 5.06259 43.1208 2.81329C45.4659 2.1385 48.4856 1.39944 49.8027 1.17451C51.1198 0.98172 52.4048 0.75679 52.6618 0.69252C53.754 0.40332 59.3758 0.85318 61.0142 1.36731ZM62.3955 14.1241C63.1986 14.4775 63.0059 14.5097 60.7893 14.4133C58.4763 14.2847 58.123 14.3811 56.1955 15.3772C52.9509 17.0481 50.0597 21.1933 48.1643 26.8808C47.3612 29.2265 47.3612 29.2586 46.9436 29.0016C46.5902 28.7766 47.0721 26.9451 48.1964 24.278C50.3167 19.2332 54.1716 15.1202 57.8017 13.9955C59.0224 13.6421 61.3997 13.7063 62.3955 14.1241ZM26.5123 23.2498C26.5123 25.467 27.3154 27.2343 29.2429 29.1622C29.9497 29.8692 30.4958 30.5118 30.4315 30.5439C30.3994 30.6082 29.4035 30.8653 28.2471 31.1545C25.8056 31.765 25.6128 31.6365 24.8418 29.3872C24.1994 27.3949 24.3921 25.4348 25.5486 23.0891C25.9983 22.1894 26.416 21.4182 26.4481 21.4182C26.5123 21.4182 26.5444 22.2537 26.5123 23.2498ZM45.9156 30.062C45.9156 30.6082 45.5943 30.7046 43.1208 30.8974C41.5466 30.9938 39.0731 31.2187 37.5632 31.3473C36.0533 31.4758 34.8005 31.6043 34.7684 31.5722C34.7362 31.5401 35.186 31.1866 35.7642 30.801C36.6637 30.1905 37.4668 30.0298 40.9684 29.8049C43.2493 29.6764 45.3052 29.5157 45.5301 29.4836C45.7229 29.4836 45.9156 29.7406 45.9156 30.062ZM34.9932 30.7367C34.7362 30.8974 33.9974 31.0259 33.387 31.0259C32.4554 31.0259 32.3911 30.9617 32.9051 30.7367C33.2585 30.5761 33.9974 30.4475 34.5114 30.4475C35.2502 30.4154 35.3466 30.5118 34.9932 30.7367ZM32.0378 31.2509C33.2906 31.6043 32.8088 31.8614 29.9497 32.4076C27.6688 32.8254 27.0263 32.8254 26.7051 32.5041C26.3517 32.1827 26.6087 32.022 28.1507 31.6043C30.2709 31.0581 31.0098 30.9938 32.0378 31.2509ZM45.1125 32.6968C42.8959 38.9628 37.7881 40.4409 31.5559 36.6171C29.3393 35.2353 27.4439 33.693 27.7009 33.4359C28.2792 32.8575 38.6876 31.5079 43.2493 31.4115L45.5622 31.3794L45.1125 32.6968ZM26.2232 32.8575C26.2875 33.0503 25.4843 33.4359 24.4885 33.7572C20.0874 35.1389 17.2283 37.581 15.2045 41.7262C13.791 44.586 14.0801 43.0436 15.5257 39.8946C16.7464 37.2597 18.3205 35.7173 21.2439 34.2392C24.7133 32.4719 25.9983 32.1506 26.2232 32.8575ZM81.5739 49.3095C81.5739 50.1771 78.49 51.9444 77.0122 51.9444C76.3055 51.9444 76.3055 51.9444 77.0765 51.3982C77.5262 51.109 78.3615 50.4663 78.9397 49.9522C79.9035 49.1167 81.5739 48.699 81.5739 49.3095ZM78.6185 56.5073C79.4858 57.3749 78.8433 59.0137 77.6547 59.0137C76.9801 59.0137 76.8516 57.7605 77.3977 56.7322C77.7832 56.0253 78.0724 55.961 78.6185 56.5073ZM74.2817 78.1327C74.0568 79.5466 74.8599 80.864 75.9521 80.864C76.8837 80.864 77.2692 79.8358 76.9801 78.0684L76.7874 76.9438L78.1366 77.1366C80.1283 77.4579 82.7304 78.8396 83.6942 80.0607C84.4651 81.0889 84.4973 81.1853 84.0154 82.1172C83.4372 83.2097 83.2123 83.3704 81.8631 83.756C81.0278 84.013 80.8672 83.9488 80.6423 83.3382C80.1283 82.0208 79.3573 81.6673 76.948 81.6673C74.7314 81.6673 74.5065 81.7316 71.7759 83.3704C70.1697 84.3022 67.5034 85.7482 65.8329 86.5837C63.2629 87.869 62.4598 88.0939 60.5323 88.1903C58.4121 88.3188 58.1551 88.2546 57.1913 87.4191C55.4566 85.9731 54.6856 83.1454 55.553 81.4745C55.8742 80.864 55.9385 80.8961 56.6773 81.7959C57.1271 82.31 57.866 82.792 58.3478 82.8884C59.4401 83.1133 61.4639 82.2457 63.5199 80.7355C66.0577 78.9039 68.3386 77.9399 71.7759 77.2009C72.1293 77.1366 72.8682 77.0723 73.4464 77.0402C74.4423 77.0081 74.4744 77.0402 74.2817 78.1327ZM78.3615 83.8845L79.4858 84.3022L77.5584 85.1698C75.1169 86.2945 70.9407 87.7083 70.7479 87.4834C70.2661 87.0014 72.6433 84.6878 74.5065 83.8524C75.5666 83.3704 76.9801 83.3704 78.3615 83.8845Z" fill="url(#paint0_linear_1080_4324)"/>
<path id="Vector_2" d="M48.6462 1.45749C47.0721 1.77882 44.3415 2.48573 42.6068 3.032C34.9932 5.40984 29.9818 5.18491 28.7289 2.48575C28.3434 1.58603 28.0543 1.58603 27.7973 2.48575C27.2512 4.57439 28.4398 6.79154 30.6564 7.75553C31.3953 8.07686 31.4595 8.17326 30.9776 8.20539C30.6243 8.20539 29.8533 7.9162 29.275 7.56274C28.6968 7.20927 28.1507 6.92008 28.0222 6.92008C27.6688 6.92008 28.2149 12.1899 28.7289 13.668C30.3673 18.263 33.9331 19.8696 38.8482 18.1666C39.8119 17.8453 40.6793 17.6203 40.7435 17.7167C40.8078 17.781 39.8762 18.2951 38.6554 18.8735C35.8606 20.1909 32.7445 20.3516 31.2346 19.2591C29.018 17.6203 27.5082 14.632 27.0584 11.001C26.8336 9.07298 26.3196 8.81592 22.4967 8.81592C19.734 8.78378 18.6739 9.04085 17.5174 9.94057C16.7464 10.5511 16.7464 12.4469 17.5174 13.5716C18.1278 14.5677 20.3444 15.5638 21.8221 15.596C22.6574 15.596 22.818 15.6923 22.4646 15.9173C21.019 16.8491 17.6459 15.6281 16.7786 13.8608C16.4894 13.2181 16.1361 12.704 16.0076 12.704C15.6863 12.704 15.4293 14.3749 15.6221 15.371C15.8148 16.4314 17.8066 18.1666 18.8345 18.1666C19.22 18.1666 19.6377 18.2951 19.734 18.4879C20.1838 19.227 16.5858 18.4558 15.6542 17.5882C15.333 17.3311 15.076 16.7527 15.076 16.335C15.076 15.3389 14.2728 15.371 12.7309 16.3993C10.5785 17.8774 10.0003 20.2552 11.221 22.8901C11.5423 23.6613 11.7029 24.2718 11.5744 24.2718C11.1246 24.2718 10.3215 23.1793 10.0966 22.2475C9.67902 20.6729 9.29352 20.9621 9.29352 22.8258C9.29352 24.4325 9.42202 24.7538 10.2894 25.6214C11.1568 26.5211 11.3816 26.5854 12.6666 26.3926C13.4697 26.2962 14.9796 25.7821 16.0397 25.2358C17.0998 24.6896 17.9672 24.3682 17.9672 24.4646C17.9672 24.7859 15.7506 27.4851 14.6262 28.5455C13.4376 29.7023 10.8355 31.0197 9.83964 31.0197C8.7474 31.0197 7.0448 29.7665 6.33806 28.4491C5.82406 27.5494 5.75982 26.8746 5.85619 25.0751C5.95257 23.822 6.11318 22.5688 6.24168 22.2475C6.59505 21.412 5.88831 21.5727 4.8282 22.633C3.54322 23.9184 3.06134 25.7821 3.51109 27.8707C3.70383 28.7704 3.76809 29.5737 3.70384 29.638C3.28622 30.0557 2.19398 28.899 1.64786 27.453C1.32661 26.5211 0.94112 25.9427 0.812622 26.1355C0.395002 26.8103 -0.0226199 29.8951 0.170128 30.9233C0.619873 33.3012 3.18985 34.5865 6.37018 33.9438C7.33392 33.751 8.16917 33.6546 8.26554 33.7189C8.58679 34.0402 5.92044 36.0967 4.73183 36.4502C3.47897 36.8358 2.70798 36.7394 1.35874 36.0967C0.298629 35.5826 0.138008 35.9682 0.844749 37.1892C2.38673 39.8563 6.17744 41.0452 9.03653 39.792C10.6428 39.0529 11.0604 38.3139 11.3816 35.4541C11.6065 33.5582 12.4739 31.9837 13.3412 31.9837C13.7267 31.9837 13.7267 32.1122 13.3091 32.7549C12.6987 33.6868 12.6666 34.4258 12.9879 39.2136C13.2127 42.459 13.1806 42.8768 12.5702 44.0978C11.7671 45.6402 10.4821 46.7648 9.45415 46.7648C8.32978 46.7648 7.10905 45.5759 5.24582 42.7161C4.3142 41.2701 3.38259 39.9848 3.18984 39.8563C1.96911 39.0851 0.941124 42.459 0.941124 47.2147C0.941124 50.3958 1.51936 52.1631 2.8686 53.3521C3.63959 54.059 6.27381 54.2518 8.16917 53.7377L9.16502 53.4806L9.55052 56.0834C9.96814 58.9753 11.1889 62.0601 12.3775 63.1847C13.0842 63.8595 13.1485 64.0844 12.9557 65.8517C12.506 70.4467 14.1122 75.7487 16.7786 78.5121C18.3527 80.1509 20.5371 81.4362 20.5371 80.6971C20.5371 80.4722 20.3123 80.0545 19.991 79.8295C18.3205 78.4157 15.9112 73.2423 15.3651 69.7719C14.9796 67.4905 15.4615 64.695 16.4252 63.731C17.1641 62.9919 18.7382 63.0883 19.9589 63.9238C20.6656 64.4379 20.6335 64.4379 19.22 64.4379C17.2926 64.4379 16.5858 65.177 16.6179 67.1371C16.6822 70.1576 18.8988 74.6561 21.5651 77.1625C23.2999 78.7692 24.5848 79.0262 25.6128 77.9016C26.416 77.0661 26.6408 75.9093 26.6408 72.5032C26.6408 70.5753 26.7693 69.5149 27.0906 69.065C27.5403 68.4545 27.5724 68.4545 28.7611 69.0972C29.6605 69.5792 30.4637 70.511 31.7486 72.5675C36.0855 79.4439 37.2741 81.1149 39.2015 83.0107C44.6306 88.409 51.1519 90.9475 58.9582 90.7226L62.5562 90.6262L64.0018 91.6866C68.0495 94.5785 73.0609 94.3536 77.3014 91.1403L78.9718 89.855L81.1563 90.9154C82.3449 91.5259 83.6942 92.3614 84.1118 92.8433C85.204 94.0001 84.7543 93.9037 82.9874 92.5542C80.1283 90.3691 79.5822 90.3691 81.3812 92.522C81.9594 93.2611 82.8268 94.5464 83.3087 95.4461C83.9833 96.7314 84.1439 96.86 83.9833 96.0888C83.8869 95.5425 83.4372 94.5785 82.9874 93.9037C82.0237 92.4256 82.4734 92.3614 83.7584 93.8073C84.5294 94.7071 84.7864 94.8356 84.9149 94.4179C85.3968 93.1647 87.8061 96.7957 88.802 100.234C89.2517 101.712 89.316 102.965 89.2196 106.018C88.9626 112.155 87.5491 115.593 84.5294 117.232C78.49 120.51 61.5282 119.128 49.9954 114.437C45.2731 112.509 44.213 111.995 42.0285 110.549C39.3622 108.749 37.9487 107.207 36.728 104.765C35.8606 102.933 35.7963 102.612 35.5715 96.6029C35.443 92.3292 35.1539 89.2445 34.672 87.0273C33.4191 80.8578 31.5559 75.4273 30.5922 75.106C30.303 75.0096 30.2067 76.0057 30.2709 79.0583C30.3352 82.9786 30.303 83.1392 29.5642 83.7497C28.6004 84.5209 27.0906 84.5209 24.9703 83.7176C24.0387 83.3642 23.1714 83.075 23.075 83.075C22.9465 83.075 23.2035 84.1996 23.589 85.5813C24.6812 89.3087 25.3237 93.486 25.7413 99.4949C26.1268 104.797 26.1268 104.829 25.2595 108.01C21.7579 121.12 23.2677 129.314 29.789 132.592L30.9776 133.17H30.0139C28.5362 133.202 26.6087 132.174 25.131 130.567C23.0107 128.254 22.1112 126.165 21.2118 121.474L20.6335 118.582L20.7299 121.602C22.0791 129.635 26.159 134.134 31.8129 133.781C33.5155 133.684 33.9652 133.138 32.5196 132.945C31.074 132.784 28.5041 131.435 27.3154 130.278C24.9061 127.868 23.4605 122.727 23.9102 117.939C24.1672 115.176 25.2595 109.488 25.8698 107.753C26.8657 104.861 26.1589 93.5181 24.5527 87.1558C24.103 85.4207 23.7496 83.9425 23.7496 83.8461C23.7496 83.7819 24.1994 83.9425 24.7455 84.1996C25.2595 84.4888 26.3838 84.8101 27.2191 84.9065C30.2388 85.26 31.4595 83.075 30.8492 78.48C30.6564 77.0661 30.56 75.8451 30.6243 75.7808C30.817 75.5559 32.0699 78.737 32.9051 81.629C34.2865 86.481 34.9932 91.1403 34.9932 95.7674C34.9932 100.909 35.3787 103.222 36.6958 105.664C38.5591 109.167 42.3819 111.93 49.2244 114.662C60.2753 119.128 75.7594 120.927 82.6983 118.55C86.2963 117.361 87.774 115.658 89.0268 111.352C90.7937 105.311 89.7657 98.563 86.3605 94.2893C85.3968 93.0683 85.3968 93.0361 85.7823 91.2046C86.3284 88.6661 86.232 84.8101 85.6217 83.1071C85.3325 82.3038 85.1077 80.6329 85.0755 79.0905C85.0755 77.6766 84.947 76.1985 84.8185 75.8451C84.5615 75.2345 84.5615 75.2345 84.3366 75.9093C83.7905 77.6445 81.8631 78.1908 80.7708 76.9697C80.2247 76.3592 80.2247 76.1985 80.7708 73.3066C81.4454 69.6113 81.1242 67.0407 79.7107 64.7592L78.7791 63.2811L79.7107 62.1886C80.289 61.4817 80.6102 60.7105 80.6102 60.0357V59.0074L79.4537 59.7786C78.8112 60.2285 77.976 60.582 77.5905 60.582C77.0765 60.582 77.1729 60.4534 78.0081 60.0036C79.5501 59.2324 79.8392 58.6219 79.3573 57.4329C78.5542 55.505 76.9801 56.0191 76.5946 58.3648C76.3698 59.5858 76.3376 59.618 75.1169 59.618C73.607 59.618 73.2858 59.1038 73.8961 57.6579C74.2816 56.6618 75.7594 55.762 76.9801 55.762C79.1967 55.762 81.5739 54.1554 81.5739 52.6773C81.5739 51.7454 81.5739 51.7454 80.2247 52.5487C79.6464 52.8701 78.0081 53.3521 76.5946 53.6091C73.5107 54.1554 72.7397 54.5089 72.0972 55.762C70.8122 58.2363 71.9687 61.1282 75.8879 65.3055C79.9998 69.7398 80.546 71.8927 78.2009 74.6561C76.9801 76.07 75.7273 76.5199 74.4744 76.0379L73.7034 75.7165H74.5708C76.0485 75.6844 76.0164 75.0096 74.5065 73.9814C73.093 73.0174 71.7438 73.2744 69.9448 74.8811C69.0453 75.6844 68.1137 76.3271 67.8567 76.3271C66.9893 76.3271 66.0899 75.6201 65.6722 74.624C64.9013 72.7603 66.0256 71.8285 69.3666 71.5393C71.4225 71.3465 71.4547 71.3465 71.3904 70.4467C71.2619 68.7758 70.2339 67.2013 68.692 66.4301C67.5355 65.8196 66.9251 65.6911 65.351 65.8196C64.2909 65.916 63.1344 66.0767 62.8131 66.2373C62.2992 66.4301 62.3634 66.2052 63.1665 65.0484C64.2266 63.5382 65.1261 61.0318 64.7728 60.6784C64.6443 60.582 64.2266 60.7747 63.809 61.1282C62.9095 61.9637 60.5644 63.1526 59.8256 63.1526C58.2836 63.1526 57.2556 61.2889 58.0908 59.9714C58.3157 59.6501 58.4442 59.7786 58.6048 60.5177C58.8618 61.7709 59.5043 62.3171 60.4681 62.0601C61.3675 61.8351 61.8815 60.839 62.1707 58.6861C62.3634 57.1116 62.3634 57.0473 61.4639 56.6939C60.0504 56.1476 56.838 57.0795 54.268 58.7825C51.184 60.839 51.0555 60.8712 52.983 59.0396C55.4887 56.6939 57.1271 55.9227 59.7934 55.9227C61.6245 55.9227 62.0743 56.0512 62.6847 56.6618C63.295 57.2723 63.4235 57.69 63.3593 59.136C63.295 60.7748 63.3593 60.8711 63.9054 60.582C64.837 60.1 65.8329 58.2041 65.8329 56.951C65.8329 56.0512 65.5759 55.6014 64.6121 54.7338C62.1385 52.5166 58.7976 52.3559 51.7302 54.1554C49.5136 54.7016 47.3933 55.0872 46.9757 54.9587C45.9156 54.7016 46.0441 53.7377 47.3291 52.613C50.0597 50.203 54.7499 49.8175 60.3717 51.4884C67.3106 53.577 69.9448 53.6413 74.2817 51.8097C75.7273 51.1992 77.2692 50.5886 77.719 50.4601L78.5221 50.2673L77.719 50.91C77.2692 51.2634 76.2734 51.8097 75.4703 52.0989C74.6671 52.4202 73.8961 52.7737 73.7355 52.9343C73.2215 53.3842 76.8837 53.2235 78.5221 52.7415C81.1563 51.9382 83.1159 49.3355 81.06 49.3355C80.4175 49.3355 80.289 49.2069 80.4496 48.7249C80.5781 48.3393 80.3211 47.7609 79.775 47.0862C78.9718 46.1543 78.8755 45.7045 78.6506 42.684C78.3615 38.6031 77.9117 36.643 76.691 33.9438C75.7915 31.8873 75.7915 31.8552 76.3376 30.7305C77.0122 29.3488 77.0765 25.6857 76.4661 23.8541C75.92 22.2475 75.5024 22.3438 75.6951 24.0469C75.92 26.007 75.3096 29.5737 74.5386 30.6341C74.1853 31.1483 73.2215 31.8873 72.3863 32.3372C70.9728 33.0441 70.4909 33.1084 66.6681 33.0762C63.552 33.0441 61.6567 32.8513 59.408 32.3372C57.2877 31.823 54.8462 31.566 51.3768 31.4374C48.6462 31.341 46.3653 31.2125 46.3011 31.1804C46.012 30.9555 46.7187 30.0879 47.2327 29.9915C47.7146 29.9272 48.1001 29.2845 48.6783 27.4851C50.5737 21.894 53.6576 17.5561 56.7416 16.1422C59.1509 15.0497 62.2349 15.1782 64.8049 16.4957C66.9893 17.6203 67.3749 17.4275 65.7686 16.0458C63.2308 13.925 59.4722 13.2503 56.7095 14.4392C54.7499 15.2746 52.4048 17.1705 50.8628 19.2591C49.0959 21.5727 47.04 25.7499 46.526 28.0314L46.1405 29.7344H44.1487C43.0565 29.7344 41.0327 29.8308 39.6834 29.9593L37.1777 30.1521L40.5508 25.6535C44.4057 20.5123 47.2648 17.4597 50.7343 14.889C53.6255 12.7361 55.2639 11.8685 57.7375 11.258C62.8774 9.94057 68.0495 13.4109 71.6153 20.5123C72.5148 22.2796 73.2215 23.8862 73.2215 24.1433C73.2215 24.4004 73.35 24.5931 73.5107 24.5931C74.3459 24.5931 74.1532 17.7489 73.1894 14.2464C71.9687 9.65137 67.8888 4.38159 64.2266 2.67854C60.0504 0.718445 54.4286 0.26857 48.6462 1.45749ZM61.0142 1.97162C63.9375 2.8392 65.8971 3.99599 67.9852 6.1489C71.4868 9.71564 73.5749 15.2425 73.5107 20.8336V23.1472L72.7397 21.4763C70.7479 17.0419 66.9893 12.704 64.0018 11.3223C62.781 10.776 61.8815 10.6154 59.7292 10.6154C57.3198 10.6475 56.7416 10.776 54.9105 11.6436C52.1157 13.0253 47.7146 16.3993 45.241 19.0663C44.1488 20.2552 41.8358 23.0829 40.1332 25.3965C38.4306 27.6779 36.8243 29.7344 36.5673 29.9272C36.3103 30.12 35.0575 30.4413 33.7404 30.6663L31.331 31.0518L29.7569 29.5095C27.1227 26.9389 26.3196 24.1754 27.4439 21.4763C28.0864 19.966 27.8616 19.8054 26.7693 20.93C24.2957 23.597 23.3641 27.9028 24.6812 30.8591C25.4843 32.6585 25.4522 32.6264 24.9703 32.6264C24.7776 32.6264 23.4284 33.2048 22.0149 33.8795C19.0915 35.2934 17.0034 36.9643 15.8791 38.7316C14.819 40.4025 13.277 44.9333 12.6987 48.0501C12.1526 50.8136 11.992 56.0834 12.4417 56.0834C12.5702 56.0834 12.8594 54.5089 13.0842 52.5809C13.534 48.6285 14.6583 44.3549 15.9112 41.8485C16.3931 40.9488 17.6459 39.31 18.7382 38.2496C20.2801 36.6751 21.1796 36.0967 22.9465 35.4219C26.673 34.0402 26.5766 34.0081 28.7289 35.8075C32.1984 38.6352 36.3746 40.274 38.9446 39.792C40.5829 39.5028 42.1891 38.5388 43.3456 37.2535C44.3736 36.0646 45.9156 33.1726 45.9156 32.3693C45.9156 31.6302 54.4607 31.8552 59.0867 32.7549C66.9251 34.2973 70.3624 34.1687 73.3179 32.305C75.0848 31.1804 75.663 30.1521 76.0485 27.453L76.3697 25.3965L76.4019 27.3244C76.434 28.7062 76.2413 29.638 75.7915 30.5377L75.149 31.823L76.0806 33.751C77.3014 36.2574 78.0402 39.3743 78.0402 41.977C78.0724 44.6119 78.4578 46.2828 79.3573 47.5039C80.289 48.7571 79.9356 49.2712 77.719 49.9781C76.7552 50.2673 74.8278 50.9742 73.4464 51.5526C69.4951 53.1271 67.2464 52.9665 58.4442 50.4601C55.9064 49.721 51.441 49.946 49.1923 50.91C47.554 51.649 45.5943 53.4485 45.5943 54.2518C45.5943 54.9587 46.3332 55.4407 47.3933 55.4407C47.9716 55.4407 50.2203 54.9908 52.4048 54.4767C58.7655 52.9022 61.8815 53.0307 64.1945 54.9908C65.5437 56.1155 65.6723 56.7903 64.837 58.5576L64.1303 60.1L63.9054 58.5255C63.6805 56.726 62.524 55.4728 61.0784 55.4086C57.6732 55.2158 55.7136 55.9548 52.9188 58.4612C51.698 59.5858 50.3488 60.4534 49.3208 60.8069C47.9073 61.2889 47.8109 61.3853 48.5498 61.4817C49.899 61.6423 51.8265 60.9997 53.6898 59.7465C56.4203 57.8828 57.8017 57.3044 59.8256 57.1116L61.753 56.951L61.5603 58.8146C61.4318 60.0357 61.1427 60.9033 60.7572 61.2889C60.1789 61.8994 60.1147 61.8994 59.5686 61.3531C59.1509 60.9033 59.0546 60.4213 59.1509 59.2324C59.2473 58.3969 59.2152 57.69 59.0546 57.69C58.6691 57.69 57.5126 59.7786 57.2877 60.8712C57.1271 61.6745 57.2235 62.0601 57.8017 62.6706C58.8939 63.8274 60.7572 63.7631 62.7489 62.5099C64.2266 61.5459 64.2588 61.5459 64.066 62.2529C63.6484 63.6346 62.2992 65.6911 61.2712 66.4944C60.0504 67.4584 60.2432 67.5227 62.4277 66.8479C64.58 66.1731 67.5676 66.2373 68.7562 66.9121C69.6236 67.4263 70.9728 69.5792 70.9728 70.4467C70.9728 70.6395 70.1055 70.8966 69.0453 71.0251C66.7645 71.2822 65.0619 72.2783 64.9334 73.4672C64.8691 73.9171 65.1583 74.7525 65.5759 75.3631C66.1862 76.2628 66.5717 76.5199 67.5033 76.5841C68.4992 76.6805 68.9168 76.4556 70.2982 75.2345C72.0972 73.6279 72.9003 73.4351 74.2817 74.3348C75.4381 75.106 75.1169 75.3631 73.4785 74.9775C71.4547 74.5276 71.3583 75.2024 73.35 76.1343C75.1169 76.9697 76.5625 76.809 77.8796 75.6523C81.2206 72.696 80.6744 69.5792 75.8558 64.5343C73.35 61.8673 72.1614 59.7786 72.1936 57.9792C72.2257 55.3122 73.0609 54.5731 76.5304 54.0911C77.8154 53.9305 79.2931 53.577 79.8713 53.3521C81.1242 52.8379 81.2206 53.1271 80.1926 54.0911C79.7107 54.541 78.6185 54.9587 77.1407 55.2158C74.6029 55.6978 73.6713 56.3404 73.2858 57.8185C72.836 59.4894 73.1252 59.9072 74.8599 60.1321C75.7272 60.2606 76.4661 60.5498 76.5625 60.7748C76.7552 61.2889 77.9117 61.1282 79.4216 60.357C79.9035 60.1321 80.2889 60.0036 80.2889 60.1C80.2889 60.5498 79.3252 62.0601 78.7148 62.5742L78.0402 63.1526L79.004 64.5343C80.6423 66.9764 80.9315 69.6756 80.0962 74.7847C79.775 76.7448 80.1283 77.5481 81.4776 77.9016C82.4092 78.1586 82.8911 78.1265 83.6299 77.773C84.1439 77.516 84.6258 77.291 84.69 77.291C84.7222 77.291 84.7864 78.0944 84.7864 79.0905V80.8899L83.5978 79.8617C82.0558 78.48 79.518 77.3553 77.719 77.2268L76.2734 77.1304L76.3697 78.9298C76.4982 80.8899 76.1449 81.4683 75.3418 80.6329C74.7635 80.0545 74.6672 78.8334 75.149 77.9337C75.6309 77.0018 75.1169 76.9054 72.1936 77.291C68.8526 77.773 66.7324 78.6085 62.9738 81.0827C61.0142 82.4002 59.6649 83.075 59.0225 83.075C58.0908 83.075 57.0628 82.2716 56.324 80.9863C56.0027 80.4079 55.9385 80.4079 55.3924 81.2755C54.4929 82.6251 54.5893 85.6135 55.5851 87.0916C56.4846 88.4411 58.5084 89.5015 60.1147 89.5015C61.9779 89.5015 65.1582 88.3447 68.2422 86.5453C74.5065 82.9143 74.8599 82.7536 76.8516 82.7536C78.9076 82.7536 79.9677 83.1392 79.9677 83.9425C79.9677 84.296 79.775 84.3924 79.261 84.1996C78.8433 84.0711 77.6869 83.9104 76.691 83.814C75.1169 83.6533 74.635 83.7497 73.4464 84.4567C72.0008 85.2921 70.0091 87.3165 70.0091 87.927C70.0091 89.0195 73.35 88.3126 77.5905 86.2882C79.0682 85.5813 80.6423 85.0029 81.0921 85.0029C82.2807 85.0029 83.7263 84.1675 84.2403 83.1714L84.69 82.3038L85.0755 83.0428C85.6859 84.1675 85.8786 87.927 85.4289 90.2727C85.204 91.4295 84.9149 92.3935 84.7864 92.3935C84.6258 92.3935 83.7905 91.9115 82.891 91.3331C81.9916 90.7226 80.7066 90.0799 79.9998 89.8229C78.7791 89.4373 78.6827 89.4373 77.462 90.4334C72.9645 93.968 67.8567 94.1287 63.6805 90.8511C62.4919 89.9193 62.4277 89.8871 60.2111 90.1763C58.7976 90.3691 56.9665 90.3691 55.2317 90.1442C45.9156 89.0517 39.4586 84.5209 34.1259 75.4273C30.7849 69.7077 29.532 68.2938 27.7331 68.2938C26.4802 68.2938 26.159 69.1293 26.1268 72.6318C26.0947 77.4517 25.2916 78.8977 23.1714 77.8052C21.6936 77.034 19.9268 74.8168 18.5775 71.9891C15.8791 66.4301 16.8107 63.7631 20.9548 65.2091C22.561 65.7875 22.561 65.1448 20.9226 64.0202C18.9952 62.6706 17.8708 62.3814 16.7464 62.9598C13.5018 64.6307 14.3371 72.6318 18.3848 78.5121C19.1237 79.6367 19.1879 79.8617 18.706 79.5725C17.7744 79.0905 15.847 76.8412 15.1081 75.4273C14.0158 73.3066 13.4697 70.4789 13.4697 67.0085C13.4697 63.8595 13.4376 63.731 12.506 62.5421C11.221 60.9354 10.2894 58.4291 10.0645 55.987C9.96814 54.8944 9.83965 53.7055 9.7754 53.3199L9.61477 52.6451L7.84792 53.2557C2.70798 54.9908 0.427126 51.4884 1.61574 43.7765C1.96911 41.3986 2.35461 40.3383 2.83648 40.3383C2.9971 40.3383 3.9287 41.5914 4.92457 43.1338C6.7878 46.0579 8.29766 47.4075 9.61477 47.4075C10.6428 47.4075 13.02 44.869 13.4376 43.3266C13.8873 41.7521 13.8873 40.4668 13.4376 37.2535C12.9879 34.0723 13.1806 33.1084 14.4335 32.3372C15.4936 31.6945 15.3972 31.341 14.1443 31.341C12.3775 31.341 10.8998 33.2048 10.8998 35.4541C10.8998 38.4103 9.51839 39.792 6.56293 39.7599C5.63131 39.7599 4.37846 39.5028 3.80022 39.2136C2.64373 38.6352 1.26237 37.4784 1.26237 37.125C1.26237 36.9964 2.06548 36.9643 3.02922 37.0607C4.47483 37.1892 4.98883 37.0607 6.20956 36.3538C7.65517 35.5183 9.71114 33.3333 9.45415 32.9477C9.35777 32.8192 8.55466 32.9156 7.62305 33.1726C6.69143 33.4297 5.14945 33.5582 4.18571 33.4939C2.70797 33.3976 2.29035 33.2048 1.51936 32.3372C0.812621 31.5338 0.619873 31.0197 0.619873 29.7987C0.619873 28.9632 0.780501 28.0635 0.941124 27.8064C1.166 27.453 1.26237 27.4208 1.26237 27.7422C1.26237 27.9992 1.55149 28.6098 1.93699 29.1239C2.41886 29.7987 2.8686 30.0557 3.57534 30.0557C4.4427 30.0557 4.53908 29.9593 4.31421 29.3167C3.76809 27.5172 3.80022 25.0751 4.41058 23.9826C5.27795 22.376 5.75982 22.3438 5.3422 23.8541C4.69971 26.3283 5.69557 29.2845 7.71942 30.7948C9.74327 32.2729 13.3734 30.9233 16.0718 27.71C18.0957 25.3001 19.4128 23.34 19.1879 23.115C19.0915 23.0186 18.2884 23.4042 17.4211 23.9184C15.4293 25.1394 13.4055 25.8785 11.992 25.8785C10.8355 25.8785 9.61477 24.6895 9.61477 23.5649C9.61477 23.0508 9.74327 23.0829 10.45 23.9184C11.3174 24.9466 12.506 25.2679 12.506 24.4646C12.506 24.2076 12.3775 23.8862 12.1847 23.7898C12.0241 23.6934 11.6386 22.8258 11.3816 21.894C10.9319 20.3195 10.9319 20.0624 11.4137 18.8414C11.735 18.038 12.3454 17.2669 13.0521 16.8491C14.2086 16.1101 14.3371 16.1422 14.8832 17.2669C15.7506 19.0342 19.5413 19.6447 24.0066 18.6807C26.9621 18.0381 26.8657 17.781 23.7175 18.038C19.1558 18.3915 16.0397 17.0419 16.0397 14.7284V13.925L16.9713 14.9212C17.4853 15.4674 18.2884 16.0458 18.7382 16.2386C20.0553 16.7206 22.4646 16.6242 24.4242 16.0137L26.159 15.4674L23.4284 15.2746C20.1195 15.0176 18.4169 14.2785 17.7423 12.8325C17.0034 11.3223 17.3889 10.294 18.9309 9.6835C20.248 9.16938 22.9786 9.00871 25.0988 9.36217C26.2553 9.55497 26.2553 9.58711 26.6408 11.7079C27.2833 15.5638 29.2108 18.745 31.6201 19.9982C32.9373 20.7051 35.7321 20.6087 37.7881 19.8375C40.2617 18.9056 46.9115 14.2464 46.4617 13.7644C46.3653 13.7001 45.1125 14.3749 43.6669 15.2425C40.101 17.4275 37.8844 18.2309 35.3145 18.2951C33.644 18.3272 33.0015 18.1666 32.0378 17.5882C30.3994 16.5599 28.9859 13.6358 28.6004 10.4547C28.4077 9.13725 28.3113 8.0126 28.3756 7.98047C28.4077 7.94833 29.0502 8.14112 29.8212 8.39819C30.6564 8.68738 32.0378 8.84805 33.1942 8.78378L35.1539 8.68739L33.7082 8.26966C30.0782 7.24141 28.2471 5.79543 28.2471 4.02812V3.09627L29.0823 3.86746C31.1704 5.79544 35.3145 5.6669 43.1208 3.4176C45.4659 2.74281 48.4856 2.00375 49.8027 1.77882C51.1198 1.58603 52.4048 1.3611 52.6618 1.29683C53.754 1.00763 59.3758 1.45749 61.0142 1.97162ZM62.3955 14.7284C63.1986 15.0818 63.0059 15.114 60.7893 15.0176C58.4763 14.889 58.123 14.9854 56.1955 15.9815C52.9509 17.6525 50.0597 21.7976 48.1643 27.4851C47.3612 29.8308 47.3612 29.8629 46.9436 29.6059C46.5902 29.3809 47.0721 27.5494 48.1964 24.8823C50.3167 19.8375 54.1716 15.7245 57.8017 14.5998C59.0224 14.2464 61.3997 14.3106 62.3955 14.7284ZM26.5123 23.8541C26.5123 26.0713 27.3154 27.8386 29.2429 29.7665C29.9497 30.4735 30.4958 31.1161 30.4315 31.1482C30.3994 31.2125 29.4035 31.4696 28.2471 31.7588C25.8056 32.3693 25.6128 32.2408 24.8418 29.9915C24.1994 27.9992 24.3921 26.0391 25.5486 23.6934C25.9983 22.7937 26.416 22.0225 26.4481 22.0225C26.5123 22.0225 26.5444 22.858 26.5123 23.8541ZM45.9156 30.6663C45.9156 31.2125 45.5943 31.3089 43.1208 31.5017C41.5466 31.5981 39.0731 31.823 37.5632 31.9516C36.0533 32.0801 34.8005 32.2086 34.7684 32.1765C34.7362 32.1444 35.186 31.7909 35.7642 31.4053C36.6637 30.7948 37.4668 30.6341 40.9684 30.4092C43.2493 30.2807 45.3052 30.12 45.5301 30.0879C45.7229 30.0879 45.9156 30.3449 45.9156 30.6663ZM34.9932 31.341C34.7362 31.5017 33.9974 31.6302 33.387 31.6302C32.4554 31.6302 32.3911 31.566 32.9051 31.341C33.2585 31.1804 33.9974 31.0518 34.5114 31.0518C35.2502 31.0197 35.3466 31.1161 34.9932 31.341ZM32.0378 31.8552C33.2906 32.2086 32.8088 32.4657 29.9497 33.012C27.6688 33.4297 27.0263 33.4297 26.7051 33.1084C26.3517 32.787 26.6087 32.6264 28.1507 32.2086C30.2709 31.6624 31.0098 31.5981 32.0378 31.8552ZM45.1125 33.3012C42.8959 39.5671 37.7881 41.0452 31.5559 37.2214C29.3393 35.8396 27.4439 34.2973 27.7009 34.0402C28.2792 33.4618 38.6876 32.1122 43.2493 32.0158L45.5622 31.9837L45.1125 33.3012ZM26.2232 33.4618C26.2875 33.6546 25.4843 34.0402 24.4885 34.3615C20.0874 35.7433 17.2283 38.1853 15.2045 42.3305C13.791 45.1903 14.0801 43.6479 15.5257 40.4989C16.7464 37.864 18.3205 36.3216 21.2439 34.8435C24.7133 33.0762 25.9983 32.7549 26.2232 33.4618ZM81.5739 49.9138C81.5739 50.7814 78.49 52.5487 77.0122 52.5487C76.3055 52.5487 76.3055 52.5487 77.0765 52.0025C77.5262 51.7133 78.3615 51.0706 78.9397 50.5565C79.9035 49.721 81.5739 49.3033 81.5739 49.9138ZM78.6185 57.1116C79.4858 57.9792 78.8433 59.618 77.6547 59.618C76.9801 59.618 76.8516 58.3648 77.3977 57.3365C77.7832 56.6296 78.0724 56.5654 78.6185 57.1116ZM74.2817 78.737C74.0568 80.1509 74.8599 81.4683 75.9521 81.4683C76.8837 81.4683 77.2692 80.4401 76.9801 78.6728L76.7874 77.5481L78.1366 77.7409C80.1283 78.0622 82.7304 79.4439 83.6942 80.665C84.4651 81.6932 84.4973 81.7896 84.0154 82.7215C83.4372 83.814 83.2123 83.9747 81.8631 84.3603C81.0278 84.6173 80.8672 84.5531 80.6423 83.9425C80.1283 82.6251 79.3573 82.2716 76.948 82.2716C74.7314 82.2716 74.5065 82.3359 71.7759 83.9747C70.1697 84.9065 67.5034 86.3525 65.8329 87.188C63.2629 88.4733 62.4598 88.6982 60.5323 88.7946C58.4121 88.9231 58.1551 88.8589 57.1913 88.0234C55.4566 86.5774 54.6856 83.7497 55.553 82.0788C55.8742 81.4683 55.9385 81.5004 56.6773 82.4002C57.1271 82.9143 57.866 83.3963 58.3478 83.4927C59.4401 83.7176 61.4639 82.85 63.5199 81.3398C66.0577 79.5082 68.3386 78.5442 71.7759 77.8052C72.1293 77.7409 72.8682 77.6766 73.4464 77.6445C74.4423 77.6124 74.4744 77.6445 74.2817 78.737ZM78.3615 84.4888L79.4858 84.9065L77.5584 85.7741C75.1169 86.8988 70.9407 88.3126 70.7479 88.0877C70.2661 87.6057 72.6433 85.2921 74.5065 84.4567C75.5666 83.9747 76.9801 83.9747 78.3615 84.4888Z" fill="url(#paint1_linear_1080_4324)"/>
</g>
<defs>
<linearGradient id="paint0_linear_1080_4324" x1="-8.29242" y1="61.0781" x2="-8.29053" y2="61.0781" gradientUnits="userSpaceOnUse">
<stop stop-color="#FECF24"/>
<stop offset="1" stop-color="#FE9724"/>
</linearGradient>
<linearGradient id="paint1_linear_1080_4324" x1="-8.29242" y1="61.6824" x2="-8.29053" y2="61.6824" gradientUnits="userSpaceOnUse">
<stop stop-color="#FECF24"/>
<stop offset="1" stop-color="#FE9724"/>
</linearGradient>
</defs>
</svg>
