<svg width="84" height="136" viewBox="0 0 84 136" fill="none" xmlns="http://www.w3.org/2000/svg">
<g id="Vector">
<path d="M47.4601 0.572541C45.9557 0.716849 44.9729 0.909259 43.7354 1.3061C41.3453 2.07574 40.1078 2.90551 36.0312 6.47712C33.5198 8.67781 32.0517 9.50758 28.6546 10.6741C27.6598 11.0228 26.5072 11.4437 26.0947 11.6361C23.8259 12.6583 22.3093 14.2938 21.2659 16.8913C20.4166 18.9838 20.1618 20.7756 19.9798 25.5257C19.8221 30.1195 19.5795 31.7309 18.8637 33.0537C18.4875 33.7753 17.5897 34.7494 17.7111 34.3044C19.1184 29.5182 19.3368 28.3637 18.9607 27.6542C18.7181 27.1852 18.075 26.8485 17.6261 26.9568C16.4978 27.2333 15.0904 30.2277 14.9327 32.6809C14.872 33.5949 14.8963 33.7632 15.1511 34.2443C15.4544 34.8335 16.0853 35.3266 16.5342 35.3266C16.6919 35.3266 16.8254 35.3747 16.8254 35.4228C16.8254 35.7836 15.0298 40.5216 14.0956 42.6021C12.7124 45.6806 11.5599 47.8452 9.06055 52.0061C6.22153 56.7202 5.17813 59.1373 5.17813 60.9652C5.17813 62.0716 5.36012 62.6488 5.93035 63.2741C6.48845 63.9235 6.98588 64.1159 8.92709 64.5128C11.7418 65.078 15.3816 66.4489 16.3886 67.3268C16.6798 67.5793 16.9588 67.9401 16.9952 68.1084C17.1166 68.5654 16.8739 69.0705 16.4007 69.3591C15.6849 69.792 14.9084 69.8642 12.0937 69.7078C6.75536 69.4072 3.49171 70.0566 1.22292 71.8724C0.71335 72.2813 0.410037 72.6301 0.276578 72.9788C-0.123796 73.9769 0.325109 74.5181 3.09133 76.346C6.33072 78.4745 9.73997 79.8454 13.7801 80.6271C15.3209 80.9277 15.6485 80.9518 18.7909 80.9518C20.9869 80.9638 22.2001 80.9157 22.285 80.8315C22.37 80.7473 22.2729 80.3385 21.9817 79.4486C20.0526 73.8206 18.7909 68.8179 18.3541 65.0299C18.1357 63.1899 18.0993 59.6183 18.2813 57.9949C18.7059 54.291 19.8343 51.008 21.642 48.2541C23.1586 45.9572 24.3961 44.5983 31.2267 37.7077C32.9859 35.9399 34.4176 34.4126 34.4176 34.3164C34.4176 34.2082 34.2235 34.0759 33.9323 34.0038C33.3985 33.8595 33.3985 33.8354 33.9444 32.7771C34.09 32.4885 34.7937 30.9853 35.5095 29.422C37.3294 25.4175 38.4456 23.5415 40.1563 21.5813C41.6001 19.9458 43.8203 18.5508 45.8829 17.9977C47.2053 17.6489 50.0079 17.6128 51.5245 17.9255C53.6234 18.3705 55.6738 19.2002 57.7242 20.4148C59.5562 21.5212 60.6967 22.3509 64.385 25.2852C66.217 26.7403 68.6557 28.5922 69.784 29.398C73.5572 32.0556 74.2245 33.0177 75.8139 38.0925C76.2142 39.3792 76.7845 40.9786 77.0757 41.64C77.3668 42.3014 77.6095 42.9628 77.6095 43.1072C77.6095 43.2635 77.6823 43.3837 77.7793 43.3837C78.0463 43.3837 80.3393 47.9775 80.8731 49.589C81.9651 52.8359 81.7952 55.5897 80.3757 57.7063C79.9875 58.2715 79.9147 58.4639 80.0239 58.5721C80.2301 58.7645 80.6426 58.2594 81.1886 57.1531C82.0015 55.5296 82.232 53.822 81.9287 51.8378C81.6496 49.9618 81.1037 48.5187 79.5507 45.4882L78.1312 42.7103L78.0463 39.8362C77.743 29.41 76.4084 20.0901 74.4914 15.0153C72.6351 10.0728 69.6991 6.83789 64.749 4.26441C59.9688 1.7751 52.2524 0.127593 47.4601 0.572541ZM53.0289 1.24598C55.1157 1.52257 58.0639 2.20803 60.2114 2.91754C66.581 4.99797 70.8517 8.38919 73.2418 13.2596C74.6977 16.2299 75.6683 20.2224 76.5661 26.9086C77.3062 32.3442 77.9128 42.0008 77.4882 41.3394C77.3062 41.0628 76.469 38.7058 75.8381 36.7095C75.4984 35.6272 75.001 34.3766 74.5885 33.5829C73.7028 31.8632 72.5502 30.6847 70.1601 29.0733C69.2259 28.4479 67.3575 27.0409 65.9865 25.9466C61.8493 22.6275 60.8666 21.8819 59.3621 20.8838C56.8143 19.1762 54.0966 17.9856 51.5245 17.4445C50.0201 17.1318 47.084 17.1559 45.7615 17.5046C42.0126 18.5027 38.8945 21.4851 36.3831 26.4878C35.9099 27.4137 35.0727 29.1935 34.5025 30.4562C32.8282 34.1721 33.0466 33.8474 32.1973 33.9196C31.0811 34.0158 29.6616 34.7614 28.776 35.7114C27.9752 36.5652 27.5506 37.383 27.3686 38.4412C27.1987 39.3912 27.3322 39.5957 28.048 39.4995C28.327 39.4514 28.6546 39.3912 28.776 39.3431C28.9094 39.295 28.1451 40.1489 27.0774 41.2312C26.0097 42.3135 24.6509 43.7445 24.0564 44.4059C20.4773 48.3864 18.8394 51.6934 17.9537 56.6721C17.6625 58.3797 17.6504 63.7551 17.9537 65.8235C18.4754 69.5274 19.4339 73.2554 21.278 78.7751C21.5813 79.6891 21.7876 80.4708 21.7512 80.5189C21.5813 80.6872 16.4007 80.579 15.0662 80.3745C10.201 79.641 5.77263 77.8372 1.98727 75.0472C0.980267 74.3016 0.56776 73.8206 0.56776 73.3877C0.56776 73.075 1.53836 72.137 2.38764 71.6319C3.34612 71.0788 4.51084 70.6579 5.90608 70.3692C7.01015 70.1528 9.67931 70.0926 13.6103 70.2009C15.5151 70.249 15.7092 70.237 16.2188 70.0085C17.2864 69.5154 17.7717 68.5774 17.3713 67.7477C16.7405 66.4248 13.6103 65.0539 9.01202 64.0678C7.18 63.683 6.54911 63.4064 6.1002 62.8292C4.81415 61.1576 5.76049 58.3196 9.92196 51.3928C11.8996 48.1098 13.5496 44.9591 14.8114 42.097C15.6364 40.197 17.068 36.469 17.2986 35.6272C17.3835 35.3025 17.5412 35.074 17.7717 34.9418C18.3662 34.593 18.9971 33.8595 19.3854 33.0898C20.0284 31.8031 20.4652 28.8207 20.4652 25.658C20.4652 20.2585 21.3266 16.7229 23.195 14.3659C24.299 12.983 25.7549 12.1412 28.9822 11.0469C32.8404 9.73606 33.6775 9.23099 37.3901 5.92394C40.5445 3.10995 42.51 1.97954 45.3369 1.36623C47.3873 0.909259 50.2627 0.861156 53.0289 1.24598ZM18.2813 27.6061C18.8637 28.0751 18.6817 29.3739 17.4199 33.5708C17.2258 34.2202 17.068 34.7734 17.068 34.7975C17.068 34.8215 16.886 34.8456 16.6677 34.8456C15.1268 34.8456 14.9327 32.4525 16.2309 29.3619C16.6313 28.4119 17.1772 27.6783 17.6019 27.5099C17.9658 27.3656 17.978 27.3656 18.2813 27.6061ZM32.2337 35.05C30.8264 37.5273 29.5767 38.7419 28.1936 38.9824L27.7447 39.0665L27.8175 38.5494C28.0116 37.3709 28.8124 36.1203 29.8436 35.3627C30.4745 34.9057 31.797 34.3766 32.3308 34.3645H32.622L32.2337 35.05ZM33.6896 34.4607C33.6896 34.5088 33.3863 34.8456 33.0102 35.2063L32.3308 35.8677L32.7433 35.1221C33.0466 34.5449 33.2043 34.3645 33.4227 34.3645C33.5683 34.3645 33.6896 34.4126 33.6896 34.4607Z" fill="url(#paint0_linear_683_508)"/>
<path d="M48.6491 31.5987C47.9939 31.743 46.9384 32.3202 46.3439 32.8253C44.8273 34.124 44.0023 35.6874 42.9225 39.271C41.8912 42.6863 41.2846 43.9009 39.9743 45.1996C39.4283 45.7408 38.5791 46.306 38.6761 46.0655C39.768 43.5281 39.8166 43.1072 38.9794 43.6123C38.3485 44.0091 37.754 44.7427 37.5357 45.4401C37.2809 46.2218 37.2687 46.9433 37.5114 47.0396C37.7298 47.1237 37.754 47.0756 36.6378 49.4567C35.461 51.9821 33.811 55.0366 31.9547 58.1392C29.4311 62.3241 28.5818 64.2242 28.1693 66.5211C27.1987 72.0408 30.2683 77.9574 36.0312 81.6733C39.1371 83.6816 42.3765 84.5234 44.1115 83.7778C46.3318 82.8398 46.72 79.9537 44.7424 79.2562L44.16 79.0518L44.0872 77.9093C44.0023 76.5144 44.16 73.52 44.4269 71.644C45.2277 65.8957 47.4965 60.0753 50.7723 55.3493C52.2767 53.1726 53.405 51.8378 55.3341 49.9377C60.454 44.899 63.3173 43.9971 67.4181 46.1016C69.4564 47.1478 72.0042 49.1921 73.7635 51.1884C78.0826 56.0708 80.4121 61.7469 80.7154 68.1565C80.7639 69.2749 80.7518 69.8882 80.6426 70.1408L80.5092 70.4895L80.2422 70.0205C80.0845 69.756 79.8904 69.5395 79.7933 69.5395C79.5871 69.5395 79.4051 70.3091 79.4536 70.9224C79.49 71.3073 79.5264 71.3433 79.9389 71.3794L80.3878 71.4155L80.582 72.2813C81.1765 74.8789 81.0551 77.3321 80.1452 80.9638C79.7084 82.6955 76.8451 91.9192 76.5297 92.6407C76.2749 93.2179 75.8867 93.5065 75.2922 93.6027C74.7219 93.6869 57.3966 91.1976 56.6808 90.9331C56.511 90.8609 56.2804 91.1856 56.4018 91.3059C56.5231 91.4261 65.9744 92.8812 71.9436 93.699C75.5833 94.204 75.8381 94.192 76.5297 93.4224C76.9179 92.9894 77.0999 92.5084 78.3374 88.576C80.4364 81.8778 80.8489 80.3505 81.1886 77.9815C81.5162 75.7447 81.3706 73.051 80.8489 71.5838C80.6912 71.1389 80.6911 71.0667 80.9217 70.6218C81.1401 70.2009 81.1643 69.9363 81.1522 68.4933C81.0794 62.6248 78.8106 56.5278 74.9039 51.7416C73.8969 50.515 71.7616 48.4586 70.5119 47.5086C67.6365 45.356 65.4284 44.4781 63.1839 44.6224C60.8544 44.7547 58.7191 46.0414 55.2977 49.3364C53.0775 51.489 51.8399 52.9441 50.2142 55.3493C45.8828 61.7709 43.6383 69.0224 43.6383 76.6346V79.0397L42.9953 79.3404C42.6192 79.5207 42.2552 79.8094 42.0975 80.0499C41.321 81.2164 42.3037 83.1044 43.7354 83.2126C44.245 83.2487 44.1115 83.381 43.3957 83.5493C42.2067 83.8259 40.2169 83.3689 38.0574 82.2987C32.2823 79.4606 28.4605 73.9769 28.4726 68.5774C28.4848 65.6432 29.3219 63.4184 32.2095 58.6322C34.4661 54.8923 36.6136 50.8276 37.936 47.7972C38.3121 46.9433 38.4092 46.8231 38.9188 46.5706C39.7195 46.1617 40.7508 45.1876 41.4059 44.2135C42.1096 43.1553 42.6313 41.8926 43.3835 39.4033C44.4148 36.0241 44.985 34.8335 46.1862 33.631C48.1395 31.6949 50.202 31.4544 52.3738 32.9215C53.2958 33.5468 55.322 35.2665 56.3654 36.3247L57.1297 37.1064L56.1834 37.1545C55.0308 37.2026 54.1209 37.5754 53.2837 38.345C52.0583 39.4634 51.4274 40.7141 50.1778 44.4901L49.2436 47.3402L46.3196 51.2004C43.2865 55.2049 42.7648 56.0107 42.5707 57.0809C42.3401 58.3076 42.8861 59.474 43.6019 59.3057C44.2692 59.1614 44.9729 58.7525 45.5067 58.2113C46.5259 57.1892 46.9384 56.179 49.098 49.4206L49.7289 47.4604L51.0271 45.8009C53.9267 42.0609 55.7345 40.3293 58.0275 39.1147L58.622 38.802L59.0588 39.3071C59.6776 40.0046 60.0294 39.728 59.5926 38.8862C59.4956 38.7058 59.4106 38.5374 59.4106 38.5134C59.4106 38.5014 59.7261 38.4292 60.1143 38.345C61.0607 38.1406 61.3761 37.9963 61.3155 37.8159C61.2548 37.6355 60.6846 37.6836 59.7504 37.9362L59.0709 38.1165L58.6342 37.7919C58.3915 37.6115 57.5544 36.8298 56.7779 36.0602C55.0187 34.3285 53.1624 32.8012 52.1554 32.236C50.93 31.5626 49.7289 31.3341 48.6491 31.5987ZM57.4694 37.7317C57.7 37.8039 57.9911 37.9843 58.1003 38.1406L58.3187 38.4292L57.433 38.9102C55.6132 39.8963 53.405 41.9768 51.3182 44.6465C50.7359 45.392 50.2384 45.9933 50.2142 45.9693C50.1171 45.8731 51.5973 41.7603 52.0947 40.7502C52.8105 39.3071 53.8054 38.2488 54.8003 37.876C55.5404 37.5994 56.7658 37.5273 57.4694 37.7317ZM38.4577 45.392C37.9482 46.5946 37.9603 46.5706 37.8632 46.4743C37.6448 46.2579 38.482 44.3578 38.8096 44.3458C38.8581 44.3458 38.7004 44.8148 38.4577 45.392ZM47.7149 52.1144C46.538 55.7341 46.3318 56.2873 45.7737 57.1411C45.167 58.0791 44.2207 58.7766 43.5413 58.7766C43.2258 58.7766 42.971 58.2354 42.9832 57.574C42.9953 56.6119 43.6141 55.5657 46.2104 52.1264C47.545 50.3586 48.6612 48.9276 48.6855 48.9516C48.7097 48.9757 48.273 50.3947 47.7149 52.1144ZM80.0724 70.7421C80.1209 70.8382 80.0966 70.9465 80.036 70.9826C79.9632 71.0307 79.9147 70.9465 79.9147 70.8142C79.9147 70.5136 79.9875 70.4895 80.0724 70.7421ZM43.8931 81.1683C44.0023 82.0461 44.0751 82.7917 44.063 82.8037C43.9295 82.948 43.2016 82.6234 42.8497 82.2746C42.049 81.4929 42.0732 80.4106 42.8982 79.8575C43.6505 79.3524 43.6747 79.4005 43.8931 81.1683ZM44.8516 79.7613C45.7737 80.2303 45.7979 81.9379 44.888 82.7436C44.6453 82.948 44.6332 82.9481 44.5725 82.6835C44.5361 82.5272 44.4391 81.9138 44.3663 81.3246C44.2935 80.7233 44.2086 80.098 44.1843 79.9056C44.1236 79.5208 44.3056 79.4847 44.8516 79.7613Z" fill="url(#paint1_linear_683_508)"/>
<path d="M75.4863 60.2918C73.994 60.5323 72.6473 61.0735 71.9072 61.7349C71.1307 62.4324 70.8152 63.3584 71.2399 63.7071C71.4947 63.9236 71.7859 63.659 71.7859 63.2141C71.7859 62.7571 72.3925 62.0836 73.1568 61.7108C74.2245 61.1697 75.4499 60.9292 76.9907 60.9532C78.1676 60.9773 78.3981 60.9532 78.5073 60.7849C78.5922 60.6406 78.5922 60.5444 78.4952 60.4482C78.3496 60.3039 76.1293 60.1956 75.4863 60.2918Z" fill="url(#paint2_linear_683_508)"/>
<path d="M59.1073 63.7552C57.615 64.1761 54.9944 65.4388 53.8175 66.3166C52.6771 67.1705 52.2039 67.9281 52.7014 68.1205C52.8348 68.1686 53.0047 68.0603 53.2594 67.7477C53.7811 67.0983 54.958 66.3166 56.5838 65.5109C59.5077 64.0799 61.1699 63.8875 62.9048 64.7533C63.4023 65.0058 63.5721 65.0419 63.6934 64.9217C63.924 64.6932 63.657 64.4046 62.8684 64.0077C62.2254 63.695 62.007 63.6469 60.9272 63.6229C60.1629 63.5988 59.4956 63.6469 59.1073 63.7552Z" fill="url(#paint3_linear_683_508)"/>
<path d="M78.7257 66.978C78.0099 67.7958 76.7359 68.0002 74.7341 67.6154C74.2124 67.5192 73.3752 67.435 72.8657 67.435C72.1013 67.435 71.8708 67.4831 71.5311 67.7116C71.0822 68.0122 70.9851 68.4331 71.337 68.4933C71.4583 68.5173 71.6645 68.4452 71.7859 68.3369C72.1498 68.0123 72.9385 67.9882 74.637 68.2768C76.4326 68.5895 77.4032 68.5534 78.2646 68.1445C78.8955 67.8559 79.575 67.1584 79.4779 66.9059C79.3444 66.5692 79.0654 66.5932 78.7257 66.978Z" fill="url(#paint4_linear_683_508)"/>
<path d="M70.2693 68.0362C70.1722 68.1925 70.2572 68.4691 70.7182 69.5274C71.1792 70.5736 72.0164 71.9806 72.2348 72.0528C72.5623 72.1851 72.5259 71.7642 72.1741 71.2591C71.7131 70.5856 71.0822 69.335 70.8153 68.5894C70.609 67.9881 70.427 67.7957 70.2693 68.0362Z" fill="url(#paint5_linear_683_508)"/>
<path d="M63.7177 69.6838C63.5236 69.7921 62.9412 70.2611 62.4438 70.718C60.7331 72.3054 59.1801 72.7023 57.1419 72.0649C56.5595 71.8845 55.8073 71.7282 55.4676 71.7162C54.8973 71.7041 54.8609 71.7162 54.8609 72.0048C54.8609 72.2814 54.9216 72.3174 55.5282 72.3776C55.8922 72.4257 56.4382 72.5459 56.7294 72.6542C57.6514 72.9909 58.7191 73.0991 59.6169 72.9668C60.818 72.7744 61.7522 72.2693 62.9048 71.2111C63.4629 70.706 64.1181 70.225 64.3607 70.1408C64.664 70.0326 64.8096 69.9123 64.8096 69.756C64.8096 69.4674 64.203 69.4193 63.7177 69.6838Z" fill="url(#paint6_linear_683_508)"/>
<path d="M74.2002 76.0573C74.1274 76.2497 73.9333 76.5384 73.7513 76.7308C73.5087 76.9833 73.4723 77.0915 73.5815 77.1998C73.6907 77.308 73.7877 77.32 73.9454 77.2238C74.2002 77.0675 74.6977 76.2257 74.6977 75.9371C74.6977 75.6124 74.3458 75.6966 74.2002 76.0573Z" fill="url(#paint7_linear_683_508)"/>
<path d="M66.8115 77.4643C66.8115 78.3182 66.8479 78.4985 66.9935 78.4985C67.1512 78.4985 67.1755 78.3302 67.1512 77.5124C67.127 76.8631 67.0663 76.5143 66.9692 76.4782C66.8479 76.4422 66.8115 76.6947 66.8115 77.4643Z" fill="url(#paint8_linear_683_508)"/>
<path d="M69.238 77.4764C69.238 77.6087 69.3836 77.6568 69.8447 77.6568C70.3057 77.6568 70.4513 77.6087 70.4513 77.4764C70.4513 77.3441 70.3057 77.296 69.8447 77.296C69.3836 77.296 69.238 77.3441 69.238 77.4764Z" fill="url(#paint9_linear_683_508)"/>
<path d="M55.1643 78.3783C54.3999 78.5346 53.0289 79.2441 52.3616 79.8214C51.3061 80.7113 50.4326 82.3588 50.2384 83.7658L50.1656 84.355L48.9281 84.5114C45.8101 84.8962 42.4857 85.7981 40.4717 86.8083C39.3313 87.3735 38.3849 87.9868 36.3588 89.502C35.3761 90.2235 34.3812 90.8248 33.0223 91.4862C30.8021 92.5926 30.0256 93.1217 29.4796 93.9394C28.4362 95.4787 28.4484 96.9819 29.5524 100.59C30.3168 103.079 30.4624 104.017 30.4624 106.278C30.4624 109.14 30.0256 111.208 28.8609 113.914C28.2664 115.273 26.9803 117.534 26.4222 118.183L26.1068 118.544L24.9542 118.303C23.4134 117.967 20.9747 117.87 19.2398 118.063C15.1511 118.496 11.4749 120.083 8.2234 122.801C6.84029 123.955 4.69283 126.517 4.69283 127.01C4.69283 127.419 5.04467 127.166 5.60277 126.324C6.47631 125.062 8.89069 122.705 10.2738 121.803C12.4698 120.348 14.872 119.338 17.4563 118.772C19.2034 118.388 22.649 118.327 24.3961 118.652C25.1119 118.784 25.7428 118.917 25.7792 118.953C25.9855 119.169 23.013 122.14 21.3994 123.33C20.3317 124.124 18.5846 125.218 17.893 125.531C17.5291 125.687 17.432 126 17.7353 126C18.1842 126 20.174 124.821 21.7997 123.595C25.1483 121.069 28.0237 117.305 29.5646 113.433C30.1712 111.93 30.7414 109.513 30.8991 107.805C31.1297 105.352 30.8991 103.452 29.9892 100.505C29.2977 98.2566 29.1642 97.5111 29.2249 96.2844C29.3098 94.2762 29.9892 93.5065 32.9738 92.0394C35.1941 90.9451 35.1941 90.9451 37.2202 89.4298C38.6882 88.3355 39.7559 87.638 39.9743 87.638C40.035 87.638 40.132 87.7703 40.1684 87.9387C40.2169 88.107 40.3019 88.2393 40.3747 88.2393C40.5688 88.2393 40.6416 87.8785 40.5081 87.5779C40.3868 87.3133 40.4232 87.2773 41.5515 86.8203C43.0317 86.219 44.342 85.8101 45.8829 85.4854C47.3873 85.1728 50.1171 84.7519 49.9837 84.8601C49.9351 84.9082 49.3406 85.1607 48.6733 85.4133C44.5725 86.9766 40.2533 89.3336 36.3952 92.1115C34.3448 93.5907 33.3257 94.4445 33.3257 94.685C33.3257 94.9857 33.5562 94.8654 34.5146 94.0958C38.5791 90.8248 43.4685 88.2393 48.5884 86.688C51.6337 85.762 53.7811 85.4854 54.776 85.8943C55.2128 86.0867 55.7709 86.5196 55.7709 86.676C55.7709 86.7241 55.2128 86.9045 54.5334 87.0848C52.9925 87.4937 50.3476 88.1912 49.4984 88.4317C48.552 88.6842 48.6612 88.9127 49.7531 88.9969C50.6995 89.0691 51.8278 89.4419 52.5558 89.9469C52.7863 90.0912 52.9804 90.2476 52.9804 90.2837C52.9804 90.3197 52.4223 90.5843 51.7429 90.8729C48.1638 92.4002 45.992 93.711 44.2935 95.3945C43.0438 96.6332 42.2188 97.8718 41.685 99.3029C41.2603 100.469 41.0784 101.828 41.3453 101.828C41.4423 101.828 43.8931 100.313 46.7928 98.4731C49.6925 96.6212 52.1069 95.142 52.1554 95.1781C52.216 95.2021 52.2524 95.5148 52.2524 95.8515C52.2524 96.7053 51.7065 97.8117 50.8936 98.6294C50.2627 99.2427 49.7774 99.5554 47.3266 100.902C45.252 102.057 44.5483 102.826 43.6383 104.991C43.0438 106.398 42.7163 106.939 42.146 107.444C41.7699 107.769 41.6001 107.829 40.7387 107.901C40.035 107.961 39.7559 108.033 39.7559 108.154C39.7559 108.563 40.6052 108.683 41.4545 108.382C41.7335 108.286 42.1096 108.202 42.2795 108.202H42.5828L42.51 109.428C42.4129 111.328 42.0611 112.17 39.6346 116.439C36.0434 122.729 34.4297 126.962 33.9323 131.351C33.7018 133.432 33.811 135.5 34.1628 135.5C34.3327 135.5 34.3569 135.32 34.3084 133.997C34.1749 128.982 35.825 123.979 40.0956 116.56C42.5343 112.303 42.9468 111.244 42.9589 109.248C42.971 108.094 42.9468 107.925 42.7405 107.769C42.6071 107.673 42.5464 107.601 42.6192 107.601C42.8376 107.601 43.5413 106.422 44.063 105.147C44.9608 102.995 45.5067 102.418 47.7998 101.155C50.6146 99.6155 51.2454 99.1345 52.0219 97.944C52.7378 96.8376 52.9319 95.3344 52.4466 94.661C52.2888 94.4686 51.9006 94.685 47.0354 97.7756C44.1479 99.6155 41.7578 101.083 41.7214 101.047C41.6243 100.95 42.0611 99.4833 42.4372 98.7016C43.8931 95.6351 46.6108 93.5185 51.9006 91.2938C52.7984 90.921 53.5749 90.5723 53.6356 90.5121C53.7084 90.452 53.6356 90.2837 53.4536 90.0912C53.2109 89.8147 53.1988 89.7786 53.3929 89.8507C53.8297 90.0071 55.9407 89.9349 56.6808 89.7425C58.4279 89.2976 59.9324 88.1672 60.7088 86.7361C61.546 85.1607 61.8614 82.9601 61.4247 81.6493C60.9757 80.3144 59.6897 79.0517 58.2581 78.5587C57.5544 78.3061 55.9529 78.222 55.1643 78.3783ZM58.6099 79.2081C59.5926 79.6891 60.5147 80.6511 60.8544 81.5651C61.5703 83.4411 60.7816 86.4475 59.2287 87.8665C57.2389 89.6583 53.951 90.0311 51.5245 88.7324C51.0149 88.4558 50.8451 88.5279 53.6477 87.8184C56.3533 87.145 56.4139 87.1209 56.3047 86.7601C56.0135 85.7861 54.9459 85.2329 53.3444 85.2329C52.2646 85.2329 49.5348 85.8582 47.3509 86.6158C46.6836 86.8443 46.1255 87.0127 46.1012 86.9886C46.0284 86.9285 49.5226 85.5335 51.1363 84.9804C52.2888 84.5955 52.6164 84.4392 52.5922 84.2829C52.5558 84.0784 52.1796 84.0664 51.112 84.2227L50.6388 84.2949L50.7116 83.6575C50.7601 83.2727 50.9907 82.6113 51.2818 82.0341C52.0462 80.4948 53.5385 79.2562 55.1279 78.8593C55.3826 78.7992 56.0985 78.7631 56.7051 78.7872C57.6757 78.8232 57.9426 78.8834 58.6099 79.2081Z" fill="url(#paint10_linear_683_508)"/>
<path d="M77.0029 80.3624C77.0029 80.8675 77.0393 81.0238 77.1848 81.0238C77.379 81.0238 77.3911 80.9998 77.3911 80.3624C77.3911 79.7251 77.379 79.701 77.1848 79.701C77.0393 79.701 77.0029 79.8574 77.0029 80.3624Z" fill="url(#paint11_linear_683_508)"/>
<path d="M74.7947 82.1663C74.0182 82.8638 73.4238 83.0081 72.1498 82.8398C71.0094 82.6834 70.5483 82.7676 69.238 83.3208C68.3402 83.6936 68.1582 83.7056 67.1512 83.4771C66.6174 83.3569 66.7144 83.7657 67.2604 83.9942C67.8306 84.2227 68.5586 84.1385 70.0266 83.6575C71.0458 83.3208 71.1914 83.2967 72.344 83.3689C73.448 83.441 73.6179 83.429 74.2002 83.1885C74.7462 82.948 75.6683 82.1182 75.6683 81.8537C75.6683 81.5891 75.2922 81.7214 74.7947 82.1663Z" fill="url(#paint12_linear_683_508)"/>
<path d="M64.7975 82.6354C64.7611 82.7316 64.749 83.0082 64.7732 83.2608C64.7975 83.5854 64.8703 83.7418 65.028 83.7658C65.1979 83.8019 65.2343 83.7057 65.2343 83.1405C65.2343 82.6114 65.1979 82.4671 65.0523 82.4671C64.9431 82.4671 64.8339 82.5392 64.7975 82.6354Z" fill="url(#paint13_linear_683_508)"/>
<path d="M74.7219 85.0044C74.2245 85.6177 73.4238 85.9905 72.4046 86.0867C70.9972 86.231 70.6818 86.3152 70.7182 86.5437C70.791 86.9285 73.3631 86.7602 74.2366 86.3032C74.5521 86.1348 75.462 84.8962 75.365 84.7519C75.2315 84.5474 75.0131 84.6316 74.7219 85.0044Z" fill="url(#paint14_linear_683_508)"/>
<path d="M42.1096 90.1032C42.0247 90.3197 42.3887 90.6564 42.6556 90.6083C42.9832 90.5602 42.9225 90.2956 42.5464 90.1032C42.2067 89.9349 42.1703 89.9349 42.1096 90.1032Z" fill="url(#paint15_linear_683_508)"/>
<path d="M48.2487 90.1754C47.8119 90.3077 46.9263 90.4641 46.2832 90.5482C45.4582 90.6324 45.0942 90.7286 45.0942 90.8369C45.0942 90.921 45.1306 91.0172 45.1913 91.0413C45.3733 91.1495 47.4601 90.8849 48.3458 90.6444C49.2314 90.4039 49.5226 90.2356 49.3892 90.0191C49.3042 89.8868 49.1829 89.9109 48.2487 90.1754Z" fill="url(#paint16_linear_683_508)"/>
<path d="M42.231 92.2318C41.8427 92.6527 40.9206 93.7952 40.1806 94.7933C38.7368 96.7174 37.3779 98.1003 36.4437 98.5814C35.8856 98.87 35.7764 99.0864 36.1404 99.1586C36.4559 99.2187 38.1302 98.0041 38.8217 97.2225C39.1857 96.8136 40.0592 95.7072 40.7629 94.7692C41.4787 93.8312 42.3523 92.761 42.7284 92.4002C43.0924 92.0274 43.3957 91.6786 43.3957 91.6065C43.3957 91.2818 42.8619 91.5584 42.231 92.2318Z" fill="url(#paint17_linear_683_508)"/>
<path d="M44.3905 91.9913C44.2935 92.0875 44.342 92.2799 44.5604 92.7008C44.8637 93.3021 45.0457 93.4223 45.167 93.1217C45.2277 92.9533 44.8273 92.0394 44.6332 91.9191C44.5725 91.883 44.4633 91.9191 44.3905 91.9913Z" fill="url(#paint18_linear_683_508)"/>
<path d="M65.9865 98.2447C64.385 103.584 64.2394 104.173 64.2273 105.737C64.2152 107.757 64.8218 109.416 66.2049 111.136C68.1704 113.589 71.0215 115.093 75.0131 115.79C76.3477 116.019 77.0271 116.067 79.7327 116.067C81.7224 116.079 82.9114 116.031 82.9478 115.958C82.9842 115.886 82.5596 115.826 81.7952 115.814C79.4536 115.754 76.2021 115.537 75.1223 115.357C70.0752 114.539 66.3505 111.87 65.028 108.142C64.7369 107.3 64.7005 106.999 64.7005 105.797C64.7005 104.149 64.846 103.536 66.5082 98.0402C67.8064 93.7471 67.7821 93.8553 67.5273 93.7952C67.3696 93.7711 67.0784 94.6129 65.9865 98.2447Z" fill="url(#paint19_linear_683_508)"/>
<path d="M29.7587 97.487C29.698 97.5712 30.4017 98.9782 30.5958 99.1706C30.6201 99.1946 30.7293 99.1826 30.8385 99.1345C31.0083 99.0744 30.9719 98.9421 30.5716 98.2206C30.1348 97.4269 29.9164 97.2345 29.7587 97.487Z" fill="url(#paint20_linear_683_508)"/>
<path d="M33.9565 101.528C33.5319 101.708 33.3378 102.009 33.5319 102.201C33.6047 102.273 33.7624 102.225 33.9565 102.069C34.454 101.684 34.9878 101.756 35.461 102.249C35.6794 102.49 35.8978 102.862 35.9463 103.091C36.0312 103.56 36.1889 103.728 36.3831 103.536C36.565 103.356 36.1768 102.285 35.7764 101.912C35.1819 101.359 34.636 101.239 33.9565 101.528Z" fill="url(#paint21_linear_683_508)"/>
<path d="M59.714 121.695C58.7676 122.043 57.9184 122.861 57.8092 123.535C57.7485 123.883 58.161 123.919 58.2702 123.571C58.4279 123.053 58.8526 122.621 59.532 122.296C60.4783 121.839 61.6188 121.863 63.1111 122.368C63.8269 122.609 64.2394 122.693 64.3243 122.609C64.5063 122.44 64.0938 122.188 63.1718 121.887C62.2497 121.598 60.2721 121.478 59.714 121.695Z" fill="url(#paint22_linear_683_508)"/>
<path d="M47.9101 0.572541C46.4057 0.716849 45.4229 0.909259 44.1854 1.3061C41.7953 2.07574 40.5578 2.90551 36.4812 6.47712C33.9698 8.67781 32.5017 9.50758 29.1046 10.6741C28.1098 11.0228 26.9572 11.4437 26.5447 11.6361C24.2759 12.6583 22.7593 14.2938 21.7159 16.8913C20.8666 18.9838 20.6118 20.7756 20.4298 25.5257C20.2721 30.1195 20.0295 31.7309 19.3137 33.0537C18.9375 33.7753 18.0397 34.7494 18.1611 34.3044C19.5684 29.5182 19.7868 28.3637 19.4107 27.6542C19.1681 27.1852 18.525 26.8485 18.0761 26.9568C16.9478 27.2333 15.5404 30.2277 15.3827 32.6809C15.322 33.5949 15.3463 33.7632 15.6011 34.2443C15.9044 34.8335 16.5353 35.3266 16.9842 35.3266C17.1419 35.3266 17.2754 35.3747 17.2754 35.4228C17.2754 35.7836 15.4798 40.5216 14.5456 42.6021C13.1624 45.6806 12.0099 47.8452 9.51055 52.0061C6.67153 56.7202 5.62813 59.1373 5.62813 60.9652C5.62813 62.0716 5.81012 62.6488 6.38035 63.2741C6.93845 63.9235 7.43588 64.1159 9.37709 64.5128C12.1918 65.078 15.8316 66.4489 16.8386 67.3268C17.1298 67.5793 17.4088 67.9401 17.4452 68.1084C17.5666 68.5654 17.3239 69.0705 16.8507 69.3591C16.1349 69.792 15.3584 69.8642 12.5437 69.7078C7.20536 69.4072 3.94171 70.0566 1.67292 71.8724C1.16335 72.2813 0.860036 72.6301 0.726578 72.9788C0.326204 73.9769 0.775108 74.5181 3.54133 76.346C6.78072 78.4745 10.19 79.8454 14.2301 80.6271C15.7709 80.9277 16.0985 80.9518 19.2409 80.9518C21.4369 80.9638 22.6501 80.9157 22.735 80.8315C22.82 80.7473 22.7229 80.3385 22.4317 79.4486C20.5026 73.8206 19.2409 68.8179 18.8041 65.0299C18.5857 63.1899 18.5493 59.6183 18.7313 57.9949C19.1559 54.291 20.2843 51.008 22.092 48.2541C23.6086 45.9572 24.8461 44.5983 31.6767 37.7077C33.4359 35.9399 34.8676 34.4126 34.8676 34.3164C34.8676 34.2082 34.6735 34.0759 34.3823 34.0038C33.8485 33.8595 33.8485 33.8354 34.3944 32.7771C34.54 32.4885 35.2437 30.9853 35.9595 29.422C37.7794 25.4175 38.8956 23.5415 40.6063 21.5813C42.0501 19.9458 44.2703 18.5508 46.3329 17.9977C47.6553 17.6489 50.4579 17.6128 51.9745 17.9255C54.0734 18.3705 56.1238 19.2002 58.1742 20.4148C60.0062 21.5212 61.1467 22.3509 64.835 25.2852C66.667 26.7403 69.1057 28.5922 70.234 29.398C74.0072 32.0556 74.6745 33.0177 76.2639 38.0925C76.6642 39.3792 77.2345 40.9786 77.5257 41.64C77.8168 42.3014 78.0595 42.9628 78.0595 43.1072C78.0595 43.2635 78.1323 43.3837 78.2293 43.3837C78.4963 43.3837 80.7893 47.9775 81.3231 49.589C82.4151 52.8359 82.2452 55.5897 80.8257 57.7063C80.4375 58.2715 80.3647 58.4639 80.4739 58.5721C80.6801 58.7645 81.0926 58.2594 81.6386 57.1531C82.4515 55.5296 82.682 53.822 82.3787 51.8378C82.0996 49.9618 81.5537 48.5187 80.0007 45.4882L78.5812 42.7103L78.4963 39.8362C78.1929 29.41 76.8584 20.0901 74.9414 15.0153C73.0851 10.0728 70.1491 6.83789 65.199 4.26441C60.4188 1.7751 52.7024 0.127593 47.9101 0.572541ZM53.4789 1.24598C55.5657 1.52257 58.5139 2.20803 60.6614 2.91754C67.031 4.99797 71.3017 8.38919 73.6918 13.2596C75.1477 16.2299 76.1183 20.2224 77.0161 26.9086C77.7562 32.3442 78.3628 42.0008 77.9382 41.3394C77.7562 41.0628 76.919 38.7058 76.2881 36.7095C75.9484 35.6272 75.451 34.3766 75.0385 33.5829C74.1528 31.8632 73.0002 30.6847 70.6101 29.0733C69.6759 28.4479 67.8075 27.0409 66.4365 25.9466C62.2993 22.6275 61.3166 21.8819 59.8121 20.8838C57.2643 19.1762 54.5466 17.9856 51.9745 17.4445C50.4701 17.1318 47.534 17.1559 46.2115 17.5046C42.4626 18.5027 39.3445 21.4851 36.8331 26.4878C36.3599 27.4137 35.5227 29.1935 34.9525 30.4562C33.2782 34.1721 33.4966 33.8474 32.6473 33.9196C31.5311 34.0158 30.1116 34.7614 29.226 35.7114C28.4252 36.5652 28.0006 37.383 27.8186 38.4412C27.6487 39.3912 27.7822 39.5957 28.498 39.4995C28.777 39.4514 29.1046 39.3912 29.226 39.3431C29.3594 39.295 28.5951 40.1489 27.5274 41.2312C26.4597 42.3135 25.1009 43.7445 24.5064 44.4059C20.9273 48.3864 19.2894 51.6934 18.4037 56.6721C18.1125 58.3797 18.1004 63.7551 18.4037 65.8235C18.9254 69.5274 19.8839 73.2554 21.728 78.7751C22.0313 79.6891 22.2376 80.4708 22.2012 80.5189C22.0313 80.6872 16.8507 80.579 15.5162 80.3745C10.651 79.641 6.22263 77.8372 2.43727 75.0472C1.43027 74.3016 1.01776 73.8206 1.01776 73.3877C1.01776 73.075 1.98836 72.137 2.83764 71.6319C3.79611 71.0788 4.96084 70.6579 6.35608 70.3692C7.46015 70.1528 10.1293 70.0926 14.0603 70.2009C15.9651 70.249 16.1592 70.237 16.6688 70.0085C17.7364 69.5154 18.2217 68.5774 17.8213 67.7477C17.1905 66.4248 14.0603 65.0539 9.46202 64.0678C7.63 63.683 6.99911 63.4064 6.5502 62.8292C5.26415 61.1576 6.21049 58.3196 10.372 51.3928C12.3496 48.1098 13.9996 44.9591 15.2614 42.097C16.0864 40.197 17.518 36.469 17.7486 35.6272C17.8335 35.3025 17.9912 35.074 18.2217 34.9418C18.8162 34.593 19.4471 33.8595 19.8354 33.0898C20.4784 31.8031 20.9152 28.8207 20.9152 25.658C20.9152 20.2585 21.7766 16.7229 23.645 14.3659C24.749 12.983 26.2049 12.1412 29.4322 11.0469C33.2904 9.73606 34.1275 9.23099 37.8401 5.92394C40.9945 3.10995 42.96 1.97954 45.7869 1.36623C47.8373 0.909259 50.7127 0.861156 53.4789 1.24598ZM18.7313 27.6061C19.3137 28.0751 19.1317 29.3739 17.8699 33.5708C17.6758 34.2202 17.518 34.7734 17.518 34.7975C17.518 34.8215 17.336 34.8456 17.1177 34.8456C15.5768 34.8456 15.3827 32.4525 16.6809 29.3619C17.0813 28.4119 17.6272 27.6783 18.0519 27.5099C18.4158 27.3656 18.428 27.3656 18.7313 27.6061ZM32.6837 35.05C31.2764 37.5273 30.0267 38.7419 28.6436 38.9824L28.1947 39.0665L28.2675 38.5494C28.4616 37.3709 29.2624 36.1203 30.2936 35.3627C30.9245 34.9057 32.247 34.3766 32.7808 34.3645H33.072L32.6837 35.05ZM34.1396 34.4607C34.1396 34.5088 33.8363 34.8456 33.4602 35.2063L32.7808 35.8677L33.1933 35.1221C33.4966 34.5449 33.6543 34.3645 33.8727 34.3645C34.0183 34.3645 34.1396 34.4126 34.1396 34.4607Z" fill="url(#paint23_linear_683_508)"/>
<path d="M49.0991 31.5987C48.4439 31.743 47.3884 32.3202 46.7939 32.8253C45.2773 34.124 44.4523 35.6874 43.3725 39.271C42.3412 42.6863 41.7346 43.9009 40.4243 45.1996C39.8783 45.7408 39.0291 46.306 39.1261 46.0655C40.218 43.5281 40.2666 43.1072 39.4294 43.6123C38.7985 44.0091 38.204 44.7427 37.9856 45.4401C37.7309 46.2218 37.7187 46.9433 37.9614 47.0396C38.1798 47.1237 38.204 47.0756 37.0878 49.4567C35.911 51.9821 34.261 55.0366 32.4047 58.1392C29.8811 62.3241 29.0318 64.2242 28.6193 66.5211C27.6487 72.0408 30.7183 77.9574 36.4812 81.6733C39.5871 83.6816 42.8265 84.5234 44.5615 83.7778C46.7818 82.8398 47.17 79.9537 45.1924 79.2562L44.61 79.0518L44.5372 77.9093C44.4523 76.5144 44.61 73.52 44.8769 71.644C45.6777 65.8957 47.9465 60.0753 51.2223 55.3493C52.7267 53.1726 53.855 51.8378 55.7841 49.9377C60.904 44.899 63.7673 43.9971 67.8681 46.1016C69.9064 47.1478 72.4542 49.1921 74.2135 51.1884C78.5326 56.0708 80.8621 61.7469 81.1654 68.1565C81.214 69.2749 81.2018 69.8882 81.0926 70.1408L80.9592 70.4895L80.6922 70.0205C80.5345 69.756 80.3404 69.5395 80.2433 69.5395C80.0371 69.5395 79.8551 70.3091 79.9036 70.9224C79.94 71.3073 79.9764 71.3433 80.3889 71.3794L80.8378 71.4155L81.032 72.2813C81.6264 74.8789 81.5051 77.3321 80.5952 80.9638C80.1584 82.6955 77.2951 91.9192 76.9797 92.6407C76.7249 93.2179 76.3367 93.5065 75.7422 93.6027C75.1719 93.6869 57.8466 91.1976 57.1308 90.9331C56.961 90.8609 56.7304 91.1856 56.8518 91.3059C56.9731 91.4261 66.4244 92.8812 72.3936 93.699C76.0333 94.204 76.2881 94.192 76.9797 93.4224C77.3679 92.9894 77.5499 92.5084 78.7874 88.576C80.8864 81.8778 81.2989 80.3505 81.6386 77.9815C81.9662 75.7447 81.8206 73.051 81.2989 71.5838C81.1412 71.1389 81.1411 71.0667 81.3717 70.6218C81.59 70.2009 81.6143 69.9363 81.6022 68.4933C81.5294 62.6248 79.2606 56.5278 75.3539 51.7416C74.3469 50.515 72.2116 48.4586 70.9619 47.5086C68.0865 45.356 65.8784 44.4781 63.6339 44.6224C61.3044 44.7547 59.1691 46.0414 55.7477 49.3364C53.5275 51.489 52.2899 52.9441 50.6642 55.3493C46.3328 61.7709 44.0883 69.0224 44.0883 76.6346V79.0397L43.4453 79.3404C43.0692 79.5207 42.7052 79.8094 42.5475 80.0499C41.771 81.2164 42.7537 83.1044 44.1854 83.2126C44.695 83.2487 44.5615 83.381 43.8457 83.5493C42.6567 83.8259 40.6669 83.3689 38.5074 82.2987C32.7323 79.4606 28.9105 73.9769 28.9226 68.5774C28.9348 65.6432 29.7719 63.4184 32.6595 58.6322C34.9161 54.8923 37.0636 50.8276 38.386 47.7972C38.7621 46.9433 38.8592 46.8231 39.3688 46.5706C40.1695 46.1617 41.2008 45.1876 41.8559 44.2135C42.5596 43.1553 43.0813 41.8926 43.8335 39.4033C44.8648 36.0241 45.435 34.8335 46.6362 33.631C48.5895 31.6949 50.652 31.4544 52.8238 32.9215C53.7458 33.5468 55.772 35.2665 56.8154 36.3247L57.5797 37.1064L56.6334 37.1545C55.4808 37.2026 54.5709 37.5754 53.7337 38.345C52.5083 39.4634 51.8774 40.7141 50.6278 44.4901L49.6936 47.3402L46.7696 51.2004C43.7365 55.2049 43.2148 56.0107 43.0207 57.0809C42.7901 58.3076 43.3361 59.474 44.0519 59.3057C44.7192 59.1614 45.4229 58.7525 45.9567 58.2113C46.9759 57.1892 47.3884 56.179 49.548 49.4206L50.1789 47.4604L51.4771 45.8009C54.3767 42.0609 56.1845 40.3293 58.4775 39.1147L59.072 38.802L59.5088 39.3071C60.1276 40.0046 60.4794 39.728 60.0426 38.8862C59.9456 38.7058 59.8606 38.5374 59.8606 38.5134C59.8606 38.5014 60.1761 38.4292 60.5643 38.345C61.5107 38.1406 61.8261 37.9963 61.7655 37.8159C61.7048 37.6355 61.1346 37.6836 60.2004 37.9362L59.5209 38.1165L59.0842 37.7919C58.8415 37.6115 58.0044 36.8298 57.2279 36.0602C55.4687 34.3285 53.6124 32.8012 52.6054 32.236C51.38 31.5626 50.1789 31.3341 49.0991 31.5987ZM57.9194 37.7317C58.15 37.8039 58.4411 37.9843 58.5503 38.1406L58.7687 38.4292L57.883 38.9102C56.0632 39.8963 53.855 41.9768 51.7682 44.6465C51.1859 45.392 50.6884 45.9933 50.6642 45.9693C50.5671 45.8731 52.0473 41.7603 52.5447 40.7502C53.2605 39.3071 54.2554 38.2488 55.2503 37.876C55.9904 37.5994 57.2158 37.5273 57.9194 37.7317ZM38.9077 45.392C38.3982 46.5946 38.4103 46.5706 38.3132 46.4743C38.0948 46.2579 38.932 44.3578 39.2596 44.3458C39.3081 44.3458 39.1504 44.8148 38.9077 45.392ZM48.1649 52.1144C46.988 55.7341 46.7818 56.2873 46.2237 57.1411C45.617 58.0791 44.6707 58.7766 43.9913 58.7766C43.6758 58.7766 43.421 58.2354 43.4332 57.574C43.4453 56.6119 44.0641 55.5657 46.6604 52.1264C47.995 50.3586 49.1112 48.9276 49.1355 48.9516C49.1597 48.9757 48.723 50.3947 48.1649 52.1144ZM80.5224 70.7421C80.5709 70.8382 80.5467 70.9465 80.486 70.9826C80.4132 71.0307 80.3647 70.9465 80.3647 70.8142C80.3647 70.5136 80.4375 70.4895 80.5224 70.7421ZM44.3431 81.1683C44.4523 82.0461 44.5251 82.7917 44.513 82.8037C44.3795 82.948 43.6516 82.6234 43.2997 82.2746C42.499 81.4929 42.5232 80.4106 43.3482 79.8575C44.1005 79.3524 44.1247 79.4005 44.3431 81.1683ZM45.3016 79.7613C46.2237 80.2303 46.2479 81.9379 45.338 82.7436C45.0953 82.948 45.0832 82.9481 45.0225 82.6835C44.9861 82.5272 44.8891 81.9138 44.8163 81.3246C44.7435 80.7233 44.6586 80.098 44.6343 79.9056C44.5736 79.5208 44.7556 79.4847 45.3016 79.7613Z" fill="url(#paint24_linear_683_508)"/>
<path d="M75.9363 60.2918C74.444 60.5323 73.0973 61.0735 72.3572 61.7349C71.5807 62.4324 71.2652 63.3584 71.6899 63.7071C71.9447 63.9236 72.2358 63.659 72.2358 63.2141C72.2358 62.7571 72.8425 62.0836 73.6068 61.7108C74.6745 61.1697 75.8999 60.9292 77.4407 60.9532C78.6176 60.9773 78.8481 60.9532 78.9573 60.7849C79.0422 60.6406 79.0422 60.5444 78.9452 60.4482C78.7996 60.3039 76.5793 60.1956 75.9363 60.2918Z" fill="url(#paint25_linear_683_508)"/>
<path d="M59.5573 63.7552C58.065 64.1761 55.4444 65.4388 54.2675 66.3166C53.1271 67.1705 52.6539 67.9281 53.1514 68.1205C53.2848 68.1686 53.4547 68.0603 53.7094 67.7477C54.2311 67.0983 55.408 66.3166 57.0338 65.5109C59.9577 64.0799 61.6199 63.8875 63.3548 64.7533C63.8523 65.0058 64.0221 65.0419 64.1434 64.9217C64.374 64.6932 64.107 64.4046 63.3184 64.0077C62.6754 63.695 62.457 63.6469 61.3772 63.6229C60.6129 63.5988 59.9456 63.6469 59.5573 63.7552Z" fill="url(#paint26_linear_683_508)"/>
<path d="M79.1757 66.978C78.4599 67.7958 77.1859 68.0002 75.1841 67.6154C74.6624 67.5192 73.8252 67.435 73.3157 67.435C72.5513 67.435 72.3208 67.4831 71.9811 67.7116C71.5322 68.0122 71.4351 68.4331 71.787 68.4933C71.9083 68.5173 72.1145 68.4452 72.2359 68.3369C72.5998 68.0123 73.3885 67.9882 75.087 68.2768C76.8826 68.5895 77.8532 68.5534 78.7146 68.1445C79.3455 67.8559 80.025 67.1584 79.9279 66.9059C79.7944 66.5692 79.5154 66.5932 79.1757 66.978Z" fill="url(#paint27_linear_683_508)"/>
<path d="M70.7193 68.0362C70.6222 68.1925 70.7072 68.4691 71.1682 69.5274C71.6292 70.5736 72.4664 71.9806 72.6848 72.0528C73.0123 72.1851 72.9759 71.7642 72.6241 71.2591C72.1631 70.5856 71.5322 69.335 71.2653 68.5894C71.059 67.9881 70.877 67.7957 70.7193 68.0362Z" fill="url(#paint28_linear_683_508)"/>
<path d="M64.1677 69.6838C63.9736 69.7921 63.3912 70.2611 62.8938 70.718C61.1831 72.3054 59.6301 72.7023 57.5919 72.0649C57.0095 71.8845 56.2573 71.7282 55.9176 71.7162C55.3473 71.7041 55.3109 71.7162 55.3109 72.0048C55.3109 72.2814 55.3716 72.3174 55.9782 72.3776C56.3422 72.4257 56.8882 72.5459 57.1794 72.6542C58.1014 72.9909 59.1691 73.0991 60.0669 72.9668C61.268 72.7744 62.2022 72.2693 63.3548 71.2111C63.9129 70.706 64.5681 70.225 64.8107 70.1408C65.1141 70.0326 65.2596 69.9123 65.2596 69.756C65.2596 69.4674 64.653 69.4193 64.1677 69.6838Z" fill="url(#paint29_linear_683_508)"/>
<path d="M74.6502 76.0573C74.5774 76.2497 74.3833 76.5384 74.2013 76.7308C73.9587 76.9833 73.9223 77.0915 74.0315 77.1998C74.1407 77.308 74.2377 77.32 74.3955 77.2238C74.6502 77.0675 75.1477 76.2257 75.1477 75.9371C75.1477 75.6124 74.7958 75.6966 74.6502 76.0573Z" fill="url(#paint30_linear_683_508)"/>
<path d="M67.2615 77.4643C67.2615 78.3182 67.2979 78.4985 67.4435 78.4985C67.6012 78.4985 67.6255 78.3302 67.6012 77.5124C67.577 76.8631 67.5163 76.5143 67.4192 76.4782C67.2979 76.4422 67.2615 76.6947 67.2615 77.4643Z" fill="url(#paint31_linear_683_508)"/>
<path d="M69.688 77.4764C69.688 77.6087 69.8336 77.6568 70.2947 77.6568C70.7557 77.6568 70.9013 77.6087 70.9013 77.4764C70.9013 77.3441 70.7557 77.296 70.2947 77.296C69.8336 77.296 69.688 77.3441 69.688 77.4764Z" fill="url(#paint32_linear_683_508)"/>
<path d="M55.6143 78.3783C54.8499 78.5346 53.4789 79.2441 52.8116 79.8214C51.7561 80.7113 50.8826 82.3588 50.6884 83.7658L50.6156 84.355L49.3781 84.5114C46.2601 84.8962 42.9357 85.7981 40.9217 86.8083C39.7813 87.3735 38.8349 87.9868 36.8088 89.502C35.8261 90.2235 34.8312 90.8248 33.4723 91.4862C31.2521 92.5926 30.4756 93.1217 29.9296 93.9394C28.8862 95.4787 28.8984 96.9819 30.0024 100.59C30.7668 103.079 30.9124 104.017 30.9124 106.278C30.9124 109.14 30.4756 111.208 29.3109 113.914C28.7164 115.273 27.4303 117.534 26.8722 118.183L26.5568 118.544L25.4042 118.303C23.8634 117.967 21.4247 117.87 19.6898 118.063C15.6011 118.496 11.9249 120.083 8.6734 122.801C7.29029 123.955 5.14283 126.517 5.14283 127.01C5.14283 127.419 5.49467 127.166 6.05277 126.324C6.92631 125.062 9.34069 122.705 10.7238 121.803C12.9198 120.348 15.322 119.338 17.9063 118.772C19.6534 118.388 23.099 118.327 24.8461 118.652C25.5619 118.784 26.1928 118.917 26.2292 118.953C26.4355 119.169 23.463 122.14 21.8494 123.33C20.7817 124.124 19.0346 125.218 18.343 125.531C17.9791 125.687 17.882 126 18.1853 126C18.6342 126 20.624 124.821 22.2497 123.595C25.5983 121.069 28.4737 117.305 30.0146 113.433C30.6212 111.93 31.1914 109.513 31.3491 107.805C31.5797 105.352 31.3491 103.452 30.4392 100.505C29.7477 98.2566 29.6142 97.5111 29.6749 96.2844C29.7598 94.2762 30.4392 93.5065 33.4238 92.0394C35.6441 90.9451 35.6441 90.9451 37.6702 89.4298C39.1382 88.3355 40.2059 87.638 40.4243 87.638C40.485 87.638 40.582 87.7703 40.6184 87.9387C40.667 88.107 40.7519 88.2393 40.8247 88.2393C41.0188 88.2393 41.0916 87.8785 40.9581 87.5779C40.8368 87.3133 40.8732 87.2773 42.0015 86.8203C43.4817 86.219 44.792 85.8101 46.3329 85.4854C47.8373 85.1728 50.5671 84.7519 50.4337 84.8601C50.3851 84.9082 49.7906 85.1607 49.1233 85.4133C45.0225 86.9766 40.7033 89.3336 36.8452 92.1115C34.7948 93.5907 33.7757 94.4445 33.7757 94.685C33.7757 94.9857 34.0062 94.8654 34.9646 94.0958C39.0291 90.8248 43.9185 88.2393 49.0384 86.688C52.0837 85.762 54.2311 85.4854 55.226 85.8943C55.6628 86.0867 56.2209 86.5196 56.2209 86.676C56.2209 86.7241 55.6628 86.9045 54.9834 87.0848C53.4425 87.4937 50.7976 88.1912 49.9484 88.4317C49.002 88.6842 49.1112 88.9127 50.2031 88.9969C51.1495 89.0691 52.2778 89.4419 53.0058 89.9469C53.2363 90.0912 53.4304 90.2476 53.4304 90.2837C53.4304 90.3197 52.8723 90.5843 52.1929 90.8729C48.6138 92.4002 46.442 93.711 44.7435 95.3945C43.4938 96.6332 42.6688 97.8718 42.135 99.3029C41.7104 100.469 41.5284 101.828 41.7953 101.828C41.8923 101.828 44.3431 100.313 47.2428 98.4731C50.1425 96.6212 52.5569 95.142 52.6054 95.1781C52.666 95.2021 52.7024 95.5148 52.7024 95.8515C52.7024 96.7053 52.1565 97.8117 51.3436 98.6294C50.7127 99.2427 50.2274 99.5554 47.7766 100.902C45.702 102.057 44.9983 102.826 44.0883 104.991C43.4938 106.398 43.1663 106.939 42.596 107.444C42.2199 107.769 42.0501 107.829 41.1887 107.901C40.485 107.961 40.2059 108.033 40.2059 108.154C40.2059 108.563 41.0552 108.683 41.9045 108.382C42.1835 108.286 42.5596 108.202 42.7295 108.202H43.0328L42.96 109.428C42.8629 111.328 42.5111 112.17 40.0846 116.439C36.4934 122.729 34.8797 126.962 34.3823 131.351C34.1518 133.432 34.261 135.5 34.6128 135.5C34.7827 135.5 34.8069 135.32 34.7584 133.997C34.6249 128.982 36.275 123.979 40.5456 116.56C42.9843 112.303 43.3968 111.244 43.4089 109.248C43.421 108.094 43.3968 107.925 43.1905 107.769C43.0571 107.673 42.9964 107.601 43.0692 107.601C43.2876 107.601 43.9913 106.422 44.513 105.147C45.4108 102.995 45.9567 102.418 48.2498 101.155C51.0646 99.6155 51.6954 99.1345 52.4719 97.944C53.1877 96.8376 53.3819 95.3344 52.8966 94.661C52.7388 94.4686 52.3506 94.685 47.4854 97.7756C44.5979 99.6155 42.2078 101.083 42.1714 101.047C42.0743 100.95 42.5111 99.4833 42.8872 98.7016C44.3431 95.6351 47.0608 93.5185 52.3506 91.2938C53.2484 90.921 54.0249 90.5723 54.0856 90.5121C54.1584 90.452 54.0856 90.2837 53.9036 90.0912C53.6609 89.8147 53.6488 89.7786 53.8429 89.8507C54.2797 90.0071 56.3907 89.9349 57.1308 89.7425C58.8779 89.2976 60.3824 88.1672 61.1588 86.7361C61.996 85.1607 62.3114 82.9601 61.8747 81.6493C61.4258 80.3144 60.1397 79.0517 58.7081 78.5587C58.0044 78.3061 56.4029 78.222 55.6143 78.3783ZM59.0599 79.2081C60.0426 79.6891 60.9647 80.6511 61.3044 81.5651C62.0203 83.4411 61.2316 86.4475 59.6787 87.8665C57.6889 89.6583 54.401 90.0311 51.9745 88.7324C51.4649 88.4558 51.2951 88.5279 54.0977 87.8184C56.8033 87.145 56.8639 87.1209 56.7547 86.7601C56.4635 85.7861 55.3959 85.2329 53.7944 85.2329C52.7146 85.2329 49.9848 85.8582 47.8009 86.6158C47.1336 86.8443 46.5755 87.0127 46.5512 86.9886C46.4784 86.9285 49.9726 85.5335 51.5863 84.9804C52.7388 84.5955 53.0664 84.4392 53.0422 84.2829C53.0058 84.0784 52.6297 84.0664 51.562 84.2227L51.0888 84.2949L51.1616 83.6575C51.2101 83.2727 51.4407 82.6113 51.7318 82.0341C52.4962 80.4948 53.9885 79.2562 55.5779 78.8593C55.8326 78.7992 56.5485 78.7631 57.1551 78.7872C58.1257 78.8232 58.3926 78.8834 59.0599 79.2081Z" fill="url(#paint33_linear_683_508)"/>
<path d="M77.4529 80.3624C77.4529 80.8675 77.4893 81.0238 77.6348 81.0238C77.829 81.0238 77.8411 80.9998 77.8411 80.3624C77.8411 79.7251 77.829 79.701 77.6348 79.701C77.4893 79.701 77.4529 79.8574 77.4529 80.3624Z" fill="url(#paint34_linear_683_508)"/>
<path d="M75.2447 82.1663C74.4682 82.8638 73.8738 83.0081 72.5998 82.8398C71.4594 82.6834 70.9983 82.7676 69.688 83.3208C68.7902 83.6936 68.6082 83.7056 67.6012 83.4771C67.0674 83.3569 67.1644 83.7657 67.7104 83.9942C68.2806 84.2227 69.0086 84.1385 70.4766 83.6575C71.4958 83.3208 71.6414 83.2967 72.794 83.3689C73.898 83.441 74.0679 83.429 74.6502 83.1885C75.1962 82.948 76.1183 82.1182 76.1183 81.8537C76.1183 81.5891 75.7422 81.7214 75.2447 82.1663Z" fill="url(#paint35_linear_683_508)"/>
<path d="M65.2475 82.6354C65.2111 82.7316 65.199 83.0082 65.2232 83.2608C65.2475 83.5854 65.3203 83.7418 65.478 83.7658C65.6479 83.8019 65.6843 83.7057 65.6843 83.1405C65.6843 82.6114 65.6479 82.4671 65.5023 82.4671C65.3931 82.4671 65.2839 82.5392 65.2475 82.6354Z" fill="url(#paint36_linear_683_508)"/>
<path d="M75.1719 85.0044C74.6745 85.6177 73.8737 85.9905 72.8546 86.0867C71.4472 86.231 71.1318 86.3152 71.1682 86.5437C71.241 86.9285 73.8131 86.7602 74.6866 86.3032C75.0021 86.1348 75.912 84.8962 75.815 84.7519C75.6815 84.5474 75.4631 84.6316 75.1719 85.0044Z" fill="url(#paint37_linear_683_508)"/>
<path d="M42.5596 90.1032C42.4747 90.3197 42.8387 90.6564 43.1056 90.6083C43.4332 90.5602 43.3725 90.2956 42.9964 90.1032C42.6567 89.9349 42.6203 89.9349 42.5596 90.1032Z" fill="url(#paint38_linear_683_508)"/>
<path d="M48.6987 90.1754C48.2619 90.3077 47.3763 90.4641 46.7332 90.5482C45.9082 90.6324 45.5442 90.7286 45.5442 90.8369C45.5442 90.921 45.5806 91.0172 45.6413 91.0413C45.8233 91.1495 47.9101 90.8849 48.7958 90.6444C49.6814 90.4039 49.9726 90.2356 49.8392 90.0191C49.7542 89.8868 49.6329 89.9109 48.6987 90.1754Z" fill="url(#paint39_linear_683_508)"/>
<path d="M42.681 92.2318C42.2927 92.6527 41.3706 93.7952 40.6306 94.7933C39.1868 96.7174 37.8279 98.1003 36.8937 98.5814C36.3356 98.87 36.2264 99.0864 36.5904 99.1586C36.9059 99.2187 38.5802 98.0041 39.2717 97.2225C39.6357 96.8136 40.5092 95.7072 41.2129 94.7692C41.9287 93.8312 42.8023 92.761 43.1784 92.4002C43.5424 92.0274 43.8457 91.6786 43.8457 91.6065C43.8457 91.2818 43.3119 91.5584 42.681 92.2318Z" fill="url(#paint40_linear_683_508)"/>
<path d="M44.8405 91.9913C44.7435 92.0875 44.792 92.2799 45.0104 92.7008C45.3137 93.3021 45.4957 93.4223 45.617 93.1217C45.6777 92.9533 45.2773 92.0394 45.0832 91.9191C45.0225 91.883 44.9133 91.9191 44.8405 91.9913Z" fill="url(#paint41_linear_683_508)"/>
<path d="M66.4365 98.2447C64.835 103.584 64.6894 104.173 64.6773 105.737C64.6652 107.757 65.2718 109.416 66.6549 111.136C68.6204 113.589 71.4715 115.093 75.4631 115.79C76.7977 116.019 77.4771 116.067 80.1827 116.067C82.1724 116.079 83.3614 116.031 83.3978 115.958C83.4342 115.886 83.0096 115.826 82.2452 115.814C79.9036 115.754 76.6521 115.537 75.5723 115.357C70.5252 114.539 66.8005 111.87 65.478 108.142C65.1869 107.3 65.1505 106.999 65.1505 105.797C65.1505 104.149 65.296 103.536 66.9582 98.0402C68.2564 93.7471 68.2321 93.8553 67.9773 93.7952C67.8196 93.7711 67.5284 94.6129 66.4365 98.2447Z" fill="url(#paint42_linear_683_508)"/>
<path d="M30.2087 97.487C30.148 97.5712 30.8517 98.9782 31.0458 99.1706C31.0701 99.1946 31.1793 99.1826 31.2885 99.1345C31.4583 99.0744 31.4219 98.9421 31.0216 98.2206C30.5848 97.4269 30.3664 97.2345 30.2087 97.487Z" fill="url(#paint43_linear_683_508)"/>
<path d="M34.4065 101.528C33.9819 101.708 33.7878 102.009 33.9819 102.201C34.0547 102.273 34.2124 102.225 34.4065 102.069C34.904 101.684 35.4378 101.756 35.911 102.249C36.1294 102.49 36.3478 102.862 36.3963 103.091C36.4812 103.56 36.6389 103.728 36.8331 103.536C37.015 103.356 36.6268 102.285 36.2264 101.912C35.6319 101.359 35.086 101.239 34.4065 101.528Z" fill="url(#paint44_linear_683_508)"/>
<path d="M60.164 121.695C59.2176 122.043 58.3684 122.861 58.2592 123.535C58.1985 123.883 58.611 123.919 58.7202 123.571C58.8779 123.053 59.3026 122.621 59.982 122.296C60.9283 121.839 62.0688 121.863 63.5611 122.368C64.2769 122.609 64.6894 122.693 64.7743 122.609C64.9563 122.44 64.5438 122.188 63.6218 121.887C62.6997 121.598 60.7221 121.478 60.164 121.695Z" fill="url(#paint45_linear_683_508)"/>
<path d="M48.3601 0.572541C46.8557 0.716849 45.8729 0.909259 44.6354 1.3061C42.2453 2.07574 41.0078 2.90551 36.9312 6.47712C34.4198 8.67781 32.9517 9.50758 29.5546 10.6741C28.5598 11.0228 27.4072 11.4437 26.9947 11.6361C24.7259 12.6583 23.2093 14.2938 22.1659 16.8913C21.3166 18.9838 21.0618 20.7756 20.8798 25.5257C20.7221 30.1195 20.4795 31.7309 19.7637 33.0537C19.3875 33.7753 18.4897 34.7494 18.6111 34.3044C20.0184 29.5182 20.2368 28.3637 19.8607 27.6542C19.6181 27.1852 18.975 26.8485 18.5261 26.9568C17.3978 27.2333 15.9904 30.2277 15.8327 32.6809C15.772 33.5949 15.7963 33.7632 16.0511 34.2443C16.3544 34.8335 16.9853 35.3266 17.4342 35.3266C17.5919 35.3266 17.7254 35.3747 17.7254 35.4228C17.7254 35.7836 15.9298 40.5216 14.9956 42.6021C13.6124 45.6806 12.4599 47.8452 9.96055 52.0061C7.12153 56.7202 6.07813 59.1373 6.07813 60.9652C6.07813 62.0716 6.26012 62.6488 6.83035 63.2741C7.38845 63.9235 7.88588 64.1159 9.82709 64.5128C12.6418 65.078 16.2816 66.4489 17.2886 67.3268C17.5798 67.5793 17.8588 67.9401 17.8952 68.1084C18.0166 68.5654 17.7739 69.0705 17.3007 69.3591C16.5849 69.792 15.8084 69.8642 12.9937 69.7078C7.65536 69.4072 4.39171 70.0566 2.12292 71.8724C1.61335 72.2813 1.31004 72.6301 1.17658 72.9788C0.776204 73.9769 1.22511 74.5181 3.99133 76.346C7.23072 78.4745 10.64 79.8454 14.6801 80.6271C16.2209 80.9277 16.5485 80.9518 19.6909 80.9518C21.8869 80.9638 23.1001 80.9157 23.185 80.8315C23.27 80.7473 23.1729 80.3385 22.8817 79.4486C20.9526 73.8206 19.6909 68.8179 19.2541 65.0299C19.0357 63.1899 18.9993 59.6183 19.1813 57.9949C19.6059 54.291 20.7343 51.008 22.542 48.2541C24.0586 45.9572 25.2961 44.5983 32.1267 37.7077C33.8859 35.9399 35.3176 34.4126 35.3176 34.3164C35.3176 34.2082 35.1235 34.0759 34.8323 34.0038C34.2985 33.8595 34.2985 33.8354 34.8444 32.7771C34.99 32.4885 35.6937 30.9853 36.4095 29.422C38.2294 25.4175 39.3456 23.5415 41.0563 21.5813C42.5001 19.9458 44.7203 18.5508 46.7829 17.9977C48.1053 17.6489 50.9079 17.6128 52.4245 17.9255C54.5234 18.3705 56.5738 19.2002 58.6242 20.4148C60.4562 21.5212 61.5967 22.3509 65.285 25.2852C67.117 26.7403 69.5557 28.5922 70.684 29.398C74.4572 32.0556 75.1245 33.0177 76.7139 38.0925C77.1142 39.3792 77.6845 40.9786 77.9757 41.64C78.2668 42.3014 78.5095 42.9628 78.5095 43.1072C78.5095 43.2635 78.5823 43.3837 78.6793 43.3837C78.9463 43.3837 81.2393 47.9775 81.7731 49.589C82.8651 52.8359 82.6952 55.5897 81.2757 57.7063C80.8875 58.2715 80.8147 58.4639 80.9239 58.5721C81.1301 58.7645 81.5426 58.2594 82.0886 57.1531C82.9015 55.5296 83.132 53.822 82.8287 51.8378C82.5496 49.9618 82.0037 48.5187 80.4507 45.4882L79.0312 42.7103L78.9463 39.8362C78.643 29.41 77.3084 20.0901 75.3914 15.0153C73.5351 10.0728 70.5991 6.83789 65.649 4.26441C60.8688 1.7751 53.1524 0.127593 48.3601 0.572541ZM53.9289 1.24598C56.0157 1.52257 58.9639 2.20803 61.1114 2.91754C67.481 4.99797 71.7516 8.38919 74.1418 13.2596C75.5977 16.2299 76.5683 20.2224 77.4661 26.9086C78.2062 32.3442 78.8128 42.0008 78.3882 41.3394C78.2062 41.0628 77.369 38.7058 76.7381 36.7095C76.3984 35.6272 75.901 34.3766 75.4885 33.5829C74.6028 31.8632 73.4502 30.6847 71.0601 29.0733C70.1259 28.4479 68.2575 27.0409 66.8865 25.9466C62.7493 22.6275 61.7666 21.8819 60.2621 20.8838C57.7143 19.1762 54.9966 17.9856 52.4245 17.4445C50.9201 17.1318 47.984 17.1559 46.6615 17.5046C42.9126 18.5027 39.7945 21.4851 37.2831 26.4878C36.8099 27.4137 35.9727 29.1935 35.4025 30.4562C33.7282 34.1721 33.9466 33.8474 33.0973 33.9196C31.9811 34.0158 30.5616 34.7614 29.6759 35.7114C28.8752 36.5652 28.4506 37.383 28.2686 38.4412C28.0987 39.3912 28.2322 39.5957 28.948 39.4995C29.227 39.4514 29.5546 39.3912 29.6759 39.3431C29.8094 39.295 29.0451 40.1489 27.9774 41.2312C26.9097 42.3135 25.5509 43.7445 24.9564 44.4059C21.3773 48.3864 19.7394 51.6934 18.8537 56.6721C18.5625 58.3797 18.5504 63.7551 18.8537 65.8235C19.3754 69.5274 20.3339 73.2554 22.178 78.7751C22.4813 79.6891 22.6876 80.4708 22.6512 80.5189C22.4813 80.6872 17.3007 80.579 15.9662 80.3745C11.101 79.641 6.67263 77.8372 2.88727 75.0472C1.88027 74.3016 1.46776 73.8206 1.46776 73.3877C1.46776 73.075 2.43836 72.137 3.28764 71.6319C4.24611 71.0788 5.41084 70.6579 6.80608 70.3692C7.91015 70.1528 10.5793 70.0926 14.5103 70.2009C16.4151 70.249 16.6092 70.237 17.1188 70.0085C18.1864 69.5154 18.6717 68.5774 18.2713 67.7477C17.6405 66.4248 14.5103 65.0539 9.91202 64.0678C8.08 63.683 7.44911 63.4064 7.0002 62.8292C5.71415 61.1576 6.66049 58.3196 10.822 51.3928C12.7996 48.1098 14.4496 44.9591 15.7114 42.097C16.5364 40.197 17.968 36.469 18.1986 35.6272C18.2835 35.3025 18.4412 35.074 18.6717 34.9418C19.2662 34.593 19.8971 33.8595 20.2854 33.0898C20.9284 31.8031 21.3652 28.8207 21.3652 25.658C21.3652 20.2585 22.2266 16.7229 24.095 14.3659C25.199 12.983 26.6549 12.1412 29.8822 11.0469C33.7404 9.73606 34.5775 9.23099 38.2901 5.92394C41.4445 3.10995 43.41 1.97954 46.2369 1.36623C48.2873 0.909259 51.1627 0.861156 53.9289 1.24598ZM19.1813 27.6061C19.7637 28.0751 19.5817 29.3739 18.3199 33.5708C18.1258 34.2202 17.968 34.7734 17.968 34.7975C17.968 34.8215 17.786 34.8456 17.5677 34.8456C16.0268 34.8456 15.8327 32.4525 17.1309 29.3619C17.5313 28.4119 18.0772 27.6783 18.5019 27.5099C18.8658 27.3656 18.878 27.3656 19.1813 27.6061ZM33.1337 35.05C31.7264 37.5273 30.4767 38.7419 29.0936 38.9824L28.6447 39.0665L28.7175 38.5494C28.9116 37.3709 29.7124 36.1203 30.7436 35.3627C31.3745 34.9057 32.697 34.3766 33.2308 34.3645H33.522L33.1337 35.05ZM34.5896 34.4607C34.5896 34.5088 34.2863 34.8456 33.9102 35.2063L33.2308 35.8677L33.6433 35.1221C33.9466 34.5449 34.1043 34.3645 34.3227 34.3645C34.4683 34.3645 34.5896 34.4126 34.5896 34.4607Z" fill="url(#paint46_linear_683_508)"/>
<path d="M49.5491 31.5987C48.8939 31.743 47.8384 32.3202 47.2439 32.8253C45.7273 34.124 44.9023 35.6874 43.8225 39.271C42.7912 42.6863 42.1846 43.9009 40.8743 45.1996C40.3283 45.7408 39.4791 46.306 39.5761 46.0655C40.668 43.5281 40.7166 43.1072 39.8794 43.6123C39.2485 44.0091 38.654 44.7427 38.4356 45.4401C38.1809 46.2218 38.1687 46.9433 38.4114 47.0396C38.6298 47.1237 38.654 47.0756 37.5378 49.4567C36.361 51.9821 34.711 55.0366 32.8547 58.1392C30.3311 62.3241 29.4818 64.2242 29.0693 66.5211C28.0987 72.0408 31.1683 77.9574 36.9312 81.6733C40.0371 83.6816 43.2765 84.5234 45.0115 83.7778C47.2318 82.8398 47.62 79.9537 45.6424 79.2562L45.06 79.0518L44.9872 77.9093C44.9023 76.5144 45.06 73.52 45.3269 71.644C46.1277 65.8957 48.3965 60.0753 51.6723 55.3493C53.1767 53.1726 54.305 51.8378 56.2341 49.9377C61.354 44.899 64.2173 43.9971 68.3181 46.1016C70.3564 47.1478 72.9042 49.1921 74.6635 51.1884C78.9826 56.0708 81.3121 61.7469 81.6154 68.1565C81.6639 69.2749 81.6518 69.8882 81.5426 70.1408L81.4092 70.4895L81.1422 70.0205C80.9845 69.756 80.7904 69.5395 80.6933 69.5395C80.4871 69.5395 80.3051 70.3091 80.3536 70.9224C80.39 71.3073 80.4264 71.3433 80.8389 71.3794L81.2878 71.4155L81.482 72.2813C82.0764 74.8789 81.9551 77.3321 81.0452 80.9638C80.6084 82.6955 77.7451 91.9192 77.4297 92.6407C77.1749 93.2179 76.7867 93.5065 76.1922 93.6027C75.6219 93.6869 58.2966 91.1976 57.5808 90.9331C57.411 90.8609 57.1804 91.1856 57.3018 91.3059C57.4231 91.4261 66.8744 92.8812 72.8436 93.699C76.4833 94.204 76.7381 94.192 77.4297 93.4224C77.8179 92.9894 77.9999 92.5084 79.2374 88.576C81.3364 81.8778 81.7489 80.3505 82.0886 77.9815C82.4162 75.7447 82.2706 73.051 81.7489 71.5838C81.5911 71.1389 81.5911 71.0667 81.8217 70.6218C82.0401 70.2009 82.0643 69.9363 82.0522 68.4933C81.9794 62.6248 79.7106 56.5278 75.8039 51.7416C74.7969 50.515 72.6616 48.4586 71.4119 47.5086C68.5365 45.356 66.3284 44.4781 64.0839 44.6224C61.7544 44.7547 59.6191 46.0414 56.1977 49.3364C53.9775 51.489 52.7399 52.9441 51.1142 55.3493C46.7828 61.7709 44.5383 69.0224 44.5383 76.6346V79.0397L43.8953 79.3404C43.5192 79.5207 43.1552 79.8094 42.9975 80.0499C42.221 81.2164 43.2037 83.1044 44.6354 83.2126C45.145 83.2487 45.0115 83.381 44.2957 83.5493C43.1067 83.8259 41.1169 83.3689 38.9573 82.2987C33.1823 79.4606 29.3605 73.9769 29.3726 68.5774C29.3848 65.6432 30.2219 63.4184 33.1095 58.6322C35.3661 54.8923 37.5136 50.8276 38.836 47.7972C39.2121 46.9433 39.3092 46.8231 39.8188 46.5706C40.6195 46.1617 41.6508 45.1876 42.3059 44.2135C43.0096 43.1553 43.5313 41.8926 44.2835 39.4033C45.3148 36.0241 45.885 34.8335 47.0862 33.631C49.0395 31.6949 51.102 31.4544 53.2738 32.9215C54.1958 33.5468 56.222 35.2665 57.2654 36.3247L58.0297 37.1064L57.0834 37.1545C55.9308 37.2026 55.0209 37.5754 54.1837 38.345C52.9583 39.4634 52.3274 40.7141 51.0778 44.4901L50.1436 47.3402L47.2196 51.2004C44.1865 55.2049 43.6648 56.0107 43.4707 57.0809C43.2401 58.3076 43.7861 59.474 44.5019 59.3057C45.1692 59.1614 45.8729 58.7525 46.4067 58.2113C47.4259 57.1892 47.8384 56.179 49.998 49.4206L50.6289 47.4604L51.9271 45.8009C54.8267 42.0609 56.6345 40.3293 58.9275 39.1147L59.522 38.802L59.9588 39.3071C60.5776 40.0046 60.9294 39.728 60.4926 38.8862C60.3956 38.7058 60.3106 38.5374 60.3106 38.5134C60.3106 38.5014 60.6261 38.4292 61.0143 38.345C61.9607 38.1406 62.2761 37.9963 62.2155 37.8159C62.1548 37.6355 61.5846 37.6836 60.6504 37.9362L59.9709 38.1165L59.5342 37.7919C59.2915 37.6115 58.4544 36.8298 57.6779 36.0602C55.9187 34.3285 54.0624 32.8012 53.0554 32.236C51.83 31.5626 50.6289 31.3341 49.5491 31.5987ZM58.3694 37.7317C58.6 37.8039 58.8911 37.9843 59.0003 38.1406L59.2187 38.4292L58.333 38.9102C56.5132 39.8963 54.305 41.9768 52.2182 44.6465C51.6359 45.392 51.1384 45.9933 51.1142 45.9693C51.0171 45.8731 52.4973 41.7603 52.9947 40.7502C53.7105 39.3071 54.7054 38.2488 55.7003 37.876C56.4404 37.5994 57.6658 37.5273 58.3694 37.7317ZM39.3577 45.392C38.8482 46.5946 38.8603 46.5706 38.7632 46.4743C38.5448 46.2579 39.382 44.3578 39.7096 44.3458C39.7581 44.3458 39.6004 44.8148 39.3577 45.392ZM48.6149 52.1144C47.438 55.7341 47.2318 56.2873 46.6737 57.1411C46.067 58.0791 45.1207 58.7766 44.4413 58.7766C44.1258 58.7766 43.871 58.2354 43.8832 57.574C43.8953 56.6119 44.5141 55.5657 47.1104 52.1264C48.445 50.3586 49.5612 48.9276 49.5855 48.9516C49.6097 48.9757 49.173 50.3947 48.6149 52.1144ZM80.9724 70.7421C81.0209 70.8382 80.9967 70.9465 80.936 70.9826C80.8632 71.0307 80.8147 70.9465 80.8147 70.8142C80.8147 70.5136 80.8875 70.4895 80.9724 70.7421ZM44.7931 81.1683C44.9023 82.0461 44.9751 82.7917 44.963 82.8037C44.8295 82.948 44.1016 82.6234 43.7497 82.2746C42.949 81.4929 42.9732 80.4106 43.7982 79.8575C44.5505 79.3524 44.5747 79.4005 44.7931 81.1683ZM45.7516 79.7613C46.6737 80.2303 46.6979 81.9379 45.788 82.7436C45.5453 82.948 45.5332 82.9481 45.4725 82.6835C45.4361 82.5272 45.3391 81.9138 45.2663 81.3246C45.1935 80.7233 45.1086 80.098 45.0843 79.9056C45.0236 79.5208 45.2056 79.4847 45.7516 79.7613Z" fill="url(#paint47_linear_683_508)"/>
<path d="M76.3863 60.2918C74.894 60.5323 73.5473 61.0735 72.8072 61.7349C72.0307 62.4324 71.7152 63.3584 72.1399 63.7071C72.3947 63.9236 72.6859 63.659 72.6859 63.2141C72.6859 62.7571 73.2925 62.0836 74.0568 61.7108C75.1245 61.1697 76.3499 60.9292 77.8907 60.9532C79.0676 60.9773 79.2981 60.9532 79.4073 60.7849C79.4922 60.6406 79.4922 60.5444 79.3952 60.4482C79.2496 60.3039 77.0293 60.1956 76.3863 60.2918Z" fill="url(#paint48_linear_683_508)"/>
<path d="M60.0073 63.7552C58.515 64.1761 55.8944 65.4388 54.7175 66.3166C53.5771 67.1705 53.1039 67.9281 53.6013 68.1205C53.7348 68.1686 53.9047 68.0603 54.1594 67.7477C54.6811 67.0983 55.858 66.3166 57.4838 65.5109C60.4077 64.0799 62.0699 63.8875 63.8048 64.7533C64.3023 65.0058 64.4721 65.0419 64.5934 64.9217C64.824 64.6932 64.557 64.4046 63.7684 64.0077C63.1254 63.695 62.907 63.6469 61.8272 63.6229C61.0629 63.5988 60.3956 63.6469 60.0073 63.7552Z" fill="url(#paint49_linear_683_508)"/>
<path d="M79.6257 66.978C78.9099 67.7958 77.6359 68.0002 75.6341 67.6154C75.1124 67.5192 74.2752 67.435 73.7657 67.435C73.0013 67.435 72.7708 67.4831 72.4311 67.7116C71.9822 68.0122 71.8851 68.4331 72.237 68.4933C72.3583 68.5173 72.5645 68.4452 72.6859 68.3369C73.0498 68.0123 73.8385 67.9882 75.537 68.2768C77.3326 68.5895 78.3032 68.5534 79.1646 68.1445C79.7955 67.8559 80.475 67.1584 80.3779 66.9059C80.2444 66.5692 79.9654 66.5932 79.6257 66.978Z" fill="url(#paint50_linear_683_508)"/>
<path d="M71.1693 68.0362C71.0722 68.1925 71.1572 68.4691 71.6182 69.5274C72.0792 70.5736 72.9164 71.9806 73.1348 72.0528C73.4623 72.1851 73.4259 71.7642 73.0741 71.2591C72.6131 70.5856 71.9822 69.335 71.7153 68.5894C71.509 67.9881 71.327 67.7957 71.1693 68.0362Z" fill="url(#paint51_linear_683_508)"/>
<path d="M64.6177 69.6838C64.4236 69.7921 63.8412 70.2611 63.3438 70.718C61.6331 72.3054 60.0801 72.7023 58.0419 72.0649C57.4595 71.8845 56.7073 71.7282 56.3676 71.7162C55.7973 71.7041 55.7609 71.7162 55.7609 72.0048C55.7609 72.2814 55.8216 72.3174 56.4282 72.3776C56.7922 72.4257 57.3382 72.5459 57.6294 72.6542C58.5514 72.9909 59.6191 73.0991 60.5169 72.9668C61.718 72.7744 62.6522 72.2693 63.8048 71.2111C64.3629 70.706 65.0181 70.225 65.2607 70.1408C65.564 70.0326 65.7096 69.9123 65.7096 69.756C65.7096 69.4674 65.103 69.4193 64.6177 69.6838Z" fill="url(#paint52_linear_683_508)"/>
<path d="M75.1002 76.0573C75.0274 76.2497 74.8333 76.5384 74.6513 76.7308C74.4087 76.9833 74.3723 77.0915 74.4815 77.1998C74.5907 77.308 74.6877 77.32 74.8455 77.2238C75.1002 77.0675 75.5977 76.2257 75.5977 75.9371C75.5977 75.6124 75.2458 75.6966 75.1002 76.0573Z" fill="url(#paint53_linear_683_508)"/>
<path d="M67.7115 77.4643C67.7115 78.3182 67.7479 78.4985 67.8935 78.4985C68.0512 78.4985 68.0755 78.3302 68.0512 77.5124C68.0269 76.8631 67.9663 76.5143 67.8692 76.4782C67.7479 76.4422 67.7115 76.6947 67.7115 77.4643Z" fill="url(#paint54_linear_683_508)"/>
<path d="M70.138 77.4764C70.138 77.6087 70.2836 77.6568 70.7447 77.6568C71.2057 77.6568 71.3513 77.6087 71.3513 77.4764C71.3513 77.3441 71.2057 77.296 70.7447 77.296C70.2836 77.296 70.138 77.3441 70.138 77.4764Z" fill="url(#paint55_linear_683_508)"/>
<path d="M56.0643 78.3783C55.2999 78.5346 53.9289 79.2441 53.2616 79.8214C52.2061 80.7113 51.3326 82.3588 51.1384 83.7658L51.0656 84.355L49.8281 84.5114C46.7101 84.8962 43.3857 85.7981 41.3717 86.8083C40.2313 87.3735 39.2849 87.9868 37.2588 89.502C36.2761 90.2235 35.2812 90.8248 33.9223 91.4862C31.7021 92.5926 30.9256 93.1217 30.3796 93.9394C29.3362 95.4787 29.3484 96.9819 30.4524 100.59C31.2168 103.079 31.3624 104.017 31.3624 106.278C31.3624 109.14 30.9256 111.208 29.7609 113.914C29.1664 115.273 27.8803 117.534 27.3222 118.183L27.0068 118.544L25.8542 118.303C24.3134 117.967 21.8747 117.87 20.1398 118.063C16.0511 118.496 12.3749 120.083 9.1234 122.801C7.74029 123.955 5.59283 126.517 5.59283 127.01C5.59283 127.419 5.94467 127.166 6.50277 126.324C7.37631 125.062 9.79069 122.705 11.1738 121.803C13.3698 120.348 15.772 119.338 18.3563 118.772C20.1034 118.388 23.549 118.327 25.2961 118.652C26.0119 118.784 26.6428 118.917 26.6792 118.953C26.8855 119.169 23.913 122.14 22.2994 123.33C21.2317 124.124 19.4846 125.218 18.793 125.531C18.4291 125.687 18.332 126 18.6353 126C19.0842 126 21.074 124.821 22.6997 123.595C26.0483 121.069 28.9237 117.305 30.4646 113.433C31.0712 111.93 31.6414 109.513 31.7991 107.805C32.0297 105.352 31.7991 103.452 30.8892 100.505C30.1977 98.2566 30.0642 97.5111 30.1249 96.2844C30.2098 94.2762 30.8892 93.5065 33.8738 92.0394C36.0941 90.9451 36.0941 90.9451 38.1202 89.4298C39.5882 88.3355 40.6559 87.638 40.8743 87.638C40.935 87.638 41.032 87.7703 41.0684 87.9387C41.117 88.107 41.2019 88.2393 41.2747 88.2393C41.4688 88.2393 41.5416 87.8785 41.4081 87.5779C41.2868 87.3133 41.3232 87.2773 42.4515 86.8203C43.9317 86.219 45.242 85.8101 46.7829 85.4854C48.2873 85.1728 51.0171 84.7519 50.8837 84.8601C50.8351 84.9082 50.2406 85.1607 49.5733 85.4133C45.4725 86.9766 41.1533 89.3336 37.2952 92.1115C35.2448 93.5907 34.2257 94.4445 34.2257 94.685C34.2257 94.9857 34.4562 94.8654 35.4146 94.0958C39.4791 90.8248 44.3685 88.2393 49.4884 86.688C52.5337 85.762 54.6811 85.4854 55.676 85.8943C56.1128 86.0867 56.6709 86.5196 56.6709 86.676C56.6709 86.7241 56.1128 86.9045 55.4334 87.0848C53.8925 87.4937 51.2476 88.1912 50.3984 88.4317C49.452 88.6842 49.5612 88.9127 50.6531 88.9969C51.5995 89.0691 52.7278 89.4419 53.4558 89.9469C53.6863 90.0912 53.8804 90.2476 53.8804 90.2837C53.8804 90.3197 53.3223 90.5843 52.6429 90.8729C49.0638 92.4002 46.892 93.711 45.1935 95.3945C43.9438 96.6332 43.1188 97.8718 42.585 99.3029C42.1604 100.469 41.9784 101.828 42.2453 101.828C42.3423 101.828 44.7931 100.313 47.6928 98.4731C50.5925 96.6212 53.0069 95.142 53.0554 95.1781C53.116 95.2021 53.1524 95.5148 53.1524 95.8515C53.1524 96.7053 52.6065 97.8117 51.7936 98.6294C51.1627 99.2427 50.6774 99.5554 48.2266 100.902C46.152 102.057 45.4483 102.826 44.5383 104.991C43.9438 106.398 43.6163 106.939 43.046 107.444C42.6699 107.769 42.5001 107.829 41.6387 107.901C40.935 107.961 40.6559 108.033 40.6559 108.154C40.6559 108.563 41.5052 108.683 42.3545 108.382C42.6335 108.286 43.0096 108.202 43.1795 108.202H43.4828L43.41 109.428C43.3129 111.328 42.9611 112.17 40.5346 116.439C36.9434 122.729 35.3297 126.962 34.8323 131.351C34.6018 133.432 34.711 135.5 35.0628 135.5C35.2327 135.5 35.2569 135.32 35.2084 133.997C35.0749 128.982 36.725 123.979 40.9956 116.56C43.4343 112.303 43.8468 111.244 43.8589 109.248C43.871 108.094 43.8468 107.925 43.6405 107.769C43.5071 107.673 43.4464 107.601 43.5192 107.601C43.7376 107.601 44.4413 106.422 44.963 105.147C45.8608 102.995 46.4067 102.418 48.6998 101.155C51.5145 99.6155 52.1454 99.1345 52.9219 97.944C53.6377 96.8376 53.8319 95.3344 53.3466 94.661C53.1888 94.4686 52.8006 94.685 47.9354 97.7756C45.0479 99.6155 42.6578 101.083 42.6214 101.047C42.5243 100.95 42.9611 99.4833 43.3372 98.7016C44.7931 95.6351 47.5108 93.5185 52.8006 91.2938C53.6984 90.921 54.4749 90.5723 54.5356 90.5121C54.6084 90.452 54.5356 90.2837 54.3536 90.0912C54.1109 89.8147 54.0988 89.7786 54.2929 89.8507C54.7297 90.0071 56.8407 89.9349 57.5808 89.7425C59.3279 89.2976 60.8324 88.1672 61.6088 86.7361C62.446 85.1607 62.7614 82.9601 62.3247 81.6493C61.8758 80.3144 60.5897 79.0517 59.1581 78.5587C58.4544 78.3061 56.8529 78.222 56.0643 78.3783ZM59.5099 79.2081C60.4926 79.6891 61.4147 80.6511 61.7544 81.5651C62.4703 83.4411 61.6816 86.4475 60.1287 87.8665C58.1389 89.6583 54.851 90.0311 52.4245 88.7324C51.9149 88.4558 51.7451 88.5279 54.5477 87.8184C57.2533 87.145 57.3139 87.1209 57.2047 86.7601C56.9135 85.7861 55.8459 85.2329 54.2444 85.2329C53.1646 85.2329 50.4348 85.8582 48.2509 86.6158C47.5836 86.8443 47.0255 87.0127 47.0012 86.9886C46.9284 86.9285 50.4226 85.5335 52.0363 84.9804C53.1888 84.5955 53.5164 84.4392 53.4922 84.2829C53.4558 84.0784 53.0797 84.0664 52.012 84.2227L51.5388 84.2949L51.6116 83.6575C51.6601 83.2727 51.8907 82.6113 52.1818 82.0341C52.9462 80.4948 54.4385 79.2562 56.0279 78.8593C56.2826 78.7992 56.9985 78.7631 57.6051 78.7872C58.5757 78.8232 58.8426 78.8834 59.5099 79.2081Z" fill="url(#paint56_linear_683_508)"/>
<path d="M77.9029 80.3624C77.9029 80.8675 77.9393 81.0238 78.0848 81.0238C78.279 81.0238 78.2911 80.9998 78.2911 80.3624C78.2911 79.7251 78.279 79.701 78.0848 79.701C77.9393 79.701 77.9029 79.8574 77.9029 80.3624Z" fill="url(#paint57_linear_683_508)"/>
<path d="M75.6947 82.1663C74.9182 82.8638 74.3238 83.0081 73.0498 82.8398C71.9094 82.6834 71.4483 82.7676 70.138 83.3208C69.2402 83.6936 69.0582 83.7056 68.0512 83.4771C67.5174 83.3569 67.6144 83.7657 68.1604 83.9942C68.7306 84.2227 69.4586 84.1385 70.9266 83.6575C71.9458 83.3208 72.0914 83.2967 73.244 83.3689C74.348 83.441 74.5179 83.429 75.1002 83.1885C75.6462 82.948 76.5683 82.1182 76.5683 81.8537C76.5683 81.5891 76.1922 81.7214 75.6947 82.1663Z" fill="url(#paint58_linear_683_508)"/>
<path d="M65.6975 82.6354C65.6611 82.7316 65.649 83.0082 65.6732 83.2608C65.6975 83.5854 65.7703 83.7418 65.928 83.7658C66.0979 83.8019 66.1343 83.7057 66.1343 83.1405C66.1343 82.6114 66.0979 82.4671 65.9523 82.4671C65.8431 82.4671 65.7339 82.5392 65.6975 82.6354Z" fill="url(#paint59_linear_683_508)"/>
<path d="M75.6219 85.0044C75.1245 85.6177 74.3237 85.9905 73.3046 86.0867C71.8972 86.231 71.5818 86.3152 71.6182 86.5437C71.691 86.9285 74.2631 86.7602 75.1366 86.3032C75.4521 86.1348 76.362 84.8962 76.265 84.7519C76.1315 84.5474 75.9131 84.6316 75.6219 85.0044Z" fill="url(#paint60_linear_683_508)"/>
<path d="M43.0096 90.1032C42.9247 90.3197 43.2887 90.6564 43.5556 90.6083C43.8832 90.5602 43.8225 90.2956 43.4464 90.1032C43.1067 89.9349 43.0703 89.9349 43.0096 90.1032Z" fill="url(#paint61_linear_683_508)"/>
<path d="M49.1487 90.1754C48.7119 90.3077 47.8263 90.4641 47.1832 90.5482C46.3582 90.6324 45.9942 90.7286 45.9942 90.8369C45.9942 90.921 46.0306 91.0172 46.0913 91.0413C46.2733 91.1495 48.3601 90.8849 49.2458 90.6444C50.1314 90.4039 50.4226 90.2356 50.2892 90.0191C50.2042 89.8868 50.0829 89.9109 49.1487 90.1754Z" fill="url(#paint62_linear_683_508)"/>
<path d="M43.131 92.2318C42.7427 92.6527 41.8206 93.7952 41.0806 94.7933C39.6368 96.7174 38.2779 98.1003 37.3437 98.5814C36.7856 98.87 36.6764 99.0864 37.0404 99.1586C37.3559 99.2187 39.0302 98.0041 39.7217 97.2225C40.0857 96.8136 40.9592 95.7072 41.6629 94.7692C42.3787 93.8312 43.2523 92.761 43.6284 92.4002C43.9924 92.0274 44.2957 91.6786 44.2957 91.6065C44.2957 91.2818 43.7619 91.5584 43.131 92.2318Z" fill="url(#paint63_linear_683_508)"/>
<path d="M45.2906 91.9913C45.1935 92.0875 45.242 92.2799 45.4604 92.7008C45.7637 93.3021 45.9457 93.4223 46.067 93.1217C46.1277 92.9533 45.7273 92.0394 45.5332 91.9191C45.4725 91.883 45.3633 91.9191 45.2906 91.9913Z" fill="url(#paint64_linear_683_508)"/>
<path d="M66.8865 98.2447C65.285 103.584 65.1394 104.173 65.1273 105.737C65.1152 107.757 65.7218 109.416 67.1049 111.136C69.0704 113.589 71.9215 115.093 75.9131 115.79C77.2477 116.019 77.9271 116.067 80.6327 116.067C82.6224 116.079 83.8114 116.031 83.8478 115.958C83.8842 115.886 83.4596 115.826 82.6952 115.814C80.3536 115.754 77.1021 115.537 76.0223 115.357C70.9752 114.539 67.2505 111.87 65.928 108.142C65.6368 107.3 65.6005 106.999 65.6005 105.797C65.6005 104.149 65.746 103.536 67.4082 98.0402C68.7064 93.7471 68.6821 93.8553 68.4273 93.7952C68.2696 93.7711 67.9784 94.6129 66.8865 98.2447Z" fill="url(#paint65_linear_683_508)"/>
<path d="M30.6587 97.487C30.598 97.5712 31.3017 98.9782 31.4958 99.1706C31.5201 99.1946 31.6293 99.1826 31.7385 99.1345C31.9083 99.0744 31.8719 98.9421 31.4716 98.2206C31.0348 97.4269 30.8164 97.2345 30.6587 97.487Z" fill="url(#paint66_linear_683_508)"/>
<path d="M34.8565 101.528C34.4319 101.708 34.2378 102.009 34.4319 102.201C34.5047 102.273 34.6624 102.225 34.8565 102.069C35.354 101.684 35.8878 101.756 36.361 102.249C36.5794 102.49 36.7978 102.862 36.8463 103.091C36.9312 103.56 37.0889 103.728 37.2831 103.536C37.465 103.356 37.0768 102.285 36.6764 101.912C36.0819 101.359 35.536 101.239 34.8565 101.528Z" fill="url(#paint67_linear_683_508)"/>
<path d="M60.614 121.695C59.6676 122.043 58.8184 122.861 58.7092 123.535C58.6485 123.883 59.061 123.919 59.1702 123.571C59.3279 123.053 59.7526 122.621 60.432 122.296C61.3783 121.839 62.5188 121.863 64.0111 122.368C64.7269 122.609 65.1394 122.693 65.2243 122.609C65.4063 122.44 64.9938 122.188 64.0718 121.887C63.1497 121.598 61.1721 121.478 60.614 121.695Z" fill="url(#paint68_linear_683_508)"/>
</g>
<defs>
<linearGradient id="paint0_linear_683_508" x1="59.0656" y1="122.699" x2="65.2664" y2="122.699" gradientUnits="userSpaceOnUse">
<stop stop-color="#FECF24"/>
<stop offset="1" stop-color="#FE9724"/>
</linearGradient>
<linearGradient id="paint1_linear_683_508" x1="59.0656" y1="122.699" x2="65.2664" y2="122.699" gradientUnits="userSpaceOnUse">
<stop stop-color="#FECF24"/>
<stop offset="1" stop-color="#FE9724"/>
</linearGradient>
<linearGradient id="paint2_linear_683_508" x1="59.0656" y1="122.699" x2="65.2664" y2="122.699" gradientUnits="userSpaceOnUse">
<stop stop-color="#FECF24"/>
<stop offset="1" stop-color="#FE9724"/>
</linearGradient>
<linearGradient id="paint3_linear_683_508" x1="59.0656" y1="122.699" x2="65.2664" y2="122.699" gradientUnits="userSpaceOnUse">
<stop stop-color="#FECF24"/>
<stop offset="1" stop-color="#FE9724"/>
</linearGradient>
<linearGradient id="paint4_linear_683_508" x1="59.0656" y1="122.699" x2="65.2664" y2="122.699" gradientUnits="userSpaceOnUse">
<stop stop-color="#FECF24"/>
<stop offset="1" stop-color="#FE9724"/>
</linearGradient>
<linearGradient id="paint5_linear_683_508" x1="59.0656" y1="122.699" x2="65.2664" y2="122.699" gradientUnits="userSpaceOnUse">
<stop stop-color="#FECF24"/>
<stop offset="1" stop-color="#FE9724"/>
</linearGradient>
<linearGradient id="paint6_linear_683_508" x1="59.0656" y1="122.699" x2="65.2664" y2="122.699" gradientUnits="userSpaceOnUse">
<stop stop-color="#FECF24"/>
<stop offset="1" stop-color="#FE9724"/>
</linearGradient>
<linearGradient id="paint7_linear_683_508" x1="59.0656" y1="122.699" x2="65.2664" y2="122.699" gradientUnits="userSpaceOnUse">
<stop stop-color="#FECF24"/>
<stop offset="1" stop-color="#FE9724"/>
</linearGradient>
<linearGradient id="paint8_linear_683_508" x1="59.0656" y1="122.699" x2="65.2664" y2="122.699" gradientUnits="userSpaceOnUse">
<stop stop-color="#FECF24"/>
<stop offset="1" stop-color="#FE9724"/>
</linearGradient>
<linearGradient id="paint9_linear_683_508" x1="59.0656" y1="122.699" x2="65.2664" y2="122.699" gradientUnits="userSpaceOnUse">
<stop stop-color="#FECF24"/>
<stop offset="1" stop-color="#FE9724"/>
</linearGradient>
<linearGradient id="paint10_linear_683_508" x1="59.0656" y1="122.699" x2="65.2664" y2="122.699" gradientUnits="userSpaceOnUse">
<stop stop-color="#FECF24"/>
<stop offset="1" stop-color="#FE9724"/>
</linearGradient>
<linearGradient id="paint11_linear_683_508" x1="59.0656" y1="122.699" x2="65.2664" y2="122.699" gradientUnits="userSpaceOnUse">
<stop stop-color="#FECF24"/>
<stop offset="1" stop-color="#FE9724"/>
</linearGradient>
<linearGradient id="paint12_linear_683_508" x1="59.0656" y1="122.699" x2="65.2664" y2="122.699" gradientUnits="userSpaceOnUse">
<stop stop-color="#FECF24"/>
<stop offset="1" stop-color="#FE9724"/>
</linearGradient>
<linearGradient id="paint13_linear_683_508" x1="59.0656" y1="122.699" x2="65.2664" y2="122.699" gradientUnits="userSpaceOnUse">
<stop stop-color="#FECF24"/>
<stop offset="1" stop-color="#FE9724"/>
</linearGradient>
<linearGradient id="paint14_linear_683_508" x1="59.0656" y1="122.699" x2="65.2664" y2="122.699" gradientUnits="userSpaceOnUse">
<stop stop-color="#FECF24"/>
<stop offset="1" stop-color="#FE9724"/>
</linearGradient>
<linearGradient id="paint15_linear_683_508" x1="59.0656" y1="122.699" x2="65.2664" y2="122.699" gradientUnits="userSpaceOnUse">
<stop stop-color="#FECF24"/>
<stop offset="1" stop-color="#FE9724"/>
</linearGradient>
<linearGradient id="paint16_linear_683_508" x1="59.0656" y1="122.699" x2="65.2664" y2="122.699" gradientUnits="userSpaceOnUse">
<stop stop-color="#FECF24"/>
<stop offset="1" stop-color="#FE9724"/>
</linearGradient>
<linearGradient id="paint17_linear_683_508" x1="59.0656" y1="122.699" x2="65.2664" y2="122.699" gradientUnits="userSpaceOnUse">
<stop stop-color="#FECF24"/>
<stop offset="1" stop-color="#FE9724"/>
</linearGradient>
<linearGradient id="paint18_linear_683_508" x1="59.0656" y1="122.699" x2="65.2664" y2="122.699" gradientUnits="userSpaceOnUse">
<stop stop-color="#FECF24"/>
<stop offset="1" stop-color="#FE9724"/>
</linearGradient>
<linearGradient id="paint19_linear_683_508" x1="59.0656" y1="122.699" x2="65.2664" y2="122.699" gradientUnits="userSpaceOnUse">
<stop stop-color="#FECF24"/>
<stop offset="1" stop-color="#FE9724"/>
</linearGradient>
<linearGradient id="paint20_linear_683_508" x1="59.0656" y1="122.699" x2="65.2664" y2="122.699" gradientUnits="userSpaceOnUse">
<stop stop-color="#FECF24"/>
<stop offset="1" stop-color="#FE9724"/>
</linearGradient>
<linearGradient id="paint21_linear_683_508" x1="59.0656" y1="122.699" x2="65.2664" y2="122.699" gradientUnits="userSpaceOnUse">
<stop stop-color="#FECF24"/>
<stop offset="1" stop-color="#FE9724"/>
</linearGradient>
<linearGradient id="paint22_linear_683_508" x1="59.0656" y1="122.699" x2="65.2664" y2="122.699" gradientUnits="userSpaceOnUse">
<stop stop-color="#FECF24"/>
<stop offset="1" stop-color="#FE9724"/>
</linearGradient>
<linearGradient id="paint23_linear_683_508" x1="59.0656" y1="122.699" x2="65.2664" y2="122.699" gradientUnits="userSpaceOnUse">
<stop stop-color="#FECF24"/>
<stop offset="1" stop-color="#FE9724"/>
</linearGradient>
<linearGradient id="paint24_linear_683_508" x1="59.0656" y1="122.699" x2="65.2664" y2="122.699" gradientUnits="userSpaceOnUse">
<stop stop-color="#FECF24"/>
<stop offset="1" stop-color="#FE9724"/>
</linearGradient>
<linearGradient id="paint25_linear_683_508" x1="59.0656" y1="122.699" x2="65.2664" y2="122.699" gradientUnits="userSpaceOnUse">
<stop stop-color="#FECF24"/>
<stop offset="1" stop-color="#FE9724"/>
</linearGradient>
<linearGradient id="paint26_linear_683_508" x1="59.0656" y1="122.699" x2="65.2664" y2="122.699" gradientUnits="userSpaceOnUse">
<stop stop-color="#FECF24"/>
<stop offset="1" stop-color="#FE9724"/>
</linearGradient>
<linearGradient id="paint27_linear_683_508" x1="59.0656" y1="122.699" x2="65.2664" y2="122.699" gradientUnits="userSpaceOnUse">
<stop stop-color="#FECF24"/>
<stop offset="1" stop-color="#FE9724"/>
</linearGradient>
<linearGradient id="paint28_linear_683_508" x1="59.0656" y1="122.699" x2="65.2664" y2="122.699" gradientUnits="userSpaceOnUse">
<stop stop-color="#FECF24"/>
<stop offset="1" stop-color="#FE9724"/>
</linearGradient>
<linearGradient id="paint29_linear_683_508" x1="59.0656" y1="122.699" x2="65.2664" y2="122.699" gradientUnits="userSpaceOnUse">
<stop stop-color="#FECF24"/>
<stop offset="1" stop-color="#FE9724"/>
</linearGradient>
<linearGradient id="paint30_linear_683_508" x1="59.0656" y1="122.699" x2="65.2664" y2="122.699" gradientUnits="userSpaceOnUse">
<stop stop-color="#FECF24"/>
<stop offset="1" stop-color="#FE9724"/>
</linearGradient>
<linearGradient id="paint31_linear_683_508" x1="59.0656" y1="122.699" x2="65.2664" y2="122.699" gradientUnits="userSpaceOnUse">
<stop stop-color="#FECF24"/>
<stop offset="1" stop-color="#FE9724"/>
</linearGradient>
<linearGradient id="paint32_linear_683_508" x1="59.0656" y1="122.699" x2="65.2664" y2="122.699" gradientUnits="userSpaceOnUse">
<stop stop-color="#FECF24"/>
<stop offset="1" stop-color="#FE9724"/>
</linearGradient>
<linearGradient id="paint33_linear_683_508" x1="59.0656" y1="122.699" x2="65.2664" y2="122.699" gradientUnits="userSpaceOnUse">
<stop stop-color="#FECF24"/>
<stop offset="1" stop-color="#FE9724"/>
</linearGradient>
<linearGradient id="paint34_linear_683_508" x1="59.0656" y1="122.699" x2="65.2664" y2="122.699" gradientUnits="userSpaceOnUse">
<stop stop-color="#FECF24"/>
<stop offset="1" stop-color="#FE9724"/>
</linearGradient>
<linearGradient id="paint35_linear_683_508" x1="59.0656" y1="122.699" x2="65.2664" y2="122.699" gradientUnits="userSpaceOnUse">
<stop stop-color="#FECF24"/>
<stop offset="1" stop-color="#FE9724"/>
</linearGradient>
<linearGradient id="paint36_linear_683_508" x1="59.0656" y1="122.699" x2="65.2664" y2="122.699" gradientUnits="userSpaceOnUse">
<stop stop-color="#FECF24"/>
<stop offset="1" stop-color="#FE9724"/>
</linearGradient>
<linearGradient id="paint37_linear_683_508" x1="59.0656" y1="122.699" x2="65.2664" y2="122.699" gradientUnits="userSpaceOnUse">
<stop stop-color="#FECF24"/>
<stop offset="1" stop-color="#FE9724"/>
</linearGradient>
<linearGradient id="paint38_linear_683_508" x1="59.0656" y1="122.699" x2="65.2664" y2="122.699" gradientUnits="userSpaceOnUse">
<stop stop-color="#FECF24"/>
<stop offset="1" stop-color="#FE9724"/>
</linearGradient>
<linearGradient id="paint39_linear_683_508" x1="59.0656" y1="122.699" x2="65.2664" y2="122.699" gradientUnits="userSpaceOnUse">
<stop stop-color="#FECF24"/>
<stop offset="1" stop-color="#FE9724"/>
</linearGradient>
<linearGradient id="paint40_linear_683_508" x1="59.0656" y1="122.699" x2="65.2664" y2="122.699" gradientUnits="userSpaceOnUse">
<stop stop-color="#FECF24"/>
<stop offset="1" stop-color="#FE9724"/>
</linearGradient>
<linearGradient id="paint41_linear_683_508" x1="59.0656" y1="122.699" x2="65.2664" y2="122.699" gradientUnits="userSpaceOnUse">
<stop stop-color="#FECF24"/>
<stop offset="1" stop-color="#FE9724"/>
</linearGradient>
<linearGradient id="paint42_linear_683_508" x1="59.0656" y1="122.699" x2="65.2664" y2="122.699" gradientUnits="userSpaceOnUse">
<stop stop-color="#FECF24"/>
<stop offset="1" stop-color="#FE9724"/>
</linearGradient>
<linearGradient id="paint43_linear_683_508" x1="59.0656" y1="122.699" x2="65.2664" y2="122.699" gradientUnits="userSpaceOnUse">
<stop stop-color="#FECF24"/>
<stop offset="1" stop-color="#FE9724"/>
</linearGradient>
<linearGradient id="paint44_linear_683_508" x1="59.0656" y1="122.699" x2="65.2664" y2="122.699" gradientUnits="userSpaceOnUse">
<stop stop-color="#FECF24"/>
<stop offset="1" stop-color="#FE9724"/>
</linearGradient>
<linearGradient id="paint45_linear_683_508" x1="59.0656" y1="122.699" x2="65.2664" y2="122.699" gradientUnits="userSpaceOnUse">
<stop stop-color="#FECF24"/>
<stop offset="1" stop-color="#FE9724"/>
</linearGradient>
<linearGradient id="paint46_linear_683_508" x1="59.0656" y1="122.699" x2="65.2664" y2="122.699" gradientUnits="userSpaceOnUse">
<stop stop-color="#FECF24"/>
<stop offset="1" stop-color="#FE9724"/>
</linearGradient>
<linearGradient id="paint47_linear_683_508" x1="59.0656" y1="122.699" x2="65.2664" y2="122.699" gradientUnits="userSpaceOnUse">
<stop stop-color="#FECF24"/>
<stop offset="1" stop-color="#FE9724"/>
</linearGradient>
<linearGradient id="paint48_linear_683_508" x1="59.0656" y1="122.699" x2="65.2664" y2="122.699" gradientUnits="userSpaceOnUse">
<stop stop-color="#FECF24"/>
<stop offset="1" stop-color="#FE9724"/>
</linearGradient>
<linearGradient id="paint49_linear_683_508" x1="59.0656" y1="122.699" x2="65.2664" y2="122.699" gradientUnits="userSpaceOnUse">
<stop stop-color="#FECF24"/>
<stop offset="1" stop-color="#FE9724"/>
</linearGradient>
<linearGradient id="paint50_linear_683_508" x1="59.0656" y1="122.699" x2="65.2664" y2="122.699" gradientUnits="userSpaceOnUse">
<stop stop-color="#FECF24"/>
<stop offset="1" stop-color="#FE9724"/>
</linearGradient>
<linearGradient id="paint51_linear_683_508" x1="59.0656" y1="122.699" x2="65.2664" y2="122.699" gradientUnits="userSpaceOnUse">
<stop stop-color="#FECF24"/>
<stop offset="1" stop-color="#FE9724"/>
</linearGradient>
<linearGradient id="paint52_linear_683_508" x1="59.0656" y1="122.699" x2="65.2664" y2="122.699" gradientUnits="userSpaceOnUse">
<stop stop-color="#FECF24"/>
<stop offset="1" stop-color="#FE9724"/>
</linearGradient>
<linearGradient id="paint53_linear_683_508" x1="59.0656" y1="122.699" x2="65.2664" y2="122.699" gradientUnits="userSpaceOnUse">
<stop stop-color="#FECF24"/>
<stop offset="1" stop-color="#FE9724"/>
</linearGradient>
<linearGradient id="paint54_linear_683_508" x1="59.0656" y1="122.699" x2="65.2664" y2="122.699" gradientUnits="userSpaceOnUse">
<stop stop-color="#FECF24"/>
<stop offset="1" stop-color="#FE9724"/>
</linearGradient>
<linearGradient id="paint55_linear_683_508" x1="59.0656" y1="122.699" x2="65.2664" y2="122.699" gradientUnits="userSpaceOnUse">
<stop stop-color="#FECF24"/>
<stop offset="1" stop-color="#FE9724"/>
</linearGradient>
<linearGradient id="paint56_linear_683_508" x1="59.0656" y1="122.699" x2="65.2664" y2="122.699" gradientUnits="userSpaceOnUse">
<stop stop-color="#FECF24"/>
<stop offset="1" stop-color="#FE9724"/>
</linearGradient>
<linearGradient id="paint57_linear_683_508" x1="59.0656" y1="122.699" x2="65.2664" y2="122.699" gradientUnits="userSpaceOnUse">
<stop stop-color="#FECF24"/>
<stop offset="1" stop-color="#FE9724"/>
</linearGradient>
<linearGradient id="paint58_linear_683_508" x1="59.0656" y1="122.699" x2="65.2664" y2="122.699" gradientUnits="userSpaceOnUse">
<stop stop-color="#FECF24"/>
<stop offset="1" stop-color="#FE9724"/>
</linearGradient>
<linearGradient id="paint59_linear_683_508" x1="59.0656" y1="122.699" x2="65.2664" y2="122.699" gradientUnits="userSpaceOnUse">
<stop stop-color="#FECF24"/>
<stop offset="1" stop-color="#FE9724"/>
</linearGradient>
<linearGradient id="paint60_linear_683_508" x1="59.0656" y1="122.699" x2="65.2664" y2="122.699" gradientUnits="userSpaceOnUse">
<stop stop-color="#FECF24"/>
<stop offset="1" stop-color="#FE9724"/>
</linearGradient>
<linearGradient id="paint61_linear_683_508" x1="59.0656" y1="122.699" x2="65.2664" y2="122.699" gradientUnits="userSpaceOnUse">
<stop stop-color="#FECF24"/>
<stop offset="1" stop-color="#FE9724"/>
</linearGradient>
<linearGradient id="paint62_linear_683_508" x1="59.0656" y1="122.699" x2="65.2664" y2="122.699" gradientUnits="userSpaceOnUse">
<stop stop-color="#FECF24"/>
<stop offset="1" stop-color="#FE9724"/>
</linearGradient>
<linearGradient id="paint63_linear_683_508" x1="59.0656" y1="122.699" x2="65.2664" y2="122.699" gradientUnits="userSpaceOnUse">
<stop stop-color="#FECF24"/>
<stop offset="1" stop-color="#FE9724"/>
</linearGradient>
<linearGradient id="paint64_linear_683_508" x1="59.0656" y1="122.699" x2="65.2664" y2="122.699" gradientUnits="userSpaceOnUse">
<stop stop-color="#FECF24"/>
<stop offset="1" stop-color="#FE9724"/>
</linearGradient>
<linearGradient id="paint65_linear_683_508" x1="59.0656" y1="122.699" x2="65.2664" y2="122.699" gradientUnits="userSpaceOnUse">
<stop stop-color="#FECF24"/>
<stop offset="1" stop-color="#FE9724"/>
</linearGradient>
<linearGradient id="paint66_linear_683_508" x1="59.0656" y1="122.699" x2="65.2664" y2="122.699" gradientUnits="userSpaceOnUse">
<stop stop-color="#FECF24"/>
<stop offset="1" stop-color="#FE9724"/>
</linearGradient>
<linearGradient id="paint67_linear_683_508" x1="59.0656" y1="122.699" x2="65.2664" y2="122.699" gradientUnits="userSpaceOnUse">
<stop stop-color="#FECF24"/>
<stop offset="1" stop-color="#FE9724"/>
</linearGradient>
<linearGradient id="paint68_linear_683_508" x1="59.0656" y1="122.699" x2="65.2664" y2="122.699" gradientUnits="userSpaceOnUse">
<stop stop-color="#FECF24"/>
<stop offset="1" stop-color="#FE9724"/>
</linearGradient>
</defs>
</svg>
