<svg width="18" height="18" viewBox="0 0 18 18" fill="none" xmlns="http://www.w3.org/2000/svg">
<path d="M5 4.99999V3C5 2.46956 5.21071 1.96086 5.58579 1.58578C5.96086 1.21071 6.46957 1 7 1H11C11.5304 1 12.0391 1.21071 12.4142 1.58578C12.7893 1.96086 13 2.46956 13 3V4.99999M1 11L4.15 11.787C7.33435 12.5829 10.6657 12.5829 13.85 11.787L17 11" stroke="currentColor" stroke-width="1.5" stroke-linecap="round"/>
<path d="M1 6.99999C1 6.46956 1.21071 5.96086 1.58579 5.58579C1.96086 5.21071 2.46957 5 3 5H15C15.5304 5 16.0391 5.21071 16.4142 5.58579C16.7893 5.96086 17 6.46956 17 6.99999V15C17 15.5304 16.7893 16.0391 16.4142 16.4142C16.0391 16.7893 15.5304 17 15 17H3C2.46957 17 1.96086 16.7893 1.58579 16.4142C1.21071 16.0391 1 15.5304 1 15V6.99999Z" stroke="currentColor" stroke-width="1.5" stroke-linejoin="round"/>
<path d="M9 10C9.55228 10 10 9.55228 10 9C10 8.44771 9.55228 8 9 8C8.44772 8 8 8.44771 8 9C8 9.55228 8.44772 10 9 10Z" fill="#8A8A8A"/>
</svg>
