<svg width="18" height="17" viewBox="0 0 18 17" fill="none" xmlns="http://www.w3.org/2000/svg">
<path d="M1 16V14.3333C1 13.4493 1.35119 12.6014 1.97631 11.9763C2.60143 11.3512 3.44928 11 4.33333 11H5.66667H7M14 11H11H10M14 11V9.5C14 8.94772 13.5523 8.5 13 8.5H11C10.4477 8.5 10 8.94772 10 9.5V11M14 11H15.5C16.0523 11 16.5 11.4477 16.5 12V15C16.5 15.5523 16.0523 16 15.5 16H8C7.44772 16 7 15.5523 7 15V11M10 11H7M11 4.33333C11 6.17428 9.50762 7.66667 7.66667 7.66667C5.82572 7.66667 4.33333 6.17428 4.33333 4.33333C4.33333 2.49238 5.82572 1 7.66667 1C9.50762 1 11 2.49238 11 4.33333Z" stroke="currentColor" stroke-width="1.5" stroke-linecap="round" stroke-linejoin="round"/>
</svg>
