<svg width="360" height="458" viewBox="0 0 360 458" fill="none" xmlns="http://www.w3.org/2000/svg">
<path d="M10.9809 64.6199C10.6114 58.5385 15.5647 52.5696 21.676 51.7319L321.691 10.6079C327.061 9.87191 331.418 13.3978 331.743 18.7409L354.02 385.386C354.389 391.468 349.436 397.437 343.325 398.274L43.3092 439.398C37.9398 440.134 33.5821 436.608 33.2575 431.265L10.9809 64.6199Z" stroke="#FFE600" stroke-width="3"/>
<path d="M15.2655 80.1397C15.2344 74.226 20.0906 68.6976 25.9774 67.9452L334.195 28.5483C339.803 27.8315 344.273 31.7303 344.303 37.3642L346.208 400.026C346.239 405.94 341.383 411.469 335.496 412.221L27.2784 451.618C21.6702 452.335 17.1998 448.436 17.1702 442.802L15.2655 80.1397Z" stroke="#2D2D2D" stroke-width="3"/>
</svg>
