<svg width="760" height="616" viewBox="0 0 760 616" fill="none" xmlns="http://www.w3.org/2000/svg">
<path d="M11.0559 139.487C10.7694 129.083 19.1326 119.78 29.5327 118.934L720.213 62.7482C730.181 61.9373 738.326 69.2219 738.6 79.1945L749.56 477.267C749.847 487.672 741.484 496.975 731.083 497.821L40.4034 554.006C30.4349 554.817 22.2905 547.533 22.016 537.56L11.0559 139.487Z" stroke="#2D2D2D" stroke-width="3"/>
<path d="M3.14562 200.138C2.28933 189.793 9.97076 179.186 20.112 176.708L705.417 9.27825C715.128 6.90577 723.498 12.8926 724.318 22.798L756.854 415.861C757.711 426.205 750.029 436.813 739.888 439.29L54.5829 606.72C44.872 609.092 36.5025 603.106 35.6826 593.2L3.14562 200.138Z" stroke="#FFE600" stroke-width="3"/>
</svg>
