<svg width="74" height="140" viewBox="0 0 74 140" fill="none" xmlns="http://www.w3.org/2000/svg">
<g id="Vector">
<path d="M0.774738 0.672403C0.692833 0.800323 0.81569 1.00134 1.12283 1.16581C4.84948 3.35872 7.98233 5.69783 11.4428 8.89583C16.2137 13.2634 17.7904 16.1325 17.0942 19.1112C16.7666 20.4817 15.8042 21.8706 13.388 24.4473C11.1561 26.8412 9.96851 28.6869 9.25185 30.8981C8.63757 32.8169 8.57614 37.1479 9.16995 39.0119C10.0299 41.753 11.8523 44.3845 13.9204 45.8282C14.9237 46.5226 15.0875 46.7236 15.4766 47.8749C17.9747 55.3126 17.7699 64.0294 14.9442 71.6315C13.8385 74.592 12.7328 76.7118 10.419 80.3118C6.87662 85.8124 5.72996 88.2611 5.07472 91.6419C4.52187 94.5109 4.72663 96.5028 6.58995 105.804C6.77424 106.81 6.91757 108.527 6.91757 110.19C6.91757 113.918 6.58995 114.978 4.43996 118.085C3.2933 119.748 2.94521 120.753 2.94521 122.507C2.94521 124.243 4.86996 136.597 5.32044 137.638C5.70948 138.589 6.85614 139.521 7.63424 139.521C8.45328 139.521 9.04709 138.863 9.39518 137.492C9.70232 136.323 12.0571 126.125 15.4561 111.287C17.8723 100.669 18.9371 95.1505 19.5104 90.052C19.6742 88.718 19.797 88.2977 20.1451 87.987C21.3328 86.9271 21.7832 84.4418 21.7628 79.3067C21.7423 76.7118 21.6194 76.0174 21.1689 76.0174C20.9028 76.0174 20.8618 76.6935 20.8209 80.2753C20.7799 83.455 20.698 84.8256 20.4523 85.6662C20.0018 87.2378 19.8175 87.2926 19.8994 85.8124C20.0428 83.7474 19.2647 82.5047 17.8518 82.5047C16.8894 82.5047 16.5004 82.8154 16.1523 83.8205C15.5585 85.6114 15.8452 87.0916 16.9918 87.9687C17.4013 88.2977 17.9337 88.5352 18.2409 88.5352H18.7732L18.6299 90.0886C18.2613 94.5109 16.9099 101.327 13.3675 116.586C9.76375 132.101 9.55899 132.978 8.96518 135.683C8.37138 138.278 8.02328 138.918 7.30662 138.716C7.08138 138.643 6.65138 138.205 6.34424 137.711C5.89377 136.962 5.72996 136.231 5.29996 133.362C5.03377 131.48 4.56282 128.501 4.27615 126.765C3.45711 121.667 3.55949 120.936 5.50472 118.03C6.13948 117.08 6.83567 115.855 7.04043 115.325C8.14614 112.42 8.10519 109.076 6.83567 102.698C5.81186 97.4531 5.56615 95.0775 5.81186 92.7749C6.18043 89.3576 7.28614 86.7992 10.8285 81.2073C14.1661 75.9808 15.579 73.0204 16.7666 68.8721C17.729 65.4183 17.9747 63.536 17.9747 59.1136C17.9952 54.7278 17.7699 52.8638 16.7461 49.1724C16.4799 48.1856 16.2547 47.3267 16.2547 47.2902C16.2547 47.2536 16.5209 47.345 16.8485 47.5094C18.4661 48.2587 21.0461 48.7338 23.9332 48.8252C28.3151 48.9714 30.0761 48.6973 43.9793 45.7003C47.4808 44.9328 50.3474 44.348 50.3884 44.3663C50.4703 44.4576 42.8532 53.1196 41.7679 54.143C40.867 55.0019 39.6794 55.5136 38.8603 55.4039C38.5122 55.3491 37.6113 54.9836 36.9151 54.5816C35.1951 53.6313 34.5399 53.5034 33.3727 53.9603C32.2261 54.4171 31.6118 55.2395 30.6903 57.542C29.7894 59.7898 29.0318 61.1238 27.8442 62.5126C26.5746 64.0294 25.6327 64.7604 22.9299 66.332C20.1247 67.9401 19.5309 68.5249 19.5309 69.6213C19.5309 70.6447 20.1656 71.3574 21.5989 71.9056C23.8104 72.7463 25.9604 72.5635 28.8065 71.3209C30.3218 70.6447 30.8542 70.2427 34.1303 67.3188C36.137 65.5279 38.1641 63.8284 38.6351 63.536C39.9046 62.7502 41.6655 62.001 44.307 61.1238C52.1903 58.5106 58.886 54.0151 68.0797 45.1703C71.3559 42.0089 72.2364 40.6383 72.2569 38.5733C72.2569 37.5134 72.1545 37.0931 71.6835 36.2159C70.5164 34.1144 67.9364 32.488 64.5783 31.7204C62.8378 31.3367 59.7869 30.8615 49.5284 29.4179C45.597 28.8514 39.6384 27.9925 36.3213 27.4991C25.5508 25.9092 22.6432 25.7447 19.0599 26.5671C15.579 27.3712 12.6509 29.3631 11.3404 31.7753C10.1323 34.0778 10.2961 36.5083 11.8933 39.816C13.9614 44.1104 14.3709 45.0424 14.2071 45.0424C13.818 45.0424 11.9137 42.7033 11.1357 41.2962C9.88661 39.0667 9.59994 37.8606 9.59994 34.9915C9.59994 32.9265 9.68185 32.3052 10.0914 31.1539C10.9718 28.6321 11.8728 27.2798 14.6985 24.2097C16.9509 21.7975 17.9132 20.1163 18.0361 18.4167C18.3023 15.1091 16.2547 11.9659 10.6647 7.10496C7.94138 4.7293 5.77091 3.12116 2.96568 1.3851C1.38902 0.416563 1.02045 0.306917 0.774738 0.672403ZM31.407 27.6087C35.2156 28.1387 49.385 30.1671 59.4798 31.6108C64.7626 32.3783 67.1583 33.0727 69.0831 34.4433C70.1478 35.1926 71.0897 36.5814 71.3764 37.751C71.6631 39.0119 71.2535 40.3459 70.1273 41.8627C69.124 43.215 62.7764 49.0628 59.5617 51.6212C53.685 56.2994 49.7741 58.4923 43.3036 60.6669C38.717 62.2203 37.9798 62.6954 33.086 67.2091C29.8099 70.2061 27.7008 71.3757 24.9775 71.6498C22.848 71.8691 20.3499 70.8275 20.3499 69.6944C20.3499 68.9269 21.2713 68.1229 23.4418 66.9716C27.0251 65.071 29.6256 62.2751 31.0999 58.7299C32.1237 56.2628 32.7175 55.1846 33.2908 54.8374C34.0894 54.344 35.0927 54.4719 36.6079 55.2943C38.3894 56.2446 39.1879 56.3542 40.5803 55.8242C41.9113 55.3126 42.2389 54.9836 47.5627 48.9348L51.9241 43.9825L54.2174 43.4891C58.026 42.6485 59.8074 41.9541 61.1793 40.7297C61.855 40.1266 62.5307 38.9936 62.5307 38.5002C62.5307 37.7144 59.5821 37.8789 57.4526 38.7743C56.0807 39.3591 53.685 41.0403 52.4565 42.3013L51.4941 43.2698L42.3208 45.2434C30.6084 47.7836 28.9908 48.0394 24.7523 48.0211C21.0256 48.0211 19.2237 47.6922 17.0123 46.6505C15.8452 46.084 15.7223 45.9744 15.2718 44.951C15.0056 44.348 14.2071 42.6667 13.4904 41.2048C11.7909 37.751 11.4633 36.7093 11.4633 34.9002C11.4633 33.621 11.5657 33.2555 12.1185 32.1773C12.9785 30.5326 14.719 29.0158 16.7052 28.157C20.3909 26.6036 23.4008 26.4757 31.407 27.6087ZM61.5069 38.9753C61.5069 39.2129 60.5855 40.2545 60.0326 40.6566C59.0907 41.3144 57.4936 41.9175 55.4869 42.4109C54.3812 42.6667 53.3983 42.8495 53.2755 42.8129C53.0298 42.7398 55.016 41.0769 56.3469 40.2545C57.7188 39.4139 59.4183 38.8474 60.5445 38.8291C61.0769 38.8291 61.5069 38.9022 61.5069 38.9753ZM18.7937 84.0215C19.1009 84.6063 19.1418 84.9535 19.019 86.2692C18.8961 87.5667 18.8142 87.8043 18.5071 87.8043C17.9132 87.8043 17.0942 87.0916 16.8485 86.3606C16.6028 85.6114 16.869 83.9484 17.3194 83.4733C17.729 83.0347 18.3842 83.2905 18.7937 84.0215Z" fill="url(#paint0_linear_683_339)"/>
<path d="M1.76789 0.672403C1.68598 0.800323 1.80884 1.00134 2.11598 1.16581C5.84264 3.35872 8.97548 5.69783 12.4359 8.89583C17.2069 13.2634 18.7835 16.1325 18.0874 19.1112C17.7597 20.4817 16.7974 21.8706 14.3812 24.4473C12.1493 26.8412 10.9617 28.6869 10.245 30.8981C9.63072 32.8169 9.56929 37.1479 10.1631 39.0119C11.0231 41.753 12.8455 44.3845 14.9136 45.8282C15.9169 46.5226 16.0807 46.7236 16.4697 47.8749C18.9678 55.3126 18.7631 64.0294 15.9374 71.6315C14.8317 74.592 13.7259 76.7118 11.4121 80.3118C7.86977 85.8124 6.72311 88.2611 6.06787 91.6419C5.51502 94.5109 5.71978 96.5028 7.58311 105.804C7.76739 106.81 7.91072 108.527 7.91072 110.19C7.91072 113.918 7.58311 114.978 5.43311 118.085C4.28645 119.748 3.93836 120.753 3.93836 122.507C3.93836 124.243 5.86311 136.597 6.31359 137.638C6.70263 138.589 7.8493 139.521 8.62739 139.521C9.44643 139.521 10.0402 138.863 10.3883 137.492C10.6955 136.323 13.0502 126.125 16.4493 111.287C18.8654 100.669 19.9302 95.1505 20.5035 90.052C20.6673 88.718 20.7902 88.2977 21.1383 87.987C22.3259 86.9271 22.7764 84.4418 22.7559 79.3067C22.7354 76.7118 22.6126 76.0174 22.1621 76.0174C21.8959 76.0174 21.855 76.6935 21.814 80.2753C21.7731 83.455 21.6912 84.8256 21.4454 85.6662C20.995 87.2378 20.8107 87.2926 20.8926 85.8124C21.0359 83.7474 20.2578 82.5047 18.845 82.5047C17.8826 82.5047 17.4935 82.8154 17.1455 83.8205C16.5516 85.6114 16.8383 87.0916 17.985 87.9687C18.3945 88.2977 18.9269 88.5352 19.234 88.5352H19.7664L19.6231 90.0886C19.2545 94.5109 17.9031 101.327 14.3607 116.586C10.7569 132.101 10.5521 132.978 9.95833 135.683C9.36453 138.278 9.01643 138.918 8.29977 138.716C8.07453 138.643 7.64453 138.205 7.33739 137.711C6.88692 136.962 6.72311 136.231 6.29311 133.362C6.02692 131.48 5.55597 128.501 5.2693 126.765C4.45026 121.667 4.55264 120.936 6.49787 118.03C7.13263 117.08 7.82882 115.855 8.03358 115.325C9.13929 112.42 9.09834 109.076 7.82882 102.698C6.80501 97.4531 6.5593 95.0775 6.80501 92.7749C7.17358 89.3576 8.27929 86.7992 11.8217 81.2073C15.1593 75.9808 16.5721 73.0204 17.7597 68.8721C18.7221 65.4183 18.9678 63.536 18.9678 59.1136C18.9883 54.7278 18.7631 52.8638 17.7393 49.1724C17.4731 48.1856 17.2478 47.3267 17.2478 47.2902C17.2478 47.2536 17.514 47.345 17.8416 47.5094C19.4593 48.2587 22.0392 48.7338 24.9264 48.8252C29.3083 48.9714 31.0692 48.6973 44.9725 45.7003C48.4739 44.9328 51.3406 44.348 51.3815 44.3663C51.4634 44.4576 43.8463 53.1196 42.7611 54.143C41.8601 55.0019 40.6725 55.5136 39.8535 55.4039C39.5054 55.3491 38.6044 54.9836 37.9082 54.5816C36.1882 53.6313 35.533 53.5034 34.3659 53.9603C33.2192 54.4171 32.6049 55.2395 31.6835 57.542C30.7825 59.7898 30.0249 61.1238 28.8373 62.5126C27.5678 64.0294 26.6259 64.7604 23.923 66.332C21.1178 67.9401 20.524 68.5249 20.524 69.6213C20.524 70.6447 21.1588 71.3574 22.5921 71.9056C24.8035 72.7463 26.9535 72.5635 29.7997 71.3209C31.3149 70.6447 31.8473 70.2427 35.1235 67.3188C37.1301 65.5279 39.1573 63.8284 39.6282 63.536C40.8977 62.7502 42.6587 62.001 45.3001 61.1238C53.1834 58.5106 59.8791 54.0151 69.0729 45.1703C72.3491 42.0089 73.2295 40.6383 73.25 38.5733C73.25 37.5134 73.1476 37.0931 72.6767 36.2159C71.5095 34.1144 68.9295 32.488 65.5715 31.7204C63.831 31.3367 60.78 30.8615 50.5215 29.4179C46.5901 28.8514 40.6316 27.9925 37.3144 27.4991C26.544 25.9092 23.6364 25.7447 20.0531 26.5671C16.5721 27.3712 13.644 29.3631 12.3336 31.7753C11.1255 34.0778 11.2893 36.5083 12.8864 39.816C14.9545 44.1104 15.364 45.0424 15.2002 45.0424C14.8112 45.0424 12.9069 42.7033 12.1288 41.2962C10.8798 39.0667 10.5931 37.8606 10.5931 34.9915C10.5931 32.9265 10.675 32.3052 11.0845 31.1539C11.965 28.6321 12.8659 27.2798 15.6916 24.2097C17.944 21.7975 18.9064 20.1163 19.0293 18.4167C19.2954 15.1091 17.2478 11.9659 11.6579 7.10496C8.93453 4.7293 6.76406 3.12116 3.95883 1.3851C2.38217 0.416563 2.0136 0.306917 1.76789 0.672403ZM32.4002 27.6087C36.2087 28.1387 50.3782 30.1671 60.4729 31.6108C65.7558 32.3783 68.1515 33.0727 70.0762 34.4433C71.141 35.1926 72.0829 36.5814 72.3695 37.751C72.6562 39.0119 72.2467 40.3459 71.1205 41.8627C70.1172 43.215 63.7696 49.0628 60.5548 51.6212C54.6782 56.2994 50.7672 58.4923 44.2968 60.6669C39.7101 62.2203 38.973 62.6954 34.0792 67.2091C30.803 70.2061 28.694 71.3757 25.9707 71.6498C23.8411 71.8691 21.3431 70.8275 21.3431 69.6944C21.3431 68.9269 22.2645 68.1229 24.4349 66.9716C28.0183 65.071 30.6187 62.2751 32.093 58.7299C33.1168 56.2628 33.7106 55.1846 34.284 54.8374C35.0825 54.344 36.0859 54.4719 37.6011 55.2943C39.3825 56.2446 40.1811 56.3542 41.5735 55.8242C42.9044 55.3126 43.232 54.9836 48.5558 48.9348L52.9172 43.9825L55.2106 43.4891C59.0191 42.6485 60.8005 41.9541 62.1724 40.7297C62.8481 40.1266 63.5238 38.9936 63.5238 38.5002C63.5238 37.7144 60.5753 37.8789 58.4458 38.7743C57.0739 39.3591 54.6782 41.0403 53.4496 42.3013L52.4872 43.2698L43.3139 45.2434C31.6016 47.7836 29.984 48.0394 25.7454 48.0211C22.0188 48.0211 20.2169 47.6922 18.0054 46.6505C16.8383 46.084 16.7155 45.9744 16.265 44.951C15.9988 44.348 15.2002 42.6667 14.4836 41.2048C12.784 37.751 12.4564 36.7093 12.4564 34.9002C12.4564 33.621 12.5588 33.2555 13.1117 32.1773C13.9717 30.5326 15.7121 29.0158 17.6983 28.157C21.384 26.6036 24.394 26.4757 32.4002 27.6087ZM62.5 38.9753C62.5 39.2129 61.5786 40.2545 61.0258 40.6566C60.0839 41.3144 58.4867 41.9175 56.4801 42.4109C55.3744 42.6667 54.3915 42.8495 54.2686 42.8129C54.0229 42.7398 56.0091 41.0769 57.3401 40.2545C58.712 39.4139 60.4115 38.8474 61.5377 38.8291C62.07 38.8291 62.5 38.9022 62.5 38.9753ZM19.7869 84.0215C20.094 84.6063 20.135 84.9535 20.0121 86.2692C19.8892 87.5667 19.8073 87.8043 19.5002 87.8043C18.9064 87.8043 18.0874 87.0916 17.8416 86.3606C17.5959 85.6114 17.8621 83.9484 18.3126 83.4733C18.7221 83.0347 19.3773 83.2905 19.7869 84.0215Z" fill="url(#paint1_linear_683_339)"/>
</g>
<defs>
<linearGradient id="paint0_linear_683_339" x1="5.69266" y1="70" x2="73.25" y2="70" gradientUnits="userSpaceOnUse">
<stop stop-color="#FECF24"/>
<stop offset="1" stop-color="#FE9724"/>
</linearGradient>
<linearGradient id="paint1_linear_683_339" x1="5.69266" y1="70" x2="73.25" y2="70" gradientUnits="userSpaceOnUse">
<stop stop-color="#FECF24"/>
<stop offset="1" stop-color="#FE9724"/>
</linearGradient>
</defs>
</svg>
