<svg width="16" height="20" viewBox="0 0 16 20" fill="none" xmlns="http://www.w3.org/2000/svg">
<g id="Group">
<path id="Vector" d="M9.89453 1V4.95257C9.89453 5.21464 9.99864 5.46598 10.184 5.65129C10.3693 5.8366 10.6206 5.94071 10.8827 5.94071H14.8352" stroke="currentColor" stroke-width="1.5" stroke-linecap="round" stroke-linejoin="round"/>
<path id="Vector_2" d="M4.95257 14.834H10.8814M4.95257 10.8814H10.8814M12.8577 18.7866H2.97628C2.45214 18.7866 1.94946 18.5783 1.57884 18.2077C1.20821 17.8371 1 17.3344 1 16.8103V2.97628C1 2.45214 1.20821 1.94947 1.57884 1.57884C1.94946 1.20821 2.45214 1 2.97628 1H9.89328L14.834 5.94071V16.8103C14.834 17.3344 14.6258 17.8371 14.2551 18.2077C13.8845 18.5783 13.3818 18.7866 12.8577 18.7866Z" stroke="currentColor" stroke-width="1.5" stroke-linecap="round" stroke-linejoin="round"/>
</g>
</svg>
