<svg width="20" height="20" viewBox="0 0 20 20" fill="none" xmlns="http://www.w3.org/2000/svg">
<g id="eye-off" clip-path="url(#clip0_2014_3333)">
<path id="Icon" d="M8.25016 3.53398C8.82377 3.39972 9.41105 3.3326 10.0002 3.33398C15.8335 3.33398 19.1668 10.0007 19.1668 10.0007C18.661 10.947 18.0577 11.8379 17.3668 12.659M11.7668 11.7673C11.538 12.0129 11.262 12.2099 10.9553 12.3466C10.6486 12.4832 10.3176 12.5567 9.9819 12.5626C9.64623 12.5685 9.3128 12.5068 9.0015 12.3811C8.69021 12.2553 8.40743 12.0682 8.17003 11.8308C7.93264 11.5934 7.74549 11.3106 7.61975 10.9993C7.49402 10.688 7.43227 10.3546 7.43819 10.0189C7.44411 9.68323 7.51759 9.35219 7.65423 9.04552C7.79087 8.73886 7.98787 8.46286 8.2335 8.23398M0.833496 0.833984L19.1668 19.1673M14.9502 14.9507C13.5257 16.0365 11.7911 16.638 10.0002 16.6673C4.16683 16.6673 0.833496 10.0007 0.833496 10.0007C1.87007 8.0689 3.30778 6.38116 5.05016 5.05065L14.9502 14.9507Z" stroke="#2D2D2D" stroke-width="2" stroke-linecap="round" stroke-linejoin="round"/>
</g>
<defs>
<clipPath id="clip0_2014_3333">
<rect width="20" height="20" fill="white"/>
</clipPath>
</defs>
</svg>
