<svg width="136" height="90" viewBox="0 0 136 90" fill="none" xmlns="http://www.w3.org/2000/svg">
<g id="icon_eyebrows">
<path id="Vector" d="M77.5324 1.15266C70.8568 2.08106 62.4128 6.50201 49.6804 15.7418C45.0826 19.1017 41.369 21.3122 34.9145 24.5395C32.3503 25.8216 28.902 27.7668 27.222 28.872C23.5526 31.3036 19.3085 35.1056 20.3253 35.1498C20.679 35.1498 24.8347 33.3372 29.5209 31.1709C34.2071 28.9604 38.2302 27.1036 38.4512 27.0594C38.7165 27.0152 39.247 28.032 39.7333 29.3141C40.1754 30.5962 40.9712 32.2762 41.4575 33.0719C41.9438 33.9119 43.1816 36.6087 44.1542 39.0844C46.1437 44.0359 46.6742 45.0085 48.9289 47.8821L50.432 49.7831L47.9121 52.5241C43.9332 56.7682 43.7564 56.9009 41.9438 56.6356L40.3964 56.4146L41.9438 57.1219C44.0216 58.0945 50.653 58.404 53.7919 57.6966C55.1624 57.3872 58.655 56.1051 61.5728 54.823C68.4253 51.861 72.8462 50.6231 77.6651 50.3578C82.6165 50.0926 85.4901 51.021 86.7722 53.2315C88.408 56.0167 88.1869 63.267 86.4185 64.7259C85.6228 65.3891 77.0461 66.6712 75.7198 66.3617C74.3493 66.008 70.8568 62.8249 69.9726 61.1892C68.2042 57.7408 70.2821 53.0988 74.2167 51.8168C74.5704 51.6841 74.3493 51.5515 73.7304 51.5515C72.1831 51.5073 69.5747 54.3809 68.9116 56.8124C68.2042 59.3766 68.9116 61.145 71.8294 64.1954C73.1557 65.6101 74.2167 66.8038 74.2167 66.9364C74.2167 67.3343 64.5348 66.4943 62.0591 65.8754C57.3287 64.6375 54.8087 63.2228 54.0572 61.4544C53.3498 59.7303 52.5541 59.1998 51.3604 59.6418C50.6973 59.9071 50.8299 60.2166 52.2446 61.5871C53.173 62.4713 54.5435 64.1954 55.295 65.3891C58.1687 69.81 63.6064 72.7721 72.0062 74.4962C75.6314 75.2478 77.6208 75.4246 81.0692 75.2478C86.3301 75.0268 88.5848 74.3194 93.8899 71.1805C96.1004 69.8985 99.3719 68.3511 101.185 67.7764C105.34 66.4943 108.258 63.9744 108.258 61.7197C108.258 59.9955 107.683 58.8019 105.959 56.9893L104.677 55.6188L108.612 54.602C110.822 54.0714 114.845 52.6567 117.586 51.4631C120.327 50.2694 122.626 49.2968 122.67 49.2968C122.715 49.2968 122.582 49.96 122.405 50.7999C121.565 54.6462 123.51 59.2882 127.754 63.4439L130.761 66.3617L130.849 72.2858C130.893 76.0436 130.716 78.7404 130.363 79.5803C128.418 84.576 129.213 90.9422 131.601 88.997C132.131 88.5549 132.22 87.4496 132.043 82.7634L131.822 77.1046L133.767 73.7447C134.784 71.8879 135.668 70.1195 135.668 69.81C135.668 69.3237 135.093 68.7932 132.087 66.3175C130.805 65.3007 130.495 54.1599 131.512 47.3958C131.999 44.4338 132.352 40.0128 132.352 37.5813C132.352 33.6909 132.175 32.5856 130.716 28.2973C129.832 25.6005 128.992 22.1522 128.815 20.6491C128.594 18.7923 128.329 17.9965 128.064 18.2617C127.799 18.527 127.931 20.207 128.462 23.0364C128.992 25.6005 129.169 27.5015 128.904 27.59C128.152 27.8552 127.843 26.7058 126.87 20.7375C126.34 17.466 125.721 14.2829 125.5 13.664C124.704 11.5861 123.201 9.86194 121.609 9.19879C119.929 8.49144 85.0038 1.3295 81.7323 1.02003C80.6271 0.931618 78.7703 0.975822 77.5324 1.15266ZM101.096 5.26414C111.264 7.29778 120.283 9.28721 121.123 9.64089C124.173 10.923 125.013 12.7356 126.384 20.9143C126.914 24.1416 127.268 26.8826 127.18 26.971C127.135 27.0594 118.603 24.0532 108.258 20.2512C85.3133 11.8956 82.5723 11.144 76.8693 11.4093C71.6968 11.6303 67.1874 13.0892 57.6824 17.5102C54.013 19.2344 50.8299 20.6933 50.5646 20.7375C50.3436 20.7817 49.8131 21.0027 49.4594 21.2238C49.1057 21.489 47.0279 22.4616 44.8174 23.4785C41.369 25.07 40.7943 25.2026 40.5291 24.5837C39.8659 22.948 40.2196 22.3732 42.9606 20.8701C44.4637 19.9859 49.0615 16.8913 53.2172 13.9292C60.777 8.49144 68.2484 4.37996 73.9957 2.47895C78.5492 0.975822 80.9366 1.24108 101.096 5.26414ZM85.9322 13.0008C87.6564 13.4871 97.7362 17.0239 108.346 20.8701L127.666 27.8552L128.197 30.2867C128.462 31.613 129.39 34.9287 130.186 37.6697L131.689 42.6212L130.982 46.9537C130.451 50.2694 130.319 52.922 130.54 58.2714C130.761 64.8144 130.716 65.2122 130.009 64.8144C128.639 64.107 125.19 60.1282 124.173 58.1387C123.024 55.884 122.538 51.7283 123.201 49.7831C123.82 48.059 123.51 48.059 120.283 49.6947C116.481 51.5957 109.717 54.0272 106.622 54.602L103.881 55.0883L99.6814 52.3031C97.3383 50.7557 95.4373 49.3852 95.4373 49.2526C95.4373 49.0758 95.9678 48.5895 96.6309 48.1916C97.7362 47.44 97.8246 47.44 98.4877 48.3684C99.5046 49.6947 102.024 50.0042 104.014 49.0758C104.942 48.6337 106.888 46.8653 108.346 45.1411C110.999 42.0023 115.066 35.5919 114.668 35.194C114.359 34.8845 113.431 35.9013 113.298 36.6529C112.988 38.6865 106.976 46.5116 104.323 48.28C103.483 48.8547 102.29 49.2968 101.671 49.2968C100.477 49.2968 98.5319 48.2358 98.5319 47.5727C98.5319 47.3958 100.256 46.0695 102.422 44.6548C107.418 41.3391 113.254 36.8739 112.988 36.6087C112.856 36.5203 111.485 37.4045 109.938 38.6423C106.49 41.3391 99.3719 46.2022 98.8856 46.2022C98.1783 46.2022 98.5762 44.3011 101.185 36.4319C102.599 31.9667 103.749 28.2531 103.66 28.1647C103.572 28.0763 101.759 31.392 99.6372 35.4592C95.1278 44.0801 94.4647 45.1411 92.6521 46.2022C91.37 46.9979 91.2816 46.9979 89.6016 46.1579C88.6732 45.6716 86.7722 45.0527 85.3575 44.7432C82.926 44.2127 82.7934 44.1243 81.6439 41.7812C78.7703 35.9455 75.9851 24.849 75.9851 19.1901C75.9851 15.3881 75.2777 16.0071 74.9683 19.9859C74.6588 24.8047 75.2777 30.1541 76.9135 36.2992C77.6651 39.1728 78.4166 42.0023 78.505 42.5328C78.7261 43.5054 78.6819 43.5054 73.9515 43.2843C71.2989 43.1517 68.8674 42.9749 68.6021 42.8422C68.2926 42.7538 67.099 41.2507 65.9495 39.4823L63.8275 36.255L63.6064 30.1099C63.4296 25.7332 63.2085 23.8764 62.8549 23.7437C61.1749 23.2132 61.0865 29.1373 62.678 34.3982C64.6675 40.9412 65.2422 43.5496 64.7559 43.5496C64.4906 43.5938 63.4296 43.7706 62.3686 43.9475C61.1749 44.1685 60.3791 44.1685 60.2023 43.8591C60.0255 43.5938 60.1581 43.5496 60.5118 43.7706C60.8212 43.9475 60.0697 42.8422 58.876 41.2949C54.1898 35.2824 50.3878 27.2805 50.3436 23.3458C50.3436 21.489 50.3878 21.4448 52.9077 20.2954C69.6631 12.5587 72.581 11.6303 79.0798 11.9398C81.1576 12.0282 84.2523 12.5145 85.9322 13.0008ZM51.7583 32.453C52.8635 34.6193 53.9245 36.2108 54.2782 36.1224C54.5877 36.0782 54.7203 36.2108 54.5435 36.4319C54.234 36.9624 59.1413 43.638 59.5834 43.3727C59.7602 43.2401 59.8928 43.5496 59.8928 44.0359C59.8928 44.478 59.6276 44.8759 59.3181 44.8759C59.0529 44.8759 57.2845 45.6716 55.4277 46.6L52.0677 48.3684L50.7415 46.2906C48.0005 41.958 41.0596 27.4573 41.0596 26.0426C41.0596 25.91 42.9164 24.9374 45.1711 23.9206L49.2383 22.0196L49.5036 25.3353C49.7689 28.0763 50.1667 29.3583 51.7583 32.453ZM38.5396 26.2637C38.2302 26.5731 35.666 27.7668 25.3652 32.4972C21.6516 34.2214 21.4748 34.2656 22.4916 33.1604C24.0831 31.4804 30.0072 27.6342 34.6492 25.2911L38.6281 23.2574L38.7607 24.6279C38.8491 25.3795 38.7607 26.131 38.5396 26.2637ZM40.1754 25.0258C40.1754 25.4679 39.9986 25.8658 39.7333 25.8658C39.5122 25.8658 39.2912 25.3353 39.2912 24.7163C39.2912 24.0974 39.468 23.6995 39.7333 23.8764C39.9986 24.009 40.1754 24.5395 40.1754 25.0258ZM77.9745 33.6467C78.3724 35.0614 79.3892 37.935 80.2292 39.9686C81.0692 42.0465 81.6439 43.8148 81.5113 43.9033C81.3787 44.0359 80.8481 43.9475 80.3176 43.6822C79.4776 43.3285 79.0355 42.2233 77.8861 37.9792C76.1619 31.613 75.543 28.1205 75.5872 25.4679C75.5872 23.6553 75.6756 23.8321 76.4272 27.2363C76.8693 29.3141 77.5324 32.1877 77.9745 33.6467ZM63.1201 28.8278C63.0759 32.5414 62.9875 33.293 62.678 32.2762C61.8381 29.6236 62.0149 24.0974 62.9875 24.0974C63.0759 24.0974 63.1643 26.2195 63.1201 28.8278ZM41.7227 29.491C43.2701 33.4698 46.9837 41.0296 49.6362 45.4948C51.6699 48.9431 51.7583 50.181 49.8131 48.059C48.0005 46.1579 46.4974 43.5938 45.1269 40.0128C44.3753 38.2002 42.8722 34.8403 41.7669 32.5414C39.8659 28.6068 39.247 26.3079 40.087 26.3079C40.308 26.3079 41.0154 27.7668 41.7227 29.491ZM131.203 31.7014C132.131 34.8845 132.573 41.9138 131.733 40.4549C131.203 39.5707 128.594 30.1983 128.594 29.2699C128.594 28.8278 128.948 28.5184 129.434 28.5184C130.053 28.5184 130.451 29.2257 131.203 31.7014ZM53.8361 34.5751C54.1014 35.1498 54.2782 35.5919 54.1456 35.5919C53.8361 35.5919 51.3604 31.0383 51.0067 29.8446C50.8741 29.2257 51.3162 29.8446 52.0235 31.1709C52.6867 32.4972 53.5267 34.0445 53.8361 34.5751ZM101.008 35.2382C100.654 36.2992 99.9024 38.7307 99.2835 40.676C98.6646 42.6212 98.0456 44.8317 97.8688 45.6274C97.692 46.6 97.1172 47.3074 96.012 47.9705C94.5531 48.8105 94.3763 48.8547 93.3594 48.1916C92.7405 47.7937 92.1658 47.5284 92.0774 47.6611C91.9447 47.7495 92.3426 48.1916 92.9615 48.5453C93.9342 49.2084 93.9784 49.3852 93.5363 50.6231C92.9615 52.1704 93.271 52.9662 95.172 54.3367C96.1004 55.0441 97.2057 55.3093 100.123 55.4419C103.749 55.5746 103.881 55.6188 105.605 57.2987C109.629 61.1892 107.993 64.947 101.273 67.1575C99.4161 67.7764 95.7467 69.5006 93.1384 70.9595C85.5343 75.292 79.5219 75.911 69.7516 73.4352C62.8991 71.711 57.7266 68.5722 55.5161 64.8144L54.7203 63.4439L56.8866 64.5491C61.1749 66.6712 63.6506 67.1133 73.7304 67.2901C82.5281 67.4669 83.2797 67.4227 84.8712 66.5827C87.0817 65.4333 90.9279 64.8144 99.0182 64.4165C105.429 64.0628 106.932 63.6649 106.932 62.3386C106.932 61.4102 105.517 60.4818 101.848 58.8903C99.9024 58.0503 96.1446 56.0609 93.4921 54.4251C87.9659 51.0652 85.5343 50.2252 80.5829 49.8715C74.7914 49.4737 68.7347 50.9326 60.6444 54.6462C55.8256 56.8566 52.5098 57.6966 48.752 57.6524C43.7564 57.6082 43.7122 57.4756 47.3815 53.8062C49.1057 52.082 50.6973 50.4905 50.8741 50.3578C51.0067 50.2252 51.8909 50.5789 52.8635 51.1536C55.2508 52.6567 58.5665 52.9662 62.1475 51.9936L64.0043 51.5073L63.4296 49.8273C63.0759 48.9431 62.3686 47.44 61.8381 46.5116C60.6886 44.5664 60.8654 44.5222 63.297 45.9369C64.3138 46.5558 66.3474 47.3516 67.7621 47.7053C70.1052 48.3242 70.5031 48.3242 71.3873 47.7495C72.0504 47.3516 72.8904 47.219 73.7304 47.3516C76.0735 47.8379 78.1956 47.1748 78.9913 45.7159C80.0524 43.8591 81.8208 43.9475 83.0144 45.9369C84.1639 47.7937 84.6502 47.9705 88.1427 47.9705C90.53 47.9705 91.1932 47.7937 93.05 46.5116C94.951 45.2738 95.5257 44.3896 98.2225 39.2171C99.9024 36.034 101.317 33.3814 101.406 33.3814C101.494 33.3814 101.317 34.2214 101.008 35.2382ZM67.2316 43.1959C66.5685 43.8591 65.9053 43.2843 65.1538 41.4717C64.0485 38.8192 64.4022 38.5097 66.0822 40.676C67.1432 42.0907 67.4969 42.9307 67.2316 43.1959ZM71.4315 46.8211C71.0778 47.9705 69.3979 47.5284 67.7621 45.8927L66.0822 44.2569L67.1874 43.9475C67.939 43.7706 68.6905 44.0359 69.9284 45.0085C70.8568 45.7159 71.5199 46.5116 71.4315 46.8211ZM78.7261 44.2569C79.345 44.6548 78.1956 46.2022 76.9577 46.6885C76.2946 46.9537 75.1451 47.0421 74.4378 46.9095C73.1115 46.6443 72.4925 46.2906 70.2379 44.3896L69.1326 43.5054L73.7304 43.7706C76.2946 43.9033 78.505 44.1243 78.7261 44.2569ZM66.8337 45.539C68.3811 47.4842 67.6295 47.5727 64.358 45.8927L62.0591 44.699L63.3854 44.3896C64.1369 44.2127 64.9327 44.0801 65.1538 44.0359C65.419 44.0359 66.1706 44.699 66.8337 45.539ZM85.3133 46.2906C85.5786 47.3958 85.5343 47.4842 84.7828 47.0863C84.3407 46.8211 83.766 46.2022 83.4565 45.7159C83.0586 44.9201 83.1028 44.8317 83.987 44.9643C84.6502 45.0527 85.0923 45.4948 85.3133 46.2906ZM62.0149 48.059C63.6949 51.1536 63.3854 51.5957 59.4949 51.861C56.4887 52.0378 54.8087 51.5073 53.3056 49.8273C52.5098 48.9874 52.5541 48.9431 53.7477 48.1032C54.8529 47.3074 57.0192 46.2464 58.7434 45.6274C60.0697 45.1411 60.6886 45.5832 62.0149 48.059ZM87.0375 46.4674C87.0375 47.1748 86.3301 47.3074 85.9322 46.6443C85.5786 46.0695 86.1091 45.2295 86.6396 45.539C86.8606 45.7159 87.0375 46.1137 87.0375 46.4674ZM89.9553 46.8653C90.7511 47.44 90.7069 47.4842 89.1595 47.5284C87.568 47.5284 87.0817 47.1748 87.789 46.5116C88.2311 46.0253 89.0269 46.1579 89.9553 46.8653ZM52.5983 50.0484C53.173 50.7557 53.1288 50.7999 52.4656 50.2252C51.7141 49.6505 51.493 49.2968 51.8467 49.2968C51.9351 49.2968 52.2888 49.6505 52.5983 50.0484ZM98.7972 52.4357L102.732 55.1325L99.593 54.9556C96.4983 54.7346 94.4205 53.8946 93.9342 52.5683C93.7131 51.9936 94.332 49.7389 94.7299 49.7389C94.8183 49.7389 96.6751 50.9326 98.7972 52.4357ZM88.9385 52.4357C89.9553 52.9662 92.5637 54.4693 94.6857 55.7956C96.852 57.1219 99.0625 58.3598 99.6814 58.5808C101.406 59.244 100.919 61.9407 98.8856 63.046C98.1341 63.4439 87.0375 65.2565 87.0375 64.9912C87.0375 64.947 87.3469 64.2838 87.7448 63.4881C88.8501 61.2776 88.4522 54.6904 87.1259 52.8778C85.9322 51.2863 86.3743 51.1536 88.9385 52.4357ZM104.323 60.6145C107.595 62.2502 106.622 63.4881 101.715 63.7975L98.3109 64.0186L99.7698 62.8249C100.654 62.0292 101.185 61.1892 101.185 60.4818C101.185 59.5534 101.317 59.465 102.201 59.7303C102.732 59.8629 103.704 60.2608 104.323 60.6145ZM53.173 60.6145C53.6151 61.7197 53.2172 61.8081 52.333 60.7913C51.6699 60.0397 51.6257 59.9071 52.2004 59.9071C52.5983 59.9071 53.0404 60.2166 53.173 60.6145ZM83.7218 66.5385C83.2355 66.7596 82.0418 66.8922 81.0692 66.8922L79.3008 66.848L81.0692 66.5385C82.0418 66.3617 83.2355 66.2291 83.7218 66.1849L84.6059 66.1406L83.7218 66.5385ZM133.723 68.4395L135.358 69.8985L133.634 72.8605C132.706 74.4962 131.778 75.8225 131.601 75.8225C131.424 75.8225 131.247 73.8331 131.247 71.4016C131.247 68.7048 131.424 66.9806 131.689 66.9806C131.954 66.9806 132.883 67.6438 133.723 68.4395ZM131.601 84.5318C131.468 87.8033 131.335 88.4222 130.716 88.5549C130.009 88.6875 129.921 88.3338 129.921 85.6813C129.921 84.0455 130.142 81.8792 130.407 80.9508C131.159 78.2098 131.733 79.9782 131.601 84.5318Z" fill="url(#paint0_linear_2576_167)"/>
<path id="Vector_2" d="M75.9858 54.7788C74.9248 56.5472 74.3501 59.0229 75.0132 59.0229C75.2785 59.0229 75.7648 58.5808 76.03 58.0061C76.9142 56.3261 78.2405 55.0882 79.611 54.823C81.2026 54.4693 80.7605 53.9388 78.55 53.5851C77.0469 53.3641 76.8258 53.4525 75.9858 54.7788ZM78.0637 54.8672C77.4005 55.2209 76.4279 56.1935 75.9858 56.945C74.8364 58.8018 74.8364 58.1387 75.9858 55.9282C76.6932 54.5135 77.1353 54.1598 78.1079 54.1598L79.3015 54.2041L78.0637 54.8672Z" fill="url(#paint1_linear_2576_167)"/>
<path id="Vector_3" d="M31.3344 56.2377C31.3344 57.0335 33.8986 58.9787 35.7554 59.5092C37.3911 59.9955 39.0269 59.8187 41.7237 58.8019C43.1826 58.2271 38.8942 62.5155 36.3301 64.1512C33.6775 65.8754 28.5934 67.5553 23.9514 68.2627C18.1158 69.1469 13.3412 71.1805 10.0254 74.3194C7.9918 76.2204 6.22342 77.193 1.49301 78.9614C-0.319583 79.6245 -0.408002 79.7572 0.829864 79.5361C3.70348 79.0498 8.87599 76.3088 10.777 74.3194C13.0317 72.0205 17.5853 69.9869 22.9346 69.0143C30.5387 67.5553 31.4228 67.3343 34.3407 65.8754C37.7448 64.1512 42.3426 60.1724 42.6078 58.6692C42.8289 57.5198 42.8731 57.5198 41.1047 58.404C39.4248 59.244 36.2417 59.2882 34.7828 58.5366C34.208 58.2713 33.2354 57.5198 32.5723 56.9009C31.8649 56.2819 31.3344 55.9725 31.3344 56.2377Z" fill="url(#paint2_linear_2576_167)"/>
<path id="Vector_4" d="M77.8645 0.821091C71.1888 1.74949 62.7448 6.17044 50.0125 15.4102C45.4147 18.7701 41.7011 20.9806 35.2465 24.2079C32.6823 25.49 29.234 27.4352 27.554 28.5405C23.8846 30.972 19.6405 34.774 20.6573 34.8182C21.011 34.8182 25.1667 33.0056 29.8529 30.8393C34.5391 28.6289 38.5622 26.7721 38.7833 26.7279C39.0485 26.6837 39.579 27.7005 40.0653 28.9825C40.5074 30.2646 41.3032 31.9446 41.7895 32.7404C42.2758 33.5803 43.5137 36.2771 44.4863 38.7528C46.4757 43.7043 47.0062 44.6769 49.2609 47.5505L50.764 49.4516L48.2441 52.1925C44.2652 56.4367 44.0884 56.5693 42.2758 56.304L40.7285 56.083L42.2758 56.7903C44.3536 57.7629 50.9851 58.0724 54.124 57.3651C55.4944 57.0556 58.987 55.7735 61.9048 54.4914C68.7573 51.5294 73.1782 50.2915 77.9971 50.0263C82.9486 49.761 85.8222 50.6894 87.1042 52.8999C88.74 55.6851 88.519 62.9355 86.7506 64.3944C85.9548 65.0575 77.3782 66.3396 76.0519 66.0301C74.6814 65.6764 71.1888 62.4934 70.3046 60.8576C68.5363 57.4093 70.6141 52.7673 74.5487 51.4852C74.9024 51.3526 74.6814 51.2199 74.0624 51.2199C72.5151 51.1757 69.9067 54.0493 69.2436 56.4809C68.5363 59.045 69.2436 60.8134 72.1614 63.8639C73.4877 65.2786 74.5487 66.4722 74.5487 66.6048C74.5487 67.0027 64.8669 66.1628 62.3911 65.5438C57.6607 64.306 55.1408 62.8912 54.3892 61.1229C53.6819 59.3987 52.8861 58.8682 51.6924 59.3103C51.0293 59.5755 51.1619 59.885 52.5766 61.2555C53.505 62.1397 54.8755 63.8639 55.6271 65.0575C58.5007 69.4785 63.9385 72.4405 72.3383 74.1647C75.9634 74.9162 77.9529 75.0931 81.4012 74.9162C86.6622 74.6952 88.9168 73.9878 94.222 70.849C96.4325 69.5669 99.704 68.0196 101.517 67.4448C105.672 66.1628 108.59 63.6428 108.59 61.3881C108.59 59.664 108.015 58.4703 106.291 56.6577L105.009 55.2872L108.944 54.2704C111.154 53.7399 115.177 52.3252 117.918 51.1315C120.659 49.9379 122.958 48.9652 123.002 48.9652C123.047 48.9652 122.914 49.6284 122.737 50.4684C121.897 54.3146 123.842 58.9566 128.086 63.1123L131.093 66.0301L131.181 71.9542C131.225 75.712 131.049 78.4088 130.695 79.2488C128.75 84.2444 129.545 90.6106 131.933 88.6654C132.463 88.2233 132.552 87.1181 132.375 82.4319L132.154 76.773L134.099 73.4131C135.116 71.5563 136 69.7879 136 69.4785C136 68.9922 135.425 68.4616 132.419 65.9859C131.137 64.9691 130.827 53.8283 131.844 47.0642C132.331 44.1022 132.684 39.6813 132.684 37.2497C132.684 33.3593 132.507 32.2541 131.049 27.9657C130.164 25.2689 129.324 21.8206 129.147 20.3175C128.926 18.4607 128.661 17.6649 128.396 17.9302C128.131 18.1954 128.263 19.8754 128.794 22.7048C129.324 25.2689 129.501 27.17 129.236 27.2584C128.484 27.5236 128.175 26.3742 127.202 20.4059C126.672 17.1344 126.053 13.9513 125.832 13.3324C125.036 11.2545 123.533 9.53036 121.941 8.86722C120.261 8.15987 85.3359 0.997925 82.0644 0.688461C80.9591 0.600044 79.1023 0.644249 77.8645 0.821091ZM101.428 4.93257C111.596 6.96621 120.615 8.95564 121.455 9.30932C124.505 10.5914 125.345 12.404 126.716 20.5827C127.246 23.81 127.6 26.551 127.512 26.6394C127.468 26.7279 118.935 23.7216 108.59 19.9196C85.6453 11.564 82.9043 10.8124 77.2013 11.0777C72.0288 11.2987 67.5194 12.7577 58.0144 17.1786C54.345 18.9028 51.1619 20.3617 50.8967 20.4059C50.6756 20.4501 50.1451 20.6712 49.7914 20.8922C49.4377 21.1575 47.3599 22.1301 45.1494 23.1469C41.7011 24.7384 41.1264 24.8711 40.8611 24.2521C40.198 22.6164 40.5516 22.0417 43.2926 20.5385C44.7957 19.6543 49.3935 16.5597 53.5492 13.5976C61.1091 8.15987 68.5805 4.04839 74.3277 2.14738C78.8813 0.644249 81.2686 0.909508 101.428 4.93257ZM86.2643 12.6692C87.9884 13.1555 98.0682 16.6923 108.678 20.5385L127.998 27.5236L128.529 29.9552C128.794 31.2814 129.722 34.5972 130.518 37.3381L132.021 42.2896L131.314 46.6221C130.783 49.9379 130.651 52.5904 130.872 57.9398C131.093 64.4828 131.049 64.8807 130.341 64.4828C128.971 63.7754 125.522 59.7966 124.505 57.8072C123.356 55.5525 122.87 51.3968 123.533 49.4516C124.152 47.7274 123.842 47.7274 120.615 49.3631C116.813 51.2641 110.049 53.6957 106.954 54.2704L104.213 54.7567L100.013 51.9715C97.6703 50.4242 95.7693 49.0537 95.7693 48.921C95.7693 48.7442 96.2998 48.2579 96.963 47.86C98.0682 47.1084 98.1566 47.1084 98.8198 48.0368C99.8366 49.3631 102.357 49.6726 104.346 48.7442C105.274 48.3021 107.22 46.5337 108.678 44.8096C111.331 41.6707 115.398 35.2603 115 34.8624C114.691 34.5529 113.763 35.5698 113.63 36.3213C113.32 38.355 107.308 46.18 104.655 47.9484C103.815 48.5232 102.622 48.9652 102.003 48.9652C100.809 48.9652 98.864 47.9042 98.864 47.2411C98.864 47.0642 100.588 45.738 102.754 44.3232C107.75 41.0075 113.586 36.5424 113.32 36.2771C113.188 36.1887 111.817 37.0729 110.27 38.3108C106.822 41.0075 99.704 45.8706 99.2177 45.8706C98.5103 45.8706 98.9082 43.9696 101.517 36.1003C102.931 31.6351 104.081 27.9215 103.992 27.8331C103.904 27.7447 102.091 31.0604 99.9692 35.1277C95.4598 43.7485 94.7967 44.8096 92.9841 45.8706C91.702 46.6664 91.6136 46.6664 89.9337 45.8264C89.0053 45.3401 87.1042 44.7211 85.6895 44.4117C83.258 43.8812 83.1254 43.7927 81.9759 41.4496C79.1023 35.614 76.3171 24.5174 76.3171 18.8586C76.3171 15.0565 75.6098 15.6755 75.3003 19.6543C74.9908 24.4732 75.6098 29.8225 77.2455 35.9677C77.9971 38.8413 78.7486 41.6707 78.8371 42.2012C79.0581 43.1738 79.0139 43.1738 74.2835 42.9528C71.6309 42.8201 69.1994 42.6433 68.9341 42.5107C68.6247 42.4222 67.431 40.9191 66.2816 39.1507L64.1595 35.9234L63.9385 29.7783C63.7616 25.4016 63.5406 23.5448 63.1869 23.4121C61.5069 22.8816 61.4185 28.8057 63.0101 34.0666C64.9995 40.6096 65.5742 43.218 65.0879 43.218C64.8227 43.2622 63.7616 43.4391 62.7006 43.6159C61.5069 43.8369 60.7112 43.8369 60.5343 43.5275C60.3575 43.2622 60.4901 43.218 60.8438 43.4391C61.1533 43.6159 60.4017 42.5107 59.208 40.9633C54.5218 34.9508 50.7198 26.9489 50.6756 23.0143C50.6756 21.1575 50.7198 21.1133 53.2398 19.9638C69.9952 12.2271 72.913 11.2987 79.4118 11.6082C81.4896 11.6966 84.5843 12.1829 86.2643 12.6692ZM52.0903 32.1214C53.1956 34.2877 54.2566 35.8792 54.6103 35.7908C54.9197 35.7466 55.0524 35.8792 54.8755 36.1003C54.566 36.6308 59.4733 43.3064 59.9154 43.0412C60.0922 42.9085 60.2249 43.218 60.2249 43.7043C60.2249 44.1464 59.9596 44.5443 59.6501 44.5443C59.3849 44.5443 57.6165 45.3401 55.7597 46.2685L52.3998 48.0368L51.0735 45.959C48.3325 41.6265 41.3916 27.1257 41.3916 25.711C41.3916 25.5784 43.2484 24.6058 45.5031 23.589L49.5704 21.688L49.8356 25.0037C50.1009 27.7447 50.4988 29.0268 52.0903 32.1214ZM38.8717 25.9321C38.5622 26.2416 35.9981 27.4352 25.6972 32.1656C21.9836 33.8898 21.8068 33.934 22.8236 32.8288C24.4152 31.1488 30.3392 27.3026 34.9812 24.9595L38.9601 22.9258L39.0927 24.2963C39.1811 25.0479 39.0927 25.7995 38.8717 25.9321ZM40.5074 24.6942C40.5074 25.1363 40.3306 25.5342 40.0653 25.5342C39.8443 25.5342 39.6232 25.0037 39.6232 24.3848C39.6232 23.7658 39.8001 23.3679 40.0653 23.5448C40.3306 23.6774 40.5074 24.2079 40.5074 24.6942ZM78.3066 33.3151C78.7044 34.7298 79.7213 37.6034 80.5612 39.637C81.4012 41.7149 81.9759 43.4833 81.8433 43.5717C81.7107 43.7043 81.1802 43.6159 80.6497 43.3506C79.8097 42.997 79.3676 41.8917 78.2181 37.6476C76.494 31.2814 75.875 27.7889 75.9192 25.1363C75.9192 23.3237 76.0077 23.5006 76.7592 26.9047C77.2013 28.9825 77.8645 31.8562 78.3066 33.3151ZM63.4522 28.4962C63.408 32.2098 63.3195 32.9614 63.0101 31.9446C62.1701 29.292 62.3469 23.7658 63.3195 23.7658C63.408 23.7658 63.4964 25.8879 63.4522 28.4962ZM42.0548 29.1594C43.6021 33.1382 47.3157 40.6981 49.9683 45.1632C52.0019 48.6116 52.0903 49.8494 50.1451 47.7274C48.3325 45.8264 46.8294 43.2622 45.4589 39.6813C44.7073 37.8687 43.2042 34.5087 42.099 32.2098C40.198 28.2752 39.579 25.9763 40.419 25.9763C40.6401 25.9763 41.3474 27.4352 42.0548 29.1594ZM131.535 31.3699C132.463 34.5529 132.905 41.5823 132.065 40.1233C131.535 39.2392 128.926 29.8667 128.926 28.9383C128.926 28.4962 129.28 28.1868 129.766 28.1868C130.385 28.1868 130.783 28.8941 131.535 31.3699ZM54.1682 34.2435C54.4334 34.8182 54.6103 35.2603 54.4776 35.2603C54.1682 35.2603 51.6924 30.7067 51.3388 29.5131C51.2061 28.8941 51.6482 29.5131 52.3556 30.8393C53.0187 32.1656 53.8587 33.713 54.1682 34.2435ZM101.34 34.9066C100.986 35.9677 100.234 38.3992 99.6155 40.3444C98.9966 42.2896 98.3777 44.5001 98.2008 45.2959C98.024 46.2685 97.4493 46.9758 96.344 47.639C94.8851 48.4789 94.7083 48.5232 93.6915 47.86C93.0725 47.4621 92.4978 47.1969 92.4094 47.3295C92.2768 47.4179 92.6746 47.86 93.2936 48.2137C94.2662 48.8768 94.3104 49.0537 93.8683 50.2915C93.2936 51.8389 93.603 52.6346 95.5041 54.0051C96.4325 54.7125 97.5377 54.9777 100.456 55.1104C104.081 55.243 104.213 55.2872 105.938 56.9672C109.961 60.8576 108.325 64.6154 101.605 66.8259C99.7482 67.4448 96.0788 69.169 93.4704 70.6279C85.8664 74.9604 79.8539 75.5794 70.0836 73.1036C63.2311 71.3795 58.0586 68.2406 55.8481 64.4828L55.0524 63.1123L57.2186 64.2175C61.5069 66.3396 63.9827 66.7817 74.0624 66.9585C82.8601 67.1354 83.6117 67.0912 85.2032 66.2512C87.4137 65.1017 91.2599 64.4828 99.3503 64.0849C105.761 63.7312 107.264 63.3333 107.264 62.0071C107.264 61.0787 105.849 60.1503 102.18 58.5587C100.234 57.7187 96.4767 55.7293 93.8241 54.0936C88.2979 50.7336 85.8664 49.8937 80.9149 49.54C75.1235 49.1421 69.0668 50.601 60.9764 54.3146C56.1576 56.5251 52.8419 57.3651 49.0841 57.3208C44.0884 57.2766 44.0442 57.144 47.7136 53.4746C49.4377 51.7504 51.0293 50.1589 51.2061 50.0263C51.3388 49.8937 52.2229 50.2473 53.1956 50.822C55.5829 52.3252 58.8986 52.6346 62.4795 51.662L64.3363 51.1757L63.7616 49.4958C63.408 48.6116 62.7006 47.1084 62.1701 46.18C61.0206 44.2348 61.1975 44.1906 63.629 45.6053C64.6458 46.2243 66.6795 47.02 68.0942 47.3737C70.4373 47.9926 70.8351 47.9926 71.7193 47.4179C72.3825 47.02 73.2225 46.8874 74.0624 47.02C76.4055 47.5063 78.5276 46.8432 79.3234 45.3843C80.3844 43.5275 82.1528 43.6159 83.3464 45.6053C84.4959 47.4621 84.9822 47.639 88.4747 47.639C90.8621 47.639 91.5252 47.4621 93.382 46.18C95.283 44.9422 95.8577 44.058 98.5545 38.8855C100.234 35.7024 101.649 33.0498 101.738 33.0498C101.826 33.0498 101.649 33.8898 101.34 34.9066ZM67.5636 42.8643C66.9005 43.5275 66.2374 42.9528 65.4858 41.1402C64.3806 38.4876 64.7342 38.1781 66.4142 40.3444C67.4752 41.7591 67.8289 42.5991 67.5636 42.8643ZM71.7635 46.4895C71.4099 47.639 69.7299 47.1969 68.0942 45.5611L66.4142 43.9254L67.5194 43.6159C68.271 43.4391 69.0226 43.7043 70.2604 44.6769C71.1888 45.3843 71.852 46.18 71.7635 46.4895ZM79.0581 43.9254C79.677 44.3232 78.5276 45.8706 77.2897 46.3569C76.6266 46.6221 75.4771 46.7106 74.7698 46.5779C73.4435 46.3127 72.8246 45.959 70.5699 44.058L69.4646 43.1738L74.0624 43.4391C76.6266 43.5717 78.8371 43.7927 79.0581 43.9254ZM67.1658 45.2074C68.7131 47.1527 67.9615 47.2411 64.69 45.5611L62.3911 44.3675L63.7174 44.058C64.469 43.8812 65.2647 43.7485 65.4858 43.7043C65.7511 43.7043 66.5026 44.3675 67.1658 45.2074ZM85.6453 45.959C85.9106 47.0642 85.8664 47.1527 85.1148 46.7548C84.6727 46.4895 84.098 45.8706 83.7885 45.3843C83.3906 44.5885 83.4349 44.5001 84.319 44.6327C84.9822 44.7211 85.4243 45.1632 85.6453 45.959ZM62.3469 47.7274C64.0269 50.822 63.7174 51.2641 59.827 51.5294C56.8207 51.7062 55.1408 51.1757 53.6376 49.4958C52.8419 48.6558 52.8861 48.6116 54.0797 47.7716C55.185 46.9758 57.3512 45.9148 59.0754 45.2959C60.4017 44.8096 61.0206 45.2516 62.3469 47.7274ZM87.3695 46.1358C87.3695 46.8432 86.6622 46.9758 86.2643 46.3127C85.9106 45.738 86.4411 44.898 86.9716 45.2074C87.1927 45.3843 87.3695 45.7822 87.3695 46.1358ZM90.2873 46.5337C91.0831 47.1084 91.0389 47.1527 89.4916 47.1969C87.9 47.1969 87.4137 46.8432 88.1211 46.18C88.5632 45.6937 89.3589 45.8264 90.2873 46.5337ZM52.9303 49.7168C53.505 50.4242 53.4608 50.4684 52.7977 49.8937C52.0461 49.3189 51.8251 48.9652 52.1787 48.9652C52.2672 48.9652 52.6208 49.3189 52.9303 49.7168ZM99.1292 52.1041L103.064 54.8009L99.925 54.6241C96.8303 54.403 94.7525 53.563 94.2662 52.2368C94.0451 51.662 94.6641 49.4073 95.062 49.4073C95.1504 49.4073 97.0072 50.601 99.1292 52.1041ZM89.2705 52.1041C90.2873 52.6346 92.8957 54.1378 95.0177 55.464C97.184 56.7903 99.3945 58.0282 100.013 58.2492C101.738 58.9124 101.251 61.6092 99.2177 62.7144C98.4661 63.1123 87.3695 64.9249 87.3695 64.6596C87.3695 64.6154 87.679 63.9523 88.0769 63.1565C89.1821 60.946 88.7842 54.3588 87.4579 52.5462C86.2643 50.9547 86.7064 50.822 89.2705 52.1041ZM104.655 60.2829C107.927 61.9186 106.954 63.1565 102.047 63.466L98.6429 63.687L100.102 62.4934C100.986 61.6976 101.517 60.8576 101.517 60.1503C101.517 59.2219 101.649 59.1334 102.533 59.3987C103.064 59.5313 104.036 59.9292 104.655 60.2829ZM53.505 60.2829C53.9471 61.3881 53.5492 61.4765 52.665 60.4597C52.0019 59.7082 51.9577 59.5755 52.5324 59.5755C52.9303 59.5755 53.3724 59.885 53.505 60.2829ZM84.0538 66.207C83.5675 66.428 82.3738 66.5606 81.4012 66.5606L79.6328 66.5164L81.4012 66.207C82.3738 66.0301 83.5675 65.8975 84.0538 65.8533L84.938 65.8091L84.0538 66.207ZM134.055 68.108L135.691 69.5669L133.966 72.5289C133.038 74.1647 132.11 75.491 131.933 75.491C131.756 75.491 131.579 73.5015 131.579 71.07C131.579 68.3732 131.756 66.6491 132.021 66.6491C132.286 66.6491 133.215 67.3122 134.055 68.108ZM131.933 84.2002C131.8 87.4717 131.667 88.0907 131.049 88.2233C130.341 88.3559 130.253 88.0023 130.253 85.3497C130.253 83.7139 130.474 81.5477 130.739 80.6193C131.491 77.8783 132.065 79.6467 131.933 84.2002Z" fill="url(#paint3_linear_2576_167)"/>
<path id="Vector_5" d="M76.3165 54.4472C75.2554 56.2156 74.6807 58.6913 75.3439 58.6913C75.6091 58.6913 76.0954 58.2493 76.3607 57.6745C77.2449 55.9946 78.5711 54.7567 79.9416 54.4914C81.5332 54.1378 81.0911 53.6073 78.8806 53.2536C77.3775 53.0325 77.1564 53.1209 76.3165 54.4472ZM78.3943 54.5357C77.7312 54.8893 76.7586 55.8619 76.3165 56.6135C75.167 58.4703 75.167 57.8072 76.3165 55.5967C77.0238 54.182 77.4659 53.8283 78.4385 53.8283L79.6322 53.8725L78.3943 54.5357Z" fill="url(#paint4_linear_2576_167)"/>
<path id="Vector_6" d="M31.6651 55.9062C31.6651 56.7019 34.2292 58.6472 36.086 59.1777C37.7218 59.664 39.3575 59.4871 42.0543 58.4703C43.5132 57.8956 39.2249 62.1839 36.6607 63.8197C34.0082 65.5438 28.9241 67.2238 24.2821 67.9312C18.4464 68.8153 13.6718 70.849 10.3561 73.9879C8.32243 75.8889 6.55405 76.8615 1.82363 78.6299C0.0110445 79.293 -0.0773744 79.4256 1.16049 79.2046C4.03411 78.7183 9.20662 75.9773 11.1076 73.9879C13.3623 71.689 17.9159 69.6553 23.2652 68.6827C30.8693 67.2238 31.7535 67.0028 34.6713 65.5438C38.0754 63.8197 42.6732 59.8408 42.9385 58.3377C43.1595 57.1882 43.2037 57.1882 41.4354 58.0724C39.7554 58.9124 36.5723 58.9566 35.1134 58.2051C34.5387 57.9398 33.5661 57.1882 32.9029 56.5693C32.1956 55.9504 31.6651 55.6409 31.6651 55.9062Z" fill="url(#paint5_linear_2576_167)"/>
</g>
<defs>
<linearGradient id="paint0_linear_2576_167" x1="26.5513" y1="45.1658" x2="135.668" y2="45.1658" gradientUnits="userSpaceOnUse">
<stop stop-color="#FECF24"/>
<stop offset="1" stop-color="#FE9724"/>
</linearGradient>
<linearGradient id="paint1_linear_2576_167" x1="75.0523" y1="56.2573" x2="80.5617" y2="56.2573" gradientUnits="userSpaceOnUse">
<stop stop-color="#FECF24"/>
<stop offset="1" stop-color="#FE9724"/>
</linearGradient>
<linearGradient id="paint2_linear_2576_167" x1="2.35938" y1="67.8886" x2="42.7161" y2="67.8886" gradientUnits="userSpaceOnUse">
<stop stop-color="#FECF24"/>
<stop offset="1" stop-color="#FE9724"/>
</linearGradient>
<linearGradient id="paint3_linear_2576_167" x1="26.8833" y1="44.8342" x2="136" y2="44.8342" gradientUnits="userSpaceOnUse">
<stop stop-color="#FECF24"/>
<stop offset="1" stop-color="#FE9724"/>
</linearGradient>
<linearGradient id="paint4_linear_2576_167" x1="75.3829" y1="55.9258" x2="80.8923" y2="55.9258" gradientUnits="userSpaceOnUse">
<stop stop-color="#FECF24"/>
<stop offset="1" stop-color="#FE9724"/>
</linearGradient>
<linearGradient id="paint5_linear_2576_167" x1="2.69" y1="67.5571" x2="43.0467" y2="67.5571" gradientUnits="userSpaceOnUse">
<stop stop-color="#FECF24"/>
<stop offset="1" stop-color="#FE9724"/>
</linearGradient>
</defs>
</svg>
