<svg width="108" height="84" viewBox="0 0 108 84" fill="none" xmlns="http://www.w3.org/2000/svg">
<path id="Vector" fill-rule="evenodd" clip-rule="evenodd" d="M0.807621 18.1387C0.115473 16.303 0.807621 13.2012 0.807621 13.2012C0.807621 13.2273 0.809576 13.2566 0.813447 13.289C0.859556 13.8974 1.23192 17.6163 3.70206 22.7598C5.27512 26.0515 7.41449 30.8624 8.48417 33.4578C10.4348 38.5853 12.5741 42.2568 15.154 44.9788C17.9226 48.0173 17.7967 46.2448 14.9023 41.3073C12.3114 36.9197 9.00938 30.4453 6.48065 24.9733C10.0613 31.5891 14.391 39.1322 16.4753 42.4467L18.363 45.4219L23.1451 42.8898C25.7879 41.5605 28.3048 40.421 28.6823 40.421C29.1228 40.421 29.5003 39.8513 29.5003 39.2183C29.5003 38.522 29.3115 38.0789 29.0599 38.2688C28.4306 38.6486 21.4462 29.09 21.8867 28.3304C22.1384 28.0139 21.9496 27.824 21.5091 27.8873C21.0058 28.0139 19.4956 25.735 17.9226 22.6332C15.6573 18.2021 15.091 16.3663 14.7135 12.4416L14.6506 6.55449C14.7135 12.1884 21.3833 26.6845 28.0531 35.2936C29.752 37.5091 30.8217 39.0917 30.3812 38.8385C29.8778 38.522 29.6891 38.5853 29.9408 38.9651C30.1925 39.4082 31.3251 39.4082 33.024 39.0917L36.4218 38.522C37.1139 38.522 36.2959 34.7872 33.4644 25.4185C31.1992 17.8855 31.3251 9.40308 33.7161 10.1627C34.2195 10.3526 34.5341 13.0113 34.7858 19.2782L35.1004 28.0772L38.1207 32.6982C39.7567 35.2303 41.4556 37.3825 41.8961 37.5091C42.2736 37.6991 45.7343 37.9523 49.5097 38.1422C56.2424 38.4587 56.3053 38.4587 55.9907 37.066C55.8851 36.4287 55.1152 33.4744 54.2383 30.1096L54.2365 30.103C54.0688 29.4593 53.8972 28.8007 53.7255 28.1405C51.3974 19.3415 50.5164 11.682 50.9569 4.78204C51.3974 -0.915138 52.4041 -1.80137 52.4041 3.6426C52.4041 11.7452 56.3682 27.634 60.4582 35.9899C62.0942 39.3449 62.283 39.4715 65.7437 40.2311C67.7572 40.6742 70.4629 41.5605 71.7843 42.2568C74.1753 43.4595 74.3012 43.4595 76.1259 42.3201C78.7058 40.8009 79.6496 39.2816 86.0677 26.9377C89.088 21.1139 91.6678 16.3663 91.7937 16.4929C91.9195 16.6195 90.2835 21.9369 88.27 28.3304C84.5576 39.5981 83.9912 42.3201 84.998 42.3201C85.6902 42.3201 95.8207 35.3569 100.729 31.4955C102.931 29.723 104.882 28.457 105.07 28.5836C105.448 28.9634 97.1421 35.3569 90.0318 40.1045C86.9486 42.1302 84.4946 44.0293 84.4946 44.2825C84.4946 45.232 87.2632 46.7512 88.9621 46.7512C89.843 46.7512 91.542 46.1182 92.7375 45.2953C96.5128 42.7632 105.07 31.5588 105.511 28.6469C105.7 27.5707 107.021 26.1148 107.461 26.5579C108.028 27.1276 102.239 36.3064 98.4634 40.8009C96.387 43.2696 93.6184 45.8017 92.297 46.4347C89.4655 47.7641 85.8789 47.321 84.4317 45.4219C83.4879 44.0926 83.362 44.0926 81.789 45.1687C80.8451 45.7384 80.09 46.4347 80.09 46.6879C80.09 46.8778 82.7957 48.8402 86.1306 51.0558L93.2409 55.8034L95.0656 57.7658C97.5196 60.3612 98.3376 62.0703 98.3376 64.5391C98.3376 67.7675 94.1847 71.3757 88.27 73.2115C85.6902 74.0344 81.0339 76.25 77.8878 78.0857C70.3371 82.5801 67.128 83.593 59.6402 83.9095C54.7323 84.1627 51.9007 83.9095 46.7411 82.8334C34.7858 80.3646 27.0463 76.1233 22.9564 69.7932C21.8867 68.084 19.9361 65.6152 18.6147 64.3492C16.6012 62.3868 16.4124 61.9437 17.3563 61.5639C19.0552 60.9309 20.1878 61.6905 21.1945 64.1593C22.2642 66.6914 25.8508 68.717 32.5835 70.4895C36.1072 71.3757 49.8872 72.5784 49.8872 72.0087C49.8872 71.8188 48.3771 70.1097 46.4894 68.084C42.3365 63.7162 41.3298 61.1841 42.3365 57.5126C43.2803 54.031 46.9928 49.9163 49.1951 49.9796C50.076 49.9796 50.3906 50.1695 49.8872 50.3595C44.2871 52.1952 41.3298 58.8419 43.8467 63.7795C45.1051 66.1216 50.076 70.6794 52.0266 71.1858C53.9143 71.6289 66.1212 69.7932 67.2539 68.8436C69.7708 66.7547 70.0854 56.3731 67.7572 52.3851C65.9325 49.22 61.8425 47.8907 54.7952 48.2705C47.9366 48.6503 41.6444 50.4227 31.8914 54.664C27.7385 56.4997 22.7676 58.3355 20.817 58.7786C16.3495 59.7914 6.91111 59.3483 3.95375 57.9557L1.75146 56.9429L3.95375 57.2594C6.53358 57.6392 6.78527 57.4493 12.4483 51.3723L16.0349 47.4476L13.8955 44.7256C10.6865 40.6109 9.93139 39.2183 7.09988 32.1285C5.71558 28.5836 3.95375 24.7222 3.2616 23.5194C2.56945 22.38 1.43685 19.9745 0.807621 18.1387ZM58.4447 33.3945C57.2492 30.4826 55.8019 26.368 55.2356 24.3423C54.6064 22.2534 53.6626 18.1387 53.0334 15.1636C51.9637 10.2893 51.8378 10.0361 51.8378 12.6315C51.7749 16.4296 52.6558 21.4305 55.1098 30.5459C56.7458 36.6229 57.375 38.2055 58.5705 38.7119C59.3256 39.0917 60.0807 39.2183 60.2694 39.0284C60.4582 38.9018 59.6402 36.3697 58.4447 33.3945ZM33.4644 22.38C33.9049 23.8359 34.0307 22.7598 34.0937 17.4424C34.1566 13.7076 34.0307 10.6691 33.9049 10.6691C32.5206 10.6691 32.2689 18.5819 33.4644 22.38ZM21.3204 27.1276C21.5091 27.1276 21.2575 26.4946 20.8799 25.6717C20.4395 24.9121 19.2439 22.6965 18.3001 20.7974C17.2933 18.8984 16.6641 18.0121 16.8529 18.8984C17.3563 20.6075 20.8799 27.1276 21.3204 27.1276ZM83.5508 41.4972C83.8025 40.3577 84.6834 37.1926 85.5643 34.4074C85.9002 33.3455 86.2635 32.1824 86.6123 31.0654C87.1786 29.2526 87.7068 27.5612 88.0183 26.6212C88.4587 25.1653 88.7104 23.9625 88.5846 23.9625C88.4588 23.9625 86.4452 27.7606 84.0542 32.3184C80.2159 39.7247 79.3979 40.9908 76.6922 42.7632C74.0495 44.599 73.1056 44.8522 69.7078 44.8522C64.7369 44.8522 64.0448 44.599 62.4088 41.9403C60.7099 39.0917 58.193 38.9651 56.6829 41.6238C55.5503 43.7127 52.53 44.6623 49.1951 43.966C47.9995 43.776 46.804 43.966 45.8602 44.5357C44.6017 45.3586 44.0354 45.3586 40.7005 44.4724C38.687 43.966 35.7926 42.8265 34.3454 41.9403C30.8846 39.9146 30.6329 39.9779 32.2689 42.7632C33.024 44.0926 34.0307 46.2448 34.5341 47.5109L35.3521 49.9163L32.7094 50.6127C27.6126 52.0053 22.8934 51.5622 19.4956 49.4099C18.1113 48.587 16.8529 48.0806 16.6641 48.2705C16.4124 48.4604 14.1472 50.7393 11.6932 53.208C6.47065 58.4621 6.53358 58.652 13.6438 58.7153C18.9922 58.7786 23.7114 57.5759 30.57 54.4108C42.0848 49.0934 50.7052 47.0044 58.9481 47.5742C65.9954 48.0806 69.4561 49.2833 77.3215 54.0943C81.0968 56.4364 86.4452 59.285 89.2138 60.4878C94.4364 62.7666 96.4499 64.096 96.4499 65.4253C96.4499 67.3244 94.3106 67.8941 85.1868 68.4005C73.672 68.9702 68.1977 69.8565 65.0516 71.5023C62.7863 72.705 61.7167 72.7683 49.1951 72.5151C34.8487 72.2619 31.3251 71.6289 25.2216 68.5904L22.1384 67.0079L23.271 68.9702C26.4171 74.3509 33.779 78.8453 43.532 81.3141C57.4379 84.859 65.9954 83.9728 76.8181 77.7692C80.5305 75.6802 85.7531 73.2115 88.3958 72.3252C97.9601 69.1601 100.288 63.7795 94.5622 58.2089C92.1083 55.8034 91.9195 55.7401 86.7598 55.5502C82.607 55.3603 81.0339 54.9805 79.7125 53.9677C77.0068 52.0053 76.5664 50.8659 77.3844 48.6503C78.0136 46.8778 77.9507 46.6246 76.5664 45.6751C75.6855 45.1687 75.1192 44.5357 75.3079 44.4091C75.4338 44.2192 76.2518 44.599 77.1327 45.1687C78.5799 46.1182 78.8316 46.0549 80.908 44.8522C82.4811 43.9026 83.2991 42.8898 83.5508 41.4972ZM36.9881 35.5468C38.0578 38.1422 39.0016 38.9651 39.9455 38.0156C40.323 37.6358 39.8196 36.433 38.3095 34.4074C35.9184 31.3056 35.415 31.7487 36.9881 35.5468ZM40.7005 41.877C43.0287 44.2192 45.4197 44.8522 45.9231 43.2063C46.0489 42.7632 45.1051 41.6238 43.7837 40.6109C42.0219 39.2183 40.9522 38.8385 39.8825 39.0917L38.3095 39.5348L40.7005 41.877ZM53.7884 43.0164C55.5502 42.3201 57.1862 40.1045 56.3053 39.5348C55.9907 39.3449 52.8446 39.0284 49.1951 38.8385L42.6511 38.4587L44.2242 39.7247C47.4332 42.4467 48.3142 42.9531 50.2018 43.3329C51.2086 43.5228 52.8446 43.3962 53.7884 43.0164ZM35.8555 41.877C40.5118 44.2825 41.5814 44.1559 39.3792 41.3706C38.4353 40.1678 37.3656 39.2183 36.9881 39.2183C36.9131 39.2334 36.7915 39.2557 36.6354 39.2843C36.1368 39.3758 35.2858 39.5319 34.4712 39.7247L32.5835 40.1678L35.8555 41.877ZM64.9257 43.5861C65.9954 44.1559 66.0583 44.0293 65.6808 42.4467C65.3662 41.3073 64.7369 40.6743 63.7931 40.5476C62.5347 40.3577 62.4717 40.4843 63.038 41.6238C63.4785 42.3201 64.2965 43.2063 64.9257 43.5861ZM28.934 50.4227C34.4712 50.0429 34.9117 49.4099 32.5206 44.9788C30.6329 41.4339 29.752 40.8009 27.8643 41.4972C25.4103 42.3834 22.3271 43.9026 20.7541 45.0421C19.0552 46.2448 18.9922 46.3081 20.1248 47.5109C22.2642 49.9163 24.6553 50.676 28.934 50.4227ZM66.5617 42.9531C67.128 43.9027 68.1348 43.7127 68.1348 42.6999C68.1348 42.1935 67.8831 41.6238 67.5685 41.3706C66.8134 40.9275 66.0583 42.1302 66.5617 42.9531ZM71.1551 44.2192C73.3573 44.1559 73.4203 44.0926 72.2877 43.2696C70.9663 42.2568 69.8337 42.0669 69.2044 42.7632C68.1977 43.7127 68.8898 44.2192 71.1551 44.2192ZM18.9293 48.0806C19.8732 48.9035 19.9361 48.8402 19.1181 47.8274C18.6776 47.2577 18.1743 46.7512 18.0484 46.7512C17.545 46.7512 17.8596 47.2577 18.9293 48.0806ZM90.4723 55.1071L84.8722 51.2457C81.8519 49.0934 79.2091 47.3843 79.0833 47.3843C78.517 47.3843 77.6361 50.6127 77.9507 51.4356C78.6428 53.3346 81.6002 54.5374 86.0048 54.8539L90.4723 55.1071ZM79.0204 56.0566C76.0001 54.1576 72.2877 52.0053 70.8404 51.2457C67.1909 49.4099 66.5617 49.5998 68.2606 51.8787C70.1483 54.4741 70.7146 63.9061 69.1415 67.0712C68.5752 68.2106 68.1348 69.1601 68.1348 69.2234C68.1348 69.6032 83.9283 67.0079 84.998 66.4381C87.8924 64.8556 88.5846 60.9942 86.1306 60.0446C85.2497 59.7281 82.1036 57.9557 79.0204 56.0566ZM89.0251 67.5143C96.0095 67.0712 97.3938 65.2987 92.7375 62.9565C91.8566 62.4501 90.4723 61.8804 89.7172 61.6905C88.4587 61.3107 88.27 61.4373 88.27 62.7666C88.27 63.7795 87.5149 64.9822 86.2565 66.1216L84.18 67.8308L89.0251 67.5143ZM18.7406 63.2097C19.999 64.6657 20.5653 64.5391 19.9361 62.9565C19.7473 62.3868 19.1181 61.9437 18.5518 61.9437C17.7338 61.9437 17.7967 62.1336 18.7406 63.2097ZM59.6402 71.9454C61.0245 71.9454 62.7234 71.7555 63.4156 71.439L64.674 70.8693L63.4156 70.9326C62.7234 70.9959 61.0245 71.1858 59.6402 71.439L57.1233 71.8821L59.6402 71.9454Z" fill="url(#paint0_linear_1080_4308)"/>
<defs>
<linearGradient id="paint0_linear_1080_4308" x1="-17.954" y1="40.8362" x2="137.35" y2="40.8362" gradientUnits="userSpaceOnUse">
<stop stop-color="#FECF24"/>
<stop offset="1" stop-color="#FE9724"/>
</linearGradient>
</defs>
</svg>
