<svg width="20" height="20" viewBox="0 0 20 20" fill="none" xmlns="http://www.w3.org/2000/svg">
<path fill-rule="evenodd" clip-rule="evenodd" d="M3.33464 10.0003C3.33476 8.71737 3.70506 7.4617 4.40113 6.38398C5.09719 5.30626 6.08944 4.45228 7.25881 3.9245C8.42818 3.39673 9.725 3.21758 10.9937 3.40855C12.2623 3.59953 13.4489 4.15251 14.4111 5.00115C15.3733 5.84979 16.0702 6.95804 16.4181 8.19292C16.7661 9.42779 16.7503 10.7368 16.3727 11.963C15.9951 13.1891 15.2718 14.2803 14.2894 15.1055C13.3071 15.9307 12.1075 16.455 10.8346 16.6153V11.667H12.5013C12.7223 11.667 12.9343 11.5792 13.0906 11.4229C13.2468 11.2666 13.3346 11.0547 13.3346 10.8337C13.3346 10.6126 13.2468 10.4007 13.0906 10.2444C12.9343 10.0881 12.7223 10.0003 12.5013 10.0003H10.8346V8.33366C10.8346 8.11265 10.9224 7.90068 11.0787 7.7444C11.235 7.58812 11.447 7.50033 11.668 7.50033H12.0846C12.3056 7.50033 12.5176 7.41253 12.6739 7.25625C12.8302 7.09997 12.918 6.88801 12.918 6.66699C12.918 6.44598 12.8302 6.23402 12.6739 6.07774C12.5176 5.92146 12.3056 5.83366 12.0846 5.83366H11.668C11.0049 5.83366 10.369 6.09705 9.9002 6.56589C9.43136 7.03473 9.16797 7.67062 9.16797 8.33366V10.0003H7.5013C7.28029 10.0003 7.06833 10.0881 6.91205 10.2444C6.75577 10.4007 6.66797 10.6126 6.66797 10.8337C6.66797 11.0547 6.75577 11.2666 6.91205 11.4229C7.06833 11.5792 7.28029 11.667 7.5013 11.667H9.16797V16.6153C7.55689 16.4122 6.07532 15.628 5.0013 14.4101C3.92729 13.1922 3.33466 11.6242 3.33464 10.0003ZM10.0013 18.3337C14.6038 18.3337 18.3346 14.6028 18.3346 10.0003C18.3346 5.39783 14.6038 1.66699 10.0013 1.66699C5.3988 1.66699 1.66797 5.39783 1.66797 10.0003C1.66797 14.6028 5.3988 18.3337 10.0013 18.3337Z" fill="black"/>
</svg>
