<svg width="20" height="21" viewBox="0 0 20 21" fill="none" xmlns="http://www.w3.org/2000/svg">
<path d="M14.9998 13.0003H4.99984L1.6665 16.3337V3.00033C1.6665 2.77931 1.7543 2.56735 1.91058 2.41107C2.06686 2.25479 2.27882 2.16699 2.49984 2.16699H14.9998C15.2209 2.16699 15.4328 2.25479 15.5891 2.41107C15.7454 2.56735 15.8332 2.77931 15.8332 3.00033V12.167C15.8332 12.388 15.7454 12.6 15.5891 12.7562C15.4328 12.9125 15.2209 13.0003 14.9998 13.0003ZM19.1665 8.00033V19.667L15.8332 16.3337H6.6665C6.44549 16.3337 6.23353 16.2459 6.07725 16.0896C5.92097 15.9333 5.83317 15.7213 5.83317 15.5003V14.667H17.4998V7.16699H18.3332C18.5542 7.16699 18.7661 7.25479 18.9224 7.41107C19.0787 7.56735 19.1665 7.77931 19.1665 8.00033ZM6.82484 3.83366C6.09984 3.83366 5.5165 4.00033 5.0665 4.32533C4.63317 4.66699 4.4165 5.14199 4.42484 5.80033L4.43317 5.82533H6.0415C6.04984 5.57533 6.12484 5.38366 6.27484 5.25033C6.42915 5.12236 6.62442 5.05431 6.82484 5.05866C7.08317 5.05866 7.29984 5.14199 7.44984 5.29199C7.59984 5.45033 7.6665 5.66699 7.6665 5.91699C7.6665 6.18366 7.60817 6.40866 7.47484 6.60033C7.35817 6.79199 7.18317 6.95866 6.9665 7.09199C6.5415 7.37533 6.24984 7.62533 6.0915 7.85033C5.92484 8.06699 5.83317 8.41699 5.83317 8.83366H7.49984C7.49984 8.57533 7.53317 8.36699 7.60817 8.21699C7.68317 8.06699 7.82484 7.91699 8.03317 7.78366C8.40817 7.58366 8.7165 7.34199 8.95817 7.00866C9.19984 6.67533 9.32484 6.33366 9.32484 5.91699C9.32484 5.28366 9.09984 4.77533 8.64984 4.40033C8.20817 4.02533 7.59984 3.83366 6.82484 3.83366ZM5.83317 9.66699V11.3337H7.49984V9.66699H5.83317ZM10.8332 11.3337H12.4998V9.66699H10.8332V11.3337ZM10.8332 3.83366V8.83366H12.4998V3.83366H10.8332Z" fill="#2D2D2D"/>
</svg>
