<svg width="30" height="30" viewBox="0 0 30 30" fill="none" xmlns="http://www.w3.org/2000/svg">
<circle cx="15" cy="15" r="15" fill="#555555"/>
<path d="M20 17.4998H9.99996L6.66663 20.8332V7.49984C6.66663 7.27882 6.75442 7.06686 6.9107 6.91058C7.06698 6.7543 7.27895 6.6665 7.49996 6.6665H20C20.221 6.6665 20.4329 6.7543 20.5892 6.91058C20.7455 7.06686 20.8333 7.27882 20.8333 7.49984V16.6665C20.8333 16.8875 20.7455 17.0995 20.5892 17.2558C20.4329 17.412 20.221 17.4998 20 17.4998ZM24.1666 12.4998V24.1665L20.8333 20.8332H11.6666C11.4456 20.8332 11.2337 20.7454 11.0774 20.5891C10.9211 20.4328 10.8333 20.2209 10.8333 19.9998V19.1665H22.5V11.6665H23.3333C23.5543 11.6665 23.7663 11.7543 23.9225 11.9106C24.0788 12.0669 24.1666 12.2788 24.1666 12.4998ZM11.825 8.33317C11.1 8.33317 10.5166 8.49984 10.0666 8.82484C9.63329 9.1665 9.41663 9.6415 9.42496 10.2998L9.43329 10.3248H11.0416C11.05 10.0748 11.125 9.88317 11.275 9.74984C11.4293 9.62187 11.6245 9.55383 11.825 9.55817C12.0833 9.55817 12.3 9.6415 12.45 9.7915C12.6 9.94984 12.6666 10.1665 12.6666 10.4165C12.6666 10.6832 12.6083 10.9082 12.475 11.0998C12.3583 11.2915 12.1833 11.4582 11.9666 11.5915C11.5416 11.8748 11.25 12.1248 11.0916 12.3498C10.925 12.5665 10.8333 12.9165 10.8333 13.3332H12.5C12.5 13.0748 12.5333 12.8665 12.6083 12.7165C12.6833 12.5665 12.825 12.4165 13.0333 12.2832C13.4083 12.0832 13.7166 11.8415 13.9583 11.5082C14.2 11.1748 14.325 10.8332 14.325 10.4165C14.325 9.78317 14.1 9.27484 13.65 8.89984C13.2083 8.52484 12.6 8.33317 11.825 8.33317ZM10.8333 14.1665V15.8332H12.5V14.1665H10.8333ZM15.8333 15.8332H17.5V14.1665H15.8333V15.8332ZM15.8333 8.33317V13.3332H17.5V8.33317H15.8333Z" fill="white"/>
</svg>
