<svg width="131" height="182" viewBox="0 0 131 182" fill="none" xmlns="http://www.w3.org/2000/svg">
<g id="rectangle">
<path id="Rectangle 96" d="M32.6813 23.4523C42.9691 19.5273 55.6198 24.4898 60.5476 34.3836L97.9796 109.538C102.649 118.913 98.6314 129.271 88.8829 132.991L10.972 162.716C0.684275 166.641 -11.9665 161.678 -16.8943 151.785L-54.3263 76.6305C-58.9958 67.2553 -54.9781 56.897 -45.2295 53.1776L32.6813 23.4523Z" stroke="white"/>
<path id="Rectangle 97" d="M36.3015 18.302C46.2655 12.7011 60.1454 16.4632 66.1082 26.3809L109.125 97.9296C114.259 106.468 111.645 116.606 103.067 121.427L29.2602 162.915C19.2963 168.516 5.41632 164.754 -0.546491 154.836L-43.5637 83.2876C-48.6973 74.7491 -46.0836 64.6116 -37.5053 59.7896L36.3015 18.302Z" stroke="#FFE600"/>
</g>
</svg>
