<svg width="77" height="224" viewBox="0 0 77 224" fill="none" xmlns="http://www.w3.org/2000/svg">
<g id="rectangle">
<path id="Rectangle 96" d="M96.9815 47.2304C105.439 40.1779 119.009 40.7723 126.873 48.5397L186.517 107.448C193.968 114.808 193.524 125.915 185.511 132.598L121.73 185.786C113.273 192.838 99.7023 192.244 91.838 184.477L32.1949 125.568C24.7433 118.209 25.1875 107.101 33.2007 100.419L96.9815 47.2304Z" stroke="white"/>
<path id="Rectangle 97" d="M98.731 41.2013C106.337 32.6657 120.68 31.7254 129.531 39.182L193.268 92.8777C200.887 99.2962 201.7 109.74 195.154 117.087L139.043 180.058C131.438 188.593 117.094 189.533 108.243 182.077L44.5061 128.381C36.8873 121.963 36.074 111.519 42.6207 104.172L98.731 41.2013Z" stroke="#FFE600"/>
</g>
</svg>
