<svg width="20" height="20" viewBox="0 0 20 20"  xmlns="http://www.w3.org/2000/svg">
<g id="gg:log-out">
<g id="Group">
<path id="Vector" d="M12.9053 17.6663H16.2386C16.6806 17.6663 17.1046 17.4907 17.4171 17.1782C17.7297 16.8656 17.9053 16.4417 17.9053 15.9997V5.99967C17.9053 5.55765 17.7297 5.13372 17.4171 4.82116C17.1046 4.5086 16.6806 4.33301 16.2386 4.33301H12.9053V5.99967H16.2386V15.9997H12.9053V17.6663Z"  />
<path id="Vector_2" d="M8.46526 15.4875L7.28193 14.3142L10.5486 11.02H2.92859C2.70758 11.02 2.49562 10.9322 2.33934 10.7759C2.18306 10.6197 2.09526 10.4077 2.09526 10.1867C2.09526 9.96568 2.18306 9.75372 2.33934 9.59744C2.49562 9.44116 2.70758 9.35336 2.92859 9.35336H10.5636L7.24693 6.06419L8.42026 4.88086L13.7461 10.1617L8.46526 15.4875Z" />
</g>
</g>
</svg>
