<svg width="20" height="20" viewBox="0 0 20 20" fill="none" xmlns="http://www.w3.org/2000/svg">
<path d="M7.5724 7.50033C7.76832 6.94338 8.15502 6.47375 8.66403 6.1746C9.17303 5.87546 9.77148 5.76611 10.3534 5.86592C10.9353 5.96573 11.4631 6.26826 11.8433 6.71993C12.2235 7.1716 12.4316 7.74326 12.4307 8.33366C12.4307 10.0003 9.93073 10.8337 9.93073 10.8337M9.9974 14.167H10.0057M18.3307 10.0003C18.3307 14.6027 14.5998 18.3337 9.9974 18.3337C5.39502 18.3337 1.66406 14.6027 1.66406 10.0003C1.66406 5.39795 5.39502 1.66699 9.9974 1.66699C14.5998 1.66699 18.3307 5.39795 18.3307 10.0003Z" stroke="#2D2D2D" stroke-width="1.5" stroke-linecap="round" stroke-linejoin="round"/>
</svg>
