<svg width="20" height="21" viewBox="0 0 20 21" fill="none" xmlns="http://www.w3.org/2000/svg">
<g id="ion:pricetag-outline">
<path id="Vector" d="M17 2.59375H12.1992C12.0499 2.59364 11.9067 2.65263 11.8008 2.75781L2.20313 12.3555C1.99298 12.5667 1.875 12.8525 1.875 13.1504C1.875 13.4483 1.99298 13.7341 2.20313 13.9453L6.77344 18.5156C6.98462 18.7258 7.27043 18.8438 7.56836 18.8438C7.86629 18.8438 8.1521 18.7258 8.36328 18.5156L13.1602 13.7188L17.957 8.92188C18.0622 8.81596 18.1212 8.67271 18.1211 8.52344V3.71875C18.1218 3.57114 18.0933 3.42485 18.0373 3.28828C17.9813 3.15172 17.8988 3.02759 17.7946 2.92303C17.6904 2.81847 17.5665 2.73555 17.4302 2.67904C17.2938 2.62253 17.1476 2.59354 17 2.59375Z" stroke="currentColor" stroke-width="1.5" stroke-linecap="round" stroke-linejoin="round"/>
<path id="Vector_2" d="M15 6.96875C14.7528 6.96875 14.5111 6.89544 14.3055 6.75809C14.1 6.62074 13.9398 6.42551 13.8452 6.1971C13.7505 5.9687 13.7258 5.71736 13.774 5.47489C13.8223 5.23241 13.9413 5.00968 14.1161 4.83487C14.2909 4.66005 14.5137 4.541 14.7561 4.49277C14.9986 4.44454 15.2499 4.46929 15.4784 4.5639C15.7068 4.65851 15.902 4.81873 16.0393 5.02429C16.1767 5.22985 16.25 5.47152 16.25 5.71875C16.25 6.05027 16.1183 6.36821 15.8839 6.60263C15.6495 6.83705 15.3315 6.96875 15 6.96875Z" fill="currentColor"/>
</g>
</svg>
