<svg xmlns="http://www.w3.org/2000/svg" width="140" height="140" viewBox="0 0 140 140" fill="none">
<path d="M89.214 5.92279C85.301 8.649 80.837 11.6838 79.2938 12.6612C75.8769 14.9244 76.2076 14.7187 71.5781 18.3193C63.8074 24.4404 63.2011 25.7778 66.0669 29.79L67.6101 32.0018L64.9096 34.3165C63.4216 35.6025 60.8313 37.7628 59.1779 39.1002C57.5246 40.4376 55.6508 42.2379 55.0445 43.0609C54.4934 43.884 53.1156 45.067 52.0134 45.6328C50.9663 46.1987 49.3129 47.4332 48.3209 48.3591C46.0062 50.6223 42.6443 55.869 42.6443 57.3092C42.6443 57.9265 42.2586 58.6981 41.8177 59.0581C41.1012 59.624 40.991 62.2473 40.991 77.01C40.991 90.4867 40.7705 95.0132 40.1643 97.5337C39.4478 100.363 39.4478 100.98 40.1643 102.523C41.0461 104.581 42.8097 104.941 43.7466 103.295C44.3528 102.215 44.2426 100.826 42.8648 93.0586C42.4239 90.6924 42.0932 85.8058 42.0932 82.1537C42.0932 75.4154 42.479 73.6151 45.6204 66.0023C46.0613 64.8706 46.4471 62.9674 46.5022 61.8358C46.5022 59.984 47.1084 59.0067 50.9111 54.2744C55.3201 48.9249 56.6979 47.6389 63.5869 42.4951C65.5709 41.0549 68.1061 38.9974 69.2634 38.02L71.3577 36.1683L72.4048 37.4542C73.7826 39.1002 73.7826 39.2545 72.1293 39.9232C70.5861 40.5919 70.3106 41.9293 71.6333 42.4437C72.2395 42.6494 72.4048 43.1124 72.1293 43.9868C71.9639 44.707 72.0742 45.5814 72.4599 45.9929C72.9559 46.5587 72.7355 47.0217 71.6333 48.3076C70.1452 49.9022 69.9248 50.6738 70.531 52.114C71.1924 53.6572 74.0582 54.4287 82.0494 55.2003C89.4896 55.869 93.3474 56.8463 93.3474 57.9779C93.3474 58.9038 91.198 59.161 80.5614 59.4182C74.5542 59.5725 69.7595 59.8811 69.8697 60.0355C70.1452 60.447 91.7491 59.7783 92.9616 59.3153C94.5599 58.6981 94.0639 57.2064 91.9145 56.229C90.7571 55.7147 87.3402 55.1489 84.0335 54.8402C74.8849 54.0172 72.5151 53.5028 71.4679 52.0626C70.6412 50.8281 70.6412 50.6738 71.6884 49.3878C72.9008 47.8447 73.5071 47.7932 81.2779 48.5134C84.4744 48.822 85.5766 48.7706 85.9073 48.2562C86.1828 47.8447 85.9624 47.2789 85.301 46.8674C84.4744 46.2501 83.1517 46.1472 79.2387 46.4044C73.7826 46.713 71.9088 46.1472 72.5702 44.3983C72.9008 43.7296 73.3417 43.5753 74.4991 43.8325C79.9001 45.067 85.8522 44.7584 85.5215 43.2153C85.301 42.0836 80.5614 41.6207 76.0973 42.2894C72.7355 42.7523 71.4128 42.3408 72.019 40.9006C72.4048 39.8718 80.341 39.0488 83.317 39.7689C83.9784 39.9232 84.5295 39.8204 84.5295 39.5117C84.5295 39.2545 83.6477 38.9974 82.6006 38.9974C80.1205 38.9974 80.1756 38.4315 82.7659 36.6312C86.4033 34.1108 92.4105 29.1213 96.9848 24.8519C99.4648 22.5887 102.716 19.811 104.26 18.7308C107.952 16.0561 108.669 14.5129 107.456 11.581C106.078 8.08318 98.9688 0.933319 96.9848 0.933319C96.6541 0.933319 93.1821 3.19658 89.214 5.92279ZM101.063 4.89404C104.811 8.13462 107.291 11.7353 105.692 11.7353C104.48 11.7353 99.1893 6.64292 97.8115 4.07103C97.1501 2.93939 96.8746 1.96207 97.1501 1.96207C97.4808 1.96207 99.1893 3.29946 101.063 4.89404ZM98.0319 5.56273C100.347 8.90619 105.252 12.9698 106.409 12.5583C107.621 12.0953 107.842 13.6385 106.85 15.1816C106.299 15.9532 104.866 17.3934 103.598 18.3193C102.386 19.2966 98.7484 22.4344 95.5519 25.2634C88.718 31.436 79.845 38.1743 77.916 38.7402C76.6485 39.1002 76.5933 39.0488 77.3649 38.2258C77.8058 37.7628 81.1125 35.1395 84.805 32.4133C95.7723 24.2861 102.551 17.5478 101.118 16.2104C100.622 15.7474 100.236 15.7474 99.4097 16.2618C98.0319 17.0334 97.7012 17.0334 98.087 16.2104C98.4177 15.2845 96.7092 13.8957 96.2132 14.6672C95.9928 14.9759 94.7252 15.696 93.4576 16.3132C90.0407 17.9593 83.1517 23.2574 80.6165 26.2408C78.2467 29.0698 78.0814 29.4813 79.2938 29.8928C80.837 30.4587 91.1429 22.4858 94.7803 17.8564C95.8274 16.4676 96.9848 15.3359 97.2603 15.3359C98.2524 15.3359 96.6541 17.8564 94.3394 19.9139C92.4105 21.6628 92.19 21.9714 93.1821 21.8685C93.8434 21.7657 94.9456 21.0455 95.6621 20.1711C98.2524 17.0848 101.339 15.5417 99.9057 18.0107C99.079 19.5024 91.9145 26.3951 89.7651 27.8353L88.1118 28.967L89.8202 26.9095C90.8122 25.7778 92.0798 24.389 92.7412 23.8746C93.4025 23.3088 93.8985 22.6401 93.8985 22.3315C93.8985 22.0229 93.2372 22.3829 92.5207 23.1545C91.8043 23.9775 91.0327 24.5947 90.8122 24.5947C90.5918 24.5947 90.8674 24.1318 91.4185 23.566C91.9696 23.0002 92.3003 22.4344 92.1349 22.28C91.6389 21.8171 81.2228 32.3619 81.2228 33.2878C81.2228 33.7507 79.9001 35.2424 78.2467 36.5798C75.3809 38.8945 74.0582 39.5117 74.0582 38.5859C74.0582 38.3287 72.4048 36.3226 70.4208 34.0593C66.3425 29.4813 65.2403 27.7839 65.2403 25.9836C65.2403 24.2861 70.9719 19.2966 80.5063 12.7126C84.6948 9.83207 89.71 6.3343 91.694 4.99691C93.6781 3.60809 95.4417 2.47646 95.607 2.47646C95.7723 2.47646 96.8746 3.86527 98.0319 5.56273ZM93.9536 17.7535C91.6389 20.7883 81.3881 29.2242 80.0654 29.2242C79.0734 29.2242 79.6245 28.2468 82.2148 25.5721C84.6397 23.0516 93.623 16.3647 94.615 16.3647C94.8905 16.3647 94.5599 16.9819 93.9536 17.7535ZM88.1118 27.8353C85.6868 30.5101 82.821 32.8248 81.9943 32.8248C81.829 32.8248 83.5926 30.973 85.9624 28.7098C88.2771 26.4465 90.3162 24.6976 90.4816 24.8519C90.5918 24.9548 89.5447 26.2922 88.1118 27.8353ZM69.6492 34.1108C71.1924 35.6539 71.2475 35.6025 64.5789 40.8491C57.4695 46.4044 57.1939 46.5587 55.8712 45.4271C54.9343 44.6041 54.8792 44.3983 55.5957 43.421C56.4223 42.2894 67.4999 32.9277 68.051 32.8762C68.2163 32.8248 68.9328 33.3906 69.6492 34.1108ZM84.4193 43.0609C84.9704 43.3696 84.8601 43.5753 83.8681 43.7811C81.2228 44.5012 75.436 43.9354 76.0422 43.0609C76.428 42.4951 83.4823 42.4951 84.4193 43.0609ZM55.6508 46.4044C55.8161 46.8674 54.7139 48.6677 53.0054 50.6738C51.352 52.577 49.2027 55.2517 48.1555 56.5891C46.1715 59.2639 45.6204 59.4696 43.967 58.338C42.9199 57.6179 42.975 57.5664 44.463 54.7374C47.4942 48.8734 54.5485 43.6782 55.6508 46.4044ZM84.2539 47.2274C85.2459 47.5875 85.301 47.6389 84.3641 47.999C82.9863 48.5134 76.9791 47.7932 77.9711 47.176C78.908 46.6102 82.7659 46.6102 84.2539 47.2274ZM44.9039 60.1383C45.8408 61.0128 46.0062 61.5786 45.6755 63.0703C45.1795 65.8994 42.5341 71.9176 42.0381 71.609C41.2665 71.1975 41.4319 60.3955 42.2034 59.6754C43.1403 58.8009 43.5812 58.9038 44.9039 60.1383ZM43.4159 100.003C43.6364 101.443 43.471 102.369 42.9199 103.089C42.0932 104.066 42.0932 104.066 41.2114 103.038C40.3296 102.009 40.3296 101.649 41.3216 94.2931L41.7625 91.2068L42.4239 94.5503C42.7546 96.402 43.1955 98.8196 43.4159 100.003Z" fill="url(#paint0_linear_480_7860)"/>
<path d="M95.5536 59.5725C95.5536 59.8297 95.8843 60.0869 96.2701 60.0869C96.6558 60.0869 97.4825 60.8585 98.0336 61.7329C99.0808 63.3275 99.1359 64.4591 99.1359 84.88C99.191 96.7107 99.0257 106.381 98.8052 106.381C98.5848 106.381 97.3723 106.021 96.1047 105.609C94.286 104.992 90.9793 104.838 81.4449 104.838H69.0998L69.0447 92.8528C69.0447 78.9132 68.5487 72.9978 67.2811 71.1975C65.9033 69.2428 64.8562 70.0658 63.4233 74.1809C61.5495 79.7876 61.7699 87.9662 64.0295 97.2765C65.0215 101.186 65.7931 104.581 65.7931 104.786C65.7931 105.198 61.6597 106.381 60.1166 106.381C58.6285 106.381 58.0774 101.134 57.7468 83.2339C57.5814 73.4607 57.4161 64.9221 57.4161 64.2019C57.4161 62.6588 59.345 61.1157 61.2739 61.1157C62.2659 61.1157 62.5415 60.9613 62.1006 60.5498C61.2739 59.7783 57.8019 61.2185 56.9752 62.7102C56.4241 63.5847 56.4241 65.8994 56.9201 72.7921C57.3059 77.7815 57.4161 84.88 57.1956 88.7892C56.6996 98.9225 58.1325 107.513 60.5575 108.541C61.2739 108.85 68.4385 108.85 80.1222 108.541C96.9314 108.078 98.5297 107.976 99.2461 107.101C99.7972 106.381 99.9626 101.957 99.9626 85.6001C99.9626 73.7179 99.7421 64.2019 99.4114 63.2246C98.6399 60.7556 95.5536 57.8236 95.5536 59.5725ZM67.3362 73.2036C67.7771 74.5409 68.1078 80.0448 68.3283 90.0752C68.6589 104.272 68.6038 104.941 67.6669 104.735C66.8402 104.632 66.2891 103.243 65.0767 98.6653C63.6437 93.4701 63.4784 91.7212 63.3682 84.5199C63.3131 77.7301 63.4784 75.8269 64.3051 73.5636C65.5176 70.4773 66.2891 70.3745 67.3362 73.2036ZM95.278 106.021C96.7661 106.381 97.7581 106.844 97.4274 107.05C96.3803 107.667 68.5487 108.13 68.5487 107.513C68.5487 105.455 68.7692 105.404 80.8387 105.404C88.7748 105.352 93.4042 105.558 95.278 106.021ZM66.9505 107.255C67.3914 108.336 67.2811 108.439 65.3522 108.439C60.9984 108.439 59.4552 107.307 62.6517 106.432C65.1869 105.712 66.4545 105.969 66.9505 107.255ZM67.8323 106.998C67.6669 107.41 67.5016 107.255 67.5016 106.69C67.4465 106.124 67.6118 105.815 67.7771 106.021C67.9425 106.175 67.9976 106.638 67.8323 106.998Z" fill="url(#paint1_linear_480_7860)"/>
<path d="M41.2118 106.124C40.826 107.05 41.3771 107.924 42.3691 107.924C43.1958 107.924 43.6918 106.947 43.3611 105.969C43.0305 105.095 41.5975 105.198 41.2118 106.124Z" fill="url(#paint2_linear_480_7860)"/>
<path d="M89.214 4.98947C85.301 7.71568 80.837 10.7505 79.2938 11.7278C75.8769 13.9911 76.2076 13.7854 71.5781 17.386C63.8074 23.5071 63.2011 24.8445 66.0669 28.8567L67.6101 31.0685L64.9096 33.3832C63.4216 34.6691 60.8313 36.8295 59.1779 38.1669C57.5246 39.5043 55.6508 41.3046 55.0445 42.1276C54.4934 42.9506 53.1156 44.1337 52.0134 44.6995C50.9663 45.2653 49.3129 46.4999 48.3209 47.4257C46.0062 49.689 42.6443 54.9357 42.6443 56.3759C42.6443 56.9932 42.2586 57.7647 41.8177 58.1248C41.1012 58.6906 40.991 61.314 40.991 76.0766C40.991 89.5534 40.7705 94.0799 40.1643 96.6004C39.4478 99.4294 39.4478 100.047 40.1643 101.59C41.0461 103.647 42.8097 104.007 43.7466 102.361C44.3528 101.281 44.2426 99.8924 42.8648 92.1253C42.4239 89.7591 42.0932 84.8725 42.0932 81.2204C42.0932 74.4821 42.479 72.6817 45.6204 65.0689C46.0613 63.9373 46.4471 62.0341 46.5022 60.9025C46.5022 59.0507 47.1084 58.0734 50.9111 53.3411C55.3201 47.9916 56.6979 46.7056 63.5869 41.5618C65.5709 40.1216 68.1061 38.064 69.2634 37.0867L71.3577 35.235L72.4048 36.5209C73.7826 38.1669 73.7826 38.3212 72.1293 38.9899C70.5861 39.6586 70.3106 40.996 71.6333 41.5104C72.2395 41.7161 72.4048 42.1791 72.1293 43.0535C71.9639 43.7736 72.0742 44.6481 72.4599 45.0596C72.9559 45.6254 72.7355 46.0883 71.6333 47.3743C70.1452 48.9689 69.9248 49.7404 70.531 51.1807C71.1924 52.7238 74.0582 53.4954 82.0494 54.267C89.4896 54.9357 93.3474 55.913 93.3474 57.0446C93.3474 57.9705 91.198 58.2277 80.5614 58.4849C74.5542 58.6392 69.7595 58.9478 69.8697 59.1021C70.1452 59.5136 91.7491 58.8449 92.9616 58.382C94.5599 57.7647 94.0639 56.273 91.9145 55.2957C90.7571 54.7814 87.3402 54.2155 84.0335 53.9069C74.8849 53.0839 72.5151 52.5695 71.4679 51.1293C70.6412 49.8948 70.6412 49.7404 71.6884 48.4545C72.9008 46.9114 73.5071 46.8599 81.2779 47.58C84.4744 47.8887 85.5766 47.8372 85.9073 47.3229C86.1828 46.9114 85.9624 46.3455 85.301 45.934C84.4744 45.3168 83.1517 45.2139 79.2387 45.4711C73.7826 45.7797 71.9088 45.2139 72.5702 43.465C72.9008 42.7963 73.3417 42.642 74.4991 42.8992C79.9001 44.1337 85.8522 43.8251 85.5215 42.2819C85.301 41.1503 80.5614 40.6874 76.0973 41.3561C72.7355 41.819 71.4128 41.4075 72.019 39.9672C72.4048 38.9385 80.341 38.1155 83.317 38.8356C83.9784 38.9899 84.5295 38.887 84.5295 38.5784C84.5295 38.3212 83.6477 38.064 82.6006 38.064C80.1205 38.064 80.1756 37.4982 82.7659 35.6979C86.4033 33.1774 92.4105 28.188 96.9848 23.9186C99.4648 21.6553 102.716 18.8777 104.26 17.7975C107.952 15.1227 108.669 13.5796 107.456 10.6476C106.078 7.14986 98.9688 0 96.9848 0C96.6541 0 93.1821 2.26326 89.214 4.98947ZM101.063 3.96072C104.811 7.2013 107.291 10.802 105.692 10.802C104.48 10.802 99.1893 5.7096 97.8115 3.13771C97.1501 2.00607 96.8746 1.02876 97.1501 1.02876C97.4808 1.02876 99.1893 2.36614 101.063 3.96072ZM98.0319 4.62941C100.347 7.97287 105.252 12.0365 106.409 11.625C107.621 11.162 107.842 12.7052 106.85 14.2483C106.299 15.0199 104.866 16.4601 103.598 17.386C102.386 18.3633 98.7484 21.501 95.5519 24.3301C88.718 30.5027 79.845 37.241 77.916 37.8068C76.6485 38.1669 76.5933 38.1155 77.3649 37.2925C77.8058 36.8295 81.1125 34.2062 84.805 31.48C95.7723 23.3528 102.551 16.6144 101.118 15.2771C100.622 14.8141 100.236 14.8141 99.4097 15.3285C98.0319 16.1001 97.7012 16.1001 98.087 15.2771C98.4177 14.3512 96.7092 12.9623 96.2132 13.7339C95.9928 14.0425 94.7252 14.7627 93.4576 15.3799C90.0407 17.0259 83.1517 22.324 80.6165 25.3074C78.2467 28.1365 78.0814 28.548 79.2938 28.9595C80.837 29.5253 91.1429 21.5525 94.7803 16.9231C95.8274 15.5342 96.9848 14.4026 97.2603 14.4026C98.2524 14.4026 96.6541 16.9231 94.3394 18.9806C92.4105 20.7295 92.19 21.0381 93.1821 20.9352C93.8434 20.8323 94.9456 20.1122 95.6621 19.2378C98.2524 16.1515 101.339 14.6084 99.9057 17.0774C99.079 18.5691 91.9145 25.4618 89.7651 26.902L88.1118 28.0336L89.8202 25.9761C90.8122 24.8445 92.0798 23.4557 92.7412 22.9413C93.4025 22.3755 93.8985 21.7068 93.8985 21.3982C93.8985 21.0895 93.2372 21.4496 92.5207 22.2212C91.8043 23.0442 91.0327 23.6614 90.8122 23.6614C90.5918 23.6614 90.8674 23.1985 91.4185 22.6327C91.9696 22.0668 92.3003 21.501 92.1349 21.3467C91.6389 20.8838 81.2228 31.4286 81.2228 32.3544C81.2228 32.8174 79.9001 34.3091 78.2467 35.6465C75.3809 37.9612 74.0582 38.5784 74.0582 37.6525C74.0582 37.3953 72.4048 35.3893 70.4208 33.126C66.3425 28.548 65.2403 26.8506 65.2403 25.0502C65.2403 23.3528 70.9719 18.3633 80.5063 11.7793C84.6948 8.89875 89.71 5.40098 91.694 4.06359C93.6781 2.67477 95.4417 1.54314 95.607 1.54314C95.7723 1.54314 96.8746 2.93195 98.0319 4.62941ZM93.9536 16.8202C91.6389 19.855 81.3881 28.2908 80.0654 28.2908C79.0734 28.2908 79.6245 27.3135 82.2148 24.6387C84.6397 22.1183 93.623 15.4314 94.615 15.4314C94.8905 15.4314 94.5599 16.0486 93.9536 16.8202ZM88.1118 26.902C85.6868 29.5768 82.821 31.8915 81.9943 31.8915C81.829 31.8915 83.5926 30.0397 85.9624 27.7765C88.2771 25.5132 90.3162 23.7643 90.4816 23.9186C90.5918 24.0215 89.5447 25.3589 88.1118 26.902ZM69.6492 33.1774C71.1924 34.7206 71.2475 34.6691 64.5789 39.9158C57.4695 45.4711 57.1939 45.6254 55.8712 44.4938C54.9343 43.6708 54.8792 43.465 55.5957 42.4877C56.4223 41.3561 67.4999 31.9944 68.051 31.9429C68.2163 31.8915 68.9328 32.4573 69.6492 33.1774ZM84.4193 42.1276C84.9704 42.4363 84.8601 42.642 83.8681 42.8478C81.2228 43.5679 75.436 43.0021 76.0422 42.1276C76.428 41.5618 83.4823 41.5618 84.4193 42.1276ZM55.6508 45.4711C55.8161 45.934 54.7139 47.7344 53.0054 49.7404C51.352 51.6436 49.2027 54.3184 48.1555 55.6558C46.1715 58.3306 45.6204 58.5363 43.967 57.4047C42.9199 56.6846 42.975 56.6331 44.463 53.804C47.4942 47.9401 54.5485 42.7449 55.6508 45.4711ZM84.2539 46.2941C85.2459 46.6542 85.301 46.7056 84.3641 47.0657C82.9863 47.58 76.9791 46.8599 77.9711 46.2427C78.908 45.6768 82.7659 45.6768 84.2539 46.2941ZM44.9039 59.205C45.8408 60.0795 46.0062 60.6453 45.6755 62.137C45.1795 64.966 42.5341 70.9843 42.0381 70.6757C41.2665 70.2642 41.4319 59.4622 42.2034 58.7421C43.1403 57.8676 43.5812 57.9705 44.9039 59.205ZM43.4159 99.0694C43.6364 100.51 43.471 101.436 42.9199 102.156C42.0932 103.133 42.0932 103.133 41.2114 102.104C40.3296 101.075 40.3296 100.715 41.3216 93.3598L41.7625 90.2735L42.4239 93.617C42.7546 95.4687 43.1955 97.8863 43.4159 99.0694Z" fill="url(#paint3_linear_480_7860)"/>
<path d="M95.5536 58.6392C95.5536 58.8964 95.8843 59.1536 96.2701 59.1536C96.6558 59.1536 97.4825 59.9251 98.0336 60.7996C99.0808 62.3942 99.1359 63.5258 99.1359 83.9466C99.191 95.7773 99.0257 105.448 98.8052 105.448C98.5848 105.448 97.3723 105.088 96.1047 104.676C94.286 104.059 90.9793 103.905 81.4449 103.905H69.0998L69.0447 91.9195C69.0447 77.9798 68.5487 72.0645 67.2811 70.2642C65.9033 68.3095 64.8562 69.1325 63.4233 73.2476C61.5495 78.8543 61.7699 87.0329 64.0295 96.3432C65.0215 100.252 65.7931 103.647 65.7931 103.853C65.7931 104.265 61.6597 105.448 60.1166 105.448C58.6285 105.448 58.0774 100.201 57.7468 82.3006C57.5814 72.5274 57.4161 63.9887 57.4161 63.2686C57.4161 61.7255 59.345 60.1823 61.2739 60.1823C62.2659 60.1823 62.5415 60.028 62.1006 59.6165C61.2739 58.8449 57.8019 60.2852 56.9752 61.7769C56.4241 62.6513 56.4241 64.9661 56.9201 71.8587C57.3059 76.8482 57.4161 83.9466 57.1956 87.8559C56.6996 97.9892 58.1325 106.579 60.5575 107.608C61.2739 107.917 68.4385 107.917 80.1222 107.608C96.9314 107.145 98.5297 107.042 99.2461 106.168C99.7972 105.448 99.9626 101.024 99.9626 84.6668C99.9626 72.7846 99.7421 63.2686 99.4114 62.2913C98.6399 59.8223 95.5536 56.8903 95.5536 58.6392ZM67.3362 72.2702C67.7771 73.6076 68.1078 79.1115 68.3283 89.1419C68.6589 103.339 68.6038 104.007 67.6669 103.802C66.8402 103.699 66.2891 102.31 65.0767 97.732C63.6437 92.5368 63.4784 90.7879 63.3682 83.5866C63.3131 76.7968 63.4784 74.8936 64.3051 72.6303C65.5176 69.544 66.2891 69.4411 67.3362 72.2702ZM95.278 105.088C96.7661 105.448 97.7581 105.911 97.4274 106.116C96.3803 106.734 68.5487 107.197 68.5487 106.579C68.5487 104.522 68.7692 104.47 80.8387 104.47C88.7748 104.419 93.4042 104.625 95.278 105.088ZM66.9505 106.322C67.3914 107.402 67.2811 107.505 65.3522 107.505C60.9984 107.505 59.4552 106.374 62.6517 105.499C65.1869 104.779 66.4545 105.036 66.9505 106.322ZM67.8323 106.065C67.6669 106.476 67.5016 106.322 67.5016 105.756C67.4465 105.19 67.6118 104.882 67.7771 105.088C67.9425 105.242 67.9976 105.705 67.8323 106.065Z" fill="url(#paint4_linear_480_7860)"/>
<path d="M41.2118 105.19C40.826 106.116 41.3771 106.991 42.3691 106.991C43.1958 106.991 43.6918 106.013 43.3611 105.036C43.0305 104.162 41.5975 104.265 41.2118 105.19Z" fill="url(#paint5_linear_480_7860)"/>
<path d="M88.4143 5.92279C84.5014 8.649 80.0373 11.6838 78.4941 12.6612C75.0772 14.9244 75.4079 14.7187 70.7785 18.3193C63.0077 24.4404 62.4014 25.7778 65.2673 29.79L66.8104 32.0018L64.1099 34.3165C62.6219 35.6025 60.0316 37.7628 58.3783 39.1002C56.7249 40.4376 54.8511 42.2379 54.2449 43.0609C53.6937 43.884 52.3159 45.067 51.2137 45.6328C50.1666 46.1987 48.5132 47.4332 47.5212 48.3591C45.2065 50.6223 41.8447 55.869 41.8447 57.3092C41.8447 57.9265 41.4589 58.6981 41.018 59.0581C40.3015 59.624 40.1913 62.2473 40.1913 77.01C40.1913 90.4867 39.9708 95.0132 39.3646 97.5337C38.6482 100.363 38.6482 100.98 39.3646 102.523C40.2464 104.581 42.01 104.941 42.9469 103.295C43.5531 102.215 43.4429 100.826 42.0651 93.0586C41.6242 90.6924 41.2935 85.8058 41.2935 82.1537C41.2935 75.4154 41.6793 73.6151 44.8207 66.0023C45.2616 64.8706 45.6474 62.9674 45.7025 61.8358C45.7025 59.984 46.3087 59.0067 50.1115 54.2744C54.5204 48.9249 55.8982 47.6389 62.7872 42.4951C64.7713 41.0549 67.3064 38.9974 68.4638 38.02L70.558 36.1683L71.6051 37.4542C72.9829 39.1002 72.9829 39.2545 71.3296 39.9232C69.7864 40.5919 69.5109 41.9293 70.8336 42.4437C71.4398 42.6494 71.6051 43.1124 71.3296 43.9868C71.1642 44.707 71.2745 45.5814 71.6603 45.9929C72.1563 46.5587 71.9358 47.0217 70.8336 48.3076C69.3456 49.9022 69.1251 50.6738 69.7313 52.114C70.3927 53.6572 73.2585 54.4287 81.2498 55.2003C88.6899 55.869 92.5477 56.8463 92.5477 57.9779C92.5477 58.9038 90.3983 59.161 79.7617 59.4182C73.7545 59.5725 68.9598 59.8811 69.07 60.0355C69.3456 60.447 90.9495 59.7783 92.1619 59.3153C93.7602 58.6981 93.2642 57.2064 91.1148 56.229C89.9575 55.7147 86.5405 55.1489 83.2338 54.8402C74.0852 54.0172 71.7154 53.5028 70.6682 52.0626C69.8416 50.8281 69.8416 50.6738 70.8887 49.3878C72.1012 47.8447 72.7074 47.7932 80.4782 48.5134C83.6747 48.822 84.7769 48.7706 85.1076 48.2562C85.3832 47.8447 85.1627 47.2789 84.5014 46.8674C83.6747 46.2501 82.352 46.1472 78.439 46.4044C72.9829 46.713 71.1091 46.1472 71.7705 44.3983C72.1012 43.7296 72.542 43.5753 73.6994 43.8325C79.1004 45.067 85.0525 44.7584 84.7218 43.2153C84.5014 42.0836 79.7617 41.6207 75.2977 42.2894C71.9358 42.7523 70.6131 42.3408 71.2194 40.9006C71.6051 39.8718 79.5413 39.0488 82.5173 39.7689C83.1787 39.9232 83.7298 39.8204 83.7298 39.5117C83.7298 39.2545 82.848 38.9974 81.8009 38.9974C79.3208 38.9974 79.3759 38.4315 81.9662 36.6312C85.6036 34.1108 91.6108 29.1213 96.1851 24.8519C98.6651 22.5887 101.917 19.811 103.46 18.7308C107.152 16.0561 107.869 14.5129 106.656 11.581C105.279 8.08318 98.1691 0.933319 96.1851 0.933319C95.8544 0.933319 92.3824 3.19658 88.4143 5.92279ZM100.263 4.89404C104.011 8.13462 106.491 11.7353 104.893 11.7353C103.68 11.7353 98.3896 6.64292 97.0118 4.07103C96.3504 2.93939 96.0749 1.96207 96.3504 1.96207C96.6811 1.96207 98.3896 3.29946 100.263 4.89404ZM97.2322 5.56273C99.5469 8.90619 104.452 12.9698 105.609 12.5583C106.822 12.0953 107.042 13.6385 106.05 15.1816C105.499 15.9532 104.066 17.3934 102.799 18.3193C101.586 19.2966 97.9487 22.4344 94.7522 25.2634C87.9183 31.436 79.0453 38.1743 77.1163 38.7402C75.8488 39.1002 75.7937 39.0488 76.5652 38.2258C77.0061 37.7628 80.3128 35.1395 84.0054 32.4133C94.9726 24.2861 101.751 17.5478 100.319 16.2104C99.8225 15.7474 99.4367 15.7474 98.61 16.2618C97.2322 17.0334 96.9016 17.0334 97.2873 16.2104C97.618 15.2845 95.9095 13.8957 95.4135 14.6672C95.1931 14.9759 93.9255 15.696 92.6579 16.3132C89.241 17.9593 82.352 23.2574 79.8168 26.2408C77.447 29.0698 77.2817 29.4813 78.4941 29.8928C80.0373 30.4587 90.3432 22.4858 93.9806 17.8564C95.0278 16.4676 96.1851 15.3359 96.4607 15.3359C97.4527 15.3359 95.8544 17.8564 93.5397 19.9139C91.6108 21.6628 91.3904 21.9714 92.3824 21.8685C93.0437 21.7657 94.146 21.0455 94.8624 20.1711C97.4527 17.0848 100.539 15.5417 99.106 18.0107C98.2794 19.5024 91.1148 26.3951 88.9654 27.8353L87.3121 28.967L89.0205 26.9095C90.0126 25.7778 91.2801 24.389 91.9415 23.8746C92.6028 23.3088 93.0988 22.6401 93.0988 22.3315C93.0988 22.0229 92.4375 22.3829 91.721 23.1545C91.0046 23.9775 90.233 24.5947 90.0126 24.5947C89.7921 24.5947 90.0677 24.1318 90.6188 23.566C91.1699 23.0002 91.5006 22.4344 91.3353 22.28C90.8392 21.8171 80.4231 32.3619 80.4231 33.2878C80.4231 33.7507 79.1004 35.2424 77.447 36.5798C74.5812 38.8945 73.2585 39.5117 73.2585 38.5859C73.2585 38.3287 71.6051 36.3226 69.6211 34.0593C65.5428 29.4813 64.4406 27.7839 64.4406 25.9836C64.4406 24.2861 70.1722 19.2966 79.7066 12.7126C83.8951 9.83207 88.9103 6.3343 90.8944 4.99691C92.8784 3.60809 94.642 2.47646 94.8073 2.47646C94.9726 2.47646 96.0749 3.86527 97.2322 5.56273ZM93.1539 17.7535C90.8392 20.7883 80.5884 29.2242 79.2657 29.2242C78.2737 29.2242 78.8248 28.2468 81.4151 25.5721C83.84 23.0516 92.8233 16.3647 93.8153 16.3647C94.0909 16.3647 93.7602 16.9819 93.1539 17.7535ZM87.3121 27.8353C84.8871 30.5101 82.0213 32.8248 81.1946 32.8248C81.0293 32.8248 82.7929 30.973 85.1627 28.7098C87.4774 26.4465 89.5166 24.6976 89.6819 24.8519C89.7921 24.9548 88.745 26.2922 87.3121 27.8353ZM68.8495 34.1108C70.3927 35.6539 70.4478 35.6025 63.7792 40.8491C56.6698 46.4044 56.3942 46.5587 55.0715 45.4271C54.1346 44.6041 54.0795 44.3983 54.796 43.421C55.6227 42.2894 66.7002 32.9277 67.2513 32.8762C67.4166 32.8248 68.1331 33.3906 68.8495 34.1108ZM83.6196 43.0609C84.1707 43.3696 84.0605 43.5753 83.0684 43.7811C80.4231 44.5012 74.6363 43.9354 75.2425 43.0609C75.6283 42.4951 82.6827 42.4951 83.6196 43.0609ZM54.8511 46.4044C55.0164 46.8674 53.9142 48.6677 52.2057 50.6738C50.5524 52.577 48.403 55.2517 47.3559 56.5891C45.3718 59.2639 44.8207 59.4696 43.1673 58.338C42.1202 57.6179 42.1753 57.5664 43.6634 54.7374C46.6945 48.8734 53.7489 43.6782 54.8511 46.4044ZM83.4542 47.2274C84.4462 47.5875 84.5014 47.6389 83.5645 47.999C82.1867 48.5134 76.1794 47.7932 77.1715 47.176C78.1084 46.6102 81.9662 46.6102 83.4542 47.2274ZM44.1042 60.1383C45.0412 61.0128 45.2065 61.5786 44.8758 63.0703C44.3798 65.8994 41.7344 71.9176 41.2384 71.609C40.4669 71.1975 40.6322 60.3955 41.4038 59.6754C42.3407 58.8009 42.7816 58.9038 44.1042 60.1383ZM42.6162 100.003C42.8367 101.443 42.6713 102.369 42.1202 103.089C41.2935 104.066 41.2935 104.066 40.4117 103.038C39.5299 102.009 39.5299 101.649 40.522 94.2931L40.9629 91.2068L41.6242 94.5503C41.9549 96.402 42.3958 98.8196 42.6162 100.003Z" fill="url(#paint6_linear_480_7860)"/>
<path d="M94.7528 59.5725C94.7528 59.8297 95.0835 60.0869 95.4693 60.0869C95.8551 60.0869 96.6817 60.8585 97.2329 61.7329C98.28 63.3275 98.3351 64.4591 98.3351 84.88C98.3902 96.7107 98.2249 106.381 98.0044 106.381C97.784 106.381 96.5715 106.021 95.3039 105.609C93.4852 104.992 90.1785 104.838 80.6441 104.838H68.2991L68.2439 92.8528C68.2439 78.9132 67.7479 72.9978 66.4804 71.1975C65.1026 69.2428 64.0554 70.0658 62.6225 74.1809C60.7487 79.7876 60.9692 87.9662 63.2287 97.2765C64.2208 101.186 64.9923 104.581 64.9923 104.786C64.9923 105.198 60.8589 106.381 59.3158 106.381C57.8278 106.381 57.2766 101.134 56.946 83.2339C56.7806 73.4607 56.6153 64.9221 56.6153 64.2019C56.6153 62.6588 58.5442 61.1157 60.4731 61.1157C61.4652 61.1157 61.7407 60.9613 61.2998 60.5498C60.4731 59.7783 57.0011 61.2185 56.1744 62.7102C55.6233 63.5847 55.6233 65.8994 56.1193 72.7921C56.5051 77.7815 56.6153 84.88 56.3949 88.7892C55.8988 98.9225 57.3318 107.513 59.7567 108.541C60.4731 108.85 67.6377 108.85 79.3215 108.541C96.1306 108.078 97.7289 107.976 98.4453 107.101C98.9964 106.381 99.1618 101.957 99.1618 85.6001C99.1618 73.7179 98.9413 64.2019 98.6107 63.2246C97.8391 60.7556 94.7528 57.8236 94.7528 59.5725ZM66.5355 73.2036C66.9764 74.5409 67.307 80.0448 67.5275 90.0752C67.8582 104.272 67.803 104.941 66.8661 104.735C66.0395 104.632 65.4883 103.243 64.2759 98.6653C62.843 93.4701 62.6776 91.7212 62.5674 84.5199C62.5123 77.7301 62.6776 75.8269 63.5043 73.5636C64.7168 70.4773 65.4883 70.3745 66.5355 73.2036ZM94.4773 106.021C95.9653 106.381 96.9573 106.844 96.6266 107.05C95.5795 107.667 67.7479 108.13 67.7479 107.513C67.7479 105.455 67.9684 105.404 80.0379 105.404C87.974 105.352 92.6035 105.558 94.4773 106.021ZM66.1497 107.255C66.5906 108.336 66.4804 108.439 64.5514 108.439C60.1976 108.439 58.6544 107.307 61.8509 106.432C64.3861 105.712 65.6537 105.969 66.1497 107.255ZM67.0315 106.998C66.8661 107.41 66.7008 107.255 66.7008 106.69C66.6457 106.124 66.811 105.815 66.9764 106.021C67.1417 106.175 67.1968 106.638 67.0315 106.998Z" fill="url(#paint7_linear_480_7860)"/>
<path d="M40.412 106.124C40.0262 107.05 40.5773 107.924 41.5693 107.924C42.396 107.924 42.892 106.947 42.5613 105.969C42.2306 105.095 40.7977 105.198 40.412 106.124Z" fill="url(#paint8_linear_480_7860)"/>
<defs>
<linearGradient id="paint0_linear_480_7860" x1="40.4194" y1="106.646" x2="42.6649" y2="106.646" gradientUnits="userSpaceOnUse">
<stop stop-color="#FECF24"/>
<stop offset="1" stop-color="#FE9724"/>
</linearGradient>
<linearGradient id="paint1_linear_480_7860" x1="40.4194" y1="106.646" x2="42.6649" y2="106.646" gradientUnits="userSpaceOnUse">
<stop stop-color="#FECF24"/>
<stop offset="1" stop-color="#FE9724"/>
</linearGradient>
<linearGradient id="paint2_linear_480_7860" x1="40.4194" y1="106.646" x2="42.6649" y2="106.646" gradientUnits="userSpaceOnUse">
<stop stop-color="#FECF24"/>
<stop offset="1" stop-color="#FE9724"/>
</linearGradient>
<linearGradient id="paint3_linear_480_7860" x1="40.4194" y1="106.646" x2="42.6649" y2="106.646" gradientUnits="userSpaceOnUse">
<stop stop-color="#FECF24"/>
<stop offset="1" stop-color="#FE9724"/>
</linearGradient>
<linearGradient id="paint4_linear_480_7860" x1="40.4194" y1="106.646" x2="42.6649" y2="106.646" gradientUnits="userSpaceOnUse">
<stop stop-color="#FECF24"/>
<stop offset="1" stop-color="#FE9724"/>
</linearGradient>
<linearGradient id="paint5_linear_480_7860" x1="40.4194" y1="106.646" x2="42.6649" y2="106.646" gradientUnits="userSpaceOnUse">
<stop stop-color="#FECF24"/>
<stop offset="1" stop-color="#FE9724"/>
</linearGradient>
<linearGradient id="paint6_linear_480_7860" x1="40.4194" y1="106.646" x2="42.6649" y2="106.646" gradientUnits="userSpaceOnUse">
<stop stop-color="#FECF24"/>
<stop offset="1" stop-color="#FE9724"/>
</linearGradient>
<linearGradient id="paint7_linear_480_7860" x1="40.4194" y1="106.646" x2="42.6649" y2="106.646" gradientUnits="userSpaceOnUse">
<stop stop-color="#FECF24"/>
<stop offset="1" stop-color="#FE9724"/>
</linearGradient>
<linearGradient id="paint8_linear_480_7860" x1="40.4194" y1="106.646" x2="42.6649" y2="106.646" gradientUnits="userSpaceOnUse">
<stop stop-color="#FECF24"/>
<stop offset="1" stop-color="#FE9724"/>
</linearGradient>
</defs>
</svg>