<svg xmlns="http://www.w3.org/2000/svg" width="137" height="124" viewBox="0 0 137 124" fill="none">
<g clip-path="url(#clip0_480_7776)">
<path d="M124.983 89.1234C124.783 88.7608 124.232 87.4982 123.736 86.3244L122.857 84.1543L123.624 82.3645C124.601 80.0278 125.099 76.4058 124.664 74.6266C124.188 72.6472 123.623 71.8153 122.243 70.9769C121.553 70.5577 120.696 69.7925 120.369 69.284C117.559 65.1725 101.605 62.6715 93.8584 65.1436C92.7213 65.5064 92.1597 65.4725 89.6191 65.0046C84.2448 63.9758 78.1308 61.9842 74.8882 60.1952L73.8022 59.6094L74.3368 58.9326C75.7123 57.0817 80.8418 51.2357 82.3459 49.85L84.0232 48.2758L86.441 47.8239C93.1018 46.5774 103.741 40.2784 108.666 34.6842C112.411 30.4255 114.048 23.5362 112.322 19.4519C110.267 14.6197 103.323 12.5736 96.4288 14.7735C91.3592 16.3913 86.2688 20.3867 81.5595 26.4716C76.4493 33.0839 74.3092 38.935 75.5067 43.1615C75.9327 44.6772 76.124 45.0158 77.1011 45.9827C78.3483 47.2097 80.5747 48.1509 82.1484 48.1548C82.694 48.1405 83.1609 48.2047 83.1849 48.2769C83.217 48.3732 82.5402 49.0954 81.6819 49.9021C80.1701 51.3435 76.6377 55.3745 74.5541 58.0108L73.5084 59.3568L72.477 58.6203C71.9216 58.2115 71.1114 57.4311 70.6978 56.8971C69.998 56.0548 69.9339 55.8622 70.1621 55.6029C70.3115 55.422 71.3502 54.2913 72.452 53.1139C74.6162 50.7983 76.312 48.0993 76.0635 47.3527C75.7909 46.534 74.2838 47.2813 72.4495 49.0921C70.4657 51.0838 69.2736 53.2491 69.3672 54.7111C69.4346 55.6219 69.2935 55.9067 68.2388 56.9892L67.0266 58.2285L65.7266 57.5511C60.3917 54.7515 44.5624 53.5693 26.6002 54.6395C16.3462 55.2478 12.0627 55.8422 12.3193 56.6128C12.4636 57.0462 15.076 57.6511 28.4682 60.2504C43.1506 63.104 49.8304 64.2756 52.5518 64.4994C54.9725 64.6859 54.3095 64.9774 59.8602 61.3413C61.6344 60.2157 63.0146 59.4023 62.9363 59.5605C62.6385 60.1616 55.2472 65.9835 37.1142 79.9219C21.6684 91.7773 20.1478 93.0351 20.474 93.4638C20.8002 93.8925 24.2261 92.5328 28.5099 90.2866C39.2473 84.6757 50.3374 78.3927 58.6646 73.1779C65.1308 69.143 67.0636 68.1 69.2904 67.3894L71.0671 66.8224L72.3438 67.5871C74.3818 68.8282 79.3927 69.9464 81.9381 69.7201C84.104 69.5351 84.2236 68.0051 82.1233 66.9704C80.102 65.9372 75.7191 65.5244 72.9062 66.049C72.1478 66.2112 71.4834 66.1834 71.3482 66.0135C70.6881 65.2118 71.2797 63.1316 72.7649 61.0592L73.5507 59.956L76.3089 61.3135C77.8385 62.0508 80.7377 63.1236 82.7728 63.7262C86.3678 64.7635 90.9592 65.8024 91.3619 65.6739C91.4803 65.6361 91.6152 65.7262 91.6553 65.8466C91.7034 65.9911 91.4512 66.1782 91.0721 66.2991C90.7168 66.4125 89.8964 66.8608 89.2498 67.2802C86.293 69.1829 84.2899 72.1398 83.9705 74.9589C83.6221 78.3202 85.5175 81.2583 89.4817 83.4831C94.5242 86.3494 103.686 88.9934 110.244 89.4846C115.979 89.9454 119.485 88.8265 121.741 85.8422L122.535 84.763L122.982 85.6327C123.213 86.0917 123.733 87.2579 124.148 88.1909C124.532 89.1074 124.962 89.8492 125.105 89.8038C125.223 89.766 125.174 89.4619 124.983 89.1234ZM112.481 89.1971C103.923 89.0774 90.7376 84.8938 86.7421 81.0008C85.5427 79.8384 85.3277 79.5074 84.7905 77.894C84.3014 76.4251 84.2355 75.8334 84.4279 74.6797C84.6889 72.9448 85.7473 70.9287 87.125 69.5567C88.2035 68.4666 91.0102 66.5853 92.0525 66.2527C92.3842 66.1468 97.2263 66.6795 102.821 67.425C117.816 69.4861 120.285 69.9767 120.63 71.0122C120.871 71.7346 120.27 75.2031 119.659 76.6765L119.112 77.9436L118.031 76.8232C115.79 74.5013 111.814 73.1063 107.821 73.235C105.109 73.3545 101.522 74.073 99.0831 75.0112C94.2281 76.8802 94.2736 78.1977 99.2429 80.6078C105.591 83.6967 111.407 84.3185 115.296 82.3047C116.771 81.5408 118.67 79.9227 118.801 79.2946C119.003 78.4045 119.703 79.2468 121.449 82.4456L122.358 84.1534L121.903 84.9114C121.299 85.9301 120.181 87.0593 119.188 87.6961C117.863 88.5184 114.719 89.2288 112.481 89.1971ZM119.955 79.1395C119.502 78.5649 119.533 78.342 120.157 76.5178C120.524 75.4151 120.935 73.6589 121.033 72.6153L121.246 70.7358L122.198 71.3911C123.427 72.2507 124.121 73.4679 124.358 75.1239C124.652 77.1879 124.081 80.4335 123.017 82.8245L122.625 83.6953L121.525 81.7288C120.935 80.665 120.234 79.5035 119.955 79.1395ZM109.59 83.0335C105.358 82.9186 98.111 80.3564 96.2829 78.329C95.1782 77.1365 97.0312 75.9324 102.015 74.6083C108.737 72.8363 114.205 73.6753 117.652 77.024C118.669 78.0315 118.845 78.3219 118.704 78.6864C118.501 79.2574 117.226 80.5434 116.099 81.4092C114.94 82.2585 111.583 83.1167 109.59 83.0335ZM117.221 69.1963C115.662 68.8415 110.803 68.101 106.467 67.5135C102.107 66.9335 97.4935 66.3012 96.1876 66.0786L93.8373 65.7097L94.9744 65.3469C99.5935 63.7929 110.558 64.6894 116.69 67.1281C118.203 67.7374 120.671 69.6404 120.15 69.8067C120.103 69.8219 118.781 69.5511 117.221 69.1963ZM21.0976 93.2115C21.0094 92.9466 24.634 90.0584 38.614 79.3101C61.7037 61.5256 64.3431 59.3779 64.0945 58.6314C63.9743 58.2702 63.0908 58.7652 58.628 61.6546C55.9077 63.4018 54.6929 64.0825 54.0369 64.1587C52.6221 64.3171 42.8164 62.6512 27.8884 59.6895C26.9623 59.5055 23.3768 58.8116 19.8941 58.1115C16.4194 57.4355 13.3638 56.759 13.1102 56.6268C12.5711 56.3459 12.7687 56.3095 17.2898 55.7992C35.7848 53.6532 59.5531 54.6728 65.4988 57.8902L66.7117 58.5421L65.8231 59.6515C64.2425 61.5945 63.9315 62.7859 64.8124 63.4638C65.1933 63.7419 65.5967 63.773 66.3074 63.5462C67.1129 63.2892 67.3727 63.0464 67.9056 61.9706C68.4931 60.7442 68.5164 60.6568 67.9895 59.5463L67.4464 58.3876L68.4068 57.4151C69.6427 56.1682 69.7455 56.1621 70.2236 56.9685C70.4547 57.3477 71.1777 58.1026 71.8523 58.6332L73.0904 59.5967L71.8512 61.857C70.8708 63.635 70.6288 64.325 70.6962 65.2359L70.7647 66.3861L69.4854 66.7944C67.4007 67.4597 65.3182 68.6037 58.3548 72.8772C46.6757 80.0674 28.3357 90.2357 22.2901 92.8576C21.856 93.0494 21.43 93.2653 21.3115 93.3031C21.2248 93.3574 21.1297 93.3078 21.0976 93.2115ZM79.1755 69.1366C76.5485 68.8027 73.3574 67.8764 72.4051 67.1414L71.6434 66.5852L72.5049 66.4968C77.5873 65.9405 82.0584 66.6182 83.1011 68.0969C83.873 69.156 82.3565 69.56 79.1755 69.1366ZM64.858 63.0497C64.7228 62.8797 64.7049 62.4326 64.7902 62.059C65.0315 61.2095 66.7456 59.0375 67.1494 59.1484C67.6086 59.2682 67.9789 60.6951 67.7609 61.4573C67.3793 62.7513 65.4703 63.7867 64.858 63.0497ZM69.7167 55.0524C69.5403 54.5226 70.3921 52.2795 71.1465 51.2395C72.011 50.0579 73.8691 48.2395 74.8943 47.6193C75.8248 47.0293 75.8678 47.7882 74.9887 49.2408C74.2743 50.4012 70.3414 55.0395 69.9467 55.1921C69.8519 55.2224 69.7488 55.1487 69.7167 55.0524ZM85.6884 47.5313C84.9926 47.5668 85.0633 47.4643 86.6713 46.3118C87.6408 45.6029 90.3138 43.8708 92.6007 42.4749C106.67 33.8828 108.475 32.6141 110.621 29.931L111.754 28.5307L111.426 29.5144C109.46 35.3366 98.6948 43.5405 88.9426 46.6793C87.5686 47.1177 86.0915 47.4826 85.6884 47.5313ZM82.7319 47.7821C77.1955 47.6042 74.4242 43.3738 76.0108 37.5129C77.3251 32.6446 81.2679 26.6978 86.4171 21.698C92.5663 15.7664 98.4632 13.4849 104.874 14.5561C106.812 14.8697 109.158 16.0125 110.302 17.1659C111.137 18.0185 111.4 18.494 112.009 20.3241C112.554 21.9617 112.692 22.77 112.601 23.5983L112.472 24.7052L111.857 23.4894C109.734 19.1587 102.46 17.777 96.5344 20.6005C90.3951 23.4921 83.6751 30.858 83.8263 34.5393C83.8463 35.4653 83.9341 35.6504 84.5213 36.0757C84.8941 36.3297 85.6861 36.5831 86.2397 36.5929C88.7391 36.7011 94.8973 34.4961 99.9302 31.7445C102.297 30.4299 106.072 27.6799 106.354 27.0306C106.549 26.5952 106.439 26.6571 103.492 28.903C100.064 31.5154 96.7338 33.1641 91.4273 34.8575C87.6924 36.076 86.7681 36.2911 85.9215 36.1883C84.8296 36.0572 84.2177 35.4 84.1893 34.3702C84.1663 32.8057 86.4275 29.2071 89.1591 26.4706C95.7643 19.9405 102.706 17.8851 108.429 20.8273C110.514 21.8936 111.707 23.3511 112.047 25.2403C112.316 26.833 111.218 28.8883 108.864 31.1846C106.643 33.3317 105.059 34.3968 96.6597 39.4747C90.3192 43.3362 86.7158 45.6583 84.9981 47.0323C83.9423 47.8754 84.0844 47.83 82.7319 47.7821Z" fill="url(#paint0_linear_480_7776)"/>
<path d="M125.171 89.6881C124.971 89.3254 124.42 88.0629 123.924 86.889L123.045 84.7189L123.811 82.9291C124.789 80.5925 125.287 76.9705 124.852 75.1913C124.376 73.2119 123.811 72.38 122.431 71.5416C121.741 71.1224 120.884 70.3571 120.557 69.8486C117.747 65.7372 101.793 63.2361 94.0462 65.7082C92.9091 66.0711 92.3475 66.0372 89.8069 65.5693C84.4327 64.5404 78.3186 62.5489 75.0761 60.7598L73.99 60.174L74.5247 59.4973C75.9002 57.6464 81.0296 51.8004 82.5337 50.4147L84.211 48.8405L86.6288 48.3886C93.2896 47.1421 103.929 40.8431 108.854 35.2489C112.599 30.9902 114.236 24.1009 112.509 20.0166C110.455 15.1844 103.51 13.1382 96.6166 15.3382C91.547 16.956 86.4566 20.9514 81.7473 27.0362C76.6372 33.6486 74.497 39.4997 75.6945 43.7262C76.1205 45.2419 76.3119 45.5804 77.2889 46.5473C78.5361 47.7744 80.7625 48.7155 82.3362 48.7195C82.8818 48.7052 83.3487 48.7693 83.3727 48.8416C83.4048 48.9379 82.728 49.66 81.8697 50.4667C80.3579 51.9082 76.8255 55.9392 74.7419 58.5755L73.6962 59.9215L72.6648 59.185C72.1094 58.7762 71.2993 57.9958 70.8856 57.4618C70.1859 56.6195 70.1217 56.4269 70.3499 56.1676C70.4993 55.9867 71.538 54.856 72.6398 53.6786C74.804 51.3629 76.4999 48.6639 76.2513 47.9174C75.9787 47.0987 74.4717 47.846 72.6373 49.6568C70.6536 51.6485 69.4614 53.8138 69.555 55.2757C69.6224 56.1866 69.4814 56.4714 68.4266 57.5539L67.2144 58.7932L65.9144 58.1158C60.5796 55.3162 44.7502 54.134 26.788 55.2042C16.534 55.8125 12.2506 56.4069 12.5071 57.1775C12.6514 57.6109 15.2638 58.2158 28.6561 60.8151C43.3385 63.6686 50.0182 64.8403 52.7396 65.0641C55.1603 65.2506 54.4973 65.5421 60.0481 61.906C61.8223 60.7803 63.2025 59.9669 63.1241 60.1251C62.8263 60.7263 55.4351 66.5482 37.302 80.4866C21.8562 92.342 20.3356 93.5998 20.6618 94.0285C20.988 94.4572 24.4139 93.0975 28.6978 90.8513C39.4351 85.2403 50.5252 78.9574 58.8524 73.7426C65.3187 69.7077 67.2514 68.6647 69.4782 67.9541L71.255 67.3871L72.5316 68.1518C74.5697 69.3929 79.5805 70.511 82.1259 70.2848C84.2919 70.0998 84.4114 68.5698 82.3111 67.5351C80.2898 66.5018 75.9069 66.089 73.094 66.6137C72.3356 66.7758 71.6712 66.7481 71.536 66.5781C70.876 65.7764 71.4675 63.6963 72.9527 61.6239L73.7385 60.5207L76.4967 61.8782C78.0263 62.6155 80.9255 63.6883 82.9606 64.2909C86.5556 65.3281 91.147 66.367 91.5497 66.2385C91.6682 66.2007 91.803 66.2909 91.8431 66.4113C91.8912 66.5558 91.639 66.7428 91.26 66.8638C90.9046 66.9772 90.0842 67.4255 89.4377 67.8449C86.4808 69.7475 84.4777 72.7044 84.1584 75.5236C83.8099 78.8848 85.7054 81.823 89.6695 84.0478C94.7121 86.914 103.874 89.5581 110.432 90.0493C116.167 90.51 119.673 89.3912 121.929 86.4068L122.723 85.3277L123.17 86.1974C123.401 86.6563 123.921 87.8226 124.336 88.7556C124.72 89.6721 125.15 90.4138 125.292 90.3685C125.411 90.3307 125.362 90.0266 125.171 89.6881ZM112.668 89.7618C104.111 89.6421 90.9254 85.4585 86.9299 81.5654C85.7305 80.4031 85.5155 80.0721 84.9783 78.4587C84.4893 76.9897 84.4233 76.3981 84.6158 75.2444C84.8767 73.5095 85.9352 71.4934 87.3128 70.1214C88.3913 69.0313 91.198 67.15 92.2403 66.8173C92.572 66.7115 97.4141 67.2441 103.009 67.9896C118.004 70.0508 120.473 70.5414 120.818 71.5769C121.058 72.2993 120.457 75.7678 119.847 77.2412L119.299 78.5082L118.219 77.3879C115.978 75.066 112.002 73.6709 108.009 73.7997C105.297 73.9192 101.71 74.6376 99.2709 75.5759C94.4159 77.4449 94.4615 78.7624 99.4308 81.1725C105.779 84.2614 111.594 84.8831 115.484 82.8694C116.959 82.1055 118.858 80.4873 118.989 79.8593C119.191 78.9691 119.891 79.8114 121.637 83.0103L122.546 84.7181L122.091 85.4761C121.487 86.4948 120.369 87.624 119.375 88.2608C118.051 89.0831 114.906 89.7935 112.668 89.7618ZM120.143 79.7042C119.69 79.1296 119.72 78.9067 120.345 77.0824C120.711 75.9798 121.123 74.2235 121.221 73.1799L121.434 71.3005L122.385 71.9557C123.615 72.8154 124.309 74.0326 124.546 75.6886C124.84 77.7526 124.269 80.9982 123.205 83.3892L122.813 84.26L121.713 82.2935C121.123 81.2297 120.422 80.0682 120.143 79.7042ZM109.778 83.5981C105.546 83.4832 98.2988 80.921 96.4707 78.8937C95.3661 77.7011 97.219 76.4971 102.203 75.173C108.925 73.4009 114.393 74.2399 117.84 77.5887C118.857 78.5962 119.032 78.8865 118.892 79.2511C118.689 79.822 117.413 81.1081 116.286 81.9739C115.128 82.8231 111.771 83.6813 109.778 83.5981ZM117.409 69.7609C115.85 69.4061 110.991 68.6657 106.655 68.0782C102.295 67.4982 97.6813 66.8659 96.3755 66.6432L94.0251 66.2744L95.1622 65.9115C99.7813 64.3575 110.746 65.254 116.878 67.6928C118.391 68.3021 120.859 70.2051 120.338 70.3714C120.291 70.3865 118.969 70.1157 117.409 69.7609ZM21.2854 93.7762C21.1972 93.5113 24.8218 90.623 38.8018 79.8748C61.8915 62.0902 64.5309 59.9426 64.2824 59.1961C64.1621 58.8349 63.2787 59.3299 58.8158 62.2193C56.0955 63.9665 54.8808 64.6472 54.2247 64.7233C52.8099 64.8818 43.0043 63.2158 28.0762 60.2542C27.1502 60.0702 23.5647 59.3763 20.0819 58.6762C16.6072 58.0002 13.5516 57.3236 13.298 57.1915C12.759 56.9106 12.9565 56.8742 17.4776 56.3638C35.9726 54.2178 59.741 55.2375 65.6866 58.4549L66.8995 59.1068L66.011 60.2162C64.4303 62.1592 64.1194 63.3506 65.0003 64.0285C65.3811 64.3066 65.7846 64.3377 66.4952 64.1109C67.3007 63.8538 67.5606 63.6111 68.0934 62.5353C68.6809 61.3088 68.7043 61.2215 68.1773 60.1109L67.6343 58.9522L68.5946 57.9798C69.8305 56.7329 69.9333 56.7267 70.4114 57.5332C70.6425 57.9123 71.3656 58.6672 72.0402 59.1979L73.2782 60.1614L72.039 62.4217C71.0586 64.1997 70.8166 64.8897 70.884 65.8005L70.9525 66.9508L69.6732 67.3591C67.5885 68.0243 65.506 69.1684 58.5426 73.4418C46.8635 80.632 28.5236 90.8003 22.4779 93.4223C22.0439 93.6141 21.6178 93.83 21.4994 93.8678C21.4126 93.9221 21.3175 93.8725 21.2854 93.7762ZM79.3633 69.7012C76.7364 69.3674 73.5452 68.4411 72.5929 67.706L71.8312 67.1499L72.6928 67.0614C77.7751 66.5051 82.2462 67.1829 83.2889 68.6616C84.0608 69.7206 82.5443 70.1247 79.3633 69.7012ZM65.0458 63.6144C64.9106 63.4444 64.8928 62.9972 64.978 62.6237C65.2193 61.7742 66.9334 59.6021 67.3372 59.713C67.7964 59.8329 68.1667 61.2598 67.9487 62.022C67.5671 63.3159 65.6581 64.3514 65.0458 63.6144ZM69.9045 55.6171C69.7281 55.0873 70.5799 52.8441 71.3344 51.8042C72.1989 50.6225 74.0569 48.8042 75.0821 48.184C76.0126 47.594 76.0556 48.3528 75.1765 49.8055C74.4621 50.9659 70.5292 55.6042 70.1345 55.7568C70.0397 55.787 69.9366 55.7134 69.9045 55.6171ZM85.8762 48.0959C85.1805 48.1315 85.2512 48.029 86.8592 46.8765C87.8286 46.1675 90.5016 44.4354 92.7886 43.0396C106.857 34.4474 108.663 33.1787 110.809 30.4957L111.942 29.0954L111.614 30.079C109.648 35.9013 98.8826 44.1052 89.1305 47.2439C87.7564 47.6824 86.2793 48.0472 85.8762 48.0959ZM82.9197 48.3468C77.3833 48.1689 74.6121 43.9384 76.1987 38.0775C77.513 33.2093 81.4558 27.2625 86.6049 22.2627C92.7541 16.331 98.651 14.0496 105.061 15.1207C107 15.4344 109.346 16.5771 110.49 17.7305C111.325 18.5832 111.588 19.0586 112.197 20.8888C112.742 22.5263 112.88 23.3347 112.789 24.163L112.66 25.2699L112.045 24.0541C109.922 19.7234 102.648 18.3417 96.7222 21.1652C90.5829 24.0568 83.8629 31.4226 84.0141 35.104C84.0341 36.03 84.122 36.215 84.7091 36.6404C85.0819 36.8944 85.8739 37.1478 86.4275 37.1576C88.9269 37.2657 95.0852 35.0607 100.118 32.3091C102.484 30.9945 106.26 28.2446 106.542 27.5953C106.737 27.1599 106.627 27.2217 103.679 29.4677C100.251 32.0801 96.9217 33.7288 91.6152 35.4222C87.8802 36.6407 86.9559 36.8558 86.1093 36.753C85.0174 36.6219 84.4055 35.9647 84.3771 34.9348C84.3542 33.3704 86.6153 29.7717 89.347 27.0352C95.9521 20.5052 102.894 18.4498 108.617 21.3919C110.702 22.4582 111.894 23.9157 112.235 25.805C112.503 27.3977 111.406 29.4529 109.052 31.7493C106.831 33.8964 105.247 34.9615 96.8476 40.0394C90.5071 43.9009 86.9036 46.223 85.1859 47.597C84.1301 48.4401 84.2722 48.3947 82.9197 48.3468Z" fill="url(#paint1_linear_480_7776)"/>
<path d="M125.008 88.189C124.809 87.8264 124.257 86.5638 123.762 85.39L122.882 83.2199L123.649 81.43C124.627 79.0934 125.124 75.4714 124.689 73.6922C124.213 71.7128 123.648 70.8809 122.268 70.0425C121.578 69.6233 120.721 68.8581 120.394 68.3495C117.584 64.2381 101.63 61.7371 93.8836 64.2091C92.7465 64.572 92.1848 64.5381 89.6442 64.0702C84.27 63.0413 78.1559 61.0498 74.9134 59.2607L73.8273 58.6749L74.362 57.9982C75.7375 56.1473 80.8669 50.3013 82.3711 48.9156L84.0483 47.3414L86.4661 46.8895C93.1269 45.643 103.766 39.344 108.691 33.7498C112.436 29.4911 114.073 22.6018 112.347 18.5175C110.292 13.6853 103.348 11.6392 96.4539 13.8391C91.3843 15.4569 86.2939 19.4523 81.5847 25.5371C76.4745 32.1495 74.3343 38.0006 75.5318 42.2271C75.9578 43.7428 76.1492 44.0814 77.1263 45.0483C78.3734 46.2753 80.5998 47.2164 82.1736 47.2204C82.7191 47.2061 83.186 47.2702 83.2101 47.3425C83.2421 47.4388 82.5653 48.161 81.707 48.9677C80.1952 50.4091 76.6629 54.4401 74.5792 57.0764L73.5336 58.4224L72.5022 57.6859C71.9467 57.2771 71.1366 56.4967 70.7229 55.9627C70.0232 55.1204 69.959 54.9278 70.1872 54.6685C70.3366 54.4876 71.3754 53.3569 72.4771 52.1795C74.6413 49.8638 76.3372 47.1648 76.0886 46.4183C75.816 45.5996 74.309 46.3469 72.4747 48.1577C70.4909 50.1494 69.2987 52.3147 69.3923 53.7766C69.4597 54.6875 69.3187 54.9723 68.2639 56.0548L67.0517 57.2941L65.7517 56.6167C60.4169 53.8171 44.5875 52.6349 26.6253 53.7051C16.3713 54.3134 12.0879 54.9078 12.3444 55.6784C12.4888 56.1118 15.1012 56.7167 28.4934 59.316C43.1758 62.1695 49.8555 63.3412 52.5769 63.565C54.9976 63.7515 54.3347 64.043 59.8854 60.4069C61.6596 59.2813 63.0398 58.4678 62.9614 58.626C62.6637 59.2272 55.2724 65.0491 37.1394 78.9875C21.6935 90.8429 20.173 92.1007 20.4991 92.5294C20.8253 92.9581 24.2512 91.5984 28.5351 89.3522C39.2724 83.7413 50.3626 77.4583 58.6897 72.2435C65.156 68.2086 67.0887 67.1656 69.3156 66.455L71.0923 65.888L72.369 66.6527C74.407 67.8938 79.4179 69.0119 81.9632 68.7857C84.1292 68.6007 84.2488 67.0707 82.1484 66.036C80.1272 65.0027 75.7442 64.5899 72.9314 65.1146C72.1729 65.2767 71.5085 65.249 71.3733 65.079C70.7133 64.2774 71.3048 62.1972 72.79 60.1248L73.5758 59.0216L76.334 60.3791C77.8636 61.1164 80.7628 62.1892 82.7979 62.7918C86.3929 63.829 90.9843 64.868 91.387 64.7394C91.5055 64.7016 91.6403 64.7918 91.6804 64.9122C91.7285 65.0567 91.4763 65.2437 91.0973 65.3647C90.7419 65.4781 89.9215 65.9264 89.275 66.3458C86.3181 68.2485 84.315 71.2053 83.9957 74.0245C83.6472 77.3857 85.5427 80.3239 89.5068 82.5487C94.5494 85.415 103.711 88.059 110.269 88.5502C116.004 89.0109 119.511 87.8921 121.767 84.9078L122.56 83.8286L123.007 84.6983C123.239 85.1573 123.758 86.3235 124.173 87.2565C124.557 88.173 124.988 88.9148 125.13 88.8694C125.248 88.8316 125.199 88.5275 125.008 88.189ZM112.506 88.2627C103.949 88.143 90.7627 83.9594 86.7673 80.0663C85.5679 78.904 85.3528 78.573 84.8157 76.9596C84.3266 75.4906 84.2606 74.899 84.4531 73.7453C84.7141 72.0104 85.7725 69.9943 87.1502 68.6223C88.2286 67.5322 91.0353 65.6509 92.0777 65.3182C92.4093 65.2124 97.2515 65.7451 102.846 66.4905C117.841 68.5517 120.311 69.0423 120.655 70.0778C120.896 70.8002 120.295 74.2687 119.685 75.7421L119.137 77.0092L118.056 75.8888C115.816 73.5669 111.839 72.1718 107.846 72.3006C105.135 72.4201 101.548 73.1385 99.1082 74.0768C94.2533 75.9458 94.2988 77.2633 99.2681 79.6734C105.616 82.7623 111.432 83.384 115.321 81.3703C116.797 80.6064 118.695 78.9883 118.827 78.3602C119.028 77.4701 119.728 78.3123 121.474 81.5112L122.384 83.219L121.928 83.977C121.324 84.9957 120.206 86.1249 119.213 86.7617C117.888 87.584 114.744 88.2944 112.506 88.2627ZM119.98 78.2051C119.527 77.6305 119.558 77.4076 120.182 75.5834C120.549 74.4807 120.96 72.7244 121.058 71.6809L121.271 69.8014L122.223 70.4567C123.452 71.3163 124.146 72.5335 124.383 74.1895C124.677 76.2535 124.106 79.4991 123.042 81.8901L122.65 82.7609L121.55 80.7944C120.96 79.7306 120.259 78.5691 119.98 78.2051ZM109.615 82.099C105.384 81.9842 98.1361 79.4219 96.308 77.3946C95.2034 76.202 97.0563 74.998 102.04 73.6739C108.762 71.9019 114.23 72.7409 117.678 76.0896C118.694 77.0971 118.87 77.3874 118.729 77.752C118.526 78.323 117.251 79.609 116.124 80.4748C114.965 81.3241 111.608 82.1822 109.615 82.099ZM117.247 68.2619C115.687 67.9071 110.828 67.1666 106.492 66.5791C102.132 65.9991 97.5186 65.3668 96.2128 65.1441L93.8624 64.7753L94.9995 64.4124C99.6187 62.8585 110.583 63.755 116.715 66.1937C118.228 66.803 120.696 68.706 120.175 68.8723C120.128 68.8874 118.806 68.6167 117.247 68.2619ZM21.1227 92.2771C21.0345 92.0122 24.6591 89.124 38.6391 78.3757C61.7288 60.5911 64.3682 58.4435 64.1197 57.697C63.9994 57.3358 63.116 57.8308 58.6532 60.7202C55.9328 62.4674 54.7181 63.1481 54.0621 63.2242C52.6472 63.3827 42.8416 61.7168 27.9136 58.7551C26.9875 58.5711 23.402 57.8772 19.9193 57.1771C16.4445 56.5011 13.389 55.8246 13.1353 55.6924C12.5963 55.4115 12.7938 55.3751 17.3149 54.8647C35.81 52.7188 59.5783 53.7384 65.5239 56.9558L66.7368 57.6077L65.8483 58.7171C64.2676 60.6601 63.9567 61.8515 64.8376 62.5294C65.2184 62.8075 65.6219 62.8386 66.3326 62.6118C67.138 62.3547 67.3979 62.112 67.9307 61.0362C68.5183 59.8097 68.5416 59.7224 68.0146 58.6119L67.4716 57.4532L68.4319 56.4807C69.6678 55.2338 69.7706 55.2277 70.2488 56.0341C70.4798 56.4132 71.2029 57.1682 71.8775 57.6988L73.1155 58.6623L71.8763 60.9226C70.8959 62.7006 70.6539 63.3906 70.7213 64.3014L70.7898 65.4517L69.5106 65.86C67.4259 66.5252 65.3433 67.6693 58.38 71.9427C46.7008 79.133 28.3609 89.3013 22.3152 91.9232C21.8812 92.115 21.4551 92.3309 21.3367 92.3687C21.2499 92.423 21.1548 92.3734 21.1227 92.2771ZM79.2007 68.2021C76.5737 67.8683 73.3825 66.942 72.4302 66.2069L71.6685 65.6508L72.5301 65.5624C77.6124 65.0061 82.0835 65.6838 83.1262 67.1625C83.8981 68.2215 82.3816 68.6256 79.2007 68.2021ZM64.8831 62.1153C64.7479 61.9453 64.7301 61.4982 64.8154 61.1246C65.0567 60.2751 66.7707 58.1031 67.1745 58.2139C67.6338 58.3338 68.004 59.7607 67.7861 60.5229C67.4044 61.8168 65.4954 62.8523 64.8831 62.1153ZM69.7418 54.118C69.5655 53.5882 70.4172 51.345 71.1717 50.3051C72.0362 49.1235 73.8942 47.3051 74.9194 46.6849C75.8499 46.0949 75.8929 46.8537 75.0138 48.3064C74.2995 49.4668 70.3665 54.1051 69.9718 54.2577C69.8771 54.2879 69.7739 54.2143 69.7418 54.118ZM85.7135 46.5969C85.0178 46.6324 85.0885 46.5299 86.6965 45.3774C87.666 44.6685 90.3389 42.9364 92.6259 41.5405C106.695 32.9483 108.5 31.6796 110.647 28.9966L111.779 27.5963L111.451 28.58C109.485 34.4022 98.7199 42.6061 88.9678 45.7448C87.5938 46.1833 86.1166 46.5481 85.7135 46.5969ZM82.7571 46.8477C77.2206 46.6698 74.4494 42.4393 76.036 36.5785C77.3503 31.7102 81.2931 25.7634 86.4422 20.7636C92.5914 14.8319 98.4883 12.5505 104.899 13.6217C106.838 13.9353 109.184 15.0781 110.328 16.2315C111.162 17.0841 111.425 17.5596 112.034 19.3897C112.58 21.0272 112.718 21.8356 112.626 22.6639L112.497 23.7708L111.883 22.555C109.759 18.2243 102.486 16.8426 96.5595 19.6661C90.4202 22.5577 83.7002 29.9236 83.8514 33.6049C83.8714 34.5309 83.9593 34.716 84.5464 35.1413C84.9192 35.3953 85.7112 35.6487 86.2648 35.6585C88.7642 35.7666 94.9225 33.5617 99.9553 30.8101C102.322 29.4955 106.097 26.7455 106.379 26.0962C106.575 25.6608 106.464 25.7226 103.517 27.9686C100.089 30.581 96.759 32.2297 91.4525 33.9231C87.7175 35.1416 86.7933 35.3567 85.9466 35.2539C84.8547 35.1228 84.2428 34.4656 84.2144 33.4357C84.1915 31.8713 86.4526 28.2727 89.1843 25.5362C95.7894 19.0061 102.731 16.9507 108.454 19.8928C110.539 20.9592 111.732 22.4166 112.072 24.3059C112.341 25.8986 111.243 27.9539 108.889 30.2502C106.669 32.3973 105.084 33.4624 96.6849 38.5403C90.3444 42.4018 86.741 44.7239 85.0233 46.0979C83.9674 46.941 84.1096 46.8956 82.7571 46.8477Z" fill="url(#paint2_linear_480_7776)"/>
<path d="M125.196 88.7536C124.996 88.391 124.445 87.1284 123.949 85.9546L123.07 83.7845L123.837 81.9947C124.814 79.658 125.312 76.0361 124.877 74.2569C124.401 72.2775 123.836 71.4456 122.456 70.6072C121.766 70.188 120.909 69.4227 120.582 68.9142C117.772 64.8028 101.818 62.3017 94.0714 64.7738C92.9343 65.1367 92.3727 65.1028 89.8321 64.6349C84.4578 63.606 78.3438 61.6145 75.1012 59.8254L74.0152 59.2396L74.5499 58.5628C75.9253 56.712 81.0548 50.866 82.5589 49.4802L84.2362 47.906L86.654 47.4542C93.3148 46.2076 103.954 39.9087 108.879 34.3144C112.624 30.0558 114.261 23.1664 112.535 19.0822C110.48 14.25 103.536 12.2038 96.6418 14.4038C91.5722 16.0216 86.4818 20.017 81.7725 26.1018C76.6624 32.7142 74.5222 38.5653 75.7197 42.7918C76.1457 44.3075 76.337 44.646 77.3141 45.6129C78.5613 46.84 80.7877 47.7811 82.3614 47.7851C82.907 47.7708 83.3739 47.8349 83.3979 47.9072C83.43 48.0035 82.7532 48.7256 81.8949 49.5323C80.3831 50.9738 76.8507 55.0048 74.7671 57.641L73.7214 58.987L72.69 58.2506C72.1346 57.8418 71.3244 57.0614 70.9108 56.5274C70.2111 55.6851 70.1469 55.4924 70.3751 55.2332C70.5245 55.0523 71.5632 53.9216 72.665 52.7442C74.8292 50.4285 76.525 47.7295 76.2765 46.983C76.0039 46.1642 74.4969 46.9116 72.6625 48.7224C70.6788 50.7141 69.4866 52.8794 69.5802 54.3413C69.6476 55.2522 69.5066 55.537 68.4518 56.6195L67.2396 57.8588L65.9396 57.1814C60.6048 54.3818 44.7754 53.1996 26.8132 54.2698C16.5592 54.8781 12.2757 55.4724 12.5323 56.243C12.6766 56.6765 15.289 57.2814 28.6813 59.8807C43.3637 62.7342 50.0434 63.9059 52.7648 64.1297C55.1855 64.3162 54.5225 64.6077 60.0733 60.9715C61.8475 59.8459 63.2277 59.0325 63.1493 59.1907C62.8515 59.7919 55.4603 65.6138 37.3272 79.5521C21.8814 91.4076 20.3608 92.6654 20.687 93.0941C21.0132 93.5228 24.4391 92.1631 28.723 89.9169C39.4603 84.3059 50.5504 78.0229 58.8776 72.8081C65.3439 68.7733 67.2766 67.7303 69.5034 67.0197L71.2802 66.4527L72.5568 67.2174C74.5948 68.4584 79.6057 69.5766 82.1511 69.3504C84.3171 69.1653 84.4366 67.6354 82.3363 66.6007C80.315 65.5674 75.9321 65.1546 73.1192 65.6793C72.3608 65.8414 71.6964 65.8137 71.5612 65.6437C70.9012 64.842 71.4927 62.7618 72.9779 60.6895L73.7637 59.5863L76.5219 60.9438C78.0515 61.6811 80.9507 62.7539 82.9858 63.3565C86.5808 64.3937 91.1722 65.4326 91.5749 65.3041C91.6933 65.2663 91.8282 65.3565 91.8683 65.4769C91.9164 65.6214 91.6642 65.8084 91.2851 65.9294C90.9298 66.0428 90.1094 66.4911 89.4629 66.9105C86.506 68.8131 84.5029 71.77 84.1836 74.5892C83.8351 77.9504 85.7306 80.8886 89.6947 83.1134C94.7372 85.9796 103.899 88.6236 110.457 89.1149C116.192 89.5756 119.698 88.4567 121.954 85.4724L122.748 84.3933L123.195 85.263C123.426 85.7219 123.946 86.8882 124.361 87.8212C124.745 88.7377 125.175 89.4794 125.318 89.4341C125.436 89.3963 125.387 89.0922 125.196 88.7536ZM112.694 88.8274C104.137 88.7076 90.9506 84.5241 86.9551 80.631C85.7557 79.4687 85.5407 79.1377 85.0035 77.5242C84.5145 76.0553 84.4485 75.4636 84.641 74.31C84.9019 72.5751 85.9604 70.559 87.338 69.187C88.4165 68.0969 91.2232 66.2155 92.2655 65.8829C92.5972 65.7771 97.4393 66.3097 103.034 67.0552C118.029 69.1163 120.498 69.607 120.843 70.6424C121.084 71.3649 120.483 74.8334 119.872 76.3068L119.325 77.5738L118.244 76.4535C116.003 74.1316 112.027 72.7365 108.034 72.8652C105.322 72.9848 101.735 73.7032 99.2961 74.6415C94.4411 76.5105 94.4867 77.8279 99.456 80.2381C105.804 83.327 111.62 83.9487 115.509 81.9349C116.984 81.1711 118.883 79.5529 119.014 78.9249C119.216 78.0347 119.916 78.877 121.662 82.0759L122.571 83.7837L122.116 84.5417C121.512 85.5603 120.394 86.6896 119.401 87.3263C118.076 88.1487 114.932 88.859 112.694 88.8274ZM120.168 78.7698C119.715 78.1952 119.746 77.9723 120.37 76.148C120.737 75.0453 121.148 73.2891 121.246 72.2455L121.459 70.3661L122.411 71.0213C123.64 71.881 124.334 73.0982 124.571 74.7542C124.865 76.8182 124.294 80.0638 123.23 82.4548L122.838 83.3256L121.738 81.3591C121.148 80.2953 120.447 79.1338 120.168 78.7698ZM109.803 82.6637C105.571 82.5488 98.324 79.9866 96.4959 77.9593C95.3913 76.7667 97.2442 75.5627 102.228 74.2386C108.95 72.4665 114.418 73.3055 117.865 76.6542C118.882 77.6617 119.058 77.9521 118.917 78.3167C118.714 78.8876 117.439 80.1737 116.312 81.0395C115.153 81.8887 111.796 82.7469 109.803 82.6637ZM117.434 68.8265C115.875 68.4717 111.016 67.7313 106.68 67.1438C102.32 66.5638 97.7065 65.9314 96.4006 65.7088L94.0503 65.34L95.1874 64.9771C99.8065 63.4231 110.771 64.3196 116.903 66.7583C118.416 67.3677 120.884 69.2707 120.363 69.437C120.316 69.4521 118.994 69.1813 117.434 68.8265ZM21.3106 92.8418C21.2224 92.5769 24.847 89.6886 38.827 78.9403C61.9167 61.1558 64.5561 59.0082 64.3076 58.2617C64.1873 57.9004 63.3038 58.3955 58.841 61.2849C56.1207 63.0321 54.906 63.7128 54.2499 63.7889C52.8351 63.9474 43.0295 62.2814 28.1014 59.3198C27.1754 59.1358 23.5898 58.4419 20.1071 57.7418C16.6324 57.0658 13.5768 56.3892 13.3232 56.2571C12.7842 55.9762 12.9817 55.9398 17.5028 55.4294C35.9978 53.2834 59.7662 54.3031 65.7118 57.5205L66.9247 58.1724L66.0362 59.2818C64.4555 61.2247 64.1446 62.4162 65.0254 63.0941C65.4063 63.3722 65.8097 63.4032 66.5204 63.1764C67.3259 62.9194 67.5858 62.6766 68.1186 61.6009C68.7061 60.3744 68.7295 60.287 68.2025 59.1765L67.6595 58.0178L68.6198 57.0454C69.8557 55.7985 69.9585 55.7923 70.4366 56.5988C70.6677 56.9779 71.3908 57.7328 72.0654 58.2635L73.3034 59.227L72.0642 61.4872C71.0838 63.2653 70.8418 63.9552 70.9092 64.8661L70.9777 66.0164L69.6984 66.4246C67.6137 67.0899 65.5312 68.234 58.5678 72.5074C46.8887 79.6976 28.5488 89.8659 22.5031 92.4879C22.069 92.6797 21.643 92.8955 21.5245 92.9333C21.4378 92.9877 21.3427 92.9381 21.3106 92.8418ZM79.3885 68.7668C76.7615 68.433 73.5704 67.5067 72.6181 66.7716L71.8564 66.2155L72.7179 66.127C77.8003 65.5707 82.2714 66.2484 83.3141 67.7272C84.086 68.7862 82.5695 69.1902 79.3885 68.7668ZM65.071 62.68C64.9358 62.51 64.9179 62.0628 65.0032 61.6893C65.2445 60.8397 66.9586 58.6677 67.3624 58.7786C67.8216 58.8985 68.1919 60.3254 67.9739 61.0876C67.5923 62.3815 65.6833 63.417 65.071 62.68ZM69.9297 54.6826C69.7533 54.1529 70.6051 51.9097 71.3596 50.8698C72.2241 49.6881 74.0821 47.8698 75.1073 47.2496C76.0378 46.6596 76.0808 47.4184 75.2017 48.8711C74.4873 50.0315 70.5544 54.6698 70.1597 54.8224C70.0649 54.8526 69.9618 54.779 69.9297 54.6826ZM85.9014 47.1615C85.2057 47.1971 85.2764 47.0946 86.8844 45.9421C87.8538 45.2331 90.5268 43.501 92.8138 42.1052C106.883 33.513 108.688 32.2443 110.835 29.5613L111.967 28.161L111.639 29.1446C109.673 34.9669 98.9078 43.1707 89.1556 46.3095C87.7816 46.748 86.3045 47.1128 85.9014 47.1615ZM82.9449 47.4124C77.4085 47.2345 74.6373 43.004 76.2238 37.1431C77.5382 32.2749 81.481 26.3281 86.6301 21.3283C92.7793 15.3966 98.6762 13.1152 105.087 14.1863C107.026 14.5 109.371 15.6427 110.515 16.7961C111.35 17.6488 111.613 18.1242 112.222 19.9544C112.767 21.5919 112.905 22.4003 112.814 23.2286L112.685 24.3355L112.071 23.1196C109.947 18.7889 102.673 17.4073 96.7474 20.2308C90.6081 23.1224 83.8881 30.4882 84.0393 34.1695C84.0593 35.0955 84.1471 35.2806 84.7343 35.706C85.1071 35.9599 85.8991 36.2134 86.4527 36.2232C88.9521 36.3313 95.1104 34.1263 100.143 31.3747C102.51 30.0601 106.285 27.3102 106.567 26.6608C106.763 26.2254 106.652 26.2873 103.705 28.5332C100.277 31.1457 96.9469 32.7943 91.6404 34.4878C87.9054 35.7063 86.9811 35.9213 86.1345 35.8186C85.0426 35.6875 84.4307 35.0303 84.4023 34.0004C84.3794 32.436 86.6405 28.8373 89.3722 26.1008C95.9773 19.5708 102.919 17.5153 108.642 20.4575C110.727 21.5238 111.92 22.9813 112.26 24.8705C112.529 26.4633 111.431 28.5185 109.077 30.8149C106.856 32.9619 105.272 34.0271 96.8728 39.1049C90.5323 42.9665 86.9288 45.2886 85.2111 46.6625C84.1553 47.5056 84.2974 47.4603 82.9449 47.4124Z" fill="url(#paint3_linear_480_7776)"/>
</g>
<defs>
<linearGradient id="paint0_linear_480_7776" x1="116.472" y1="50.1663" x2="17.3692" y2="83.1615" gradientUnits="userSpaceOnUse">
<stop stop-color="#FECF24"/>
<stop offset="1" stop-color="#FE9724"/>
</linearGradient>
<linearGradient id="paint1_linear_480_7776" x1="116.472" y1="50.1663" x2="17.3692" y2="83.1615" gradientUnits="userSpaceOnUse">
<stop stop-color="#FECF24"/>
<stop offset="1" stop-color="#FE9724"/>
</linearGradient>
<linearGradient id="paint2_linear_480_7776" x1="116.472" y1="50.1663" x2="17.3692" y2="83.1615" gradientUnits="userSpaceOnUse">
<stop stop-color="#FECF24"/>
<stop offset="1" stop-color="#FE9724"/>
</linearGradient>
<linearGradient id="paint3_linear_480_7776" x1="116.472" y1="50.1663" x2="17.3692" y2="83.1615" gradientUnits="userSpaceOnUse">
<stop stop-color="#FECF24"/>
<stop offset="1" stop-color="#FE9724"/>
</linearGradient>
<clipPath id="clip0_480_7776">
<rect width="112.593" height="94.0939" fill="white" transform="matrix(-0.952667 0.304016 -0.315892 -0.948795 136.987 89.2758)"/>
</clipPath>
</defs>
</svg>