<svg width="20" height="22" viewBox="0 0 20 22" fill="none" xmlns="http://www.w3.org/2000/svg">
<g clip-path="url(#clip0_3386_37206)">
<path d="M15 9C16.6569 9 18 7.65685 18 6C18 4.34315 16.6569 3 15 3C13.3431 3 12 4.34315 12 6C12 7.65685 13.3431 9 15 9Z" stroke="#8A8A8A" stroke-width="1.5" stroke-linecap="round" stroke-linejoin="round"/>
<path d="M5 19C6.65685 19 8 17.6569 8 16C8 14.3431 6.65685 13 5 13C3.34315 13 2 14.3431 2 16C2 17.6569 3.34315 19 5 19Z" stroke="#8A8A8A" stroke-width="1.5" stroke-linecap="round" stroke-linejoin="round"/>
<path d="M12 13H18V18C18 18.2652 17.8946 18.5196 17.7071 18.7071C17.5196 18.8946 17.2652 19 17 19H13C12.7348 19 12.4804 18.8946 12.2929 18.7071C12.1054 18.5196 12 18.2652 12 18V13ZM2 3H8V8C8 8.26522 7.89464 8.51957 7.70711 8.70711C7.51957 8.89464 7.26522 9 7 9H3C2.73478 9 2.48043 8.89464 2.29289 8.70711C2.10536 8.51957 2 8.26522 2 8V3Z" stroke="#8A8A8A" stroke-width="1.5" stroke-linecap="round" stroke-linejoin="round"/>
</g>
<defs>
<clipPath id="clip0_3386_37206">
<rect width="18" height="18" fill="white" transform="translate(1 2)"/>
</clipPath>
</defs>
</svg>
