<svg width="20" height="20" viewBox="0 0 20 20" fill="none" xmlns="http://www.w3.org/2000/svg">
<g id="icon_finance" clip-path="url(#clip0_5352_147386)">
<path id="Icon" d="M1 1V19H19M5.5 15H8.5C8.77614 15 9 14.7761 9 14.5V7.5C9 7.22386 8.77614 7 8.5 7H5.5C5.22386 7 5 7.22386 5 7.5V14.5C5 14.7761 5.22386 15 5.5 15ZM13.5 15H16.5C16.7761 15 17 14.7761 17 14.5V3.5C17 3.22386 16.7761 3 16.5 3H13.5C13.2239 3 13 3.22386 13 3.5V14.5C13 14.7761 13.2239 15 13.5 15Z" stroke="currentColor" stroke-width="1.5" stroke-linecap="round"/>
</g>
<defs>
<clipPath id="clip0_5352_147386">
<rect width="20" height="20" fill="white"/>
</clipPath>
</defs>
</svg>
