<svg width="20" height="20" viewBox="0 0 20 20" fill="none" xmlns="http://www.w3.org/2000/svg">
<path d="M6.35 2.5H12.65C15.05 2.5 17 4.45 17 6.85V13.15C17 14.3037 16.5417 15.4101 15.7259 16.2259C14.9101 17.0417 13.8037 17.5 12.65 17.5H6.35C3.95 17.5 2 15.55 2 13.15V6.85C2 5.69631 2.4583 4.58987 3.27409 3.77409C4.08987 2.9583 5.19631 2.5 6.35 2.5ZM6.2 4C5.48392 4 4.79716 4.28446 4.29081 4.79081C3.78446 5.29716 3.5 5.98392 3.5 6.7V13.3C3.5 14.7925 4.7075 16 6.2 16H12.8C13.5161 16 14.2028 15.7155 14.7092 15.2092C15.2155 14.7028 15.5 14.0161 15.5 13.3V6.7C15.5 5.2075 14.2925 4 12.8 4H6.2ZM13.4375 5.125C13.6861 5.125 13.9246 5.22377 14.1004 5.39959C14.2762 5.5754 14.375 5.81386 14.375 6.0625C14.375 6.31114 14.2762 6.5496 14.1004 6.72541C13.9246 6.90123 13.6861 7 13.4375 7C13.1889 7 12.9504 6.90123 12.7746 6.72541C12.5988 6.5496 12.5 6.31114 12.5 6.0625C12.5 5.81386 12.5988 5.5754 12.7746 5.39959C12.9504 5.22377 13.1889 5.125 13.4375 5.125ZM9.5 6.25C10.4946 6.25 11.4484 6.64509 12.1517 7.34835C12.8549 8.05161 13.25 9.00544 13.25 10C13.25 10.9946 12.8549 11.9484 12.1517 12.6517C11.4484 13.3549 10.4946 13.75 9.5 13.75C8.50544 13.75 7.55161 13.3549 6.84835 12.6517C6.14509 11.9484 5.75 10.9946 5.75 10C5.75 9.00544 6.14509 8.05161 6.84835 7.34835C7.55161 6.64509 8.50544 6.25 9.5 6.25ZM9.5 7.75C8.90326 7.75 8.33097 7.98705 7.90901 8.40901C7.48705 8.83097 7.25 9.40326 7.25 10C7.25 10.5967 7.48705 11.169 7.90901 11.591C8.33097 12.0129 8.90326 12.25 9.5 12.25C10.0967 12.25 10.669 12.0129 11.091 11.591C11.5129 11.169 11.75 10.5967 11.75 10C11.75 9.40326 11.5129 8.83097 11.091 8.40901C10.669 7.98705 10.0967 7.75 9.5 7.75Z" fill="#2D2D2D"/>
</svg>
