<svg width="20" height="20" viewBox="0 0 20 20" fill="none" xmlns="http://www.w3.org/2000/svg">
<path fill-rule="evenodd" clip-rule="evenodd" d="M3.33464 10.0013C3.33476 8.71835 3.70506 7.46267 4.40113 6.38495C5.09719 5.30724 6.08944 4.45326 7.25881 3.92548C8.42818 3.3977 9.725 3.21856 10.9937 3.40953C12.2623 3.6005 13.4489 4.15349 14.4111 5.00213C15.3733 5.85077 16.0702 6.95902 16.4181 8.19389C16.7661 9.42877 16.7503 10.7378 16.3727 11.9639C15.9951 13.1901 15.2718 14.2812 14.2894 15.1065C13.3071 15.9317 12.1075 16.4559 10.8346 16.6163V11.668H12.5013C12.7223 11.668 12.9343 11.5802 13.0906 11.4239C13.2468 11.2676 13.3346 11.0556 13.3346 10.8346C13.3346 10.6136 13.2468 10.4017 13.0906 10.2454C12.9343 10.0891 12.7223 10.0013 12.5013 10.0013H10.8346V8.33464C10.8346 8.11362 10.9224 7.90166 11.0787 7.74538C11.235 7.5891 11.447 7.5013 11.668 7.5013H12.0846C12.3056 7.5013 12.5176 7.4135 12.6739 7.25722C12.8302 7.10094 12.918 6.88898 12.918 6.66797C12.918 6.44695 12.8302 6.23499 12.6739 6.07871C12.5176 5.92243 12.3056 5.83464 12.0846 5.83464H11.668C11.0049 5.83464 10.369 6.09803 9.9002 6.56687C9.43136 7.03571 9.16797 7.67159 9.16797 8.33464V10.0013H7.5013C7.28029 10.0013 7.06833 10.0891 6.91205 10.2454C6.75577 10.4017 6.66797 10.6136 6.66797 10.8346C6.66797 11.0556 6.75577 11.2676 6.91205 11.4239C7.06833 11.5802 7.28029 11.668 7.5013 11.668H9.16797V16.6163C7.55689 16.4131 6.07532 15.629 5.0013 14.4111C3.92729 13.1932 3.33466 11.6251 3.33464 10.0013ZM10.0013 18.3346C14.6038 18.3346 18.3346 14.6038 18.3346 10.0013C18.3346 5.3988 14.6038 1.66797 10.0013 1.66797C5.3988 1.66797 1.66797 5.3988 1.66797 10.0013C1.66797 14.6038 5.3988 18.3346 10.0013 18.3346Z" fill="white"/>
</svg>
