<svg width="30" height="30" viewBox="0 0 30 30" fill="none" xmlns="http://www.w3.org/2000/svg">
<circle cx="15" cy="15" r="15" fill="#555555"/>
<path d="M15 23.3332C13.8611 23.3332 12.7847 23.1143 11.7708 22.6765C10.7569 22.2387 9.87135 21.6415 9.11413 20.8848C8.35746 20.1282 7.76024 19.2429 7.32246 18.229C6.88468 17.2151 6.66607 16.1387 6.66663 14.9998C6.66663 13.8471 6.88552 12.7671 7.32329 11.7598C7.76107 10.7526 8.35829 9.87095 9.11496 9.11484C9.87163 8.35762 10.7566 7.76039 11.77 7.32317C12.7833 6.88595 13.86 6.66706 15 6.6665C16.1527 6.6665 17.2327 6.88539 18.24 7.32317C19.2472 7.76095 20.1288 8.35817 20.885 9.11484C21.6422 9.8715 22.2394 10.7534 22.6766 11.7607C23.1138 12.7679 23.3327 13.8476 23.3333 14.9998C23.3333 16.1387 23.1144 17.2151 22.6766 18.229C22.2388 19.2429 21.6416 20.1284 20.885 20.8857C20.1283 21.6423 19.2463 22.2396 18.2391 22.6773C17.2319 23.1151 16.1522 23.3337 15 23.3332ZM15 21.6248C15.3611 21.1248 15.6736 20.604 15.9375 20.0623C16.2013 19.5207 16.4166 18.9443 16.5833 18.3332H13.4166C13.5833 18.9443 13.7986 19.5207 14.0625 20.0623C14.3263 20.604 14.6388 21.1248 15 21.6248ZM12.8333 21.2915C12.5833 20.8332 12.3644 20.3573 12.1766 19.864C11.9888 19.3707 11.8327 18.8604 11.7083 18.3332H9.24996C9.65274 19.0276 10.1563 19.6318 10.7608 20.1457C11.3652 20.6596 12.0561 21.0415 12.8333 21.2915ZM17.1666 21.2915C17.9444 21.0415 18.6355 20.6596 19.24 20.1457C19.8444 19.6318 20.3477 19.0276 20.75 18.3332H18.2916C18.1666 18.8609 18.0105 19.3715 17.8233 19.8648C17.6361 20.3582 17.4172 20.8337 17.1666 21.2915ZM8.54163 16.6665H11.375C11.3333 16.3887 11.3019 16.1143 11.2808 15.8432C11.2597 15.5721 11.2494 15.2909 11.25 14.9998C11.25 14.7082 11.2605 14.4271 11.2816 14.1565C11.3027 13.8859 11.3338 13.6115 11.375 13.3332H8.54163C8.47218 13.6109 8.41996 13.8854 8.38496 14.1565C8.34996 14.4276 8.33274 14.7087 8.33329 14.9998C8.33329 15.2915 8.35079 15.5726 8.38579 15.8432C8.42079 16.1137 8.47274 16.3882 8.54163 16.6665ZM13.0416 16.6665H16.9583C17 16.3887 17.0313 16.1143 17.0525 15.8432C17.0736 15.5721 17.0838 15.2909 17.0833 14.9998C17.0833 14.7082 17.0727 14.4271 17.0516 14.1565C17.0305 13.8859 16.9994 13.6115 16.9583 13.3332H13.0416C13 13.6109 12.9686 13.8854 12.9475 14.1565C12.9263 14.4276 12.9161 14.7087 12.9166 14.9998C12.9166 15.2915 12.9272 15.5726 12.9483 15.8432C12.9694 16.1137 13.0005 16.3882 13.0416 16.6665ZM18.625 16.6665H21.4583C21.5277 16.3887 21.58 16.1143 21.615 15.8432C21.65 15.5721 21.6672 15.2909 21.6666 14.9998C21.6666 14.7082 21.6491 14.4271 21.6141 14.1565C21.5791 13.8859 21.5272 13.6115 21.4583 13.3332H18.625C18.6666 13.6109 18.698 13.8854 18.7191 14.1565C18.7402 14.4276 18.7505 14.7087 18.75 14.9998C18.75 15.2915 18.7394 15.5726 18.7183 15.8432C18.6972 16.1137 18.6661 16.3882 18.625 16.6665ZM18.2916 11.6665H20.75C20.3472 10.9721 19.8438 10.3679 19.24 9.854C18.6361 9.34011 17.945 8.95817 17.1666 8.70817C17.4166 9.1665 17.6355 9.64234 17.8233 10.1357C18.0111 10.629 18.1672 11.1393 18.2916 11.6665ZM13.4166 11.6665H16.5833C16.4166 11.0554 16.2013 10.479 15.9375 9.93734C15.6736 9.39567 15.3611 8.87484 15 8.37484C14.6388 8.87484 14.3263 9.39567 14.0625 9.93734C13.7986 10.479 13.5833 11.0554 13.4166 11.6665ZM9.24996 11.6665H11.7083C11.8333 11.1387 11.9897 10.6282 12.1775 10.1348C12.3652 9.6415 12.5838 9.16595 12.8333 8.70817C12.0555 8.95817 11.3644 9.34011 10.76 9.854C10.1555 10.3679 9.65218 10.9721 9.24996 11.6665Z" fill="white"/>
</svg>
