<svg width="20" height="20" viewBox="0 0 20 20" fill="none" xmlns="http://www.w3.org/2000/svg">
<g clip-path="url(#clip0_147_3506)">
<path d="M18.3333 9.99999C18.3333 14.6024 14.6024 18.3333 9.99999 18.3333M18.3333 9.99999C18.3333 5.39762 14.6024 1.66666 9.99999 1.66666M18.3333 9.99999H1.66666M9.99999 18.3333C5.39762 18.3333 1.66666 14.6024 1.66666 9.99999M9.99999 18.3333C12.0844 16.0514 13.269 13.09 13.3333 9.99999C13.269 6.91002 12.0844 3.94862 9.99999 1.66666M9.99999 18.3333C7.91559 16.0514 6.73103 13.09 6.66666 9.99999C6.73103 6.91002 7.91559 3.94862 9.99999 1.66666M1.66666 9.99999C1.66666 5.39762 5.39762 1.66666 9.99999 1.66666" stroke="#2D2D2D" stroke-width="2" stroke-linecap="round" stroke-linejoin="round"/>
</g>
<defs>
<clipPath id="clip0_147_3506">
<rect width="20" height="20" fill="white"/>
</clipPath>
</defs>
</svg>
