<svg width="20" height="21" viewBox="0 0 20 21" fill="none" xmlns="http://www.w3.org/2000/svg">
<path d="M7.09473 18.1663H3.76139C3.31937 18.1663 2.89544 17.9907 2.58288 17.6782C2.27032 17.3656 2.09473 16.9417 2.09473 16.4997V6.49967C2.09473 6.05765 2.27032 5.63372 2.58288 5.32116C2.89544 5.0086 3.31937 4.83301 3.76139 4.83301H7.09473V6.49967H3.76139V16.4997H7.09473V18.1663Z" fill="#2D2D2D"/>
<path d="M11.5347 15.9875L12.7181 14.8142L9.45141 11.52H17.0714C17.2924 11.52 17.5044 11.4322 17.6607 11.2759C17.8169 11.1197 17.9047 10.9077 17.9047 10.6867C17.9047 10.4657 17.8169 10.2537 17.6607 10.0974C17.5044 9.94116 17.2924 9.85336 17.0714 9.85336H9.43641L12.7531 6.56419L11.5797 5.38086L6.25391 10.6617L11.5347 15.9875Z" fill="#2D2D2D"/>
</svg>
