<svg width="30" height="30" viewBox="0 0 30 30" fill="none" xmlns="http://www.w3.org/2000/svg">
<circle cx="15" cy="15" r="15" fill="#555555"/>
<path d="M12.095 22.6668H8.76164C8.31961 22.6668 7.89569 22.4912 7.58313 22.1787C7.27057 21.8661 7.09497 21.4422 7.09497 21.0002V11.0002C7.09497 10.5581 7.27057 10.1342 7.58313 9.82165C7.89569 9.50909 8.31961 9.3335 8.76164 9.3335H12.095V11.0002H8.76164V21.0002H12.095V22.6668Z" fill="white"/>
<path d="M16.535 20.4875L17.7183 19.3142L14.4517 16.02H22.0717C22.2927 16.02 22.5046 15.9322 22.6609 15.7759C22.8172 15.6197 22.905 15.4077 22.905 15.1867C22.905 14.9657 22.8172 14.7537 22.6609 14.5974C22.5046 14.4412 22.2927 14.3534 22.0717 14.3534H14.4367L17.7533 11.0642L16.58 9.88086L11.2542 15.1617L16.535 20.4875Z" fill="white"/>
</svg>
