<svg width="142" height="34" viewBox="0 0 142 34" fill="none" xmlns="http://www.w3.org/2000/svg">
<g clip-path="url(#clip0_12079_112157)">
<path d="M21.9325 17.8086L8.56641 17.8086V22.4148H21.9325C23.7869 22.4148 24.131 22.0671 24.131 20.1209V20.1086C24.131 18.1685 23.7869 17.8086 21.9325 17.8086Z" fill="currentColor"/>
<path d="M15.7745 0.5C7.06209 0.5 0 7.88824 0 17.003C0 26.1179 7.06209 33.5061 15.7745 33.5061C24.487 33.5061 31.5491 26.1179 31.5491 17.003C31.5491 7.88824 24.4811 0.5 15.7745 0.5ZM26.563 20.383C26.563 23.4762 25.3617 24.739 22.3993 24.739L6.1407 24.739L6.1407 8.57155L8.56665 8.57155V15.5022L22.3934 15.5022C25.3501 15.5022 26.5572 16.7468 26.5572 19.8461V20.3891L26.563 20.383Z" fill="currentColor"/>
<path d="M36.5176 8.91895H38.9435V11.8047H36.5176V8.91895ZM38.9435 15.8008V25.0864H36.5176V15.8008H38.9435Z" fill="currentColor"/>
<path d="M64.8885 8.91895L64.9118 10.0415L49.1489 22.7681L65.0401 22.7681V25.0864L43.918 25.0864V23.9639L59.78 11.2373L44.7052 11.2373V8.91895L64.8943 8.91895H64.8885Z" fill="currentColor"/>
<path d="M90.9842 8.91895L91.0075 10.0415L75.2446 22.7681L91.1416 22.7681V25.0864L70.0137 25.0864V23.9639L85.8757 11.2373L70.8009 11.2373V8.91895L90.99 8.91895H90.9842Z" fill="currentColor"/>
<path d="M116.569 13.2694V18.1563L98.5373 18.1563V20.4685C98.5373 22.4208 98.8697 22.7625 100.73 22.7625L116.569 22.7625V25.0808L100.258 25.0808C97.301 25.0808 96.1113 23.824 96.1113 20.7248V13.2633C96.1113 10.1701 97.301 8.90723 100.258 8.90723L112.422 8.90723C115.379 8.90723 116.574 10.164 116.574 13.2633L116.569 13.2694ZM114.143 15.844V13.5378C114.143 11.5855 113.81 11.2378 111.944 11.2378L100.73 11.2378C98.8639 11.2378 98.5373 11.5855 98.5373 13.5378V15.844L114.143 15.844Z" fill="currentColor"/>
<path d="M142 13.2694V18.1563L123.963 18.1563V20.4685C123.963 22.4208 124.295 22.7625 126.162 22.7625L142 22.7625V25.0808L125.689 25.0808C122.733 25.0808 121.543 23.824 121.543 20.7248V13.2633C121.543 10.1701 122.733 8.90723 125.689 8.90723L137.854 8.90723C140.811 8.90723 142.006 10.164 142.006 13.2633L142 13.2694ZM139.574 15.844V13.5378C139.574 11.5855 139.242 11.2378 137.376 11.2378L126.162 11.2378C124.295 11.2378 123.963 11.5855 123.963 13.5378V15.844L139.569 15.844H139.574Z" fill="currentColor"/>
</g>
<defs>
<clipPath id="clip0_12079_112157">
<rect width="142" height="33" fill="white" transform="translate(0 0.5)"/>
</clipPath>
</defs>
</svg>
