<svg xmlns="http://www.w3.org/2000/svg" width="245" height="64" viewBox="0 0 245 64" fill="none">
<g clip-path="url(#clip0_1526_68575)">
<path d="M37.8415 33.8477H14.7803V41.5247H37.8415C41.0411 41.5247 41.6347 40.9451 41.6347 37.7014V37.6811C41.6347 34.4476 41.0411 33.8477 37.8415 33.8477Z" fill="#FFC904"/>
<path d="M27.2166 5C12.1846 5 0 17.3137 0 32.5051C0 47.6964 12.1846 60.0102 27.2166 60.0102C42.2487 60.0102 54.4333 47.6964 54.4333 32.5051C54.4333 17.3137 42.2386 5 27.2166 5ZM45.8306 38.1383C45.8306 43.2936 43.7579 45.3984 38.6466 45.3984H10.5949V18.4526H14.7805V30.0037H38.6366C43.7378 30.0037 45.8205 32.078 45.8205 37.2435V38.1485L45.8306 38.1383Z" fill="#FFC904"/>
<path d="M63.0059 19.0312H67.1915V23.8408H63.0059V19.0312ZM67.1915 30.501V45.9771H63.0059V30.501H67.1915Z" fill="#FFC904"/>
<path d="M111.955 19.0312L111.996 20.9022L84.7992 42.1131H112.217V45.9771H75.7739V44.1061L103.141 22.8952H77.1322V19.0312H111.966H111.955Z" fill="#FFC904"/>
<path d="M156.981 19.0312L157.022 20.9022L129.825 42.1131H157.253V45.9771H120.8V44.1061L148.167 22.8952H122.158V19.0312H156.991H156.981Z" fill="#FFC904"/>
<path d="M201.121 26.282V34.4268H170.011V38.2805C170.011 41.5344 170.584 42.1038 173.794 42.1038H201.121V45.9677H172.979C167.878 45.9677 165.825 43.8731 165.825 38.7076V26.2718C165.825 21.1165 167.878 19.0117 172.979 19.0117H193.967C199.069 19.0117 201.131 21.1064 201.131 26.2718L201.121 26.282ZM196.936 30.573V26.7294C196.936 23.4756 196.362 22.896 193.142 22.896H173.794C170.574 22.896 170.011 23.4756 170.011 26.7294V30.573H196.936Z" fill="#FFC904"/>
<path d="M245 26.282V34.4268H213.88V38.2805C213.88 41.5344 214.453 42.1038 217.673 42.1038H245V45.9677H216.858C211.757 45.9677 209.704 43.8731 209.704 38.7076V26.2718C209.704 21.1165 211.757 19.0117 216.858 19.0117H237.846C242.948 19.0117 245.01 21.1064 245.01 26.2718L245 26.282ZM240.815 30.573V26.7294C240.815 23.4756 240.241 22.896 237.021 22.896H217.673C214.453 22.896 213.88 23.4756 213.88 26.7294V30.573H240.805H240.815Z" fill="#FFC904"/>
</g>
<defs>
<clipPath id="clip0_1526_68575">
<rect width="245" height="55" fill="white" transform="translate(0 5)"/>
</clipPath>
</defs>
</svg>