<svg xmlns="http://www.w3.org/2000/svg" width="36" height="36" viewBox="0 0 36 36" fill="none">
<path fill-rule="evenodd" clip-rule="evenodd" d="M6.00195 18C6.00217 15.6907 6.66872 13.4305 7.92163 11.4906C9.17455 9.55068 10.9606 8.01351 13.0655 7.06352C15.1703 6.11352 17.5046 5.79106 19.7882 6.13481C22.0718 6.47856 24.2077 7.47393 25.9396 9.00149C27.6715 10.529 28.9259 12.5239 29.5522 14.7467C30.1785 16.9694 30.1501 19.3257 29.4705 21.5328C28.7909 23.7398 27.4888 25.7039 25.7206 27.1893C23.9524 28.6747 21.7932 29.6183 19.502 29.907V21H22.502C22.8998 21 23.2813 20.842 23.5626 20.5607C23.8439 20.2794 24.002 19.8978 24.002 19.5C24.002 19.1022 23.8439 18.7206 23.5626 18.4393C23.2813 18.158 22.8998 18 22.502 18H19.502V15C19.502 14.6022 19.66 14.2206 19.9413 13.9393C20.2226 13.658 20.6041 13.5 21.002 13.5H21.752C22.1498 13.5 22.5313 13.342 22.8126 13.0607C23.0939 12.7794 23.252 12.3978 23.252 12C23.252 11.6022 23.0939 11.2206 22.8126 10.9393C22.5313 10.658 22.1498 10.5 21.752 10.5H21.002C19.8085 10.5 18.6639 10.9741 17.82 11.818C16.9761 12.6619 16.502 13.8065 16.502 15V18H13.502C13.1041 18 12.7226 18.158 12.4413 18.4393C12.16 18.7206 12.002 19.1022 12.002 19.5C12.002 19.8978 12.16 20.2794 12.4413 20.5607C12.7226 20.842 13.1041 21 13.502 21H16.502V29.907C13.602 29.5413 10.9352 28.1299 9.00196 25.9376C7.06873 23.7453 6.002 20.9229 6.00195 18ZM18.002 33C26.2865 33 33.002 26.2845 33.002 18C33.002 9.7155 26.2865 3 18.002 3C9.71745 3 3.00195 9.7155 3.00195 18C3.00195 26.2845 9.71745 33 18.002 33Z" fill="currentColor"/>
</svg>