<svg width="140" height="110" viewBox="0 0 140 110" fill="none" xmlns="http://www.w3.org/2000/svg">
<g id="Vector">
<path d="M57.0959 0.542516C56.756 0.827337 56.416 1.03078 56.3405 0.990092C56.2776 0.93584 56.2524 0.962966 56.3027 1.01722C56.3657 1.08503 55.8243 1.77674 55.1068 2.56339C54.4018 3.35004 53.5583 4.36725 53.2436 4.81483C51.6195 7.0934 50.0459 10.145 49.429 12.1524C49.2402 12.7627 49.0261 13.3459 48.938 13.4544C48.6485 13.8477 47.0119 14.9463 45.7655 15.5973C43.361 16.8451 40.7802 17.6182 38.0483 17.903C34.901 18.2421 32.2573 17.4012 30.5325 15.5295C30.1171 15.0684 29.6387 14.4174 29.4624 14.0647L29.1477 13.4273L30.243 12.3422C31.3886 11.203 32.1062 9.98229 32.1062 9.20921C32.1062 8.73451 31.5774 8.0428 31.1116 7.9343C30.3563 7.75798 29.261 8.63957 28.9211 9.69747C28.4427 11.1351 28.556 12.3422 29.2736 13.9291C30.734 17.1299 34.3471 18.6625 38.8288 17.9844C42.2028 17.469 44.9598 16.4382 47.7043 14.6615C48.2834 14.2817 48.7744 13.9698 48.7995 13.9698C48.8121 13.9698 48.724 14.3631 48.5981 14.8514C48.2708 16.0856 47.7546 19.4899 47.6539 21.0225C47.5658 22.3923 47.7421 25.1592 48.019 26.8545C48.1701 27.7904 48.1701 27.8718 47.9435 28.0752C47.1881 28.7533 47.6287 30.2453 48.5981 30.2453C48.8499 30.2453 48.8751 30.191 48.7995 29.6621C48.7618 29.3501 48.6737 28.8619 48.5981 28.5635C48.4974 28.2244 48.4974 27.9938 48.5729 27.9124C48.8373 27.6276 49.92 27.7904 51.1789 28.2786C52.3245 28.7398 52.526 28.7805 53.4576 28.7262C56.0384 28.5906 58.2541 26.4205 59.2234 23.1112C59.7522 21.2531 59.8403 20.0188 59.7648 15.3939C59.6641 9.68391 59.4123 7.62235 58.4177 4.04174C57.8134 1.87168 57.7631 0.962966 58.2289 0.474701C58.594 0.0678145 58.7325 0.0542516 59.2738 0.406887C59.576 0.61033 59.8151 0.962966 60.1173 1.66824C61.8798 5.83205 62.8366 10.7418 63.0254 16.7502C63.1261 19.951 62.8869 27.7904 62.6477 28.7533C62.2952 30.1775 61.6406 30.503 58.1156 30.9912C54.5277 31.493 51.053 31.3981 47.6036 30.7064C46.672 30.5165 45.8285 30.408 45.7278 30.4487C45.5767 30.503 45.5515 30.8149 45.6019 32.1848C45.6522 33.5546 45.7152 33.9886 45.9795 34.6803L46.2943 35.5212L46.0677 36.2401C45.7529 37.2166 45.7529 38.9798 46.0803 40.4446C46.7853 43.6861 47.0119 47.8092 46.6594 51.105C46.4831 52.6919 45.9921 55.2146 45.5137 56.8964C45.4382 57.1541 45.5012 57.1676 46.609 57.1812C47.9435 57.1947 49.001 57.5338 51.8839 58.9037C53.8353 59.8395 54.7669 60.0972 56.0761 60.0972C58.3674 60.1108 59.8026 58.8223 60.4446 56.2047C60.6712 55.2417 60.7216 54.3872 60.8726 48.0127C60.9734 44.093 61.0741 40.0648 61.1118 39.0611C61.1874 37.0538 61.5021 35.3856 61.9931 34.3413C62.2449 33.8123 63.5164 31.7914 63.8059 31.4388C63.8563 31.3845 63.8689 35.1686 63.8563 39.8478C63.8059 49.3418 63.9193 52.9224 64.3347 54.4957C64.6368 55.6893 65.153 56.815 65.9965 58.1441C67.6582 60.816 68.1241 62.742 67.4316 64.1932C67.268 64.5458 67.1925 64.8307 67.2554 64.8307C67.3183 64.8307 67.482 64.5458 67.6331 64.1932C67.8471 63.6778 67.8849 63.3659 67.8345 62.4571C67.7716 61.128 67.3435 60.043 66.0972 58.0492C64.0325 54.7399 63.8815 53.4243 63.9948 39.2646C64.0577 31.9271 64.0829 30.937 64.2717 30.4623C64.5235 29.8248 64.5487 28.9025 64.3221 28.455L64.1584 28.143L64.0703 28.4821C64.02 28.672 63.9822 29.2823 63.9696 29.8519C63.957 30.8149 63.9192 30.9505 63.529 31.5473C60.9482 35.4805 61.0237 35.0601 60.7467 46.5886C60.5453 55.5672 60.5076 56.0555 59.8026 57.6016C59.0976 59.1478 57.826 59.948 56.1013 59.948C54.8424 59.948 53.6464 59.5818 51.4811 58.551C49.2276 57.466 48.2204 57.1269 46.8356 56.9506C46.2565 56.8828 45.7655 56.8014 45.7404 56.7879C45.7278 56.7607 45.8285 56.3539 45.9544 55.8656C46.5461 53.8312 46.8608 51.4441 46.9237 48.5959C46.9993 45.4764 46.8734 43.781 46.3195 40.8921C45.904 38.7492 45.8662 37.5421 46.1558 36.4978L46.3446 35.7925L47.0119 36.5249C48.0694 37.6777 49.3787 38.0304 50.2473 37.3929C50.8138 36.986 51.0153 36.5385 50.9523 35.8467C50.8768 35.1008 50.3984 34.4226 49.6934 34.0564C48.6862 33.5275 47.8302 33.7716 46.8734 34.8295L46.3446 35.4127L46.0803 34.4905C45.9292 33.9886 45.7781 33.0528 45.7404 32.4153C45.6774 31.3032 45.6774 31.2625 45.967 31.1269C46.1306 31.0455 46.2565 30.9098 46.2313 30.8149C46.1936 30.6115 46.0929 30.5979 47.7546 30.9234C49.8822 31.3167 51.5314 31.4659 54.0619 31.4659C56.5294 31.4659 57.7002 31.3574 59.8655 30.9098C61.905 30.4894 62.4589 30.1232 62.761 28.9568C63.2268 27.1936 63.4157 16.2755 63.0254 12.8848C62.4967 8.21912 61.6658 4.69276 60.4068 1.80387C60.004 0.868026 59.1983 0 58.7451 0C58.5688 0 58.2667 0.149192 58.0778 0.32551C57.7505 0.623893 57.7253 0.732397 57.7253 1.58686C57.7253 2.265 57.8512 2.94315 58.1911 4.13668C59.1983 7.6766 59.4249 9.67035 59.513 15.421C59.5885 20.2901 59.513 21.3751 58.9717 23.1926C58.1534 25.9594 56.202 28.021 53.9611 28.4685C53.0295 28.6584 52.4756 28.5635 51.053 27.9667C50.1088 27.5734 49.8067 27.5191 49.152 27.5598L48.3841 27.6141L48.2456 26.7867C47.6287 23.1112 47.8176 18.9881 48.787 15.0548C49.0513 13.9969 49.1772 13.6985 49.5171 13.3866C49.7311 13.1696 50.4487 12.4914 51.0908 11.8947C53.7597 9.3584 55.9628 5.91342 57.1336 2.44132C57.5365 1.22066 57.826 0.135629 57.7631 0.0678145C57.7379 0.0542516 57.4484 0.257695 57.0959 0.542516ZM57.0203 2.11581C55.988 5.2624 54.3136 8.08349 51.9469 10.6469C51.0404 11.637 50.0585 12.6271 49.7815 12.8576L49.2528 13.2916L49.5549 12.505C49.7186 12.0845 49.857 11.6505 49.857 11.5556C49.857 11.4607 50.197 10.674 50.5998 9.79241C51.4307 8.00211 52.7148 5.85917 53.8478 4.34013C55.1068 2.65833 57.1462 0.651019 57.3854 0.881588C57.398 0.895151 57.2343 1.45123 57.0203 2.11581ZM31.5774 8.44969C31.9425 8.80232 31.9425 9.60253 31.6026 10.3892C31.3382 10.9588 30.1297 12.3694 29.4624 12.8848L29.0974 13.1696L28.9715 12.6542C28.2665 9.95517 30.1045 6.99846 31.5774 8.44969ZM48.4596 29.011C48.7744 30.1368 48.7744 30.1096 48.5352 30.1096C48.2204 30.1096 47.7169 29.4722 47.7169 29.0924C47.7169 28.8076 48.0316 28.0752 48.1575 28.0752C48.1827 28.0752 48.3086 28.4957 48.4596 29.011ZM64.2088 30.2046C64.0955 30.408 64.0829 30.3673 64.1333 29.9876C64.171 29.7434 64.2214 29.3366 64.234 29.106C64.2466 28.8483 64.2717 28.9297 64.2969 29.323C64.3221 29.6756 64.2843 30.0825 64.2088 30.2046ZM49.5423 34.1649C50.5998 34.6803 51.0782 35.7518 50.6628 36.6876C50.1088 37.949 48.4345 37.8134 47.1126 36.3893L46.4454 35.6704L46.7097 35.2635C47.2133 34.504 48.0694 33.9479 48.787 33.9208C48.9254 33.9208 49.2653 34.0293 49.5423 34.1649Z" fill="url(#paint0_linear_692_1170)"/>
<path d="M27.8258 14.1868C24.603 16.7502 20.8892 18.5812 17.7167 19.1915C16.7347 19.3814 16.0801 19.4085 14.6323 19.3543C12.6558 19.2729 12.3159 19.2051 9.38257 18.3235C5.70651 17.2113 3.67963 17.469 1.67794 19.2865C1.06107 19.8425 -0.5 21.7413 -0.5 21.9448C-0.5 22.0533 -0.33634 21.877 0.633033 20.6428C2.25705 18.5812 3.67964 17.8352 5.92052 17.8488C6.96543 17.8488 7.50677 17.9302 8.50132 18.2286C11.5731 19.1508 12.5551 19.395 13.8266 19.5306C17.8048 19.9646 22.1607 18.4863 26.8187 15.1227C28.556 13.8613 29.0848 13.4273 28.8959 13.4409C28.833 13.4409 28.342 13.7799 27.8258 14.1868Z" fill="url(#paint1_linear_692_1170)"/>
<path d="M43.8771 59.4869C43.3862 60.694 42.9204 62.3893 42.8574 63.2709C42.7315 64.7629 43.4491 65.658 45.476 66.5667C45.9796 66.7973 46.823 67.0685 47.3392 67.1906C48.6737 67.5025 52.7148 67.7196 55.9628 67.6517C58.9213 67.5975 58.8206 67.6924 55.5852 67.9501C53.1303 68.1671 48.019 68.0586 45.9544 67.7467C44.0408 67.4754 43.1847 67.2856 43.1847 67.1364C43.1847 66.8515 42.3664 66.0378 41.9384 65.9021C41.5733 65.7801 41.3845 65.7936 41.0194 65.9564C40.5788 66.1598 40.1885 66.6481 40.3773 66.7702C40.4403 66.8108 41.0697 66.9736 41.7999 67.1364C42.5301 67.3127 43.1596 67.5161 43.2099 67.5975C43.3232 67.7738 43.361 68.2485 43.6883 72.2225C44.3807 80.9298 44.6073 90.2747 44.3052 97.9241C44.1289 102.576 43.9904 104.543 43.8016 105.207C43.5876 105.953 43.789 106.699 44.4059 107.432C46.7097 110.185 57.8638 110.904 64.3095 108.707C65.7069 108.232 66.3112 107.689 66.7896 106.496L66.9659 106.048L67.6331 106.537C67.9982 106.794 68.6654 107.147 69.1186 107.296C70.088 107.622 71.712 107.676 72.4548 107.391C72.9332 107.215 72.9835 107.215 73.7137 107.635C74.6705 108.191 75.7532 108.449 78.8753 108.856C81.9722 109.276 85.9756 109.425 88.0151 109.195C92.2325 108.72 95.833 107.296 99.2447 104.746C100.139 104.082 100.214 104.041 100.214 104.326C100.227 105.235 101.347 106.374 102.644 106.821C103.487 107.106 105.879 107.228 106.773 107.025C107.151 106.943 108.246 106.442 109.215 105.926C111.23 104.828 111.96 104.611 115.132 104.095C122.434 102.929 128.981 100.732 135.401 97.2867C137.68 96.0525 138.91 95.3415 138.91 95.1923C138.91 95.138 139.102 94.9539 138.334 95.4421C131.649 99.5652 123.869 102.441 115.699 103.824C111.771 104.489 111.142 104.678 109.09 105.791C107.969 106.387 107.05 106.794 106.572 106.889C105.502 107.106 103.601 106.957 102.543 106.577C101.435 106.198 100.541 105.329 100.416 104.516C100.327 103.987 100.327 103.973 101.284 103.037C102.09 102.237 102.216 102.061 102.04 101.952C101.574 101.681 100.642 102.454 100.353 103.376C100 104.502 95.5561 107.147 92.308 108.164C89.5636 109.032 85.9379 109.358 82.3373 109.059C79.8321 108.842 76.0805 108.327 75.0356 108.028C74.2424 107.811 73.2731 107.323 73.2731 107.147C73.2731 107.106 73.5249 106.876 73.827 106.645C74.8593 105.858 75.4636 104.204 75.0356 103.336C74.8341 102.956 74.2424 102.671 73.613 102.671C72.6058 102.671 71.7624 103.607 71.7624 104.706C71.7624 105.289 72.1652 106.279 72.5932 106.754L72.908 107.106L72.3415 107.269C71.5358 107.486 70.1635 107.459 69.3578 107.201C68.187 106.821 66.8651 105.953 67.0288 105.669C67.1421 105.479 67.5953 103.051 67.8597 101.179C68.7913 94.6012 69.1564 89.0676 69.169 81.4452C69.1816 73.1854 68.9046 68.9673 68.2374 67.3127C67.9478 66.5938 67.4065 65.8208 67.054 65.6173C66.8777 65.5224 66.9533 65.658 67.2554 66.0242C68.2877 67.2584 68.5395 68.2621 68.8291 72.3581C69.0808 75.9522 69.1186 85.4734 68.892 88.7692C68.4766 94.9539 67.9982 99.1448 67.0162 105.221C66.9784 105.452 66.9029 105.655 66.84 105.655C66.4875 105.655 65.0397 102.97 64.662 101.586L64.4606 100.854L64.9516 100.365C66.349 99.0092 67.5827 96.6763 67.696 95.1709C67.8471 93.2721 66.6511 91.8208 64.3976 91.1427L63.6423 90.9121V86.2465C63.6549 79.4108 64.1962 74.0263 65.4677 68.0315C65.858 66.2141 65.9587 65.3189 65.644 66.526C65.0019 68.9809 64.1459 74.4874 63.7682 78.5021C63.529 81.0926 63.2898 87.1688 63.3527 89.2439L63.3905 90.8036H61.3762C59.0976 90.8036 58.3422 90.9664 56.1517 91.9836C52.8029 93.5162 50.2221 95.849 46.5461 100.691C45.9292 101.518 45.1613 102.603 44.8465 103.119C44.5318 103.621 44.2674 104.014 44.2548 104C44.2422 103.973 44.28 103.132 44.3304 102.129C44.3807 101.125 44.4688 97.246 44.5192 93.5162C44.6325 84.8495 44.4185 78.7869 43.7009 70.4593C43.5624 68.8995 43.4743 67.5975 43.4995 67.5704C43.5121 67.5433 44.1163 67.6246 44.8339 67.7331C47.3644 68.1264 49.0639 68.2621 51.7454 68.2621C54.7669 68.2756 57.0077 68.0858 59.6137 67.6111C61.6406 67.2449 65.3292 66.2548 65.5307 66.0242C65.6188 65.9157 65.5936 65.9021 65.4174 65.9699C64.3347 66.3768 59.5634 67.5568 59.0598 67.5297C58.9465 67.5297 59.1983 67.4212 59.6137 67.2855C60.6335 66.9736 61.1118 66.6752 61.8546 65.9293C62.6603 65.1291 63.0758 64.1932 63.0758 63.176C63.0758 62.1723 62.7359 61.7112 61.9301 61.5891L61.3762 61.5078L62.1316 60.8567C63.2394 59.9209 63.6297 59.7446 64.6494 59.7446C65.1404 59.7446 65.644 59.7853 65.7825 59.8531C65.9209 59.9073 65.8076 59.826 65.5307 59.6768C64.5991 59.1614 63.4031 59.5547 61.9176 60.8432L61.0363 61.6027L56.8063 61.5349C53.2184 61.4806 52.3371 61.4264 51.1286 61.1822C49.3535 60.8296 47.3266 60.1108 46.0929 59.3919C45.5893 59.0936 45.1361 58.8766 45.1109 58.9172C44.9976 59.0257 46.6594 59.9209 47.8428 60.3956C50.4487 61.4264 52.8029 61.7655 57.3854 61.7655C59.2612 61.7655 60.8097 61.779 60.8097 61.8061C60.8097 61.9418 59.4123 62.5657 58.7073 62.742C57.4358 63.0675 51.7832 62.9319 50.1718 62.5521C47.9687 62.0367 46.2062 61.0602 45.0731 59.731C44.7332 59.3106 44.4437 58.9172 44.4437 58.8494C44.4437 58.4968 44.1541 58.8223 43.8771 59.4869ZM46.2062 60.9924C48.2079 62.4436 50.2095 62.9725 54.3262 63.1353C57.6372 63.2845 59.3997 62.9725 60.6964 62.0503C61.4014 61.562 62.0938 61.5891 62.5974 62.1181C62.9499 62.5114 62.9751 62.5928 62.9247 63.3116C62.7862 65.2104 61.4266 66.6481 59.2109 67.2313C58.4933 67.4076 57.675 67.4483 54.1374 67.4212C51.821 67.4076 49.4416 67.3398 48.8499 67.2584C45.5893 66.8515 43.2099 65.5088 42.9959 63.9762C42.8952 63.2574 43.1973 61.8333 43.8142 60.0972L44.2171 58.9715L44.9346 59.7717C45.3249 60.2193 45.8914 60.7754 46.2062 60.9924ZM42.2909 66.2412C42.6182 66.4311 43.1344 67.0957 43.0337 67.2042C42.9959 67.2449 41.0446 66.8244 40.6165 66.6888C40.541 66.6617 40.6165 66.5125 40.7676 66.3497C41.0949 65.9971 41.7621 65.9564 42.2909 66.2412ZM63.3527 91.0884C63.4157 91.1291 63.4534 91.6174 63.4534 92.1735C63.4534 94.1672 63.7934 98.2225 64.1584 100.433C64.2214 100.813 64.1584 100.881 63.466 101.369C62.4337 102.074 60.709 102.753 59.4249 102.956C58.7199 103.064 57.7379 103.092 56.479 103.024C50.2095 102.739 49.5549 102.753 47.6413 103.295C46.7601 103.539 44.9346 104.475 44.6325 104.855C44.3555 105.167 44.1919 105.194 44.1919 104.909C44.1919 103.824 48.8247 97.7749 51.5566 95.2658C53.9108 93.1229 57.2469 91.3868 59.8026 91.0071C60.5831 90.8986 63.1513 90.9528 63.3527 91.0884ZM64.6872 91.4682C65.5433 91.7801 66.4623 92.3633 66.8777 92.8652C67.5324 93.6383 67.6834 95.1709 67.2302 96.4865C66.8777 97.5037 66.0846 98.765 65.1782 99.7958L64.3976 100.664L64.2466 99.7958C64.171 99.3211 64.02 97.7749 63.9067 96.3644C63.5919 92.1599 63.5542 91.1427 63.6801 91.1427C63.7556 91.1427 64.1962 91.2919 64.6872 91.4682ZM65.4048 103.96C65.6062 104.326 66.0091 104.923 66.3112 105.262L66.8651 105.899L66.6637 106.415C66.135 107.771 65.4426 108.259 63.0506 108.91C60.6335 109.561 58.6066 109.792 55.2075 109.792C52.1105 109.778 50.7887 109.656 48.5981 109.154C47.1881 108.829 45.6019 108.232 45.0605 107.811C44.5192 107.405 43.9401 106.496 43.9527 106.075C43.9653 105.329 45.8914 104.027 47.805 103.458C48.8625 103.146 50.8138 103.092 56.8441 103.2C59.2486 103.254 59.576 103.227 60.495 102.956C61.5776 102.644 63.0128 101.966 63.7808 101.396L64.2592 101.057L64.6494 102.169C64.8634 102.793 65.2033 103.593 65.4048 103.96ZM101.662 102.346C101.662 102.536 100.604 103.539 100.504 103.444C100.403 103.336 100.806 102.671 101.146 102.373C101.423 102.129 101.662 102.115 101.662 102.346ZM74.4942 103.078C74.9474 103.376 75.0985 103.81 74.9852 104.475C74.8719 105.14 74.2424 106.13 73.6382 106.604L73.0968 107.011L72.694 106.591C72.2785 106.157 71.8883 105.194 71.8883 104.651C71.8883 104.489 72.0016 104.122 72.1274 103.81C72.5177 102.875 73.6507 102.522 74.4942 103.078Z" fill="url(#paint2_linear_692_1170)"/>
<path d="M57.38 0.542516C57.0401 0.827337 56.7002 1.03078 56.6246 0.990092C56.5617 0.93584 56.5365 0.962966 56.5869 1.01722C56.6498 1.08503 56.1085 1.77674 55.3909 2.56339C54.6859 3.35004 53.8424 4.36725 53.5277 4.81483C51.9037 7.0934 50.33 10.145 49.7131 12.1524C49.5243 12.7627 49.3103 13.3459 49.2222 13.4544C48.9326 13.8477 47.296 14.9463 46.0497 15.5973C43.6451 16.8451 41.0643 17.6182 38.3324 17.903C35.1851 18.2421 32.5414 17.4012 30.8167 15.5295C30.4012 15.0684 29.9228 14.4174 29.7466 14.0647L29.4318 13.4273L30.5271 12.3422C31.6727 11.203 32.3903 9.98229 32.3903 9.20921C32.3903 8.73451 31.8616 8.0428 31.3958 7.9343C30.6404 7.75798 29.5451 8.63957 29.2052 9.69747C28.7268 11.1351 28.8401 12.3422 29.5577 13.9291C31.0181 17.1299 34.6312 18.6625 39.113 17.9844C42.4869 17.469 45.2439 16.4382 47.9884 14.6615C48.5675 14.2817 49.0585 13.9698 49.0837 13.9698C49.0963 13.9698 49.0081 14.3631 48.8822 14.8514C48.5549 16.0856 48.0388 19.4899 47.938 21.0225C47.8499 22.3923 48.0262 25.1592 48.3031 26.8545C48.4542 27.7904 48.4542 27.8718 48.2276 28.0752C47.4722 28.7533 47.9129 30.2453 48.8822 30.2453C49.134 30.2453 49.1592 30.191 49.0837 29.6621C49.0459 29.3501 48.9578 28.8619 48.8822 28.5635C48.7815 28.2244 48.7815 27.9938 48.8571 27.9124C49.1214 27.6276 50.2041 27.7904 51.463 28.2786C52.6087 28.7398 52.8101 28.7805 53.7417 28.7262C56.3225 28.5906 58.5382 26.4205 59.5076 23.1112C60.0363 21.2531 60.1244 20.0188 60.0489 15.3939C59.9482 9.68391 59.6964 7.62235 58.7019 4.04174C58.0976 1.87168 58.0472 0.962966 58.513 0.474701C58.8781 0.0678145 59.0166 0.0542516 59.5579 0.406887C59.8601 0.61033 60.0993 0.962966 60.4014 1.66824C62.1639 5.83205 63.1207 10.7418 63.3095 16.7502C63.4102 19.951 63.1711 27.7904 62.9319 28.7533C62.5794 30.1775 61.9247 30.503 58.3997 30.9912C54.8118 31.493 51.3372 31.3981 47.8877 30.7064C46.9561 30.5165 46.1126 30.408 46.0119 30.4487C45.8608 30.503 45.8356 30.8149 45.886 32.1848C45.9364 33.5546 45.9993 33.9886 46.2637 34.6803L46.5784 35.5212L46.3518 36.2401C46.0371 37.2166 46.0371 38.9798 46.3644 40.4446C47.0694 43.6861 47.296 47.8092 46.9435 51.105C46.7672 52.6919 46.2763 55.2146 45.7979 56.8964C45.7223 57.1541 45.7853 57.1676 46.8931 57.1812C48.2276 57.1947 49.2851 57.5338 52.168 58.9037C54.1194 59.8395 55.051 60.0972 56.3603 60.0972C58.6515 60.1108 60.0867 58.8223 60.7287 56.2047C60.9553 55.2417 61.0057 54.3872 61.1568 48.0127C61.2575 44.093 61.3582 40.0648 61.396 39.0611C61.4715 37.0538 61.7862 35.3856 62.2772 34.3413C62.529 33.8123 63.8005 31.7914 64.0901 31.4388C64.1404 31.3845 64.153 35.1686 64.1404 39.8478C64.0901 49.3418 64.2034 52.9224 64.6188 54.4957C64.921 55.6893 65.4371 56.815 66.2806 58.1441C67.9424 60.816 68.4082 62.742 67.7158 64.1932C67.5521 64.5458 67.4766 64.8307 67.5395 64.8307C67.6025 64.8307 67.7661 64.5458 67.9172 64.1932C68.1312 63.6778 68.169 63.3659 68.1186 62.4571C68.0557 61.128 67.6276 60.043 66.3813 58.0492C64.3167 54.7399 64.1656 53.4243 64.2789 39.2646C64.3419 31.9271 64.367 30.937 64.5559 30.4623C64.8077 29.8248 64.8328 28.9025 64.6062 28.455L64.4426 28.143L64.3544 28.4821C64.3041 28.672 64.2663 29.2823 64.2537 29.8519C64.2411 30.8149 64.2034 30.9505 63.8131 31.5473C61.2323 35.4805 61.3078 35.0601 61.0309 46.5886C60.8294 55.5672 60.7917 56.0555 60.0867 57.6016C59.3817 59.1478 58.1102 59.948 56.3854 59.948C55.1265 59.948 53.9305 59.5818 51.7652 58.551C49.5117 57.466 48.5046 57.1269 47.1197 56.9506C46.5406 56.8828 46.0497 56.8014 46.0245 56.7879C46.0119 56.7607 46.1126 56.3539 46.2385 55.8656C46.8302 53.8312 47.1449 51.4441 47.2079 48.5959C47.2834 45.4764 47.1575 43.781 46.6036 40.8921C46.1881 38.7492 46.1504 37.5421 46.4399 36.4978L46.6288 35.7925L47.296 36.5249C48.3535 37.6777 49.6628 38.0304 50.5314 37.3929C51.098 36.986 51.2994 36.5385 51.2364 35.8467C51.1609 35.1008 50.6825 34.4226 49.9775 34.0564C48.9704 33.5275 48.1143 33.7716 47.1575 34.8295L46.6288 35.4127L46.3644 34.4905C46.2133 33.9886 46.0622 33.0528 46.0245 32.4153C45.9615 31.3032 45.9615 31.2625 46.2511 31.1269C46.4147 31.0455 46.5406 30.9098 46.5155 30.8149C46.4777 30.6115 46.377 30.5979 48.0388 30.9234C50.1663 31.3167 51.8155 31.4659 54.346 31.4659C56.8135 31.4659 57.9843 31.3574 60.1496 30.9098C62.1891 30.4894 62.743 30.1232 63.0452 28.9568C63.511 27.1936 63.6998 16.2755 63.3095 12.8848C62.7808 8.21912 61.9499 4.69276 60.691 1.80387C60.2881 0.868026 59.4824 0 59.0292 0C58.8529 0 58.5508 0.149192 58.362 0.32551C58.0346 0.623893 58.0095 0.732397 58.0095 1.58686C58.0095 2.265 58.1353 2.94315 58.4753 4.13668C59.4824 7.6766 59.709 9.67035 59.7971 15.421C59.8727 20.2901 59.7971 21.3751 59.2558 23.1926C58.4375 25.9594 56.4862 28.021 54.2453 28.4685C53.3137 28.6584 52.7597 28.5635 51.3372 27.9667C50.393 27.5734 50.0908 27.5191 49.4362 27.5598L48.6682 27.6141L48.5297 26.7867C47.9129 23.1112 48.1017 18.9881 49.0711 15.0548C49.3355 13.9969 49.4613 13.6985 49.8013 13.3866C50.0153 13.1696 50.7329 12.4914 51.3749 11.8947C54.0438 9.3584 56.247 5.91342 57.4178 2.44132C57.8206 1.22066 58.1102 0.135629 58.0472 0.0678145C58.022 0.0542516 57.7325 0.257695 57.38 0.542516ZM57.3045 2.11581C56.2721 5.2624 54.5978 8.08349 52.231 10.6469C51.3246 11.637 50.3426 12.6271 50.0656 12.8576L49.5369 13.2916L49.839 12.505C50.0027 12.0845 50.1412 11.6505 50.1412 11.5556C50.1412 11.4607 50.4811 10.674 50.8839 9.79241C51.7148 8.00211 52.9989 5.85917 54.132 4.34013C55.3909 2.65833 57.4303 0.651019 57.6695 0.881588C57.6821 0.895151 57.5185 1.45123 57.3045 2.11581ZM31.8616 8.44969C32.2267 8.80232 32.2267 9.60253 31.8867 10.3892C31.6224 10.9588 30.4138 12.3694 29.7466 12.8848L29.3815 13.1696L29.2556 12.6542C28.5506 9.95517 30.3886 6.99846 31.8616 8.44969ZM48.7438 29.011C49.0585 30.1368 49.0585 30.1096 48.8193 30.1096C48.5046 30.1096 48.001 29.4722 48.001 29.0924C48.001 28.8076 48.3157 28.0752 48.4416 28.0752C48.4668 28.0752 48.5927 28.4957 48.7438 29.011ZM64.4929 30.2046C64.3796 30.408 64.367 30.3673 64.4174 29.9876C64.4552 29.7434 64.5055 29.3366 64.5181 29.106C64.5307 28.8483 64.5559 28.9297 64.581 29.323C64.6062 29.6756 64.5685 30.0825 64.4929 30.2046ZM49.8264 34.1649C50.8839 34.6803 51.3623 35.7518 50.9469 36.6876C50.393 37.949 48.7186 37.8134 47.3967 36.3893L46.7295 35.6704L46.9939 35.2635C47.4974 34.504 48.3535 33.9479 49.0711 33.9208C49.2096 33.9208 49.5495 34.0293 49.8264 34.1649Z" fill="url(#paint3_linear_692_1170)"/>
<path d="M28.11 14.1868C24.8871 16.7502 21.1733 18.5812 18.0008 19.1915C17.0188 19.3814 16.3642 19.4085 14.9164 19.3543C12.9399 19.2729 12.6 19.2051 9.6667 18.3235C5.99063 17.2113 3.96376 17.469 1.96207 19.2865C1.3452 19.8425 -0.215873 21.7413 -0.215873 21.9448C-0.215873 22.0533 -0.0522129 21.877 0.91716 20.6428C2.54117 18.5812 3.96376 17.8352 6.20465 17.8488C7.24956 17.8488 7.7909 17.9302 8.78545 18.2286C11.8572 19.1508 12.8392 19.395 14.1107 19.5306C18.0889 19.9646 22.4448 18.4863 27.1028 15.1227C28.8401 13.8613 29.3689 13.4273 29.18 13.4409C29.1171 13.4409 28.6261 13.7799 28.11 14.1868Z" fill="url(#paint4_linear_692_1170)"/>
<path d="M44.1613 59.4869C43.6703 60.694 43.2045 62.3893 43.1415 63.2709C43.0157 64.7629 43.7332 65.658 45.7601 66.5667C46.2637 66.7973 47.1072 67.0685 47.6233 67.1906C48.9578 67.5025 52.9989 67.7196 56.247 67.6517C59.2054 67.5975 59.1047 67.6924 55.8693 67.9501C53.4144 68.1671 48.3031 68.0586 46.2385 67.7467C44.3249 67.4754 43.4689 67.2856 43.4689 67.1364C43.4689 66.8515 42.6506 66.0378 42.2225 65.9021C41.8574 65.7801 41.6686 65.7936 41.3035 65.9564C40.8629 66.1598 40.4726 66.6481 40.6615 66.7702C40.7244 66.8108 41.3539 66.9736 42.084 67.1364C42.8142 67.3127 43.4437 67.5161 43.494 67.5975C43.6073 67.7738 43.6451 68.2485 43.9724 72.2225C44.6648 80.9298 44.8914 90.2747 44.5893 97.9241C44.4131 102.576 44.2746 104.543 44.0857 105.207C43.8717 105.953 44.0731 106.699 44.69 107.432C46.9939 110.185 58.1479 110.904 64.5936 108.707C65.991 108.232 66.5953 107.689 67.0737 106.496L67.25 106.048L67.9172 106.537C68.2823 106.794 68.9495 107.147 69.4027 107.296C70.3721 107.622 71.9961 107.676 72.7389 107.391C73.2173 107.215 73.2676 107.215 73.9978 107.635C74.9546 108.191 76.0373 108.449 79.1594 108.856C82.2564 109.276 86.2598 109.425 88.2992 109.195C92.5166 108.72 96.1171 107.296 99.5288 104.746C100.423 104.082 100.498 104.041 100.498 104.326C100.511 105.235 101.631 106.374 102.928 106.821C103.771 107.106 106.163 107.228 107.057 107.025C107.435 106.943 108.53 106.442 109.5 105.926C111.514 104.828 112.244 104.611 115.416 104.095C122.718 102.929 129.265 100.732 135.685 97.2867C137.964 96.0525 139.195 95.3415 139.195 95.1923C139.195 95.138 139.386 94.9539 138.618 95.4421C131.934 99.5652 124.153 102.441 115.983 103.824C112.055 104.489 111.426 104.678 109.374 105.791C108.253 106.387 107.334 106.794 106.856 106.889C105.786 107.106 103.885 106.957 102.827 106.577C101.719 106.198 100.826 105.329 100.7 104.516C100.612 103.987 100.612 103.973 101.568 103.037C102.374 102.237 102.5 102.061 102.324 101.952C101.858 101.681 100.926 102.454 100.637 103.376C100.284 104.502 95.8402 107.147 92.5922 108.164C89.8477 109.032 86.222 109.358 82.6215 109.059C80.1162 108.842 76.3646 108.327 75.3197 108.028C74.5266 107.811 73.5572 107.323 73.5572 107.147C73.5572 107.106 73.809 106.876 74.1111 106.645C75.1434 105.858 75.7477 104.204 75.3197 103.336C75.1183 102.956 74.5266 102.671 73.8971 102.671C72.89 102.671 72.0465 103.607 72.0465 104.706C72.0465 105.289 72.4493 106.279 72.8774 106.754L73.1921 107.106L72.6256 107.269C71.8199 107.486 70.4476 107.459 69.6419 107.201C68.4711 106.821 67.1493 105.953 67.3129 105.669C67.4262 105.479 67.8794 103.051 68.1438 101.179C69.0754 94.6012 69.4405 89.0676 69.4531 81.4452C69.4657 73.1854 69.1887 68.9673 68.5215 67.3127C68.2319 66.5938 67.6906 65.8208 67.3381 65.6173C67.1619 65.5224 67.2374 65.658 67.5395 66.0242C68.5718 67.2584 68.8236 68.2621 69.1132 72.3581C69.365 75.9522 69.4027 85.4734 69.1761 88.7692C68.7607 94.9539 68.2823 99.1448 67.3003 105.221C67.2626 105.452 67.187 105.655 67.1241 105.655C66.7716 105.655 65.3238 102.97 64.9461 101.586L64.7447 100.854L65.2357 100.365C66.6331 99.0092 67.8669 96.6763 67.9802 95.1709C68.1312 93.2721 66.9352 91.8208 64.6818 91.1427L63.9264 90.9121V86.2465C63.939 79.4108 64.4803 74.0263 65.7519 68.0315C66.1421 66.2141 66.2428 65.3189 65.9281 66.526C65.286 68.9809 64.43 74.4874 64.0523 78.5021C63.8131 81.0926 63.5739 87.1688 63.6369 89.2439L63.6746 90.8036H61.6603C59.3817 90.8036 58.6263 90.9664 56.4358 91.9836C53.0871 93.5162 50.5063 95.849 46.8302 100.691C46.2133 101.518 45.4454 102.603 45.1306 103.119C44.8159 103.621 44.5515 104.014 44.539 104C44.5264 103.973 44.5641 103.132 44.6145 102.129C44.6648 101.125 44.753 97.246 44.8033 93.5162C44.9166 84.8495 44.7026 78.7869 43.985 70.4593C43.8465 68.8995 43.7584 67.5975 43.7836 67.5704C43.7962 67.5433 44.4005 67.6246 45.1181 67.7331C47.6485 68.1264 49.348 68.2621 52.0296 68.2621C55.051 68.2756 57.2919 68.0858 59.8979 67.6111C61.9247 67.2449 65.6134 66.2548 65.8148 66.0242C65.9029 65.9157 65.8777 65.9021 65.7015 65.9699C64.6188 66.3768 59.8475 67.5568 59.3439 67.5297C59.2306 67.5297 59.4824 67.4212 59.8979 67.2855C60.9176 66.9736 61.396 66.6752 62.1387 65.9293C62.9445 65.1291 63.3599 64.1932 63.3599 63.176C63.3599 62.1723 63.02 61.7112 62.2143 61.5891L61.6603 61.5078L62.4157 60.8567C63.5236 59.9209 63.9138 59.7446 64.9336 59.7446C65.4245 59.7446 65.9281 59.7853 66.0666 59.8531C66.2051 59.9073 66.0918 59.826 65.8148 59.6768C64.8832 59.1614 63.6872 59.5547 62.2017 60.8432L61.3204 61.6027L57.0904 61.5349C53.5025 61.4806 52.6213 61.4264 51.4127 61.1822C49.6376 60.8296 47.6107 60.1108 46.377 59.3919C45.8734 59.0936 45.4202 58.8766 45.395 58.9172C45.2817 59.0257 46.9435 59.9209 48.1269 60.3956C50.7329 61.4264 53.0871 61.7655 57.6696 61.7655C59.5454 61.7655 61.0938 61.779 61.0938 61.8061C61.0938 61.9418 59.6964 62.5657 58.9914 62.742C57.7199 63.0675 52.0673 62.9319 50.4559 62.5521C48.2528 62.0367 46.4903 61.0602 45.3573 59.731C45.0173 59.3106 44.7278 58.9172 44.7278 58.8494C44.7278 58.4968 44.4382 58.8223 44.1613 59.4869ZM46.4903 60.9924C48.492 62.4436 50.4937 62.9725 54.6104 63.1353C57.9213 63.2845 59.6838 62.9725 60.9805 62.0503C61.6855 61.562 62.3779 61.5891 62.8815 62.1181C63.234 62.5114 63.2592 62.5928 63.2088 63.3116C63.0703 65.2104 61.7107 66.6481 59.495 67.2313C58.7774 67.4076 57.9591 67.4483 54.4215 67.4212C52.1051 67.4076 49.7257 67.3398 49.134 67.2584C45.8734 66.8515 43.494 65.5088 43.28 63.9762C43.1793 63.2574 43.4815 61.8333 44.0983 60.0972L44.5012 58.9715L45.2188 59.7717C45.609 60.2193 46.1756 60.7754 46.4903 60.9924ZM42.575 66.2412C42.9023 66.4311 43.4185 67.0957 43.3178 67.2042C43.28 67.2449 41.3287 66.8244 40.9007 66.6888C40.8251 66.6617 40.9007 66.5125 41.0517 66.3497C41.379 65.9971 42.0463 65.9564 42.575 66.2412ZM63.6369 91.0884C63.6998 91.1291 63.7376 91.6174 63.7376 92.1735C63.7376 94.1672 64.0775 98.2225 64.4426 100.433C64.5055 100.813 64.4426 100.881 63.7502 101.369C62.7178 102.074 60.9931 102.753 59.709 102.956C59.004 103.064 58.022 103.092 56.7631 103.024C50.4937 102.739 49.839 102.753 47.9255 103.295C47.0442 103.539 45.2188 104.475 44.9166 104.855C44.6397 105.167 44.476 105.194 44.476 104.909C44.476 103.824 49.1089 97.7749 51.8407 95.2658C54.1949 93.1229 57.5311 91.3868 60.0867 91.0071C60.8672 90.8986 63.4354 90.9528 63.6369 91.0884ZM64.9713 91.4682C65.8274 91.7801 66.7464 92.3633 67.1618 92.8652C67.8165 93.6383 67.9676 95.1709 67.5144 96.4865C67.1618 97.5037 66.3687 98.765 65.4623 99.7958L64.6818 100.664L64.5307 99.7958C64.4552 99.3211 64.3041 97.7749 64.1908 96.3644C63.8761 92.1599 63.8383 91.1427 63.9642 91.1427C64.0397 91.1427 64.4803 91.2919 64.9713 91.4682ZM65.6889 103.96C65.8903 104.326 66.2932 104.923 66.5953 105.262L67.1493 105.899L66.9478 106.415C66.4191 107.771 65.7267 108.259 63.3347 108.91C60.9176 109.561 58.8907 109.792 55.4916 109.792C52.3946 109.778 51.0728 109.656 48.8822 109.154C47.4723 108.829 45.886 108.232 45.3447 107.811C44.8033 107.405 44.2242 106.496 44.2368 106.075C44.2494 105.329 46.1756 104.027 48.0891 103.458C49.1466 103.146 51.098 103.092 57.1282 103.2C59.5328 103.254 59.8601 103.227 60.7791 102.956C61.8618 102.644 63.297 101.966 64.0649 101.396L64.5433 101.057L64.9336 102.169C65.1476 102.793 65.4875 103.593 65.6889 103.96ZM101.946 102.346C101.946 102.536 100.888 103.539 100.788 103.444C100.687 103.336 101.09 102.671 101.43 102.373C101.707 102.129 101.946 102.115 101.946 102.346ZM74.7784 103.078C75.2316 103.376 75.3826 103.81 75.2693 104.475C75.156 105.14 74.5266 106.13 73.9223 106.604L73.3809 107.011L72.9781 106.591C72.5626 106.157 72.1724 105.194 72.1724 104.651C72.1724 104.489 72.2857 104.122 72.4116 103.81C72.8018 102.875 73.9349 102.522 74.7784 103.078Z" fill="url(#paint5_linear_692_1170)"/>
<path d="M57.6641 0.542516C57.3242 0.827337 56.9843 1.03078 56.9088 0.990092C56.8458 0.93584 56.8206 0.962966 56.871 1.01722C56.9339 1.08503 56.3926 1.77674 55.675 2.56339C54.97 3.35004 54.1265 4.36725 53.8118 4.81483C52.1878 7.0934 50.6141 10.145 49.9973 12.1524C49.8084 12.7627 49.5944 13.3459 49.5063 13.4544C49.2167 13.8477 47.5801 14.9463 46.3338 15.5973C43.9292 16.8451 41.3484 17.6182 38.6166 17.903C35.4693 18.2421 32.8255 17.4012 31.1008 15.5295C30.6853 15.0684 30.2069 14.4174 30.0307 14.0647L29.716 13.4273L30.8112 12.3422C31.9569 11.203 32.6744 9.98229 32.6744 9.20921C32.6744 8.73451 32.1457 8.0428 31.6799 7.9343C30.9245 7.75798 29.8293 8.63957 29.4894 9.69747C29.011 11.1351 29.1243 12.3422 29.8419 13.9291C31.3022 17.1299 34.9153 18.6625 39.3971 17.9844C42.771 17.469 45.5281 16.4382 48.2725 14.6615C48.8516 14.2817 49.3426 13.9698 49.3678 13.9698C49.3804 13.9698 49.2923 14.3631 49.1664 14.8514C48.8391 16.0856 48.3229 19.4899 48.2222 21.0225C48.1341 22.3923 48.3103 25.1592 48.5873 26.8545C48.7383 27.7904 48.7383 27.8718 48.5117 28.0752C47.7564 28.7533 48.197 30.2453 49.1664 30.2453C49.4182 30.2453 49.4433 30.191 49.3678 29.6621C49.33 29.3501 49.2419 28.8619 49.1664 28.5635C49.0657 28.2244 49.0657 27.9938 49.1412 27.9124C49.4056 27.6276 50.4882 27.7904 51.7472 28.2786C52.8928 28.7398 53.0942 28.7805 54.0258 28.7262C56.6066 28.5906 58.8223 26.4205 59.7917 23.1112C60.3204 21.2531 60.4086 20.0188 60.333 15.3939C60.2323 9.68391 59.9805 7.62235 58.986 4.04174C58.3817 1.87168 58.3314 0.962966 58.7972 0.474701C59.1622 0.0678145 59.3007 0.0542516 59.8421 0.406887C60.1442 0.61033 60.3834 0.962966 60.6855 1.66824C62.448 5.83205 63.4048 10.7418 63.5937 16.7502C63.6944 19.951 63.4552 27.7904 63.216 28.7533C62.8635 30.1775 62.2088 30.503 58.6838 30.9912C55.0959 31.493 51.6213 31.3981 48.1718 30.7064C47.2402 30.5165 46.3967 30.408 46.296 30.4487C46.1449 30.503 46.1198 30.8149 46.1701 32.1848C46.2205 33.5546 46.2834 33.9886 46.5478 34.6803L46.8625 35.5212L46.6359 36.2401C46.3212 37.2166 46.3212 38.9798 46.6485 40.4446C47.3535 43.6861 47.5801 47.8092 47.2276 51.105C47.0514 52.6919 46.5604 55.2146 46.082 56.8964C46.0065 57.1541 46.0694 57.1676 47.1773 57.1812C48.5117 57.1947 49.5692 57.5338 52.4522 58.9037C54.4035 59.8395 55.3351 60.0972 56.6444 60.0972C58.9356 60.1108 60.3708 58.8223 61.0129 56.2047C61.2395 55.2417 61.2898 54.3872 61.4409 48.0127C61.5416 44.093 61.6423 40.0648 61.6801 39.0611C61.7556 37.0538 62.0704 35.3856 62.5613 34.3413C62.8131 33.8123 64.0846 31.7914 64.3742 31.4388C64.4245 31.3845 64.4371 35.1686 64.4246 39.8478C64.3742 49.3418 64.4875 52.9224 64.9029 54.4957C65.2051 55.6893 65.7212 56.815 66.5647 58.1441C68.2265 60.816 68.6923 62.742 67.9999 64.1932C67.8362 64.5458 67.7607 64.8307 67.8236 64.8307C67.8866 64.8307 68.0503 64.5458 68.2013 64.1932C68.4153 63.6778 68.4531 63.3659 68.4028 62.4571C68.3398 61.128 67.9118 60.043 66.6654 58.0492C64.6008 54.7399 64.4497 53.4243 64.563 39.2646C64.626 31.9271 64.6512 30.937 64.84 30.4623C65.0918 29.8248 65.117 28.9025 64.8904 28.455L64.7267 28.143L64.6386 28.4821C64.5882 28.672 64.5504 29.2823 64.5378 29.8519C64.5253 30.8149 64.4875 30.9505 64.0972 31.5473C61.5164 35.4805 61.592 35.0601 61.315 46.5886C61.1136 55.5672 61.0758 56.0555 60.3708 57.6016C59.6658 59.1478 58.3943 59.948 56.6696 59.948C55.4106 59.948 54.2147 59.5818 52.0493 58.551C49.7958 57.466 48.7887 57.1269 47.4039 56.9506C46.8248 56.8828 46.3338 56.8014 46.3086 56.7879C46.296 56.7607 46.3967 56.3539 46.5226 55.8656C47.1143 53.8312 47.4291 51.4441 47.492 48.5959C47.5675 45.4764 47.4416 43.781 46.8877 40.8921C46.4723 38.7492 46.4345 37.5421 46.7241 36.4978L46.9129 35.7925L47.5801 36.5249C48.6376 37.6777 49.9469 38.0304 50.8156 37.3929C51.3821 36.986 51.5835 36.5385 51.5206 35.8467C51.445 35.1008 50.9666 34.4226 50.2616 34.0564C49.2545 33.5275 48.3984 33.7716 47.4416 34.8295L46.9129 35.4127L46.6485 34.4905C46.4974 33.9886 46.3464 33.0528 46.3086 32.4153C46.2457 31.3032 46.2457 31.2625 46.5352 31.1269C46.6989 31.0455 46.8248 30.9098 46.7996 30.8149C46.7618 30.6115 46.6611 30.5979 48.3229 30.9234C50.4505 31.3167 52.0997 31.4659 54.6301 31.4659C57.0976 31.4659 58.2684 31.3574 60.4338 30.9098C62.4732 30.4894 63.0271 30.1232 63.3293 28.9568C63.7951 27.1936 63.9839 16.2755 63.5937 12.8848C63.0649 8.21912 62.234 4.69276 60.9751 1.80387C60.5722 0.868026 59.7665 0 59.3133 0C59.1371 0 58.8349 0.149192 58.6461 0.32551C58.3188 0.623893 58.2936 0.732397 58.2936 1.58686C58.2936 2.265 58.4195 2.94315 58.7594 4.13668C59.7665 7.6766 59.9931 9.67035 60.0813 15.421C60.1568 20.2901 60.0813 21.3751 59.5399 23.1926C58.7216 25.9594 56.7703 28.021 54.5294 28.4685C53.5978 28.6584 53.0439 28.5635 51.6213 27.9667C50.6771 27.5734 50.3749 27.5191 49.7203 27.5598L48.9524 27.6141L48.8139 26.7867C48.197 23.1112 48.3858 18.9881 49.3552 15.0548C49.6196 13.9969 49.7455 13.6985 50.0854 13.3866C50.2994 13.1696 51.017 12.4914 51.659 11.8947C54.328 9.3584 56.5311 5.91342 57.7019 2.44132C58.1047 1.22066 58.3943 0.135629 58.3313 0.0678145C58.3062 0.0542516 58.0166 0.257695 57.6641 0.542516ZM57.5886 2.11581C56.5563 5.2624 54.8819 8.08349 52.5151 10.6469C51.6087 11.637 50.6267 12.6271 50.3498 12.8576L49.821 13.2916L50.1232 12.505C50.2868 12.0845 50.4253 11.6505 50.4253 11.5556C50.4253 11.4607 50.7652 10.674 51.1681 9.79241C51.999 8.00211 53.2831 5.85917 54.4161 4.34013C55.675 2.65833 57.7145 0.651019 57.9537 0.881588C57.9663 0.895151 57.8026 1.45123 57.5886 2.11581ZM32.1457 8.44969C32.5108 8.80232 32.5108 9.60253 32.1709 10.3892C31.9065 10.9588 30.6979 12.3694 30.0307 12.8848L29.6656 13.1696L29.5397 12.6542C28.8347 9.95517 30.6727 6.99846 32.1457 8.44969ZM49.0279 29.011C49.3426 30.1368 49.3426 30.1096 49.1034 30.1096C48.7887 30.1096 48.2851 29.4722 48.2851 29.0924C48.2851 28.8076 48.5999 28.0752 48.7257 28.0752C48.7509 28.0752 48.8768 28.4957 49.0279 29.011ZM64.777 30.2046C64.6637 30.408 64.6512 30.3673 64.7015 29.9876C64.7393 29.7434 64.7896 29.3366 64.8022 29.106C64.8148 28.8483 64.84 28.9297 64.8652 29.323C64.8904 29.6756 64.8526 30.0825 64.777 30.2046ZM50.1106 34.1649C51.1681 34.6803 51.6465 35.7518 51.231 36.6876C50.6771 37.949 49.0027 37.8134 47.6808 36.3893L47.0136 35.6704L47.278 35.2635C47.7816 34.504 48.6376 33.9479 49.3552 33.9208C49.4937 33.9208 49.8336 34.0293 50.1106 34.1649Z" fill="url(#paint6_linear_692_1170)"/>
<path d="M28.3941 14.1868C25.1712 16.7502 21.4574 18.5812 18.2849 19.1915C17.303 19.3814 16.6483 19.4085 15.2005 19.3543C13.224 19.2729 12.8841 19.2051 9.95082 18.3235C6.27476 17.2113 4.24789 17.469 2.2462 19.2865C1.62932 19.8425 0.0682533 21.7413 0.0682533 21.9448C0.0682533 22.0533 0.231914 21.877 1.20129 20.6428C2.8253 18.5812 4.24789 17.8352 6.48878 17.8488C7.53368 17.8488 8.07502 17.9302 9.06958 18.2286C12.1414 19.1508 13.1233 19.395 14.3948 19.5306C18.373 19.9646 22.7289 18.4863 27.3869 15.1227C29.1243 13.8613 29.653 13.4273 29.4642 13.4409C29.4012 13.4409 28.9102 13.7799 28.3941 14.1868Z" fill="url(#paint7_linear_692_1170)"/>
<path d="M44.4454 59.4869C43.9544 60.694 43.4886 62.3893 43.4257 63.2709C43.2998 64.7629 44.0174 65.658 46.0442 66.5667C46.5478 66.7973 47.3913 67.0685 47.9074 67.1906C49.2419 67.5025 53.2831 67.7196 56.5311 67.6517C59.4896 67.5975 59.3889 67.6924 56.1534 67.9501C53.6985 68.1671 48.5873 68.0586 46.5226 67.7467C44.6091 67.4754 43.753 67.2856 43.753 67.1364C43.753 66.8515 42.9347 66.0378 42.5067 65.9021C42.1416 65.7801 41.9527 65.7936 41.5876 65.9564C41.147 66.1598 40.7567 66.6481 40.9456 66.7702C41.0085 66.8108 41.638 66.9736 42.3682 67.1364C43.0984 67.3127 43.7278 67.5161 43.7782 67.5975C43.8915 67.7738 43.9292 68.2485 44.2566 72.2225C44.949 80.9298 45.1756 90.2747 44.8734 97.9241C44.6972 102.576 44.5587 104.543 44.3699 105.207C44.1558 105.953 44.3573 106.699 44.9741 107.432C47.278 110.185 58.4321 110.904 64.8778 108.707C66.2752 108.232 66.8795 107.689 67.3578 106.496L67.5341 106.048L68.2013 106.537C68.5664 106.794 69.2337 107.147 69.6869 107.296C70.6562 107.622 72.2803 107.676 73.023 107.391C73.5014 107.215 73.5518 107.215 74.2819 107.635C75.2387 108.191 76.3214 108.449 79.4435 108.856C82.5405 109.276 86.5439 109.425 88.5833 109.195C92.8007 108.72 96.4013 107.296 99.813 104.746C100.707 104.082 100.782 104.041 100.782 104.326C100.795 105.235 101.915 106.374 103.212 106.821C104.056 107.106 106.448 107.228 107.341 107.025C107.719 106.943 108.814 106.442 109.784 105.926C111.798 104.828 112.528 104.611 115.701 104.095C123.002 102.929 129.549 100.732 135.969 97.2867C138.248 96.0525 139.479 95.3415 139.479 95.1923C139.479 95.138 139.671 94.9539 138.903 95.4421C132.218 99.5652 124.438 102.441 116.267 103.824C112.339 104.489 111.71 104.678 109.658 105.791C108.537 106.387 107.618 106.794 107.14 106.889C106.07 107.106 104.169 106.957 103.111 106.577C102.004 106.198 101.11 105.329 100.984 104.516C100.896 103.987 100.896 103.973 101.852 103.037C102.658 102.237 102.784 102.061 102.608 101.952C102.142 101.681 101.21 102.454 100.921 103.376C100.568 104.502 96.1243 107.147 92.8763 108.164C90.1318 109.032 86.5061 109.358 82.9056 109.059C80.4003 108.842 76.6487 108.327 75.6038 108.028C74.8107 107.811 73.8413 107.323 73.8413 107.147C73.8413 107.106 74.0931 106.876 74.3952 106.645C75.4276 105.858 76.0318 104.204 75.6038 103.336C75.4024 102.956 74.8107 102.671 74.1812 102.671C73.1741 102.671 72.3306 103.607 72.3306 104.706C72.3306 105.289 72.7335 106.279 73.1615 106.754L73.4762 107.106L72.9097 107.269C72.104 107.486 70.7318 107.459 69.9261 107.201C68.7553 106.821 67.4334 105.953 67.597 105.669C67.7104 105.479 68.1636 103.051 68.4279 101.179C69.3595 94.6012 69.7246 89.0676 69.7372 81.4452C69.7498 73.1854 69.4728 68.9673 68.8056 67.3127C68.5161 66.5938 67.9747 65.8208 67.6222 65.6173C67.446 65.5224 67.5215 65.658 67.8237 66.0242C68.856 67.2584 69.1078 68.2621 69.3973 72.3581C69.6491 75.9522 69.6869 85.4734 69.4603 88.7692C69.0448 94.9539 68.5664 99.1448 67.5845 105.221C67.5467 105.452 67.4712 105.655 67.4082 105.655C67.0557 105.655 65.6079 102.97 65.2303 101.586L65.0288 100.854L65.5198 100.365C66.9172 99.0092 68.151 96.6763 68.2643 95.1709C68.4154 93.2721 67.2194 91.8208 64.9659 91.1427L64.2105 90.9121V86.2465C64.2231 79.4108 64.7645 74.0263 66.036 68.0315C66.4262 66.2141 66.527 65.3189 66.2122 66.526C65.5702 68.9809 64.7141 74.4874 64.3364 78.5021C64.0972 81.0926 63.858 87.1688 63.921 89.2439L63.9588 90.8036H61.9445C59.6658 90.8036 58.9105 90.9664 56.7199 91.9836C53.3712 93.5162 50.7904 95.849 47.1143 100.691C46.4974 101.518 45.7295 102.603 45.4148 103.119C45.1 103.621 44.8357 104.014 44.8231 104C44.8105 103.973 44.8483 103.132 44.8986 102.129C44.949 101.125 45.0371 97.246 45.0875 93.5162C45.2008 84.8495 44.9867 78.7869 44.2691 70.4593C44.1307 68.8995 44.0425 67.5975 44.0677 67.5704C44.0803 67.5433 44.6846 67.6246 45.4022 67.7331C47.9326 68.1264 49.6322 68.2621 52.3137 68.2621C55.3351 68.2756 57.576 68.0858 60.182 67.6111C62.2088 67.2449 65.8975 66.2548 66.0989 66.0242C66.1871 65.9157 66.1619 65.9021 65.9856 65.9699C64.9029 66.3768 60.1316 67.5568 59.6281 67.5297C59.5147 67.5297 59.7665 67.4212 60.182 67.2855C61.2017 66.9736 61.6801 66.6752 62.4229 65.9293C63.2286 65.1291 63.644 64.1932 63.644 63.176C63.644 62.1723 63.3041 61.7112 62.4984 61.5891L61.9445 61.5078L62.6998 60.8567C63.8077 59.9209 64.198 59.7446 65.2177 59.7446C65.7087 59.7446 66.2122 59.7853 66.3507 59.8531C66.4892 59.9073 66.3759 59.826 66.0989 59.6768C65.1673 59.1614 63.9713 59.5547 62.4858 60.8432L61.6046 61.6027L57.3746 61.5349C53.7866 61.4806 52.9054 61.4264 51.6968 61.1822C49.9217 60.8296 47.8949 60.1108 46.6611 59.3919C46.1575 59.0936 45.7043 58.8766 45.6791 58.9172C45.5658 59.0257 47.2276 59.9209 48.411 60.3956C51.017 61.4264 53.3712 61.7655 57.9537 61.7655C59.8295 61.7655 61.378 61.779 61.378 61.8061C61.378 61.9418 59.9805 62.5657 59.2755 62.742C58.004 63.0675 52.3515 62.9319 50.74 62.5521C48.5369 62.0367 46.7744 61.0602 45.6414 59.731C45.3015 59.3106 45.0119 58.9172 45.0119 58.8494C45.0119 58.4968 44.7224 58.8223 44.4454 59.4869ZM46.7744 60.9924C48.7761 62.4436 50.7778 62.9725 54.8945 63.1353C58.2055 63.2845 59.968 62.9725 61.2646 62.0503C61.9696 61.562 62.6621 61.5891 63.1656 62.1181C63.5181 62.5114 63.5433 62.5928 63.4929 63.3116C63.3545 65.2104 61.9948 66.6481 59.7791 67.2313C59.0615 67.4076 58.2432 67.4483 54.7056 67.4212C52.3892 67.4076 50.0098 67.3398 49.4182 67.2584C46.1575 66.8515 43.7782 65.5088 43.5642 63.9762C43.4634 63.2574 43.7656 61.8333 44.3825 60.0972L44.7853 58.9715L45.5029 59.7717C45.8932 60.2193 46.4597 60.7754 46.7744 60.9924ZM42.8592 66.2412C43.1865 66.4311 43.7026 67.0957 43.6019 67.2042C43.5642 67.2449 41.6128 66.8244 41.1848 66.6888C41.1092 66.6617 41.1848 66.5125 41.3358 66.3497C41.6632 65.9971 42.3304 65.9564 42.8592 66.2412ZM63.921 91.0884C63.9839 91.1291 64.0217 91.6174 64.0217 92.1735C64.0217 94.1672 64.3616 98.2225 64.7267 100.433C64.7896 100.813 64.7267 100.881 64.0343 101.369C63.002 102.074 61.2772 102.753 59.9931 102.956C59.2881 103.064 58.3062 103.092 57.0472 103.024C50.7778 102.739 50.1232 102.753 48.2096 103.295C47.3283 103.539 45.5029 104.475 45.2008 104.855C44.9238 105.167 44.7601 105.194 44.7601 104.909C44.7601 103.824 49.393 97.7749 52.1249 95.2658C54.479 93.1229 57.8152 91.3868 60.3708 91.0071C61.1513 90.8986 63.7196 90.9528 63.921 91.0884ZM65.2554 91.4682C66.1115 91.7801 67.0305 92.3633 67.446 92.8652C68.1006 93.6383 68.2517 95.1709 67.7985 96.4865C67.446 97.5037 66.6529 98.765 65.7464 99.7958L64.9659 100.664L64.8148 99.7958C64.7393 99.3211 64.5882 97.7749 64.4749 96.3644C64.1602 92.1599 64.1224 91.1427 64.2483 91.1427C64.3238 91.1427 64.7645 91.2919 65.2554 91.4682ZM65.973 103.96C66.1745 104.326 66.5773 104.923 66.8795 105.262L67.4334 105.899L67.232 106.415C66.7032 107.771 66.0108 108.259 63.6188 108.91C61.2017 109.561 59.1748 109.792 55.7757 109.792C52.6788 109.778 51.3569 109.656 49.1664 109.154C47.7564 108.829 46.1701 108.232 45.6288 107.811C45.0875 107.405 44.5083 106.496 44.5209 106.075C44.5335 105.329 46.4597 104.027 48.3732 103.458C49.4307 103.146 51.3821 103.092 57.4123 103.2C59.8169 103.254 60.1442 103.227 61.0632 102.956C62.1459 102.644 63.5811 101.966 64.349 101.396L64.8274 101.057L65.2177 102.169C65.4317 102.793 65.7716 103.593 65.973 103.96ZM102.23 102.346C102.23 102.536 101.173 103.539 101.072 103.444C100.971 103.336 101.374 102.671 101.714 102.373C101.991 102.129 102.23 102.115 102.23 102.346ZM75.0625 103.078C75.5157 103.376 75.6668 103.81 75.5535 104.475C75.4402 105.14 74.8107 106.13 74.2064 106.604L73.6651 107.011L73.2622 106.591C72.8468 106.157 72.4565 105.194 72.4565 104.651C72.4565 104.489 72.5698 104.122 72.6957 103.81C73.086 102.875 74.219 102.522 75.0625 103.078Z" fill="url(#paint8_linear_692_1170)"/>
<path d="M58.0959 0.542516C57.756 0.827337 57.416 1.03078 57.3405 0.990092C57.2776 0.93584 57.2524 0.962966 57.3027 1.01722C57.3657 1.08503 56.8243 1.77674 56.1068 2.56339C55.4018 3.35004 54.5583 4.36725 54.2436 4.81483C52.6195 7.0934 51.0459 10.145 50.429 12.1524C50.2402 12.7627 50.0261 13.3459 49.938 13.4544C49.6485 13.8477 48.0119 14.9463 46.7655 15.5973C44.361 16.8451 41.7802 17.6182 39.0483 17.903C35.901 18.2421 33.2573 17.4012 31.5325 15.5295C31.1171 15.0684 30.6387 14.4174 30.4624 14.0647L30.1477 13.4273L31.243 12.3422C32.3886 11.203 33.1062 9.98229 33.1062 9.20921C33.1062 8.73451 32.5774 8.0428 32.1116 7.9343C31.3563 7.75798 30.261 8.63957 29.9211 9.69747C29.4427 11.1351 29.556 12.3422 30.2736 13.9291C31.734 17.1299 35.3471 18.6625 39.8288 17.9844C43.2028 17.469 45.9598 16.4382 48.7043 14.6615C49.2834 14.2817 49.7744 13.9698 49.7995 13.9698C49.8121 13.9698 49.724 14.3631 49.5981 14.8514C49.2708 16.0856 48.7546 19.4899 48.6539 21.0225C48.5658 22.3923 48.7421 25.1592 49.019 26.8545C49.1701 27.7904 49.1701 27.8718 48.9435 28.0752C48.1881 28.7533 48.6287 30.2453 49.5981 30.2453C49.8499 30.2453 49.8751 30.191 49.7995 29.6621C49.7618 29.3501 49.6737 28.8619 49.5981 28.5635C49.4974 28.2244 49.4974 27.9938 49.5729 27.9124C49.8373 27.6276 50.92 27.7904 52.1789 28.2786C53.3245 28.7398 53.526 28.7805 54.4576 28.7262C57.0384 28.5906 59.2541 26.4205 60.2234 23.1112C60.7522 21.2531 60.8403 20.0188 60.7648 15.3939C60.6641 9.68391 60.4123 7.62235 59.4177 4.04174C58.8134 1.87168 58.7631 0.962966 59.2289 0.474701C59.594 0.0678145 59.7325 0.0542516 60.2738 0.406887C60.576 0.61033 60.8151 0.962966 61.1173 1.66824C62.8798 5.83205 63.8366 10.7418 64.0254 16.7502C64.1261 19.951 63.8869 27.7904 63.6477 28.7533C63.2952 30.1775 62.6406 30.503 59.1156 30.9912C55.5277 31.493 52.053 31.3981 48.6036 30.7064C47.672 30.5165 46.8285 30.408 46.7278 30.4487C46.5767 30.503 46.5515 30.8149 46.6019 32.1848C46.6522 33.5546 46.7152 33.9886 46.9795 34.6803L47.2943 35.5212L47.0677 36.2401C46.7529 37.2166 46.7529 38.9798 47.0803 40.4446C47.7853 43.6861 48.0119 47.8092 47.6594 51.105C47.4831 52.6919 46.9921 55.2146 46.5137 56.8964C46.4382 57.1541 46.5012 57.1676 47.609 57.1812C48.9435 57.1947 50.001 57.5338 52.8839 58.9037C54.8353 59.8395 55.7669 60.0972 57.0761 60.0972C59.3674 60.1108 60.8026 58.8223 61.4446 56.2047C61.6712 55.2417 61.7216 54.3872 61.8726 48.0127C61.9734 44.093 62.0741 40.0648 62.1118 39.0611C62.1874 37.0538 62.5021 35.3856 62.9931 34.3413C63.2449 33.8123 64.5164 31.7914 64.8059 31.4388C64.8563 31.3845 64.8689 35.1686 64.8563 39.8478C64.8059 49.3418 64.9193 52.9224 65.3347 54.4957C65.6368 55.6893 66.153 56.815 66.9965 58.1441C68.6582 60.816 69.1241 62.742 68.4316 64.1932C68.268 64.5458 68.1925 64.8307 68.2554 64.8307C68.3183 64.8307 68.482 64.5458 68.6331 64.1932C68.8471 63.6778 68.8849 63.3659 68.8345 62.4571C68.7716 61.128 68.3435 60.043 67.0972 58.0492C65.0325 54.7399 64.8815 53.4243 64.9948 39.2646C65.0577 31.9271 65.0829 30.937 65.2717 30.4623C65.5235 29.8248 65.5487 28.9025 65.3221 28.455L65.1584 28.143L65.0703 28.4821C65.02 28.672 64.9822 29.2823 64.9696 29.8519C64.957 30.8149 64.9192 30.9505 64.529 31.5473C61.9482 35.4805 62.0237 35.0601 61.7467 46.5886C61.5453 55.5672 61.5076 56.0555 60.8026 57.6016C60.0976 59.1478 58.826 59.948 57.1013 59.948C55.8424 59.948 54.6464 59.5818 52.4811 58.551C50.2276 57.466 49.2204 57.1269 47.8356 56.9506C47.2565 56.8828 46.7655 56.8014 46.7404 56.7879C46.7278 56.7607 46.8285 56.3539 46.9544 55.8656C47.5461 53.8312 47.8608 51.4441 47.9237 48.5959C47.9993 45.4764 47.8734 43.781 47.3195 40.8921C46.904 38.7492 46.8662 37.5421 47.1558 36.4978L47.3446 35.7925L48.0119 36.5249C49.0694 37.6777 50.3787 38.0304 51.2473 37.3929C51.8138 36.986 52.0153 36.5385 51.9523 35.8467C51.8768 35.1008 51.3984 34.4226 50.6934 34.0564C49.6862 33.5275 48.8302 33.7716 47.8734 34.8295L47.3446 35.4127L47.0803 34.4905C46.9292 33.9886 46.7781 33.0528 46.7404 32.4153C46.6774 31.3032 46.6774 31.2625 46.967 31.1269C47.1306 31.0455 47.2565 30.9098 47.2313 30.8149C47.1936 30.6115 47.0929 30.5979 48.7546 30.9234C50.8822 31.3167 52.5314 31.4659 55.0619 31.4659C57.5294 31.4659 58.7002 31.3574 60.8655 30.9098C62.905 30.4894 63.4589 30.1232 63.761 28.9568C64.2268 27.1936 64.4157 16.2755 64.0254 12.8848C63.4967 8.21912 62.6658 4.69276 61.4068 1.80387C61.004 0.868026 60.1983 0 59.7451 0C59.5688 0 59.2667 0.149192 59.0778 0.32551C58.7505 0.623893 58.7253 0.732397 58.7253 1.58686C58.7253 2.265 58.8512 2.94315 59.1911 4.13668C60.1983 7.6766 60.4249 9.67035 60.513 15.421C60.5885 20.2901 60.513 21.3751 59.9717 23.1926C59.1534 25.9594 57.202 28.021 54.9611 28.4685C54.0295 28.6584 53.4756 28.5635 52.053 27.9667C51.1088 27.5734 50.8067 27.5191 50.152 27.5598L49.3841 27.6141L49.2456 26.7867C48.6287 23.1112 48.8176 18.9881 49.787 15.0548C50.0513 13.9969 50.1772 13.6985 50.5171 13.3866C50.7311 13.1696 51.4487 12.4914 52.0908 11.8947C54.7597 9.3584 56.9628 5.91342 58.1336 2.44132C58.5365 1.22066 58.826 0.135629 58.7631 0.0678145C58.7379 0.0542516 58.4484 0.257695 58.0959 0.542516ZM58.0203 2.11581C56.988 5.2624 55.3136 8.08349 52.9469 10.6469C52.0404 11.637 51.0585 12.6271 50.7815 12.8576L50.2528 13.2916L50.5549 12.505C50.7186 12.0845 50.857 11.6505 50.857 11.5556C50.857 11.4607 51.197 10.674 51.5998 9.79241C52.4307 8.00211 53.7148 5.85917 54.8478 4.34013C56.1068 2.65833 58.1462 0.651019 58.3854 0.881588C58.398 0.895151 58.2343 1.45123 58.0203 2.11581ZM32.5774 8.44969C32.9425 8.80232 32.9425 9.60253 32.6026 10.3892C32.3382 10.9588 31.1297 12.3694 30.4624 12.8848L30.0974 13.1696L29.9715 12.6542C29.2665 9.95517 31.1045 6.99846 32.5774 8.44969ZM49.4596 29.011C49.7744 30.1368 49.7744 30.1096 49.5352 30.1096C49.2204 30.1096 48.7169 29.4722 48.7169 29.0924C48.7169 28.8076 49.0316 28.0752 49.1575 28.0752C49.1827 28.0752 49.3086 28.4957 49.4596 29.011ZM65.2088 30.2046C65.0955 30.408 65.0829 30.3673 65.1333 29.9876C65.171 29.7434 65.2214 29.3366 65.234 29.106C65.2466 28.8483 65.2717 28.9297 65.2969 29.323C65.3221 29.6756 65.2843 30.0825 65.2088 30.2046ZM50.5423 34.1649C51.5998 34.6803 52.0782 35.7518 51.6628 36.6876C51.1088 37.949 49.4345 37.8134 48.1126 36.3893L47.4454 35.6704L47.7097 35.2635C48.2133 34.504 49.0694 33.9479 49.787 33.9208C49.9254 33.9208 50.2653 34.0293 50.5423 34.1649Z" fill="url(#paint9_linear_692_1170)"/>
<path d="M28.8258 14.1868C25.603 16.7502 21.8892 18.5812 18.7167 19.1915C17.7347 19.3814 17.0801 19.4085 15.6323 19.3543C13.6558 19.2729 13.3159 19.2051 10.3826 18.3235C6.70651 17.2113 4.67963 17.469 2.67794 19.2865C2.06107 19.8425 0.5 21.7413 0.5 21.9448C0.5 22.0533 0.66366 21.877 1.63303 20.6428C3.25705 18.5812 4.67964 17.8352 6.92052 17.8488C7.96543 17.8488 8.50677 17.9302 9.50132 18.2286C12.5731 19.1508 13.5551 19.395 14.8266 19.5306C18.8048 19.9646 23.1607 18.4863 27.8187 15.1227C29.556 13.8613 30.0848 13.4273 29.8959 13.4409C29.833 13.4409 29.342 13.7799 28.8258 14.1868Z" fill="url(#paint10_linear_692_1170)"/>
<path d="M44.8771 59.4869C44.3862 60.694 43.9204 62.3893 43.8574 63.2709C43.7315 64.7629 44.4491 65.658 46.476 66.5667C46.9796 66.7973 47.823 67.0685 48.3392 67.1906C49.6737 67.5025 53.7148 67.7196 56.9628 67.6517C59.9213 67.5975 59.8206 67.6924 56.5852 67.9501C54.1303 68.1671 49.019 68.0586 46.9544 67.7467C45.0408 67.4754 44.1847 67.2856 44.1847 67.1364C44.1847 66.8515 43.3664 66.0378 42.9384 65.9021C42.5733 65.7801 42.3845 65.7936 42.0194 65.9564C41.5788 66.1598 41.1885 66.6481 41.3773 66.7702C41.4403 66.8108 42.0697 66.9736 42.7999 67.1364C43.5301 67.3127 44.1596 67.5161 44.2099 67.5975C44.3232 67.7738 44.361 68.2485 44.6883 72.2225C45.3807 80.9298 45.6073 90.2747 45.3052 97.9241C45.1289 102.576 44.9904 104.543 44.8016 105.207C44.5876 105.953 44.789 106.699 45.4059 107.432C47.7097 110.185 58.8638 110.904 65.3095 108.707C66.7069 108.232 67.3112 107.689 67.7896 106.496L67.9659 106.048L68.6331 106.537C68.9982 106.794 69.6654 107.147 70.1186 107.296C71.088 107.622 72.712 107.676 73.4548 107.391C73.9332 107.215 73.9835 107.215 74.7137 107.635C75.6705 108.191 76.7532 108.449 79.8753 108.856C82.9722 109.276 86.9756 109.425 89.0151 109.195C93.2325 108.72 96.833 107.296 100.245 104.746C101.139 104.082 101.214 104.041 101.214 104.326C101.227 105.235 102.347 106.374 103.644 106.821C104.487 107.106 106.879 107.228 107.773 107.025C108.151 106.943 109.246 106.442 110.215 105.926C112.23 104.828 112.96 104.611 116.132 104.095C123.434 102.929 129.981 100.732 136.401 97.2867C138.68 96.0525 139.91 95.3415 139.91 95.1923C139.91 95.138 140.102 94.9539 139.334 95.4421C132.649 99.5652 124.869 102.441 116.699 103.824C112.771 104.489 112.142 104.678 110.09 105.791C108.969 106.387 108.05 106.794 107.572 106.889C106.502 107.106 104.601 106.957 103.543 106.577C102.435 106.198 101.541 105.329 101.416 104.516C101.327 103.987 101.327 103.973 102.284 103.037C103.09 102.237 103.216 102.061 103.04 101.952C102.574 101.681 101.642 102.454 101.353 103.376C101 104.502 96.5561 107.147 93.308 108.164C90.5636 109.032 86.9379 109.358 83.3373 109.059C80.8321 108.842 77.0805 108.327 76.0356 108.028C75.2424 107.811 74.2731 107.323 74.2731 107.147C74.2731 107.106 74.5249 106.876 74.827 106.645C75.8593 105.858 76.4636 104.204 76.0356 103.336C75.8341 102.956 75.2424 102.671 74.613 102.671C73.6058 102.671 72.7624 103.607 72.7624 104.706C72.7624 105.289 73.1652 106.279 73.5932 106.754L73.908 107.106L73.3415 107.269C72.5358 107.486 71.1635 107.459 70.3578 107.201C69.187 106.821 67.8651 105.953 68.0288 105.669C68.1421 105.479 68.5953 103.051 68.8597 101.179C69.7913 94.6012 70.1564 89.0676 70.169 81.4452C70.1816 73.1854 69.9046 68.9673 69.2374 67.3127C68.9478 66.5938 68.4065 65.8208 68.054 65.6173C67.8777 65.5224 67.9533 65.658 68.2554 66.0242C69.2877 67.2584 69.5395 68.2621 69.8291 72.3581C70.0808 75.9522 70.1186 85.4734 69.892 88.7692C69.4766 94.9539 68.9982 99.1448 68.0162 105.221C67.9784 105.452 67.9029 105.655 67.84 105.655C67.4875 105.655 66.0397 102.97 65.662 101.586L65.4606 100.854L65.9516 100.365C67.349 99.0092 68.5827 96.6763 68.696 95.1709C68.8471 93.2721 67.6511 91.8208 65.3976 91.1427L64.6423 90.9121V86.2465C64.6549 79.4108 65.1962 74.0263 66.4677 68.0315C66.858 66.2141 66.9587 65.3189 66.644 66.526C66.0019 68.9809 65.1459 74.4874 64.7682 78.5021C64.529 81.0926 64.2898 87.1688 64.3527 89.2439L64.3905 90.8036H62.3762C60.0976 90.8036 59.3422 90.9664 57.1517 91.9836C53.8029 93.5162 51.2221 95.849 47.5461 100.691C46.9292 101.518 46.1613 102.603 45.8465 103.119C45.5318 103.621 45.2674 104.014 45.2548 104C45.2422 103.973 45.28 103.132 45.3304 102.129C45.3807 101.125 45.4688 97.246 45.5192 93.5162C45.6325 84.8495 45.4185 78.7869 44.7009 70.4593C44.5624 68.8995 44.4743 67.5975 44.4995 67.5704C44.5121 67.5433 45.1163 67.6246 45.8339 67.7331C48.3644 68.1264 50.0639 68.2621 52.7454 68.2621C55.7669 68.2756 58.0077 68.0858 60.6137 67.6111C62.6406 67.2449 66.3292 66.2548 66.5307 66.0242C66.6188 65.9157 66.5936 65.9021 66.4174 65.9699C65.3347 66.3768 60.5634 67.5568 60.0598 67.5297C59.9465 67.5297 60.1983 67.4212 60.6137 67.2855C61.6335 66.9736 62.1118 66.6752 62.8546 65.9293C63.6603 65.1291 64.0758 64.1932 64.0758 63.176C64.0758 62.1723 63.7359 61.7112 62.9301 61.5891L62.3762 61.5078L63.1316 60.8567C64.2394 59.9209 64.6297 59.7446 65.6494 59.7446C66.1404 59.7446 66.644 59.7853 66.7825 59.8531C66.9209 59.9073 66.8076 59.826 66.5307 59.6768C65.5991 59.1614 64.4031 59.5547 62.9176 60.8432L62.0363 61.6027L57.8063 61.5349C54.2184 61.4806 53.3371 61.4264 52.1286 61.1822C50.3535 60.8296 48.3266 60.1108 47.0929 59.3919C46.5893 59.0936 46.1361 58.8766 46.1109 58.9172C45.9976 59.0257 47.6594 59.9209 48.8428 60.3956C51.4487 61.4264 53.8029 61.7655 58.3854 61.7655C60.2612 61.7655 61.8097 61.779 61.8097 61.8061C61.8097 61.9418 60.4123 62.5657 59.7073 62.742C58.4358 63.0675 52.7832 62.9319 51.1718 62.5521C48.9687 62.0367 47.2062 61.0602 46.0731 59.731C45.7332 59.3106 45.4437 58.9172 45.4437 58.8494C45.4437 58.4968 45.1541 58.8223 44.8771 59.4869ZM47.2062 60.9924C49.2079 62.4436 51.2095 62.9725 55.3262 63.1353C58.6372 63.2845 60.3997 62.9725 61.6964 62.0503C62.4014 61.562 63.0938 61.5891 63.5974 62.1181C63.9499 62.5114 63.9751 62.5928 63.9247 63.3116C63.7862 65.2104 62.4266 66.6481 60.2109 67.2313C59.4933 67.4076 58.675 67.4483 55.1374 67.4212C52.821 67.4076 50.4416 67.3398 49.8499 67.2584C46.5893 66.8515 44.2099 65.5088 43.9959 63.9762C43.8952 63.2574 44.1973 61.8333 44.8142 60.0972L45.2171 58.9715L45.9346 59.7717C46.3249 60.2193 46.8914 60.7754 47.2062 60.9924ZM43.2909 66.2412C43.6182 66.4311 44.1344 67.0957 44.0337 67.2042C43.9959 67.2449 42.0446 66.8244 41.6165 66.6888C41.541 66.6617 41.6165 66.5125 41.7676 66.3497C42.0949 65.9971 42.7621 65.9564 43.2909 66.2412ZM64.3527 91.0884C64.4157 91.1291 64.4534 91.6174 64.4534 92.1735C64.4534 94.1672 64.7934 98.2225 65.1584 100.433C65.2214 100.813 65.1584 100.881 64.466 101.369C63.4337 102.074 61.709 102.753 60.4249 102.956C59.7199 103.064 58.7379 103.092 57.479 103.024C51.2095 102.739 50.5549 102.753 48.6413 103.295C47.7601 103.539 45.9346 104.475 45.6325 104.855C45.3555 105.167 45.1919 105.194 45.1919 104.909C45.1919 103.824 49.8247 97.7749 52.5566 95.2658C54.9108 93.1229 58.2469 91.3868 60.8026 91.0071C61.5831 90.8986 64.1513 90.9528 64.3527 91.0884ZM65.6872 91.4682C66.5433 91.7801 67.4623 92.3633 67.8777 92.8652C68.5324 93.6383 68.6834 95.1709 68.2302 96.4865C67.8777 97.5037 67.0846 98.765 66.1782 99.7958L65.3976 100.664L65.2466 99.7958C65.171 99.3211 65.02 97.7749 64.9067 96.3644C64.5919 92.1599 64.5542 91.1427 64.6801 91.1427C64.7556 91.1427 65.1962 91.2919 65.6872 91.4682ZM66.4048 103.96C66.6062 104.326 67.0091 104.923 67.3112 105.262L67.8651 105.899L67.6637 106.415C67.135 107.771 66.4426 108.259 64.0506 108.91C61.6335 109.561 59.6066 109.792 56.2075 109.792C53.1105 109.778 51.7887 109.656 49.5981 109.154C48.1881 108.829 46.6019 108.232 46.0605 107.811C45.5192 107.405 44.9401 106.496 44.9527 106.075C44.9653 105.329 46.8914 104.027 48.805 103.458C49.8625 103.146 51.8138 103.092 57.8441 103.2C60.2486 103.254 60.576 103.227 61.495 102.956C62.5776 102.644 64.0128 101.966 64.7808 101.396L65.2592 101.057L65.6494 102.169C65.8634 102.793 66.2033 103.593 66.4048 103.96ZM102.662 102.346C102.662 102.536 101.604 103.539 101.504 103.444C101.403 103.336 101.806 102.671 102.146 102.373C102.423 102.129 102.662 102.115 102.662 102.346ZM75.4942 103.078C75.9474 103.376 76.0985 103.81 75.9852 104.475C75.8719 105.14 75.2424 106.13 74.6382 106.604L74.0968 107.011L73.694 106.591C73.2785 106.157 72.8883 105.194 72.8883 104.651C72.8883 104.489 73.0016 104.122 73.1274 103.81C73.5177 102.875 74.6507 102.522 75.4942 103.078Z" fill="url(#paint11_linear_692_1170)"/>
<path d="M58.38 0.542516C58.0401 0.827337 57.7002 1.03078 57.6246 0.990092C57.5617 0.93584 57.5365 0.962966 57.5869 1.01722C57.6498 1.08503 57.1085 1.77674 56.3909 2.56339C55.6859 3.35004 54.8424 4.36725 54.5277 4.81483C52.9037 7.0934 51.33 10.145 50.7131 12.1524C50.5243 12.7627 50.3103 13.3459 50.2222 13.4544C49.9326 13.8477 48.296 14.9463 47.0497 15.5973C44.6451 16.8451 42.0643 17.6182 39.3324 17.903C36.1851 18.2421 33.5414 17.4012 31.8167 15.5295C31.4012 15.0684 30.9228 14.4174 30.7466 14.0647L30.4318 13.4273L31.5271 12.3422C32.6727 11.203 33.3903 9.98229 33.3903 9.20921C33.3903 8.73451 32.8616 8.0428 32.3958 7.9343C31.6404 7.75798 30.5451 8.63957 30.2052 9.69747C29.7268 11.1351 29.8401 12.3422 30.5577 13.9291C32.0181 17.1299 35.6312 18.6625 40.113 17.9844C43.4869 17.469 46.2439 16.4382 48.9884 14.6615C49.5675 14.2817 50.0585 13.9698 50.0837 13.9698C50.0963 13.9698 50.0081 14.3631 49.8822 14.8514C49.5549 16.0856 49.0388 19.4899 48.938 21.0225C48.8499 22.3923 49.0262 25.1592 49.3031 26.8545C49.4542 27.7904 49.4542 27.8718 49.2276 28.0752C48.4722 28.7533 48.9129 30.2453 49.8822 30.2453C50.134 30.2453 50.1592 30.191 50.0837 29.6621C50.0459 29.3501 49.9578 28.8619 49.8822 28.5635C49.7815 28.2244 49.7815 27.9938 49.8571 27.9124C50.1214 27.6276 51.2041 27.7904 52.463 28.2786C53.6087 28.7398 53.8101 28.7805 54.7417 28.7262C57.3225 28.5906 59.5382 26.4205 60.5076 23.1112C61.0363 21.2531 61.1244 20.0188 61.0489 15.3939C60.9482 9.68391 60.6964 7.62235 59.7019 4.04174C59.0976 1.87168 59.0472 0.962966 59.513 0.474701C59.8781 0.0678145 60.0166 0.0542516 60.5579 0.406887C60.8601 0.61033 61.0993 0.962966 61.4014 1.66824C63.1639 5.83205 64.1207 10.7418 64.3095 16.7502C64.4102 19.951 64.1711 27.7904 63.9319 28.7533C63.5794 30.1775 62.9247 30.503 59.3997 30.9912C55.8118 31.493 52.3372 31.3981 48.8877 30.7064C47.9561 30.5165 47.1126 30.408 47.0119 30.4487C46.8608 30.503 46.8356 30.8149 46.886 32.1848C46.9364 33.5546 46.9993 33.9886 47.2637 34.6803L47.5784 35.5212L47.3518 36.2401C47.0371 37.2166 47.0371 38.9798 47.3644 40.4446C48.0694 43.6861 48.296 47.8092 47.9435 51.105C47.7672 52.6919 47.2763 55.2146 46.7979 56.8964C46.7223 57.1541 46.7853 57.1676 47.8931 57.1812C49.2276 57.1947 50.2851 57.5338 53.168 58.9037C55.1194 59.8395 56.051 60.0972 57.3603 60.0972C59.6515 60.1108 61.0867 58.8223 61.7287 56.2047C61.9553 55.2417 62.0057 54.3872 62.1568 48.0127C62.2575 44.093 62.3582 40.0648 62.396 39.0611C62.4715 37.0538 62.7862 35.3856 63.2772 34.3413C63.529 33.8123 64.8005 31.7914 65.0901 31.4388C65.1404 31.3845 65.153 35.1686 65.1404 39.8478C65.0901 49.3418 65.2034 52.9224 65.6188 54.4957C65.921 55.6893 66.4371 56.815 67.2806 58.1441C68.9424 60.816 69.4082 62.742 68.7158 64.1932C68.5521 64.5458 68.4766 64.8307 68.5395 64.8307C68.6025 64.8307 68.7661 64.5458 68.9172 64.1932C69.1312 63.6778 69.169 63.3659 69.1186 62.4571C69.0557 61.128 68.6276 60.043 67.3813 58.0492C65.3167 54.7399 65.1656 53.4243 65.2789 39.2646C65.3419 31.9271 65.367 30.937 65.5559 30.4623C65.8077 29.8248 65.8328 28.9025 65.6062 28.455L65.4426 28.143L65.3544 28.4821C65.3041 28.672 65.2663 29.2823 65.2537 29.8519C65.2411 30.8149 65.2034 30.9505 64.8131 31.5473C62.2323 35.4805 62.3078 35.0601 62.0309 46.5886C61.8294 55.5672 61.7917 56.0555 61.0867 57.6016C60.3817 59.1478 59.1102 59.948 57.3854 59.948C56.1265 59.948 54.9305 59.5818 52.7652 58.551C50.5117 57.466 49.5046 57.1269 48.1197 56.9506C47.5406 56.8828 47.0497 56.8014 47.0245 56.7879C47.0119 56.7607 47.1126 56.3539 47.2385 55.8656C47.8302 53.8312 48.1449 51.4441 48.2079 48.5959C48.2834 45.4764 48.1575 43.781 47.6036 40.8921C47.1881 38.7492 47.1504 37.5421 47.4399 36.4978L47.6288 35.7925L48.296 36.5249C49.3535 37.6777 50.6628 38.0304 51.5314 37.3929C52.098 36.986 52.2994 36.5385 52.2364 35.8467C52.1609 35.1008 51.6825 34.4226 50.9775 34.0564C49.9704 33.5275 49.1143 33.7716 48.1575 34.8295L47.6288 35.4127L47.3644 34.4905C47.2133 33.9886 47.0622 33.0528 47.0245 32.4153C46.9615 31.3032 46.9615 31.2625 47.2511 31.1269C47.4147 31.0455 47.5406 30.9098 47.5155 30.8149C47.4777 30.6115 47.377 30.5979 49.0388 30.9234C51.1663 31.3167 52.8155 31.4659 55.346 31.4659C57.8135 31.4659 58.9843 31.3574 61.1496 30.9098C63.1891 30.4894 63.743 30.1232 64.0452 28.9568C64.511 27.1936 64.6998 16.2755 64.3095 12.8848C63.7808 8.21912 62.9499 4.69276 61.691 1.80387C61.2881 0.868026 60.4824 0 60.0292 0C59.8529 0 59.5508 0.149192 59.362 0.32551C59.0346 0.623893 59.0095 0.732397 59.0095 1.58686C59.0095 2.265 59.1353 2.94315 59.4753 4.13668C60.4824 7.6766 60.709 9.67035 60.7971 15.421C60.8727 20.2901 60.7971 21.3751 60.2558 23.1926C59.4375 25.9594 57.4862 28.021 55.2453 28.4685C54.3137 28.6584 53.7597 28.5635 52.3372 27.9667C51.393 27.5734 51.0908 27.5191 50.4362 27.5598L49.6682 27.6141L49.5297 26.7867C48.9129 23.1112 49.1017 18.9881 50.0711 15.0548C50.3355 13.9969 50.4613 13.6985 50.8013 13.3866C51.0153 13.1696 51.7329 12.4914 52.3749 11.8947C55.0438 9.3584 57.247 5.91342 58.4178 2.44132C58.8206 1.22066 59.1102 0.135629 59.0472 0.0678145C59.022 0.0542516 58.7325 0.257695 58.38 0.542516ZM58.3045 2.11581C57.2721 5.2624 55.5978 8.08349 53.231 10.6469C52.3246 11.637 51.3426 12.6271 51.0656 12.8576L50.5369 13.2916L50.839 12.505C51.0027 12.0845 51.1412 11.6505 51.1412 11.5556C51.1412 11.4607 51.4811 10.674 51.8839 9.79241C52.7148 8.00211 53.9989 5.85917 55.132 4.34013C56.3909 2.65833 58.4303 0.651019 58.6695 0.881588C58.6821 0.895151 58.5185 1.45123 58.3045 2.11581ZM32.8616 8.44969C33.2267 8.80232 33.2267 9.60253 32.8867 10.3892C32.6224 10.9588 31.4138 12.3694 30.7466 12.8848L30.3815 13.1696L30.2556 12.6542C29.5506 9.95517 31.3886 6.99846 32.8616 8.44969ZM49.7438 29.011C50.0585 30.1368 50.0585 30.1096 49.8193 30.1096C49.5046 30.1096 49.001 29.4722 49.001 29.0924C49.001 28.8076 49.3157 28.0752 49.4416 28.0752C49.4668 28.0752 49.5927 28.4957 49.7438 29.011ZM65.4929 30.2046C65.3796 30.408 65.367 30.3673 65.4174 29.9876C65.4552 29.7434 65.5055 29.3366 65.5181 29.106C65.5307 28.8483 65.5559 28.9297 65.581 29.323C65.6062 29.6756 65.5685 30.0825 65.4929 30.2046ZM50.8264 34.1649C51.8839 34.6803 52.3623 35.7518 51.9469 36.6876C51.393 37.949 49.7186 37.8134 48.3967 36.3893L47.7295 35.6704L47.9939 35.2635C48.4974 34.504 49.3535 33.9479 50.0711 33.9208C50.2096 33.9208 50.5495 34.0293 50.8264 34.1649Z" fill="url(#paint12_linear_692_1170)"/>
<path d="M29.11 14.1868C25.8871 16.7502 22.1733 18.5812 19.0008 19.1915C18.0188 19.3814 17.3642 19.4085 15.9164 19.3543C13.9399 19.2729 13.6 19.2051 10.6667 18.3235C6.99063 17.2113 4.96376 17.469 2.96207 19.2865C2.3452 19.8425 0.784127 21.7413 0.784127 21.9448C0.784127 22.0533 0.947787 21.877 1.91716 20.6428C3.54117 18.5812 4.96376 17.8352 7.20465 17.8488C8.24956 17.8488 8.7909 17.9302 9.78545 18.2286C12.8572 19.1508 13.8392 19.395 15.1107 19.5306C19.0889 19.9646 23.4448 18.4863 28.1028 15.1227C29.8401 13.8613 30.3689 13.4273 30.18 13.4409C30.1171 13.4409 29.6261 13.7799 29.11 14.1868Z" fill="url(#paint13_linear_692_1170)"/>
<path d="M45.1613 59.4869C44.6703 60.694 44.2045 62.3893 44.1415 63.2709C44.0157 64.7629 44.7332 65.658 46.7601 66.5667C47.2637 66.7973 48.1072 67.0685 48.6233 67.1906C49.9578 67.5025 53.9989 67.7196 57.247 67.6517C60.2054 67.5975 60.1047 67.6924 56.8693 67.9501C54.4144 68.1671 49.3031 68.0586 47.2385 67.7467C45.3249 67.4754 44.4689 67.2856 44.4689 67.1364C44.4689 66.8515 43.6506 66.0378 43.2225 65.9021C42.8574 65.7801 42.6686 65.7936 42.3035 65.9564C41.8629 66.1598 41.4726 66.6481 41.6615 66.7702C41.7244 66.8108 42.3539 66.9736 43.084 67.1364C43.8142 67.3127 44.4437 67.5161 44.494 67.5975C44.6073 67.7738 44.6451 68.2485 44.9724 72.2225C45.6648 80.9298 45.8914 90.2747 45.5893 97.9241C45.4131 102.576 45.2746 104.543 45.0857 105.207C44.8717 105.953 45.0731 106.699 45.69 107.432C47.9939 110.185 59.1479 110.904 65.5936 108.707C66.991 108.232 67.5953 107.689 68.0737 106.496L68.25 106.048L68.9172 106.537C69.2823 106.794 69.9495 107.147 70.4027 107.296C71.3721 107.622 72.9961 107.676 73.7389 107.391C74.2173 107.215 74.2676 107.215 74.9978 107.635C75.9546 108.191 77.0373 108.449 80.1594 108.856C83.2564 109.276 87.2598 109.425 89.2992 109.195C93.5166 108.72 97.1171 107.296 100.529 104.746C101.423 104.082 101.498 104.041 101.498 104.326C101.511 105.235 102.631 106.374 103.928 106.821C104.771 107.106 107.163 107.228 108.057 107.025C108.435 106.943 109.53 106.442 110.5 105.926C112.514 104.828 113.244 104.611 116.416 104.095C123.718 102.929 130.265 100.732 136.685 97.2867C138.964 96.0525 140.195 95.3415 140.195 95.1923C140.195 95.138 140.386 94.9539 139.618 95.4421C132.934 99.5652 125.153 102.441 116.983 103.824C113.055 104.489 112.426 104.678 110.374 105.791C109.253 106.387 108.334 106.794 107.856 106.889C106.786 107.106 104.885 106.957 103.827 106.577C102.719 106.198 101.826 105.329 101.7 104.516C101.612 103.987 101.612 103.973 102.568 103.037C103.374 102.237 103.5 102.061 103.324 101.952C102.858 101.681 101.926 102.454 101.637 103.376C101.284 104.502 96.8402 107.147 93.5922 108.164C90.8477 109.032 87.222 109.358 83.6215 109.059C81.1162 108.842 77.3646 108.327 76.3197 108.028C75.5266 107.811 74.5572 107.323 74.5572 107.147C74.5572 107.106 74.809 106.876 75.1111 106.645C76.1434 105.858 76.7477 104.204 76.3197 103.336C76.1183 102.956 75.5266 102.671 74.8971 102.671C73.89 102.671 73.0465 103.607 73.0465 104.706C73.0465 105.289 73.4493 106.279 73.8774 106.754L74.1921 107.106L73.6256 107.269C72.8199 107.486 71.4476 107.459 70.6419 107.201C69.4711 106.821 68.1493 105.953 68.3129 105.669C68.4262 105.479 68.8794 103.051 69.1438 101.179C70.0754 94.6012 70.4405 89.0676 70.4531 81.4452C70.4657 73.1854 70.1887 68.9673 69.5215 67.3127C69.2319 66.5938 68.6906 65.8208 68.3381 65.6173C68.1619 65.5224 68.2374 65.658 68.5395 66.0242C69.5718 67.2584 69.8236 68.2621 70.1132 72.3581C70.365 75.9522 70.4027 85.4734 70.1761 88.7692C69.7607 94.9539 69.2823 99.1448 68.3003 105.221C68.2626 105.452 68.187 105.655 68.1241 105.655C67.7716 105.655 66.3238 102.97 65.9461 101.586L65.7447 100.854L66.2357 100.365C67.6331 99.0092 68.8669 96.6763 68.9802 95.1709C69.1312 93.2721 67.9352 91.8208 65.6818 91.1427L64.9264 90.9121V86.2465C64.939 79.4108 65.4803 74.0263 66.7519 68.0315C67.1421 66.2141 67.2428 65.3189 66.9281 66.526C66.286 68.9809 65.43 74.4874 65.0523 78.5021C64.8131 81.0926 64.5739 87.1688 64.6369 89.2439L64.6746 90.8036H62.6603C60.3817 90.8036 59.6263 90.9664 57.4358 91.9836C54.0871 93.5162 51.5063 95.849 47.8302 100.691C47.2133 101.518 46.4454 102.603 46.1306 103.119C45.8159 103.621 45.5515 104.014 45.539 104C45.5264 103.973 45.5641 103.132 45.6145 102.129C45.6648 101.125 45.753 97.246 45.8033 93.5162C45.9166 84.8495 45.7026 78.7869 44.985 70.4593C44.8465 68.8995 44.7584 67.5975 44.7836 67.5704C44.7962 67.5433 45.4005 67.6246 46.1181 67.7331C48.6485 68.1264 50.348 68.2621 53.0296 68.2621C56.051 68.2756 58.2919 68.0858 60.8979 67.6111C62.9247 67.2449 66.6134 66.2548 66.8148 66.0242C66.9029 65.9157 66.8777 65.9021 66.7015 65.9699C65.6188 66.3768 60.8475 67.5568 60.3439 67.5297C60.2306 67.5297 60.4824 67.4212 60.8979 67.2855C61.9176 66.9736 62.396 66.6752 63.1387 65.9293C63.9445 65.1291 64.3599 64.1932 64.3599 63.176C64.3599 62.1723 64.02 61.7112 63.2143 61.5891L62.6603 61.5078L63.4157 60.8567C64.5236 59.9209 64.9138 59.7446 65.9336 59.7446C66.4245 59.7446 66.9281 59.7853 67.0666 59.8531C67.2051 59.9073 67.0918 59.826 66.8148 59.6768C65.8832 59.1614 64.6872 59.5547 63.2017 60.8432L62.3204 61.6027L58.0904 61.5349C54.5025 61.4806 53.6213 61.4264 52.4127 61.1822C50.6376 60.8296 48.6107 60.1108 47.377 59.3919C46.8734 59.0936 46.4202 58.8766 46.395 58.9172C46.2817 59.0257 47.9435 59.9209 49.1269 60.3956C51.7329 61.4264 54.0871 61.7655 58.6696 61.7655C60.5454 61.7655 62.0938 61.779 62.0938 61.8061C62.0938 61.9418 60.6964 62.5657 59.9914 62.742C58.7199 63.0675 53.0673 62.9319 51.4559 62.5521C49.2528 62.0367 47.4903 61.0602 46.3573 59.731C46.0173 59.3106 45.7278 58.9172 45.7278 58.8494C45.7278 58.4968 45.4382 58.8223 45.1613 59.4869ZM47.4903 60.9924C49.492 62.4436 51.4937 62.9725 55.6104 63.1353C58.9213 63.2845 60.6838 62.9725 61.9805 62.0503C62.6855 61.562 63.3779 61.5891 63.8815 62.1181C64.234 62.5114 64.2592 62.5928 64.2088 63.3116C64.0703 65.2104 62.7107 66.6481 60.495 67.2313C59.7774 67.4076 58.9591 67.4483 55.4215 67.4212C53.1051 67.4076 50.7257 67.3398 50.134 67.2584C46.8734 66.8515 44.494 65.5088 44.28 63.9762C44.1793 63.2574 44.4815 61.8333 45.0983 60.0972L45.5012 58.9715L46.2188 59.7717C46.609 60.2193 47.1756 60.7754 47.4903 60.9924ZM43.575 66.2412C43.9023 66.4311 44.4185 67.0957 44.3178 67.2042C44.28 67.2449 42.3287 66.8244 41.9007 66.6888C41.8251 66.6617 41.9007 66.5125 42.0517 66.3497C42.379 65.9971 43.0463 65.9564 43.575 66.2412ZM64.6369 91.0884C64.6998 91.1291 64.7376 91.6174 64.7376 92.1735C64.7376 94.1672 65.0775 98.2225 65.4426 100.433C65.5055 100.813 65.4426 100.881 64.7502 101.369C63.7178 102.074 61.9931 102.753 60.709 102.956C60.004 103.064 59.022 103.092 57.7631 103.024C51.4937 102.739 50.839 102.753 48.9255 103.295C48.0442 103.539 46.2188 104.475 45.9166 104.855C45.6397 105.167 45.476 105.194 45.476 104.909C45.476 103.824 50.1089 97.7749 52.8407 95.2658C55.1949 93.1229 58.5311 91.3868 61.0867 91.0071C61.8672 90.8986 64.4354 90.9528 64.6369 91.0884ZM65.9713 91.4682C66.8274 91.7801 67.7464 92.3633 68.1618 92.8652C68.8165 93.6383 68.9676 95.1709 68.5144 96.4865C68.1618 97.5037 67.3687 98.765 66.4623 99.7958L65.6818 100.664L65.5307 99.7958C65.4552 99.3211 65.3041 97.7749 65.1908 96.3644C64.8761 92.1599 64.8383 91.1427 64.9642 91.1427C65.0397 91.1427 65.4803 91.2919 65.9713 91.4682ZM66.6889 103.96C66.8903 104.326 67.2932 104.923 67.5953 105.262L68.1493 105.899L67.9478 106.415C67.4191 107.771 66.7267 108.259 64.3347 108.91C61.9176 109.561 59.8907 109.792 56.4916 109.792C53.3946 109.778 52.0728 109.656 49.8822 109.154C48.4723 108.829 46.886 108.232 46.3447 107.811C45.8033 107.405 45.2242 106.496 45.2368 106.075C45.2494 105.329 47.1756 104.027 49.0891 103.458C50.1466 103.146 52.098 103.092 58.1282 103.2C60.5328 103.254 60.8601 103.227 61.7791 102.956C62.8618 102.644 64.297 101.966 65.0649 101.396L65.5433 101.057L65.9336 102.169C66.1476 102.793 66.4875 103.593 66.6889 103.96ZM102.946 102.346C102.946 102.536 101.888 103.539 101.788 103.444C101.687 103.336 102.09 102.671 102.43 102.373C102.707 102.129 102.946 102.115 102.946 102.346ZM75.7784 103.078C76.2316 103.376 76.3826 103.81 76.2693 104.475C76.156 105.14 75.5266 106.13 74.9223 106.604L74.3809 107.011L73.9781 106.591C73.5626 106.157 73.1724 105.194 73.1724 104.651C73.1724 104.489 73.2857 104.122 73.4116 103.81C73.8018 102.875 74.9349 102.522 75.7784 103.078Z" fill="url(#paint14_linear_692_1170)"/>
<path d="M58.6641 0.542516C58.3242 0.827337 57.9843 1.03078 57.9088 0.990092C57.8458 0.93584 57.8206 0.962966 57.871 1.01722C57.9339 1.08503 57.3926 1.77674 56.675 2.56339C55.97 3.35004 55.1265 4.36725 54.8118 4.81483C53.1878 7.0934 51.6141 10.145 50.9973 12.1524C50.8084 12.7627 50.5944 13.3459 50.5063 13.4544C50.2167 13.8477 48.5801 14.9463 47.3338 15.5973C44.9292 16.8451 42.3484 17.6182 39.6166 17.903C36.4693 18.2421 33.8255 17.4012 32.1008 15.5295C31.6853 15.0684 31.2069 14.4174 31.0307 14.0647L30.716 13.4273L31.8112 12.3422C32.9569 11.203 33.6744 9.98229 33.6744 9.20921C33.6744 8.73451 33.1457 8.0428 32.6799 7.9343C31.9245 7.75798 30.8293 8.63957 30.4894 9.69747C30.011 11.1351 30.1243 12.3422 30.8419 13.9291C32.3022 17.1299 35.9153 18.6625 40.3971 17.9844C43.771 17.469 46.5281 16.4382 49.2725 14.6615C49.8516 14.2817 50.3426 13.9698 50.3678 13.9698C50.3804 13.9698 50.2923 14.3631 50.1664 14.8514C49.8391 16.0856 49.3229 19.4899 49.2222 21.0225C49.1341 22.3923 49.3103 25.1592 49.5873 26.8545C49.7383 27.7904 49.7383 27.8718 49.5117 28.0752C48.7564 28.7533 49.197 30.2453 50.1664 30.2453C50.4182 30.2453 50.4433 30.191 50.3678 29.6621C50.33 29.3501 50.2419 28.8619 50.1664 28.5635C50.0657 28.2244 50.0657 27.9938 50.1412 27.9124C50.4056 27.6276 51.4882 27.7904 52.7472 28.2786C53.8928 28.7398 54.0942 28.7805 55.0258 28.7262C57.6066 28.5906 59.8223 26.4205 60.7917 23.1112C61.3204 21.2531 61.4086 20.0188 61.333 15.3939C61.2323 9.68391 60.9805 7.62235 59.986 4.04174C59.3817 1.87168 59.3314 0.962966 59.7972 0.474701C60.1622 0.0678145 60.3007 0.0542516 60.8421 0.406887C61.1442 0.61033 61.3834 0.962966 61.6855 1.66824C63.448 5.83205 64.4048 10.7418 64.5937 16.7502C64.6944 19.951 64.4552 27.7904 64.216 28.7533C63.8635 30.1775 63.2088 30.503 59.6838 30.9912C56.0959 31.493 52.6213 31.3981 49.1718 30.7064C48.2402 30.5165 47.3967 30.408 47.296 30.4487C47.1449 30.503 47.1198 30.8149 47.1701 32.1848C47.2205 33.5546 47.2834 33.9886 47.5478 34.6803L47.8625 35.5212L47.6359 36.2401C47.3212 37.2166 47.3212 38.9798 47.6485 40.4446C48.3535 43.6861 48.5801 47.8092 48.2276 51.105C48.0514 52.6919 47.5604 55.2146 47.082 56.8964C47.0065 57.1541 47.0694 57.1676 48.1773 57.1812C49.5117 57.1947 50.5692 57.5338 53.4522 58.9037C55.4035 59.8395 56.3351 60.0972 57.6444 60.0972C59.9356 60.1108 61.3708 58.8223 62.0129 56.2047C62.2395 55.2417 62.2898 54.3872 62.4409 48.0127C62.5416 44.093 62.6423 40.0648 62.6801 39.0611C62.7556 37.0538 63.0704 35.3856 63.5613 34.3413C63.8131 33.8123 65.0846 31.7914 65.3742 31.4388C65.4245 31.3845 65.4371 35.1686 65.4246 39.8478C65.3742 49.3418 65.4875 52.9224 65.9029 54.4957C66.2051 55.6893 66.7212 56.815 67.5647 58.1441C69.2265 60.816 69.6923 62.742 68.9999 64.1932C68.8362 64.5458 68.7607 64.8307 68.8236 64.8307C68.8866 64.8307 69.0503 64.5458 69.2013 64.1932C69.4153 63.6778 69.4531 63.3659 69.4028 62.4571C69.3398 61.128 68.9118 60.043 67.6654 58.0492C65.6008 54.7399 65.4497 53.4243 65.563 39.2646C65.626 31.9271 65.6512 30.937 65.84 30.4623C66.0918 29.8248 66.117 28.9025 65.8904 28.455L65.7267 28.143L65.6386 28.4821C65.5882 28.672 65.5504 29.2823 65.5378 29.8519C65.5253 30.8149 65.4875 30.9505 65.0972 31.5473C62.5164 35.4805 62.592 35.0601 62.315 46.5886C62.1136 55.5672 62.0758 56.0555 61.3708 57.6016C60.6658 59.1478 59.3943 59.948 57.6696 59.948C56.4106 59.948 55.2147 59.5818 53.0493 58.551C50.7958 57.466 49.7887 57.1269 48.4039 56.9506C47.8248 56.8828 47.3338 56.8014 47.3086 56.7879C47.296 56.7607 47.3967 56.3539 47.5226 55.8656C48.1143 53.8312 48.4291 51.4441 48.492 48.5959C48.5675 45.4764 48.4416 43.781 47.8877 40.8921C47.4723 38.7492 47.4345 37.5421 47.7241 36.4978L47.9129 35.7925L48.5801 36.5249C49.6376 37.6777 50.9469 38.0304 51.8156 37.3929C52.3821 36.986 52.5835 36.5385 52.5206 35.8467C52.445 35.1008 51.9666 34.4226 51.2616 34.0564C50.2545 33.5275 49.3984 33.7716 48.4416 34.8295L47.9129 35.4127L47.6485 34.4905C47.4974 33.9886 47.3464 33.0528 47.3086 32.4153C47.2457 31.3032 47.2457 31.2625 47.5352 31.1269C47.6989 31.0455 47.8248 30.9098 47.7996 30.8149C47.7618 30.6115 47.6611 30.5979 49.3229 30.9234C51.4505 31.3167 53.0997 31.4659 55.6301 31.4659C58.0976 31.4659 59.2684 31.3574 61.4338 30.9098C63.4732 30.4894 64.0271 30.1232 64.3293 28.9568C64.7951 27.1936 64.9839 16.2755 64.5937 12.8848C64.0649 8.21912 63.234 4.69276 61.9751 1.80387C61.5722 0.868026 60.7665 0 60.3133 0C60.1371 0 59.8349 0.149192 59.6461 0.32551C59.3188 0.623893 59.2936 0.732397 59.2936 1.58686C59.2936 2.265 59.4195 2.94315 59.7594 4.13668C60.7665 7.6766 60.9931 9.67035 61.0813 15.421C61.1568 20.2901 61.0813 21.3751 60.5399 23.1926C59.7216 25.9594 57.7703 28.021 55.5294 28.4685C54.5978 28.6584 54.0439 28.5635 52.6213 27.9667C51.6771 27.5734 51.3749 27.5191 50.7203 27.5598L49.9524 27.6141L49.8139 26.7867C49.197 23.1112 49.3858 18.9881 50.3552 15.0548C50.6196 13.9969 50.7455 13.6985 51.0854 13.3866C51.2994 13.1696 52.017 12.4914 52.659 11.8947C55.328 9.3584 57.5311 5.91342 58.7019 2.44132C59.1047 1.22066 59.3943 0.135629 59.3313 0.0678145C59.3062 0.0542516 59.0166 0.257695 58.6641 0.542516ZM58.5886 2.11581C57.5563 5.2624 55.8819 8.08349 53.5151 10.6469C52.6087 11.637 51.6267 12.6271 51.3498 12.8576L50.821 13.2916L51.1232 12.505C51.2868 12.0845 51.4253 11.6505 51.4253 11.5556C51.4253 11.4607 51.7652 10.674 52.1681 9.79241C52.999 8.00211 54.2831 5.85917 55.4161 4.34013C56.675 2.65833 58.7145 0.651019 58.9537 0.881588C58.9663 0.895151 58.8026 1.45123 58.5886 2.11581ZM33.1457 8.44969C33.5108 8.80232 33.5108 9.60253 33.1709 10.3892C32.9065 10.9588 31.6979 12.3694 31.0307 12.8848L30.6656 13.1696L30.5397 12.6542C29.8347 9.95517 31.6727 6.99846 33.1457 8.44969ZM50.0279 29.011C50.3426 30.1368 50.3426 30.1096 50.1034 30.1096C49.7887 30.1096 49.2851 29.4722 49.2851 29.0924C49.2851 28.8076 49.5999 28.0752 49.7257 28.0752C49.7509 28.0752 49.8768 28.4957 50.0279 29.011ZM65.777 30.2046C65.6637 30.408 65.6512 30.3673 65.7015 29.9876C65.7393 29.7434 65.7896 29.3366 65.8022 29.106C65.8148 28.8483 65.84 28.9297 65.8652 29.323C65.8904 29.6756 65.8526 30.0825 65.777 30.2046ZM51.1106 34.1649C52.1681 34.6803 52.6465 35.7518 52.231 36.6876C51.6771 37.949 50.0027 37.8134 48.6808 36.3893L48.0136 35.6704L48.278 35.2635C48.7816 34.504 49.6376 33.9479 50.3552 33.9208C50.4937 33.9208 50.8336 34.0293 51.1106 34.1649Z" fill="url(#paint15_linear_692_1170)"/>
<path d="M29.3941 14.1868C26.1712 16.7502 22.4574 18.5812 19.2849 19.1915C18.303 19.3814 17.6483 19.4085 16.2005 19.3543C14.224 19.2729 13.8841 19.2051 10.9508 18.3235C7.27476 17.2113 5.24789 17.469 3.2462 19.2865C2.62932 19.8425 1.06825 21.7413 1.06825 21.9448C1.06825 22.0533 1.23191 21.877 2.20129 20.6428C3.8253 18.5812 5.24789 17.8352 7.48878 17.8488C8.53368 17.8488 9.07502 17.9302 10.0696 18.2286C13.1414 19.1508 14.1233 19.395 15.3948 19.5306C19.373 19.9646 23.7289 18.4863 28.3869 15.1227C30.1243 13.8613 30.653 13.4273 30.4642 13.4409C30.4012 13.4409 29.9102 13.7799 29.3941 14.1868Z" fill="url(#paint16_linear_692_1170)"/>
<path d="M45.4454 59.4869C44.9544 60.694 44.4886 62.3893 44.4257 63.2709C44.2998 64.7629 45.0174 65.658 47.0442 66.5667C47.5478 66.7973 48.3913 67.0685 48.9074 67.1906C50.2419 67.5025 54.2831 67.7196 57.5311 67.6517C60.4896 67.5975 60.3889 67.6924 57.1534 67.9501C54.6985 68.1671 49.5873 68.0586 47.5226 67.7467C45.6091 67.4754 44.753 67.2856 44.753 67.1364C44.753 66.8515 43.9347 66.0378 43.5067 65.9021C43.1416 65.7801 42.9527 65.7936 42.5876 65.9564C42.147 66.1598 41.7567 66.6481 41.9456 66.7702C42.0085 66.8108 42.638 66.9736 43.3682 67.1364C44.0984 67.3127 44.7278 67.5161 44.7782 67.5975C44.8915 67.7738 44.9292 68.2485 45.2566 72.2225C45.949 80.9298 46.1756 90.2747 45.8734 97.9241C45.6972 102.576 45.5587 104.543 45.3699 105.207C45.1558 105.953 45.3573 106.699 45.9741 107.432C48.278 110.185 59.4321 110.904 65.8778 108.707C67.2752 108.232 67.8795 107.689 68.3578 106.496L68.5341 106.048L69.2013 106.537C69.5664 106.794 70.2337 107.147 70.6869 107.296C71.6562 107.622 73.2803 107.676 74.023 107.391C74.5014 107.215 74.5518 107.215 75.2819 107.635C76.2387 108.191 77.3214 108.449 80.4435 108.856C83.5405 109.276 87.5439 109.425 89.5833 109.195C93.8007 108.72 97.4013 107.296 100.813 104.746C101.707 104.082 101.782 104.041 101.782 104.326C101.795 105.235 102.915 106.374 104.212 106.821C105.056 107.106 107.448 107.228 108.341 107.025C108.719 106.943 109.814 106.442 110.784 105.926C112.798 104.828 113.528 104.611 116.701 104.095C124.002 102.929 130.549 100.732 136.969 97.2867C139.248 96.0525 140.479 95.3415 140.479 95.1923C140.479 95.138 140.671 94.9539 139.903 95.4421C133.218 99.5652 125.438 102.441 117.267 103.824C113.339 104.489 112.71 104.678 110.658 105.791C109.537 106.387 108.618 106.794 108.14 106.889C107.07 107.106 105.169 106.957 104.111 106.577C103.004 106.198 102.11 105.329 101.984 104.516C101.896 103.987 101.896 103.973 102.852 103.037C103.658 102.237 103.784 102.061 103.608 101.952C103.142 101.681 102.21 102.454 101.921 103.376C101.568 104.502 97.1243 107.147 93.8763 108.164C91.1318 109.032 87.5061 109.358 83.9056 109.059C81.4003 108.842 77.6487 108.327 76.6038 108.028C75.8107 107.811 74.8413 107.323 74.8413 107.147C74.8413 107.106 75.0931 106.876 75.3952 106.645C76.4276 105.858 77.0318 104.204 76.6038 103.336C76.4024 102.956 75.8107 102.671 75.1812 102.671C74.1741 102.671 73.3306 103.607 73.3306 104.706C73.3306 105.289 73.7335 106.279 74.1615 106.754L74.4762 107.106L73.9097 107.269C73.104 107.486 71.7318 107.459 70.9261 107.201C69.7553 106.821 68.4334 105.953 68.597 105.669C68.7104 105.479 69.1636 103.051 69.4279 101.179C70.3595 94.6012 70.7246 89.0676 70.7372 81.4452C70.7498 73.1854 70.4728 68.9673 69.8056 67.3127C69.5161 66.5938 68.9747 65.8208 68.6222 65.6173C68.446 65.5224 68.5215 65.658 68.8237 66.0242C69.856 67.2584 70.1078 68.2621 70.3973 72.3581C70.6491 75.9522 70.6869 85.4734 70.4603 88.7692C70.0448 94.9539 69.5664 99.1448 68.5845 105.221C68.5467 105.452 68.4712 105.655 68.4082 105.655C68.0557 105.655 66.6079 102.97 66.2303 101.586L66.0288 100.854L66.5198 100.365C67.9172 99.0092 69.151 96.6763 69.2643 95.1709C69.4154 93.2721 68.2194 91.8208 65.9659 91.1427L65.2105 90.9121V86.2465C65.2231 79.4108 65.7645 74.0263 67.036 68.0315C67.4262 66.2141 67.527 65.3189 67.2122 66.526C66.5702 68.9809 65.7141 74.4874 65.3364 78.5021C65.0972 81.0926 64.858 87.1688 64.921 89.2439L64.9588 90.8036H62.9445C60.6658 90.8036 59.9105 90.9664 57.7199 91.9836C54.3712 93.5162 51.7904 95.849 48.1143 100.691C47.4974 101.518 46.7295 102.603 46.4148 103.119C46.1 103.621 45.8357 104.014 45.8231 104C45.8105 103.973 45.8483 103.132 45.8986 102.129C45.949 101.125 46.0371 97.246 46.0875 93.5162C46.2008 84.8495 45.9867 78.7869 45.2691 70.4593C45.1307 68.8995 45.0425 67.5975 45.0677 67.5704C45.0803 67.5433 45.6846 67.6246 46.4022 67.7331C48.9326 68.1264 50.6322 68.2621 53.3137 68.2621C56.3351 68.2756 58.576 68.0858 61.182 67.6111C63.2088 67.2449 66.8975 66.2548 67.0989 66.0242C67.1871 65.9157 67.1619 65.9021 66.9856 65.9699C65.9029 66.3768 61.1316 67.5568 60.6281 67.5297C60.5147 67.5297 60.7665 67.4212 61.182 67.2855C62.2017 66.9736 62.6801 66.6752 63.4229 65.9293C64.2286 65.1291 64.644 64.1932 64.644 63.176C64.644 62.1723 64.3041 61.7112 63.4984 61.5891L62.9445 61.5078L63.6998 60.8567C64.8077 59.9209 65.198 59.7446 66.2177 59.7446C66.7087 59.7446 67.2122 59.7853 67.3507 59.8531C67.4892 59.9073 67.3759 59.826 67.0989 59.6768C66.1673 59.1614 64.9713 59.5547 63.4858 60.8432L62.6046 61.6027L58.3746 61.5349C54.7866 61.4806 53.9054 61.4264 52.6968 61.1822C50.9217 60.8296 48.8949 60.1108 47.6611 59.3919C47.1575 59.0936 46.7043 58.8766 46.6791 58.9172C46.5658 59.0257 48.2276 59.9209 49.411 60.3956C52.017 61.4264 54.3712 61.7655 58.9537 61.7655C60.8295 61.7655 62.378 61.779 62.378 61.8061C62.378 61.9418 60.9805 62.5657 60.2755 62.742C59.004 63.0675 53.3515 62.9319 51.74 62.5521C49.5369 62.0367 47.7744 61.0602 46.6414 59.731C46.3015 59.3106 46.0119 58.9172 46.0119 58.8494C46.0119 58.4968 45.7224 58.8223 45.4454 59.4869ZM47.7744 60.9924C49.7761 62.4436 51.7778 62.9725 55.8945 63.1353C59.2055 63.2845 60.968 62.9725 62.2646 62.0503C62.9696 61.562 63.6621 61.5891 64.1656 62.1181C64.5181 62.5114 64.5433 62.5928 64.493 63.3116C64.3545 65.2104 62.9948 66.6481 60.7791 67.2313C60.0615 67.4076 59.2432 67.4483 55.7056 67.4212C53.3892 67.4076 51.0098 67.3398 50.4182 67.2584C47.1575 66.8515 44.7782 65.5088 44.5642 63.9762C44.4634 63.2574 44.7656 61.8333 45.3825 60.0972L45.7853 58.9715L46.5029 59.7717C46.8932 60.2193 47.4597 60.7754 47.7744 60.9924ZM43.8592 66.2412C44.1865 66.4311 44.7026 67.0957 44.6019 67.2042C44.5642 67.2449 42.6128 66.8244 42.1848 66.6888C42.1092 66.6617 42.1848 66.5125 42.3358 66.3497C42.6632 65.9971 43.3304 65.9564 43.8592 66.2412ZM64.921 91.0884C64.9839 91.1291 65.0217 91.6174 65.0217 92.1735C65.0217 94.1672 65.3616 98.2225 65.7267 100.433C65.7896 100.813 65.7267 100.881 65.0343 101.369C64.002 102.074 62.2772 102.753 60.9931 102.956C60.2881 103.064 59.3062 103.092 58.0472 103.024C51.7778 102.739 51.1232 102.753 49.2096 103.295C48.3283 103.539 46.5029 104.475 46.2008 104.855C45.9238 105.167 45.7601 105.194 45.7601 104.909C45.7601 103.824 50.393 97.7749 53.1249 95.2658C55.479 93.1229 58.8152 91.3868 61.3708 91.0071C62.1513 90.8986 64.7196 90.9528 64.921 91.0884ZM66.2554 91.4682C67.1115 91.7801 68.0305 92.3633 68.446 92.8652C69.1006 93.6383 69.2517 95.1709 68.7985 96.4865C68.446 97.5037 67.6529 98.765 66.7464 99.7958L65.9659 100.664L65.8148 99.7958C65.7393 99.3211 65.5882 97.7749 65.4749 96.3644C65.1602 92.1599 65.1224 91.1427 65.2483 91.1427C65.3238 91.1427 65.7645 91.2919 66.2554 91.4682ZM66.973 103.96C67.1745 104.326 67.5773 104.923 67.8795 105.262L68.4334 105.899L68.232 106.415C67.7032 107.771 67.0108 108.259 64.6188 108.91C62.2017 109.561 60.1748 109.792 56.7757 109.792C53.6788 109.778 52.3569 109.656 50.1664 109.154C48.7564 108.829 47.1701 108.232 46.6288 107.811C46.0875 107.405 45.5083 106.496 45.5209 106.075C45.5335 105.329 47.4597 104.027 49.3732 103.458C50.4307 103.146 52.3821 103.092 58.4123 103.2C60.8169 103.254 61.1442 103.227 62.0632 102.956C63.1459 102.644 64.5811 101.966 65.349 101.396L65.8274 101.057L66.2177 102.169C66.4317 102.793 66.7716 103.593 66.973 103.96ZM103.23 102.346C103.23 102.536 102.173 103.539 102.072 103.444C101.971 103.336 102.374 102.671 102.714 102.373C102.991 102.129 103.23 102.115 103.23 102.346ZM76.0625 103.078C76.5157 103.376 76.6668 103.81 76.5535 104.475C76.4402 105.14 75.8107 106.13 75.2064 106.604L74.6651 107.011L74.2622 106.591C73.8468 106.157 73.4565 105.194 73.4565 104.651C73.4565 104.489 73.5698 104.122 73.6957 103.81C74.086 102.875 75.219 102.522 76.0625 103.078Z" fill="url(#paint17_linear_692_1170)"/>
</g>
<defs>
<linearGradient id="paint0_linear_692_1170" x1="-48" y1="-32" x2="140.5" y2="110" gradientUnits="userSpaceOnUse">
<stop stop-color="#FECF24"/>
<stop offset="1" stop-color="#FE9724"/>
</linearGradient>
<linearGradient id="paint1_linear_692_1170" x1="-48" y1="-32" x2="140.5" y2="110" gradientUnits="userSpaceOnUse">
<stop stop-color="#FECF24"/>
<stop offset="1" stop-color="#FE9724"/>
</linearGradient>
<linearGradient id="paint2_linear_692_1170" x1="-48" y1="-32" x2="140.5" y2="110" gradientUnits="userSpaceOnUse">
<stop stop-color="#FECF24"/>
<stop offset="1" stop-color="#FE9724"/>
</linearGradient>
<linearGradient id="paint3_linear_692_1170" x1="-48" y1="-32" x2="140.5" y2="110" gradientUnits="userSpaceOnUse">
<stop stop-color="#FECF24"/>
<stop offset="1" stop-color="#FE9724"/>
</linearGradient>
<linearGradient id="paint4_linear_692_1170" x1="-48" y1="-32" x2="140.5" y2="110" gradientUnits="userSpaceOnUse">
<stop stop-color="#FECF24"/>
<stop offset="1" stop-color="#FE9724"/>
</linearGradient>
<linearGradient id="paint5_linear_692_1170" x1="-48" y1="-32" x2="140.5" y2="110" gradientUnits="userSpaceOnUse">
<stop stop-color="#FECF24"/>
<stop offset="1" stop-color="#FE9724"/>
</linearGradient>
<linearGradient id="paint6_linear_692_1170" x1="-48" y1="-32" x2="140.5" y2="110" gradientUnits="userSpaceOnUse">
<stop stop-color="#FECF24"/>
<stop offset="1" stop-color="#FE9724"/>
</linearGradient>
<linearGradient id="paint7_linear_692_1170" x1="-48" y1="-32" x2="140.5" y2="110" gradientUnits="userSpaceOnUse">
<stop stop-color="#FECF24"/>
<stop offset="1" stop-color="#FE9724"/>
</linearGradient>
<linearGradient id="paint8_linear_692_1170" x1="-48" y1="-32" x2="140.5" y2="110" gradientUnits="userSpaceOnUse">
<stop stop-color="#FECF24"/>
<stop offset="1" stop-color="#FE9724"/>
</linearGradient>
<linearGradient id="paint9_linear_692_1170" x1="-48" y1="-32" x2="140.5" y2="110" gradientUnits="userSpaceOnUse">
<stop stop-color="#FECF24"/>
<stop offset="1" stop-color="#FE9724"/>
</linearGradient>
<linearGradient id="paint10_linear_692_1170" x1="-48" y1="-32" x2="140.5" y2="110" gradientUnits="userSpaceOnUse">
<stop stop-color="#FECF24"/>
<stop offset="1" stop-color="#FE9724"/>
</linearGradient>
<linearGradient id="paint11_linear_692_1170" x1="-48" y1="-32" x2="140.5" y2="110" gradientUnits="userSpaceOnUse">
<stop stop-color="#FECF24"/>
<stop offset="1" stop-color="#FE9724"/>
</linearGradient>
<linearGradient id="paint12_linear_692_1170" x1="-48" y1="-32" x2="140.5" y2="110" gradientUnits="userSpaceOnUse">
<stop stop-color="#FECF24"/>
<stop offset="1" stop-color="#FE9724"/>
</linearGradient>
<linearGradient id="paint13_linear_692_1170" x1="-48" y1="-32" x2="140.5" y2="110" gradientUnits="userSpaceOnUse">
<stop stop-color="#FECF24"/>
<stop offset="1" stop-color="#FE9724"/>
</linearGradient>
<linearGradient id="paint14_linear_692_1170" x1="-48" y1="-32" x2="140.5" y2="110" gradientUnits="userSpaceOnUse">
<stop stop-color="#FECF24"/>
<stop offset="1" stop-color="#FE9724"/>
</linearGradient>
<linearGradient id="paint15_linear_692_1170" x1="-48" y1="-32" x2="140.5" y2="110" gradientUnits="userSpaceOnUse">
<stop stop-color="#FECF24"/>
<stop offset="1" stop-color="#FE9724"/>
</linearGradient>
<linearGradient id="paint16_linear_692_1170" x1="-48" y1="-32" x2="140.5" y2="110" gradientUnits="userSpaceOnUse">
<stop stop-color="#FECF24"/>
<stop offset="1" stop-color="#FE9724"/>
</linearGradient>
<linearGradient id="paint17_linear_692_1170" x1="-48" y1="-32" x2="140.5" y2="110" gradientUnits="userSpaceOnUse">
<stop stop-color="#FECF24"/>
<stop offset="1" stop-color="#FE9724"/>
</linearGradient>
</defs>
</svg>
