<svg width="158" height="84" viewBox="0 0 158 84" fill="none" xmlns="http://www.w3.org/2000/svg">
<g id="icon_massage">
<g id="Group">
<path id="Vector" d="M53.2656 6.51273C51.3355 6.52918 50.0774 6.90274 36.9826 11.0757C21.8753 15.8935 13.6569 18.0135 8.30926 18.4236C7.28732 18.4917 6.4087 18.713 6.38704 18.8784C6.33508 19.2753 6.39934 19.2837 10.1467 18.866C15.7538 18.2208 23.9809 16.0346 38.2461 11.4093C51.281 7.19488 51.5189 7.1251 54.6526 7.40079C59.1443 7.78699 63.93 9.42278 72.7566 13.6397C78.7253 16.4733 78.8686 16.6266 81.8149 22.3278C82.6716 24.0211 84.0929 26.3939 84.9781 27.6199C86.7954 30.2128 87.2067 31.8141 86.6014 34.1908C85.7526 37.6793 84.9245 38.5129 82.1244 38.6845L80.9053 38.7604L81.3478 37.8764C81.6915 37.2485 81.7824 36.554 81.6726 35.3958C81.4949 33.7577 81.9937 32.4437 82.7005 32.5362C82.8933 32.5615 83.0435 32.4129 83.0651 32.2475C83.0911 32.0491 82.7229 31.8663 82.241 31.8032C80.8274 31.6182 79.0681 28.8311 78.9128 26.5231C78.7889 24.7239 78.4665 23.9415 77.9925 24.3168C77.851 24.3992 77.8843 25.1437 78.0096 25.9339C78.1306 26.7571 78.2274 28.0145 78.1964 28.7506C78.1975 29.4908 78.3102 31.625 78.5218 33.503C78.9592 37.9001 78.812 39.0246 77.8543 39.1011C75.5404 39.3028 73.5651 39.4143 73.2117 39.368C72.9225 39.3301 72.9752 38.4287 73.3599 35.9896C73.7984 33.3893 73.8189 32.4836 73.4835 31.8005C72.7188 30.1529 72.3604 30.6442 72.2685 33.5927C72.1326 37.3764 71.9031 39.1294 71.5021 39.4469C71.2877 39.5871 70.4542 39.7135 69.6015 39.7364L68.0291 39.766L68.2023 38.443C68.4794 36.3262 67.5544 32.9082 66.6548 32.7905C66.0123 32.7063 65.8384 34.5339 66.2655 37.012C66.5291 38.4931 66.718 39.7962 66.7007 39.9285C66.6833 40.0608 65.8368 40.2864 64.8384 40.4248C63.8356 40.5963 62.7963 40.7967 62.4942 40.8581C62.1234 40.9441 62.0122 40.795 62.0772 40.2988C62.2114 39.2735 61.6081 37.1424 60.8897 36.14C60.5605 35.6596 59.6598 34.8015 58.9129 34.2664C58.014 33.6441 56.3757 31.6802 54.3916 28.8637C50.9515 23.939 50.6161 23.2559 50.7875 21.6972C50.8611 21.1349 50.7976 20.6219 50.637 20.6009C50.0586 20.5252 48.4451 22.3661 48.0644 23.5274C47.2985 25.8829 47.9575 31.0828 49.6682 36.4875C51.2936 41.5448 52.691 42.6024 57.2459 42.2567C58.6021 42.1315 59.9948 41.9774 60.3334 41.8872C60.7727 41.7765 60.8882 41.8925 60.8232 42.3887C60.7756 42.7525 61.0789 43.4314 61.481 43.8541C62.142 44.5462 62.5832 44.6712 64.4274 44.8117C66.6659 44.9366 68.3181 44.5473 69.6905 43.5496C70.1966 43.1785 70.5309 43.1213 70.6612 43.3739C71.2825 44.8682 76.1435 43.1833 78.0641 40.7434C78.9589 39.6494 80.1502 39.5362 80.016 40.5616C79.9683 40.9254 80.1987 41.662 80.5514 42.2128C81.0665 43.0204 81.3705 43.1948 82.1033 43.0888C82.8318 43.016 83.2866 42.5373 84.3601 40.8275C85.5646 38.8658 85.8649 38.5687 87.5474 37.9479C89.8472 37.1052 93.3706 34.4041 94.1246 32.888C94.522 32.099 94.8545 31.8061 95.1584 31.9805C95.3703 32.1092 95.8696 32.04 96.1977 31.7801C96.6309 31.4668 97.0251 31.4511 97.5453 31.7211C98.4893 32.2484 100.437 31.5951 100.587 30.7063C100.673 30.0448 100.673 30.0448 101.068 30.7694C102.124 32.6906 101.278 35.9103 98.4002 40.9163C96.2915 44.5426 96.1598 45.2992 97.4904 46.6172L98.3312 47.4337L97.044 48.7791C95.4973 50.3596 95.3118 51.2773 96.2266 52.7764C96.7695 53.6212 96.8609 54.1714 96.6711 55.1222L96.4101 56.3664L98.6652 56.8635C102.197 57.595 103.521 59.2149 101.289 60.033C97.9886 61.2829 90.3675 60.588 91.085 59.1007C91.3558 58.5306 93.1809 58.5677 96.3269 59.2487C99.3166 59.8756 100.032 59.902 100.119 59.2405C100.262 58.149 95.4506 56.2072 92.3274 56.1011C89.9882 55.9967 88.7042 56.5687 88.557 57.6932C88.4964 58.1563 88.4166 58.5159 88.3845 58.5117C88.3202 58.5033 87.3181 58.1702 86.0998 57.7416C84.9136 57.3172 82.4274 56.588 80.59 56.1456C78.7526 55.7032 76.3115 54.879 75.1704 54.3595C71.3789 52.6184 66.5584 52.9965 65.1395 55.0984C64.4461 56.1515 64.8327 56.9422 66.3933 57.7521C70.1353 59.6213 70.0068 59.6045 70.2233 57.9507C70.5135 55.7347 72.9559 55.5498 76.6528 57.5141C78.3054 58.3696 79.7808 58.8319 83.3167 59.5303C87.206 60.275 88.2723 60.6164 90.8733 61.9662C93.8746 63.5029 93.971 63.5156 96.3318 63.4546C99.5817 63.3418 100.966 62.7493 104.841 59.8588C106.647 58.5477 108.645 57.2618 109.299 57.0109C110.78 56.4311 114.73 56.7127 117.525 57.5832C120.724 58.6075 120.873 58.9635 117.881 58.6054C112.828 58.0112 108.435 59.1182 104.17 61.9913C102.09 63.4011 99.7497 64.3057 96.2481 65.0921C92.9116 65.8664 90.6863 68.6364 91.512 71.0658C91.7936 71.9101 91.5261 71.7068 89.9799 69.7887C87.4157 66.6607 86.3735 65.8851 81.8647 63.8818C79.7345 62.9301 76.8617 61.4102 75.5068 60.5264C72.6496 58.6384 72.1164 58.4677 71.2284 59.2597C70.008 60.3447 70.7783 60.9502 76.8242 63.6929C83.0542 66.5271 86.0141 68.6303 88.9353 72.276C92.4447 76.6715 92.205 76.5056 96.221 77.0313L99.6908 77.4856L104.258 75.7959C112.437 72.7288 115.518 72.6611 132.447 75.1465C140.429 76.3262 145.25 77.1928 147.043 77.7302C149.805 78.5965 150.062 78.6302 149.81 78.0589C149.436 77.1689 142.966 75.9182 130.019 74.2231C113.473 72.057 112.125 72.116 103.704 75.286C101.501 76.1414 99.2955 76.761 98.8457 76.7021C98.2074 76.5849 98.4219 76.4448 99.8813 76.0303C100.901 75.7265 103.6 74.835 105.863 74.0212C108.126 73.2073 111.127 72.2544 112.505 71.9639C114.999 71.3821 116.971 70.2946 117.084 69.4347C117.171 68.7732 115.96 68.7829 113.333 69.381C108.679 70.4873 106.883 70.7232 102.688 70.8133C100.36 70.8785 97.326 71.0869 95.9933 71.2824C94.6605 71.478 93.3043 71.6032 92.9509 71.557C92.0513 71.4392 91.8025 70.0946 92.3743 68.7228C93.0449 67.0949 94.5415 66.147 97.7087 65.4179C101.077 64.6478 102.325 64.1046 104.879 62.3195C109.011 59.4627 113.337 58.6161 118.837 59.538C120.784 59.8938 122.626 60.3032 122.93 60.4775C123.261 60.6892 123.459 60.6813 123.489 60.4498C123.562 59.8875 120.093 57.6839 118.089 57.0178C115.648 56.1936 112.036 55.8218 110.067 56.1359C108.662 56.3892 107.639 56.9618 104.708 59.1348C100.477 62.2478 98.9226 62.8854 95.8037 62.7462C93.8865 62.6635 93.289 62.4843 91.6173 61.5253C89.1856 60.1304 86.8002 59.3808 82.6817 58.6398C80.3815 58.2377 78.6534 57.7087 76.7802 56.7906C72.6847 54.8751 69.9359 55.1544 69.6198 57.5689C69.5288 58.2635 69.4281 58.2839 68.3062 57.8679C65.285 56.7323 64.7594 55.7551 66.6588 54.7254C68.8456 53.4978 72.258 53.6418 75.1116 55.0583C76.06 55.5525 78.8822 56.4603 81.3535 57.0529C83.8205 57.6787 86.4908 58.4993 87.3236 58.8774C89.3253 59.8123 89.3253 59.8123 89.2649 58.526C89.1706 56.9998 89.7688 56.6744 92.4978 56.7962C94.7728 56.8922 98.4364 58.1119 99.0115 58.961C99.2061 59.222 99.1054 59.2424 98.6087 59.0428C97.2557 58.3947 91.5882 57.7536 90.9814 58.1452C90.1602 58.6769 90.2379 59.8309 91.1324 60.4862C92.9814 61.8385 100.732 61.5412 102.463 60.0521C103.984 58.67 102.453 56.8884 99.1973 56.294L96.9978 55.8715L97.3161 54.9375C97.5399 54.2267 97.4529 53.6434 96.9081 52.5628C96.2608 51.267 96.259 51.0312 96.725 50.2176C96.987 49.7136 97.6007 49.0202 98.1067 48.6491C99.2283 47.8203 99.2568 47.3531 98.2449 46.3459C96.9056 45.094 96.9557 44.4614 98.8215 41.4424C101.484 37.0811 102.712 33.4404 102.07 31.6069C101.929 31.1848 101.506 30.4229 101.181 29.9094C100.796 29.3544 100.573 28.3159 100.542 27.3026C100.535 26.3597 100.401 25.1311 100.19 24.4979L99.8468 23.3764L97.1672 23.1266L94.4512 22.9055L93.2194 21.3313C92.0476 19.7986 90.3801 18.8065 88.4698 18.4219C86.9085 18.1166 83.333 18.2204 82.6984 18.5746C82.0681 18.8958 82.0551 18.995 82.422 20.1869C82.9382 21.7347 86.7632 27.2144 87.9895 28.0815C88.6486 28.5378 89.4067 28.738 91.0026 28.7787C93.7039 28.8632 99.7526 29.5878 99.915 29.8446C100.137 30.1428 98.6192 31.2561 98.1373 31.193C97.9124 31.1636 97.5806 30.9519 97.386 30.691C97.1358 30.3554 96.9066 30.3591 96.4005 30.7301C96.0403 30.9858 95.4725 31.0796 95.1642 30.9383C94.6674 30.7388 94.3758 30.9697 93.725 32.1965C92.7479 33.9189 89.8912 36.2699 87.647 37.1872L86.1616 37.8001L86.4799 36.8662C88.0778 32.3992 87.8809 30.6577 85.3817 27.0336C84.3661 25.555 83.056 23.3313 82.4408 22.0396C80.9455 18.9843 79.0725 16.3169 77.7542 15.4042C76.0485 14.2053 66.5428 9.93306 62.4788 8.52631C58.1942 7.05705 55.6178 6.51791 53.2656 6.51273ZM91.0231 20.1355C92.4422 21.0277 93.5646 22.6886 93.9264 24.418C94.2499 25.9406 94.6632 26.0284 94.8494 24.6061L94.988 23.5477L97.2413 23.8091L99.4902 24.1035L99.7556 25.8204C100.233 28.9107 100.229 28.9437 97.1682 28.6103C95.7182 28.4541 93.227 28.2625 91.6719 28.1599C88.9471 28.005 88.7587 27.9467 87.8345 27.0183C85.1584 24.2457 82.2263 19.1856 83.2334 18.9811C85.1791 18.5966 89.6084 19.2101 91.0231 20.1355ZM53.8491 29.2637C56.0234 32.3742 57.5462 34.222 58.4772 34.8485C60.3114 36.0643 61.4547 38.0643 61.3025 39.7264C61.1744 40.9544 61.1379 40.9833 59.3251 41.3515C55.3373 42.1078 52.9216 41.5897 51.6324 39.7052C50.8714 38.529 49.3659 33.5548 48.8517 30.4933C48.1696 26.468 48.2842 24.0944 49.1772 22.7647L49.9028 21.7159L50.2349 23.1723C50.4393 24.1074 51.726 26.2607 53.8491 29.2637ZM81.0454 31.9495C81.6125 32.3602 81.6551 32.5339 81.2429 33.1864C80.9488 33.6862 80.83 34.3435 80.938 35.266C81.1348 37.0075 80.6656 38.5945 79.8704 38.9277C79.2853 39.1539 79.234 39.0462 79.3855 37.8886C79.4765 37.194 79.3829 35.1633 79.1583 33.3845C78.6732 29.3513 78.6732 29.3513 79.6314 30.5196C80.0527 31.0458 80.6859 31.7006 81.0454 31.9495ZM72.932 34.016C72.8115 34.4375 72.7819 34.1645 72.8771 33.4369C72.9403 32.705 73.0478 32.3827 73.1052 32.693C73.1262 33.0321 73.0482 33.6275 72.932 34.016ZM67.5069 36.2662C67.5853 36.9157 67.6203 37.8959 67.5146 38.4539C67.402 39.3139 67.3143 39.2351 67.0229 37.7167C66.8229 36.7486 66.634 35.4454 66.6199 34.8044C66.57 33.6877 66.5744 33.6546 66.9419 34.3419C67.1556 34.7063 67.4329 35.5837 67.5069 36.2662ZM84.3961 39.5538C84.3052 40.2484 82.3332 42.5807 81.8834 42.5218C81.273 42.4419 80.5318 40.8646 80.7877 40.158C81.0566 39.3521 84.5 38.7601 84.3961 39.5538ZM77.2201 40.7002C76.2932 41.7899 73.0776 43.3874 72.0817 43.2571C70.8608 43.0972 70.7886 42.6504 71.7224 41.2588C72.493 40.1149 72.6988 40.041 74.4449 39.9331C75.4946 39.9024 76.6728 39.8884 77.0948 39.91C77.806 39.9695 77.8016 40.0025 77.2201 40.7002ZM70.6084 41.2812C70.2085 42.339 69.0245 43.3951 67.7492 43.901C66.3045 44.4519 66.1655 44.2655 66.9813 43.0267C67.3935 42.3742 67.7866 41.6182 67.8299 41.2875C67.8775 40.9236 68.3064 40.6434 69.007 40.5332C70.8112 40.2312 70.9953 40.3226 70.6084 41.2812ZM66.6553 41.7729C65.9457 43.6985 63.4401 44.6152 62.1199 43.4668C60.9474 42.4386 61.456 41.7987 63.9096 41.2789C66.8624 40.6898 67.0552 40.7151 66.6553 41.7729ZM74.8037 60.9053C75.8459 61.6809 78.5345 63.1095 80.729 64.0696C85.7024 66.2682 86.8923 67.1641 89.9933 70.9343C91.3449 72.5915 93.0648 74.4314 93.7665 75.0616L95.0867 76.21L94.0907 76.0796C92.9984 75.9366 92.3887 75.3522 88.5624 70.8815C87.3176 69.4065 85.4198 67.6778 84.2213 66.8481C82.295 65.5866 80.7345 64.7768 74.1449 61.6937C71.6508 60.5262 71.0046 59.9706 71.6991 59.6578C72.4344 59.2831 72.7427 59.4244 74.8037 60.9053ZM116.055 69.8046C116.003 70.2015 114.216 70.8758 111.584 71.5069C110.206 71.7975 106.799 72.8653 103.987 73.8764C96.9631 76.3547 96.7296 76.3914 94.8527 75.0019C94.0181 74.388 93.0575 73.4885 92.7282 73.0081L92.1253 72.1217L93.0571 72.2437C93.5711 72.311 94.8952 72.1816 96.0308 71.9938C97.1708 71.773 100.14 71.5562 102.63 71.5121C105.843 71.4281 108.399 71.1236 111.393 70.4726C116.039 69.4324 116.103 69.4408 116.055 69.8046Z" fill="url(#paint0_linear_480_7844)"/>
</g>
<g id="Group_2">
<path id="Vector_2" d="M53.3336 5.99369C51.4034 6.01013 50.1454 6.3837 37.0506 10.5566C21.9432 15.3745 13.7248 17.4945 8.37723 17.9046C7.35528 17.9726 6.47666 18.194 6.45501 18.3594C6.40305 18.7563 6.4673 18.7647 10.2147 18.347C15.8218 17.7017 24.0489 15.5156 38.314 10.8903C51.3489 6.67584 51.5868 6.60605 54.7205 6.88175C59.2123 7.26795 63.9979 8.90374 72.8246 13.1207C78.7933 15.9543 78.9366 16.1076 81.8829 21.8087C82.7396 23.502 84.1609 25.8748 85.0461 27.1009C86.8634 29.6937 87.2746 31.2951 86.6694 33.6717C85.8205 37.1602 84.9925 37.9938 82.1923 38.1655L80.9733 38.2414L81.4158 37.3573C81.7594 36.7295 81.8504 36.0349 81.7406 34.8767C81.5629 33.2387 82.0617 31.9247 82.7685 32.0172C82.9613 32.0424 83.1114 31.8939 83.1331 31.7285C83.1591 31.5301 82.7909 31.3473 82.3089 31.2842C80.8953 31.0991 79.1361 28.312 78.9808 26.0041C78.8568 24.2048 78.5344 23.4225 78.0605 23.7978C77.919 23.8802 77.9522 24.6247 78.0775 25.4148C78.1985 26.2381 78.2953 27.4955 78.2643 28.2315C78.2654 28.9718 78.3782 31.106 78.5898 32.984C79.0272 37.381 78.88 38.5056 77.9223 38.5821C75.6084 38.7838 73.6331 38.8952 73.2797 38.8489C72.9905 38.8111 73.0432 37.9097 73.4279 35.4705C73.8663 32.8702 73.8868 31.9646 73.5515 31.2815C72.7868 29.6339 72.4284 30.1252 72.3365 33.0736C72.2006 36.8574 71.9711 38.6103 71.57 38.9279C71.3556 39.068 70.5221 39.1944 69.6695 39.2173L68.097 39.247L68.2702 37.924C68.5474 35.8072 67.6223 32.3892 66.7228 32.2714C66.0802 32.1873 65.9063 34.0148 66.3335 36.493C66.5971 37.9741 66.7859 39.2772 66.7686 39.4095C66.7513 39.5418 65.9048 39.7674 64.9063 39.9058C63.9035 40.0773 62.8643 40.2776 62.5621 40.339C62.1914 40.425 62.0802 40.2759 62.1452 39.7798C62.2794 38.7545 61.6761 36.6233 60.9577 35.621C60.6284 35.1405 59.7277 34.2825 58.9808 33.7474C58.0819 33.125 56.4437 31.1612 54.4596 28.3447C51.0195 23.4199 50.6841 22.7368 50.8555 21.1781C50.9291 20.6158 50.8656 20.1029 50.7049 20.0819C50.1266 20.0062 48.5131 21.8471 48.1323 23.0083C47.3664 25.3639 48.0255 30.5637 49.7361 35.9685C51.3615 41.0257 52.759 42.0834 57.3138 41.7377C58.6701 41.6125 60.0627 41.4584 60.4013 41.3681C60.8406 41.2575 60.9561 41.3735 60.8912 41.8696C60.8436 42.2334 61.1468 42.9123 61.549 43.3351C62.21 44.0271 62.6511 44.1522 64.4954 44.2927C66.7339 44.4176 68.3861 44.0283 69.7585 43.0305C70.2646 42.6594 70.5988 42.6023 70.7292 42.8548C71.3505 44.3491 76.2114 42.6642 78.1321 40.2243C79.0269 39.1304 80.2182 39.0172 80.0839 40.0425C80.0363 40.4063 80.2666 41.143 80.6193 41.6938C81.1345 42.5013 81.4385 42.6757 82.1713 42.5698C82.8997 42.497 83.3545 42.0182 84.428 40.3085C85.6325 38.3467 85.9328 38.0496 87.6154 37.4289C89.9151 36.5861 93.4386 33.8851 94.1926 32.369C94.59 31.58 94.9224 31.2871 95.2264 31.4614C95.4383 31.5901 95.9376 31.5209 96.2657 31.2611C96.6988 30.9477 97.093 30.9321 97.6132 31.202C98.5572 31.7293 100.505 31.076 100.654 30.1872C100.741 29.5257 100.741 29.5257 101.136 30.2503C102.192 32.1715 101.346 35.3913 98.4681 40.3972C96.3595 44.0236 96.2277 44.7801 97.5584 46.0981L98.3992 46.9147L97.112 48.26C95.5652 49.8406 95.3797 50.7582 96.2945 52.2573C96.8375 53.1022 96.9289 53.6524 96.739 54.6032L96.4781 55.8474L98.7332 56.3445C102.265 57.0759 103.589 58.6959 101.357 59.5139C98.0566 60.7639 90.4355 60.0689 91.153 58.5817C91.4237 58.0116 93.2489 58.0487 96.3949 58.7297C99.3846 59.3566 100.1 59.383 100.187 58.7215C100.33 57.63 95.5186 55.6881 92.3954 55.582C90.0562 55.4776 88.7722 56.0496 88.625 57.1742C88.5643 57.6372 88.4846 57.9968 88.4525 57.9926C88.3882 57.9842 87.3861 57.6512 86.1677 57.2225C84.9815 56.7981 82.4954 56.0689 80.658 55.6265C78.8205 55.1841 76.3795 54.3599 75.2384 53.8405C71.4469 52.0993 66.6263 52.4775 65.2074 54.5794C64.514 55.6324 64.9007 56.4232 66.4612 57.233C70.2033 59.1022 70.0748 59.0854 70.2913 57.4317C70.5814 55.2156 73.0238 55.0308 76.7208 56.995C78.3734 57.8506 79.8488 58.3129 83.3846 59.0113C87.2739 59.7559 88.3403 60.0974 90.9413 61.4472C93.9426 62.9839 94.0389 62.9965 96.3998 62.9355C99.6497 62.8227 101.034 62.2303 104.909 59.3398C106.715 58.0286 108.713 56.7427 109.367 56.4919C110.848 55.912 114.798 56.1937 117.593 57.0641C120.792 58.0885 120.941 58.4445 117.949 58.0864C112.896 57.4922 108.503 58.5991 104.238 61.4722C102.158 62.882 99.8176 63.7867 96.3161 64.573C92.9796 65.3473 90.7542 68.1174 91.5799 70.5468C91.8616 71.391 91.5941 71.1878 90.0479 69.2696C87.4836 66.1417 86.4414 65.366 81.9326 63.3628C79.8024 62.4111 76.9296 60.8912 75.5748 60.0073C72.7175 58.1194 72.1843 57.9486 71.2964 58.7407C70.0759 59.8257 70.8463 60.4312 76.8922 63.1739C83.1222 66.008 86.082 68.1113 89.0033 71.757C92.5127 76.1525 92.273 75.9865 96.2889 76.5123L99.7587 76.9666L104.326 75.2769C112.505 72.2097 115.586 72.1421 132.515 74.6275C140.497 75.8071 145.318 76.6738 147.11 77.2112C149.873 78.0775 150.13 78.1111 149.878 77.5399C149.504 76.6499 143.034 75.3991 130.087 73.7041C113.541 71.5379 112.193 71.597 103.772 74.767C101.569 75.6223 99.3634 76.242 98.9136 76.1831C98.2754 76.0659 98.4898 75.9257 99.9493 75.5113C100.969 75.2075 103.668 74.316 105.931 73.5021C108.194 72.6883 111.195 71.7354 112.573 71.4448C115.067 70.863 117.039 69.7756 117.152 68.9156C117.239 68.2541 116.028 68.2639 113.401 68.8619C108.747 69.9683 106.951 70.2042 102.756 70.2942C100.428 70.3594 97.394 70.5678 96.0612 70.7634C94.7285 70.959 93.3723 71.0842 93.0189 71.0379C92.1193 70.9201 91.8705 69.5755 92.4422 68.2038C93.1128 66.5759 94.6094 65.628 97.7767 64.8988C101.145 64.1287 102.393 63.5856 104.947 61.8005C109.079 58.9436 113.405 58.0971 118.905 59.019C120.852 59.3748 122.694 59.7841 122.998 59.9585C123.329 60.1701 123.527 60.1623 123.557 59.9308C123.63 59.3685 120.161 57.1649 118.157 56.4988C115.716 55.6746 112.104 55.3027 110.135 55.6169C108.73 55.8702 107.707 56.4428 104.775 58.6158C100.545 61.7288 98.9905 62.3664 95.8716 62.2272C93.9544 62.1444 93.357 61.9653 91.6852 61.0063C89.2536 59.6114 86.8681 58.8618 82.7496 58.1207C80.4494 57.7187 78.7214 57.1896 76.8482 56.2716C72.7527 54.3561 70.0038 54.6354 69.6877 57.0499C69.5968 57.7444 69.4961 57.7649 68.3741 57.3489C65.353 56.2132 64.8273 55.2361 66.7268 54.2064C68.9136 52.9788 72.326 53.1228 75.1796 54.5393C76.1279 55.0335 78.9502 55.9412 81.4215 56.5339C83.8885 57.1596 86.5587 57.9802 87.3915 58.3584C89.3932 59.2933 89.3932 59.2933 89.3329 58.007C89.2386 56.4808 89.8367 56.1554 92.5658 56.2772C94.8407 56.3731 98.5044 57.5929 99.0795 58.442C99.2741 58.7029 99.1734 58.7234 98.6766 58.5238C97.3236 57.8757 91.6561 57.2346 91.0494 57.6262C90.2281 58.1578 90.3058 59.3118 91.2004 59.9672C93.0494 61.3195 100.8 61.0222 102.531 59.5331C104.052 58.151 102.521 56.3693 99.2653 55.7749L97.0658 55.3524L97.3841 54.4185C97.6079 53.7077 97.5209 53.1244 96.9761 52.0438C96.3288 50.7479 96.3269 50.5122 96.7929 49.6985C97.055 49.1946 97.6686 48.5011 98.1747 48.13C99.2962 47.3013 99.3247 46.834 98.3128 45.8268C96.9735 44.575 97.0237 43.9423 98.8894 40.9234C101.552 36.5621 102.78 32.9213 102.138 31.0879C101.997 30.6658 101.574 29.9039 101.249 29.3904C100.864 28.8354 100.641 27.7968 100.61 26.7836C100.603 25.8406 100.469 24.6121 100.258 23.9789L99.9148 22.8574L97.2352 22.6075L94.5191 22.3865L93.2874 20.8123C92.1155 19.2796 90.4481 18.2875 88.5378 17.9028C86.9765 17.5975 83.4009 17.7013 82.7664 18.0556C82.1361 18.3768 82.1231 18.476 82.4899 19.6678C83.0062 21.2157 86.8311 26.6954 88.0574 27.5624C88.7166 28.0188 89.4747 28.2189 91.0706 28.2597C93.7718 28.3442 99.8205 29.0688 99.983 29.3255C100.205 29.6238 98.6871 30.7371 98.2052 30.674C97.9803 30.6445 97.6486 30.4329 97.454 30.1719C97.2038 29.8364 96.9746 29.84 96.4685 30.2111C96.1082 30.4667 95.5404 30.5606 95.2321 30.4193C94.7354 30.2197 94.4437 30.4507 93.793 31.6775C92.8159 33.3999 89.9591 35.7508 87.715 36.6681L86.2295 37.2811L86.5479 36.3471C88.1457 31.8801 87.9489 30.1386 85.4496 26.5145C84.4341 25.0359 83.124 22.8122 82.5088 21.5206C81.0134 18.4653 79.1405 15.7979 77.8221 14.8852C76.1164 13.6862 66.6108 9.41401 62.5467 8.00727C58.2621 6.53801 55.6858 5.99886 53.3336 5.99369ZM91.0911 19.6164C92.5102 20.5087 93.6325 22.1695 93.9943 23.899C94.3179 25.4216 94.7312 25.5093 94.9174 24.0871L95.056 23.0287L97.3092 23.29L99.5582 23.5845L99.8236 25.3013C100.301 28.3916 100.297 28.4247 97.2362 28.0913C95.7861 27.9351 93.295 27.7435 91.7398 27.6408C89.0151 27.4859 88.8267 27.4276 87.9025 26.4992C85.2264 23.7267 82.2942 18.6666 83.3014 18.462C85.247 18.0776 89.6763 18.6911 91.0911 19.6164ZM53.917 28.7446C56.0914 31.8552 57.6141 33.703 58.5451 34.3295C60.3794 35.5452 61.5227 37.5452 61.3704 39.2074C61.2424 40.4354 61.2059 40.4642 59.3931 40.8324C55.4053 41.5888 52.9896 41.0706 51.7004 39.1861C50.9394 38.01 49.4338 33.0357 48.9196 29.9743C48.2375 25.9489 48.3522 23.5754 49.2452 22.2457L49.9707 21.1968L50.3029 22.6533C50.5073 23.5884 51.7939 25.7417 53.917 28.7446ZM81.1134 31.4304C81.6805 31.8411 81.7231 32.0149 81.3109 32.6674C81.0167 33.1672 80.898 33.8245 81.006 34.7469C81.2028 36.4884 80.7336 38.0754 79.9384 38.4087C79.3532 38.6348 79.3019 38.5272 79.4535 37.3696C79.5444 36.675 79.4508 34.6442 79.2262 32.8655C78.7412 28.8322 78.7412 28.8322 79.6993 30.0006C80.1206 30.5267 80.7538 31.1815 81.1134 31.4304ZM73 33.4969C72.8794 33.9185 72.8498 33.6455 72.9451 32.9178C73.0082 32.186 73.1158 31.8636 73.1732 32.1739C73.1942 32.5131 73.1162 33.1084 73 33.4969ZM67.5749 35.7472C67.6532 36.3966 67.6883 37.3768 67.5826 37.9349C67.47 38.7948 67.3823 38.7161 67.0909 37.1977C66.8908 36.2295 66.702 34.9264 66.6879 34.2854C66.638 33.1687 66.6423 33.1356 67.0098 33.8229C67.2236 34.1873 67.5008 35.0646 67.5749 35.7472ZM84.4641 39.0348C84.3731 39.7294 82.4012 42.0616 81.9514 42.0027C81.341 41.9228 80.5998 40.3456 80.8557 39.6389C81.1246 38.8331 84.568 38.241 84.4641 39.0348ZM77.2881 40.1811C76.3612 41.2709 73.1456 42.8684 72.1496 42.738C70.9288 42.5782 70.8565 42.1314 71.7903 40.7398C72.561 39.5959 72.7667 39.5219 74.5128 39.4141C75.5626 39.3833 76.7408 39.3694 77.1628 39.391C77.8739 39.4504 77.8696 39.4835 77.2881 40.1811ZM70.6763 40.7621C70.2764 41.8199 69.0925 42.876 67.8171 43.3819C66.3725 43.9329 66.2335 43.7465 67.0493 42.5076C67.4615 41.8551 67.8545 41.0992 67.8978 40.7684C67.9455 40.4046 68.3743 40.1243 69.075 40.0142C70.8792 39.7121 71.0633 39.8035 70.6763 40.7621ZM66.7232 41.2538C66.0136 43.1794 63.5081 44.0962 62.1879 42.9477C61.0154 41.9195 61.524 41.2796 63.9776 40.7598C66.9304 40.1708 67.1231 40.196 66.7232 41.2538ZM74.8716 60.3862C75.9138 61.1619 78.6025 62.5904 80.797 63.5505C85.7704 65.7492 86.9602 66.6451 90.0613 70.4152C91.4129 72.0724 93.1327 73.9124 93.8345 74.5425L95.1547 75.691L94.1587 75.5606C93.0664 75.4176 92.4566 74.8331 88.6303 70.3625C87.3856 68.8875 85.4878 67.1588 84.2893 66.329C82.363 65.0676 80.8024 64.2577 74.2129 61.1747C71.7188 60.0071 71.0726 59.4515 71.7671 59.1388C72.5024 58.764 72.8107 58.9053 74.8716 60.3862ZM116.123 69.2856C116.071 69.6825 114.284 70.3568 111.652 70.9879C110.274 71.2785 106.867 72.3462 104.055 73.3574C97.0311 75.8357 96.7975 75.8724 94.9207 74.4829C94.0861 73.869 93.1254 72.9695 92.7962 72.489L92.1933 71.6027L93.125 71.7247C93.6391 71.792 94.9631 71.6625 96.0988 71.4748C97.2388 71.254 100.208 71.0372 102.698 70.993C105.911 70.9091 108.467 70.6045 111.461 69.9536C116.107 68.9133 116.171 68.9218 116.123 69.2856Z" fill="url(#paint1_linear_480_7844)"/>
</g>
</g>
<defs>
<linearGradient id="paint0_linear_480_7844" x1="12.8154" y1="33.5992" x2="153.331" y2="51.9953" gradientUnits="userSpaceOnUse">
<stop stop-color="#FECF24"/>
<stop offset="1" stop-color="#FE9724"/>
</linearGradient>
<linearGradient id="paint1_linear_480_7844" x1="12.8834" y1="33.0801" x2="153.399" y2="51.4763" gradientUnits="userSpaceOnUse">
<stop stop-color="#FECF24"/>
<stop offset="1" stop-color="#FE9724"/>
</linearGradient>
</defs>
</svg>
