<svg width="30" height="30" viewBox="0 0 30 30" fill="none" xmlns="http://www.w3.org/2000/svg">
<circle cx="15" cy="15" r="15" fill="#555555"/>
<path d="M10.625 10.25C10.625 11.4103 11.0859 12.5231 11.9064 13.3436C12.7269 14.1641 13.8397 14.625 15 14.625C16.1603 14.625 17.2731 14.1641 18.0936 13.3436C18.9141 12.5231 19.375 11.4103 19.375 10.25C19.375 9.08968 18.9141 7.97688 18.0936 7.15641C17.2731 6.33594 16.1603 5.875 15 5.875C13.8397 5.875 12.7269 6.33594 11.9064 7.15641C11.0859 7.97688 10.625 9.08968 10.625 10.25ZM21.25 22.125H8.125C7.95924 22.125 7.80027 22.0592 7.68306 21.9419C7.56585 21.8247 7.5 21.6658 7.5 21.5V19.625C7.5 18.7962 7.82924 18.0013 8.41529 17.4153C9.00134 16.8292 9.7962 16.5 10.625 16.5H19.375C20.2038 16.5 20.9987 16.8292 21.5847 17.4153C22.1708 18.0013 22.5 18.7962 22.5 19.625V21.5C22.5 21.6658 22.4342 21.8247 22.3169 21.9419C22.1997 22.0592 22.0408 22.125 21.875 22.125H21.25Z" fill="white"/>
</svg>
