<svg width="30" height="30" viewBox="0 0 30 30" fill="none" xmlns="http://www.w3.org/2000/svg">
<circle cx="15" cy="15" r="15" fill="#555555"/>
<path d="M9 12.9999C8.99945 11.7532 9.38723 10.5374 10.1095 9.52126C10.8317 8.50513 11.8525 7.7392 13.03 7.32989C12.9844 7.0442 13.0013 6.75201 13.0796 6.4735C13.1579 6.19498 13.2957 5.93677 13.4834 5.71666C13.6712 5.49656 13.9044 5.31981 14.1671 5.19861C14.4298 5.07741 14.7157 5.01465 15.005 5.01465C15.2943 5.01465 15.5802 5.07741 15.8429 5.19861C16.1056 5.31981 16.3388 5.49656 16.5266 5.71666C16.7143 5.93677 16.8521 6.19498 16.9304 6.4735C17.0087 6.75201 17.0256 7.0442 16.98 7.32989C18.1557 7.74088 19.1743 8.50753 19.8946 9.52351C20.615 10.5395 21.0013 11.7545 21 12.9999V18.9999L24 20.9999V21.9999H6V20.9999L9 18.9999V12.9999ZM17 22.9999C17 23.5303 16.7893 24.039 16.4142 24.4141C16.0391 24.7892 15.5304 24.9999 15 24.9999C14.4696 24.9999 13.9609 24.7892 13.5858 24.4141C13.2107 24.039 13 23.5303 13 22.9999H17Z" fill="white"/>
</svg>
