<svg width="20" height="21" viewBox="0 0 20 21" fill="none" xmlns="http://www.w3.org/2000/svg">
<g clip-path="url(#clip0_769_39687)">
<path d="M4 8.49989C3.99945 7.25324 4.38723 6.03739 5.10945 5.02126C5.83167 4.00513 6.85247 3.2392 8.03 2.82989C7.9844 2.5442 8.00132 2.25201 8.0796 1.9735C8.15788 1.69498 8.29565 1.43677 8.48341 1.21666C8.67117 0.996562 8.90444 0.819813 9.16714 0.698613C9.42983 0.577414 9.71569 0.514648 10.005 0.514648C10.2943 0.514648 10.5802 0.577414 10.8429 0.698613C11.1056 0.819813 11.3388 0.996562 11.5266 1.21666C11.7143 1.43677 11.8521 1.69498 11.9304 1.9735C12.0087 2.25201 12.0256 2.5442 11.98 2.82989C13.1557 3.24088 14.1743 4.00753 14.8946 5.02351C15.615 6.0395 16.0013 7.25446 16 8.49989V14.4999L19 16.4999V17.4999H1V16.4999L4 14.4999V8.49989ZM12 18.4999C12 19.0303 11.7893 19.539 11.4142 19.9141C11.0391 20.2892 10.5304 20.4999 10 20.4999C9.46957 20.4999 8.96086 20.2892 8.58579 19.9141C8.21071 19.539 8 19.0303 8 18.4999H12Z" fill="#2D2D2D"/>
</g>
<defs>
<clipPath id="clip0_769_39687">
<rect width="20" height="20" fill="white" transform="translate(0 0.5)"/>
</clipPath>
</defs>
</svg>
