<svg width="106" height="100" viewBox="0 0 106 100" fill="none" xmlns="http://www.w3.org/2000/svg">
<g id="Vector">
<path d="M54.7383 0.078036C52.0068 0.359759 48.7365 1.24167 46.4337 2.33182C45.1109 2.95651 43.3838 3.93642 43.2736 4.1324C43.2246 4.20589 43.4328 4.12015 43.7268 3.93642C46.5807 2.18483 50.1573 0.947703 53.6972 0.482247C55.7672 0.200524 60.0909 0.298515 62.1487 0.66598C66.8399 1.4989 71.5189 3.26273 75.6221 5.73699C79.5417 8.08877 81.0605 10.1098 81.5627 13.613C81.7219 14.7276 81.9057 17.7041 81.8077 17.7041C81.7709 17.7041 81.5137 17.3489 81.232 16.9324C79.9581 15.0829 77.6554 12.8291 75.5731 11.4327C71.8863 8.97069 68.0648 7.75805 62.7611 7.40283C59.5887 7.1946 56.4531 7.41508 49.2877 8.39499C41.4363 9.47289 40.8974 9.49739 40.2972 8.81145C39.9052 8.34599 39.9787 7.40284 40.4687 6.65566C40.6646 6.36168 40.7259 6.20245 40.6034 6.30044C40.2972 6.55767 39.7827 7.47633 39.6725 7.97853C39.452 8.93394 40.1135 9.61987 41.2158 9.61987C41.9752 9.61987 44.9149 9.26466 49.3489 8.65222C55.314 7.8193 56.2939 7.73355 60.1889 7.7213C64.0227 7.7213 65.2108 7.84379 67.8443 8.46848C72.9274 9.70562 77.5819 12.8046 80.693 17.0304C82.0404 18.8555 81.9547 18.6105 81.8199 20.2519C81.5627 23.1181 80.7788 25.0289 79.2477 26.4375C77.4962 28.0666 75.0587 28.3238 72.511 27.1357C70.8452 26.3518 69.5958 25.2739 67.2196 22.5914C63.5573 18.439 61.8792 17.2386 58.3394 16.2832C57.2615 15.9893 56.9063 15.9525 55.1057 15.9403C53.3787 15.9403 52.9255 15.977 51.9823 16.2097C50.8065 16.516 48.4303 17.6061 47.8178 18.1328C47.6096 18.3043 47.8301 18.2063 48.3568 17.9001C50.1696 16.7977 52.2886 16.222 54.5546 16.2097C56.8205 16.1975 58.7436 16.6385 60.7401 17.6429C62.8224 18.684 63.937 19.6149 66.4357 22.4199C68.5792 24.8084 69.8163 26.0211 70.8084 26.6825C73.2704 28.3116 75.6711 28.6301 77.7289 27.6257C78.5618 27.2092 80.0561 25.9108 80.4358 25.2616C80.791 24.6492 82.6528 23.8653 84.4411 23.5713C85.8252 23.3508 88.4219 23.4978 89.9652 23.8775C93.6153 24.7839 96.9102 26.8172 99.5069 29.7814C102.275 32.9539 103.953 36.9103 104.174 40.8299L104.259 42.1405L103.843 41.7608C102.006 40.0582 99.2864 38.7231 96.4937 38.1596C94.9014 37.8289 92.4394 37.8044 91.4351 38.0862C91.0431 38.2086 90.7369 38.3189 90.7614 38.3434C90.7859 38.3556 91.3493 38.3189 92.0107 38.2454C94.2522 38.0127 97.0939 38.4781 99.4089 39.4825C100.671 40.0215 102.226 41.0014 103.402 42.0058C104.125 42.6182 104.259 42.6917 104.431 42.557C104.602 42.41 104.615 42.165 104.553 40.7931C104.333 36.1876 102.324 31.827 98.821 28.3728C97.3879 26.952 95.7956 25.8251 93.995 24.9309C92.3537 24.1347 91.4228 23.7918 89.8917 23.4488C88.6301 23.1671 86.1804 23.0323 85.2005 23.1916C84.5758 23.2896 84.4779 23.2773 84.4166 23.1058C84.0002 21.9054 83.2897 20.2641 82.8121 19.4067L82.2241 18.3655L82.1874 17.0794C82.1506 15.1563 81.9547 13.2333 81.6852 12.0819C80.9135 8.86045 78.9415 6.88838 73.8338 4.24264C69.7918 2.14809 65.9335 0.87421 61.8425 0.24952C60.2624 0.0167919 56.3061 -0.0811988 54.7383 0.078036ZM82.8488 20.5213C83.351 21.5257 84.0124 23.1181 84.0124 23.3386C84.0124 23.3876 83.7184 23.4855 83.3632 23.5713C82.9958 23.6448 82.2854 23.9265 81.7832 24.1715L80.8645 24.6369L81.2075 23.902C81.6484 22.9588 82.0159 21.5257 82.1261 20.3376C82.1751 19.8354 82.2241 19.4189 82.2486 19.4189C82.2731 19.4189 82.5426 19.9089 82.8488 20.5213Z" fill="url(#paint0_linear_1080_4300)"/>
<path d="M14.3179 1.8051C13.8157 1.85409 13.0195 2.01333 12.5418 2.14807C11.513 2.45429 9.61443 3.37295 9.11224 3.81391L8.74478 4.13238L9.11224 3.8874C9.32047 3.75266 9.87165 3.44644 10.3616 3.20147C15.4938 0.629212 21.814 2.57678 24.276 7.47631C24.5332 7.99076 25.0967 9.6076 25.0967 9.84033C25.0967 9.87708 24.6924 9.52186 24.2148 9.05641C20.4422 5.43075 15.2733 4.26711 10.4473 5.95745C9.23473 6.37391 7.65466 7.17009 7.12797 7.62329L6.78501 7.92951L7.16472 7.67229C7.92413 7.17009 9.85941 6.31267 10.9005 6.0187C14.1219 5.10003 17.2821 5.40626 20.3809 6.92511C21.9365 7.68454 23.5533 8.90942 24.5577 10.0853C25.3294 10.9795 25.3416 11.0162 25.3294 11.6899C25.3294 12.0696 25.3539 12.4983 25.3906 12.6453C25.5009 13.172 25.2191 16.1117 24.7782 18.7452C24.5332 20.2273 24.3127 21.4645 24.2882 21.489C24.1903 21.5992 24.129 21.4032 23.9943 20.5948C23.3941 16.7977 20.5892 14.0907 16.8901 13.7232C15.8367 13.613 14.0729 13.9192 12.8971 14.4091C12.3949 14.6174 11.9662 14.8256 11.9294 14.8868C11.9049 14.9358 12.2111 14.8501 12.6153 14.6786C16.7309 13.0128 21.1281 14.7031 22.9776 18.6472C23.1981 19.1249 23.3818 19.5904 23.3818 19.6639C23.3818 19.7374 23.1491 19.6026 22.8674 19.3699C21.0301 17.8266 20.4177 17.4714 19.0703 17.1529C17.968 16.8957 16.2654 16.9202 15.1385 17.2019C13.7177 17.5693 12.5174 18.096 9.87165 19.5047C8.53656 20.2151 7.42194 20.7785 7.39744 20.7418C7.3117 20.656 8.29159 18.7085 8.80603 17.9368C9.09999 17.5081 9.57769 16.8712 9.89615 16.5404L10.4596 15.928L9.81041 16.5404C9.0265 17.2754 8.30384 18.341 7.54442 19.8599L6.98099 20.9868L6.08684 21.293C4.76399 21.7584 4.33529 21.8564 3.07369 21.9422C2.41226 21.9912 1.89782 22.0892 1.82433 22.1749C1.59161 22.4566 3.79635 24.1225 5.07021 24.6492C5.44991 24.7962 5.60915 24.9309 5.58465 25.0534C5.5479 25.1514 5.21719 26.2293 4.83748 27.4419C1.99581 36.604 0.648466 44.0023 0.513732 51.2781C0.378997 58.5049 1.22415 63.6372 3.56363 69.6391C3.96783 70.6803 4.67825 72.5053 5.13145 73.6812C6.01335 75.9473 6.56454 77.7111 6.93199 79.4382C7.16472 80.5406 7.18921 82.0839 7.07898 88.9923C7.04223 91.9075 7.05448 92.1769 7.29945 93.0589C7.83839 94.9452 8.73254 96.3661 10.0676 97.4194C14.2199 100.727 21.1526 100.861 27.3626 97.7869C28.2323 97.346 30.1186 96.2313 30.1186 96.1456C30.1186 96.1088 29.8859 96.2313 29.6041 96.4028C28.3793 97.15 26.0643 98.2279 24.7292 98.6811C22.7694 99.3303 20.8219 99.6487 18.7274 99.6487C16.0572 99.6487 14.1219 99.2323 12.0886 98.2156C11.1823 97.7624 10.7413 97.4439 9.8839 96.5988C9.01425 95.7291 8.73254 95.3616 8.32833 94.5042C7.49543 92.7526 7.39744 92.226 7.39744 89.2985C7.39744 87.8776 7.44643 85.5381 7.50768 84.0927C7.69141 79.7199 7.2872 77.8948 4.70275 71.3539C1.87333 64.1761 1.01592 60.1218 0.881189 53.3849C0.770952 47.4075 1.2609 42.8264 2.74297 36.1998C3.49014 32.8314 5.58465 25.4331 5.86637 25.1269C5.92761 25.0779 6.23382 25.1146 6.56454 25.2249C9.32047 26.1435 13.191 26.2415 18.2619 25.5433C20.5892 25.2126 21.2383 25.0779 21.9978 24.7349C22.7082 24.4287 22.9042 24.2205 22.2305 24.5022C22.01 24.6002 21.6303 24.6982 21.4098 24.7349C21.1771 24.7717 20.7239 24.8574 20.3809 24.9309C19.3398 25.1514 18.4579 24.8084 17.6495 23.8897C16.6574 22.7628 16.4981 21.2562 17.2698 20.1661C17.6373 19.6271 17.6373 19.6149 17.3188 19.9089C15.898 21.2195 16.2409 23.7428 18.017 24.8451L18.6416 25.2371L17.9802 25.3229C14.8691 25.7148 11.366 25.7883 9.4797 25.4943C8.1936 25.2984 6.4543 24.8451 6.18483 24.6492C6.0256 24.5267 6.06234 24.3429 6.4298 23.2773C7.27495 20.7785 6.8585 21.2072 9.94515 19.6149C11.4395 18.8432 13.1665 18.047 13.7667 17.8388C16.3389 16.9936 18.6294 17.0671 20.3197 18.0593L20.8709 18.3778L20.1115 18.4513C19.4501 18.5125 17.8822 19.1127 18.0292 19.2474C18.0537 19.2719 18.2987 19.1862 18.5682 19.0515C19.793 18.4635 21.3608 18.6717 21.8875 19.4924C22.3285 20.1783 22.5244 20.8398 22.5244 21.6849C22.5244 22.6649 22.2672 23.4855 21.7773 24.1225L21.3853 24.6247L21.7773 24.2572C22.4142 23.6693 22.8062 22.7261 22.8674 21.6237C22.9042 21.0725 22.8674 20.4968 22.7817 20.2641C22.5734 19.6639 22.6837 19.7129 23.1981 20.4478C23.6513 21.1093 23.6636 21.1338 23.6023 22.0892C23.5656 22.7751 23.4676 23.2161 23.2716 23.5958C23.0634 23.9877 23.0389 24.0735 23.1981 23.951C23.4186 23.7672 23.7371 23.2038 23.884 22.7261C23.9575 22.4811 23.9698 22.5424 23.982 23.0201C23.9943 23.5345 24.0188 23.5958 24.178 23.461C24.276 23.3753 24.3617 23.2161 24.3617 23.0936C24.3617 22.9711 24.6067 21.5135 24.9129 19.8354C25.2191 18.1573 25.5376 16.173 25.6111 15.438C25.8071 13.7477 25.9173 14.1397 25.9418 16.5527C25.9663 19.2842 25.5009 21.3297 24.3127 23.6693C23.3818 25.5433 22.1692 26.9887 19.5848 29.3527C16.8778 31.827 15.898 32.8069 15.0406 33.9215C12.7991 36.7878 12.4561 39.2008 13.681 43.1326C13.9994 44.1615 14.0117 44.2595 13.8647 44.8352C13.6197 45.7539 13.534 47.5545 13.6932 48.4609C13.9137 49.796 14.1709 50.4942 14.4404 50.5677C15.163 50.7514 15.3835 47.383 14.7711 45.3864L14.4649 44.3453L14.7588 43.7328C15.2978 42.6549 16.2409 41.8465 16.9758 41.822L17.3188 41.8098L16.9758 41.6873C16.3022 41.4423 14.9916 42.2507 14.4894 43.2061C14.3914 43.4021 14.2934 43.5491 14.2566 43.5491C14.1832 43.5491 13.7667 42.067 13.5952 41.2218C13.4115 40.3399 13.4115 38.4781 13.5952 37.7187C13.8035 36.8368 14.5751 35.2689 15.1998 34.4115C16.0572 33.2723 17.0983 32.2067 19.5725 29.9529C21.8998 27.8339 22.6714 27.0377 23.6391 25.7148C24.7537 24.2082 25.6846 22.0279 26.15 19.9089C26.4685 18.4635 26.4685 15.2176 26.15 13.9069C26.0275 13.4047 25.9051 12.7066 25.8683 12.3758L25.8071 11.7634L26.0643 12.1676C26.3093 12.5596 26.5665 12.6331 26.6522 12.3636C26.6767 12.2901 26.4685 11.8981 26.199 11.4694C25.8438 10.9182 25.6478 10.4528 25.5376 9.82808C24.9252 6.65564 23.0144 4.18137 20.1237 2.8095C18.3109 1.93984 16.2654 1.58462 14.3179 1.8051ZM6.67477 21.9422C6.51554 22.3341 6.25832 23.0691 6.09909 23.559C5.86637 24.3062 5.78063 24.4409 5.58465 24.3919C5.1437 24.2817 3.53913 23.2895 2.96345 22.7751L2.37552 22.2484L2.93895 22.2361C3.61263 22.2361 5.58465 21.7462 6.35631 21.4032C6.65028 21.2562 6.91974 21.1582 6.93199 21.1827C6.95649 21.195 6.834 21.538 6.67477 21.9422ZM14.5629 46.2806C14.8078 47.4932 14.7343 49.796 14.4526 49.796C14.1587 49.796 13.9504 46.9175 14.1587 45.7049C14.2444 45.1415 14.3546 45.2884 14.5629 46.2806Z" fill="url(#paint1_linear_1080_4300)"/>
<path d="M5.86641 7.0109C4.97226 8.21129 3.52693 11.1878 4.28634 10.2813C4.37208 10.1711 4.54356 9.80364 4.66605 9.46067C4.91102 8.77473 5.71943 7.35387 6.25837 6.64344C6.46659 6.39846 6.58908 6.19023 6.55233 6.19023C6.51559 6.19023 6.19712 6.5577 5.86641 7.0109Z" fill="url(#paint2_linear_1080_4300)"/>
<path d="M6.46657 8.11318C6.30734 8.30916 6.31958 8.32141 6.51556 8.16217C6.6258 8.07643 6.72379 7.97844 6.72379 7.95394C6.72379 7.85595 6.6258 7.91719 6.46657 8.11318Z" fill="url(#paint3_linear_1080_4300)"/>
<path d="M45.2211 20.4846C44.1064 21.8319 43.1755 23.5713 42.8203 24.9799C42.5999 25.8005 42.4529 25.7638 44.0942 25.3228C47.1318 24.5144 52.2517 24.7104 54.7627 25.727C55.6446 26.0823 56.9062 26.9764 57.3349 27.5276C58.0943 28.532 58.2903 29.4997 57.8861 30.3081C57.5921 30.8838 57.7146 30.9206 58.0576 30.3694C58.2413 30.0754 58.3638 29.6467 58.3883 29.1935C58.5108 27.5521 57.1144 26.0823 54.628 25.2371C53.1214 24.7226 51.5658 24.5267 49.1651 24.5144C46.9359 24.5022 46.0785 24.6002 44.1064 25.0779C43.543 25.2126 43.0653 25.2983 43.0286 25.2738C42.9428 25.1759 43.69 23.118 44.0819 22.3831C44.2902 21.9912 44.7556 21.2807 45.1231 20.7908C45.8825 19.7864 45.9315 19.6271 45.2211 20.4846Z" fill="url(#paint4_linear_1080_4300)"/>
<path d="M40.6891 27.1235C40.0277 27.4297 40.0154 27.5032 40.6646 27.3317C41.2648 27.1725 41.8405 27.3562 44.9393 28.7649C46.9481 29.6713 50.4512 31.0921 51.6026 31.4841C52.5702 31.8026 53.8441 32.0353 54.6157 32.0353C55.4241 32.0353 56.8327 31.6433 57.0777 31.3371C57.2247 31.1656 57.1879 31.1779 56.8205 31.3616C56.1958 31.6923 54.4075 31.7536 53.1826 31.4841C51.6148 31.1411 48.4792 29.904 44.1309 27.9319C41.8282 26.8908 41.4118 26.7928 40.6891 27.1235Z" fill="url(#paint5_linear_1080_4300)"/>
<path d="M39.3295 28.3851C38.8396 29.1077 35.165 35.2689 32.9848 39.0415C32.0049 40.7441 31.123 42.214 31.0495 42.312C30.878 42.5324 30.7433 42.5569 35.6305 41.479C45.5151 39.2865 46.495 39.115 49.1039 39.1028C51.6149 39.1028 53.8319 39.6295 54.6893 40.4257C55.1057 40.8299 55.1302 40.8911 55.069 41.4301L55.0077 42.0058L55.2405 41.6995C55.5712 41.2831 55.5344 40.7074 55.167 40.2542C54.4565 39.409 52.607 38.8945 50.0226 38.7966C47.3769 38.7108 46.3847 38.8823 33.389 41.724C32.3968 41.9323 31.5517 42.0915 31.5149 42.0547C31.4414 41.969 35.606 34.7789 38.3619 30.2591C38.9008 29.3772 39.4398 28.483 39.5745 28.2626C39.9175 27.6869 39.746 27.7849 39.3295 28.3851Z" fill="url(#paint6_linear_1080_4300)"/>
<path d="M76.2223 29.1201L75.9895 29.4018L76.2713 29.1691C76.5285 28.9486 76.602 28.8506 76.504 28.8506C76.4795 28.8506 76.357 28.9731 76.2223 29.1201Z" fill="url(#paint7_linear_1080_4300)"/>
<path d="M75.2301 30.4061C72.6701 33.8848 70.5021 37.5227 64.5983 48.3262C53.6726 68.2917 48.9569 75.8493 41.9384 84.5827C41.2158 85.4891 40.7013 86.1628 40.8238 86.0648C41.4117 85.5748 45.6375 80.0506 47.8055 76.9517C52.6069 70.0678 55.9998 64.3476 64.6596 48.5711C69.4733 39.801 70.4899 37.9759 71.8862 35.6976C72.9151 34.0318 74.6299 31.4473 75.5486 30.1612C75.8303 29.7814 76.0385 29.463 76.0018 29.463C75.965 29.463 75.6221 29.8917 75.2301 30.4061Z" fill="url(#paint8_linear_1080_4300)"/>
<path d="M89.8182 39.3233C89.5733 39.9235 89.5978 40.2297 89.9652 40.9646C90.3327 41.6873 90.9941 42.2508 91.778 42.4713C92.0842 42.557 93.0641 42.606 94.3502 42.5815C95.5261 42.5692 96.7019 42.6182 97.1061 42.704C99.8008 43.2429 102.361 45.8519 103.341 49.0734C104.198 51.8539 103.965 55.3203 102.691 59.0439C102.177 60.5505 100.744 64.0537 100.462 64.4946C100.266 64.7886 100.266 64.7886 100.487 64.6171C101.001 64.2007 102.863 59.6441 103.537 57.1331C104.235 54.5241 104.419 51.8661 104.027 49.943C103.451 47.1625 101.92 44.774 99.8253 43.4022C98.3555 42.4468 97.7308 42.2998 94.8524 42.263C93.4316 42.2508 92.219 42.1773 91.9617 42.1038C90.8839 41.7486 89.953 40.4624 90.0387 39.4458C90.0632 39.1396 90.0632 38.8946 90.0387 38.8946C90.0142 38.8946 89.9162 39.0906 89.8182 39.3233Z" fill="url(#paint9_linear_1080_4300)"/>
<path d="M24.521 41.8219C23.4676 42.1771 22.6592 42.8998 21.7528 44.2594C20.9321 45.5211 20.4299 45.9988 19.9278 46.011H19.646L19.9155 46.1458C20.5647 46.4642 21.1771 45.9988 22.2305 44.3942C23.0879 43.0836 23.6023 42.6181 24.6925 42.1159C25.2681 41.8464 25.5866 41.7852 26.346 41.7729C26.8605 41.7729 27.1912 41.7362 27.0809 41.6872C26.6645 41.528 25.1579 41.6014 24.521 41.8219Z" fill="url(#paint10_linear_1080_4300)"/>
<path d="M17.5882 42.1038C17.9679 42.5325 18.0782 42.802 18.2864 43.8554C18.3844 44.3943 18.5069 44.9455 18.5559 45.0803C18.6539 45.362 19.2173 45.9989 19.3643 45.9989C19.4255 45.9989 19.352 45.8519 19.2173 45.656C19.0826 45.4722 18.8866 44.8843 18.7886 44.3453C18.5314 42.9735 18.3966 42.6182 17.9679 42.2018C17.5515 41.7731 17.2085 41.6996 17.5882 42.1038Z" fill="url(#paint11_linear_1080_4300)"/>
<path d="M28.3915 42.5446C29.0897 43.2428 29.3837 44.0022 29.3837 45.0679C29.3714 46.599 28.6488 47.4197 26.7257 48.0811C24.2515 48.914 23.8106 49.453 23.0634 52.5887C22.353 55.5529 21.8875 56.2388 20.4667 56.3981L19.7685 56.4838L20.2585 56.5573C20.5279 56.6063 20.9444 56.6063 21.1771 56.545C22.4632 56.2511 22.8919 55.5529 23.5166 52.7969C23.9575 50.8126 24.1903 50.2369 24.8027 49.551C25.3539 48.9508 25.5744 48.8283 27.1299 48.2771C29.2734 47.5054 29.8124 46.8807 29.8124 45.2026C29.8124 44.4187 29.7511 44.1125 29.5184 43.6715C29.1877 43.0223 28.5998 42.3731 28.1343 42.1282C27.8893 42.0057 27.9506 42.1037 28.3915 42.5446Z" fill="url(#paint12_linear_1080_4300)"/>
<path d="M52.5948 43.5736C51.6026 44.1983 49.3856 45.2027 48.124 45.6069C46.6542 46.0723 45.2824 46.3663 42.0487 46.9053C37.9332 47.6034 36.2551 48.1179 34.5281 49.2325C34.0626 49.5387 33.6707 49.8205 33.6707 49.8572C33.6707 49.894 33.9034 49.7715 34.1974 49.5755C35.8387 48.4486 37.9454 47.7994 42.2692 47.1012C46.2255 46.4643 48.0995 45.9621 50.2798 44.9699C51.1617 44.5535 52.6438 43.7206 53.0847 43.3776C53.4889 43.0591 53.2439 43.1571 52.5948 43.5736Z" fill="url(#paint13_linear_1080_4300)"/>
<path d="M84.4533 49.1957C82.91 49.5632 82.1383 51.033 82.7752 52.4416C83.1304 53.2256 83.6694 53.74 85.7149 55.2711C90.2959 58.713 92.9661 62.302 93.8847 66.2706C94.2032 67.6057 94.2032 70.5822 93.897 71.7213C93.3703 73.6444 92.6844 74.9305 91.5085 76.1921C91.0185 76.7188 91.0675 76.6821 91.68 76.0696C95.3545 72.3827 95.477 66.2093 91.9862 60.9301C90.6143 58.8478 88.6423 56.8635 86.0334 54.9282C85.2985 54.3892 84.4288 53.691 84.1103 53.3848C82.6283 51.9394 82.4568 50.1511 83.7674 49.6244C84.9065 49.1712 86.6335 49.5877 88.6178 50.7758C93.3703 53.6175 96.7631 58.0761 98.282 63.4288C98.7352 65.0702 98.9924 65.4254 99.5558 65.2907C99.7273 65.2539 99.9478 65.1437 100.034 65.0579C100.168 64.9354 100.131 64.9109 99.8498 64.9477C99.3231 65.0334 99.1026 64.6782 98.6249 63.0614C97.4735 59.1418 95.673 56.1653 92.7823 53.3726C90.6511 51.327 88.1279 49.7224 86.2783 49.2447C85.4699 49.0365 85.1637 49.0365 84.4533 49.1957Z" fill="url(#paint14_linear_1080_4300)"/>
<path d="M32.0171 51.5966C31.3557 52.4662 30.6453 54.0218 30.3146 55.3325C29.9104 56.8881 29.7634 58.4436 29.7144 61.3099C29.6776 63.4534 29.6532 63.7596 29.4082 64.2986C29.2245 64.7028 29.2 64.8375 29.3224 64.7395C29.4204 64.6661 29.6164 64.2863 29.7634 63.9066C29.9839 63.3187 30.0329 62.89 30.0696 61.1874C30.1308 58.2722 30.2166 57.1085 30.4861 55.7734C30.8045 54.2546 31.3312 52.8582 32.0049 51.8415C32.2988 51.3883 32.5193 51.0209 32.4948 51.0209C32.4826 51.0209 32.2621 51.2781 32.0171 51.5966Z" fill="url(#paint15_linear_1080_4300)"/>
<path d="M43.2613 54.8792C40.5299 55.2222 37.6637 56.0061 35.263 57.084C34.0994 57.5862 31.5272 59.0193 31.4047 59.2276C31.3802 59.2766 31.9559 58.9704 32.703 58.5416C35.0425 57.2065 37.7617 56.1776 40.3584 55.6264C44.2167 54.818 46.4214 54.916 47.4871 55.9449C48.173 56.6186 48.222 57.4637 47.6463 58.4314C47.4993 58.6764 47.4381 58.8356 47.5116 58.7989C47.6953 58.6886 48.2465 57.7087 48.369 57.2555C48.5282 56.7166 48.3322 56.0551 47.9158 55.6509C47.0584 54.8302 45.5885 54.5853 43.2613 54.8792Z" fill="url(#paint16_linear_1080_4300)"/>
<path d="M14.2934 55.4795C11.7457 56.3736 10.1901 58.6029 9.36944 62.4858C8.78151 65.2785 8.81826 66.2952 9.54092 67.1036L9.89613 67.5078L9.45518 68.059C8.16908 69.6758 7.98535 71.2437 8.95299 72.2113C9.55317 72.8238 9.92063 72.934 9.39394 72.3583C8.855 71.7581 8.75701 71.4519 8.8305 70.57C8.95299 69.1491 10.2146 67.5201 12.2601 66.1727C15.2855 64.1639 18.4334 63.4167 22.2795 63.7842C23.0266 63.8577 23.1246 63.8454 22.8306 63.7352C22.6102 63.6494 21.5078 63.6004 20.0747 63.5882C17.9925 63.5759 17.5515 63.6127 16.6206 63.8454C14.4771 64.3966 12.5663 65.3398 10.8515 66.7116C10.4473 67.0423 10.0676 67.3118 10.0064 67.3118C9.94513 67.3118 9.78589 67.0546 9.63891 66.7361C9.41844 66.2339 9.39394 66.0134 9.45518 65.058C9.58992 63.037 10.1656 60.7954 10.9863 59.1051C11.5742 57.8802 12.9705 56.4471 14.0852 55.9204C15.016 55.4917 16.0082 55.2835 16.7676 55.3692C17.184 55.406 17.2453 55.3937 17.0126 55.3202C16.4001 55.0997 15.1508 55.1732 14.2934 55.4795Z" fill="url(#paint17_linear_1080_4300)"/>
<path d="M74.6545 57.5128C74.3238 57.6475 73.9931 57.8067 73.9196 57.8802C73.8461 57.9537 73.9931 57.9292 74.238 57.8312C75.8303 57.1575 77.6676 58.113 78.9415 60.281C80.9013 63.6127 84.2329 73.228 85.2618 78.5195C85.764 81.104 85.5435 83.6028 84.7228 84.9134C84.4656 85.3054 84.4289 85.4278 84.5881 85.2809C84.9678 84.9501 85.4455 83.9947 85.666 83.1373C85.9232 82.1207 85.9232 79.9649 85.666 78.446C84.9433 74.1712 81.8689 64.9478 79.8234 60.8812C78.8925 59.0439 77.7044 57.77 76.6265 57.4515C75.8181 57.2188 75.3894 57.231 74.6545 57.5128Z" fill="url(#paint18_linear_1080_4300)"/>
<path d="M72.7804 59.0806C72.217 59.9013 71.9965 60.5015 71.923 61.4202C71.8005 62.841 72.1557 63.8699 74.0298 67.6181C75.7568 71.0845 76.2835 72.4686 76.8347 74.9306C77.3369 77.1967 77.4594 78.3725 77.4471 81.0305C77.4349 84.6684 77.0307 86.6527 75.9528 88.2573C75.4629 88.98 75.4506 89.0168 75.8058 88.6861C77.3369 87.2284 78.2066 82.5126 77.7656 78.0786C77.3736 74.1957 76.1978 70.5578 74.0788 66.6749C73.5276 65.6705 72.9152 64.3721 72.7069 63.7842C72.0823 61.9836 72.2047 60.1218 73.0254 58.9459C73.1479 58.7499 73.2336 58.5784 73.2091 58.5539C73.1846 58.5294 72.9886 58.7622 72.7804 59.0806Z" fill="url(#paint19_linear_1080_4300)"/>
<path d="M44.1555 61.1384C43.5553 61.4446 42.012 62.1061 40.7381 62.6083C38.3129 63.5637 36.3164 64.5191 35.6917 65.0458C35.4957 65.205 35.7652 65.0825 36.3164 64.7641C36.8553 64.4456 38.4476 63.7229 39.8685 63.1595C42.3549 62.1673 45.1231 60.8934 45.2578 60.6852C45.3436 60.5382 45.3681 60.526 44.1555 61.1384Z" fill="url(#paint20_linear_1080_4300)"/>
<path d="M29.0162 61.2732C28.465 61.9591 27.8893 63.1963 27.8281 63.8577C27.7669 64.5314 28.0118 65.3888 28.2813 65.4501C28.3915 65.4623 28.5753 65.3888 28.71 65.2786C28.8937 65.1316 28.906 65.1071 28.7467 65.1561C28.5998 65.1928 28.4895 65.0826 28.3548 64.7274C27.9628 63.7597 28.2078 62.6206 29.0652 61.4324C29.5797 60.7098 29.5552 60.624 29.0162 61.2732Z" fill="url(#paint21_linear_1080_4300)"/>
<path d="M23.3574 63.968C23.4308 63.9924 23.5778 63.9924 23.6636 63.968C23.7371 63.9314 23.6758 63.907 23.5043 63.907C23.3329 63.907 23.2716 63.9314 23.3574 63.968Z" fill="url(#paint22_linear_1080_4300)"/>
<path d="M23.9698 64.0906C24.0555 64.1272 24.1658 64.115 24.2025 64.0784C24.2515 64.0418 24.178 64.0052 24.0433 64.0174C23.9086 64.0174 23.8718 64.054 23.9698 64.0906Z" fill="url(#paint23_linear_1080_4300)"/>
<path d="M18.6049 66.4177C17.5637 66.5279 16.0327 66.8709 14.5138 67.3241C13.6197 67.5936 12.4438 67.863 11.9171 67.9243L10.9495 68.0345L12.2356 67.9855C13.3012 67.9488 13.8157 67.863 15.2365 67.4343C16.1674 67.1649 17.4413 66.8464 18.0537 66.7362C19.5235 66.4667 22.9776 66.4667 24.7292 66.7362C26.7502 67.0546 27.0809 67.0791 25.8928 66.8219C25.2926 66.6994 24.2515 66.5402 23.59 66.4667C22.4754 66.3442 19.5725 66.3197 18.6049 66.4177Z" fill="url(#paint24_linear_1080_4300)"/>
<path d="M33.3767 67.2751C33.1318 67.6058 32.8868 67.9243 32.8255 67.9978C32.5438 68.3407 31.8212 70.4475 31.6742 71.3662L31.5149 72.3951L30.6085 72.5421C29.1265 72.7993 26.1501 73.1668 24.2393 73.3382C20.9567 73.62 13.0318 73.4975 11.0108 73.1178C10.7168 73.0688 10.7168 73.0688 10.974 73.179C11.6722 73.4975 14.0239 73.62 18.9724 73.62C24.276 73.6077 25.8193 73.5097 29.5552 72.9463C30.4248 72.8115 31.1965 72.7013 31.2822 72.7013C31.3802 72.7013 31.4537 73.1423 31.5027 74.1344C31.6497 76.7557 32.0661 78.6175 33.4992 83.0026C35.214 88.2818 35.7285 90.8786 35.606 93.4876C35.5202 95.2147 35.214 96.3905 34.5036 97.7869C34.0749 98.6321 33.9769 98.9138 34.1361 98.8648C34.2464 98.8281 37.7127 98.0196 41.816 97.0642C45.9315 96.1211 49.8633 95.1412 50.5737 94.9207C54.0523 93.7815 56.1959 92.1524 57.433 89.7272C58.3394 87.9266 58.6701 86.3955 58.964 82.5004C59.1968 79.3034 59.3315 78.299 59.699 76.9027C59.9929 75.7758 60.6298 74.3671 61.1933 73.5587L61.4872 73.13L61.0708 73.5955C60.1521 74.5999 59.307 76.7067 58.964 78.8625C58.866 79.4872 58.6946 81.1162 58.5966 82.5004C58.2904 86.6282 57.9964 88.1103 57.188 89.7884C55.9019 92.4219 53.5869 93.9775 49.3121 95.0677C47.6953 95.4719 34.5036 98.5463 34.3566 98.5463C34.3076 98.5463 34.3076 98.4728 34.3811 98.3871C34.4546 98.3136 34.6996 97.8482 34.9323 97.3827C36.1694 94.9207 36.3164 91.6135 35.361 87.7184C35.165 86.91 34.5403 84.8399 33.9769 83.1128C32.7276 79.3157 32.2621 77.5641 32.0171 75.69C31.8457 74.4161 31.7722 72.5788 31.8824 72.5788C32.4703 72.5788 38.5701 71.109 38.5701 70.9742C38.5701 70.7905 38.2762 70.8395 36.2674 71.3417C35.214 71.6112 33.8789 71.9174 33.3032 72.0276C32.7276 72.1379 32.1641 72.2604 32.0416 72.2848C31.8579 72.3461 31.8334 72.2848 31.9069 71.8194C32.1764 69.9453 32.6786 68.5 33.4625 67.3363C34.0014 66.5401 33.9524 66.5034 33.3767 67.2751Z" fill="url(#paint25_linear_1080_4300)"/>
<path d="M27.1544 67.1528C27.2402 67.1894 27.3504 67.1772 27.3871 67.1406C27.4361 67.104 27.3626 67.0674 27.2279 67.0796C27.0932 67.0796 27.0564 67.1162 27.1544 67.1528Z" fill="url(#paint26_linear_1080_4300)"/>
<path d="M27.6443 67.2751C27.7301 67.3117 27.8403 67.2995 27.877 67.2629C27.926 67.2264 27.8525 67.1898 27.7178 67.202C27.5831 67.202 27.5463 67.2386 27.6443 67.2751Z" fill="url(#paint27_linear_1080_4300)"/>
<path d="M32.0783 67.7282C32.0783 67.765 32.1886 67.8507 32.3233 67.9242C32.458 67.9977 32.5683 68.0222 32.5683 67.9977C32.5683 67.961 32.458 67.8752 32.3233 67.8017C32.1886 67.7282 32.0783 67.7037 32.0783 67.7282Z" fill="url(#paint28_linear_1080_4300)"/>
<path d="M33.1195 68.3775C33.34 68.6102 36.3776 70.6435 36.4266 70.5945C36.4511 70.57 35.8632 70.1291 35.1038 69.6268C33.4992 68.549 32.948 68.1937 33.1195 68.3775Z" fill="url(#paint29_linear_1080_4300)"/>
<path d="M62.8713 71.9052C62.6631 72.0644 62.6631 72.0766 62.8468 72.0889C63.153 72.0889 64.0962 73.326 64.5984 74.3549C65.3088 75.8248 65.5293 76.9149 65.6027 79.2177C65.6395 80.3936 65.615 81.8512 65.5293 82.6474C65.2598 85.3299 64.5494 88.8698 63.741 91.6013L63.5327 92.3117L62.5773 92.7894C62.0507 93.0589 61.5852 93.3284 61.5485 93.3896C61.5117 93.4509 61.8547 93.3161 62.3201 93.0834C62.7856 92.8507 63.2265 92.6669 63.3 92.6669C63.5082 92.6669 62.0262 96.6723 61.4015 97.7992C61.1933 98.1666 61.1688 98.2769 61.3157 98.1666C61.5975 97.9217 62.3936 96.1946 63.1285 94.2103L63.7532 92.4954L64.5984 92.275C65.0761 92.1525 66.4479 91.9442 67.6605 91.8095C70.294 91.5155 71.0289 91.3808 72.1068 91.0501C73.0499 90.7684 74.2747 90.1682 74.4095 89.9477C74.4707 89.8497 74.3972 89.8619 74.2135 89.9844C73.6991 90.3151 72.315 90.8174 71.3718 91.0133C70.8819 91.1236 69.3263 91.344 67.9055 91.5033C66.4969 91.6625 64.9903 91.9075 64.5616 92.0422C63.9614 92.226 63.8022 92.2382 63.8512 92.1157C63.8879 92.0177 64.1084 91.2461 64.3411 90.3764C65.3333 86.812 65.86 83.5293 65.9702 80.4426C66.0927 76.7067 65.5905 74.6367 63.9982 72.4809C63.4102 71.6847 63.2633 71.6112 62.8713 71.9052Z" fill="url(#paint30_linear_1080_4300)"/>
<path d="M89.1935 77.956C87.4174 79.1564 87.2827 79.2666 87.8706 78.9359C88.6056 78.5194 90.4796 77.2578 90.5653 77.1108C90.6633 76.9393 90.7368 76.9026 89.1935 77.956Z" fill="url(#paint31_linear_1080_4300)"/>
<path d="M84.2574 81.79C83.1673 83.1497 82.7141 84.6808 82.9836 86.0404C83.0693 86.4568 83.2285 86.5181 83.596 86.2364C83.7552 86.1016 83.7675 86.0771 83.6327 86.1261C83.2408 86.2486 83.1428 84.7053 83.4735 83.5906C83.6695 82.9047 84.2207 81.9003 84.6616 81.4226C84.7963 81.2756 84.8821 81.1531 84.8331 81.1531C84.7841 81.1531 84.5269 81.4348 84.2574 81.79Z" fill="url(#paint32_linear_1080_4300)"/>
<path d="M40.2726 86.6282L39.9787 86.9712L40.3216 86.6772C40.5054 86.5057 40.6524 86.3587 40.6524 86.3342C40.6524 86.2362 40.5544 86.322 40.2726 86.6282Z" fill="url(#paint33_linear_1080_4300)"/>
<path d="M39.6602 87.3632C39.501 87.5592 39.5132 87.5714 39.7092 87.4122C39.9052 87.2529 39.9664 87.155 39.8684 87.155C39.8439 87.155 39.746 87.2529 39.6602 87.3632Z" fill="url(#paint34_linear_1080_4300)"/>
<path d="M59.8949 94.8104C59.2824 95.5086 58.8783 96.4395 58.8048 97.2724C58.6945 98.6688 59.209 99.4405 60.0541 99.1588C60.2868 99.0853 60.5441 98.9383 60.6298 98.8403C60.7645 98.6811 60.74 98.6688 60.4583 98.8036C59.6009 99.1955 59.0742 98.4728 59.1722 97.0152C59.2335 96.1088 59.5029 95.4474 60.0664 94.7614C60.5196 94.2347 60.3603 94.2837 59.8949 94.8104Z" fill="url(#paint35_linear_1080_4300)"/>
<path d="M55.6514 0.078036C52.9199 0.359759 49.6495 1.24167 47.3468 2.33182C46.024 2.95651 44.2969 3.93642 44.1867 4.1324C44.1377 4.20589 44.3459 4.12015 44.6399 3.93642C47.4938 2.18483 51.0704 0.947703 54.6102 0.482247C56.6802 0.200524 61.004 0.298515 63.0618 0.66598C67.753 1.4989 72.4319 3.26273 76.5352 5.73699C80.4548 8.08877 81.9736 10.1098 82.4758 13.613C82.635 14.7276 82.8187 17.7041 82.7207 17.7041C82.684 17.7041 82.4268 17.3489 82.1451 16.9324C80.8712 15.0829 78.5685 12.8291 76.4862 11.4327C72.7994 8.97069 68.9778 7.75805 63.6742 7.40283C60.5018 7.1946 57.3662 7.41508 50.2007 8.39499C42.3494 9.47289 41.8104 9.49739 41.2103 8.81145C40.8183 8.34599 40.8918 7.40284 41.3817 6.65566C41.5777 6.36168 41.639 6.20245 41.5165 6.30044C41.2103 6.55767 40.6958 7.47633 40.5856 7.97853C40.3651 8.93394 41.0265 9.61987 42.1289 9.61987C42.8883 9.61987 45.828 9.26466 50.262 8.65222C56.227 7.8193 57.2069 7.73355 61.102 7.7213C64.9358 7.7213 66.1239 7.84379 68.7573 8.46848C73.8405 9.70562 78.495 12.8046 81.6061 17.0304C82.9535 18.8555 82.8677 18.6105 82.733 20.2519C82.4758 23.1181 81.6919 25.0289 80.1608 26.4375C78.4092 28.0666 75.9718 28.3238 73.4241 27.1357C71.7582 26.3518 70.5089 25.2739 68.1327 22.5914C64.4703 18.439 62.7923 17.2386 59.2524 16.2832C58.1746 15.9893 57.8194 15.9525 56.0188 15.9403C54.2918 15.9403 53.8386 15.977 52.8954 16.2097C51.7196 16.516 49.3433 17.6061 48.7309 18.1328C48.5227 18.3043 48.7431 18.2063 49.2698 17.9001C51.0826 16.7977 53.2016 16.222 55.4676 16.2097C57.7336 16.1975 59.6566 16.6385 61.6532 17.6429C63.7354 18.684 64.85 19.6149 67.3488 22.4199C69.4923 24.8084 70.7294 26.0211 71.7215 26.6825C74.1835 28.3116 76.5842 28.6301 78.642 27.6257C79.4749 27.2092 80.9692 25.9108 81.3489 25.2616C81.7041 24.6492 83.5659 23.8653 85.3542 23.5713C86.7383 23.3508 89.335 23.4978 90.8783 23.8775C94.5284 24.7839 97.8233 26.8172 100.42 29.7814C103.188 32.9539 104.866 36.9103 105.087 40.8299L105.172 42.1405L104.756 41.7608C102.919 40.0582 100.199 38.7231 97.4068 38.1596C95.8145 37.8289 93.3525 37.8044 92.3481 38.0862C91.9562 38.2086 91.65 38.3189 91.6745 38.3434C91.699 38.3556 92.2624 38.3189 92.9238 38.2454C95.1653 38.0127 98.007 38.4781 100.322 39.4825C101.584 40.0215 103.139 41.0014 104.315 42.0058C105.038 42.6182 105.172 42.6917 105.344 42.557C105.515 42.41 105.528 42.165 105.466 40.7931C105.246 36.1876 103.237 31.827 99.734 28.3728C98.3009 26.952 96.7086 25.8251 94.9081 24.9309C93.2668 24.1347 92.3359 23.7918 90.8048 23.4488C89.5432 23.1671 87.0935 23.0323 86.1136 23.1916C85.4889 23.2896 85.3909 23.2773 85.3297 23.1058C84.9132 21.9054 84.2028 20.2641 83.7251 19.4067L83.1372 18.3655L83.1004 17.0794C83.0637 15.1563 82.8677 13.2333 82.5983 12.0819C81.8266 8.86045 79.8546 6.88838 74.7469 4.24264C70.7049 2.14809 66.8466 0.87421 62.7555 0.24952C61.1755 0.0167919 57.2192 -0.0811988 55.6514 0.078036ZM83.7619 20.5213C84.2641 21.5257 84.9255 23.1181 84.9255 23.3386C84.9255 23.3876 84.6315 23.4855 84.2763 23.5713C83.9089 23.6448 83.1984 23.9265 82.6962 24.1715L81.7776 24.6369L82.1206 23.902C82.5615 22.9588 82.929 21.5257 83.0392 20.3376C83.0882 19.8354 83.1372 19.4189 83.1617 19.4189C83.1862 19.4189 83.4557 19.9089 83.7619 20.5213Z" fill="url(#paint36_linear_1080_4300)"/>
<path d="M15.231 1.8051C14.7288 1.85409 13.9326 2.01333 13.4549 2.14807C12.426 2.45429 10.5275 3.37295 10.0253 3.81391L9.65786 4.13238L10.0253 3.8874C10.2335 3.75266 10.7847 3.44644 11.2747 3.20147C16.4068 0.629212 22.7271 2.57678 25.1891 7.47631C25.4463 7.99076 26.0097 9.6076 26.0097 9.84033C26.0097 9.87708 25.6055 9.52186 25.1278 9.05641C21.3553 5.43075 16.1864 4.26711 11.3604 5.95745C10.1478 6.37391 8.56773 7.17009 8.04104 7.62329L7.69808 7.92951L8.07779 7.67229C8.8372 7.17009 10.7725 6.31267 11.8136 6.0187C15.035 5.10003 18.1951 5.40626 21.294 6.92511C22.8496 7.68454 24.4664 8.90942 25.4708 10.0853C26.2424 10.9795 26.2547 11.0162 26.2424 11.6899C26.2424 12.0696 26.2669 12.4983 26.3037 12.6453C26.4139 13.172 26.1322 16.1117 25.6913 18.7452C25.4463 20.2273 25.2258 21.4645 25.2013 21.489C25.1033 21.5992 25.0421 21.4032 24.9074 20.5948C24.3072 16.7977 21.5022 14.0907 17.8032 13.7232C16.7498 13.613 14.986 13.9192 13.8101 14.4091C13.3079 14.6174 12.8792 14.8256 12.8425 14.8868C12.818 14.9358 13.1242 14.8501 13.5284 14.6786C17.6439 13.0128 22.0412 14.7031 23.8907 18.6472C24.1112 19.1249 24.2949 19.5904 24.2949 19.6639C24.2949 19.7374 24.0622 19.6026 23.7805 19.3699C21.9432 17.8266 21.3308 17.4714 19.9834 17.1529C18.881 16.8957 17.1785 16.9202 16.0516 17.2019C14.6308 17.5693 13.4304 18.096 10.7847 19.5047C9.44963 20.2151 8.33501 20.7785 8.31051 20.7418C8.22477 20.656 9.20466 18.7085 9.7191 17.9368C10.0131 17.5081 10.4908 16.8712 10.8092 16.5404L11.3727 15.928L10.7235 16.5404C9.93957 17.2754 9.21691 18.341 8.45749 19.8599L7.89406 20.9868L6.99991 21.293C5.67706 21.7584 5.24836 21.8564 3.98676 21.9422C3.32533 21.9912 2.81089 22.0892 2.7374 22.1749C2.50468 22.4566 4.70942 24.1225 5.98328 24.6492C6.36298 24.7962 6.52222 24.9309 6.49772 25.0534C6.46097 25.1514 6.13026 26.2293 5.75055 27.4419C2.90888 36.604 1.56154 44.0023 1.4268 51.2781C1.29207 58.5049 2.13722 63.6372 4.4767 69.6391C4.8809 70.6803 5.59132 72.5053 6.04452 73.6812C6.92642 75.9473 7.47761 77.7111 7.84506 79.4382C8.07779 80.5406 8.10228 82.0839 7.99205 88.9923C7.9553 91.9075 7.96755 92.1769 8.21252 93.0589C8.75146 94.9452 9.64561 96.3661 10.9807 97.4194C15.133 100.727 22.0657 100.861 28.2757 97.7869C29.1454 97.346 31.0316 96.2313 31.0316 96.1456C31.0316 96.1088 30.7989 96.2313 30.5172 96.4028C29.2923 97.15 26.9774 98.2279 25.6423 98.6811C23.6825 99.3303 21.735 99.6487 19.6405 99.6487C16.9703 99.6487 15.035 99.2323 13.0017 98.2156C12.0953 97.7624 11.6544 97.4439 10.797 96.5988C9.92732 95.7291 9.64561 95.3616 9.2414 94.5042C8.4085 92.7526 8.31051 92.226 8.31051 89.2985C8.31051 87.8776 8.3595 85.5381 8.42075 84.0927C8.60448 79.7199 8.20027 77.8948 5.61582 71.3539C2.7864 64.1761 1.92899 60.1218 1.79426 53.3849C1.68402 47.4075 2.17397 42.8264 3.65605 36.1998C4.40321 32.8314 6.49772 25.4331 6.77944 25.1269C6.84068 25.0779 7.14689 25.1146 7.47761 25.2249C10.2335 26.1435 14.1041 26.2415 19.175 25.5433C21.5022 25.2126 22.1514 25.0779 22.9108 24.7349C23.6212 24.4287 23.8172 24.2205 23.1436 24.5022C22.9231 24.6002 22.5434 24.6982 22.3229 24.7349C22.0902 24.7717 21.637 24.8574 21.294 24.9309C20.2529 25.1514 19.371 24.8084 18.5626 23.8897C17.5704 22.7628 17.4112 21.2562 18.1829 20.1661C18.5503 19.6271 18.5503 19.6149 18.2319 19.9089C16.811 21.2195 17.154 23.7428 18.93 24.8451L19.5547 25.2371L18.8933 25.3229C15.7822 25.7148 12.2791 25.7883 10.3928 25.4943C9.10667 25.2984 7.36737 24.8451 7.0979 24.6492C6.93867 24.5267 6.97541 24.3429 7.34287 23.2773C8.18802 20.7785 7.77157 21.2072 10.8582 19.6149C12.3525 18.8432 14.0796 18.047 14.6798 17.8388C17.252 16.9936 19.5425 17.0671 21.2328 18.0593L21.784 18.3778L21.0245 18.4513C20.3631 18.5125 18.7953 19.1127 18.9423 19.2474C18.9668 19.2719 19.2118 19.1862 19.4812 19.0515C20.7061 18.4635 22.2739 18.6717 22.8006 19.4924C23.2415 20.1783 23.4375 20.8398 23.4375 21.6849C23.4375 22.6649 23.1803 23.4855 22.6904 24.1225L22.2984 24.6247L22.6904 24.2572C23.3273 23.6693 23.7192 22.7261 23.7805 21.6237C23.8172 21.0725 23.7805 20.4968 23.6947 20.2641C23.4865 19.6639 23.5968 19.7129 24.1112 20.4478C24.5644 21.1093 24.5766 21.1338 24.5154 22.0892C24.4786 22.7751 24.3807 23.2161 24.1847 23.5958C23.9765 23.9877 23.952 24.0735 24.1112 23.951C24.3317 23.7672 24.6501 23.2038 24.7971 22.7261C24.8706 22.4811 24.8829 22.5424 24.8951 23.0201C24.9073 23.5345 24.9318 23.5958 25.0911 23.461C25.1891 23.3753 25.2748 23.2161 25.2748 23.0936C25.2748 22.9711 25.5198 21.5135 25.826 19.8354C26.1322 18.1573 26.4507 16.173 26.5242 15.438C26.7201 13.7477 26.8304 14.1397 26.8549 16.5527C26.8794 19.2842 26.4139 21.3297 25.2258 23.6693C24.2949 25.5433 23.0823 26.9887 20.4979 29.3527C17.7909 31.827 16.811 32.8069 15.9536 33.9215C13.7121 36.7878 13.3692 39.2008 14.594 43.1326C14.9125 44.1615 14.9247 44.2595 14.7778 44.8352C14.5328 45.7539 14.4471 47.5545 14.6063 48.4609C14.8268 49.796 15.084 50.4942 15.3534 50.5677C16.0761 50.7514 16.2966 47.383 15.6842 45.3864L15.3779 44.3453L15.6719 43.7328C16.2109 42.6549 17.154 41.8465 17.8889 41.822L18.2319 41.8098L17.8889 41.6873C17.2152 41.4423 15.9046 42.2507 15.4024 43.2061C15.3045 43.4021 15.2065 43.5491 15.1697 43.5491C15.0962 43.5491 14.6798 42.067 14.5083 41.2218C14.3246 40.3399 14.3246 38.4781 14.5083 37.7187C14.7165 36.8368 15.4882 35.2689 16.1129 34.4115C16.9703 33.2723 18.0114 32.2067 20.4856 29.9529C22.8128 27.8339 23.5845 27.0377 24.5521 25.7148C25.6668 24.2082 26.5977 22.0279 27.0631 19.9089C27.3816 18.4635 27.3816 15.2176 27.0631 13.9069C26.9406 13.4047 26.8181 12.7066 26.7814 12.3758L26.7201 11.7634L26.9774 12.1676C27.2223 12.5596 27.4796 12.6331 27.5653 12.3636C27.5898 12.2901 27.3816 11.8981 27.1121 11.4694C26.7569 10.9182 26.5609 10.4528 26.4507 9.82808C25.8382 6.65564 23.9275 4.18137 21.0368 2.8095C19.224 1.93984 17.1785 1.58462 15.231 1.8051ZM7.58784 21.9422C7.42861 22.3341 7.17139 23.0691 7.01216 23.559C6.77944 24.3062 6.6937 24.4409 6.49772 24.3919C6.05677 24.2817 4.4522 23.2895 3.87652 22.7751L3.28859 22.2484L3.85202 22.2361C4.5257 22.2361 6.49772 21.7462 7.26938 21.4032C7.56335 21.2562 7.83282 21.1582 7.84506 21.1827C7.86956 21.195 7.74707 21.538 7.58784 21.9422ZM15.4759 46.2806C15.7209 47.4932 15.6474 49.796 15.3657 49.796C15.0717 49.796 14.8635 46.9175 15.0717 45.7049C15.1575 45.1415 15.2677 45.2884 15.4759 46.2806Z" fill="url(#paint37_linear_1080_4300)"/>
<path d="M6.77948 7.0109C5.88533 8.21129 4.44 11.1878 5.19941 10.2813C5.28515 10.1711 5.45663 9.80364 5.57912 9.46067C5.82409 8.77473 6.6325 7.35387 7.17144 6.64344C7.37966 6.39846 7.50215 6.19023 7.4654 6.19023C7.42866 6.19023 7.11019 6.5577 6.77948 7.0109Z" fill="url(#paint38_linear_1080_4300)"/>
<path d="M7.37964 8.11318C7.22041 8.30916 7.23266 8.32141 7.42863 8.16217C7.53887 8.07643 7.63686 7.97844 7.63686 7.95394C7.63686 7.85595 7.53887 7.91719 7.37964 8.11318Z" fill="url(#paint39_linear_1080_4300)"/>
<path d="M46.1341 20.4846C45.0195 21.8319 44.0886 23.5713 43.7334 24.9799C43.5129 25.8005 43.3659 25.7638 45.0073 25.3228C48.0449 24.5144 53.1648 24.7104 55.6758 25.727C56.5577 26.0823 57.8193 26.9764 58.248 27.5276C59.0074 28.532 59.2034 29.4997 58.7992 30.3081C58.5052 30.8838 58.6277 30.9206 58.9706 30.3694C59.1544 30.0754 59.2769 29.6467 59.3014 29.1935C59.4239 27.5521 58.0275 26.0823 55.541 25.2371C54.0345 24.7226 52.4789 24.5267 50.0782 24.5144C47.8489 24.5022 46.9915 24.6002 45.0195 25.0779C44.4561 25.2126 43.9784 25.2983 43.9416 25.2738C43.8559 25.1759 44.6031 23.118 44.995 22.3831C45.2032 21.9912 45.6687 21.2807 46.0361 20.7908C46.7955 19.7864 46.8445 19.6271 46.1341 20.4846Z" fill="url(#paint40_linear_1080_4300)"/>
<path d="M41.6022 27.1235C40.9407 27.4297 40.9285 27.5032 41.5777 27.3317C42.1778 27.1725 42.7535 27.3562 45.8524 28.7649C47.8612 29.6713 51.3643 31.0921 52.5156 31.4841C53.4833 31.8026 54.7571 32.0353 55.5288 32.0353C56.3372 32.0353 57.7458 31.6433 57.9908 31.3371C58.1378 31.1656 58.101 31.1779 57.7335 31.3616C57.1089 31.6923 55.3206 31.7536 54.0957 31.4841C52.5279 31.1411 49.3923 29.904 45.044 27.9319C42.7413 26.8908 42.3248 26.7928 41.6022 27.1235Z" fill="url(#paint41_linear_1080_4300)"/>
<path d="M40.2426 28.3851C39.7527 29.1077 36.0781 35.2689 33.8978 39.0415C32.9179 40.7441 32.036 42.214 31.9626 42.312C31.7911 42.5324 31.6563 42.5569 36.5435 41.479C46.4281 39.2865 47.408 39.115 50.017 39.1028C52.5279 39.1028 54.7449 39.6295 55.6023 40.4257C56.0188 40.8299 56.0433 40.8911 55.982 41.4301L55.9208 42.0058L56.1535 41.6995C56.4842 41.2831 56.4475 40.7074 56.08 40.2542C55.3696 39.409 53.5201 38.8945 50.9356 38.7966C48.2899 38.7108 47.2978 38.8823 34.302 41.724C33.3099 41.9323 32.4647 42.0915 32.428 42.0547C32.3545 41.969 36.519 34.7789 39.275 30.2591C39.8139 29.3772 40.3528 28.483 40.4876 28.2626C40.8305 27.6869 40.6591 27.7849 40.2426 28.3851Z" fill="url(#paint42_linear_1080_4300)"/>
<path d="M77.1353 29.1201L76.9026 29.4018L77.1843 29.1691C77.4415 28.9486 77.515 28.8506 77.417 28.8506C77.3926 28.8506 77.2701 28.9731 77.1353 29.1201Z" fill="url(#paint43_linear_1080_4300)"/>
<path d="M76.1432 30.4061C73.5832 33.8848 71.4152 37.5227 65.5114 48.3262C54.5856 68.2917 49.8699 75.8493 42.8515 84.5827C42.1288 85.4891 41.6144 86.1628 41.7369 86.0648C42.3248 85.5748 46.5506 80.0506 48.7186 76.9517C53.52 70.0678 56.9129 64.3476 65.5726 48.5711C70.3863 39.801 71.403 37.9759 72.7993 35.6976C73.8282 34.0318 75.543 31.4473 76.4616 30.1612C76.7433 29.7814 76.9516 29.463 76.9148 29.463C76.8781 29.463 76.5351 29.8917 76.1432 30.4061Z" fill="url(#paint44_linear_1080_4300)"/>
<path d="M90.7313 39.3233C90.4863 39.9235 90.5108 40.2297 90.8783 40.9646C91.2457 41.6873 91.9072 42.2508 92.6911 42.4713C92.9973 42.557 93.9772 42.606 95.2633 42.5815C96.4391 42.5692 97.615 42.6182 98.0192 42.704C100.714 43.2429 103.274 45.8519 104.254 49.0734C105.111 51.8539 104.878 55.3203 103.605 59.0439C103.09 60.5505 101.657 64.0537 101.375 64.4946C101.179 64.7886 101.179 64.7886 101.4 64.6171C101.914 64.2007 103.776 59.6441 104.45 57.1331C105.148 54.5241 105.332 51.8661 104.94 49.943C104.364 47.1625 102.833 44.774 100.738 43.4022C99.2686 42.4468 98.6439 42.2998 95.7655 42.263C94.3446 42.2508 93.132 42.1773 92.8748 42.1038C91.7969 41.7486 90.866 40.4624 90.9518 39.4458C90.9763 39.1396 90.9763 38.8946 90.9518 38.8946C90.9273 38.8946 90.8293 39.0906 90.7313 39.3233Z" fill="url(#paint45_linear_1080_4300)"/>
<path d="M25.434 41.8219C24.3807 42.1771 23.5723 42.8998 22.6659 44.2594C21.8452 45.5211 21.343 45.9988 20.8408 46.011H20.5591L20.8286 46.1458C21.4778 46.4642 22.0902 45.9988 23.1436 44.3942C24.001 43.0836 24.5154 42.6181 25.6055 42.1159C26.1812 41.8464 26.4997 41.7852 27.2591 41.7729C27.7735 41.7729 28.1042 41.7362 27.994 41.6872C27.5775 41.528 26.071 41.6014 25.434 41.8219Z" fill="url(#paint46_linear_1080_4300)"/>
<path d="M18.5013 42.1038C18.881 42.5325 18.9912 42.802 19.1995 43.8554C19.2975 44.3943 19.4199 44.9455 19.4689 45.0803C19.5669 45.362 20.1304 45.9989 20.2773 45.9989C20.3386 45.9989 20.2651 45.8519 20.1304 45.656C19.9956 45.4722 19.7997 44.8843 19.7017 44.3453C19.4444 42.9735 19.3097 42.6182 18.881 42.2018C18.4646 41.7731 18.1216 41.6996 18.5013 42.1038Z" fill="url(#paint47_linear_1080_4300)"/>
<path d="M29.3046 42.5446C30.0028 43.2428 30.2967 44.0022 30.2967 45.0679C30.2845 46.599 29.5618 47.4197 27.6388 48.0811C25.1646 48.914 24.7236 49.453 23.9765 52.5887C23.266 55.5529 22.8006 56.2388 21.3798 56.3981L20.6816 56.4838L21.1715 56.5573C21.441 56.6063 21.8575 56.6063 22.0902 56.545C23.3763 56.2511 23.805 55.5529 24.4297 52.7969C24.8706 50.8126 25.1033 50.2369 25.7158 49.551C26.267 48.9508 26.4874 48.8283 28.043 48.2771C30.1865 47.5054 30.7254 46.8807 30.7254 45.2026C30.7254 44.4187 30.6642 44.1125 30.4315 43.6715C30.1008 43.0223 29.5128 42.3731 29.0474 42.1282C28.8024 42.0057 28.8637 42.1037 29.3046 42.5446Z" fill="url(#paint48_linear_1080_4300)"/>
<path d="M53.5078 43.5736C52.5157 44.1983 50.2987 45.2027 49.0371 45.6069C47.5673 46.0723 46.1954 46.3663 42.9618 46.9053C38.8463 47.6034 37.1682 48.1179 35.4412 49.2325C34.9757 49.5387 34.5838 49.8205 34.5838 49.8572C34.5838 49.894 34.8165 49.7715 35.1105 49.5755C36.7518 48.4486 38.8585 47.7994 43.1823 47.1012C47.1386 46.4643 49.0126 45.9621 51.1929 44.9699C52.0748 44.5535 53.5568 43.7206 53.9978 43.3776C54.402 43.0591 54.157 43.1571 53.5078 43.5736Z" fill="url(#paint49_linear_1080_4300)"/>
<path d="M85.3664 49.1957C83.823 49.5632 83.0514 51.033 83.6883 52.4416C84.0435 53.2256 84.5825 53.74 86.628 55.2711C91.2089 58.713 93.8791 62.302 94.7978 66.2706C95.1162 67.6057 95.1162 70.5822 94.81 71.7213C94.2833 73.6444 93.5974 74.9305 92.4216 76.1921C91.9316 76.7188 91.9806 76.6821 92.593 76.0696C96.2676 72.3827 96.3901 66.2093 92.8993 60.9301C91.5274 58.8478 89.5554 56.8635 86.9464 54.9282C86.2115 54.3892 85.3419 53.691 85.0234 53.3848C83.5413 51.9394 83.3698 50.1511 84.6804 49.6244C85.8196 49.1712 87.5466 49.5877 89.5309 50.7758C94.2833 53.6175 97.6762 58.0761 99.195 63.4288C99.6482 65.0702 99.9054 65.4254 100.469 65.2907C100.64 65.2539 100.861 65.1437 100.947 65.0579C101.081 64.9354 101.045 64.9109 100.763 64.9477C100.236 65.0334 100.016 64.6782 99.538 63.0614C98.3866 59.1418 96.5861 56.1653 93.6954 53.3726C91.5642 51.327 89.0409 49.7224 87.1914 49.2447C86.383 49.0365 86.0768 49.0365 85.3664 49.1957Z" fill="url(#paint50_linear_1080_4300)"/>
<path d="M32.9302 51.5966C32.2688 52.4662 31.5584 54.0218 31.2276 55.3325C30.8234 56.8881 30.6765 58.4436 30.6275 61.3099C30.5907 63.4534 30.5662 63.7596 30.3212 64.2986C30.1375 64.7028 30.113 64.8375 30.2355 64.7395C30.3335 64.6661 30.5295 64.2863 30.6765 63.9066C30.8969 63.3187 30.9459 62.89 30.9827 61.1874C31.0439 58.2722 31.1297 57.1085 31.3991 55.7734C31.7176 54.2546 32.2443 52.8582 32.9179 51.8415C33.2119 51.3883 33.4324 51.0209 33.4079 51.0209C33.3956 51.0209 33.1752 51.2781 32.9302 51.5966Z" fill="url(#paint51_linear_1080_4300)"/>
<path d="M44.1744 54.8792C41.4429 55.2222 38.5768 56.0061 36.176 57.084C35.0124 57.5862 32.4402 59.0193 32.3177 59.2276C32.2932 59.2766 32.8689 58.9704 33.6161 58.5416C35.9556 57.2065 38.6748 56.1776 41.2715 55.6264C45.1298 54.818 47.3345 54.916 48.4001 55.9449C49.0861 56.6186 49.1351 57.4637 48.5594 58.4314C48.4124 58.6764 48.3511 58.8356 48.4246 58.7989C48.6084 58.6886 49.1595 57.7087 49.282 57.2555C49.4413 56.7166 49.2453 56.0551 48.8288 55.6509C47.9714 54.8302 46.5016 54.5853 44.1744 54.8792Z" fill="url(#paint52_linear_1080_4300)"/>
<path d="M15.2064 55.4795C12.6587 56.3736 11.1032 58.6029 10.2825 62.4858C9.69458 65.2785 9.73133 66.2952 10.454 67.1036L10.8092 67.5078L10.3683 68.059C9.08215 69.6758 8.89842 71.2437 9.86606 72.2113C10.4662 72.8238 10.8337 72.934 10.307 72.3583C9.76807 71.7581 9.67008 71.4519 9.74358 70.57C9.86606 69.1491 11.1277 67.5201 13.1732 66.1727C16.1986 64.1639 19.3465 63.4167 23.1925 63.7842C23.9397 63.8577 24.0377 63.8454 23.7437 63.7352C23.5232 63.6494 22.4209 63.6004 20.9878 63.5882C18.9055 63.5759 18.4646 63.6127 17.5337 63.8454C15.3902 64.3966 13.4794 65.3398 11.7646 66.7116C11.3604 67.0423 10.9807 67.3118 10.9194 67.3118C10.8582 67.3118 10.699 67.0546 10.552 66.7361C10.3315 66.2339 10.307 66.0134 10.3683 65.058C10.503 63.037 11.0787 60.7954 11.8993 59.1051C12.4873 57.8802 13.8836 56.4471 14.9982 55.9204C15.9291 55.4917 16.9212 55.2835 17.6807 55.3692C18.0971 55.406 18.1584 55.3937 17.9256 55.3202C17.3132 55.0997 16.0638 55.1732 15.2064 55.4795Z" fill="url(#paint53_linear_1080_4300)"/>
<path d="M75.5676 57.5128C75.2368 57.6475 74.9061 57.8067 74.8326 57.8802C74.7591 57.9537 74.9061 57.9292 75.1511 57.8312C76.7434 57.1575 78.5807 58.113 79.8546 60.281C81.8143 63.6127 85.146 73.228 86.1748 78.5195C86.677 81.104 86.4566 83.6028 85.6359 84.9134C85.3787 85.3054 85.3419 85.4278 85.5012 85.2809C85.8809 84.9501 86.3586 83.9947 86.579 83.1373C86.8363 82.1207 86.8363 79.9649 86.579 78.446C85.8564 74.1712 82.782 64.9478 80.7365 60.8812C79.8056 59.0439 78.6174 57.77 77.5396 57.4515C76.7312 57.2188 76.3025 57.231 75.5676 57.5128Z" fill="url(#paint54_linear_1080_4300)"/>
<path d="M73.6935 59.0806C73.1301 59.9013 72.9096 60.5015 72.8361 61.4202C72.7136 62.841 73.0688 63.8699 74.9428 67.6181C76.6699 71.0845 77.1966 72.4686 77.7478 74.9306C78.25 77.1967 78.3725 78.3725 78.3602 81.0305C78.348 84.6684 77.9437 86.6527 76.8659 88.2573C76.3759 88.98 76.3637 89.0168 76.7189 88.6861C78.25 87.2284 79.1196 82.5126 78.6787 78.0786C78.2867 74.1957 77.1108 70.5578 74.9918 66.6749C74.4407 65.6705 73.8282 64.3721 73.62 63.7842C72.9953 61.9836 73.1178 60.1218 73.9385 58.9459C74.061 58.7499 74.1467 58.5784 74.1222 58.5539C74.0977 58.5294 73.9017 58.7622 73.6935 59.0806Z" fill="url(#paint55_linear_1080_4300)"/>
<path d="M45.0685 61.1384C44.4683 61.4446 42.925 62.1061 41.6512 62.6083C39.2259 63.5637 37.2294 64.5191 36.6047 65.0458C36.4088 65.205 36.6782 65.0825 37.2294 64.7641C37.7684 64.4456 39.3607 63.7229 40.7815 63.1595C43.268 62.1673 46.0362 60.8934 46.1709 60.6852C46.2566 60.5382 46.2811 60.526 45.0685 61.1384Z" fill="url(#paint56_linear_1080_4300)"/>
<path d="M29.9293 61.2732C29.3781 61.9591 28.8024 63.1963 28.7412 63.8577C28.6799 64.5314 28.9249 65.3888 29.1944 65.4501C29.3046 65.4623 29.4883 65.3888 29.6231 65.2786C29.8068 65.1316 29.8191 65.1071 29.6598 65.1561C29.5128 65.1928 29.4026 65.0826 29.2679 64.7274C28.8759 63.7597 29.1209 62.6206 29.9783 61.4324C30.4927 60.7098 30.4682 60.624 29.9293 61.2732Z" fill="url(#paint57_linear_1080_4300)"/>
<path d="M24.2704 63.968C24.3439 63.9924 24.4909 63.9924 24.5766 63.968C24.6501 63.9314 24.5889 63.907 24.4174 63.907C24.2459 63.907 24.1847 63.9314 24.2704 63.968Z" fill="url(#paint58_linear_1080_4300)"/>
<path d="M24.8829 64.0906C24.9686 64.1272 25.0789 64.115 25.1156 64.0784C25.1646 64.0418 25.0911 64.0052 24.9564 64.0174C24.8216 64.0174 24.7849 64.054 24.8829 64.0906Z" fill="url(#paint59_linear_1080_4300)"/>
<path d="M19.5179 66.4177C18.4768 66.5279 16.9457 66.8709 15.4269 67.3241C14.5328 67.5936 13.3569 67.863 12.8302 67.9243L11.8626 68.0345L13.1487 67.9855C14.2143 67.9488 14.7287 67.863 16.1496 67.4343C17.0805 67.1649 18.3543 66.8464 18.9668 66.7362C20.4366 66.4667 23.8907 66.4667 25.6422 66.7362C27.6633 67.0546 27.994 67.0791 26.8059 66.8219C26.2057 66.6994 25.1645 66.5402 24.5031 66.4667C23.3885 66.3442 20.4856 66.3197 19.5179 66.4177Z" fill="url(#paint60_linear_1080_4300)"/>
<path d="M34.2898 67.2751C34.0448 67.6058 33.7999 67.9243 33.7386 67.9978C33.4569 68.3407 32.7342 70.4475 32.5872 71.3662L32.428 72.3951L31.5216 72.5421C30.0395 72.7993 27.0631 73.1668 25.1523 73.3382C21.8697 73.62 13.9449 73.4975 11.9239 73.1178C11.6299 73.0688 11.6299 73.0688 11.8871 73.179C12.5853 73.4975 14.937 73.62 19.8855 73.62C25.1891 73.6077 26.7324 73.5097 30.4682 72.9463C31.3379 72.8115 32.1095 72.7013 32.1953 72.7013C32.2933 72.7013 32.3668 73.1423 32.4158 74.1344C32.5627 76.7557 32.9792 78.6175 34.4123 83.0026C36.1271 88.2818 36.6415 90.8786 36.519 93.4876C36.4333 95.2147 36.1271 96.3905 35.4167 97.7869C34.988 98.6321 34.89 98.9138 35.0492 98.8648C35.1594 98.8281 38.6258 98.0196 42.7291 97.0642C46.8446 96.1211 50.7764 95.1412 51.4868 94.9207C54.9654 93.7815 57.1089 92.1524 58.346 89.7272C59.2524 87.9266 59.5831 86.3955 59.8771 82.5004C60.1098 79.3034 60.2446 78.299 60.612 76.9027C60.906 75.7758 61.5429 74.3671 62.1063 73.5587L62.4003 73.13L61.9839 73.5955C61.0652 74.5999 60.2201 76.7067 59.8771 78.8625C59.7791 79.4872 59.6076 81.1162 59.5097 82.5004C59.2034 86.6282 58.9095 88.1103 58.1011 89.7884C56.815 92.4219 54.5 93.9775 50.2252 95.0677C48.6084 95.4719 35.4167 98.5463 35.2697 98.5463C35.2207 98.5463 35.2207 98.4728 35.2942 98.3871C35.3677 98.3136 35.6126 97.8482 35.8454 97.3827C37.0825 94.9207 37.2295 91.6135 36.2741 87.7184C36.0781 86.91 35.4534 84.8399 34.89 83.1128C33.6406 79.3157 33.1752 77.5641 32.9302 75.69C32.7587 74.4161 32.6852 72.5788 32.7955 72.5788C33.3834 72.5788 39.4832 71.109 39.4832 70.9742C39.4832 70.7905 39.1892 70.8395 37.1805 71.3417C36.1271 71.6112 34.792 71.9174 34.2163 72.0276C33.6406 72.1379 33.0772 72.2604 32.9547 72.2848C32.771 72.3461 32.7465 72.2848 32.82 71.8194C33.0894 69.9453 33.5916 68.5 34.3755 67.3363C34.9145 66.5401 34.8655 66.5034 34.2898 67.2751Z" fill="url(#paint61_linear_1080_4300)"/>
<path d="M28.0675 67.1528C28.1532 67.1894 28.2635 67.1772 28.3002 67.1406C28.3492 67.104 28.2757 67.0674 28.141 67.0796C28.0062 67.0796 27.9695 67.1162 28.0675 67.1528Z" fill="url(#paint62_linear_1080_4300)"/>
<path d="M28.5574 67.2751C28.6431 67.3117 28.7534 67.2995 28.7901 67.2629C28.8391 67.2264 28.7656 67.1898 28.6309 67.202C28.4961 67.202 28.4594 67.2386 28.5574 67.2751Z" fill="url(#paint63_linear_1080_4300)"/>
<path d="M32.9914 67.7282C32.9914 67.765 33.1016 67.8507 33.2364 67.9242C33.3711 67.9977 33.4813 68.0222 33.4813 67.9977C33.4813 67.961 33.3711 67.8752 33.2364 67.8017C33.1016 67.7282 32.9914 67.7037 32.9914 67.7282Z" fill="url(#paint64_linear_1080_4300)"/>
<path d="M34.0326 68.3775C34.253 68.6102 37.2907 70.6435 37.3397 70.5945C37.3642 70.57 36.7762 70.1291 36.0168 69.6268C34.4123 68.549 33.8611 68.1937 34.0326 68.3775Z" fill="url(#paint65_linear_1080_4300)"/>
<path d="M63.7844 71.9052C63.5762 72.0644 63.5762 72.0766 63.7599 72.0889C64.0661 72.0889 65.0092 73.326 65.5114 74.3549C66.2218 75.8248 66.4423 76.9149 66.5158 79.2177C66.5526 80.3936 66.5281 81.8512 66.4423 82.6474C66.1729 85.3299 65.4624 88.8698 64.654 91.6013L64.4458 92.3117L63.4904 92.7894C62.9637 93.0589 62.4983 93.3284 62.4615 93.3896C62.4248 93.4509 62.7677 93.3161 63.2332 93.0834C63.6986 92.8507 64.1396 92.6669 64.2131 92.6669C64.4213 92.6669 62.9392 96.6723 62.3146 97.7992C62.1063 98.1666 62.0818 98.2769 62.2288 98.1666C62.5105 97.9217 63.3067 96.1946 64.0416 94.2103L64.6663 92.4954L65.5114 92.275C65.9891 92.1525 67.361 91.9442 68.5736 91.8095C71.207 91.5155 71.9419 91.3808 73.0198 91.0501C73.963 90.7684 75.1878 90.1682 75.3226 89.9477C75.3838 89.8497 75.3103 89.8619 75.1266 89.9844C74.6121 90.3151 73.228 90.8174 72.2849 91.0133C71.795 91.1236 70.2394 91.344 68.8186 91.5033C67.41 91.6625 65.9034 91.9075 65.4747 92.0422C64.8745 92.226 64.7153 92.2382 64.7643 92.1157C64.801 92.0177 65.0215 91.2461 65.2542 90.3764C66.2463 86.812 66.773 83.5293 66.8833 80.4426C67.0058 76.7067 66.5036 74.6367 64.9112 72.4809C64.3233 71.6847 64.1763 71.6112 63.7844 71.9052Z" fill="url(#paint66_linear_1080_4300)"/>
<path d="M90.1066 77.956C88.3305 79.1564 88.1958 79.2666 88.7837 78.9359C89.5186 78.5194 91.3927 77.2578 91.4784 77.1108C91.5764 76.9393 91.6499 76.9026 90.1066 77.956Z" fill="url(#paint67_linear_1080_4300)"/>
<path d="M85.1705 81.79C84.0804 83.1497 83.6272 84.6808 83.8966 86.0404C83.9824 86.4568 84.1416 86.5181 84.5091 86.2364C84.6683 86.1016 84.6805 86.0771 84.5458 86.1261C84.1538 86.2486 84.0559 84.7053 84.3866 83.5906C84.5825 82.9047 85.1337 81.9003 85.5747 81.4226C85.7094 81.2756 85.7952 81.1531 85.7462 81.1531C85.6972 81.1531 85.4399 81.4348 85.1705 81.79Z" fill="url(#paint68_linear_1080_4300)"/>
<path d="M41.1857 86.6282L40.8918 86.9712L41.2347 86.6772C41.4184 86.5057 41.5654 86.3587 41.5654 86.3342C41.5654 86.2362 41.4674 86.322 41.1857 86.6282Z" fill="url(#paint69_linear_1080_4300)"/>
<path d="M40.5733 87.3632C40.4141 87.5592 40.4263 87.5714 40.6223 87.4122C40.8183 87.2529 40.8795 87.155 40.7815 87.155C40.757 87.155 40.659 87.2529 40.5733 87.3632Z" fill="url(#paint70_linear_1080_4300)"/>
<path d="M60.8079 94.8104C60.1955 95.5086 59.7913 96.4395 59.7178 97.2724C59.6076 98.6688 60.122 99.4405 60.9672 99.1588C61.1999 99.0853 61.4571 98.9383 61.5429 98.8403C61.6776 98.6811 61.6531 98.6688 61.3714 98.8036C60.514 99.1955 59.9873 98.4728 60.0853 97.0152C60.1465 96.1088 60.416 95.4474 60.9794 94.7614C61.4326 94.2347 61.2734 94.2837 60.8079 94.8104Z" fill="url(#paint71_linear_1080_4300)"/>
</g>
<defs>
<linearGradient id="paint0_linear_1080_4300" x1="61.3003" y1="95.8805" x2="61.3009" y2="95.8805" gradientUnits="userSpaceOnUse">
<stop stop-color="#FECF24"/>
<stop offset="1" stop-color="#FE9724"/>
</linearGradient>
<linearGradient id="paint1_linear_1080_4300" x1="61.3003" y1="95.8805" x2="61.3009" y2="95.8805" gradientUnits="userSpaceOnUse">
<stop stop-color="#FECF24"/>
<stop offset="1" stop-color="#FE9724"/>
</linearGradient>
<linearGradient id="paint2_linear_1080_4300" x1="61.3003" y1="95.8805" x2="61.3009" y2="95.8805" gradientUnits="userSpaceOnUse">
<stop stop-color="#FECF24"/>
<stop offset="1" stop-color="#FE9724"/>
</linearGradient>
<linearGradient id="paint3_linear_1080_4300" x1="61.3003" y1="95.8805" x2="61.3009" y2="95.8805" gradientUnits="userSpaceOnUse">
<stop stop-color="#FECF24"/>
<stop offset="1" stop-color="#FE9724"/>
</linearGradient>
<linearGradient id="paint4_linear_1080_4300" x1="61.3003" y1="95.8805" x2="61.3009" y2="95.8805" gradientUnits="userSpaceOnUse">
<stop stop-color="#FECF24"/>
<stop offset="1" stop-color="#FE9724"/>
</linearGradient>
<linearGradient id="paint5_linear_1080_4300" x1="61.3003" y1="95.8805" x2="61.3009" y2="95.8805" gradientUnits="userSpaceOnUse">
<stop stop-color="#FECF24"/>
<stop offset="1" stop-color="#FE9724"/>
</linearGradient>
<linearGradient id="paint6_linear_1080_4300" x1="61.3003" y1="95.8805" x2="61.3009" y2="95.8805" gradientUnits="userSpaceOnUse">
<stop stop-color="#FECF24"/>
<stop offset="1" stop-color="#FE9724"/>
</linearGradient>
<linearGradient id="paint7_linear_1080_4300" x1="61.3003" y1="95.8805" x2="61.3009" y2="95.8805" gradientUnits="userSpaceOnUse">
<stop stop-color="#FECF24"/>
<stop offset="1" stop-color="#FE9724"/>
</linearGradient>
<linearGradient id="paint8_linear_1080_4300" x1="61.3003" y1="95.8805" x2="61.3009" y2="95.8805" gradientUnits="userSpaceOnUse">
<stop stop-color="#FECF24"/>
<stop offset="1" stop-color="#FE9724"/>
</linearGradient>
<linearGradient id="paint9_linear_1080_4300" x1="61.3003" y1="95.8805" x2="61.3009" y2="95.8805" gradientUnits="userSpaceOnUse">
<stop stop-color="#FECF24"/>
<stop offset="1" stop-color="#FE9724"/>
</linearGradient>
<linearGradient id="paint10_linear_1080_4300" x1="61.3003" y1="95.8805" x2="61.3009" y2="95.8805" gradientUnits="userSpaceOnUse">
<stop stop-color="#FECF24"/>
<stop offset="1" stop-color="#FE9724"/>
</linearGradient>
<linearGradient id="paint11_linear_1080_4300" x1="61.3003" y1="95.8805" x2="61.3009" y2="95.8805" gradientUnits="userSpaceOnUse">
<stop stop-color="#FECF24"/>
<stop offset="1" stop-color="#FE9724"/>
</linearGradient>
<linearGradient id="paint12_linear_1080_4300" x1="61.3003" y1="95.8805" x2="61.3009" y2="95.8805" gradientUnits="userSpaceOnUse">
<stop stop-color="#FECF24"/>
<stop offset="1" stop-color="#FE9724"/>
</linearGradient>
<linearGradient id="paint13_linear_1080_4300" x1="61.3003" y1="95.8805" x2="61.3009" y2="95.8805" gradientUnits="userSpaceOnUse">
<stop stop-color="#FECF24"/>
<stop offset="1" stop-color="#FE9724"/>
</linearGradient>
<linearGradient id="paint14_linear_1080_4300" x1="61.3003" y1="95.8805" x2="61.3009" y2="95.8805" gradientUnits="userSpaceOnUse">
<stop stop-color="#FECF24"/>
<stop offset="1" stop-color="#FE9724"/>
</linearGradient>
<linearGradient id="paint15_linear_1080_4300" x1="61.3003" y1="95.8805" x2="61.3009" y2="95.8805" gradientUnits="userSpaceOnUse">
<stop stop-color="#FECF24"/>
<stop offset="1" stop-color="#FE9724"/>
</linearGradient>
<linearGradient id="paint16_linear_1080_4300" x1="61.3003" y1="95.8805" x2="61.3009" y2="95.8805" gradientUnits="userSpaceOnUse">
<stop stop-color="#FECF24"/>
<stop offset="1" stop-color="#FE9724"/>
</linearGradient>
<linearGradient id="paint17_linear_1080_4300" x1="61.3003" y1="95.8805" x2="61.3009" y2="95.8805" gradientUnits="userSpaceOnUse">
<stop stop-color="#FECF24"/>
<stop offset="1" stop-color="#FE9724"/>
</linearGradient>
<linearGradient id="paint18_linear_1080_4300" x1="61.3003" y1="95.8805" x2="61.3009" y2="95.8805" gradientUnits="userSpaceOnUse">
<stop stop-color="#FECF24"/>
<stop offset="1" stop-color="#FE9724"/>
</linearGradient>
<linearGradient id="paint19_linear_1080_4300" x1="61.3003" y1="95.8805" x2="61.3009" y2="95.8805" gradientUnits="userSpaceOnUse">
<stop stop-color="#FECF24"/>
<stop offset="1" stop-color="#FE9724"/>
</linearGradient>
<linearGradient id="paint20_linear_1080_4300" x1="61.3003" y1="95.8805" x2="61.3009" y2="95.8805" gradientUnits="userSpaceOnUse">
<stop stop-color="#FECF24"/>
<stop offset="1" stop-color="#FE9724"/>
</linearGradient>
<linearGradient id="paint21_linear_1080_4300" x1="61.3003" y1="95.8805" x2="61.3009" y2="95.8805" gradientUnits="userSpaceOnUse">
<stop stop-color="#FECF24"/>
<stop offset="1" stop-color="#FE9724"/>
</linearGradient>
<linearGradient id="paint22_linear_1080_4300" x1="61.3003" y1="95.8805" x2="61.3009" y2="95.8805" gradientUnits="userSpaceOnUse">
<stop stop-color="#FECF24"/>
<stop offset="1" stop-color="#FE9724"/>
</linearGradient>
<linearGradient id="paint23_linear_1080_4300" x1="61.3003" y1="95.8805" x2="61.3009" y2="95.8805" gradientUnits="userSpaceOnUse">
<stop stop-color="#FECF24"/>
<stop offset="1" stop-color="#FE9724"/>
</linearGradient>
<linearGradient id="paint24_linear_1080_4300" x1="61.3003" y1="95.8805" x2="61.3009" y2="95.8805" gradientUnits="userSpaceOnUse">
<stop stop-color="#FECF24"/>
<stop offset="1" stop-color="#FE9724"/>
</linearGradient>
<linearGradient id="paint25_linear_1080_4300" x1="61.3003" y1="95.8805" x2="61.3009" y2="95.8805" gradientUnits="userSpaceOnUse">
<stop stop-color="#FECF24"/>
<stop offset="1" stop-color="#FE9724"/>
</linearGradient>
<linearGradient id="paint26_linear_1080_4300" x1="61.3003" y1="95.8805" x2="61.3009" y2="95.8805" gradientUnits="userSpaceOnUse">
<stop stop-color="#FECF24"/>
<stop offset="1" stop-color="#FE9724"/>
</linearGradient>
<linearGradient id="paint27_linear_1080_4300" x1="61.3003" y1="95.8805" x2="61.3009" y2="95.8805" gradientUnits="userSpaceOnUse">
<stop stop-color="#FECF24"/>
<stop offset="1" stop-color="#FE9724"/>
</linearGradient>
<linearGradient id="paint28_linear_1080_4300" x1="61.3003" y1="95.8805" x2="61.3009" y2="95.8805" gradientUnits="userSpaceOnUse">
<stop stop-color="#FECF24"/>
<stop offset="1" stop-color="#FE9724"/>
</linearGradient>
<linearGradient id="paint29_linear_1080_4300" x1="61.3003" y1="95.8805" x2="61.3009" y2="95.8805" gradientUnits="userSpaceOnUse">
<stop stop-color="#FECF24"/>
<stop offset="1" stop-color="#FE9724"/>
</linearGradient>
<linearGradient id="paint30_linear_1080_4300" x1="61.3003" y1="95.8805" x2="61.3009" y2="95.8805" gradientUnits="userSpaceOnUse">
<stop stop-color="#FECF24"/>
<stop offset="1" stop-color="#FE9724"/>
</linearGradient>
<linearGradient id="paint31_linear_1080_4300" x1="61.3003" y1="95.8805" x2="61.3009" y2="95.8805" gradientUnits="userSpaceOnUse">
<stop stop-color="#FECF24"/>
<stop offset="1" stop-color="#FE9724"/>
</linearGradient>
<linearGradient id="paint32_linear_1080_4300" x1="61.3003" y1="95.8805" x2="61.3009" y2="95.8805" gradientUnits="userSpaceOnUse">
<stop stop-color="#FECF24"/>
<stop offset="1" stop-color="#FE9724"/>
</linearGradient>
<linearGradient id="paint33_linear_1080_4300" x1="61.3003" y1="95.8805" x2="61.3009" y2="95.8805" gradientUnits="userSpaceOnUse">
<stop stop-color="#FECF24"/>
<stop offset="1" stop-color="#FE9724"/>
</linearGradient>
<linearGradient id="paint34_linear_1080_4300" x1="61.3003" y1="95.8805" x2="61.3009" y2="95.8805" gradientUnits="userSpaceOnUse">
<stop stop-color="#FECF24"/>
<stop offset="1" stop-color="#FE9724"/>
</linearGradient>
<linearGradient id="paint35_linear_1080_4300" x1="61.3003" y1="95.8805" x2="61.3009" y2="95.8805" gradientUnits="userSpaceOnUse">
<stop stop-color="#FECF24"/>
<stop offset="1" stop-color="#FE9724"/>
</linearGradient>
<linearGradient id="paint36_linear_1080_4300" x1="61.3003" y1="95.8805" x2="61.3009" y2="95.8805" gradientUnits="userSpaceOnUse">
<stop stop-color="#FECF24"/>
<stop offset="1" stop-color="#FE9724"/>
</linearGradient>
<linearGradient id="paint37_linear_1080_4300" x1="61.3003" y1="95.8805" x2="61.3009" y2="95.8805" gradientUnits="userSpaceOnUse">
<stop stop-color="#FECF24"/>
<stop offset="1" stop-color="#FE9724"/>
</linearGradient>
<linearGradient id="paint38_linear_1080_4300" x1="61.3003" y1="95.8805" x2="61.3009" y2="95.8805" gradientUnits="userSpaceOnUse">
<stop stop-color="#FECF24"/>
<stop offset="1" stop-color="#FE9724"/>
</linearGradient>
<linearGradient id="paint39_linear_1080_4300" x1="61.3003" y1="95.8805" x2="61.3009" y2="95.8805" gradientUnits="userSpaceOnUse">
<stop stop-color="#FECF24"/>
<stop offset="1" stop-color="#FE9724"/>
</linearGradient>
<linearGradient id="paint40_linear_1080_4300" x1="61.3003" y1="95.8805" x2="61.3009" y2="95.8805" gradientUnits="userSpaceOnUse">
<stop stop-color="#FECF24"/>
<stop offset="1" stop-color="#FE9724"/>
</linearGradient>
<linearGradient id="paint41_linear_1080_4300" x1="61.3003" y1="95.8805" x2="61.3009" y2="95.8805" gradientUnits="userSpaceOnUse">
<stop stop-color="#FECF24"/>
<stop offset="1" stop-color="#FE9724"/>
</linearGradient>
<linearGradient id="paint42_linear_1080_4300" x1="61.3003" y1="95.8805" x2="61.3009" y2="95.8805" gradientUnits="userSpaceOnUse">
<stop stop-color="#FECF24"/>
<stop offset="1" stop-color="#FE9724"/>
</linearGradient>
<linearGradient id="paint43_linear_1080_4300" x1="61.3003" y1="95.8805" x2="61.3009" y2="95.8805" gradientUnits="userSpaceOnUse">
<stop stop-color="#FECF24"/>
<stop offset="1" stop-color="#FE9724"/>
</linearGradient>
<linearGradient id="paint44_linear_1080_4300" x1="61.3003" y1="95.8805" x2="61.3009" y2="95.8805" gradientUnits="userSpaceOnUse">
<stop stop-color="#FECF24"/>
<stop offset="1" stop-color="#FE9724"/>
</linearGradient>
<linearGradient id="paint45_linear_1080_4300" x1="61.3003" y1="95.8805" x2="61.3009" y2="95.8805" gradientUnits="userSpaceOnUse">
<stop stop-color="#FECF24"/>
<stop offset="1" stop-color="#FE9724"/>
</linearGradient>
<linearGradient id="paint46_linear_1080_4300" x1="61.3003" y1="95.8805" x2="61.3009" y2="95.8805" gradientUnits="userSpaceOnUse">
<stop stop-color="#FECF24"/>
<stop offset="1" stop-color="#FE9724"/>
</linearGradient>
<linearGradient id="paint47_linear_1080_4300" x1="61.3003" y1="95.8805" x2="61.3009" y2="95.8805" gradientUnits="userSpaceOnUse">
<stop stop-color="#FECF24"/>
<stop offset="1" stop-color="#FE9724"/>
</linearGradient>
<linearGradient id="paint48_linear_1080_4300" x1="61.3003" y1="95.8805" x2="61.3009" y2="95.8805" gradientUnits="userSpaceOnUse">
<stop stop-color="#FECF24"/>
<stop offset="1" stop-color="#FE9724"/>
</linearGradient>
<linearGradient id="paint49_linear_1080_4300" x1="61.3003" y1="95.8805" x2="61.3009" y2="95.8805" gradientUnits="userSpaceOnUse">
<stop stop-color="#FECF24"/>
<stop offset="1" stop-color="#FE9724"/>
</linearGradient>
<linearGradient id="paint50_linear_1080_4300" x1="61.3003" y1="95.8805" x2="61.3009" y2="95.8805" gradientUnits="userSpaceOnUse">
<stop stop-color="#FECF24"/>
<stop offset="1" stop-color="#FE9724"/>
</linearGradient>
<linearGradient id="paint51_linear_1080_4300" x1="61.3003" y1="95.8805" x2="61.3009" y2="95.8805" gradientUnits="userSpaceOnUse">
<stop stop-color="#FECF24"/>
<stop offset="1" stop-color="#FE9724"/>
</linearGradient>
<linearGradient id="paint52_linear_1080_4300" x1="61.3003" y1="95.8805" x2="61.3009" y2="95.8805" gradientUnits="userSpaceOnUse">
<stop stop-color="#FECF24"/>
<stop offset="1" stop-color="#FE9724"/>
</linearGradient>
<linearGradient id="paint53_linear_1080_4300" x1="61.3003" y1="95.8805" x2="61.3009" y2="95.8805" gradientUnits="userSpaceOnUse">
<stop stop-color="#FECF24"/>
<stop offset="1" stop-color="#FE9724"/>
</linearGradient>
<linearGradient id="paint54_linear_1080_4300" x1="61.3003" y1="95.8805" x2="61.3009" y2="95.8805" gradientUnits="userSpaceOnUse">
<stop stop-color="#FECF24"/>
<stop offset="1" stop-color="#FE9724"/>
</linearGradient>
<linearGradient id="paint55_linear_1080_4300" x1="61.3003" y1="95.8805" x2="61.3009" y2="95.8805" gradientUnits="userSpaceOnUse">
<stop stop-color="#FECF24"/>
<stop offset="1" stop-color="#FE9724"/>
</linearGradient>
<linearGradient id="paint56_linear_1080_4300" x1="61.3003" y1="95.8805" x2="61.3009" y2="95.8805" gradientUnits="userSpaceOnUse">
<stop stop-color="#FECF24"/>
<stop offset="1" stop-color="#FE9724"/>
</linearGradient>
<linearGradient id="paint57_linear_1080_4300" x1="61.3003" y1="95.8805" x2="61.3009" y2="95.8805" gradientUnits="userSpaceOnUse">
<stop stop-color="#FECF24"/>
<stop offset="1" stop-color="#FE9724"/>
</linearGradient>
<linearGradient id="paint58_linear_1080_4300" x1="61.3003" y1="95.8805" x2="61.3009" y2="95.8805" gradientUnits="userSpaceOnUse">
<stop stop-color="#FECF24"/>
<stop offset="1" stop-color="#FE9724"/>
</linearGradient>
<linearGradient id="paint59_linear_1080_4300" x1="61.3003" y1="95.8805" x2="61.3009" y2="95.8805" gradientUnits="userSpaceOnUse">
<stop stop-color="#FECF24"/>
<stop offset="1" stop-color="#FE9724"/>
</linearGradient>
<linearGradient id="paint60_linear_1080_4300" x1="61.3003" y1="95.8805" x2="61.3009" y2="95.8805" gradientUnits="userSpaceOnUse">
<stop stop-color="#FECF24"/>
<stop offset="1" stop-color="#FE9724"/>
</linearGradient>
<linearGradient id="paint61_linear_1080_4300" x1="61.3003" y1="95.8805" x2="61.3009" y2="95.8805" gradientUnits="userSpaceOnUse">
<stop stop-color="#FECF24"/>
<stop offset="1" stop-color="#FE9724"/>
</linearGradient>
<linearGradient id="paint62_linear_1080_4300" x1="61.3003" y1="95.8805" x2="61.3009" y2="95.8805" gradientUnits="userSpaceOnUse">
<stop stop-color="#FECF24"/>
<stop offset="1" stop-color="#FE9724"/>
</linearGradient>
<linearGradient id="paint63_linear_1080_4300" x1="61.3003" y1="95.8805" x2="61.3009" y2="95.8805" gradientUnits="userSpaceOnUse">
<stop stop-color="#FECF24"/>
<stop offset="1" stop-color="#FE9724"/>
</linearGradient>
<linearGradient id="paint64_linear_1080_4300" x1="61.3003" y1="95.8805" x2="61.3009" y2="95.8805" gradientUnits="userSpaceOnUse">
<stop stop-color="#FECF24"/>
<stop offset="1" stop-color="#FE9724"/>
</linearGradient>
<linearGradient id="paint65_linear_1080_4300" x1="61.3003" y1="95.8805" x2="61.3009" y2="95.8805" gradientUnits="userSpaceOnUse">
<stop stop-color="#FECF24"/>
<stop offset="1" stop-color="#FE9724"/>
</linearGradient>
<linearGradient id="paint66_linear_1080_4300" x1="61.3003" y1="95.8805" x2="61.3009" y2="95.8805" gradientUnits="userSpaceOnUse">
<stop stop-color="#FECF24"/>
<stop offset="1" stop-color="#FE9724"/>
</linearGradient>
<linearGradient id="paint67_linear_1080_4300" x1="61.3003" y1="95.8805" x2="61.3009" y2="95.8805" gradientUnits="userSpaceOnUse">
<stop stop-color="#FECF24"/>
<stop offset="1" stop-color="#FE9724"/>
</linearGradient>
<linearGradient id="paint68_linear_1080_4300" x1="61.3003" y1="95.8805" x2="61.3009" y2="95.8805" gradientUnits="userSpaceOnUse">
<stop stop-color="#FECF24"/>
<stop offset="1" stop-color="#FE9724"/>
</linearGradient>
<linearGradient id="paint69_linear_1080_4300" x1="61.3003" y1="95.8805" x2="61.3009" y2="95.8805" gradientUnits="userSpaceOnUse">
<stop stop-color="#FECF24"/>
<stop offset="1" stop-color="#FE9724"/>
</linearGradient>
<linearGradient id="paint70_linear_1080_4300" x1="61.3003" y1="95.8805" x2="61.3009" y2="95.8805" gradientUnits="userSpaceOnUse">
<stop stop-color="#FECF24"/>
<stop offset="1" stop-color="#FE9724"/>
</linearGradient>
<linearGradient id="paint71_linear_1080_4300" x1="61.3003" y1="95.8805" x2="61.3009" y2="95.8805" gradientUnits="userSpaceOnUse">
<stop stop-color="#FECF24"/>
<stop offset="1" stop-color="#FE9724"/>
</linearGradient>
</defs>
</svg>
