<svg xmlns="http://www.w3.org/2000/svg" width="19" height="19" viewBox="0 0 19 19" fill="none">
<path d="M14.168 1.49993C14.3868 1.28106 14.6467 1.10744 14.9326 0.988988C15.2186 0.870536 15.5251 0.80957 15.8346 0.80957C16.1442 0.80957 16.4507 0.870536 16.7366 0.988988C17.0226 1.10744 17.2824 1.28106 17.5013 1.49993C17.7202 1.7188 17.8938 1.97863 18.0122 2.2646C18.1307 2.55057 18.1917 2.85706 18.1917 3.16659C18.1917 3.47612 18.1307 3.78262 18.0122 4.06859C17.8938 4.35455 17.7202 4.61439 17.5013 4.83326L6.2513 16.0833L1.66797 17.3333L2.91797 12.7499L14.168 1.49993Z" stroke="white" stroke-width="1.5" stroke-linecap="round" stroke-linejoin="round"/>
</svg>