<svg width="108" height="114" viewBox="0 0 108 114" fill="none" xmlns="http://www.w3.org/2000/svg">
<g id="Vector">
<path d="M32.8131 2.22929C25.9242 2.78365 19.7931 5.17436 14.7298 9.27435C12.5138 11.0645 11.2049 12.5543 10.7457 13.7901C10.4931 14.5062 10.4931 15.6611 10.7686 15.9614C10.8835 16.0884 11.0672 16.1924 11.182 16.1924C11.2968 16.1924 11.8135 15.742 12.3416 15.1991C16.096 11.2724 21.2053 9.25125 28.852 8.67379C31.1368 8.50055 36.7971 8.60449 38.6112 8.84703C43.8123 9.56308 47.4175 11.0645 49.8516 13.5129C52.8253 16.5158 54.0079 21.1817 52.5841 24.3115L52.3086 24.9121L51.9871 24.2769C51.2408 22.7755 49.8171 21.2163 48.2212 20.1422C45.8216 18.5022 43.2727 17.74 39.8742 17.6129C36.9234 17.509 34.696 17.7977 29.0242 19.022C23.8805 20.1422 22.916 20.2693 19.5749 20.2924C17.8068 20.3155 16.6242 20.3617 16.5553 20.431C16.4864 20.5003 16.452 20.6966 16.4749 20.8814C16.4979 21.1355 16.6816 21.3549 17.2786 21.7938C20.3786 24.1267 25.1664 25.8476 30.4019 26.5174C32.6179 26.8062 35.6605 26.9332 39.4723 26.9101C42.3082 26.8986 43.2727 26.9332 44.2256 27.0834C46.6138 27.476 48.359 28.296 49.7482 29.6935L50.6093 30.5597L49.9779 30.6521C49.6334 30.7098 48.6919 30.86 47.8882 30.987C47.096 31.1141 44.9949 31.5645 43.2382 32.0034C37.3023 33.4701 34.9716 33.7126 30.9186 33.2738C28.3582 32.9966 25.2583 32.1188 22.7668 30.9755C20.4705 29.9245 18.6564 28.7696 16.5553 27.0141C15.0512 25.7667 14.4772 25.4318 13.6505 25.351C12.9731 25.2932 12.3646 25.5589 12.1005 26.0439C11.9398 26.3096 11.9627 26.3904 12.2842 27.118C12.4909 27.5569 12.709 28.2383 12.7894 28.6425C12.9386 29.4394 12.8812 31.0679 12.6746 31.5876L12.5483 31.911L12.1923 31.7031C11.5838 31.345 10.7342 30.3056 9.50568 28.4346C8.12791 26.3211 7.19791 25.3741 5.95791 24.785C4.92458 24.3 4.07495 24.1845 3.22532 24.4386C1.97384 24.7966 1.15866 25.6859 0.699399 27.1988C0.492732 27.8918 0.469769 28.1921 0.527177 29.5665C0.676436 33.5394 2.65125 40.954 5.10828 46.7402C5.93495 48.6921 7.6342 52.1107 8.48383 53.5774C9.89605 56.0028 11.4575 57.0191 13.0764 56.5802L13.6735 56.4185L13.8686 57.354C14.2246 59.0056 15.2694 62.736 15.9697 64.8149C20.9297 79.5056 29.8968 91.9903 42.113 101.23C44.283 102.87 47.2223 104.845 49.4612 106.161C53.8816 108.76 61.2641 112.028 65.3056 113.16C67.533 113.784 69.2208 113.564 71.4482 112.375C73.9856 111.012 78.4519 108.055 81.7241 105.595C85.7885 102.523 88.3604 100.26 92.4133 96.1827C96.5582 92.0019 99.6237 88.3754 102.896 83.7672C104.894 80.9723 107.5 76.8377 107.5 76.4796C107.5 76.2256 107.133 75.9022 106.846 75.9022C106.547 75.9022 106.432 76.0523 105.548 77.5191C103.022 81.7346 99.2448 86.8624 95.5708 91.0895C93.7452 93.1915 88.3948 98.5157 86.2019 100.41C82.1489 103.909 78.1648 106.843 73.7215 109.603C68.5663 112.814 68.1186 112.883 63.0208 111.127C58.566 109.603 53.3993 107.131 49.0134 104.452C41.9293 100.121 35.8097 94.8315 30.4823 88.4332C23.0883 79.5633 17.7723 68.7878 15.1316 57.3771L14.7183 55.5523L14.9479 55.2983C15.0742 55.1712 15.3153 54.7439 15.499 54.3628C15.786 53.7391 15.8205 53.5543 15.8205 52.3994C15.8205 51.025 15.4875 49.3504 15.0742 48.669C14.592 47.8721 13.5472 48.1261 13.019 49.154C12.6516 49.8816 12.6516 50.8749 13.0535 53.1963C13.2142 54.1433 13.352 54.9864 13.352 55.0557C13.352 55.2521 12.8353 55.4599 12.3646 55.4599C11.5149 55.4599 10.5849 54.6861 9.6205 53.1732C8.40346 51.256 5.83161 45.5853 4.69495 42.3053C3.19088 37.9628 1.89347 32.5231 1.69829 29.7628C1.5031 27.1758 2.49051 25.5473 4.23569 25.5473C5.62495 25.5473 6.84198 26.5867 8.62161 29.3008C10.0453 31.4721 11.0098 32.5 12.1235 33.0543C12.8468 33.4124 12.9042 33.4239 13.1683 33.2391C13.5127 33.0197 13.972 31.6453 14.0983 30.4904C14.1901 29.5549 14.0064 28.1921 13.639 27.1873L13.3749 26.4481L13.6735 26.529C14.1098 26.6329 14.6609 27.0141 16.0042 28.1459C16.6472 28.6887 17.7264 29.4972 18.3923 29.9476C20.482 31.345 23.892 32.9273 26.2342 33.5741L26.9001 33.7588L26.3031 34.4749C25.5453 35.3873 24.6038 36.8425 24.6038 37.085C24.6038 37.3391 24.822 37.5586 25.0631 37.5586C25.1664 37.5586 25.5797 37.0735 26.016 36.4267C26.4408 35.8146 26.9575 35.087 27.1527 34.8098C27.4742 34.371 27.5086 34.2901 27.3708 34.0822C27.2445 33.8743 27.256 33.8512 27.4397 33.8974C27.5545 33.9321 27.9564 34.0245 28.3353 34.0938C28.7142 34.1631 29.116 34.2555 29.2194 34.2786C29.3916 34.3248 29.2997 34.5904 28.5534 36.0687C28.0023 37.189 27.7153 37.8819 27.7612 38.0205C27.8416 38.2631 28.209 38.4248 28.4042 38.2977C28.4845 38.2515 28.9438 37.3622 29.449 36.3228L30.356 34.4287L30.8957 34.498C31.952 34.6366 32.1816 34.6828 32.1816 34.7867C32.1816 34.8445 31.9749 35.4797 31.7223 36.1957C31.4697 36.9118 31.2631 37.5932 31.2631 37.6971C31.2631 37.9397 31.5731 38.1245 31.8486 38.0552C32.0668 37.9974 32.1931 37.7202 32.8016 35.8839L33.1805 34.729L34.6845 34.6712C35.5227 34.6366 36.2001 34.6135 36.2001 34.6135C36.2001 34.625 35.8442 35.5259 35.3964 36.6231C34.7764 38.1938 34.6271 38.6788 34.719 38.8405C34.8682 39.1408 35.2356 39.1177 35.4423 38.7943C35.7638 38.2977 37.0153 34.9715 36.9693 34.7636C36.9234 34.6135 36.9923 34.5442 37.2794 34.498C39.2082 34.1862 39.5871 34.1284 39.6101 34.14C39.6216 34.1515 39.2197 35.2487 38.726 36.5653C38.2208 37.8935 37.8075 39.0253 37.8075 39.0715C37.8075 39.2332 38.2668 39.418 38.4734 39.3602C38.6571 39.3025 39.6445 36.8771 40.4597 34.498L40.6549 33.9205L41.6193 33.678C42.1475 33.551 42.7101 33.4008 42.8823 33.3662L43.1923 33.2853L42.6756 34.1631C41.9408 35.4219 41.229 36.8887 40.7927 38.0436C40.4827 38.8752 40.4368 39.0831 40.563 39.2332C40.7353 39.4411 41.0682 39.4642 41.229 39.2563C41.2979 39.187 41.5045 38.7135 41.6997 38.2284C42.1245 37.1312 42.9053 35.5721 43.5942 34.3941C43.8697 33.9205 44.1223 33.4124 44.1453 33.2622C44.1797 33.0312 44.3175 32.9735 45.2705 32.7425C46.6827 32.4076 46.6597 32.4076 46.476 32.7887C46.2464 33.2738 45.0064 36.3343 44.5816 37.4662C44.3749 38.009 44.2371 38.5402 44.2716 38.6442C44.3175 38.7597 44.4782 38.829 44.6849 38.829C45.0064 38.829 45.0408 38.7712 45.4771 37.6394C45.7297 36.9926 46.2808 35.6298 46.6942 34.6135C47.3027 33.1467 47.4404 32.7194 47.3486 32.5231C47.2453 32.2921 47.2912 32.2805 48.1638 32.1419C48.669 32.0611 49.1053 32.0149 49.1282 32.0495C49.1741 32.0842 48.0604 35.7684 47.6241 37.0157C47.406 37.6394 47.406 37.8704 47.6356 37.9974C47.9571 38.1707 48.2327 38.0205 48.4049 37.5817C48.6345 37.0042 50.0927 32.1997 50.0927 32.0264C50.0927 31.9456 50.3797 31.8994 50.9308 31.8994C52.2397 31.8994 52.4464 31.5991 51.9067 30.5019C51.0686 28.8273 49.0019 27.1988 46.7056 26.4135C44.9719 25.8245 44.3634 25.7667 38.439 25.6628C32.6294 25.5588 30.7694 25.4318 28.2894 24.9583C25.5108 24.427 23.1227 23.6532 20.9871 22.6022C19.0353 21.6436 19.0468 21.6667 20.7116 21.5744C22.5371 21.482 24.776 21.147 27.5316 20.5811C28.7257 20.327 30.5971 19.9459 31.6649 19.7265C34.6845 19.1028 35.8442 18.9527 38.2668 18.8834C40.0234 18.8372 40.7812 18.8603 41.8145 19.0104C46.5908 19.7265 50.1845 22.3828 51.459 26.1479C51.6197 26.6214 51.7345 26.7831 51.9871 26.8755C52.2741 26.9794 52.343 26.9448 52.676 26.5521C53.2271 25.9169 53.8471 24.5541 54.1227 23.3876C54.3293 22.5214 54.3638 22.1403 54.3064 20.7543C54.2375 18.8025 54.0078 17.9248 53.1353 16.1346C51.436 12.6352 48.5427 10.2676 44.1682 8.81238C38.2782 6.849 27.7038 6.81436 21.056 8.74309C17.9331 9.64393 15.4072 10.9259 13.1453 12.7622C11.9627 13.7208 12.112 13.3744 13.4323 12.0693C22.3879 3.22253 36.7742 0.843379 48.6575 6.22535C54.5934 8.91633 57.3719 12.6467 58.8071 19.8997C60.1275 26.4712 60.4375 33.8859 59.6682 40.6769C59.0023 46.6825 57.5327 52.6073 55.2938 58.2664C54.823 59.4675 54.3867 60.738 54.3178 61.096C54.0997 62.2971 54.559 63.2673 55.6038 63.8101C56.1778 64.1104 56.3156 64.1335 57.2112 64.0988C58.233 64.0411 58.9564 63.7754 59.8289 63.1171L60.2193 62.8284L60.403 63.094C60.9197 63.8563 61.8497 64.6878 62.5156 64.9881C63.7327 65.5425 64.7775 65.2999 66.5686 64.0873C67.9119 63.1633 68.9452 62.8977 69.7834 63.2442C70.4263 63.5213 70.4608 64.1219 69.8752 64.8149C69.5078 65.2653 69.0141 65.5194 67.7626 65.9005C66.1093 66.3971 65.2138 67.1709 64.6627 68.5915C64.2952 69.527 64.2838 71.8368 64.6512 73.1303C64.7775 73.6039 64.8693 74.0196 64.8349 74.0427C64.6626 74.2275 63.216 74.1698 62.1367 73.9504C59.6452 73.4306 58.4053 73.5346 56.6945 74.4008C55.3741 75.0591 54.3523 75.983 52.5497 78.1196C49.5645 81.6537 48.026 83.0512 46.5104 83.6056C45.8101 83.8596 45.6034 84.183 45.879 84.6103C46.0856 84.9222 48.0719 86.4005 50.2649 87.8788C54.4441 90.6853 60.0356 93.6303 63.1241 94.6467C66.626 95.8016 69.2438 95.5591 72.8374 93.7458C75.4667 92.4177 77.7974 90.7546 79.4967 88.9991C80.7482 87.694 81.3682 86.8163 82.0341 85.4072C82.4474 84.5641 82.4934 84.3794 82.39 84.1022C82.2867 83.8365 82.3097 83.7441 82.4819 83.594C82.8723 83.2591 82.7345 82.9357 81.5978 81.4458C78.0041 76.7684 75.4437 74.6895 71.9649 73.6385C71.0578 73.3613 70.7363 73.3267 69.2667 73.3151C68.0038 73.3151 67.4182 73.3613 66.8671 73.523C66.316 73.6732 66.1093 73.6847 66.0519 73.5923C65.8108 73.1996 65.5352 71.5943 65.5352 70.5895C65.5467 68.5222 66.3045 67.552 68.4056 66.9515C70.3 66.3971 71.563 65.2191 71.563 64.0064C71.563 63.2557 70.9086 62.3549 70.1623 62.0892C69.9556 62.0084 69.4389 61.9391 69.0141 61.9391C68.0612 61.9275 67.2575 62.2047 66.2241 62.9208C63.7556 64.6185 62.6304 64.4222 61.1723 62.0546C60.6212 61.1653 60.3915 61.1422 59.4386 61.8813C58.5545 62.5743 58.0034 62.8515 57.3375 62.9323C56.6486 63.0132 56.0286 62.8168 55.7186 62.4242C55.3052 61.8929 55.4086 61.3154 56.3386 58.9478C57.4064 56.2453 57.7623 55.2174 58.4052 53C61.4593 42.5825 62.1138 31.7724 60.2997 21.2972C58.9104 13.2242 56.5108 9.22816 51.2064 6.17915C46.0168 3.19943 39.1164 1.72112 32.8131 2.22929ZM14.4542 50.7247C14.6723 51.6487 14.7298 52.8729 14.569 53.4388C14.4312 53.9585 14.3279 53.6352 14.0983 51.9952C13.9031 50.6208 13.926 49.5121 14.1442 49.7546C14.2016 49.8123 14.3394 50.2512 14.4542 50.7247ZM71.4482 74.7703C73.8823 75.4056 76.4311 77.1611 78.6471 79.725C80.0363 81.3419 81.2304 82.9241 81.1041 83.005C81.0352 83.0396 80.6793 82.9588 80.3004 82.8318C78.7504 82.312 76.8215 82.2658 74.686 82.7163L73.6871 82.9241L72.1945 82.3236C71.3793 81.9887 69.9671 81.3996 69.06 81.0301L67.4182 80.3486L67.4871 79.8174C67.6134 78.8703 67.1886 76.6991 66.5456 75.0244C66.4997 74.9089 67.3378 74.6549 68.3482 74.4701C68.8763 74.3777 70.5756 74.5394 71.4482 74.7703ZM62.0104 75.163C63.503 75.4402 64.6052 75.4749 65.1793 75.2554C65.4893 75.1399 66.2815 77.981 66.2815 79.2284C66.2815 79.8751 66.2586 79.956 66.0863 79.8982C65.0186 79.5633 64.123 79.4363 62.8371 79.4363C61.4823 79.4247 61.3675 79.4478 60.7475 79.7481C60.3801 79.9329 59.9323 80.2678 59.7371 80.4988C59.3008 81.0301 59.0138 81.9771 59.1171 82.5315L59.186 82.9472H58.1986C57.6475 82.9472 55.3397 83.132 53.0549 83.3515C50.7816 83.5825 48.8871 83.7441 48.8642 83.721C48.8412 83.6864 48.956 83.5825 49.1282 83.467C49.7597 83.0512 51.3212 81.4343 52.653 79.8289C55.0986 76.8723 56.4419 75.6943 58.0034 75.1399C59.0138 74.7819 60.0241 74.7819 62.0104 75.163ZM64.8464 80.8568C65.3286 80.9723 65.7534 81.0994 65.7878 81.1456C65.8223 81.1802 65.7189 81.4112 65.5352 81.6653C65.1678 82.1965 64.2608 82.8664 63.5375 83.1205C62.9404 83.3284 61.8382 83.3515 61.2067 83.1551C59.7486 82.7163 60.1734 81.0647 61.8612 80.6258C62.3434 80.4988 63.813 80.6143 64.8464 80.8568ZM69.1978 82.3813C70.2771 82.8317 71.2875 83.2591 71.4482 83.3168C71.7008 83.4208 71.5171 83.5016 70.0015 83.9289C67.5904 84.6219 66.2012 84.8413 64.6741 84.772C63.9967 84.7374 63.3423 84.6565 63.2275 84.5872C63.0208 84.4602 63.0208 84.4602 63.2734 84.4487C63.7212 84.4487 64.9152 83.8943 65.5582 83.3977C65.8912 83.132 66.3619 82.6123 66.603 82.2427C66.8326 81.8732 67.0738 81.5729 67.1312 81.5729C67.1771 81.5613 68.1071 81.9309 69.1978 82.3813ZM78.0845 83.721C77.9123 83.7441 77.6023 83.7441 77.3956 83.721C77.1889 83.6979 77.3267 83.6748 77.7056 83.6748C78.0845 83.6748 78.2567 83.6979 78.0845 83.721ZM58.8875 84.2292C59.2549 84.2985 60.1619 84.6334 60.8852 84.9684C64.1575 86.5044 65.65 86.4467 72.2749 84.5641L73.6297 84.1715L74.973 84.5179C76.19 84.8182 76.5115 84.8529 78.05 84.8413C79.3245 84.8413 79.9215 84.7836 80.3463 84.645C80.6563 84.541 80.9548 84.4948 81.0123 84.5526C81.2648 84.8067 79.7378 87.0934 78.5093 88.3292C76.0637 90.7546 71.4941 93.4109 68.7845 93.9653C67.1426 94.3002 65.4778 94.1731 63.6408 93.5726C61.1608 92.741 56.6716 90.4543 52.7334 87.9943C50.6438 86.6892 48.3475 85.0954 48.4853 85.0492C48.6345 84.9915 57.2686 84.1368 57.7967 84.1137C58.0149 84.1137 58.5086 84.1599 58.8875 84.2292Z" fill="black"/>
<path d="M32.8131 2.22929C25.9242 2.78365 19.7931 5.17436 14.7298 9.27435C12.5138 11.0645 11.2049 12.5543 10.7457 13.7901C10.4931 14.5062 10.4931 15.6611 10.7686 15.9614C10.8835 16.0884 11.0672 16.1924 11.182 16.1924C11.2968 16.1924 11.8135 15.742 12.3416 15.1991C16.096 11.2724 21.2053 9.25125 28.852 8.67379C31.1368 8.50055 36.7971 8.60449 38.6112 8.84703C43.8123 9.56308 47.4175 11.0645 49.8516 13.5129C52.8253 16.5158 54.0079 21.1817 52.5841 24.3115L52.3086 24.9121L51.9871 24.2769C51.2408 22.7755 49.8171 21.2163 48.2212 20.1422C45.8216 18.5022 43.2727 17.74 39.8742 17.6129C36.9234 17.509 34.696 17.7977 29.0242 19.022C23.8805 20.1422 22.916 20.2693 19.5749 20.2924C17.8068 20.3155 16.6242 20.3617 16.5553 20.431C16.4864 20.5003 16.452 20.6966 16.4749 20.8814C16.4979 21.1355 16.6816 21.3549 17.2786 21.7938C20.3786 24.1267 25.1664 25.8476 30.4019 26.5174C32.6179 26.8062 35.6605 26.9332 39.4723 26.9101C42.3082 26.8986 43.2727 26.9332 44.2256 27.0834C46.6138 27.476 48.359 28.296 49.7482 29.6935L50.6093 30.5597L49.9779 30.6521C49.6334 30.7098 48.6919 30.86 47.8882 30.987C47.096 31.1141 44.9949 31.5645 43.2382 32.0034C37.3023 33.4701 34.9716 33.7126 30.9186 33.2738C28.3582 32.9966 25.2583 32.1188 22.7668 30.9755C20.4705 29.9245 18.6564 28.7696 16.5553 27.0141C15.0512 25.7667 14.4772 25.4318 13.6505 25.351C12.9731 25.2932 12.3646 25.5589 12.1005 26.0439C11.9398 26.3096 11.9627 26.3904 12.2842 27.118C12.4909 27.5569 12.709 28.2383 12.7894 28.6425C12.9386 29.4394 12.8812 31.0679 12.6746 31.5876L12.5483 31.911L12.1923 31.7031C11.5838 31.345 10.7342 30.3056 9.50568 28.4346C8.12791 26.3211 7.19791 25.3741 5.95791 24.785C4.92458 24.3 4.07495 24.1845 3.22532 24.4386C1.97384 24.7966 1.15866 25.6859 0.699399 27.1988C0.492732 27.8918 0.469769 28.1921 0.527177 29.5665C0.676436 33.5394 2.65125 40.954 5.10828 46.7402C5.93495 48.6921 7.6342 52.1107 8.48383 53.5774C9.89605 56.0028 11.4575 57.0191 13.0764 56.5802L13.6735 56.4185L13.8686 57.354C14.2246 59.0056 15.2694 62.736 15.9697 64.8149C20.9297 79.5056 29.8968 91.9903 42.113 101.23C44.283 102.87 47.2223 104.845 49.4612 106.161C53.8816 108.76 61.2641 112.028 65.3056 113.16C67.533 113.784 69.2208 113.564 71.4482 112.375C73.9856 111.012 78.4519 108.055 81.7241 105.595C85.7885 102.523 88.3604 100.26 92.4133 96.1827C96.5582 92.0019 99.6237 88.3754 102.896 83.7672C104.894 80.9723 107.5 76.8377 107.5 76.4796C107.5 76.2256 107.133 75.9022 106.846 75.9022C106.547 75.9022 106.432 76.0523 105.548 77.5191C103.022 81.7346 99.2448 86.8624 95.5708 91.0895C93.7452 93.1915 88.3948 98.5157 86.2019 100.41C82.1489 103.909 78.1648 106.843 73.7215 109.603C68.5663 112.814 68.1186 112.883 63.0208 111.127C58.566 109.603 53.3993 107.131 49.0134 104.452C41.9293 100.121 35.8097 94.8315 30.4823 88.4332C23.0883 79.5633 17.7723 68.7878 15.1316 57.3771L14.7183 55.5523L14.9479 55.2983C15.0742 55.1712 15.3153 54.7439 15.499 54.3628C15.786 53.7391 15.8205 53.5543 15.8205 52.3994C15.8205 51.025 15.4875 49.3504 15.0742 48.669C14.592 47.8721 13.5472 48.1261 13.019 49.154C12.6516 49.8816 12.6516 50.8749 13.0535 53.1963C13.2142 54.1433 13.352 54.9864 13.352 55.0557C13.352 55.2521 12.8353 55.4599 12.3646 55.4599C11.5149 55.4599 10.5849 54.6861 9.6205 53.1732C8.40346 51.256 5.83161 45.5853 4.69495 42.3053C3.19088 37.9628 1.89347 32.5231 1.69829 29.7628C1.5031 27.1758 2.49051 25.5473 4.23569 25.5473C5.62495 25.5473 6.84198 26.5867 8.62161 29.3008C10.0453 31.4721 11.0098 32.5 12.1235 33.0543C12.8468 33.4124 12.9042 33.4239 13.1683 33.2391C13.5127 33.0197 13.972 31.6453 14.0983 30.4904C14.1901 29.5549 14.0064 28.1921 13.639 27.1873L13.3749 26.4481L13.6735 26.529C14.1098 26.6329 14.6609 27.0141 16.0042 28.1459C16.6472 28.6887 17.7264 29.4972 18.3923 29.9476C20.482 31.345 23.892 32.9273 26.2342 33.5741L26.9001 33.7588L26.3031 34.4749C25.5453 35.3873 24.6038 36.8425 24.6038 37.085C24.6038 37.3391 24.822 37.5586 25.0631 37.5586C25.1664 37.5586 25.5797 37.0735 26.016 36.4267C26.4408 35.8146 26.9575 35.087 27.1527 34.8098C27.4742 34.371 27.5086 34.2901 27.3708 34.0822C27.2445 33.8743 27.256 33.8512 27.4397 33.8974C27.5545 33.9321 27.9564 34.0245 28.3353 34.0938C28.7142 34.1631 29.116 34.2555 29.2194 34.2786C29.3916 34.3248 29.2997 34.5904 28.5534 36.0687C28.0023 37.189 27.7153 37.8819 27.7612 38.0205C27.8416 38.2631 28.209 38.4248 28.4042 38.2977C28.4845 38.2515 28.9438 37.3622 29.449 36.3228L30.356 34.4287L30.8957 34.498C31.952 34.6366 32.1816 34.6828 32.1816 34.7867C32.1816 34.8445 31.9749 35.4797 31.7223 36.1957C31.4697 36.9118 31.2631 37.5932 31.2631 37.6971C31.2631 37.9397 31.5731 38.1245 31.8486 38.0552C32.0668 37.9974 32.1931 37.7202 32.8016 35.8839L33.1805 34.729L34.6845 34.6712C35.5227 34.6366 36.2001 34.6135 36.2001 34.6135C36.2001 34.625 35.8442 35.5259 35.3964 36.6231C34.7764 38.1938 34.6271 38.6788 34.719 38.8405C34.8682 39.1408 35.2356 39.1177 35.4423 38.7943C35.7638 38.2977 37.0153 34.9715 36.9693 34.7636C36.9234 34.6135 36.9923 34.5442 37.2794 34.498C39.2082 34.1862 39.5871 34.1284 39.6101 34.14C39.6216 34.1515 39.2197 35.2487 38.726 36.5653C38.2208 37.8935 37.8075 39.0253 37.8075 39.0715C37.8075 39.2332 38.2668 39.418 38.4734 39.3602C38.6571 39.3025 39.6445 36.8771 40.4597 34.498L40.6549 33.9205L41.6193 33.678C42.1475 33.551 42.7101 33.4008 42.8823 33.3662L43.1923 33.2853L42.6756 34.1631C41.9408 35.4219 41.229 36.8887 40.7927 38.0436C40.4827 38.8752 40.4368 39.0831 40.563 39.2332C40.7353 39.4411 41.0682 39.4642 41.229 39.2563C41.2979 39.187 41.5045 38.7135 41.6997 38.2284C42.1245 37.1312 42.9053 35.5721 43.5942 34.3941C43.8697 33.9205 44.1223 33.4124 44.1453 33.2622C44.1797 33.0312 44.3175 32.9735 45.2705 32.7425C46.6827 32.4076 46.6597 32.4076 46.476 32.7887C46.2464 33.2738 45.0064 36.3343 44.5816 37.4662C44.3749 38.009 44.2371 38.5402 44.2716 38.6442C44.3175 38.7597 44.4782 38.829 44.6849 38.829C45.0064 38.829 45.0408 38.7712 45.4771 37.6394C45.7297 36.9926 46.2808 35.6298 46.6942 34.6135C47.3027 33.1467 47.4404 32.7194 47.3486 32.5231C47.2453 32.2921 47.2912 32.2805 48.1638 32.1419C48.669 32.0611 49.1053 32.0149 49.1282 32.0495C49.1741 32.0842 48.0604 35.7684 47.6241 37.0157C47.406 37.6394 47.406 37.8704 47.6356 37.9974C47.9571 38.1707 48.2327 38.0205 48.4049 37.5817C48.6345 37.0042 50.0927 32.1997 50.0927 32.0264C50.0927 31.9456 50.3797 31.8994 50.9308 31.8994C52.2397 31.8994 52.4464 31.5991 51.9067 30.5019C51.0686 28.8273 49.0019 27.1988 46.7056 26.4135C44.9719 25.8245 44.3634 25.7667 38.439 25.6628C32.6294 25.5588 30.7694 25.4318 28.2894 24.9583C25.5108 24.427 23.1227 23.6532 20.9871 22.6022C19.0353 21.6436 19.0468 21.6667 20.7116 21.5744C22.5371 21.482 24.776 21.147 27.5316 20.5811C28.7257 20.327 30.5971 19.9459 31.6649 19.7265C34.6845 19.1028 35.8442 18.9527 38.2668 18.8834C40.0234 18.8372 40.7812 18.8603 41.8145 19.0104C46.5908 19.7265 50.1845 22.3828 51.459 26.1479C51.6197 26.6214 51.7345 26.7831 51.9871 26.8755C52.2741 26.9794 52.343 26.9448 52.676 26.5521C53.2271 25.9169 53.8471 24.5541 54.1227 23.3876C54.3293 22.5214 54.3638 22.1403 54.3064 20.7543C54.2375 18.8025 54.0078 17.9248 53.1353 16.1346C51.436 12.6352 48.5427 10.2676 44.1682 8.81238C38.2782 6.849 27.7038 6.81436 21.056 8.74309C17.9331 9.64393 15.4072 10.9259 13.1453 12.7622C11.9627 13.7208 12.112 13.3744 13.4323 12.0693C22.3879 3.22253 36.7742 0.843379 48.6575 6.22535C54.5934 8.91633 57.3719 12.6467 58.8071 19.8997C60.1275 26.4712 60.4375 33.8859 59.6682 40.6769C59.0023 46.6825 57.5327 52.6073 55.2938 58.2664C54.823 59.4675 54.3867 60.738 54.3178 61.096C54.0997 62.2971 54.559 63.2673 55.6038 63.8101C56.1778 64.1104 56.3156 64.1335 57.2112 64.0988C58.233 64.0411 58.9564 63.7754 59.8289 63.1171L60.2193 62.8284L60.403 63.094C60.9197 63.8563 61.8497 64.6878 62.5156 64.9881C63.7327 65.5425 64.7775 65.2999 66.5686 64.0873C67.9119 63.1633 68.9452 62.8977 69.7834 63.2442C70.4263 63.5213 70.4608 64.1219 69.8752 64.8149C69.5078 65.2653 69.0141 65.5194 67.7626 65.9005C66.1093 66.3971 65.2138 67.1709 64.6627 68.5915C64.2952 69.527 64.2838 71.8368 64.6512 73.1303C64.7775 73.6039 64.8693 74.0196 64.8349 74.0427C64.6626 74.2275 63.216 74.1698 62.1367 73.9504C59.6452 73.4306 58.4053 73.5346 56.6945 74.4008C55.3741 75.0591 54.3523 75.983 52.5497 78.1196C49.5645 81.6537 48.026 83.0512 46.5104 83.6056C45.8101 83.8596 45.6034 84.183 45.879 84.6103C46.0856 84.9222 48.0719 86.4005 50.2649 87.8788C54.4441 90.6853 60.0356 93.6303 63.1241 94.6467C66.626 95.8016 69.2438 95.5591 72.8374 93.7458C75.4667 92.4177 77.7974 90.7546 79.4967 88.9991C80.7482 87.694 81.3682 86.8163 82.0341 85.4072C82.4474 84.5641 82.4934 84.3794 82.39 84.1022C82.2867 83.8365 82.3097 83.7441 82.4819 83.594C82.8723 83.2591 82.7345 82.9357 81.5978 81.4458C78.0041 76.7684 75.4437 74.6895 71.9649 73.6385C71.0578 73.3613 70.7363 73.3267 69.2667 73.3151C68.0038 73.3151 67.4182 73.3613 66.8671 73.523C66.316 73.6732 66.1093 73.6847 66.0519 73.5923C65.8108 73.1996 65.5352 71.5943 65.5352 70.5895C65.5467 68.5222 66.3045 67.552 68.4056 66.9515C70.3 66.3971 71.563 65.2191 71.563 64.0064C71.563 63.2557 70.9086 62.3549 70.1623 62.0892C69.9556 62.0084 69.4389 61.9391 69.0141 61.9391C68.0612 61.9275 67.2575 62.2047 66.2241 62.9208C63.7556 64.6185 62.6304 64.4222 61.1723 62.0546C60.6212 61.1653 60.3915 61.1422 59.4386 61.8813C58.5545 62.5743 58.0034 62.8515 57.3375 62.9323C56.6486 63.0132 56.0286 62.8168 55.7186 62.4242C55.3052 61.8929 55.4086 61.3154 56.3386 58.9478C57.4064 56.2453 57.7623 55.2174 58.4052 53C61.4593 42.5825 62.1138 31.7724 60.2997 21.2972C58.9104 13.2242 56.5108 9.22816 51.2064 6.17915C46.0168 3.19943 39.1164 1.72112 32.8131 2.22929ZM14.4542 50.7247C14.6723 51.6487 14.7298 52.8729 14.569 53.4388C14.4312 53.9585 14.3279 53.6352 14.0983 51.9952C13.9031 50.6208 13.926 49.5121 14.1442 49.7546C14.2016 49.8123 14.3394 50.2512 14.4542 50.7247ZM71.4482 74.7703C73.8823 75.4056 76.4311 77.1611 78.6471 79.725C80.0363 81.3419 81.2304 82.9241 81.1041 83.005C81.0352 83.0396 80.6793 82.9588 80.3004 82.8318C78.7504 82.312 76.8215 82.2658 74.686 82.7163L73.6871 82.9241L72.1945 82.3236C71.3793 81.9887 69.9671 81.3996 69.06 81.0301L67.4182 80.3486L67.4871 79.8174C67.6134 78.8703 67.1886 76.6991 66.5456 75.0244C66.4997 74.9089 67.3378 74.6549 68.3482 74.4701C68.8763 74.3777 70.5756 74.5394 71.4482 74.7703ZM62.0104 75.163C63.503 75.4402 64.6052 75.4749 65.1793 75.2554C65.4893 75.1399 66.2815 77.981 66.2815 79.2284C66.2815 79.8751 66.2586 79.956 66.0863 79.8982C65.0186 79.5633 64.123 79.4363 62.8371 79.4363C61.4823 79.4247 61.3675 79.4478 60.7475 79.7481C60.3801 79.9329 59.9323 80.2678 59.7371 80.4988C59.3008 81.0301 59.0138 81.9771 59.1171 82.5315L59.186 82.9472H58.1986C57.6475 82.9472 55.3397 83.132 53.0549 83.3515C50.7816 83.5825 48.8871 83.7441 48.8642 83.721C48.8412 83.6864 48.956 83.5825 49.1282 83.467C49.7597 83.0512 51.3212 81.4343 52.653 79.8289C55.0986 76.8723 56.4419 75.6943 58.0034 75.1399C59.0138 74.7819 60.0241 74.7819 62.0104 75.163ZM64.8464 80.8568C65.3286 80.9723 65.7534 81.0994 65.7878 81.1456C65.8223 81.1802 65.7189 81.4112 65.5352 81.6653C65.1678 82.1965 64.2608 82.8664 63.5375 83.1205C62.9404 83.3284 61.8382 83.3515 61.2067 83.1551C59.7486 82.7163 60.1734 81.0647 61.8612 80.6258C62.3434 80.4988 63.813 80.6143 64.8464 80.8568ZM69.1978 82.3813C70.2771 82.8317 71.2875 83.2591 71.4482 83.3168C71.7008 83.4208 71.5171 83.5016 70.0015 83.9289C67.5904 84.6219 66.2012 84.8413 64.6741 84.772C63.9967 84.7374 63.3423 84.6565 63.2275 84.5872C63.0208 84.4602 63.0208 84.4602 63.2734 84.4487C63.7212 84.4487 64.9152 83.8943 65.5582 83.3977C65.8912 83.132 66.3619 82.6123 66.603 82.2427C66.8326 81.8732 67.0738 81.5729 67.1312 81.5729C67.1771 81.5613 68.1071 81.9309 69.1978 82.3813ZM78.0845 83.721C77.9123 83.7441 77.6023 83.7441 77.3956 83.721C77.1889 83.6979 77.3267 83.6748 77.7056 83.6748C78.0845 83.6748 78.2567 83.6979 78.0845 83.721ZM58.8875 84.2292C59.2549 84.2985 60.1619 84.6334 60.8852 84.9684C64.1575 86.5044 65.65 86.4467 72.2749 84.5641L73.6297 84.1715L74.973 84.5179C76.19 84.8182 76.5115 84.8529 78.05 84.8413C79.3245 84.8413 79.9215 84.7836 80.3463 84.645C80.6563 84.541 80.9548 84.4948 81.0123 84.5526C81.2648 84.8067 79.7378 87.0934 78.5093 88.3292C76.0637 90.7546 71.4941 93.4109 68.7845 93.9653C67.1426 94.3002 65.4778 94.1731 63.6408 93.5726C61.1608 92.741 56.6716 90.4543 52.7334 87.9943C50.6438 86.6892 48.3475 85.0954 48.4853 85.0492C48.6345 84.9915 57.2686 84.1368 57.7967 84.1137C58.0149 84.1137 58.5086 84.1599 58.8875 84.2292Z" fill="url(#paint0_linear_692_912)"/>
<path d="M16.9756 0.653379C16.4689 0.857228 15.9015 1.8357 15.9015 2.48801C15.9015 2.73263 16.0434 3.1811 16.2055 3.52764C16.4689 3.99649 16.4892 4.34303 16.3271 5.17881C16.1042 6.44267 16.2055 6.8096 16.7932 6.72806C17.1377 6.68729 17.239 6.46306 17.3809 5.58651C17.5227 4.75073 17.624 4.5265 17.928 4.5265C19.5898 4.5265 20.522 2.5084 19.4884 1.20377C19.0021 0.57184 17.7862 0.306837 16.9756 0.653379ZM19.5492 2.85494C19.5492 3.50726 18.9615 4.1188 18.3131 4.1188H17.7051L18.4752 3.32379C19.3668 2.42686 19.5492 2.34532 19.5492 2.85494Z" fill="url(#paint1_linear_692_912)"/>
<path d="M16.4082 11.3758C16.2258 11.5592 16.1244 11.865 16.1852 12.0485C16.4892 13.1696 16.4892 13.8831 16.2055 14.4335C15.7394 15.3304 15.8205 16.0643 16.4689 16.7778C16.9553 17.3078 17.1985 17.4301 17.928 17.4301C20.3396 17.4301 20.6841 14.0054 18.3333 13.5162C17.6646 13.3939 17.6038 13.3123 17.4417 12.3339C17.239 11.1923 16.9148 10.8865 16.4082 11.3758ZM19.1237 16.6758C18.6981 17.1243 17.928 17.3485 17.928 17.0224C17.928 16.9408 18.2725 16.5331 18.6981 16.0847C19.3871 15.3712 19.4479 15.3304 19.5087 15.7381C19.5493 16.0031 19.3871 16.3904 19.1237 16.6758Z" fill="url(#paint2_linear_692_912)"/>
<path d="M71.1931 54.2251C69.0855 55.3666 70.7067 58.5195 72.9224 57.5954C74.4355 56.9702 74.4355 54.8231 72.9494 54.1164C72.1118 53.7359 72.0577 53.7359 71.1931 54.2251ZM73.1115 57.1333C72.2199 57.8672 71.9767 57.4595 72.8143 56.5626C73.3547 55.9374 73.5439 55.8559 73.6249 56.2092C73.679 56.4538 73.4358 56.8615 73.1115 57.1333Z" fill="url(#paint3_linear_692_912)"/>
</g>
<defs>
<linearGradient id="paint0_linear_692_912" x1="75.8163" y1="102.785" x2="83.7433" y2="102.785" gradientUnits="userSpaceOnUse">
<stop stop-color="#FECF24"/>
<stop offset="1" stop-color="#FE9724"/>
</linearGradient>
<linearGradient id="paint1_linear_692_912" x1="72.9211" y1="54.2149" x2="73.2062" y2="54.2149" gradientUnits="userSpaceOnUse">
<stop stop-color="#FECF24"/>
<stop offset="1" stop-color="#FE9724"/>
</linearGradient>
<linearGradient id="paint2_linear_692_912" x1="72.9211" y1="54.2149" x2="73.2062" y2="54.2149" gradientUnits="userSpaceOnUse">
<stop stop-color="#FECF24"/>
<stop offset="1" stop-color="#FE9724"/>
</linearGradient>
<linearGradient id="paint3_linear_692_912" x1="72.9211" y1="54.2149" x2="73.2062" y2="54.2149" gradientUnits="userSpaceOnUse">
<stop stop-color="#FECF24"/>
<stop offset="1" stop-color="#FE9724"/>
</linearGradient>
</defs>
</svg>
