<svg width="297" height="283" viewBox="0 0 297 283" fill="none" xmlns="http://www.w3.org/2000/svg">
<path d="M277.062 149.583C276.427 148.996 274.507 146.849 272.758 144.841L269.598 141.102L270.048 136.946C270.587 131.536 269.339 123.883 267.334 120.612C265.122 116.967 263.443 115.697 260.093 115C258.418 114.651 256.183 113.726 255.196 112.936C246.868 106.674 212.634 113.101 198.32 123.647C196.218 125.195 195.047 125.53 189.552 126.413C177.903 128.203 164.137 128.585 156.378 127.311L153.787 126.912L154.458 125.164C156.116 120.448 162.96 104.986 165.173 101.114L167.622 96.7379L172.29 94.0903C185.148 86.7931 202.991 66.4599 209.574 51.6525C214.576 40.3834 213.616 25.3298 207.524 18.3437C200.293 10.0866 184.792 10.9554 172.053 20.3404C162.685 27.2421 154.762 38.9479 148.928 54.5885C142.604 71.5798 141.884 84.9034 146.982 92.5562C148.803 95.3032 149.406 95.8476 152.012 97.0931C155.334 98.6685 160.482 98.9643 163.707 97.8414C164.815 97.4206 165.812 97.2143 165.906 97.3425C166.032 97.5135 165.098 99.4544 163.846 101.696C161.652 105.686 156.942 116.344 154.326 123.151L153.027 126.614L150.455 125.872C149.061 125.447 146.914 124.458 145.733 123.679C143.773 122.485 143.521 122.143 143.826 121.457C144.018 120.985 145.437 117.962 146.956 114.798C149.938 108.579 151.721 101.923 150.745 100.598C149.675 99.1451 147.056 101.733 144.434 106.699C141.619 112.136 140.533 117.354 141.64 120.232C142.348 122.018 142.237 122.693 140.755 125.632L139.049 128.999L135.963 128.569C123.286 126.763 90.1333 135.757 54.0228 150.82C33.407 159.413 25.0081 163.689 26.0158 165.057C26.5826 165.826 32.3105 165.167 61.3603 160.779C93.2109 155.977 107.622 153.537 113.335 152.032C118.408 150.668 117.233 151.732 126.323 140.419C129.251 136.876 131.568 134.246 131.507 134.621C131.274 136.046 119.783 153.084 91.3778 194.19C67.1712 229.17 64.845 232.796 65.7812 233.425C66.7175 234.054 72.8815 228.853 80.2473 221.251C98.7213 202.233 117.497 181.608 131.284 165.12C141.999 152.346 145.304 148.856 149.419 145.825L152.702 143.406L155.795 144.029C160.745 145.064 171.705 143.716 176.776 141.431C181.095 139.502 180.382 136.334 175.434 135.759C170.648 135.131 161.415 137.449 155.983 140.527C154.532 141.398 153.154 141.82 152.771 141.575C150.918 140.434 150.827 135.819 152.571 130.577L153.489 127.791L159.987 128.543C163.58 128.929 170.188 129.007 174.733 128.758C182.743 128.264 192.795 127.057 193.539 126.509C193.758 126.348 194.091 126.432 194.248 126.646C194.437 126.903 194.038 127.461 193.338 127.977C192.681 128.46 191.282 129.953 190.22 131.262C185.357 137.22 183.106 144.615 184.217 150.523C185.607 157.544 191.328 162.1 200.837 163.733C212.957 165.883 233.372 164.625 247.108 160.902C259.14 157.709 265.619 152.936 268.371 145.303L269.321 142.559L270.78 143.99C271.541 144.748 273.335 146.724 274.769 148.305C276.129 149.875 277.475 151.06 277.737 150.866C277.956 150.705 277.666 150.128 277.062 149.583ZM251.508 158.716C233.911 164.624 204.292 165.672 193.674 160.701C190.49 159.222 189.843 158.71 187.733 155.846C185.812 153.238 185.307 152.094 184.979 149.632C184.427 145.95 185.332 141.128 187.294 137.375C188.82 134.404 193.39 128.598 195.316 127.179C195.929 126.727 206.177 124.32 218.099 121.802C250.094 115.178 255.458 114.392 256.812 116.23C257.757 117.512 258.697 124.931 258.37 128.337L258.042 131.283L255.128 129.803C249.086 126.736 240.071 126.783 231.976 129.912C226.497 132.101 219.602 136.126 215.195 139.769C206.423 147.022 207.341 149.643 219.025 150.927C233.958 152.587 246.255 149.66 252.959 142.809C255.502 140.21 258.376 135.587 258.252 134.227C258.108 132.289 260.068 133.483 265.646 138.672L268.577 141.458L268.12 143.312C267.52 145.798 265.938 148.876 264.302 150.873C262.104 153.481 256.111 157.171 251.508 158.716ZM260.518 133.086C259.23 132.254 259.153 131.783 259.29 127.66C259.35 125.175 259.093 121.342 258.64 119.17L257.9 115.231L260.259 115.867C263.315 116.715 265.497 118.668 267.019 121.834C268.913 125.78 269.777 132.727 269.093 138.308L268.837 140.344L265.353 137.173C263.479 135.454 261.316 133.619 260.518 133.086ZM241.73 148.378C232.994 151.187 216.55 151.234 211.538 148.464C208.529 146.855 211.57 143.099 220.946 136.85C233.601 128.451 245.323 126.211 254.478 130.479C257.191 131.778 257.731 132.237 257.672 133.072C257.613 134.368 255.807 137.875 254.041 140.429C252.201 142.972 245.864 147.113 241.73 148.378ZM248.696 115.022C245.28 115.428 234.867 117.428 225.62 119.36C216.33 121.325 206.487 123.366 203.674 123.856L198.631 124.802L200.732 123.254C209.218 116.805 232.23 110.732 246.313 111.238C249.793 111.378 256.038 113.437 255.075 114.147C254.987 114.211 252.111 114.616 248.696 115.022ZM66.9002 232.469C66.5538 231.998 72.1677 223.576 94.0658 191.88C130.213 139.465 134.273 133.243 133.297 131.918C132.825 131.276 131.326 132.908 123.996 141.935C119.519 147.409 117.458 149.653 116.162 150.278C113.365 151.614 92.2432 155.305 59.8219 160.066C57.8104 160.361 50.0342 161.54 42.4645 162.632C34.9264 163.768 28.2461 164.6 27.644 164.517C26.3644 164.338 26.7461 164.123 35.6843 159.846C72.2124 142.233 121.52 127.207 135.709 129.416L138.6 129.857L137.475 132.73C135.455 137.78 135.564 140.403 137.792 141.136C138.746 141.422 139.591 141.195 140.905 140.227C142.393 139.131 142.773 138.455 143.191 135.905C143.626 133.012 143.619 132.82 141.845 130.961L140.008 129.018L141.366 126.369C143.116 122.969 143.323 122.883 144.806 124.164C145.517 124.761 147.47 125.762 149.183 126.346L152.322 127.398L151.199 132.841C150.305 137.127 150.241 138.691 150.949 140.477L151.809 142.745L149.445 144.486C145.593 147.324 142.045 151.125 130.461 164.737C111.048 187.613 79.8586 221.273 69.1205 230.899C68.3517 231.597 67.6145 232.338 67.3956 232.499C67.252 232.671 67.0262 232.64 66.9002 232.469ZM170.754 142.241C165.165 143.456 158.051 143.883 155.641 143.087L153.733 142.514L155.442 141.717C165.501 136.944 175.08 135.096 178.141 137.326C180.384 138.904 177.532 140.808 170.754 142.241ZM137.626 140.269C137.243 140.023 136.926 139.135 136.867 138.322C136.829 136.437 138.98 130.83 139.876 130.764C140.891 130.675 142.543 133.283 142.573 134.975C142.602 137.856 139.341 141.313 137.626 140.269ZM142.569 120.668C141.876 119.728 142.216 114.598 143.11 111.961C144.141 108.959 146.807 103.961 148.518 101.975C150.054 100.118 150.617 101.616 149.726 105.174C148.99 108.025 143.84 120.194 143.127 120.785C142.952 120.914 142.695 120.839 142.569 120.668ZM170.565 94.0416C169.163 94.6132 169.244 94.356 171.815 90.879C173.356 88.7543 177.745 83.3446 181.555 78.8896C204.984 51.4728 207.886 47.6201 210.603 40.6732L212.045 37.0388L211.99 39.2557C211.608 52.3963 194.7 76.6568 176.696 89.987C174.157 91.8575 171.36 93.6539 170.565 94.0416ZM164.669 96.6714C153.221 100.291 144.898 93.7616 144.478 80.816C144.122 70.0655 148.473 55.2537 155.887 41.4826C164.765 25.1159 175.412 16.283 189.209 13.8341C193.375 13.0726 198.894 13.6887 201.959 15.1898C204.201 16.3078 205.037 17.0765 207.431 20.3251C209.572 23.2317 210.361 24.7608 210.693 26.4946L211.121 28.8172L209.101 26.8097C202.043 19.6123 186.284 22.056 175.917 32.0018C165.155 42.2379 156.006 61.9037 158.62 69.2103C159.241 71.0611 159.536 71.3708 161.005 71.8056C161.927 72.0493 163.708 71.9907 164.847 71.6126C170.033 70.0344 181.263 61.1677 189.846 52.0087C193.868 47.6602 199.878 39.408 200.048 37.8976C200.177 36.8799 199.989 37.0839 195.36 43.7258C189.975 51.4514 184.189 57.165 174.384 64.3892C167.498 69.5276 165.74 70.6249 163.942 71.0262C161.625 71.5469 159.96 70.6628 159.257 68.6088C158.231 65.474 160.609 56.6005 164.489 49.1255C173.927 31.2258 186.854 22.0972 200.415 23.9111C205.351 24.5609 208.706 26.6395 210.586 30.2001C212.132 33.2156 211.171 38.1443 207.788 44.4614C204.586 50.3817 202.007 53.6659 187.988 69.9295C177.422 82.264 171.497 89.5306 168.84 93.5326C167.205 95.9895 167.468 95.796 164.669 96.6714Z" fill="#2D2D2D"/>
<path d="M277.8 150.583C277.165 149.996 275.245 147.849 273.496 145.841L270.336 142.102L270.786 137.946C271.325 132.536 270.077 124.883 268.072 121.612C265.859 117.967 264.181 116.697 260.831 116C259.156 115.651 256.921 114.726 255.934 113.936C247.606 107.674 213.372 114.101 199.057 124.647C196.956 126.195 195.785 126.53 190.29 127.413C178.641 129.203 164.875 129.585 157.115 128.311L154.525 127.912L155.196 126.164C156.854 121.448 163.698 105.986 165.91 102.114L168.36 97.7379L173.027 95.0903C185.886 87.7931 203.729 67.4599 210.312 52.6525C215.314 41.3834 214.354 26.3298 208.262 19.3437C201.031 11.0866 185.53 11.9554 172.791 21.3404C163.423 28.2421 155.5 39.9479 149.666 55.5885C143.341 72.5798 142.622 85.9034 147.719 93.5562C149.54 96.3032 150.144 96.8476 152.75 98.0931C156.072 99.6685 161.22 99.9643 164.445 98.8414C165.553 98.4206 166.549 98.2143 166.644 98.3425C166.77 98.5135 165.836 100.454 164.583 102.696C162.39 106.686 157.68 117.344 155.064 124.151L153.765 127.614L151.192 126.872C149.799 126.447 147.652 125.458 146.47 124.679C144.51 123.485 144.258 123.143 144.563 122.457C144.756 121.985 146.175 118.962 147.694 115.798C150.676 109.579 152.459 102.923 151.483 101.598C150.412 100.145 147.794 102.733 145.172 107.699C142.356 113.136 141.271 118.354 142.377 121.232C143.086 123.018 142.975 123.693 141.493 126.632L139.787 129.999L136.701 129.569C124.024 127.763 90.8711 136.757 54.7606 151.82C34.1448 160.413 25.7459 164.689 26.7536 166.057C27.3204 166.826 33.0483 166.167 62.098 161.779C93.9487 156.977 108.36 154.537 114.072 153.032C119.146 151.668 117.971 152.732 127.061 141.419C129.989 137.876 132.306 135.246 132.245 135.621C132.011 137.046 120.521 154.084 92.1156 195.19C67.909 230.17 65.5828 233.796 66.519 234.425C67.4553 235.054 73.6192 229.853 80.9851 222.251C99.4591 203.233 118.235 182.608 132.022 166.12C142.737 153.346 146.041 149.856 150.156 146.825L153.44 144.406L156.533 145.029C161.482 146.064 172.443 144.716 177.513 142.431C181.833 140.502 181.12 137.334 176.171 136.759C171.386 136.131 162.153 138.449 156.721 141.527C155.27 142.398 153.892 142.82 153.509 142.575C151.655 141.434 151.565 136.819 153.308 131.577L154.227 128.791L160.724 129.543C164.318 129.929 170.926 130.007 175.471 129.758C183.481 129.264 193.533 128.057 194.277 127.509C194.496 127.348 194.829 127.432 194.986 127.646C195.175 127.903 194.776 128.461 194.075 128.977C193.419 129.46 192.019 130.953 190.958 132.262C186.094 138.22 183.844 145.615 184.954 151.523C186.345 158.544 192.065 163.1 201.575 164.733C213.695 166.883 234.11 165.625 247.846 161.902C259.878 158.709 266.357 153.936 269.109 146.303L270.059 143.559L271.518 144.99C272.279 145.748 274.072 147.724 275.507 149.305C276.867 150.875 278.212 152.06 278.475 151.866C278.694 151.705 278.404 151.128 277.8 150.583ZM252.246 159.716C234.649 165.624 205.03 166.672 194.412 161.701C191.228 160.222 190.581 159.71 188.471 156.846C186.55 154.238 186.044 153.094 185.716 150.632C185.165 146.95 186.07 142.128 188.032 138.375C189.558 135.404 194.128 129.598 196.054 128.179C196.667 127.727 206.915 125.32 218.837 122.802C250.832 116.178 256.196 115.392 257.55 117.23C258.495 118.512 259.435 125.931 259.108 129.337L258.78 132.283L255.866 130.803C249.824 127.736 240.809 127.783 232.713 130.912C227.235 133.101 220.34 137.126 215.932 140.769C207.161 148.022 208.079 150.643 219.763 151.927C234.696 153.587 246.993 150.66 253.696 143.809C256.239 141.21 259.114 136.587 258.99 135.227C258.846 133.289 260.806 134.483 266.384 139.672L269.315 142.458L268.857 144.312C268.258 146.798 266.676 149.876 265.04 151.873C262.842 154.481 256.848 158.171 252.246 159.716ZM261.256 134.086C259.968 133.254 259.891 132.783 260.027 128.66C260.088 126.175 259.831 122.342 259.378 120.17L258.637 116.231L260.997 116.867C264.053 117.715 266.235 119.668 267.757 122.834C269.651 126.78 270.514 133.727 269.831 139.308L269.575 141.344L266.091 138.173C264.217 136.454 262.054 134.619 261.256 134.086ZM242.468 149.378C233.732 152.187 217.288 152.234 212.275 149.464C209.267 147.855 212.307 144.099 221.684 137.85C234.338 129.451 246.061 127.211 255.216 131.479C257.929 132.778 258.469 133.237 258.409 134.072C258.351 135.368 256.545 138.875 254.779 141.429C252.938 143.972 246.602 148.113 242.468 149.378ZM249.433 116.022C246.018 116.428 235.605 118.428 226.358 120.36C217.067 122.325 207.225 124.366 204.412 124.856L199.368 125.802L201.47 124.254C209.955 117.805 232.968 111.732 247.051 112.238C250.531 112.378 256.776 114.437 255.813 115.147C255.725 115.211 252.849 115.616 249.433 116.022ZM67.638 233.469C67.2916 232.998 72.9055 224.576 94.8036 192.88C130.951 140.465 135.011 134.243 134.035 132.918C133.563 132.276 132.063 133.908 124.734 142.935C120.257 148.409 118.196 150.653 116.9 151.278C114.102 152.614 92.981 156.305 60.5596 161.066C58.5482 161.361 50.772 162.54 43.2023 163.632C35.6642 164.768 28.9839 165.6 28.3818 165.517C27.1022 165.338 27.4839 165.123 36.4221 160.846C72.9502 143.233 122.258 128.207 136.446 130.416L139.338 130.857L138.213 133.73C136.193 138.78 136.302 141.403 138.53 142.136C139.484 142.422 140.329 142.195 141.643 141.227C143.131 140.131 143.511 139.455 143.929 136.905C144.364 134.012 144.357 133.82 142.583 131.961L140.746 130.018L142.104 127.369C143.854 123.969 144.06 123.883 145.544 125.164C146.255 125.761 148.208 126.762 149.921 127.346L153.059 128.398L151.937 133.841C151.042 138.127 150.979 139.691 151.687 141.477L152.547 143.745L150.183 145.486C146.331 148.324 142.783 152.125 131.199 165.737C111.785 188.613 80.5964 222.273 69.8583 231.899C69.0895 232.597 68.3523 233.338 68.1334 233.499C67.9898 233.671 67.764 233.64 67.638 233.469ZM171.491 143.241C165.903 144.456 158.789 144.883 156.379 144.087L154.471 143.514L156.18 142.717C166.239 137.944 175.818 136.096 178.879 138.326C181.122 139.904 178.27 141.808 171.491 143.241ZM138.364 141.269C137.981 141.023 137.664 140.135 137.605 139.322C137.567 137.437 139.717 131.83 140.614 131.764C141.629 131.675 143.28 134.283 143.311 135.975C143.34 138.856 140.079 142.313 138.364 141.269ZM143.307 121.668C142.614 120.728 142.954 115.598 143.848 112.961C144.878 109.959 147.545 104.961 149.256 102.975C150.792 101.118 151.355 102.616 150.464 106.174C149.728 109.025 144.578 121.194 143.865 121.785C143.69 121.914 143.433 121.839 143.307 121.668ZM171.303 95.0416C169.901 95.6132 169.982 95.356 172.553 91.879C174.094 89.7543 178.483 84.3446 182.292 79.8896C205.722 52.4728 208.624 48.6201 211.34 41.6732L212.783 38.0388L212.727 40.2557C212.346 53.3963 195.438 77.6568 177.433 90.987C174.894 92.8575 172.098 94.6539 171.303 95.0416ZM165.406 97.6714C153.958 101.291 145.636 94.7616 145.216 81.816C144.86 71.0655 149.211 56.2537 156.625 42.4826C165.503 26.1159 176.15 17.283 189.947 14.8341C194.113 14.0726 199.632 14.6887 202.697 16.1898C204.939 17.3078 205.775 18.0765 208.168 21.3251C210.31 24.2317 211.099 25.7608 211.43 27.4946L211.858 29.8172L209.839 27.8097C202.781 20.6123 187.022 23.056 176.654 33.0018C165.893 43.2379 156.744 62.9037 159.358 70.2103C159.978 72.0611 160.274 72.3708 161.743 72.8056C162.665 73.0493 164.445 72.9907 165.585 72.6126C170.771 71.0344 182 62.1677 190.583 53.0087C194.606 48.6602 200.616 40.408 200.786 38.8976C200.914 37.8799 200.727 38.0839 196.098 44.7258C190.713 52.4514 184.927 58.165 175.121 65.3892C168.236 70.5276 166.478 71.6249 164.68 72.0262C162.362 72.5469 160.698 71.6628 159.995 69.6088C158.969 66.474 161.346 57.6005 165.227 50.1255C174.664 32.2258 187.592 23.0972 201.153 24.9111C206.089 25.5609 209.444 27.6395 211.324 31.2001C212.87 34.2156 211.909 39.1443 208.526 45.4614C205.323 51.3817 202.745 54.6659 188.726 70.9295C178.16 83.264 172.235 90.5306 169.577 94.5326C167.943 96.9895 168.206 96.796 165.406 97.6714Z" fill="#2D2D2D"/>
<path d="M276.528 147.681C275.893 147.094 273.974 144.947 272.224 142.939L269.064 139.199L269.514 135.043C270.054 129.634 268.805 121.981 266.801 118.71C264.588 115.064 262.91 113.795 259.559 113.098C257.884 112.749 255.649 111.824 254.662 111.034C246.334 104.772 212.101 111.198 197.786 121.744C195.685 123.293 194.513 123.628 189.018 124.511C177.37 126.3 163.603 126.682 155.844 125.409L153.253 125.009L153.925 123.262C155.583 118.545 162.426 103.084 164.639 99.2117L167.088 94.8356L171.756 92.1879C184.615 84.8907 202.457 64.5576 209.04 49.7501C214.043 38.481 213.083 23.4274 206.99 16.4414C199.759 8.18421 184.258 9.05304 171.519 18.4381C162.151 25.3398 154.229 37.0455 148.395 52.6861C142.07 69.6774 141.35 83.001 146.448 90.6539C148.269 93.4008 148.873 93.9452 151.479 95.1907C154.8 96.7661 159.949 97.062 163.173 95.939C164.282 95.5182 165.278 95.3119 165.372 95.4402C165.498 95.6111 164.564 97.5521 163.312 99.7938C161.119 103.784 156.409 114.442 153.792 121.249L152.494 124.712L149.921 123.969C148.528 123.545 146.38 122.555 145.199 121.777C143.239 120.583 142.987 120.241 143.292 119.555C143.485 119.083 144.904 116.059 146.423 112.896C149.405 106.676 151.188 100.021 150.212 98.6961C149.141 97.2427 146.523 99.831 143.9 104.797C141.085 110.234 139.999 115.452 141.106 118.33C141.814 120.116 141.704 120.791 140.221 123.729L138.515 127.097L135.429 126.666C122.753 124.861 89.5996 133.854 53.4891 148.917C32.8733 157.511 24.4744 161.786 25.4821 163.154C26.0489 163.924 31.7769 163.265 60.8266 158.877C92.6772 154.074 107.088 151.634 112.801 150.129C117.874 148.766 116.699 149.829 125.789 138.516C128.718 134.974 131.035 132.344 130.973 132.719C130.74 134.144 119.249 151.182 90.8441 192.288C66.6375 227.267 64.3113 230.893 65.2475 231.523C66.1838 232.152 72.3478 226.951 79.7136 219.348C98.1876 200.331 116.963 179.706 130.75 163.218C141.465 150.444 144.77 146.954 148.885 143.923L152.168 141.504L155.261 142.127C160.211 143.162 171.171 141.814 176.242 139.529C180.561 137.6 179.848 134.432 174.9 133.857C170.114 133.228 160.881 135.546 155.45 138.624C153.998 139.496 152.62 139.918 152.237 139.672C150.384 138.532 150.293 133.917 152.037 128.675L152.955 125.888L159.453 126.641C163.047 127.027 169.655 127.104 174.199 126.856C182.21 126.362 192.262 125.155 193.006 124.607C193.225 124.445 193.557 124.53 193.715 124.744C193.904 125 193.504 125.558 192.804 126.074C192.147 126.558 190.748 128.051 189.687 129.36C184.823 135.317 182.572 142.713 183.683 148.621C185.073 155.642 190.794 160.198 200.304 161.83C212.423 163.98 232.838 162.723 246.574 159C258.607 155.806 265.086 151.033 267.837 143.401L268.787 140.657L270.246 142.087C271.008 142.846 272.801 144.822 274.236 146.402C275.595 147.973 276.941 149.157 277.203 148.964C277.422 148.803 277.132 148.225 276.528 147.681ZM250.974 156.813C233.377 162.721 203.758 163.77 193.14 158.799C189.957 157.32 189.309 156.807 187.199 153.943C185.278 151.336 184.773 150.192 184.445 147.73C183.893 144.047 184.798 139.226 186.761 135.472C188.287 132.502 192.856 126.695 194.782 125.276C195.395 124.825 205.644 122.418 217.566 119.9C249.561 113.276 254.924 112.49 256.279 114.328C257.223 115.61 258.164 123.028 257.837 126.435L257.508 129.381L254.594 127.9C248.553 124.834 239.538 124.881 231.442 128.009C225.964 130.199 219.068 134.224 214.661 137.866C205.89 145.12 206.807 147.741 218.492 149.025C233.424 150.685 245.721 147.758 252.425 140.907C254.968 138.308 257.842 133.684 257.719 132.325C257.574 130.387 259.534 131.581 265.113 136.769L268.044 139.556L267.586 141.41C266.986 143.896 265.404 146.974 263.768 148.97C261.57 151.579 255.577 155.269 250.974 156.813ZM259.984 131.183C258.696 130.352 258.619 129.881 258.756 125.757C258.816 123.273 258.559 119.44 258.107 117.267L257.366 113.329L259.725 113.964C262.781 114.812 264.963 116.766 266.485 119.931C268.379 123.877 269.243 130.825 268.56 136.406L268.303 138.441L264.819 135.271C262.945 133.552 260.782 131.716 259.984 131.183ZM241.197 146.475C232.46 149.284 216.016 149.331 211.004 146.562C207.996 144.953 211.036 141.196 220.413 134.948C233.067 126.548 244.789 124.309 253.944 128.577C256.657 129.876 257.198 130.334 257.138 131.17C257.08 132.466 255.273 135.973 253.508 138.526C251.667 141.07 245.33 145.211 241.197 146.475ZM248.162 113.119C244.747 113.525 234.334 115.525 225.087 117.458C215.796 119.423 205.954 121.464 203.141 121.954L198.097 122.9L200.198 121.352C208.684 114.903 231.697 108.829 245.779 109.335C249.259 109.475 255.504 111.535 254.541 112.244C254.454 112.309 251.577 112.713 248.162 113.119ZM66.3665 230.566C66.0201 230.096 71.634 221.674 93.5321 189.978C129.679 137.563 133.74 131.34 132.763 130.015C132.291 129.374 130.792 131.006 123.462 140.033C118.986 145.507 116.924 147.751 115.629 148.376C112.831 149.712 91.7095 153.402 59.2882 158.164C57.2767 158.459 49.5005 159.637 41.9308 160.73C34.3927 161.865 27.7124 162.698 27.1103 162.614C25.8307 162.436 26.2124 162.221 35.1506 157.944C71.6787 140.331 120.986 125.305 135.175 127.513L138.067 127.955L136.941 130.828C134.921 135.877 135.03 138.501 137.258 139.233C138.212 139.52 139.058 139.292 140.371 138.325C141.859 137.228 142.24 136.553 142.657 134.003C143.093 131.11 143.086 130.917 141.311 129.059L139.474 127.115L140.832 124.466C142.582 121.067 142.789 120.981 144.273 122.261C144.983 122.859 146.936 123.86 148.65 124.444L151.788 125.495L150.665 130.939C149.771 135.225 149.707 136.788 150.415 138.575L151.276 140.842L148.912 142.584C145.059 145.422 141.511 149.223 129.928 162.835C110.514 185.71 79.3249 219.371 68.5868 228.997C67.8181 229.695 67.0808 230.436 66.8619 230.597C66.7183 230.769 66.4925 230.737 66.3665 230.566ZM170.22 140.338C164.632 141.554 157.517 141.981 155.107 141.185L153.2 140.612L154.908 139.815C164.967 135.042 174.547 133.194 177.607 135.423C179.851 137.002 176.998 138.906 170.22 140.338ZM137.092 138.366C136.709 138.121 136.393 137.233 136.333 136.419C136.296 134.535 138.446 128.928 139.342 128.861C140.358 128.773 142.009 131.381 142.04 133.073C142.068 135.953 138.807 139.411 137.092 138.366ZM142.035 118.766C141.342 117.826 141.682 112.695 142.576 110.058C143.607 107.057 146.273 102.059 147.984 100.073C149.52 98.2161 150.083 99.7137 149.193 103.272C148.456 106.122 143.306 118.291 142.594 118.882C142.419 119.011 142.161 118.937 142.035 118.766ZM170.032 92.1393C168.629 92.7109 168.71 92.4536 171.281 88.9767C172.823 86.852 177.212 81.4423 181.021 76.9873C204.451 49.5705 207.353 45.7178 210.069 38.7708L211.511 35.1365L211.456 37.3533C211.074 50.4939 194.166 74.7545 176.162 88.0846C173.623 89.9552 170.827 91.7515 170.032 92.1393ZM164.135 94.7691C152.687 98.3891 144.364 91.8592 143.944 78.9136C143.588 68.1632 147.939 53.3514 155.353 39.5803C164.232 23.2135 174.878 14.3806 188.675 11.9318C192.842 11.1703 198.361 11.7863 201.425 13.2875C203.667 14.4055 204.504 15.1741 206.897 18.4227C209.038 21.3294 209.827 22.8584 210.159 24.5923L210.587 26.9149L208.568 24.9074C201.509 17.7099 185.75 20.1537 175.383 30.0995C164.622 40.3356 155.472 60.0014 158.086 67.3079C158.707 69.1587 159.003 69.4684 160.471 69.9033C161.394 70.147 163.174 70.0883 164.314 69.7103C169.499 68.132 180.729 59.2653 189.312 50.1063C193.335 45.7578 199.344 37.5057 199.515 35.9953C199.643 34.9776 199.455 35.1816 194.826 41.8235C189.442 49.5491 183.656 55.2626 173.85 62.4868C166.965 67.6252 165.207 68.7225 163.409 69.1239C161.091 69.6445 159.427 68.7605 158.724 66.7064C157.697 63.5717 160.075 54.6981 163.955 47.2231C173.393 29.3234 186.321 20.1949 199.881 22.0087C204.817 22.6586 208.172 24.7372 210.052 28.2978C211.599 31.3132 210.637 36.242 207.254 42.559C204.052 48.4793 201.474 51.7636 187.454 68.0272C176.888 80.3616 170.963 87.6283 168.306 91.6302C166.672 94.0872 166.934 93.8937 164.135 94.7691Z" fill="#2D2D2D"/>
<path d="M277.267 148.685C276.631 148.098 274.712 145.951 272.962 143.942L269.803 140.203L270.252 136.047C270.792 130.638 269.544 122.985 267.539 119.713C265.326 116.068 263.648 114.799 260.298 114.101C258.623 113.753 256.388 112.828 255.401 112.038C247.073 105.776 212.839 112.202 198.524 122.748C196.423 124.296 195.252 124.632 189.756 125.515C178.108 127.304 164.342 127.686 156.582 126.413L153.992 126.013L154.663 124.266C156.321 119.549 163.165 104.088 165.377 100.216L167.826 95.8395L172.494 93.1918C185.353 85.8946 203.196 65.5615 209.779 50.754C214.781 39.485 213.821 24.4313 207.729 17.4453C200.497 9.18811 184.996 10.0569 172.257 19.442C162.889 26.3437 154.967 38.0495 149.133 53.69C142.808 70.6813 142.088 84.005 147.186 91.6578C149.007 94.4047 149.611 94.9491 152.217 96.1946C155.539 97.77 160.687 98.0659 163.912 96.943C165.02 96.5221 166.016 96.3158 166.111 96.4441C166.237 96.6151 165.303 98.556 164.05 100.798C161.857 104.788 157.147 115.445 154.531 122.253L153.232 125.715L150.659 124.973C149.266 124.549 147.118 123.559 145.937 122.781C143.977 121.587 143.725 121.245 144.03 120.559C144.223 120.087 145.642 117.063 147.161 113.9C150.143 107.68 151.926 101.025 150.95 99.7C149.879 98.2466 147.261 100.835 144.638 105.801C141.823 111.238 140.737 116.456 141.844 119.334C142.552 121.12 142.442 121.795 140.96 124.733L139.253 128.101L136.167 127.67C123.491 125.865 90.3379 134.858 54.2274 149.921C33.6116 158.515 25.2127 162.79 26.2204 164.158C26.7872 164.928 32.5151 164.269 61.5648 159.881C93.4155 155.078 107.827 152.638 113.539 151.133C118.613 149.77 117.438 150.833 126.528 139.52C129.456 135.978 131.773 133.348 131.712 133.723C131.478 135.148 119.988 152.186 91.5824 193.292C67.3758 228.271 65.0496 231.897 65.9858 232.526C66.9221 233.156 73.086 227.955 80.4519 220.352C98.9259 201.334 117.702 180.71 131.489 164.222C142.204 151.448 145.508 147.958 149.623 144.926L152.906 142.508L155.999 143.131C160.949 144.166 171.91 142.817 176.98 140.533C181.299 138.604 180.587 135.436 175.638 134.861C170.853 134.232 161.619 136.55 156.188 139.628C154.737 140.5 153.359 140.921 152.975 140.676C151.122 139.536 151.031 134.921 152.775 129.679L153.694 126.892L160.191 127.645C163.785 128.031 170.393 128.108 174.937 127.859C182.948 127.365 193 126.159 193.744 125.611C193.963 125.449 194.295 125.534 194.453 125.748C194.642 126.004 194.243 126.562 193.542 127.078C192.885 127.562 191.486 129.054 190.425 130.364C185.561 136.321 183.31 143.717 184.421 149.625C185.812 156.645 191.532 161.202 201.042 162.834C213.162 164.984 233.576 163.727 247.312 160.004C259.345 156.81 265.824 152.037 268.575 144.405L269.525 141.661L270.985 143.091C271.746 143.85 273.539 145.825 274.974 147.406C276.333 148.977 277.679 150.161 277.942 149.968C278.161 149.807 277.87 149.229 277.267 148.685ZM251.712 157.817C234.116 163.725 204.497 164.773 193.878 159.803C190.695 158.323 190.047 157.811 187.938 154.947C186.017 152.34 185.511 151.196 185.183 148.734C184.631 145.051 185.537 140.23 187.499 136.476C189.025 133.506 193.594 127.699 195.521 126.28C196.133 125.829 206.382 123.422 218.304 120.904C250.299 114.28 255.663 113.494 257.017 115.332C257.962 116.614 258.902 124.032 258.575 127.439L258.246 130.384L255.332 128.904C249.291 125.837 240.276 125.885 232.18 129.013C226.702 131.203 219.807 135.227 215.399 138.87C206.628 146.124 207.546 148.745 219.23 150.028C234.163 151.688 246.459 148.762 253.163 141.911C255.706 139.312 258.581 134.688 258.457 133.329C258.312 131.391 260.272 132.585 265.851 137.773L268.782 140.56L268.324 142.414C267.724 144.9 266.142 147.978 264.507 149.974C262.309 152.583 256.315 156.273 251.712 157.817ZM260.723 132.187C259.435 131.356 259.358 130.885 259.494 126.761C259.555 124.277 259.297 120.444 258.845 118.271L258.104 114.333L260.464 114.968C263.52 115.816 265.702 117.77 267.223 120.935C269.118 124.881 269.981 131.829 269.298 137.41L269.041 139.445L265.557 136.275C263.683 134.556 261.521 132.72 260.723 132.187ZM241.935 147.479C233.199 150.288 216.755 150.335 211.742 147.565C208.734 145.957 211.774 142.2 221.151 135.952C233.805 127.552 245.528 125.313 254.683 129.581C257.395 130.879 257.936 131.338 257.876 132.174C257.818 133.47 256.012 136.977 254.246 139.53C252.405 142.074 246.068 146.214 241.935 147.479ZM248.9 114.123C245.485 114.529 235.072 116.529 225.825 118.462C216.534 120.427 206.692 122.468 203.879 122.958L198.835 123.904L200.936 122.356C209.422 115.907 232.435 109.833 246.518 110.339C249.998 110.479 256.243 112.539 255.279 113.248C255.192 113.313 252.316 113.717 248.9 114.123ZM67.1048 231.57C66.7584 231.1 72.3723 222.678 94.2704 190.982C130.418 138.567 134.478 132.344 133.502 131.019C133.029 130.378 131.53 132.01 124.201 141.037C119.724 146.511 117.663 148.755 116.367 149.38C113.569 150.716 92.4478 154.406 60.0264 159.168C58.015 159.463 50.2388 160.641 42.6691 161.734C35.131 162.869 28.4507 163.702 27.8486 163.618C26.569 163.44 26.9507 163.224 35.8888 158.948C72.417 141.335 121.725 126.309 135.913 128.517L138.805 128.959L137.68 131.832C135.659 136.881 135.768 139.505 137.997 140.237C138.95 140.524 139.796 140.296 141.109 139.329C142.598 138.232 142.978 137.556 143.396 135.007C143.831 132.114 143.824 131.921 142.05 130.063L140.213 128.119L141.57 125.47C143.321 122.071 143.527 121.984 145.011 123.265C145.721 123.863 147.675 124.864 149.388 125.448L152.526 126.499L151.404 131.942C150.509 136.228 150.445 137.792 151.154 139.578L152.014 141.846L149.65 143.588C145.798 146.426 142.25 150.227 130.666 163.838C111.252 186.714 80.0632 220.375 69.3251 230C68.5563 230.699 67.8191 231.44 67.6002 231.601C67.4566 231.773 67.2308 231.741 67.1048 231.57ZM170.958 141.342C165.37 142.558 158.256 142.985 155.846 142.189L153.938 141.616L155.647 140.819C165.705 136.046 175.285 134.198 178.346 136.427C180.589 138.006 177.737 139.909 170.958 141.342ZM137.831 139.37C137.447 139.125 137.131 138.237 137.072 137.423C137.034 135.539 139.184 129.932 140.081 129.865C141.096 129.777 142.747 132.385 142.778 134.077C142.807 136.957 139.546 140.415 137.831 139.37ZM142.774 119.77C142.081 118.83 142.421 113.699 143.315 111.062C144.345 108.061 147.012 103.063 148.723 101.077C150.259 99.22 150.822 100.718 149.931 104.275C149.194 107.126 144.045 119.295 143.332 119.886C143.157 120.015 142.9 119.941 142.774 119.77ZM170.77 93.1432C169.368 93.7148 169.448 93.4575 172.02 89.9806C173.561 87.8559 177.95 82.4462 181.759 77.9912C205.189 50.5744 208.091 46.7217 210.807 39.7747L212.249 36.1404L212.194 38.3572C211.812 51.4978 194.905 75.7584 176.9 89.0885C174.361 90.9591 171.565 92.7554 170.77 93.1432ZM164.873 95.773C153.425 99.3931 145.103 92.8631 144.683 79.9175C144.327 69.1671 148.678 54.3553 156.091 40.5842C164.97 24.2174 175.617 15.3845 189.413 12.9357C193.58 12.1742 199.099 12.7902 202.163 14.2914C204.405 15.4094 205.242 16.178 207.635 19.4266C209.777 22.3333 210.565 23.8624 210.897 25.5962L211.325 27.9188L209.306 25.9113C202.247 18.7138 186.488 21.1576 176.121 31.1034C165.36 41.3395 156.211 61.0053 158.825 68.3118C159.445 70.1626 159.741 70.4724 161.209 70.9072C162.132 71.1509 163.912 71.0922 165.052 70.7142C170.238 69.1359 181.467 60.2692 190.05 51.1102C194.073 46.7617 200.082 38.5096 200.253 36.9992C200.381 35.9815 200.194 36.1855 195.564 42.8274C190.18 50.553 184.394 56.2665 174.588 63.4907C167.703 68.6291 165.945 69.7264 164.147 70.1278C161.829 70.6484 160.165 69.7644 159.462 67.7103C158.436 64.5756 160.813 55.702 164.694 48.227C174.131 30.3273 187.059 21.1988 200.619 23.0126C205.556 23.6625 208.91 25.7411 210.791 29.3017C212.337 32.3171 211.375 37.2459 207.993 43.5629C204.79 49.4832 202.212 52.7675 188.192 69.0311C177.626 81.3655 171.701 88.6322 169.044 92.6341C167.41 95.0911 167.673 94.8976 164.873 95.773Z" fill="#2D2D2D"/>
</svg>
