<svg width="20" height="20" viewBox="0 0 20 20" fill="none" xmlns="http://www.w3.org/2000/svg">
<path id="Icon" d="M7 4H12.2012M4 7V12M16.5 4C16.5 5.38071 15.3807 6.5 14 6.5C12.6193 6.5 11.5 5.38071 11.5 4C11.5 2.61929 12.6193 1.5 14 1.5C15.3807 1.5 16.5 2.61929 16.5 4ZM16.5 14C16.5 15.3807 15.3807 16.5 14 16.5C12.6193 16.5 11.5 15.3807 11.5 14C11.5 12.6193 12.6193 11.5 14 11.5C15.3807 11.5 16.5 12.6193 16.5 14ZM6.5 4C6.5 5.38071 5.38071 6.5 4 6.5C2.61929 6.5 1.5 5.38071 1.5 4C1.5 2.61929 2.61929 1.5 4 1.5C5.38071 1.5 6.5 2.61929 6.5 4ZM6.5 14C6.5 15.3807 5.38071 16.5 4 16.5C2.61929 16.5 1.5 15.3807 1.5 14C1.5 12.6193 2.61929 11.5 4 11.5C5.38071 11.5 6.5 12.6193 6.5 14Z" stroke="currentColor" stroke-width="1.5"/>
</svg>
