<svg width="30" height="30" viewBox="0 0 30 30" fill="none" xmlns="http://www.w3.org/2000/svg">
<circle cx="15" cy="15" r="15" fill="#555555"/>
<path d="M6.91101 12.3831C7.28021 11.2423 7.88685 10.1926 8.691 9.30313C8.7575 9.22964 8.84434 9.17757 8.94048 9.15354C9.03663 9.1295 9.13775 9.13458 9.231 9.16813L11.149 9.85413C11.2855 9.90288 11.4311 9.92137 11.5755 9.9083C11.7199 9.89522 11.8597 9.85091 11.9852 9.77842C12.1108 9.70594 12.2191 9.60701 12.3026 9.48851C12.3862 9.37 12.4429 9.23475 12.469 9.09213L12.835 7.08613C12.8527 6.98848 12.899 6.89829 12.9681 6.82706C13.0372 6.75583 13.1259 6.70677 13.223 6.68613C14.3945 6.43666 15.6055 6.43666 16.777 6.68613C16.8741 6.70677 16.9628 6.75583 17.0319 6.82706C17.101 6.89829 17.1473 6.98848 17.165 7.08613L17.531 9.09213C17.5571 9.23475 17.6138 9.37 17.6974 9.48851C17.7809 9.60701 17.8892 9.70594 18.0148 9.77842C18.1403 9.85091 18.2802 9.89522 18.4246 9.9083C18.569 9.92137 18.7145 9.90288 18.851 9.85413L20.77 9.16813C20.8634 9.1347 20.9645 9.12978 21.0607 9.15399C21.1568 9.17821 21.2436 9.23047 21.31 9.30413C22.114 10.1933 22.7207 11.2426 23.09 12.3831C23.1204 12.4774 23.122 12.5786 23.0948 12.6739C23.0676 12.7691 23.0126 12.8541 22.937 12.9181L21.382 14.2381C21.2715 14.332 21.1828 14.4488 21.122 14.5804C21.0611 14.7119 21.0296 14.8552 21.0296 15.0001C21.0296 15.1451 21.0611 15.2883 21.122 15.4199C21.1828 15.5515 21.2715 15.6683 21.382 15.7621L22.937 17.0821C23.0125 17.1462 23.0672 17.2313 23.0943 17.3265C23.1213 17.4218 23.1195 17.5229 23.089 17.6171C22.7198 18.758 22.1132 19.8077 21.309 20.6971C21.2425 20.7706 21.1557 20.8227 21.0595 20.8467C20.9634 20.8708 20.8623 20.8657 20.769 20.8321L18.851 20.1461C18.7145 20.0974 18.569 20.0789 18.4246 20.092C18.2802 20.105 18.1403 20.1493 18.0148 20.2218C17.8892 20.2943 17.7809 20.3932 17.6974 20.5117C17.6138 20.6302 17.5571 20.7655 17.531 20.9081L17.165 22.9151C17.1471 23.0126 17.1007 23.1026 17.0317 23.1736C16.9626 23.2446 16.8739 23.2936 16.777 23.3141C15.6055 23.5637 14.3945 23.5637 13.223 23.3141C13.1259 23.2935 13.0372 23.2444 12.9681 23.1732C12.899 23.102 12.8527 23.0118 12.835 22.9141L12.469 20.9081C12.4429 20.7655 12.3862 20.6302 12.3026 20.5117C12.2191 20.3932 12.1108 20.2943 11.9852 20.2218C11.8597 20.1493 11.7199 20.105 11.5755 20.092C11.4311 20.0789 11.2855 20.0974 11.149 20.1461L9.231 20.8321C9.13765 20.8656 9.03647 20.8705 8.94032 20.8463C8.84417 20.822 8.75738 20.7698 8.691 20.6961C7.88695 19.807 7.28031 18.7576 6.91101 17.6171C6.88052 17.5229 6.87869 17.4218 6.90575 17.3265C6.93281 17.2313 6.98754 17.1462 7.063 17.0821L8.61801 15.7621C8.72847 15.6683 8.8172 15.5515 8.87806 15.4199C8.93891 15.2883 8.97043 15.1451 8.97043 15.0001C8.97043 14.8552 8.93891 14.7119 8.87806 14.5804C8.8172 14.4488 8.72847 14.332 8.61801 14.2381L7.063 12.9181C6.98754 12.854 6.93281 12.769 6.90575 12.6737C6.87869 12.5785 6.88052 12.4773 6.91101 12.3831ZM13.001 15.0001C13.001 15.5306 13.2117 16.0393 13.5868 16.4143C13.9619 16.7894 14.4706 17.0001 15.001 17.0001C15.5314 17.0001 16.0401 16.7894 16.4152 16.4143C16.7903 16.0393 17.001 15.5306 17.001 15.0001C17.001 14.4697 16.7903 13.961 16.4152 13.5859C16.0401 13.2108 15.5314 13.0001 15.001 13.0001C14.4706 13.0001 13.9619 13.2108 13.5868 13.5859C13.2117 13.961 13.001 14.4697 13.001 15.0001Z" fill="white"/>
</svg>
