<svg width="20" height="21" viewBox="0 0 20 21" fill="none" xmlns="http://www.w3.org/2000/svg">
<path d="M1.91101 7.88313C2.28021 6.74229 2.88685 5.69259 3.691 4.80313C3.7575 4.72964 3.84434 4.67757 3.94048 4.65354C4.03663 4.6295 4.13775 4.63458 4.231 4.66813L6.14901 5.35413C6.28555 5.40288 6.43106 5.42137 6.57546 5.4083C6.71985 5.39522 6.85968 5.35091 6.98524 5.27842C7.11081 5.20594 7.21911 5.10701 7.30265 4.98851C7.38618 4.87 7.44294 4.73475 7.46901 4.59213L7.83501 2.58613C7.85268 2.48848 7.89902 2.39829 7.96811 2.32706C8.03721 2.25583 8.12594 2.20677 8.223 2.18613C9.39454 1.93666 10.6055 1.93666 11.777 2.18613C11.8741 2.20677 11.9628 2.25583 12.0319 2.32706C12.101 2.39829 12.1473 2.48848 12.165 2.58613L12.531 4.59213C12.5571 4.73475 12.6138 4.87 12.6974 4.98851C12.7809 5.10701 12.8892 5.20594 13.0148 5.27842C13.1403 5.35091 13.2802 5.39522 13.4246 5.4083C13.569 5.42137 13.7145 5.40288 13.851 5.35413L15.77 4.66813C15.8634 4.6347 15.9645 4.62978 16.0607 4.65399C16.1568 4.67821 16.2436 4.73047 16.31 4.80413C17.114 5.6933 17.7207 6.74265 18.09 7.88313C18.1204 7.97743 18.122 8.07863 18.0948 8.17388C18.0676 8.26913 18.0126 8.35414 17.937 8.41813L16.382 9.73813C16.2715 9.832 16.1828 9.94878 16.122 10.0804C16.0611 10.2119 16.0296 10.3552 16.0296 10.5001C16.0296 10.6451 16.0611 10.7883 16.122 10.9199C16.1828 11.0515 16.2715 11.1683 16.382 11.2621L17.937 12.5821C18.0125 12.6462 18.0672 12.7313 18.0943 12.8265C18.1213 12.9218 18.1195 13.0229 18.089 13.1171C17.7198 14.258 17.1132 15.3077 16.309 16.1971C16.2425 16.2706 16.1557 16.3227 16.0595 16.3467C15.9634 16.3708 15.8623 16.3657 15.769 16.3321L13.851 15.6461C13.7145 15.5974 13.569 15.5789 13.4246 15.592C13.2802 15.605 13.1403 15.6493 13.0148 15.7218C12.8892 15.7943 12.7809 15.8932 12.6974 16.0117C12.6138 16.1302 12.5571 16.2655 12.531 16.4081L12.165 18.4151C12.1471 18.5126 12.1007 18.6026 12.0317 18.6736C11.9626 18.7446 11.8739 18.7936 11.777 18.8141C10.6055 19.0637 9.39453 19.0637 8.223 18.8141C8.12594 18.7935 8.03721 18.7444 7.96811 18.6732C7.89902 18.602 7.85268 18.5118 7.83501 18.4141L7.46901 16.4081C7.44294 16.2655 7.38618 16.1302 7.30265 16.0117C7.21911 15.8932 7.11081 15.7943 6.98524 15.7218C6.85968 15.6493 6.71985 15.605 6.57546 15.592C6.43106 15.5789 6.28555 15.5974 6.14901 15.6461L4.231 16.3321C4.13765 16.3656 4.03647 16.3705 3.94032 16.3463C3.84417 16.322 3.75738 16.2698 3.691 16.1961C2.88695 15.307 2.28031 14.2576 1.91101 13.1171C1.88052 13.0229 1.87869 12.9218 1.90575 12.8265C1.93281 12.7313 1.98754 12.6462 2.063 12.5821L3.61801 11.2621C3.72847 11.1683 3.8172 11.0515 3.87806 10.9199C3.93891 10.7883 3.97043 10.6451 3.97043 10.5001C3.97043 10.3552 3.93891 10.2119 3.87806 10.0804C3.8172 9.94878 3.72847 9.832 3.61801 9.73813L2.063 8.41813C1.98754 8.35402 1.93281 8.26896 1.90575 8.17371C1.87869 8.07847 1.88052 7.97733 1.91101 7.88313ZM8.00101 10.5001C8.00101 11.0306 8.21172 11.5393 8.58679 11.9143C8.96186 12.2894 9.47057 12.5001 10.001 12.5001C10.5314 12.5001 11.0401 12.2894 11.4152 11.9143C11.7903 11.5393 12.001 11.0306 12.001 10.5001C12.001 9.96969 11.7903 9.46099 11.4152 9.08591C11.0401 8.71084 10.5314 8.50013 10.001 8.50013C9.47057 8.50013 8.96186 8.71084 8.58679 9.08591C8.21172 9.46099 8.00101 9.96969 8.00101 10.5001Z" fill="#2D2D2D"/>
</svg>
