<svg width="21" height="20" viewBox="0 0 21 20" fill="none" xmlns="http://www.w3.org/2000/svg">
<g id="solar:phone-outline">
<path id="Vector" fill-rule="evenodd" clip-rule="evenodd" d="M3.28674 1.5433C4.50374 0.333297 6.50774 0.548297 7.52674 1.9103L8.78874 3.5943C9.61874 4.7023 9.54474 6.2503 8.55974 7.2293L8.32174 7.4673C8.29486 7.56722 8.29212 7.6721 8.31374 7.7733C8.37674 8.1813 8.71774 9.0453 10.1457 10.4653C11.5737 11.8853 12.4437 12.2253 12.8577 12.2893C12.962 12.3115 13.07 12.3084 13.1727 12.2803L13.5807 11.8743C14.4567 11.0043 15.8007 10.8413 16.8847 11.4303L18.7947 12.4703C20.4317 13.3583 20.8447 15.5823 19.5047 16.9153L18.0837 18.3273C17.6357 18.7723 17.0337 19.1433 16.2997 19.2123C14.4897 19.3813 10.2727 19.1653 5.83974 14.7583C1.70274 10.6443 0.908738 7.0563 0.807738 5.2883C0.757738 4.3943 1.17974 3.6383 1.71774 3.1043L3.28674 1.5433ZM6.32674 2.8093C5.81974 2.1323 4.87574 2.0783 4.34374 2.6073L2.77374 4.1673C2.44374 4.4953 2.28574 4.8573 2.30574 5.2033C2.38574 6.6083 3.02574 9.8453 6.89774 13.6953C10.9597 17.7333 14.7107 17.8543 16.1607 17.7183C16.4567 17.6913 16.7507 17.5373 17.0257 17.2643L18.4457 15.8513C19.0237 15.2773 18.8967 14.2313 18.0787 13.7873L16.1687 12.7483C15.6407 12.4623 15.0227 12.5563 14.6387 12.9383L14.1837 13.3913L13.6537 12.8593C14.1837 13.3913 14.1827 13.3923 14.1817 13.3923L14.1807 13.3943L14.1777 13.3973L14.1707 13.4033L14.1557 13.4173C14.1132 13.4561 14.0678 13.4915 14.0197 13.5233C13.9397 13.5763 13.8337 13.6353 13.7007 13.6843C13.4307 13.7853 13.0727 13.8393 12.6307 13.7713C11.7637 13.6383 10.6147 13.0473 9.08774 11.5293C7.56174 10.0113 6.96574 8.8693 6.83174 8.0033C6.76274 7.5613 6.81774 7.2033 6.91974 6.9333C6.9763 6.78156 7.05664 6.63979 7.15774 6.5133L7.18974 6.4783L7.20374 6.4633L7.20974 6.4573L7.21274 6.4543L7.21474 6.4523L7.50274 6.1663C7.93074 5.7393 7.99074 5.0323 7.58774 4.4933L6.32674 2.8093Z" fill="#8A8A8A"/>
</g>
<defs>
<clipPath id="clip0_5554_18781">
<rect width="20" height="19" fill="white" transform="translate(0.553711 0.5)"/>
</clipPath>
</defs>
</svg>
