<svg width="150" height="150" viewBox="50 20 214 236" fill="none" xmlns="http://www.w3.org/2000/svg">
<path d="M73.6318 26.7094C71.1073 34.4744 68.1498 43.2215 67.0537 46.1388C64.7286 52.7456 64.9672 52.1259 62.3662 61.8688C58.0795 78.3371 58.6288 80.896 66.6537 84.1123L71.0276 85.9204L69.7306 91.9213C69.0267 95.2435 67.7212 100.911 66.8451 104.467C65.969 108.022 65.2687 112.474 65.2893 114.271C65.385 116.015 64.7255 119.08 63.8066 120.967C62.9627 122.803 61.9809 126.206 61.5822 128.523C60.7575 134.08 61.5737 145.055 63.054 147.189C63.6884 148.104 63.9563 149.614 63.7262 150.567C63.3325 152.088 65.8787 156.08 81.0519 177.954C94.9034 197.923 99.2557 204.84 101.021 209.152C102.953 214.026 103.588 214.94 106.149 216.545C109.464 218.754 112.235 217.608 111.819 214.277C111.534 212.1 109.956 210.147 100.098 199.95C97.0654 196.864 91.5928 189.938 87.8392 184.526C80.9134 174.542 79.5882 171.507 76.0399 157.236C75.477 155.14 74.046 151.952 72.9579 150.223C71.0547 147.479 70.8754 145.454 71.188 134.821C71.6914 122.697 72.2453 119.48 76.3361 105.299C77.5566 101.276 78.8929 95.8136 79.4638 93.2636L80.4114 88.5259L83.1585 89.4343C86.7258 90.5614 86.8844 90.7901 85.3211 93.3551C83.9078 95.8151 84.9072 98.0591 87.2364 97.562C88.2731 97.2896 88.974 97.8182 89.4977 99.3762C90.0128 100.601 91.0616 101.791 92.0097 102.034C93.2664 102.4 93.4421 103.296 93.2634 106.251C92.8767 110.03 93.3697 111.383 95.6752 112.94C98.1615 114.597 102.856 113.012 114.527 106.546C125.342 100.454 131.598 98.2286 132.761 99.9054C133.713 101.277 131.051 103.705 116.836 114.213C108.818 120.161 102.608 125.183 102.917 125.307C103.715 125.655 132.436 104.095 133.611 102.254C135.152 99.818 132.943 98.08 129.013 98.6783C126.909 99.018 121.676 101.433 116.858 104.124C103.558 111.615 99.8034 113.109 96.8977 111.972C94.5036 110.93 94.3449 110.701 94.4487 107.799C94.5131 104.358 95.2854 103.704 106.604 97.3729C111.272 94.7868 112.72 93.6612 112.641 92.5842C112.593 91.7121 111.712 91.0836 110.388 91.1035C108.629 90.976 106.722 92.0829 101.66 96.1895C94.5503 101.842 91.418 102.787 90.5208 99.5662C90.2836 98.2605 90.7252 97.6121 92.565 96.8913C101.186 93.5782 108.971 87.4539 106.935 85.4822C105.472 84.0153 98.544 87.842 93.1546 93.0831C89.0541 96.9698 86.8306 97.6194 86.1755 94.9081C85.6433 93.0165 95.6005 84.241 100.392 82.4746C101.451 82.0736 102.095 81.3964 101.778 80.9391C101.514 80.558 100.049 81.0165 98.6235 82.0135C95.2476 84.3747 94.741 83.4839 96.4167 78.3501C98.7775 71.1523 101.827 58.0398 103.665 47.3586C104.715 41.6438 106.287 34.4323 107.277 31.3625C109.554 23.8836 108.943 20.915 104.279 17.725C98.8089 13.8541 81.7824 10.0288 79.0817 11.9178C78.6315 12.2327 76.2314 18.8919 73.6318 26.7094ZM88.7041 13.9036C97.1363 15.1371 104.213 18.1111 102.037 19.6328C100.387 20.7871 87.9509 18.279 83.4319 15.78C81.3686 14.7329 79.989 13.5471 80.3641 13.2848C80.8142 12.9699 84.5145 13.3249 88.7041 13.9036ZM85.2652 17.7804C91.8525 20.5306 102.706 21.8817 103.859 20.1701C105.033 18.3297 106.919 20.4064 107.155 23.6374C107.198 25.3053 106.728 28.8037 105.954 31.3824C105.308 33.9849 103.581 42.0973 102.138 49.3326C99.1793 64.9852 94.0266 83.4176 91.9824 86.0925C90.6269 87.8329 90.4991 87.8092 90.7035 85.8551C90.8278 84.7493 92.6328 77.714 94.8573 70.1588C101.433 47.6746 103.735 31.2362 100.41 30.6188C99.2591 30.4051 98.734 30.7724 98.1373 32.3217C97.0548 34.7767 96.6047 35.0915 96.284 33.5048C95.7824 31.818 92.0293 31.3868 92.1472 33.0023C92.1643 33.6695 91.179 35.9434 90.0879 38.0649C87.1283 43.7571 83.1961 58.1664 82.8114 65.0007C82.4933 71.4489 82.6911 72.2161 84.7646 71.6714C87.4467 71.0406 93.2812 49.4147 93.4744 39.092C93.4724 36.0372 93.8848 33.2585 94.2599 32.9962C95.6103 32.0517 96.0252 37.308 94.989 42.5605C94.1608 46.9884 94.1779 47.6556 95.4225 46.5586C96.2171 45.7765 96.9773 43.6601 97.0539 41.6822C97.4078 34.643 100.023 29.4181 100.61 34.4408C101.018 37.4381 98.3495 54.4726 96.9039 58.6531L95.8164 61.904L96.0273 57.2287C96.2146 54.6074 96.5127 51.3427 96.8842 49.9509C97.2029 48.4828 97.1908 47.0197 96.8736 46.5625C96.5564 46.1052 96.0263 47.2683 95.844 49.0937C95.7146 50.9953 95.2987 52.6445 94.9986 52.8544C94.6985 53.0643 94.5978 52.116 94.7665 50.7529C94.9352 49.3898 94.8038 48.2366 94.4201 48.1653C93.2691 47.9516 89.928 73.4933 90.8796 74.8652C91.3554 75.5512 91.0881 79.0208 90.212 82.5766C88.69 88.7349 87.5239 90.9088 86.5722 89.5369C86.3079 89.1558 81.9954 87.7575 76.9684 86.293C66.7116 83.3927 63.4665 81.9269 61.6161 79.2594C59.8714 76.7442 62.5454 63.8941 68.757 45.0606C71.4981 36.8046 74.73 26.8469 76.0562 22.9763C77.3295 19.0294 78.5671 15.6736 78.7922 15.5161C79.0172 15.3587 81.9451 16.3671 85.2652 17.7804ZM92.2434 39.7267C92.2117 46.4273 86.9281 68.6867 85.1276 69.946C83.7772 70.8905 83.5229 68.9177 84.2998 62.4882C85.0102 56.4448 90.3658 37.9837 91.7162 37.0392C92.0913 36.7768 92.2756 38.0062 92.2434 39.7267ZM94.6533 60.2272C94.1015 66.4993 92.5794 72.6576 91.4541 73.4447C91.229 73.6021 91.7265 69.1792 92.6262 63.5693C93.4509 58.012 94.4292 53.4791 94.8128 53.5503C95.0686 53.5978 95.0178 56.5764 94.6533 60.2272ZM75.971 87.1038C79.6576 87.9211 79.6798 87.7924 75.9947 101.916C72.0267 116.916 71.8102 117.407 68.8466 116.99C66.7254 116.662 66.4389 116.41 66.4096 114.279C66.3719 111.816 71.8292 87.3973 72.5265 86.7963C72.6987 86.5627 74.2555 86.7189 75.971 87.1038ZM105.276 86.303C106.343 86.2356 106.405 86.6454 105.266 87.8948C102.405 91.4805 93.9461 96.1517 93.8726 94.2788C93.8162 93.0731 103.419 86.3567 105.276 86.303ZM69.551 118.648C70.2519 119.176 70.6019 122.893 70.3381 127.492C70.0435 131.886 69.8668 137.896 69.816 140.875C69.8644 146.727 69.3256 147.557 65.9119 147.454C63.7463 147.384 63.7685 147.255 62.8863 141.647C60.9855 130.072 65.2486 115.658 69.551 118.648ZM109.333 92.634C111.054 92.223 111.181 92.2468 110.276 93.6723C108.929 95.7463 100.012 100.399 100.728 98.5396C101.422 96.8092 106.673 93.1361 109.333 92.634ZM69.0376 149.23C71.2118 149.633 72.0184 150.314 73.1014 152.839C75.334 157.503 77.9185 168.939 76.9261 168.954C75.4529 169.079 64.5756 152.916 64.8858 151.115C65.2624 148.927 65.9683 148.66 69.0376 149.23ZM107.985 209.714C109.765 211.638 110.492 213.168 110.482 214.76C110.361 216.995 110.361 216.995 108.103 216.31C105.846 215.625 105.476 215.092 99.2658 203.248L96.6938 198.255L101.031 202.58C103.384 205.009 106.469 208.171 107.985 209.714Z" fill="#2D2D2D"/>
<path d="M138.758 92.0539C139.022 92.4349 139.737 92.5012 140.262 92.1339C140.787 91.7666 142.705 92.1228 144.354 92.8937C147.418 94.2593 148.656 95.8835 169.643 126.139C181.876 143.615 191.589 158.1 191.289 158.31C190.989 158.52 188.969 159.141 186.821 159.738C183.711 160.555 179.051 163.474 166.074 172.551L149.27 184.304L136.878 166.599C122.552 145.946 115.798 137.654 112.223 136.193C108.338 134.609 107.759 136.825 110.038 144.286C113.249 154.377 121.954 166.285 134.598 177.928C139.966 182.775 144.505 187.071 144.717 187.375C145.14 187.985 140.729 193.673 138.629 195.142C136.603 196.559 130.461 189.31 111.615 163.103C101.346 148.781 92.3456 136.287 91.6056 135.22C90.0197 132.934 91.0593 128.811 93.6848 126.975C95.0351 126.03 95.2516 125.54 94.2286 125.35C92.3104 124.993 89.0646 130.433 89.4724 133.43C89.6209 135.25 91.9998 138.68 99.7585 148.42C105.411 155.445 112.856 165.857 116.574 171.859C126.313 187.345 137.091 198.708 141.449 197.923C142.742 197.698 152.493 190.878 168.079 179.297C190.483 162.609 192.553 160.935 192.629 158.957C192.639 157.366 188.318 150.654 171.508 126.419C159.297 108.814 149.217 94.9253 147.762 93.7921C144.175 90.8685 136.961 89.4627 138.758 92.0539ZM114.359 139.113C116.334 140.675 122.44 148.514 133.049 163.166C148.089 183.885 148.701 184.928 147.214 185.515C145.983 186.15 143.806 184.617 137.451 178.988C130.161 172.655 128.139 170.222 120.588 159.657C113.535 149.65 111.804 146.672 110.603 142.532C109.082 136.805 110.026 135.918 114.359 139.113ZM186.118 161.134C188.514 160.251 190.34 159.993 190.101 160.612C189.31 162.524 151.903 189.706 151.269 188.791C149.155 185.743 149.402 185.457 165.83 173.966C176.579 166.335 183.092 162.232 186.118 161.134ZM148.829 189.932C150.54 191.112 150.495 191.37 147.87 193.206C141.944 197.351 138.68 197.144 142.132 192.805C144.843 189.324 146.833 188.499 148.829 189.932ZM149.765 188.711C149.963 189.478 149.579 189.407 148.998 188.569C148.341 187.783 148.249 187.168 148.686 187.316C149.069 187.387 149.62 188.02 149.765 188.711Z" fill="#2D2D2D"/>
<path d="M119.86 230.692C121.207 231.873 123 231.559 123.565 230.011C124.035 228.721 122.665 227.337 120.824 227.242C119.156 227.212 118.514 229.512 119.86 230.692Z" fill="#2D2D2D"/>
<path d="M75.0244 26.9555C72.4999 34.7205 69.5424 43.4676 68.4463 46.3849C66.1211 52.9917 66.3598 52.372 63.7588 62.1149C59.472 78.5832 60.0214 81.1421 68.0462 84.3584L72.4202 86.1665L71.1232 92.1674C70.4193 95.4896 69.1138 101.157 68.2377 104.713C67.3616 108.268 66.6613 112.72 66.6819 114.517C66.7776 116.261 66.118 119.326 65.1992 121.214C64.3553 123.049 63.3735 126.452 62.9747 128.769C62.15 134.326 62.9663 145.301 64.4466 147.435C65.081 148.35 65.3489 149.86 65.1188 150.813C64.7251 152.334 67.2713 156.326 82.4445 178.2C96.296 198.169 100.648 205.086 102.414 209.398C104.346 214.272 104.98 215.186 107.542 216.791C110.857 219 113.628 217.854 113.211 214.523C112.926 212.346 111.349 210.393 101.49 200.196C98.458 197.11 92.9854 190.184 89.2317 184.772C82.306 174.788 80.9808 171.753 77.4325 157.482C76.8696 155.386 75.4386 152.198 74.3505 150.469C72.4472 147.725 72.268 145.7 72.5806 135.067C73.084 122.943 73.6378 119.726 77.7287 105.545C78.9492 101.522 80.2854 96.0597 80.8564 93.5097L81.804 88.772L84.5511 89.6804C88.1184 90.8075 88.277 91.0362 86.7136 93.6012C85.3003 96.0612 86.2998 98.3052 88.629 97.808C89.6657 97.5357 90.3666 98.0643 90.8902 99.6223C91.4053 100.847 92.4541 102.037 93.4022 102.28C94.659 102.646 94.8347 103.542 94.656 106.497C94.2693 110.276 94.7622 111.629 97.0678 113.186C99.5541 114.843 104.248 113.258 115.919 106.793C126.735 100.7 132.991 98.4747 134.154 100.151C135.105 101.523 132.444 103.951 118.229 114.459C110.21 120.407 104.001 125.43 104.309 125.553C105.107 125.901 133.828 104.341 135.003 102.5C136.544 100.064 134.336 98.3261 130.406 98.9244C128.301 99.2641 123.069 101.679 118.25 104.37C104.951 111.861 101.196 113.355 98.2903 112.218C95.8961 111.176 95.7375 110.947 95.8412 108.045C95.9057 104.604 96.678 103.951 107.996 97.619C112.665 95.0329 114.112 93.9073 114.034 92.8303C113.986 91.9582 113.104 91.3297 111.781 91.3496C110.021 91.2221 108.115 92.329 103.053 96.4356C95.9429 102.088 92.8106 103.033 91.9134 99.8123C91.6762 98.5066 92.1178 97.8582 93.9576 97.1373C102.579 93.8243 110.364 87.7 108.327 85.7283C106.864 84.2614 99.9366 88.0881 94.5471 93.3292C90.4466 97.2159 88.2232 97.8655 87.5681 95.1542C87.0359 93.2626 96.9931 84.4871 101.784 82.7207C102.843 82.3197 103.488 81.6425 103.171 81.1852C102.906 80.8041 101.442 81.2626 100.016 82.2596C96.6401 84.6208 96.1336 83.73 97.8092 78.5962C100.17 71.3984 103.219 58.2859 105.058 47.6047C106.108 41.8899 107.679 34.6784 108.669 31.6086C110.947 24.1297 110.336 21.1611 105.672 17.9711C100.201 14.1002 83.175 10.2749 80.4742 12.1639C80.0241 12.4788 77.6239 19.138 75.0244 26.9555ZM90.0967 14.1497C98.5288 15.3832 105.606 18.3572 103.43 19.8788C101.779 21.0332 89.3435 18.5251 84.8245 16.0261C82.7612 14.979 81.3816 13.7932 81.7567 13.5308C82.2068 13.216 85.907 13.571 90.0967 14.1497ZM86.6578 18.0265C93.2451 20.7767 104.099 22.1278 105.251 20.4162C106.426 18.5758 108.312 20.6525 108.548 23.8835C108.59 25.5514 108.12 29.0498 107.346 31.6285C106.7 34.231 104.974 42.3434 103.53 49.5787C100.572 65.2313 95.4191 83.6637 93.3749 86.3386C92.0195 88.079 91.8916 88.0552 92.096 86.1012C92.2204 84.9954 94.0254 77.9601 96.2498 70.4049C102.826 47.9207 105.128 31.4823 101.803 30.8649C100.652 30.6512 100.127 31.0185 99.5299 32.5677C98.4474 35.0228 97.9973 35.3376 97.6765 33.7509C97.175 32.0641 93.4219 31.6329 93.5398 33.2484C93.5569 33.9156 92.5715 36.1895 91.4805 38.311C88.5209 44.0032 84.5886 58.4125 84.204 65.2468C83.8858 71.695 84.0837 72.4622 86.1571 71.9175C88.8393 71.2867 94.6737 49.6608 94.867 39.3381C94.865 36.2833 95.2773 33.5046 95.6524 33.2423C97.0028 32.2978 97.4178 37.5541 96.3816 42.8066C95.5533 47.2345 95.5705 47.9017 96.8151 46.8047C97.6096 46.0226 98.3699 43.9062 98.4464 41.9283C98.8004 34.8891 101.416 29.6642 102.003 34.6869C102.41 37.6842 99.742 54.7187 98.2965 58.8991L97.209 62.1501L97.4199 57.4748C97.6072 54.8535 97.9052 51.5888 98.2768 50.197C98.5955 48.7289 98.5834 47.2658 98.2662 46.8085C97.949 46.3512 97.4188 47.5144 97.2366 49.3398C97.1072 51.2414 96.6913 52.8906 96.3912 53.1005C96.0911 53.3104 95.9904 52.3621 96.1591 50.999C96.3277 49.6359 96.1963 48.4827 95.8127 48.4114C94.6616 48.1977 91.3206 73.7394 92.2722 75.1113C92.748 75.7973 92.4807 79.2669 91.6046 82.8227C90.0826 88.981 88.9165 91.1549 87.9648 89.783C87.7005 89.4019 83.388 88.0036 78.361 86.5391C68.1041 83.6387 64.859 82.173 63.0087 79.5054C61.264 76.9903 63.938 64.1402 70.1496 45.3067C72.8906 37.0507 76.1226 27.093 77.4488 23.2224C78.7221 19.2755 79.9597 15.9197 80.1847 15.7622C80.4098 15.6048 83.3377 16.6132 86.6578 18.0265ZM93.636 39.9728C93.6043 46.6734 88.3207 68.9328 86.5202 70.1921C85.1698 71.1366 84.9155 69.1638 85.6923 62.7343C86.4027 56.6909 91.7584 38.2298 93.1088 37.2853C93.4839 37.0229 93.6682 38.2523 93.636 39.9728ZM96.0459 60.4733C95.494 66.7454 93.972 72.9037 92.8467 73.6907C92.6216 73.8482 93.119 69.4252 94.0188 63.8154C94.8435 58.258 95.8218 53.7252 96.2054 53.7964C96.4612 53.8439 96.4104 56.8225 96.0459 60.4733ZM77.3636 87.3499C81.0502 88.1672 81.0724 88.0385 77.3873 102.162C73.4193 117.162 73.2028 117.653 70.2392 117.236C68.1179 116.908 67.8314 116.656 67.8022 114.526C67.7644 112.062 73.2218 87.6434 73.9191 87.0424C74.0913 86.8088 75.6481 86.965 77.3636 87.3499ZM106.668 86.5491C107.736 86.4817 107.797 86.8915 106.658 88.1409C103.797 91.7266 95.3387 96.3978 95.2651 94.5249C95.2087 93.3192 104.811 86.6028 106.668 86.5491ZM70.9436 118.894C71.6445 119.422 71.9944 123.139 71.7306 127.738C71.4361 132.132 71.2594 138.142 71.2086 141.121C71.257 146.973 70.7182 147.803 67.3045 147.7C65.1389 147.63 65.1611 147.501 64.2789 141.893C62.3781 130.318 66.6412 115.904 70.9436 118.894ZM110.726 92.8801C112.446 92.4691 112.574 92.4928 111.669 93.9184C110.322 95.9924 101.404 100.645 102.12 98.7857C102.814 97.0553 108.066 93.3822 110.726 92.8801ZM70.4302 149.476C72.6043 149.879 73.411 150.56 74.494 153.085C76.7266 157.75 79.3111 169.186 78.3187 169.2C76.8455 169.325 65.9682 153.162 66.2784 151.361C66.655 149.173 67.3609 148.906 70.4302 149.476ZM109.378 209.96C111.158 211.885 111.884 213.414 111.874 215.006C111.754 217.241 111.754 217.241 109.496 216.556C107.238 215.871 106.868 215.338 100.658 203.494L98.0864 198.501L102.423 202.826C104.776 205.255 107.861 208.417 109.378 209.96Z" fill="#2D2D2D"/>
<path d="M137.173 91.4655C137.437 91.8465 138.152 91.9128 138.677 91.5455C139.202 91.1782 141.12 91.5344 142.769 92.3053C145.833 93.6709 147.071 95.2951 168.058 125.551C180.291 143.027 190.004 157.512 189.704 157.722C189.404 157.932 187.384 158.552 185.236 159.149C182.126 159.966 177.466 162.886 164.489 171.963L147.685 183.715L135.293 166.011C120.967 145.358 114.213 137.065 110.638 135.605C106.753 134.021 106.174 136.237 108.453 143.698C111.664 153.789 120.369 165.696 133.013 177.339C138.381 182.187 142.92 186.482 143.132 186.787C143.555 187.397 139.144 193.085 137.044 194.554C135.018 195.97 128.876 188.722 110.03 162.515C99.761 148.192 90.7607 135.699 90.0206 134.632C88.4347 132.346 89.4743 128.223 92.0999 126.387C93.4501 125.442 93.6666 124.951 92.6436 124.761C90.7254 124.405 87.4797 129.844 87.8875 132.842C88.036 134.662 90.4148 138.091 98.1736 147.831C103.826 154.856 111.271 165.269 114.989 171.27C124.728 186.756 135.506 198.119 139.864 197.335C141.157 197.11 150.909 190.289 166.494 178.709C188.898 162.02 190.968 160.347 191.044 158.369C191.055 156.777 186.733 150.066 169.923 125.831C157.712 108.226 147.632 94.3369 146.177 93.2037C142.59 90.2801 135.376 88.8743 137.173 91.4655ZM112.774 138.525C114.749 140.086 120.855 147.926 131.464 162.577C146.504 183.297 147.116 184.34 145.629 184.927C144.398 185.562 142.221 184.029 135.866 178.4C128.576 172.067 126.554 169.633 119.003 159.069C111.95 149.061 110.219 146.084 109.018 141.944C107.497 136.217 108.442 135.33 112.774 138.525ZM184.533 160.546C186.929 159.663 188.755 159.404 188.516 160.024C187.725 161.935 150.318 189.117 149.684 188.203C147.57 185.154 147.817 184.868 164.245 173.378C174.994 165.747 181.507 161.644 184.533 160.546ZM147.244 189.343C148.955 190.524 148.91 190.781 146.285 192.618C140.359 196.763 137.095 196.555 140.547 192.216C143.258 188.736 145.248 187.91 147.244 189.343ZM148.18 188.123C148.378 188.89 147.995 188.819 147.413 187.98C146.757 187.195 146.664 186.58 147.101 186.727C147.485 186.799 148.035 187.432 148.18 188.123Z" fill="#2D2D2D"/>
<path d="M118.281 230.109C119.627 231.29 121.42 230.976 121.985 229.428C122.456 228.139 121.085 226.754 119.244 226.659C117.577 226.629 116.935 228.929 118.281 230.109Z" fill="#2D2D2D"/>
<path d="M75.8437 26.3825C73.3192 34.1475 70.3617 42.8946 69.2656 45.8119C66.9405 52.4187 67.1791 51.799 64.5781 61.5419C60.2914 78.0102 60.8407 80.5691 68.8656 83.7854L73.2395 85.5935L71.9425 91.5944C71.2386 94.9166 69.9331 100.584 69.057 104.14C68.181 107.695 67.4806 112.147 67.5013 113.944C67.5969 115.688 66.9374 118.753 66.0185 120.641C65.1746 122.476 64.1928 125.879 63.7941 128.196C62.9694 133.753 63.7856 144.728 65.2659 146.862C65.9003 147.777 66.1682 149.287 65.9381 150.24C65.5444 151.761 68.0906 155.753 83.2638 177.627C97.1153 197.596 101.468 204.513 103.233 208.825C105.165 213.699 105.8 214.613 108.361 216.218C111.676 218.427 114.447 217.281 114.031 213.95C113.746 211.773 112.168 209.82 102.309 199.623C99.2773 196.537 93.8047 189.611 90.0511 184.199C83.1253 174.215 81.8001 171.18 78.2518 156.909C77.6889 154.813 76.2579 151.625 75.1698 149.896C73.2666 147.152 73.0873 145.127 73.3999 134.494C73.9034 122.37 74.4572 119.153 78.5481 104.972C79.7685 100.949 81.1048 95.4867 81.6757 92.9367L82.6233 88.199L85.3704 89.1074C88.9377 90.2345 89.0963 90.4632 87.533 93.0282C86.1197 95.4882 87.1191 97.7322 89.4483 97.235C90.485 96.9627 91.1859 97.4913 91.7096 99.0493C92.2247 100.274 93.2735 101.464 94.2216 101.707C95.4783 102.073 95.654 102.969 95.4753 105.924C95.0886 109.703 95.5816 111.056 97.8871 112.613C100.373 114.27 105.068 112.685 116.739 106.22C127.554 100.127 133.81 97.9017 134.973 99.5785C135.925 100.95 133.263 103.378 119.048 113.886C111.03 119.834 104.82 124.857 105.129 124.98C105.927 125.328 134.648 103.768 135.822 101.927C137.364 99.4911 135.155 97.7531 131.225 98.3514C129.121 98.6911 123.888 101.106 119.069 103.797C105.77 111.288 102.015 112.782 99.1096 111.645C96.7155 110.603 96.5569 110.374 96.6606 107.472C96.725 104.031 97.4974 103.378 108.816 97.046C113.484 94.4599 114.932 93.3343 114.853 92.2573C114.805 91.3852 113.924 90.7567 112.6 90.7766C110.841 90.6491 108.934 91.756 103.872 95.8626C96.7622 101.515 93.63 102.46 92.7327 99.2393C92.4955 97.9336 92.9371 97.2852 94.7769 96.5643C103.398 93.2513 111.183 87.127 109.147 85.1553C107.684 83.6884 100.756 87.5151 95.3665 92.7562C91.266 96.6429 89.0425 97.2925 88.3874 94.5812C87.8552 92.6896 97.8124 83.9141 102.604 82.1477C103.663 81.7467 104.307 81.0695 103.99 80.6122C103.726 80.2311 102.261 80.6896 100.835 81.6866C97.4595 84.0478 96.953 83.157 98.6286 78.0232C100.989 70.8254 104.039 57.7129 105.877 47.0317C106.927 41.3169 108.498 34.1054 109.489 31.0356C111.766 23.5567 111.155 20.5881 106.491 17.3981C101.021 13.5272 83.9943 9.70193 81.2936 11.5909C80.8434 11.9058 78.4433 18.565 75.8437 26.3825ZM90.916 13.5767C99.3482 14.8102 106.425 17.7842 104.249 19.3059C102.599 20.4602 90.1628 17.9521 85.6438 15.4531C83.5805 14.406 82.2009 13.2202 82.576 12.9579C83.0261 12.643 86.7264 12.998 90.916 13.5767ZM87.4771 17.4535C94.0645 20.2037 104.918 21.5548 106.07 19.8432C107.245 18.0028 109.131 20.0795 109.367 23.3105C109.41 24.9784 108.939 28.4768 108.166 31.0555C107.52 33.658 105.793 41.7704 104.35 49.0057C101.391 64.6583 96.2385 83.0907 94.1943 85.7656C92.8389 87.506 92.711 87.4823 92.9154 85.5282C93.0397 84.4224 94.8447 77.3871 97.0692 69.8319C103.645 47.3477 105.947 30.9093 102.622 30.2919C101.471 30.0782 100.946 30.4455 100.349 31.9948C99.2667 34.4498 98.8166 34.7646 98.4959 33.1779C97.9944 31.4911 94.2413 31.0599 94.3591 32.6754C94.3762 33.3426 93.3909 35.6165 92.2998 37.738C89.3402 43.4302 85.408 57.8395 85.0234 64.6738C84.7052 71.122 84.9031 71.8892 86.9765 71.3445C89.6586 70.7137 95.4931 49.0878 95.6864 38.7651C95.6843 35.7103 96.0967 32.9316 96.4718 32.6693C97.8222 31.7248 98.2371 36.9811 97.2009 42.2336C96.3727 46.6615 96.3898 47.3287 97.6345 46.2317C98.429 45.4496 99.1893 43.3332 99.2658 41.3553C99.6197 34.3161 102.235 29.0912 102.822 34.1139C103.23 37.1112 100.561 54.1457 99.1158 58.3261L98.0283 61.5771L98.2392 56.9018C98.4265 54.2805 98.7246 51.0158 99.0961 49.624C99.4148 48.1559 99.4028 46.6928 99.0856 46.2356C98.7683 45.7782 98.2382 46.9414 98.0559 48.7668C97.9265 50.6684 97.5106 52.3176 97.2105 52.5275C96.9105 52.7374 96.8098 51.7891 96.9784 50.426C97.1471 49.0629 97.0157 47.9097 96.632 47.8384C95.481 47.6247 92.1399 73.1664 93.0915 74.5383C93.5673 75.2243 93.3 78.6939 92.4239 82.2497C90.9019 88.408 89.7358 90.5819 88.7842 89.21C88.5198 88.8289 84.2073 87.4306 79.1803 85.9661C68.9235 83.0657 65.6784 81.6 63.828 78.9325C62.0833 76.4173 64.7574 63.5672 70.969 44.7337C73.71 36.4777 76.9419 26.52 78.2681 22.6494C79.5414 18.7025 80.779 15.3467 81.0041 15.1892C81.2291 15.0318 84.157 16.0402 87.4771 17.4535ZM94.4553 39.3998C94.4236 46.1004 89.14 68.3598 87.3395 69.6191C85.9891 70.5636 85.7348 68.5908 86.5117 62.1613C87.2221 56.1179 92.5777 37.6568 93.9281 36.7123C94.3032 36.4499 94.4875 37.6793 94.4553 39.3998ZM96.8652 59.9003C96.3134 66.1724 94.7913 72.3307 93.666 73.1178C93.441 73.2752 93.9384 68.8522 94.8381 63.2424C95.6628 57.685 96.6411 53.1522 97.0248 53.2234C97.2805 53.2709 97.2297 56.2495 96.8652 59.9003ZM78.1829 86.7769C81.8695 87.5942 81.8917 87.4655 78.2067 101.589C74.2387 116.589 74.0221 117.08 71.0585 116.663C68.9373 116.335 68.6508 116.083 68.6216 113.953C68.5838 111.489 74.0411 87.0704 74.7384 86.4694C74.9106 86.2358 76.4675 86.392 78.1829 86.7769ZM107.488 85.9761C108.555 85.9087 108.617 86.3185 107.478 87.5679C104.617 91.1536 96.158 95.8248 96.0845 93.9519C96.0281 92.7462 105.631 86.0298 107.488 85.9761ZM71.7629 118.321C72.4638 118.849 72.8138 122.566 72.55 127.165C72.2555 131.559 72.0788 137.569 72.0279 140.548C72.0763 146.4 71.5376 147.23 68.1238 147.127C65.9582 147.057 65.9804 146.928 65.0982 141.32C63.1974 129.745 67.4605 115.331 71.7629 118.321ZM111.545 92.3071C113.265 91.8961 113.393 91.9199 112.488 93.3454C111.141 95.4194 102.224 100.072 102.94 98.2127C103.634 96.4823 108.885 92.8092 111.545 92.3071ZM71.2496 148.903C73.4237 149.306 74.2303 149.987 75.3134 152.512C77.5459 157.177 80.1305 168.613 79.1381 168.627C77.6648 168.752 66.7875 152.589 67.0977 150.788C67.4743 148.6 68.1802 148.333 71.2496 148.903ZM110.197 209.387C111.977 211.312 112.704 212.841 112.694 214.433C112.573 216.668 112.573 216.668 110.315 215.983C108.058 215.298 107.687 214.765 101.478 202.921L98.9058 197.928L103.242 202.253C105.596 204.682 108.681 207.844 110.197 209.387Z" fill="#2D2D2D"/>
<path d="M138.297 93.2965C138.561 93.6776 139.275 93.7438 139.801 93.3766C140.326 93.0093 142.244 93.3654 143.893 94.1364C146.957 95.502 148.195 97.1262 169.181 127.382C181.415 144.858 191.128 159.343 190.828 159.553C190.528 159.763 188.507 160.383 186.359 160.98C183.249 161.797 178.59 164.717 165.612 173.794L148.809 185.546L136.417 167.842C122.091 147.189 115.337 138.897 111.761 137.436C107.877 135.852 107.297 138.068 109.576 145.529C112.788 155.62 121.493 167.527 134.137 179.17C139.505 184.018 144.044 188.313 144.255 188.618C144.678 189.228 140.268 194.916 138.167 196.385C136.142 197.801 130 190.553 111.153 164.346C100.884 150.023 91.8842 137.53 91.1441 136.463C89.5583 134.177 90.5979 130.054 93.2234 128.218C94.5737 127.273 94.7901 126.782 93.7671 126.592C91.849 126.236 88.6032 131.675 89.011 134.673C89.1595 136.493 91.5383 139.922 99.2971 149.662C104.95 156.687 112.395 167.1 116.113 173.102C125.851 188.587 136.63 199.95 140.988 199.166C142.28 198.941 152.032 192.12 167.618 180.54C190.022 163.852 192.091 162.178 192.168 160.2C192.178 158.608 187.857 151.897 171.046 127.662C158.835 110.057 148.755 96.168 147.301 95.0348C143.713 92.1112 136.499 90.7054 138.297 93.2965ZM113.898 140.356C115.872 141.917 121.979 149.757 132.587 164.408C147.627 185.128 148.24 186.171 146.753 186.758C145.522 187.393 143.344 185.86 136.989 180.231C129.7 173.898 127.677 171.464 120.127 160.9C113.074 150.892 111.343 147.915 110.142 143.775C108.621 138.048 109.565 137.161 113.898 140.356ZM185.657 162.377C188.052 161.494 189.878 161.235 189.64 161.855C188.849 163.767 151.442 190.948 150.808 190.034C148.693 186.986 148.94 186.699 165.369 175.209C176.118 167.578 182.631 163.475 185.657 162.377ZM148.368 191.174C150.078 192.355 150.034 192.612 147.408 194.449C141.482 198.594 138.219 198.386 141.671 194.048C144.382 190.567 146.371 189.741 148.368 191.174ZM149.304 189.954C149.502 190.721 149.118 190.65 148.537 189.811C147.88 189.026 147.788 188.411 148.224 188.558C148.608 188.63 149.159 189.263 149.304 189.954Z" fill="#2D2D2D"/>
<path d="M119.406 231.939C120.753 233.12 122.546 232.806 123.111 231.258C123.581 229.969 122.211 228.584 120.369 228.489C118.702 228.459 118.06 230.759 119.406 231.939Z" fill="#2D2D2D"/>
</svg>
