<svg width="214" height="236" viewBox="0 0 214 236" fill="none" xmlns="http://www.w3.org/2000/svg">
<path d="M73.6318 26.7102C71.1073 34.4752 68.1498 43.2222 67.0537 46.1395C64.7286 52.7463 64.9672 52.1267 62.3662 61.8695C58.0795 78.3379 58.6288 80.8967 66.6537 84.113L71.0276 85.9211L69.7306 91.922C69.0267 95.2442 67.7212 100.911 66.8451 104.467C65.969 108.023 65.2687 112.475 65.2893 114.271C65.385 116.016 64.7255 119.08 63.8066 120.968C62.9627 122.804 61.9809 126.207 61.5822 128.523C60.7575 134.081 61.5737 145.056 63.054 147.19C63.6884 148.104 63.9563 149.615 63.7262 150.568C63.3325 152.089 65.8787 156.081 81.0519 177.955C94.9034 197.924 99.2557 204.841 101.021 209.152C102.953 214.026 103.588 214.941 106.149 216.545C109.464 218.755 112.235 217.609 111.819 214.278C111.534 212.1 109.956 210.147 100.098 199.95C97.0654 196.864 91.5928 189.938 87.8392 184.527C80.9134 174.543 79.5882 171.508 76.0399 157.237C75.477 155.14 74.046 151.953 72.9579 150.224C71.0547 147.48 70.8754 145.455 71.188 134.822C71.6914 122.698 72.2453 119.481 76.3361 105.3C77.5566 101.277 78.8929 95.8144 79.4638 93.2643L80.4114 88.5266L83.1585 89.435C86.7258 90.5622 86.8844 90.7908 85.3211 93.3558C83.9078 95.8159 84.9072 98.0598 87.2364 97.5627C88.2731 97.2904 88.974 97.8189 89.4977 99.3769C90.0128 100.601 91.0616 101.792 92.0097 102.035C93.2664 102.401 93.4421 103.297 93.2634 106.251C92.8767 110.031 93.3697 111.384 95.6752 112.941C98.1615 114.598 102.856 113.012 114.527 106.547C125.342 100.454 131.598 98.2294 132.761 99.9061C133.713 101.278 131.051 103.706 116.836 114.214C108.818 120.162 102.608 125.184 102.917 125.308C103.715 125.655 132.436 104.095 133.611 102.255C135.152 99.8188 132.943 98.0807 129.013 98.679C126.909 99.0188 121.676 101.434 116.858 104.125C103.558 111.616 99.8034 113.11 96.8977 111.973C94.5036 110.931 94.3449 110.702 94.4487 107.799C94.5131 104.359 95.2854 103.705 106.604 97.3736C111.272 94.7876 112.72 93.6619 112.641 92.5849C112.593 91.7128 111.712 91.0843 110.388 91.1042C108.629 90.9767 106.722 92.0836 101.66 96.1902C94.5503 101.842 91.418 102.788 90.5208 99.5669C90.2836 98.2612 90.7252 97.6128 92.565 96.892C101.186 93.5789 108.971 87.4546 106.935 85.483C105.472 84.0161 98.544 87.8427 93.1546 93.0838C89.0541 96.9705 86.8306 97.6201 86.1755 94.9089C85.6433 93.0172 95.6005 84.2418 100.392 82.4753C101.451 82.0743 102.095 81.3971 101.778 80.9398C101.514 80.5588 100.049 81.0172 98.6235 82.0142C95.2476 84.3755 94.741 83.4846 96.4167 78.3508C98.7775 71.153 101.827 58.0405 103.665 47.3594C104.715 41.6446 106.287 34.433 107.277 31.3632C109.554 23.8843 108.943 20.9157 104.279 17.7257C98.8089 13.8548 81.7824 10.0296 79.0817 11.9186C78.6315 12.2334 76.2314 18.8927 73.6318 26.7102ZM88.7041 13.9043C97.1363 15.1379 104.213 18.1118 102.037 19.6335C100.387 20.7879 87.9509 18.2797 83.4319 15.7807C81.3686 14.7336 79.989 13.5478 80.3641 13.2855C80.8142 12.9707 84.5145 13.3256 88.7041 13.9043ZM85.2652 17.7811C91.8525 20.5314 102.706 21.8825 103.859 20.1708C105.033 18.3305 106.919 20.4071 107.155 23.6381C107.198 25.3061 106.728 28.8044 105.954 31.3832C105.308 33.9857 103.581 42.0981 102.138 49.3334C99.1793 64.9859 94.0266 83.4183 91.9824 86.0933C90.6269 87.8336 90.4991 87.8099 90.7035 85.8558C90.8278 84.7501 92.6328 77.7147 94.8573 70.1596C101.433 47.6754 103.735 31.2369 100.41 30.6195C99.2591 30.4058 98.734 30.7731 98.1373 32.3224C97.0548 34.7774 96.6047 35.0923 96.284 33.5055C95.7824 31.8188 92.0293 31.3876 92.1472 33.0031C92.1643 33.6702 91.179 35.9441 90.0879 38.0656C87.1283 43.7578 83.1961 58.1671 82.8114 65.0014C82.4933 71.4497 82.6911 72.2168 84.7646 71.6722C87.4467 71.0413 93.2812 49.4154 93.4744 39.0928C93.4724 36.0379 93.8848 33.2593 94.2599 32.9969C95.6103 32.0524 96.0252 37.3087 94.989 42.5612C94.1608 46.9891 94.1779 47.6563 95.4225 46.5594C96.2171 45.7773 96.9773 43.6608 97.0539 41.683C97.4078 34.6438 100.023 29.4188 100.61 34.4415C101.018 37.4389 98.3495 54.4733 96.9039 58.6538L95.8164 61.9047L96.0273 57.2294C96.2146 54.6082 96.5127 51.3434 96.8842 49.9516C97.2029 48.4835 97.1908 47.0205 96.8736 46.5632C96.5564 46.1059 96.0263 47.2691 95.844 49.0945C95.7146 50.9961 95.2987 52.6453 94.9986 52.8552C94.6985 53.065 94.5978 52.1167 94.7665 50.7536C94.9352 49.3905 94.8038 48.2373 94.4201 48.1661C93.2691 47.9524 89.928 73.494 90.8796 74.8659C91.3554 75.5519 91.0881 79.0215 90.212 82.5773C88.69 88.7356 87.5239 90.9096 86.5722 89.5377C86.3079 89.1566 81.9954 87.7583 76.9684 86.2937C66.7116 83.3934 63.4665 81.9277 61.6161 79.2601C59.8714 76.7449 62.5454 63.8948 68.757 45.0614C71.4981 36.8054 74.73 26.8477 76.0562 22.977C77.3295 19.0302 78.5671 15.6743 78.7922 15.5169C79.0172 15.3595 81.9451 16.3679 85.2652 17.7811ZM92.2434 39.7274C92.2117 46.428 86.9281 68.6874 85.1276 69.9467C83.7772 70.8912 83.5229 68.9184 84.2998 62.4889C85.0102 56.4455 90.3658 37.9844 91.7162 37.0399C92.0913 36.7775 92.2756 38.007 92.2434 39.7274ZM94.6533 60.228C94.1015 66.5 92.5794 72.6583 91.4541 73.4454C91.229 73.6028 91.7265 69.1799 92.6262 63.5701C93.4509 58.0127 94.4292 53.4798 94.8128 53.5511C95.0686 53.5986 95.0178 56.5772 94.6533 60.228ZM75.971 87.1046C79.6576 87.9218 79.6798 87.7932 75.9947 101.916C72.0267 116.917 71.8102 117.408 68.8466 116.99C66.7254 116.663 66.4389 116.41 66.4096 114.28C66.3719 111.816 71.8292 87.398 72.5265 86.7971C72.6987 86.5634 74.2555 86.7197 75.971 87.1046ZM105.276 86.3037C106.343 86.2363 106.405 86.6461 105.266 87.8955C102.405 91.4812 93.9461 96.1524 93.8726 94.2795C93.8162 93.0738 103.419 86.3574 105.276 86.3037ZM69.551 118.648C70.2519 119.177 70.6019 122.894 70.3381 127.493C70.0435 131.887 69.8668 137.897 69.816 140.875C69.8644 146.728 69.3256 147.557 65.9119 147.455C63.7463 147.385 63.7685 147.256 62.8863 141.647C60.9855 130.073 65.2486 115.658 69.551 118.648ZM109.333 92.6347C111.054 92.2237 111.181 92.2475 110.276 93.673C108.929 95.747 100.012 100.399 100.728 98.5403C101.422 96.8099 106.673 93.1369 109.333 92.6347ZM69.0376 149.23C71.2118 149.634 72.0184 150.315 73.1014 152.84C75.334 157.504 77.9185 168.94 76.9261 168.955C75.4529 169.08 64.5756 152.917 64.8858 151.115C65.2624 148.928 65.9683 148.66 69.0376 149.23ZM107.985 209.715C109.765 211.639 110.492 213.168 110.482 214.76C110.361 216.995 110.361 216.995 108.103 216.311C105.846 215.626 105.476 215.092 99.2658 203.249L96.6938 198.256L101.031 202.581C103.384 205.009 106.469 208.172 107.985 209.715Z" fill="#2D2D2D"/>
<path d="M138.758 92.0531C139.022 92.4342 139.737 92.5004 140.262 92.1332C140.787 91.7659 142.705 92.122 144.354 92.8929C147.418 94.2586 148.656 95.8828 169.643 126.138C181.876 143.614 191.589 158.099 191.289 158.309C190.989 158.519 188.969 159.14 186.821 159.737C183.711 160.554 179.051 163.473 166.074 172.55L149.27 184.303L136.878 166.598C122.552 145.945 115.798 137.653 112.223 136.193C108.338 134.608 107.759 136.824 110.038 144.285C113.249 154.376 121.954 166.284 134.598 177.927C139.966 182.775 144.505 187.07 144.717 187.375C145.14 187.984 140.729 193.672 138.629 195.141C136.603 196.558 130.461 189.309 111.615 163.103C101.346 148.78 92.3456 136.286 91.6056 135.22C90.0197 132.933 91.0593 128.811 93.6848 126.974C95.0351 126.03 95.2516 125.539 94.2286 125.349C92.3104 124.993 89.0646 130.432 89.4724 133.429C89.6209 135.249 91.9998 138.679 99.7585 148.419C105.411 155.444 112.856 165.856 116.574 171.858C126.313 187.344 137.091 198.707 141.449 197.923C142.742 197.698 152.493 190.877 168.079 179.297C190.483 162.608 192.553 160.934 192.629 158.957C192.639 157.365 188.318 150.653 171.508 126.418C159.297 108.814 149.217 94.9246 147.762 93.7914C144.175 90.8678 136.961 89.462 138.758 92.0531ZM114.359 139.112C116.334 140.674 122.44 148.514 133.049 163.165C148.089 183.884 148.701 184.928 147.214 185.515C145.983 186.149 143.806 184.616 137.451 178.988C130.161 172.655 128.139 170.221 120.588 159.656C113.535 149.649 111.804 146.672 110.603 142.531C109.082 136.805 110.026 135.918 114.359 139.112ZM186.118 161.134C188.514 160.251 190.34 159.992 190.101 160.612C189.31 162.523 151.903 189.705 151.269 188.791C149.155 185.742 149.402 185.456 165.83 173.966C176.579 166.334 183.092 162.232 186.118 161.134ZM148.829 189.931C150.54 191.112 150.495 191.369 147.87 193.205C141.944 197.35 138.68 197.143 142.132 192.804C144.843 189.324 146.833 188.498 148.829 189.931ZM149.765 188.711C149.963 189.478 149.579 189.406 148.998 188.568C148.341 187.782 148.249 187.168 148.686 187.315C149.069 187.386 149.62 188.02 149.765 188.711Z" fill="#2D2D2D"/>
<path d="M119.86 230.692C121.207 231.872 123 231.559 123.565 230.011C124.035 228.721 122.665 227.336 120.824 227.241C119.156 227.211 118.514 229.511 119.86 230.692Z" fill="#2D2D2D"/>
<path d="M75.0244 26.9563C72.4999 34.7213 69.5424 43.4683 68.4463 46.3856C66.1211 52.9924 66.3598 52.3728 63.7588 62.1156C59.472 78.5839 60.0214 81.1428 68.0462 84.3591L72.4202 86.1672L71.1232 92.1681C70.4193 95.4903 69.1138 101.158 68.2377 104.713C67.3616 108.269 66.6613 112.721 66.6819 114.517C66.7776 116.262 66.118 119.326 65.1992 121.214C64.3553 123.05 63.3735 126.453 62.9747 128.769C62.15 134.327 62.9663 145.302 64.4466 147.436C65.081 148.35 65.3489 149.861 65.1188 150.814C64.7251 152.335 67.2713 156.327 82.4445 178.201C96.296 198.17 100.648 205.087 102.414 209.399C104.346 214.273 104.98 215.187 107.542 216.792C110.857 219.001 113.628 217.855 113.211 214.524C112.926 212.346 111.349 210.393 101.49 200.197C98.458 197.11 92.9854 190.185 89.2317 184.773C82.306 174.789 80.9808 171.754 77.4325 157.483C76.8696 155.386 75.4386 152.199 74.3505 150.47C72.4472 147.726 72.268 145.701 72.5806 135.068C73.084 122.944 73.6378 119.727 77.7287 105.546C78.9492 101.523 80.2854 96.0605 80.8564 93.5104L81.804 88.7727L84.5511 89.6811C88.1184 90.8083 88.277 91.0369 86.7136 93.6019C85.3003 96.0619 86.2998 98.3059 88.629 97.8088C89.6657 97.5365 90.3666 98.065 90.8902 99.623C91.4053 100.847 92.4541 102.038 93.4022 102.281C94.659 102.647 94.8347 103.543 94.656 106.497C94.2693 110.277 94.7622 111.63 97.0678 113.187C99.5541 114.844 104.248 113.259 115.919 106.793C126.735 100.7 132.991 98.4755 134.154 100.152C135.105 101.524 132.444 103.952 118.229 114.46C110.21 120.408 104.001 125.43 104.309 125.554C105.107 125.901 133.828 104.341 135.003 102.501C136.544 100.065 134.336 98.3268 130.406 98.9251C128.301 99.2649 123.069 101.68 118.25 104.371C104.951 111.862 101.196 113.356 98.2903 112.219C95.8961 111.177 95.7375 110.948 95.8412 108.046C95.9057 104.605 96.678 103.951 107.996 97.6197C112.665 95.0337 114.112 93.908 114.034 92.831C113.986 91.9589 113.104 91.3304 111.781 91.3503C110.021 91.2228 108.115 92.3297 103.053 96.4363C95.9429 102.088 92.8106 103.034 91.9134 99.813C91.6762 98.5073 92.1178 97.8589 93.9576 97.1381C102.579 93.825 110.364 87.7007 108.327 85.729C106.864 84.2622 99.9366 88.0888 94.5471 93.3299C90.4466 97.2166 88.2232 97.8662 87.5681 95.155C87.0359 93.2633 96.9931 84.4879 101.784 82.7214C102.843 82.3204 103.488 81.6432 103.171 81.1859C102.906 80.8049 101.442 81.2633 100.016 82.2603C96.6401 84.6215 96.1336 83.7307 97.8092 78.5969C100.17 71.3991 103.219 58.2866 105.058 47.6055C106.108 41.8907 107.679 34.6791 108.669 31.6093C110.947 24.1304 110.336 21.1618 105.672 17.9718C100.201 14.1009 83.175 10.2757 80.4742 12.1647C80.0241 12.4795 77.6239 19.1388 75.0244 26.9563ZM90.0967 14.1504C98.5288 15.384 105.606 18.3579 103.43 19.8796C101.779 21.034 89.3435 18.5258 84.8245 16.0268C82.7612 14.9797 81.3816 13.7939 81.7567 13.5316C82.2068 13.2167 85.907 13.5717 90.0967 14.1504ZM86.6578 18.0272C93.2451 20.7775 104.099 22.1286 105.251 20.4169C106.426 18.5766 108.312 20.6532 108.548 23.8842C108.59 25.5522 108.12 29.0505 107.346 31.6293C106.7 34.2318 104.974 42.3442 103.53 49.5795C100.572 65.232 95.4191 83.6644 93.3749 86.3393C92.0195 88.0797 91.8916 88.056 92.096 86.1019C92.2204 84.9962 94.0254 77.9608 96.2498 70.4057C102.826 47.9215 105.128 31.483 101.803 30.8656C100.652 30.6519 100.127 31.0192 99.5299 32.5685C98.4474 35.0235 97.9973 35.3384 97.6765 33.7516C97.175 32.0649 93.4219 31.6337 93.5398 33.2492C93.5569 33.9163 92.5715 36.1902 91.4805 38.3117C88.5209 44.0039 84.5886 58.4132 84.204 65.2475C83.8858 71.6958 84.0837 72.4629 86.1571 71.9183C88.8393 71.2874 94.6737 49.6615 94.867 39.3389C94.865 36.284 95.2773 33.5054 95.6524 33.243C97.0028 32.2985 97.4178 37.5548 96.3816 42.8073C95.5533 47.2352 95.5705 47.9024 96.8151 46.8055C97.6096 46.0234 98.3699 43.9069 98.4464 41.9291C98.8004 34.8899 101.416 29.6649 102.003 34.6876C102.41 37.685 99.742 54.7194 98.2965 58.8999L97.209 62.1508L97.4199 57.4755C97.6072 54.8542 97.9052 51.5895 98.2768 50.1977C98.5955 48.7296 98.5834 47.2666 98.2662 46.8093C97.949 46.352 97.4188 47.5152 97.2366 49.3405C97.1072 51.2422 96.6913 52.8914 96.3912 53.1013C96.0911 53.3111 95.9904 52.3628 96.1591 50.9997C96.3277 49.6366 96.1963 48.4834 95.8127 48.4122C94.6616 48.1985 91.3206 73.7401 92.2722 75.112C92.748 75.798 92.4807 79.2676 91.6046 82.8234C90.0826 88.9817 88.9165 91.1556 87.9648 89.7837C87.7005 89.4027 83.388 88.0044 78.361 86.5398C68.1041 83.6395 64.859 82.1738 63.0087 79.5062C61.264 76.991 63.938 64.1409 70.1496 45.3075C72.8906 37.0514 76.1226 27.0937 77.4488 23.2231C78.7221 19.2763 79.9597 15.9204 80.1847 15.763C80.4098 15.6056 83.3377 16.614 86.6578 18.0272ZM93.636 39.9735C93.6043 46.6741 88.3207 68.9335 86.5202 70.1928C85.1698 71.1373 84.9155 69.1645 85.6923 62.735C86.4027 56.6916 91.7584 38.2305 93.1088 37.286C93.4839 37.0236 93.6682 38.2531 93.636 39.9735ZM96.0459 60.474C95.494 66.7461 93.972 72.9044 92.8467 73.6915C92.6216 73.8489 93.119 69.426 94.0188 63.8161C94.8435 58.2588 95.8218 53.7259 96.2054 53.7972C96.4612 53.8447 96.4104 56.8233 96.0459 60.474ZM77.3636 87.3507C81.0502 88.1679 81.0724 88.0392 77.3873 102.162C73.4193 117.163 73.2028 117.654 70.2392 117.236C68.1179 116.909 67.8314 116.657 67.8022 114.526C67.7644 112.062 73.2218 87.6441 73.9191 87.0431C74.0913 86.8095 75.6481 86.9658 77.3636 87.3507ZM106.668 86.5498C107.736 86.4824 107.797 86.8922 106.658 88.1416C103.797 91.7273 95.3387 96.3985 95.2651 94.5256C95.2087 93.3199 104.811 86.6035 106.668 86.5498ZM70.9436 118.894C71.6445 119.423 71.9944 123.14 71.7306 127.739C71.4361 132.133 71.2594 138.143 71.2086 141.122C71.257 146.974 70.7182 147.803 67.3045 147.701C65.1389 147.631 65.1611 147.502 64.2789 141.893C62.3781 130.319 66.6412 115.904 70.9436 118.894ZM110.726 92.8808C112.446 92.4698 112.574 92.4936 111.669 93.9191C110.322 95.9931 101.404 100.646 102.12 98.7864C102.814 97.056 108.066 93.383 110.726 92.8808ZM70.4302 149.476C72.6043 149.88 73.411 150.561 74.494 153.086C76.7266 157.75 79.3111 169.186 78.3187 169.201C76.8455 169.326 65.9682 153.163 66.2784 151.362C66.655 149.174 67.3609 148.906 70.4302 149.476ZM109.378 209.961C111.158 211.885 111.884 213.415 111.874 215.006C111.754 217.242 111.754 217.242 109.496 216.557C107.238 215.872 106.868 215.338 100.658 203.495L98.0864 198.502L102.423 202.827C104.776 205.256 107.861 208.418 109.378 209.961Z" fill="#2D2D2D"/>
<path d="M137.173 91.4652C137.437 91.8463 138.152 91.9125 138.677 91.5453C139.202 91.178 141.12 91.5341 142.769 92.3051C145.833 93.6707 147.071 95.2949 168.058 125.551C180.291 143.027 190.004 157.512 189.704 157.721C189.404 157.931 187.384 158.552 185.236 159.149C182.126 159.966 177.466 162.885 164.489 171.962L147.685 183.715L135.293 166.01C120.967 145.357 114.213 137.065 110.638 135.605C106.753 134.02 106.174 136.237 108.453 143.698C111.664 153.788 120.369 165.696 133.013 177.339C138.381 182.187 142.92 186.482 143.132 186.787C143.555 187.397 139.144 193.084 137.044 194.554C135.018 195.97 128.876 188.721 110.03 162.515C99.761 148.192 90.7607 135.699 90.0206 134.632C88.4347 132.345 89.4743 128.223 92.0999 126.386C93.4501 125.442 93.6666 124.951 92.6436 124.761C90.7254 124.405 87.4797 129.844 87.8875 132.841C88.036 134.662 90.4148 138.091 98.1736 147.831C103.826 154.856 111.271 165.268 114.989 171.27C124.728 186.756 135.506 198.119 139.864 197.335C141.157 197.11 150.909 190.289 166.494 178.709C188.898 162.02 190.968 160.346 191.044 158.369C191.055 156.777 186.733 150.065 169.923 125.83C157.712 108.226 147.632 94.3367 146.177 93.2035C142.59 90.2799 135.376 88.8741 137.173 91.4652ZM112.774 138.524C114.749 140.086 120.855 147.926 131.464 162.577C146.504 183.296 147.116 184.34 145.629 184.927C144.398 185.561 142.221 184.028 135.866 178.4C128.576 172.067 126.554 169.633 119.003 159.068C111.95 149.061 110.219 146.084 109.018 141.944C107.497 136.217 108.442 135.33 112.774 138.524ZM184.533 160.546C186.929 159.663 188.755 159.404 188.516 160.024C187.725 161.935 150.318 189.117 149.684 188.203C147.57 185.154 147.817 184.868 164.245 173.378C174.994 165.746 181.507 161.644 184.533 160.546ZM147.244 189.343C148.955 190.524 148.91 190.781 146.285 192.618C140.359 196.762 137.095 196.555 140.547 192.216C143.258 188.736 145.248 187.91 147.244 189.343ZM148.18 188.123C148.378 188.89 147.995 188.818 147.413 187.98C146.757 187.194 146.664 186.58 147.101 186.727C147.485 186.798 148.035 187.432 148.18 188.123Z" fill="#2D2D2D"/>
<path d="M118.281 230.11C119.627 231.29 121.42 230.976 121.985 229.429C122.456 228.139 121.085 226.754 119.244 226.659C117.577 226.629 116.935 228.929 118.281 230.11Z" fill="#2D2D2D"/>
<path d="M75.8437 26.382C73.3192 34.147 70.3617 42.8941 69.2656 45.8114C66.9405 52.4182 67.1791 51.7985 64.5781 61.5414C60.2914 78.0097 60.8407 80.5686 68.8656 83.7849L73.2395 85.593L71.9425 91.5939C71.2386 94.9161 69.9331 100.583 69.057 104.139C68.181 107.695 67.4806 112.147 67.5013 113.943C67.5969 115.687 66.9374 118.752 66.0185 120.64C65.1746 122.475 64.1928 125.879 63.7941 128.195C62.9694 133.753 63.7856 144.727 65.2659 146.862C65.9003 147.776 66.1682 149.287 65.9381 150.24C65.5444 151.761 68.0906 155.753 83.2638 177.627C97.1153 197.596 101.468 204.512 103.233 208.824C105.165 213.698 105.8 214.613 108.361 216.217C111.676 218.426 114.447 217.281 114.031 213.95C113.746 211.772 112.168 209.819 102.309 199.622C99.2773 196.536 93.8047 189.61 90.0511 184.199C83.1253 174.215 81.8001 171.18 78.2518 156.909C77.6889 154.812 76.2579 151.625 75.1698 149.896C73.2666 147.152 73.0873 145.126 73.3999 134.494C73.9034 122.37 74.4572 119.152 78.5481 104.972C79.7685 100.949 81.1048 95.4863 81.6757 92.9362L82.6233 88.1985L85.3704 89.1069C88.9377 90.2341 89.0963 90.4627 87.533 93.0277C86.1197 95.4877 87.1191 97.7317 89.4483 97.2346C90.485 96.9622 91.1859 97.4908 91.7096 99.0488C92.2247 100.273 93.2735 101.464 94.2216 101.706C95.4783 102.073 95.654 102.968 95.4753 105.923C95.0886 109.703 95.5816 111.056 97.8871 112.613C100.373 114.27 105.068 112.684 116.739 106.219C127.554 100.126 133.81 97.9012 134.973 99.578C135.925 100.95 133.263 103.377 119.048 113.886C111.03 119.834 104.82 124.856 105.129 124.98C105.927 125.327 134.648 103.767 135.822 101.927C137.364 99.4906 135.155 97.7526 131.225 98.3509C129.121 98.6907 123.888 101.106 119.069 103.797C105.77 111.287 102.015 112.782 99.1096 111.645C96.7155 110.602 96.5569 110.374 96.6606 107.471C96.725 104.03 97.4974 103.377 108.816 97.0455C113.484 94.4594 114.932 93.3338 114.853 92.2568C114.805 91.3847 113.924 90.7562 112.6 90.7761C110.841 90.6486 108.934 91.7555 103.872 95.8621C96.7622 101.514 93.63 102.46 92.7327 99.2388C92.4955 97.9331 92.9371 97.2847 94.7769 96.5639C103.398 93.2508 111.183 87.1265 109.147 85.1548C107.684 83.688 100.756 87.5146 95.3665 92.7557C91.266 96.6424 89.0425 97.292 88.3874 94.5808C87.8552 92.6891 97.8124 83.9137 102.604 82.1472C103.663 81.7462 104.307 81.069 103.99 80.6117C103.726 80.2306 102.261 80.6891 100.835 81.6861C97.4595 84.0473 96.953 83.1565 98.6286 78.0227C100.989 70.8249 104.039 57.7124 105.877 47.0312C106.927 41.3165 108.498 34.1049 109.489 31.0351C111.766 23.5562 111.155 20.5876 106.491 17.3976C101.021 13.5267 83.9943 9.70144 81.2936 11.5904C80.8434 11.9053 78.4433 18.5646 75.8437 26.382ZM90.916 13.5762C99.3482 14.8097 106.425 17.7837 104.249 19.3054C102.599 20.4597 90.1628 17.9516 85.6438 15.4526C83.5805 14.4055 82.2009 13.2197 82.576 12.9574C83.0261 12.6425 86.7264 12.9975 90.916 13.5762ZM87.4771 17.453C94.0645 20.2032 104.918 21.5543 106.07 19.8427C107.245 18.0024 109.131 20.079 109.367 23.31C109.41 24.9779 108.939 28.4763 108.166 31.0551C107.52 33.6576 105.793 41.7699 104.35 49.0053C101.391 64.6578 96.2385 83.0902 94.1943 85.7651C92.8389 87.5055 92.711 87.4818 92.9154 85.5277C93.0397 84.422 94.8447 77.3866 97.0692 69.8314C103.645 47.3472 105.947 30.9088 102.622 30.2914C101.471 30.0777 100.946 30.445 100.349 31.9943C99.2667 34.4493 98.8166 34.7642 98.4959 33.1774C97.9944 31.4906 94.2413 31.0594 94.3591 32.6749C94.3762 33.3421 93.3909 35.616 92.2998 37.7375C89.3402 43.4297 85.408 57.839 85.0234 64.6733C84.7052 71.1215 84.9031 71.8887 86.9765 71.344C89.6586 70.7132 95.4931 49.0873 95.6864 38.7646C95.6843 35.7098 96.0967 32.9311 96.4718 32.6688C97.8222 31.7243 98.2371 36.9806 97.2009 42.2331C96.3727 46.661 96.3898 47.3282 97.6345 46.2312C98.429 45.4491 99.1893 43.3327 99.2658 41.3548C99.6197 34.3156 102.235 29.0907 102.822 34.1134C103.23 37.1108 100.561 54.1452 99.1158 58.3257L98.0283 61.5766L98.2392 56.9013C98.4265 54.28 98.7246 51.0153 99.0961 49.6235C99.4148 48.1554 99.4028 46.6924 99.0856 46.2351C98.7683 45.7778 98.2382 46.9409 98.0559 48.7663C97.9265 50.6679 97.5106 52.3171 97.2105 52.527C96.9105 52.7369 96.8098 51.7886 96.9784 50.4255C97.1471 49.0624 97.0157 47.9092 96.632 47.838C95.481 47.6243 92.1399 73.1659 93.0915 74.5378C93.5673 75.2238 93.3 78.6934 92.4239 82.2492C90.9019 88.4075 89.7358 90.5814 88.7842 89.2095C88.5198 88.8284 84.2073 87.4302 79.1803 85.9656C68.9235 83.0653 65.6784 81.5995 63.828 78.932C62.0833 76.4168 64.7574 63.5667 70.969 44.7332C73.71 36.4772 76.9419 26.5195 78.2681 22.6489C79.5414 18.702 80.779 15.3462 81.0041 15.1888C81.2291 15.0313 84.157 16.0397 87.4771 17.453ZM94.4553 39.3993C94.4236 46.0999 89.14 68.3593 87.3395 69.6186C85.9891 70.5631 85.7348 68.5903 86.5117 62.1608C87.2221 56.1174 92.5777 37.6563 93.9281 36.7118C94.3032 36.4494 94.4875 37.6788 94.4553 39.3993ZM96.8652 59.8998C96.3134 66.1719 94.7913 72.3302 93.666 73.1173C93.441 73.2747 93.9384 68.8518 94.8381 63.2419C95.6628 57.6846 96.6411 53.1517 97.0248 53.223C97.2805 53.2704 97.2297 56.2491 96.8652 59.8998ZM78.1829 86.7764C81.8695 87.5937 81.8917 87.465 78.2067 101.588C74.2387 116.589 74.0221 117.08 71.0585 116.662C68.9373 116.335 68.6508 116.082 68.6216 113.952C68.5838 111.488 74.0411 87.0699 74.7384 86.4689C74.9106 86.2353 76.4675 86.3915 78.1829 86.7764ZM107.488 85.9756C108.555 85.9082 108.617 86.318 107.478 87.5674C104.617 91.1531 96.158 95.8243 96.0845 93.9514C96.0281 92.7457 105.631 86.0293 107.488 85.9756ZM71.7629 118.32C72.4638 118.849 72.8138 122.566 72.55 127.165C72.2555 131.559 72.0788 137.569 72.0279 140.547C72.0763 146.4 71.5376 147.229 68.1238 147.127C65.9582 147.056 65.9804 146.928 65.0982 141.319C63.1974 129.744 67.4605 115.33 71.7629 118.32ZM111.545 92.3066C113.265 91.8956 113.393 91.9194 112.488 93.3449C111.141 95.4189 102.224 100.071 102.94 98.2122C103.634 96.4818 108.885 92.8087 111.545 92.3066ZM71.2496 148.902C73.4237 149.306 74.2303 149.987 75.3134 152.512C77.5459 157.176 80.1305 168.612 79.1381 168.627C77.6648 168.752 66.7875 152.589 67.0977 150.787C67.4743 148.6 68.1802 148.332 71.2496 148.902ZM110.197 209.387C111.977 211.311 112.704 212.84 112.694 214.432C112.573 216.667 112.573 216.667 110.315 215.983C108.058 215.298 107.687 214.764 101.478 202.921L98.9058 197.928L103.242 202.252C105.596 204.681 108.681 207.844 110.197 209.387Z" fill="#2D2D2D"/>
<path d="M138.297 93.2973C138.561 93.6783 139.275 93.7446 139.801 93.3773C140.326 93.01 142.244 93.3662 143.893 94.1371C146.957 95.5027 148.195 97.1269 169.181 127.383C181.415 144.859 191.128 159.344 190.828 159.553C190.528 159.763 188.507 160.384 186.359 160.981C183.249 161.798 178.59 164.717 165.612 173.794L148.809 185.547L136.417 167.842C122.091 147.189 115.337 138.897 111.761 137.437C107.877 135.852 107.297 138.069 109.576 145.53C112.788 155.62 121.493 167.528 134.137 179.171C139.505 184.019 144.044 188.314 144.255 188.619C144.678 189.229 140.268 194.916 138.167 196.386C136.142 197.802 130 190.553 111.153 164.347C100.884 150.024 91.8842 137.531 91.1441 136.464C89.5583 134.177 90.5979 130.055 93.2234 128.218C94.5737 127.274 94.7901 126.783 93.7671 126.593C91.849 126.237 88.6032 131.676 89.011 134.673C89.1595 136.494 91.5383 139.923 99.2971 149.663C104.95 156.688 112.395 167.1 116.113 173.102C125.851 188.588 136.63 199.951 140.988 199.167C142.28 198.942 152.032 192.121 167.618 180.541C190.022 163.852 192.091 162.178 192.168 160.201C192.178 158.609 187.857 151.898 171.046 127.662C158.835 110.058 148.755 96.1687 147.301 95.0355C143.713 92.1119 136.499 90.7061 138.297 93.2973ZM113.898 140.356C115.872 141.918 121.979 149.758 132.587 164.409C147.627 185.128 148.24 186.172 146.753 186.759C145.522 187.393 143.344 185.86 136.989 180.232C129.7 173.899 127.677 171.465 120.127 160.9C113.074 150.893 111.343 147.916 110.142 143.776C108.621 138.049 109.565 137.162 113.898 140.356ZM185.657 162.378C188.052 161.495 189.878 161.236 189.64 161.856C188.849 163.767 151.442 190.949 150.808 190.035C148.693 186.986 148.94 186.7 165.369 175.21C176.118 167.578 182.631 163.476 185.657 162.378ZM148.368 191.175C150.078 192.356 150.034 192.613 147.408 194.45C141.482 198.595 138.219 198.387 141.671 194.048C144.382 190.568 146.371 189.742 148.368 191.175ZM149.304 189.955C149.502 190.722 149.118 190.651 148.537 189.812C147.88 189.026 147.788 188.412 148.224 188.559C148.608 188.63 149.159 189.264 149.304 189.955Z" fill="#2D2D2D"/>
<path d="M119.406 231.94C120.753 233.12 122.546 232.807 123.111 231.259C123.581 229.969 122.211 228.584 120.369 228.49C118.702 228.459 118.06 230.759 119.406 231.94Z" fill="#2D2D2D"/>
</svg>
