<svg width="21" height="18" viewBox="0 0 21 18" fill="none" xmlns="http://www.w3.org/2000/svg">
<path d="M7.87375 17.0388H2.14562C1.84179 17.0388 1.55039 16.9181 1.33555 16.7032C1.1207 16.4884 1 16.197 1 15.8931V14.7475C1 13.836 1.3621 12.9618 2.00664 12.3173C2.65118 11.6727 3.52536 11.3106 4.43687 11.3106H6.72813M18.1844 12.4563C18.1844 13.3678 17.8223 14.2419 17.1777 14.8865C16.5332 15.531 15.659 15.8931 14.7475 15.8931M18.1844 12.4563C18.1844 11.5447 17.8223 10.6706 17.1777 10.026C16.5332 9.38147 15.659 9.01938 14.7475 9.01938M18.1844 12.4563H19.33M14.7475 15.8931C13.836 15.8931 12.9618 15.531 12.3173 14.8865C11.6727 14.2419 11.3106 13.3678 11.3106 12.4563M14.7475 15.8931V17.0388M14.7475 9.01938C13.836 9.01938 12.9618 9.38147 12.3173 10.026C11.6727 10.6706 11.3106 11.5447 11.3106 12.4563M14.7475 9.01938V7.87375M11.3106 12.4563H10.165M12.3417 10.0504L11.5397 9.2485M17.9552 15.664L17.1533 14.8621M12.3417 14.8621L11.5397 15.664M17.9552 9.2485L17.1533 10.0504M10.165 4.43688C10.165 5.34839 9.8029 6.22257 9.15836 6.86711C8.51382 7.51165 7.63964 7.87375 6.72813 7.87375C5.81661 7.87375 4.94243 7.51165 4.29789 6.86711C3.65335 6.22257 3.29125 5.34839 3.29125 4.43688C3.29125 3.52536 3.65335 2.65118 4.29789 2.00664C4.94243 1.3621 5.81661 1 6.72813 1C7.63964 1 8.51382 1.3621 9.15836 2.00664C9.8029 2.65118 10.165 3.52536 10.165 4.43688Z" stroke="currentColor" stroke-width="1.5" stroke-linecap="square" stroke-linejoin="round"/>
</svg>
