<svg width="140" height="108" viewBox="0 0 140 108" fill="none" xmlns="http://www.w3.org/2000/svg">
<g id="Group">
<path id="Vector" d="M107.547 1.63588C100.537 3.11174 93.052 6.11617 87.1486 9.85851C86.0417 10.5437 84.724 11.1235 84.2496 11.1235C83.7225 11.1762 82.4575 11.5979 81.456 12.1777C80.4545 12.7048 79.0841 13.4427 78.4516 13.7063C77.7663 14.0225 77.2393 14.4442 77.2393 14.7078C77.2393 14.9713 75.3944 15.0767 73.1806 14.9186C69.1748 14.7078 68.9112 14.7605 64.5891 16.9743C60.8467 18.8718 59.0546 20.2949 53.1512 26.0402C49.3034 29.8353 46.1408 32.6816 46.1408 32.418C46.1408 32.1545 44.7704 30.8895 43.1364 29.5717C39.763 26.989 36.1261 25.7767 33.3852 26.3565C29.5902 27.1998 28.7995 28.0959 26.6384 33.8939C24.7936 38.7959 19.7862 43.5924 15.8858 44.1722C13.1976 44.5939 12.6178 45.4899 13.4084 48.1254C13.7774 49.3904 14.0409 51.1298 13.9882 52.0259C13.9882 53.2909 14.4626 54.1869 16.0966 55.8209C18.0468 57.7711 20.9986 59.2997 30.0118 63.0421C32.7527 64.2017 37.0221 68.6819 39.1832 72.6878L40.9226 75.9031L37.9709 75.5869C34.2813 75.2179 34.1231 76.0085 37.602 77.6425C39.763 78.6967 39.9212 78.8548 38.7616 79.0129C36.7059 79.2765 34.5448 80.2253 34.5448 80.9105C34.5448 81.2267 35.2827 81.9647 36.1261 82.439C38.3926 83.8095 38.0763 84.3893 35.0719 84.3893C31.6458 84.3893 28.9576 83.0188 26.1641 79.8563C23.7394 77.0627 23.4232 76.1667 25.1626 76.6937C25.8478 76.9046 27.3764 77.2208 28.536 77.379L30.7498 77.6425L31.1187 75.1125C31.9621 68.9982 31.8039 67.7332 29.801 65.6775C28.7995 64.6233 26.7439 63.2002 25.268 62.4623C22.9488 61.3554 22.1055 61.1972 19.9444 61.5135C17.6252 61.8298 16.0966 62.4623 8.55919 65.8884C7.13605 66.5209 5.87102 66.9425 5.76561 66.8371C5.60748 66.7317 7.55772 64.8869 10.0351 62.7785C13.8301 59.5106 15.4114 57.5076 14.2518 57.5076C13.5666 57.5076 0.336561 69.7888 0.600107 70.2105C0.916362 70.7376 1.17991 70.6322 10.404 66.5209C14.4099 64.7288 17.7833 63.3056 17.9414 63.3056C18.0996 63.3056 18.205 63.9381 18.205 64.7288C18.2577 67.6805 20.8931 71.8972 23.634 73.2676C24.4247 73.6893 25.0572 74.2164 25.0572 74.48C25.0572 75.1125 24.3192 75.007 23.1596 74.111C20.5242 72.108 20.735 74.4272 23.5813 78.6967C27.3237 84.1784 32.9108 86.972 37.4965 85.5489C39.7103 84.8637 40.8699 85.6543 44.3487 90.3454C51.2009 99.4114 52.8876 100.202 65.4851 100.202C76.7122 100.202 80.5599 101.204 87.6757 105.895C89.2042 106.896 90.6274 107.581 90.7855 107.37C91.3126 106.896 88.2028 103.259 85.8836 101.678C82.1939 99.1479 78.8205 98.1991 63.9038 95.5109C54.8906 93.8769 49.9359 90.9252 46.8261 85.4962C46.0881 84.1784 44.5069 81.912 43.2945 80.4888C42.0822 78.9602 41.5551 78.0115 42.0822 78.2223C43.6108 78.8021 43.1364 77.01 40.6064 72.5297C36.3369 65.0977 32.5946 62.0933 23.0542 58.5091C19.839 57.2968 15.7276 54.5032 16.3074 53.9234C16.4656 53.818 16.94 53.9761 17.3616 54.2923C17.7833 54.6613 18.4158 54.8194 18.7321 54.6086C19.1537 54.3451 18.6794 53.5544 17.4143 52.2367C15.5168 50.2864 13.8301 46.6495 14.3572 45.7008C14.8316 44.9628 19.5227 45.648 21.6838 46.8076C23.7921 47.8618 24.6355 49.7066 23.5286 50.8135C23.2123 51.1298 22.9488 52.1313 22.9488 53.0273C22.9488 55.452 24.6882 56.7697 28.4306 57.1913L31.5404 57.5076L33.3325 55.3992C34.334 54.2396 35.599 53.2909 36.0734 53.2909C36.9694 53.2909 40.2901 55.5047 47.8275 61.1445L51.359 63.78L52.4659 61.9879L53.5728 60.1958L51.8861 56.8751C49.8832 52.8692 46.7206 48.547 45.7719 48.547C44.0852 48.547 45.4029 52.3948 48.46 56.1899C49.3034 57.1913 49.8305 58.1928 49.6196 58.4037C48.6709 59.3524 34.5448 50.6554 34.5448 49.0741C34.5448 48.8633 37.4965 46.2278 41.1335 43.2234C47.6694 37.8998 48.7236 36.5821 47.9857 34.3156C47.7221 33.4195 48.7763 32.1545 53.8891 27.0417C60.6359 20.4004 64.7999 17.5541 69.491 16.3945C73.1279 15.5511 75.7634 16.0255 77.9245 17.9757L79.6112 19.5043L75.9215 23.2466C68.9639 30.3097 62.7969 34.8427 50.3576 41.9584C42.9783 46.1751 41.5024 47.1766 42.2931 47.651C42.5039 47.7564 44.9812 46.5968 47.7221 45.0155C57.2625 39.5865 59.529 39.0594 62.428 41.484C63.693 42.5382 64.3782 43.8559 65.3797 47.3874C66.1176 49.9175 67.4353 54.4505 68.3314 57.5076C72.759 72.7933 78.6097 78.3804 97.2687 85.338C104.543 88.0789 113.978 90.8725 122.147 92.77C128.683 94.2986 138.487 95.9853 139.014 95.669C140.121 94.9838 139.014 94.5622 133.796 93.7188C115.19 90.609 89.3097 82.1228 81.9304 76.7465C75.2363 71.7918 71.6521 65.4667 68.1206 52.3948C65.5378 42.8018 63.9565 39.7446 61.3738 39.2175C59.3181 38.8486 59.0019 38.216 60.4777 37.4254C63.5876 35.7387 72.021 28.9919 75.9742 25.0388C78.3461 22.6141 80.5072 20.8747 80.6654 21.1383C81.1924 22.0343 82.0358 21.7181 81.8777 20.7166C81.7722 20.1895 82.721 18.8718 84.2496 17.5013C85.62 16.2363 86.885 14.6551 87.0432 14.0225C87.254 13.0738 89.0461 11.9669 94.2643 9.38413C102.909 5.06198 109.814 2.74277 116.086 2.00484C118.774 1.68859 120.988 1.21421 120.988 1.00337C120.988 0.212738 112.344 0.634407 107.547 1.63588ZM79.6112 16.4472C80.191 17.3432 79.5585 17.5541 78.8205 16.658C78.3989 16.1836 78.3989 15.8674 78.7151 15.8674C79.0314 15.8674 79.453 16.1309 79.6112 16.4472ZM39.0251 28.4649C40.1847 28.9919 42.1876 30.3624 43.4527 31.522L45.7719 33.5776L43.1891 36.0023C39.763 39.1648 37.3911 41.1678 36.9694 41.1678C36.7586 41.1678 36.7586 40.0609 36.9167 38.6377C37.233 36.055 36.5478 34.1574 35.6517 35.1062C35.3882 35.4225 34.3867 37.6362 33.4379 40.1136C32.4892 42.5909 31.5931 44.8047 31.3823 45.0155C31.1714 45.2264 30.0118 44.9628 28.6941 44.383C27.4291 43.7505 25.5315 43.2761 24.4774 43.2761C23.4232 43.2761 22.4744 43.118 22.2636 42.9599C22.1055 42.8018 22.7907 41.8003 23.8449 40.7461C25.4788 39.1121 27.0074 36.3712 29.1685 30.9949C30.4862 27.7796 35.0192 26.62 39.0251 28.4649ZM47.195 35.5279C47.195 36.3185 44.3487 39.1121 40.3428 42.2219C33.7542 47.282 32.4365 49.1269 34.2813 50.6554C35.4409 51.6569 35.2827 52.0259 33.1217 53.1327C32.0148 53.7125 30.3808 54.6086 29.4847 55.1357C27.5872 56.2953 25.3734 55.9263 24.4774 54.2923C24.003 53.3963 24.1084 52.7111 24.8463 51.0771C25.9532 48.5998 25.637 47.8618 22.6853 45.9116L20.6823 44.5939L22.5271 44.4357C23.5813 44.3303 25.7951 44.752 27.4818 45.3845C29.2212 45.9643 30.9606 46.5968 31.3823 46.7549C31.9621 46.9658 32.4892 46.1224 33.3852 43.5924C34.7029 39.9555 35.9153 38.2688 35.0192 41.2732C34.7557 42.2219 34.5448 43.1707 34.5448 43.3815C34.5448 44.752 38.4453 42.2747 43.2418 37.7944C46.5625 34.79 47.195 34.3683 47.195 35.5279ZM50.8847 61.25C50.8847 61.4608 50.5157 61.5662 50.094 61.4081C49.6724 61.1972 49.3034 60.881 49.3034 60.6174C49.3034 60.4066 49.6724 60.3012 50.094 60.4593C50.5157 60.6702 50.8847 60.9864 50.8847 61.25ZM25.9532 64.3598C29.1158 66.2046 30.3808 67.7859 30.4335 70.1051C30.4862 72.4243 30.0118 72.6351 28.3251 71.0539C26.3222 69.1563 24.0557 68.313 23.6867 69.3672C23.2123 70.5268 22.6853 70.3159 21.8946 68.6819C19.2064 62.8312 20.6296 61.3027 25.9532 64.3598ZM27.3764 72.2135C28.9576 73.8474 28.6941 74.5327 26.7966 73.7947C25.7951 73.4258 24.5301 71.8445 24.5301 71.0012C24.5301 70.2105 26.0586 70.843 27.3764 72.2135ZM39.3414 80.6996C39.8684 81.0159 40.3428 81.5957 40.3428 82.0174C40.3428 83.0188 38.8143 83.0188 37.4438 81.9647C36.5478 81.2794 36.4951 81.1213 37.1803 80.6996C38.1818 80.0671 38.0763 80.0671 39.3414 80.6996ZM45.4029 85.7597C47.0369 88.1843 49.0926 90.8198 49.9886 91.5577C52.2551 93.4553 56.1029 95.0892 60.8994 96.2488C63.0605 96.7759 65.4324 97.4084 66.1703 97.7247C67.3299 98.2518 67.1191 98.3572 64.062 98.6735C59.9506 99.1479 55.1541 98.5153 52.5186 97.1449C51.4645 96.6178 49.6196 94.8784 48.3546 93.2971C47.0896 91.7159 44.9285 89.0804 43.4527 87.4464C41.2389 84.9164 40.9226 84.2312 41.3443 83.3878C41.6606 82.808 41.766 81.9647 41.5551 81.4376C40.8172 79.4346 42.6093 81.4376 45.4029 85.7597Z" fill="url(#paint0_linear_834_3906)"/>
</g>
<defs>
<linearGradient id="paint0_linear_834_3906" x1="98.3015" y1="10.7197" x2="108.585" y2="10.7197" gradientUnits="userSpaceOnUse">
<stop stop-color="#FECF24"/>
<stop offset="1" stop-color="#FE9724"/>
</linearGradient>
</defs>
</svg>
