<svg width="20" height="20" viewBox="0 0 20 20" fill="none" xmlns="http://www.w3.org/2000/svg">
<g id="twemoji:flag-poland" clip-path="url(#clip0_868_10496)">
<path id="Vector" d="M17.7778 2.77734H2.22222C1.63285 2.77734 1.06762 3.01147 0.650874 3.42822C0.234126 3.84496 0 4.4102 0 4.99957L0 9.99957H20V4.99957C20 4.4102 19.7659 3.84496 19.3491 3.42822C18.9324 3.01147 18.3671 2.77734 17.7778 2.77734Z" fill="#EEEEEE"/>
<path id="Vector_2" d="M0 15C0 15.5894 0.234126 16.1546 0.650874 16.5713C1.06762 16.9881 1.63285 17.2222 2.22222 17.2222H17.7778C18.3671 17.2222 18.9324 16.9881 19.3491 16.5713C19.7659 16.1546 20 15.5894 20 15V10H0V15Z" fill="#DC143C"/>
</g>
<defs>
<clipPath id="clip0_868_10496">
<rect width="20" height="20" fill="white"/>
</clipPath>
</defs>
</svg>
