<svg width="21" height="20" viewBox="0 0 21 20" fill="none" xmlns="http://www.w3.org/2000/svg">
<g id="uiw:time-o">
<path id="Vector" d="M10.5537 0C16.0767 0 20.5537 4.477 20.5537 10C20.5537 15.523 16.0767 20 10.5537 20C5.03071 20 0.553711 15.523 0.553711 10C0.553711 4.477 5.03071 0 10.5537 0ZM10.5537 1.395C8.27152 1.395 6.08281 2.3016 4.46906 3.91535C2.85531 5.5291 1.94871 7.71781 1.94871 10C1.94871 12.2822 2.85531 14.4709 4.46906 16.0847C6.08281 17.6984 8.27152 18.605 10.5537 18.605C12.8359 18.605 15.0246 17.6984 16.6384 16.0847C18.2521 14.4709 19.1587 12.2822 19.1587 10C19.1587 7.71781 18.2521 5.5291 16.6384 3.91535C15.0246 2.3016 12.8359 1.395 10.5537 1.395ZM9.62371 5.581C10.0087 5.581 10.3207 5.894 10.3207 6.279V11.163H15.2047C15.3851 11.1698 15.5559 11.2463 15.6811 11.3764C15.8063 11.5064 15.8763 11.68 15.8763 11.8605C15.8763 12.041 15.8063 12.2146 15.6811 12.3446C15.5559 12.4747 15.3851 12.5512 15.2047 12.558H9.62371C9.43859 12.558 9.26105 12.4845 9.13015 12.3536C8.99925 12.2227 8.92571 12.0451 8.92571 11.86V6.28C8.92571 5.894 9.23771 5.581 9.62371 5.581Z" fill="#8A8A8A"/>
</g>
<defs>
<clipPath id="clip0_5615_18874">
<rect width="20" height="20" fill="white" transform="translate(0.553711)"/>
</clipPath>
</defs>
</svg>
