<svg xmlns="http://www.w3.org/2000/svg" width="93" height="100" viewBox="0 0 93 100" fill="none">
<path d="M-8.80163 49.636C-8.49156 49.8279 -7.52145 50.5579 -6.6326 51.2441L-5.01738 52.5283L-4.83053 54.2341C-4.56873 56.4509 -3.38154 59.446 -2.27687 60.6229C-1.05443 61.9359 -0.260261 62.3295 1.16182 62.3751C1.87286 62.398 2.86247 62.6138 3.33335 62.8625C7.27106 64.8004 20.5979 59.8085 25.4719 54.5556C26.1873 53.7845 26.633 53.5672 28.7854 52.8257C33.3554 51.2872 38.9102 50.1669 42.1736 50.1352L43.2609 50.1143L43.1437 50.8653C42.8899 52.8815 41.486 59.5899 40.932 61.305L40.3267 63.2396L38.667 64.6338C34.0953 68.4758 28.6592 77.9187 27.3031 84.3454C26.274 89.2358 28.002 95.2321 31.0964 97.6185C34.7663 100.437 40.9821 98.9987 45.3195 94.3241C48.5092 90.8864 50.6849 85.6151 51.6629 78.9054C52.7201 71.6172 51.8279 66.1998 49.078 63.4751C48.0944 62.4965 47.8009 62.3195 46.6322 62.0008C45.1436 61.5994 43.0273 61.8416 41.8179 62.5203C41.4054 62.7676 41.0193 62.9207 40.9695 62.8756C40.9032 62.8156 41.1098 61.9682 41.419 60.9773C41.9547 59.2162 42.9193 54.5925 43.3763 51.6668L43.5957 50.1809L44.7063 50.2992C45.3096 50.3724 46.2694 50.6203 46.8182 50.8509C47.72 51.1942 47.8527 51.3142 47.79 51.612C47.7536 51.8156 47.4463 53.1333 47.1108 54.5141C46.4531 57.2287 46.3209 60.0346 46.835 60.4999C47.3989 61.0101 48.2317 59.7838 48.855 57.5995C49.5146 55.2116 49.4915 53.0335 48.7863 51.9521C48.34 51.2823 48.3249 51.0027 48.6654 49.715L49.0588 48.2388L50.3498 48.1955C55.6567 48.0329 68.3166 42.0829 81.6376 33.4805C89.2432 28.5716 92.2729 26.2599 91.7422 25.7797C91.4437 25.5095 89.1768 26.177 77.7733 29.9838C65.2696 34.1543 59.6359 36.1488 57.4505 37.1559C55.512 38.0614 55.8945 37.5506 53.2099 42.7456C52.336 44.378 51.6292 45.6001 51.6208 45.4447C51.5888 44.8544 54.739 37.1847 62.6166 18.6329C69.3343 2.84368 69.9564 1.21974 69.5203 1.03205C69.0843 0.844356 67.0442 3.3719 64.7297 6.95141C58.9203 15.9088 53.1313 25.5347 48.9999 33.144C45.7854 39.0416 44.7541 40.6792 43.353 42.1892L42.2351 43.394L40.9241 43.3602C38.8224 43.2907 34.4926 44.6033 32.6372 45.8795C31.0552 46.9598 31.6262 48.1858 33.6863 48.0699C35.685 47.9873 39.2274 46.4054 41.1588 44.7842C41.6706 44.3313 42.1925 44.0647 42.3699 44.1366C43.2237 44.4659 43.6708 46.3185 43.4288 48.5523L43.3037 49.7393L40.5989 49.8924C39.1057 49.9892 36.416 50.4218 34.5932 50.841C31.385 51.6023 27.4114 52.794 27.1581 53.0671C27.0835 53.1474 26.941 53.1366 26.8581 53.0616C26.7586 52.9716 26.8711 52.7188 27.1096 52.4617C27.3331 52.2208 27.7685 51.5214 28.083 50.9194C29.5279 48.1784 29.7843 45.0415 28.8081 42.7397C27.6194 40.0092 24.892 38.5755 20.886 38.5854C15.7746 38.5702 7.59841 40.5099 2.35285 42.9739C-2.24821 45.1049 -4.45416 47.4823 -4.89269 50.7499L-5.03439 51.9219L-5.75403 51.448C-6.13045 51.1961 -7.0342 50.526 -7.75721 49.99C-8.44873 49.4529 -9.10037 49.0701 -9.1898 49.1665C-9.26432 49.2468 -9.09512 49.459 -8.80163 49.636ZM0.760947 44.1634C7.37966 40.5484 19.3111 38.0469 24.0638 39.3037C25.4878 39.6761 25.7961 39.8369 26.9073 40.8424C27.919 41.7578 28.2259 42.1833 28.578 43.152C29.1293 44.5965 29.1904 46.6022 28.7275 48.2519C28.3721 49.5556 27.0331 52.2153 26.3773 52.9221C26.1686 53.147 22.2219 54.8358 17.6058 56.6872C5.20532 61.6013 3.0976 62.2946 2.38446 61.6493C1.88692 61.1991 0.845642 58.2769 0.675593 56.8819L0.5471 55.6722L1.8617 56.0639C4.58703 56.8751 8.24278 56.2233 11.2513 54.3947C13.2807 53.1282 15.7222 51.023 17.1877 49.2462C20.1039 45.7087 19.4982 44.7174 14.6406 45.0205C8.43061 45.4001 3.69855 47.4422 1.58602 50.6725C0.784719 51.8978 0.0287546 53.962 0.199854 54.501C0.430783 55.2715 -0.471075 54.9282 -3.19705 53.2299L-4.63468 52.3132L-4.61368 51.5343C-4.59123 50.4907 -4.2226 49.1399 -3.73598 48.2209C-3.07554 47.0158 -0.970359 45.1087 0.760947 44.1634ZM-0.618443 55.1199C-0.0216096 55.3645 0.051447 55.5488 0.362578 57.2192C0.558872 58.2243 1.00414 59.7501 1.38098 60.5935L2.03178 62.128L1.01739 62.0376C-0.298682 61.9105 -1.35821 61.2769 -2.25736 60.1086C-3.37714 58.6521 -4.34536 55.9142 -4.56413 53.6181L-4.64097 52.7803L-2.94471 53.8128C-2.03108 54.3736 -0.989817 54.9612 -0.618443 55.1199ZM5.64944 47.6413C8.94641 45.8964 15.6183 44.7231 17.8994 45.487C19.2637 45.9237 18.3633 47.6504 15.1121 50.8255C10.7214 55.0973 6.16153 56.8223 2.06533 55.7458C0.848555 55.4131 0.588238 55.2662 0.538272 54.9255C0.446743 54.3994 0.868279 52.86 1.35803 51.7074C1.87929 50.5537 4.08378 48.4409 5.64944 47.6413ZM5.78703 61.5662C7.13753 61.1629 11.1871 59.6263 14.7694 58.1987C18.3665 56.7551 22.1808 55.2419 23.2794 54.847L25.2429 54.1119L24.5274 54.883C21.6558 58.0765 12.8529 62.1384 7.09072 62.9232C5.66549 63.1111 2.94709 62.7199 3.275 62.3665C3.30481 62.3343 4.43655 61.9695 5.78703 61.5662ZM69.1511 1.49579C69.3335 1.66087 67.8031 5.44753 61.7307 19.7521C51.7154 43.4027 50.6202 46.1943 51.1343 46.6595C51.3831 46.8846 51.8466 46.122 54.0198 41.9713C55.3506 39.452 55.9879 38.4034 56.4584 38.0608C57.4755 37.3263 65.7222 34.357 78.4613 30.163C79.2517 29.903 82.3039 28.8823 85.2799 27.9109C88.2393 26.9244 90.8773 26.12 91.1292 26.1115C91.6645 26.0936 91.5287 26.2071 88.2802 28.5573C75.0164 38.2162 56.3344 47.7301 50.3778 47.8366L49.1646 47.8617L49.3659 46.6254C49.7372 44.4496 49.4597 43.4006 48.49 43.2619C48.0773 43.2135 47.7542 43.3645 47.3071 43.8464C46.8003 44.3925 46.706 44.6914 46.7631 45.7478C46.8435 46.9436 46.8635 47.0207 47.749 47.6447L48.6677 48.2986L48.3519 49.4609C47.9436 50.9532 47.8674 51.0025 47.1511 50.5907C46.8096 50.3998 45.9276 50.1337 45.1801 50.0187L43.8126 49.8156L43.7844 47.5443C43.7666 45.755 43.6534 45.1207 43.2071 44.4509L42.6562 43.5978L43.4611 42.7304C44.7727 41.3167 45.8753 39.5366 49.3679 33.2405C55.2159 22.6633 64.8855 6.91506 68.3892 2.28398C68.6392 1.94875 68.8727 1.59852 68.9472 1.51819C68.9902 1.43894 69.0847 1.43577 69.1511 1.49579ZM35.0101 45.1307C37.1707 44.2488 40.0209 43.5773 41.0702 43.7289L41.8956 43.8257L41.2728 44.2668C37.6135 46.8954 33.8887 48.3122 32.4479 47.629C31.3968 47.1507 32.3855 46.1837 35.0101 45.1307ZM48.6345 43.5995C48.8119 43.6714 49.0193 44.0068 49.1156 44.3304C49.2985 45.0869 48.924 47.4963 48.566 47.5861C48.1617 47.6931 47.2594 46.7584 47.0965 46.0791C46.8288 44.9208 47.8453 43.2991 48.6345 43.5995ZM48.3702 51.8416C48.7351 52.1717 49.0531 54.2622 48.9247 55.3871C48.7731 56.6684 48.1349 58.8687 47.6168 59.7888C47.1583 60.6447 46.7966 60.0809 46.8419 58.5853C46.8875 57.3854 47.8964 52.1221 48.1332 51.834C48.1928 51.7697 48.3039 51.7816 48.3702 51.8416ZM39.3713 64.5324C39.8899 64.2037 39.88 64.313 39.1453 65.894C38.7084 66.858 37.4075 69.3452 36.257 71.4071C29.1824 84.0955 28.3467 85.8512 27.8615 88.8401L27.5991 90.4053L27.4245 89.5085C26.4113 84.1885 31.1188 73.2293 37.2431 66.5959C38.1076 65.6642 39.0831 64.7444 39.3713 64.5324ZM41.5315 63.0591C45.8574 60.7973 49.8167 62.8433 51.138 68.0284C52.2383 72.3337 51.7887 78.6055 50.003 84.673C47.8536 91.8889 44.3165 96.1943 38.933 98.1492C37.3092 98.7484 35.0138 98.8877 33.6362 98.4982C32.6266 98.2052 32.2187 97.9543 30.9583 96.8138C29.8305 95.7933 29.3744 95.2327 29.0855 94.5576L28.7053 93.6521L29.7035 94.319C33.209 96.7227 39.3896 94.632 42.7142 89.898C46.173 85.0194 48.1392 76.4556 46.4285 73.696C46.012 72.9941 45.8644 72.8901 45.2295 72.818C44.8334 72.7846 44.1159 72.9332 43.6867 73.1655C41.7218 74.1652 37.951 78.5251 35.2807 82.817C34.0342 84.851 32.3281 88.5968 32.3931 89.2172C32.4316 89.6361 32.4895 89.5408 33.7785 86.5404C35.2776 83.0505 37.1187 80.3429 40.4574 76.7446C42.7958 74.1915 43.412 73.626 44.1062 73.3382C45.0009 72.9657 45.7552 73.205 46.2232 73.983C46.9185 75.1737 46.7421 78.9149 45.8313 82.1983C43.5911 90.0709 39.1542 94.6555 33.4878 94.8768C31.426 94.9616 29.8792 94.3598 28.7993 93.0575C27.9036 91.9515 27.8557 89.8987 28.6675 87.1166C29.4413 84.5071 30.196 83.0032 34.4418 75.4679C37.6348 69.7578 39.3942 66.4148 40.1172 64.6163C40.5623 63.5119 40.4728 63.6082 41.5315 63.0591Z" fill="#FFC904"/>
<path d="M-9.19038 49.284C-8.88031 49.4759 -7.91021 50.206 -7.02136 50.8921L-5.40613 52.1764L-5.21929 53.8821C-4.95749 56.0989 -3.77031 59.094 -2.66564 60.2709C-1.44319 61.5839 -0.649018 61.9775 0.773064 62.0232C1.48411 62.046 2.47372 62.2618 2.9446 62.5106C6.8823 64.4484 20.2092 59.4565 25.0831 54.2036C25.7986 53.4325 26.2443 53.2152 28.3967 52.4737C32.9667 50.9352 38.5215 49.8149 41.7849 49.7832L42.8721 49.7623L42.755 50.5133C42.5012 52.5296 41.0972 59.238 40.5432 60.953L39.938 62.8877L38.2783 64.2818C33.7066 68.1239 28.2705 77.5668 26.9143 83.9934C25.8853 88.8838 27.6133 94.8801 30.7077 97.2665C34.3775 100.085 40.5934 98.6467 44.9308 93.9721C48.1204 90.5344 50.2962 85.2631 51.2742 78.5534C52.3314 71.2652 51.4391 65.8479 48.6892 63.1231C47.7057 62.1445 47.4122 61.9676 46.2435 61.6488C44.7548 61.2474 42.6385 61.4897 41.4291 62.1684C41.0166 62.4157 40.6305 62.5687 40.5808 62.5237C40.5144 62.4636 40.721 61.6163 41.0302 60.6254C41.566 58.8643 42.5306 54.2406 42.9876 51.3148L43.207 49.8289L44.3175 49.9473C44.9208 50.0204 45.8807 50.2683 46.4294 50.4989C47.3313 50.8422 47.464 50.9623 47.4012 51.2601C47.3649 51.4636 47.0575 52.7813 46.7221 54.1622C46.0644 56.8768 45.9321 59.6827 46.4463 60.1479C47.0101 60.6581 47.8429 59.4318 48.4662 57.2475C49.1258 54.8597 49.1027 52.6815 48.3975 51.6002C47.9512 50.9303 47.9361 50.6507 48.2766 49.363L48.67 47.8868L49.9611 47.8435C55.268 47.681 67.9279 41.731 81.2488 33.1285C88.8544 28.2197 91.8841 25.9079 91.3534 25.4277C91.0549 25.1576 88.7881 25.8251 77.3846 29.6318C64.8809 33.8023 59.2471 35.7968 57.0618 36.804C55.1232 37.7095 55.5057 37.1986 52.8212 42.3936C51.9472 44.026 51.2404 45.2481 51.232 45.0928C51.2001 44.5024 54.3503 36.8327 62.2279 18.2809C68.9456 2.49171 69.5676 0.867773 69.1316 0.680077C68.6955 0.492384 66.6554 3.01992 64.341 6.59944C58.5316 15.5568 52.7425 25.1827 48.6111 32.792C45.3967 38.6896 44.3653 40.3273 42.9642 41.8373L41.8463 43.0421L40.5353 43.0083C38.4337 42.9387 34.1039 44.2513 32.2485 45.5276C30.6664 46.6079 31.2375 47.8338 33.2975 47.718C35.2963 47.6353 38.8387 46.0534 40.77 44.4322C41.2818 43.9793 41.8037 43.7127 41.9811 43.7846C42.8349 44.1139 43.2821 45.9666 43.04 48.2003L42.9149 49.3873L40.2102 49.5404C38.7169 49.6372 36.0273 50.0699 34.2045 50.489C30.9963 51.2503 27.0227 52.442 26.7693 52.7151C26.6948 52.7954 26.5522 52.7847 26.4693 52.7096C26.3698 52.6196 26.4823 52.3668 26.7208 52.1098C26.9444 51.8688 27.3798 51.1694 27.6942 50.5674C29.1392 47.8264 29.3955 44.6895 28.4193 42.3877C27.2306 39.6572 24.5032 38.2235 20.4973 38.2334C15.3859 38.2182 7.20965 40.158 1.9641 42.6219C-2.63697 44.7529 -4.84292 47.1304 -5.28145 50.3979L-5.42314 51.5699L-6.14279 51.096C-6.5192 50.8441 -7.42297 50.1741 -8.14598 49.638C-8.8375 49.1009 -9.48912 48.7182 -9.57856 48.8145C-9.65308 48.8949 -9.48387 49.1071 -9.19038 49.284ZM0.372187 43.8115C6.9909 40.1964 18.9224 37.6949 23.675 38.9517C25.099 39.3241 25.4074 39.485 26.5186 40.4904C27.5302 41.4059 27.8372 41.8314 28.1892 42.8001C28.7405 44.2445 28.8016 46.2502 28.3387 47.8999C27.9833 49.2037 26.6444 51.8633 25.9886 52.5701C25.7799 52.795 21.8332 54.4839 17.217 56.3352C4.81656 61.2493 2.70884 61.9426 1.9957 61.2973C1.49816 60.8471 0.456872 57.9249 0.286822 56.5299L0.158344 55.3202L1.47294 55.7119C4.19828 56.5231 7.85402 55.8713 10.8625 54.0427C12.892 52.7762 15.3335 50.671 16.799 48.8942C19.7151 45.3568 19.1095 44.3654 14.2519 44.6686C8.04186 45.0482 3.30978 47.0902 1.19725 50.3205C0.395955 51.5458 -0.359984 53.6101 -0.188892 54.1491C0.0420377 54.9195 -0.859829 54.5762 -3.58581 52.8779L-5.02343 51.9612L-5.00244 51.1823C-4.97998 50.1388 -4.61135 48.7879 -4.12473 47.8689C-3.4643 46.6639 -1.35912 44.7567 0.372187 43.8115ZM-1.0072 54.7679C-0.410367 55.0125 -0.33731 55.1968 -0.0261773 56.8672C0.170115 57.8723 0.615388 59.3982 0.992216 60.2415L1.64302 61.7761L0.628621 61.6856C-0.687446 61.5586 -1.74696 60.9249 -2.64611 59.7567C-3.7659 58.3001 -4.73412 55.5623 -4.95288 53.2662L-5.02973 52.4283L-3.33347 53.4608C-2.41984 54.0216 -1.37857 54.6092 -1.0072 54.7679ZM5.26069 47.2893C8.55766 45.5445 15.2295 44.3712 17.5106 45.135C18.875 45.5717 17.9746 47.2984 14.7234 50.4736C10.3327 54.7453 5.77277 56.4703 1.67657 55.3938C0.459798 55.0611 0.199484 54.9142 0.149517 54.5735C0.0579889 54.0474 0.479527 52.508 0.969283 51.3554C1.49054 50.2018 3.69502 48.0889 5.26069 47.2893ZM5.39828 61.2143C6.74877 60.811 10.7983 59.2743 14.3806 57.8467C17.9778 56.4031 21.792 54.8899 22.8906 54.4951L24.8541 53.7599L24.1387 54.531C21.267 57.7246 12.4642 61.7864 6.70197 62.5712C5.27674 62.7591 2.55833 62.3679 2.88623 62.0145C2.91605 61.9824 4.04779 61.6175 5.39828 61.2143ZM68.7623 1.14382C68.9447 1.3089 67.4144 5.09556 61.342 19.4001C51.3267 43.0507 50.2315 45.8423 50.7456 46.3075C50.9944 46.5326 51.4579 45.77 53.6311 41.6194C54.9618 39.1001 55.5992 38.0515 56.0696 37.7088C57.0867 36.9743 65.3335 34.005 78.0725 29.8111C78.8629 29.5511 81.9151 28.5304 84.8911 27.5589C87.8505 26.5725 90.4885 25.768 90.7404 25.7596C91.2758 25.7416 91.1399 25.8551 87.8915 28.2053C74.6276 37.8642 55.9456 47.3781 49.989 47.4846L48.7758 47.5098L48.9771 46.2735C49.3485 44.0976 49.0709 43.0486 48.1013 42.91C47.6885 42.8616 47.3655 43.0125 46.9183 43.4944C46.4115 44.0406 46.3173 44.3394 46.3744 45.3959C46.4548 46.5916 46.4747 46.6687 47.3602 47.2927L48.2789 47.9467L47.9632 49.109C47.5549 50.6012 47.4787 50.6505 46.7624 50.2387C46.4208 50.0479 45.5389 49.7818 44.7913 49.6668L43.4238 49.4637L43.3957 47.1923C43.3778 45.4031 43.2647 44.7687 42.8183 44.0989L42.2675 43.2458L43.0723 42.3784C44.384 40.9647 45.4865 39.1846 48.9791 32.8886C54.8271 22.3113 64.4967 6.56309 68.0005 1.93201C68.2505 1.59678 68.4839 1.24654 68.5585 1.16622C68.6015 1.08696 68.696 1.08379 68.7623 1.14382ZM34.6213 44.7787C36.782 43.8968 39.6322 43.2253 40.6814 43.3769L41.5069 43.4737L40.884 43.9148C37.2247 46.5434 33.4999 47.9602 32.0591 47.277C31.008 46.7987 31.9968 45.8317 34.6213 44.7787ZM48.2457 43.2475C48.4231 43.3194 48.6305 43.6548 48.7269 43.9784C48.9097 44.7349 48.5352 47.1443 48.1773 47.2341C47.773 47.3411 46.8707 46.4064 46.7078 45.7271C46.4401 44.5688 47.4566 42.9472 48.2457 43.2475ZM47.9815 51.4896C48.3463 51.8198 48.6644 53.9102 48.5359 55.0351C48.3843 56.3164 47.7462 58.5168 47.2281 59.4368C46.7696 60.2927 46.4078 59.729 46.4532 58.2333C46.4987 57.0334 47.5076 51.7701 47.7444 51.482C47.8041 51.4177 47.9151 51.4296 47.9815 51.4896ZM38.9826 64.1804C39.5011 63.8517 39.4912 63.961 38.7565 65.542C38.3196 66.5061 37.0187 68.9932 35.8683 71.0551C28.7937 83.7436 27.9579 85.4992 27.4728 88.4881L27.2104 90.0533L27.0357 89.1565C26.0226 83.8366 30.73 72.8773 36.8543 66.244C37.7188 65.3123 38.6943 64.3924 38.9826 64.1804ZM41.1428 62.7071C45.4686 60.4453 49.4279 62.4913 50.7493 67.6764C51.8496 71.9818 51.3999 78.2535 49.6143 84.321C47.4648 91.5369 43.9277 95.8423 38.5442 97.7972C36.9204 98.3965 34.625 98.5357 33.2474 98.1462C32.2379 97.8532 31.83 97.6023 30.5695 96.4618C29.4418 95.4413 28.9856 94.8808 28.6967 94.2057L28.3165 93.3002L29.3148 93.967C32.8202 96.3707 39.0008 94.2801 42.3255 89.546C45.7843 84.6675 47.7505 76.1037 46.0397 73.344C45.6232 72.6421 45.4756 72.5381 44.8408 72.466C44.4446 72.4326 43.7271 72.5812 43.298 72.8135C41.333 73.8133 37.5623 78.1732 34.892 82.465C33.6454 84.499 31.9393 88.2449 32.0044 88.8652C32.0428 89.2842 32.1008 89.1888 33.3897 86.1885C34.8888 82.6986 36.7299 79.9909 40.0686 76.3926C42.407 73.8395 43.0232 73.2741 43.7174 72.9862C44.6122 72.6138 45.3665 72.853 45.8344 73.6311C46.5297 74.8217 46.3534 78.5629 45.4425 81.8463C43.2024 89.7189 38.7655 94.3035 33.099 94.5248C31.0373 94.6096 29.4905 94.0078 28.4106 92.7056C27.5148 91.5995 27.4669 89.5467 28.2787 86.7646C29.0525 84.1551 29.8072 82.6512 34.053 75.1159C37.2461 69.4058 39.0055 66.0628 39.7285 64.2643C40.1735 63.1599 40.0841 63.2563 41.1428 62.7071Z" fill="#FFC904"/>
<path d="M-8.41615 50.364C-8.10608 50.5559 -7.13597 51.2859 -6.24712 51.972L-4.63189 53.2563L-4.44504 54.9621C-4.18325 57.1789 -2.99606 60.174 -1.89139 61.3509C-0.668947 62.6639 0.125227 63.0575 1.5473 63.1031C2.25834 63.1259 3.24797 63.3417 3.71885 63.5905C7.65656 65.5283 20.9834 60.5365 25.8574 55.2835C26.5728 54.5125 27.0185 54.2952 29.1709 53.5537C33.7409 52.0152 39.2957 50.8949 42.5591 50.8632L43.6463 50.8423L43.5292 51.5933C43.2754 53.6095 41.8714 60.3179 41.3174 62.033L40.7122 63.9676L39.0525 65.3618C34.4808 69.2038 29.0447 78.6467 27.6886 85.0734C26.6595 89.9638 28.3875 95.9601 31.4819 98.3464C35.1518 101.165 41.3676 99.7267 45.705 95.052C48.8947 91.6144 51.0704 86.343 52.0484 79.6334C53.1056 72.3452 52.2134 66.9278 49.4634 64.2031C48.4799 63.2244 48.1864 63.0475 47.0177 62.7288C45.5291 62.3274 43.4128 62.5696 42.2034 63.2483C41.7908 63.4956 41.4048 63.6486 41.355 63.6036C41.2887 63.5436 41.4953 62.6962 41.8045 61.7053C42.3402 59.9442 43.3048 55.3205 43.7618 52.3948L43.9812 50.9089L45.0917 51.0272C45.6951 51.1004 46.6549 51.3483 47.2037 51.5789C48.1055 51.9221 48.2382 52.0422 48.1754 52.34C48.1391 52.5436 47.8318 53.8612 47.4963 55.2421C46.8386 57.9567 46.7064 60.7626 47.2205 61.2278C47.7844 61.7381 48.6172 60.5117 49.2405 58.3275C49.9 55.9396 49.8769 53.7615 49.1718 52.6801C48.7255 52.0103 48.7103 51.7306 49.0508 50.443L49.4442 48.9668L50.7353 48.9235C56.0422 48.7609 68.7021 42.8109 82.0231 34.2084C89.6287 29.2996 92.6584 26.9879 92.1277 26.5077C91.8292 26.2375 89.5623 26.905 78.1588 30.7118C65.6551 34.8823 60.0214 36.8767 57.836 37.8839C55.8975 38.7894 56.28 38.2785 53.5954 43.4736C52.7215 45.1059 52.0146 46.3281 52.0062 46.1727C51.9743 45.5824 55.1245 37.9127 63.0021 19.3609C69.7198 3.57167 70.3418 1.94773 69.9058 1.76002C69.4698 1.57234 67.4297 4.09987 65.1152 7.6794C59.3058 16.6368 53.5168 26.2627 49.3854 33.8719C46.1709 39.7695 45.1395 41.4072 43.7385 42.9172L42.6206 44.122L41.3096 44.0882C39.2079 44.0187 34.8781 45.3313 33.0227 46.6075C31.4407 47.6878 32.0117 48.9137 34.0718 48.7979C36.0705 48.7153 39.6129 47.1334 41.5443 45.5122C42.0561 45.0592 42.578 44.7927 42.7554 44.8646C43.6092 45.1939 44.0563 47.0465 43.8143 49.2803L43.6892 50.4673L40.9844 50.6203C39.4912 50.7171 36.8015 51.1498 34.9787 51.569C31.7705 52.3303 27.7969 53.522 27.5435 53.7951C27.469 53.8754 27.3265 53.8646 27.2435 53.7896C27.144 53.6995 27.2566 53.4467 27.495 53.1897C27.7186 52.9488 28.154 52.2494 28.4685 51.6474C29.9134 48.9063 30.1697 45.7694 29.1935 43.4676C28.0049 40.7372 25.2774 39.3035 21.2715 39.3134C16.1601 39.2982 7.98389 41.2379 2.73834 43.7018C-1.86273 45.8329 -4.06867 48.2103 -4.5072 51.4779L-4.64891 52.6499L-5.36856 52.176C-5.74497 51.9241 -6.64872 51.254 -7.37173 50.718C-8.06325 50.1809 -8.71488 49.7981 -8.80431 49.8945C-8.87884 49.9748 -8.70963 50.187 -8.41615 50.364ZM1.14644 44.8914C7.76514 41.2764 19.6966 38.7748 24.4493 40.0316C25.8732 40.4041 26.1816 40.5649 27.2928 41.5704C28.3045 42.4858 28.6114 42.9113 28.9635 43.88C29.5148 45.3245 29.5759 47.3302 29.113 48.9799C28.7576 50.2836 27.4186 52.9433 26.7628 53.6501C26.5541 53.875 22.6074 55.5638 17.9912 57.4152C5.5908 62.3293 3.48309 63.0226 2.76994 62.3773C2.27241 61.9271 1.23112 59.0049 1.06107 57.6099L0.932585 56.4002L2.24718 56.7919C4.97252 57.6031 8.62826 56.9512 11.6368 55.1227C13.6662 53.8562 16.1077 51.7509 17.5732 49.9742C20.4894 46.4367 19.8837 45.4454 15.0261 45.7485C8.8161 46.1281 4.08403 48.1702 1.97151 51.4005C1.1702 52.6258 0.414246 54.69 0.585339 55.229C0.816273 55.9994 -0.0855937 55.6562 -2.81157 53.9578L-4.24918 53.0411L-4.2282 52.2622C-4.20574 51.2187 -3.83712 49.8679 -3.3505 48.9488C-2.69006 47.7438 -0.584868 45.8366 1.14644 44.8914ZM-0.232964 55.8479C0.363867 56.0924 0.43693 56.2768 0.748063 57.9472C0.944356 58.9523 1.38963 60.4781 1.76646 61.3215L2.41726 62.856L1.40287 62.7656C0.0868077 62.6385 -0.972731 62.0048 -1.87188 60.8366C-2.99166 59.3801 -3.95988 56.6422 -4.17864 54.3461L-4.25548 53.5083L-2.55922 54.5408C-1.6456 55.1016 -0.60434 55.6892 -0.232964 55.8479ZM6.03493 48.3693C9.33189 46.6244 16.0037 45.4511 18.2849 46.215C19.6492 46.6517 18.7488 48.3784 15.4976 51.5535C11.1069 55.8253 6.54701 57.5503 2.45081 56.4738C1.23404 56.1411 0.973723 55.9942 0.923762 55.6534C0.832228 55.1273 1.25377 53.588 1.74353 52.4354C2.26478 51.2817 4.46926 49.1689 6.03493 48.3693ZM6.17252 62.2942C7.52301 61.8909 11.5726 60.3543 15.1549 58.9267C18.752 57.483 22.5663 55.9699 23.6648 55.575L25.6283 54.8399L24.9129 55.611C22.0413 58.8045 13.2384 62.8664 7.47621 63.6512C6.05098 63.8391 3.33257 63.4479 3.66049 63.0944C3.69029 63.0623 4.82203 62.6975 6.17252 62.2942ZM69.5365 2.22378C69.719 2.38886 68.1886 6.17551 62.1162 20.4801C52.1009 44.1307 51.0057 46.9222 51.5198 47.3875C51.7686 47.6126 52.2321 46.8499 54.4053 42.6993C55.7361 40.18 56.3734 39.1314 56.8439 38.7888C57.861 38.0543 66.1077 35.085 78.8468 30.891C79.6372 30.631 82.6894 29.6103 85.6654 28.6389C88.6248 27.6524 91.2628 26.848 91.5147 26.8395C92.05 26.8215 91.9142 26.935 88.6657 29.2852C75.4019 38.9441 56.7199 48.458 50.7632 48.5646L49.5501 48.5897L49.7514 47.3534C50.1227 45.1776 49.8452 44.1286 48.8755 43.9899C48.4628 43.9415 48.1397 44.0924 47.6925 44.5744C47.1858 45.1205 47.0915 45.4194 47.1486 46.4758C47.229 47.6715 47.249 47.7487 48.1345 48.3726L49.0531 49.0266L48.7374 50.1889C48.3291 51.6812 48.2529 51.7304 47.5366 51.3187C47.195 51.1278 46.3131 50.8617 45.5656 50.7467L44.1981 50.5436L44.1699 48.2722C44.1521 46.483 44.0389 45.8487 43.5926 45.1789L43.0417 44.3258L43.8466 43.4583C45.1582 42.0447 46.2608 40.2646 49.7534 33.9685C55.6014 23.3912 65.271 7.64304 68.7747 3.01196C69.0247 2.67673 69.2582 2.3265 69.3327 2.24618C69.3757 2.16692 69.4702 2.16375 69.5365 2.22378ZM35.3956 45.8586C37.5562 44.9768 40.4064 44.3053 41.4557 44.4568L42.2811 44.5536L41.6583 44.9948C37.999 47.6233 34.2741 49.0401 32.8334 48.357C31.7822 47.8787 32.771 46.9117 35.3956 45.8586ZM49.0199 44.3275C49.1973 44.3993 49.4047 44.7348 49.5011 45.0584C49.684 45.8149 49.3095 48.2243 48.9515 48.3141C48.5472 48.421 47.6449 47.4864 47.482 46.807C47.2143 45.6487 48.2308 44.0271 49.0199 44.3275ZM48.7557 52.5696C49.1206 52.8997 49.4386 54.9902 49.3101 56.1151C49.1586 57.3964 48.5204 59.5967 48.0023 60.5168C47.5438 61.3726 47.1821 60.8089 47.2274 59.3133C47.273 58.1133 48.2819 52.8501 48.5187 52.562C48.5783 52.4977 48.6894 52.5095 48.7557 52.5696ZM39.7568 65.2603C40.2754 64.9317 40.2655 65.0409 39.5307 66.622C39.0939 67.586 37.7929 70.0732 36.6425 72.1351C29.5679 84.8235 28.7322 86.5791 28.247 89.5681L27.9846 91.1333L27.81 90.2364C26.7968 84.9165 31.5042 73.9573 37.6286 67.3239C38.493 66.3922 39.4686 65.4723 39.7568 65.2603ZM41.917 63.7871C46.2429 61.5252 50.2022 63.5713 51.5235 68.7564C52.6238 73.0617 52.1742 79.3334 50.3885 85.401C48.2391 92.6169 44.702 96.9222 39.3185 98.8772C37.6947 99.4764 35.3993 99.6157 34.0217 99.2261C33.0121 98.9332 32.6042 98.6823 31.3438 97.5418C30.216 96.5213 29.7598 95.9607 29.471 95.2856L29.0908 94.3801L30.089 95.047C33.5945 97.4507 39.7751 95.36 43.0997 90.626C46.5585 85.7474 48.5247 77.1836 46.8139 74.424C46.3974 73.722 46.2499 73.618 45.615 73.546C45.2189 73.5126 44.5013 73.6612 44.0722 73.8935C42.1073 74.8932 38.3365 79.2531 35.6662 83.5449C34.4196 85.5789 32.7135 89.3248 32.7786 89.9452C32.8171 90.3641 32.875 90.2688 34.164 87.2684C35.6631 83.7785 37.5041 81.0709 40.8429 77.4726C43.1813 74.9194 43.7974 74.354 44.4917 74.0661C45.3864 73.6937 46.1407 73.933 46.6086 74.711C47.3039 75.9017 47.1276 79.6429 46.2168 82.9263C43.9766 90.7989 39.5397 95.3835 33.8732 95.6048C31.8115 95.6895 30.2647 95.0878 29.1848 93.7855C28.289 92.6794 28.2412 90.6266 29.053 87.8446C29.8267 85.2351 30.5814 83.7312 34.8273 76.1959C38.0203 70.4858 39.7797 67.1428 40.5027 65.3442C40.9478 64.2398 40.8583 64.3362 41.917 63.7871Z" fill="#FFC904"/>
<path d="M-8.80493 50.012C-8.49487 50.2039 -7.52476 50.934 -6.6359 51.6201L-5.02068 52.9044L-4.83383 54.6101C-4.57203 56.8269 -3.38484 59.822 -2.28017 60.9989C-1.05773 62.3119 -0.263556 62.7055 1.15852 62.7512C1.86956 62.774 2.85917 62.9898 3.33006 63.2386C7.26776 65.1764 20.5946 60.1845 25.4686 54.9316C26.184 54.1605 26.6297 53.9432 28.7821 53.2017C33.3521 51.6632 38.9069 50.543 42.1703 50.5112L43.2576 50.4903L43.1404 51.2413C42.8866 53.2576 41.4826 59.966 40.9286 61.681L40.3234 63.6157L38.6637 65.0098C34.092 68.8519 28.6559 78.2948 27.2998 84.7214C26.2707 89.6118 27.9987 95.6081 31.0931 97.9945C34.763 100.813 40.9788 99.3747 45.3162 94.7001C48.5059 91.2624 50.6816 85.9911 51.6596 79.2814C52.7168 71.9932 51.8246 66.5759 49.0747 63.8511C48.0911 62.8725 47.7976 62.6956 46.6289 62.3768C45.1403 61.9754 43.024 62.2177 41.8146 62.8964C41.4021 63.1437 41.016 63.2967 40.9662 63.2517C40.8999 63.1916 41.1065 62.3443 41.4157 61.3534C41.9514 59.5923 42.916 54.9686 43.373 52.0428L43.5924 50.5569L44.7029 50.6753C45.3063 50.7484 46.2661 50.9963 46.8149 51.2269C47.7167 51.5702 47.8494 51.6903 47.7866 51.9881C47.7503 52.1916 47.443 53.5093 47.1075 54.8902C46.4498 57.6048 46.3176 60.4107 46.8317 60.8759C47.3956 61.3861 48.2284 60.1598 48.8517 57.9755C49.5113 55.5877 49.4882 53.4095 48.783 52.3282C48.3367 51.6583 48.3216 51.3787 48.6621 50.091L49.0555 48.6148L50.3465 48.5715C55.6534 48.409 68.3133 42.459 81.6343 33.8565C89.2399 28.9477 92.2696 26.6359 91.7389 26.1557C91.4404 25.8856 89.1735 26.5531 77.77 30.3598C65.2663 34.5303 59.6326 36.5248 57.4472 37.532C55.5087 38.4375 55.8912 37.9266 53.2066 43.1216C52.3327 44.754 51.6258 45.9761 51.6174 45.8208C51.5855 45.2304 54.7357 37.5607 62.6133 19.0089C69.331 3.21971 69.9531 1.59577 69.517 1.40808C69.081 1.22039 67.0409 3.74793 64.7264 7.32745C58.917 16.2848 53.128 25.9107 48.9966 33.52C45.7821 39.4176 44.7508 41.0553 43.3497 42.5653L42.2318 43.7701L40.9208 43.7363C38.8191 43.6667 34.4893 44.9793 32.6339 46.2556C31.0519 47.3359 31.6229 48.5618 33.683 48.446C35.6817 48.3633 39.2241 46.7814 41.1555 45.1602C41.6673 44.7073 42.1892 44.4407 42.3666 44.5126C43.2204 44.8419 43.6675 46.6946 43.4255 48.9283L43.3004 50.1154L40.5956 50.2684C39.1024 50.3652 36.4127 50.7979 34.5899 51.217C31.3817 51.9784 27.4081 53.17 27.1548 53.4431C27.0802 53.5235 26.9377 53.5127 26.8548 53.4376C26.7553 53.3476 26.8678 53.0948 27.1063 52.8378C27.3298 52.5968 27.7652 51.8974 28.0797 51.2954C29.5246 48.5544 29.7809 45.4175 28.8048 43.1157C27.6161 40.3852 24.8887 38.9515 20.8827 38.9615C15.7713 38.9462 7.59511 40.886 2.34955 43.3499C-2.25151 45.4809 -4.45746 47.8584 -4.89599 51.1259L-5.03768 52.2979L-5.75734 51.8241C-6.13374 51.5721 -7.03751 50.9021 -7.76053 50.366C-8.45204 49.8289 -9.10367 49.4462 -9.1931 49.5425C-9.26763 49.6229 -9.09842 49.8351 -8.80493 50.012ZM0.757639 44.5395C7.37636 40.9244 19.3078 38.4229 24.0605 39.6797C25.4845 40.0521 25.7928 40.213 26.904 41.2184C27.9157 42.1339 28.2226 42.5594 28.5747 43.5281C29.126 44.9726 29.1871 46.9782 28.7242 48.628C28.3688 49.9317 27.0298 52.5913 26.374 53.2981C26.1653 53.523 22.2186 55.2119 17.6025 57.0632C5.20201 61.9773 3.0943 62.6706 2.38116 62.0253C1.88361 61.5751 0.842334 58.6529 0.672285 57.2579L0.543793 56.0483L1.8584 56.4399C4.58373 57.2511 8.23948 56.5993 11.248 54.7707C13.2774 53.5042 15.7189 51.399 17.1844 49.6222C20.1006 46.0848 19.4949 45.0935 14.6373 45.3966C8.4273 45.7762 3.69524 47.8182 1.58271 51.0485C0.781409 52.2738 0.0254699 54.3381 0.196562 54.8771C0.427498 55.6475 -0.474377 55.3042 -3.20035 53.6059L-4.63798 52.6892L-4.61698 51.9103C-4.59453 50.8668 -4.22591 49.5159 -3.73929 48.5969C-3.07885 47.3919 -0.973664 45.4847 0.757639 44.5395ZM-0.621746 55.4959C-0.0249133 55.7405 0.0481386 55.9248 0.359272 57.5953C0.555564 58.6003 1.00084 60.1262 1.37768 60.9695L2.02848 62.5041L1.01408 62.4136C-0.301992 62.2866 -1.36151 61.6529 -2.26065 60.4847C-3.38044 59.0281 -4.34866 56.2903 -4.56743 53.9942L-4.64428 53.1563L-2.94802 54.1888C-2.03439 54.7496 -0.993114 55.3372 -0.621746 55.4959ZM5.64615 48.0173C8.94312 46.2725 15.615 45.0992 17.8961 45.8631C19.2604 46.2997 18.36 48.0264 15.1088 51.2016C10.7181 55.4733 6.15823 57.1983 2.06203 56.1218C0.84526 55.7891 0.584931 55.6422 0.534964 55.3015C0.443436 54.7754 0.864981 53.236 1.35474 52.0834C1.87599 50.9298 4.08048 48.8169 5.64615 48.0173ZM5.78374 61.9423C7.13423 61.539 11.1838 60.0023 14.7661 58.5747C18.3632 57.1311 22.1775 55.6179 23.2761 55.2231L25.2396 54.4879L24.5241 55.259C21.6525 58.4526 12.8496 62.5144 7.08742 63.2992C5.66219 63.4871 2.94378 63.0959 3.27169 62.7425C3.3015 62.7104 4.43325 62.3455 5.78374 61.9423ZM69.1478 1.87182C69.3302 2.0369 67.7998 5.82356 61.7274 20.1281C51.7121 43.7787 50.6169 46.5703 51.131 47.0355C51.3798 47.2606 51.8433 46.498 54.0165 42.3474C55.3473 39.8281 55.9846 38.7795 56.4551 38.4368C57.4722 37.7023 65.7189 34.733 78.458 30.5391C79.2484 30.2791 82.3006 29.2584 85.2766 28.2869C88.236 27.3005 90.874 26.496 91.1259 26.4876C91.6612 26.4696 91.5254 26.5831 88.2769 28.9333C75.0131 38.5922 56.3311 48.1061 50.3745 48.2126L49.1613 48.2378L49.3626 47.0015C49.7339 44.8256 49.4564 43.7766 48.4867 43.638C48.074 43.5896 47.7509 43.7405 47.3038 44.2224C46.797 44.7686 46.7027 45.0675 46.7598 46.1239C46.8402 47.3196 46.8602 47.3967 47.7457 48.0207L48.6644 48.6747L48.3486 49.837C47.9403 51.3292 47.8641 51.3785 47.1478 50.9667C46.8063 50.7759 45.9243 50.5098 45.1768 50.3948L43.8093 50.1917L43.7811 47.9203C43.7633 46.1311 43.6501 45.4967 43.2038 44.8269L42.6529 43.9738L43.4578 43.1064C44.7694 41.6928 45.872 39.9126 49.3646 33.6166C55.2126 23.0393 64.8822 7.2911 68.3859 2.66002C68.6359 2.32479 68.8694 1.97454 68.9439 1.89422C68.9869 1.81496 69.0814 1.81179 69.1478 1.87182ZM35.0068 45.5067C37.1674 44.6249 40.0176 43.9533 41.0669 44.1049L41.8923 44.2017L41.2695 44.6428C37.6102 47.2714 33.8854 48.6882 32.4446 48.0051C31.3935 47.5267 32.3822 46.5597 35.0068 45.5067ZM48.6312 43.9755C48.8085 44.0474 49.016 44.3828 49.1123 44.7064C49.2952 45.4629 48.9207 47.8723 48.5627 47.9621C48.1584 48.0691 47.2561 47.1344 47.0932 46.4551C46.8255 45.2968 47.842 43.6752 48.6312 43.9755ZM48.3669 52.2176C48.7318 52.5478 49.0498 54.6382 48.9214 55.7631C48.7698 57.0444 48.1316 59.2448 47.6135 60.1649C47.155 61.0207 46.7933 60.457 46.8386 58.9613C46.8842 57.7614 47.8931 52.4981 48.1299 52.21C48.1895 52.1458 48.3006 52.1576 48.3669 52.2176ZM39.368 64.9084C39.8866 64.5797 39.8767 64.689 39.1419 66.27C38.7051 67.2341 37.4041 69.7212 36.2537 71.7831C29.1791 84.4716 28.3434 86.2272 27.8582 89.2161L27.5958 90.7813L27.4212 89.8845C26.408 84.5646 31.1155 73.6053 37.2398 66.972C38.1043 66.0403 39.0798 65.1204 39.368 64.9084ZM41.5282 63.4351C45.8541 61.1733 49.8134 63.2193 51.1347 68.4044C52.235 72.7098 51.7854 78.9815 49.9997 85.049C47.8503 92.2649 44.3132 96.5703 38.9297 98.5252C37.3059 99.1245 35.0105 99.2637 33.6329 98.8742C32.6233 98.5812 32.2154 98.3303 30.955 97.1898C29.8272 96.1693 29.3711 95.6088 29.0822 94.9337L28.702 94.0282L29.7002 94.695C33.2057 97.0987 39.3863 95.0081 42.7109 90.274C46.1697 85.3955 48.1359 76.8317 46.4252 74.072C46.0087 73.3701 45.8611 73.2661 45.2262 73.194C44.8301 73.1606 44.1125 73.3092 43.6834 73.5415C41.7185 74.5413 37.9477 78.9012 35.2774 83.193C34.0309 85.227 32.3248 88.9729 32.3898 89.5932C32.4283 90.0122 32.4862 89.9168 33.7752 86.9165C35.2743 83.4266 37.1154 80.7189 40.4541 77.1206C42.7925 74.5675 43.4087 74.0021 44.1029 73.7142C44.9976 73.3418 45.7519 73.581 46.2199 74.3591C46.9152 75.5497 46.7388 79.2909 45.828 82.5743C43.5878 90.4469 39.1509 95.0315 33.4845 95.2528C31.4227 95.3376 29.8759 94.7358 28.796 93.4336C27.9003 92.3275 27.8524 90.2747 28.6642 87.4927C29.438 84.8831 30.1927 83.3792 34.4385 75.8439C37.6315 70.1338 39.3909 66.7908 40.1139 64.9923C40.559 63.8879 40.4695 63.9843 41.5282 63.4351Z" fill="#FFC904"/>
</svg>