<svg xmlns="http://www.w3.org/2000/svg" width="94" height="137" viewBox="0 0 94 137" fill="none">
<g clip-path="url(#clip0_1135_77756)">
<path d="M16.4606 20.9826C14.6178 21.2237 13.7608 21.4647 12.9323 21.9895C12.3609 22.3582 11.9466 22.8545 12.0895 22.9963C12.1323 23.0389 12.5323 23.1523 12.9894 23.2374L13.8179 23.4076L13.7608 25.9745L13.7179 28.5413L14.1179 28.8108C14.4607 29.0235 14.8178 29.066 16.4177 29.066C17.8176 29.066 18.3604 29.1086 18.4461 29.2504C18.5175 29.378 18.7318 29.4064 19.1318 29.3355C19.4603 29.2929 19.8317 29.3071 19.9603 29.3922C20.4745 29.6616 16.7605 30.2714 14.5321 30.2714H13.1894L13.118 30.8671C12.9608 32.0016 12.6037 36.6815 12.6037 37.4473C12.6037 38.0429 12.6609 38.2273 12.8751 38.3549C13.0323 38.4258 14.0179 38.5109 15.0607 38.5109C16.8605 38.5251 16.9034 38.5393 15.9606 38.6527C13.4179 38.9789 11.2181 39.4185 8.93257 40.085C8.18976 40.2978 7.88979 40.4538 7.88979 40.6098C7.88979 41.0068 8.37546 41.7585 8.81829 42.0421C9.18969 42.2832 9.20397 42.3257 8.94685 42.3257C8.47546 42.3257 8.1612 42.7937 8.01835 43.7013C7.94693 44.1551 7.83265 48.0976 7.76123 52.4655C7.58981 62.6336 7.5041 65.1296 7.17556 69.5542C7.01843 71.5396 6.83273 74.2199 6.74702 75.5104C6.54703 78.7012 6.5756 85.4374 6.80416 88.2312C6.96129 90.3159 7.01843 90.5853 7.36126 91.0959C7.81836 91.7766 8.77543 92.358 9.87535 92.6133C10.3896 92.7409 12.6037 92.8544 16.232 92.9536C19.3032 93.0387 21.8173 93.1238 21.8459 93.138C21.9316 93.2373 19.2746 93.8045 18.0319 93.9605C15.4749 94.2725 12.1038 93.9038 9.58966 93.0387C8.3469 92.6133 8.00406 92.5707 8.31833 92.8685C8.67544 93.1947 10.0896 93.6485 12.0038 94.0314C15.2464 94.698 18.6747 94.5136 21.8602 93.5067C23.1743 93.0813 23.5172 92.826 22.7887 92.7976C22.403 92.7693 22.403 92.7693 22.7458 92.7267C24.6742 92.4289 25.817 91.7482 26.2598 90.6137C26.7169 89.4083 26.3312 88.3872 25.1742 87.8199C24.5599 87.5079 24.3885 87.4938 21.3888 87.5079L18.2461 87.5363L18.2033 84.3171C18.1319 79.3394 18.4604 74.305 19.2461 67.9942C19.6889 64.4772 20.1603 61.1587 20.2174 61.102C20.246 61.0736 20.346 62.1798 20.4317 63.5696C20.6888 67.1717 22.1316 84.0335 22.303 85.2956C22.4173 86.2174 22.4887 86.4018 22.8744 86.7421C23.3886 87.1959 23.56 87.2243 24.26 86.9265C24.6314 86.7705 24.8314 86.5578 25.0599 86.0472L25.3599 85.3665L25.2742 72.8868C25.1599 57.7694 24.7885 43.1199 24.5171 42.3966C24.46 42.269 24.26 42.0988 24.0743 41.9854C23.7314 41.8152 23.76 41.801 24.6885 41.645C26.0598 41.4181 26.3741 40.9217 25.6741 40.085C25.0742 39.376 22.7744 38.5534 21.1745 38.4825C20.8745 38.4683 20.7888 38.44 20.9745 38.3974C21.2316 38.3549 21.3173 38.1564 21.503 37.2487C21.8602 35.5611 22.0601 33.8735 22.0744 32.3987C22.0887 31.2216 22.0601 30.9805 21.7459 30.4416C21.403 29.8318 20.3317 28.9951 19.8889 28.9951C19.6889 28.9951 19.646 28.6973 19.6175 26.3574L19.5889 23.7196L20.346 23.8047C20.7602 23.8472 22.4601 23.904 24.1171 23.9181C26.8598 23.9465 27.1597 23.9323 27.5454 23.6912C28.1454 23.2942 28.3025 23.0389 28.3168 22.4291C28.3168 21.7484 27.8454 21.2804 26.9169 21.0535C25.8456 20.784 18.4318 20.7415 16.4606 20.9826ZM26.5312 21.3371C27.9168 21.6207 28.4454 22.4716 27.674 23.1807L27.2883 23.5352L19.2175 23.4501L19.2889 26.0028C19.3461 28.3002 19.3318 28.5697 19.1175 28.6548C18.9889 28.7115 18.8461 28.7115 18.8032 28.6831C18.7747 28.6406 18.689 27.5911 18.6318 26.3432C18.5176 23.8756 18.3747 23.4501 17.6319 23.1665C17.1605 22.9822 16.6034 23.2091 16.6034 23.5636C16.6034 23.7054 16.7034 24.7407 16.8034 25.861C16.9177 26.9813 16.9748 27.9882 16.932 28.0875C16.832 28.3711 16.1177 28.3286 15.8606 28.0308C15.5035 27.6195 15.4749 27.3501 15.6749 26.485C15.9463 25.4072 15.932 24.8258 15.6749 24.3152C15.4321 23.8472 15.0607 23.6061 14.6178 23.6061C14.4464 23.6061 14.3179 23.5069 14.3179 23.3934C14.3179 23.2091 13.5322 22.8971 13.0037 22.8971C12.6323 22.8971 12.5751 22.6843 12.8751 22.4149C13.4751 21.8618 15.1178 21.4931 18.389 21.1386C19.4175 21.0393 25.8027 21.1811 26.5312 21.3371ZM17.9747 23.8189C18.1604 24.1025 18.2319 24.6698 18.289 26.4424L18.3604 28.7115H17.6033C16.8605 28.7115 16.8462 28.7115 17.1034 28.4279C17.3319 28.1726 17.3462 28.0166 17.1891 26.2723C16.9605 23.5211 16.9605 23.4643 17.3891 23.4643C17.6033 23.4643 17.8319 23.6061 17.9747 23.8189ZM15.1035 24.1309C15.5606 24.5705 15.6321 25.0243 15.3892 26.0312C15.2749 26.5559 15.1749 27.1799 15.1749 27.3926C15.1749 27.8748 15.5178 28.3995 15.9463 28.5697C16.1606 28.6548 16.0035 28.6973 15.3606 28.6973C14.0893 28.7115 14.0322 28.6406 14.1179 26.6835C14.2179 24.2727 14.2893 23.8898 14.6036 23.8898C14.7464 23.8898 14.975 23.989 15.1035 24.1309ZM21.6173 30.9663C21.8459 31.6187 21.703 34.0863 21.3173 36.2844C21.1602 37.2204 21.0031 38.0004 20.9745 38.0429C20.6888 38.3123 20.6317 37.504 20.6031 33.7885L20.5888 29.6333L21.0174 30.0445C21.2602 30.2714 21.5316 30.6827 21.6173 30.9663ZM20.3174 38.0713H19.5032L19.4175 36.4688C19.2889 34.3841 19.2889 30.2005 19.4175 30.0871C19.4603 30.0304 19.6889 29.9878 19.9174 29.9878H20.3174V38.0713ZM19.0604 34.0579C19.0889 36.2277 19.0889 38.0287 19.0747 38.0571C19.0461 38.0854 17.7605 38.1422 16.2177 38.1847C13.9608 38.2273 13.3322 38.1989 13.1322 38.0429C12.8751 37.8585 12.8751 37.7309 13.1608 34.3132C13.3322 32.3845 13.4751 30.782 13.5036 30.7678C13.5179 30.7536 14.0893 30.6969 14.7893 30.6543L16.032 30.5693V34.2423C16.032 37.4189 16.0606 37.9294 16.2463 37.9294C16.432 37.9294 16.4606 37.4189 16.4606 34.2423V30.5693L16.932 30.4983C17.1748 30.4558 17.7176 30.3707 18.1033 30.2998C18.5033 30.2289 18.8604 30.158 18.9175 30.1438C18.9604 30.1438 19.0318 31.9023 19.0604 34.0579ZM20.3746 40.2127C20.4174 40.9927 20.4317 41.7017 20.3888 41.7726C20.3317 41.8435 20.146 41.9003 19.9603 41.9003C19.7746 41.9003 19.6032 41.9712 19.5746 42.0704C19.5318 42.1697 19.3461 42.113 19.0461 41.8861C18.3461 41.3756 16.7605 41.3614 13.4751 41.8152C12.018 42.0137 10.6467 42.1839 10.4039 42.1839C9.51823 42.1697 8.31833 41.3897 8.31833 40.8225C8.31833 40.5956 8.84686 40.4112 10.8467 39.929C13.6179 39.2625 16.6748 38.8512 19.3318 38.7945L20.2746 38.7803L20.3746 40.2127ZM22.6172 39.064C23.5315 39.2483 24.7885 39.7305 25.2313 40.0709C25.617 40.3687 25.7313 40.9501 25.4456 41.1345C25.2742 41.2337 21.7459 41.7443 21.1459 41.7585H20.746V38.8087L21.3602 38.8796C21.6887 38.908 22.2601 38.9931 22.6172 39.064ZM18.1461 41.8435C18.389 41.8861 18.789 42.0988 19.0461 42.3115C19.4746 42.6803 19.5032 42.7512 19.4746 43.5311C19.4603 43.9849 19.3746 44.4529 19.2889 44.5664C19.1175 44.7649 18.5461 44.7507 16.6605 44.5097C15.9892 44.4246 15.8892 44.4529 15.4749 44.8358C15.1035 45.1478 14.9892 45.3889 14.8893 46.0129C14.8035 46.6652 14.775 46.5093 14.7607 45.0202C14.7321 42.8221 14.6464 42.1839 14.3322 42.1697C14.2036 42.1555 14.4893 42.0704 14.9607 41.9712C15.9035 41.7726 17.4748 41.7159 18.1461 41.8435ZM24.0457 42.4108C24.2885 42.6377 24.3171 43.0915 24.6028 52.5364C24.8028 58.8613 25.0742 84.2178 24.9599 85.1396C24.8885 85.7211 24.7599 86.0047 24.46 86.3167C23.9457 86.813 23.2743 86.8556 22.9744 86.4018C22.6887 85.9622 22.6458 85.6076 22.3173 81.6084C22.1601 79.6939 21.8316 75.9926 21.603 73.3832C21.1888 68.6466 20.8602 64.7183 20.6031 61.0169C20.4888 59.2584 20.5031 58.8188 20.8317 56.4788C21.5887 51.019 21.6459 50.3383 21.6459 47.5729C21.6459 44.6515 21.4173 42.9781 20.9459 42.4533C20.7317 42.2264 20.746 42.1981 21.1316 42.1414C21.8744 42.0137 23.8029 42.1839 24.0457 42.4108ZM20.1603 42.9213C20.146 43.517 20.1174 43.602 20.0317 43.3184C19.8603 42.8079 19.8603 42.1839 20.0317 42.1839C20.1174 42.1839 20.1746 42.5243 20.1603 42.9213ZM14.375 43.3468C14.4321 43.8431 14.4036 44.4671 14.3322 44.7366C14.2179 45.1762 14.2036 45.1195 14.1893 44.226C14.175 43.5879 14.1036 43.1341 13.9608 42.9497C13.6751 42.581 13.6893 42.4675 14.0179 42.4675C14.2464 42.4675 14.3036 42.6093 14.375 43.3468ZM10.1468 42.7512H10.5324L10.1039 42.9781C9.56109 43.2617 8.93257 43.8431 8.58973 44.382L8.31833 44.8075L8.33261 44.1693C8.36118 43.1482 8.48974 42.8362 8.96113 42.737C9.20397 42.6802 9.47538 42.6661 9.57537 42.6944C9.68965 42.7228 9.94677 42.7512 10.1468 42.7512ZM20.8602 42.9922C21.1316 43.673 21.3173 45.5307 21.3173 47.5445C21.3173 49.2746 20.7602 55.1458 20.4745 56.5072C20.2746 57.4006 20.1603 49.9128 20.3031 46.5802C20.3888 44.8217 20.4603 43.2191 20.4603 42.9922C20.4603 42.7795 20.5174 42.6093 20.5888 42.6093C20.6602 42.6093 20.7745 42.7795 20.8602 42.9922ZM13.5179 42.9781C13.6465 43.0915 13.7893 43.3468 13.8322 43.5453C14.0036 44.2402 13.7893 53.2596 13.5465 54.7345C12.918 58.8188 11.9895 61.6551 10.3039 64.5907C8.93257 67.0015 8.97542 66.6895 9.00399 73.2414C9.04684 78.4743 8.97542 79.623 8.68973 79.3394C8.48974 79.1267 8.00406 76.0635 7.8755 74.0497C7.70409 71.6814 7.77551 66.3492 8.03263 62.3925C8.10406 61.2155 8.17548 57.9395 8.17548 55.0891C8.18976 48.0692 8.31833 45.6725 8.73258 44.8217C9.13255 43.9991 9.86107 43.4035 10.8896 43.049C11.8752 42.7086 13.2037 42.6661 13.5179 42.9781ZM19.9889 45.8994C19.9603 46.2398 19.9317 45.9704 19.9317 45.3038C19.9317 44.6373 19.9603 44.3678 19.9889 44.694C20.0174 45.0344 20.0174 45.5733 19.9889 45.8994ZM17.8319 45.0486C18.3747 45.162 18.7033 45.162 19.0318 45.0486L19.4889 44.8784L19.4318 46.2965L19.3889 47.7005L18.8175 48.2819C18.2604 48.8492 18.2461 48.8776 18.2747 49.7852C18.3033 50.4092 18.2461 50.8488 18.089 51.1324C17.8033 51.6997 16.7605 52.1677 16.0892 52.04L15.6035 51.9549V51.0757C15.6035 50.5935 15.5321 49.6008 15.4606 48.8634C15.2607 47.0056 15.2607 45.6725 15.4606 45.318C15.7749 44.7224 16.1177 44.694 17.8319 45.0486ZM14.8321 48.1401C15.1892 49.5583 15.2749 50.9481 15.0178 51.416C14.9035 51.643 14.9178 51.7706 15.0892 51.9549C15.5178 52.4229 15.3606 58.0246 14.6607 68.0651C14.2179 74.3333 14.0607 82.3175 14.3036 85.4942C14.3893 86.6571 14.4321 87.6356 14.4036 87.6639C14.375 87.7065 13.5179 87.8199 12.5037 87.9334C11.5038 88.061 9.90392 88.3021 8.96113 88.4865C8.01835 88.6566 7.23269 88.7985 7.21841 88.7843C7.11842 88.6992 6.88986 83.9767 6.88986 82.0481C6.88986 79.6939 7.10413 74.7304 7.30412 72.6741C7.38983 71.653 7.40411 71.7098 7.5041 73.7377C7.58981 75.8508 7.6898 76.5882 8.13263 78.602C8.37546 79.7648 8.60402 79.9776 9.07541 79.4954C9.38967 79.1834 9.38967 79.1692 9.34682 73.525C9.31825 68.9302 9.34682 67.7248 9.51823 67.1717C9.61823 66.803 10.2896 65.3848 10.9896 64.0234C13.3179 59.457 14.0607 56.1101 14.275 49.2037C14.3322 47.4027 14.4036 46.1264 14.4321 46.3674C14.4607 46.5943 14.6321 47.4027 14.8321 48.1401ZM20.0889 58.5777C20.1317 58.6912 20.0032 59.8824 19.8175 61.2296C18.3747 70.9723 17.9747 75.4678 17.9604 81.495C17.9604 84.1895 17.9176 86.3309 17.8747 86.2458C17.6462 85.8062 17.4176 82.2324 17.3605 77.8503C17.3034 74.0923 17.3605 71.6814 17.6033 66.9306C17.7747 63.5696 17.9319 58.8046 17.9604 56.337C18.0033 52.0117 18.0033 51.8273 18.3033 51.4586C18.5461 51.1466 18.6033 50.8913 18.6033 50.0263C18.6033 49.0052 18.6175 48.9768 19.1746 48.367C19.5318 47.9841 19.7603 47.6012 19.7746 47.346C19.7889 47.1191 19.846 49.5015 19.9032 52.6498C19.9603 55.7981 20.046 58.4642 20.0889 58.5777ZM17.3176 65.087C16.7891 76.2337 16.8034 80.8994 17.3891 85.3665C17.7033 87.7348 17.8176 87.5079 16.3034 87.6356C15.5892 87.6781 14.9464 87.6781 14.875 87.6072C14.8178 87.5505 14.675 85.8771 14.5893 83.9058C14.375 79.7365 14.5179 75.1133 15.1178 66.8597C15.3178 63.995 15.5178 59.7973 15.5606 57.1028L15.6463 52.3946L16.3034 52.3804C16.6605 52.3804 17.0891 52.3237 17.2462 52.2669C17.5319 52.1535 17.5319 52.2244 17.5748 55.6421C17.589 57.6984 17.4891 61.5842 17.3176 65.087ZM25.0313 88.1603C25.917 88.5999 26.2598 89.2948 26.0313 90.1457C25.9313 90.4719 25.7313 90.9257 25.5884 91.1384C25.217 91.6489 24.0028 92.202 23.0315 92.3155C22.2458 92.4006 8.3469 91.2235 7.86122 91.0391C7.5041 90.8973 7.08985 89.1246 7.40411 89.1246C7.44696 89.1246 8.14691 88.997 8.94685 88.841C10.5182 88.5432 13.5036 88.1319 14.1893 88.1319C14.575 88.1319 14.6036 88.1603 14.6036 88.6992C14.6036 90.5995 17.2605 90.2308 18.0319 88.217L18.1747 87.8483H21.2888C24.2314 87.8483 24.4314 87.8625 25.0313 88.1603ZM17.5462 88.4014C17.1748 89.1104 16.5177 89.5501 15.8178 89.5501C15.4749 89.5501 15.1607 89.5075 15.1321 89.4366C15.0892 89.3799 15.0178 89.0395 14.9607 88.6566L14.8607 87.9901H17.7605L17.5462 88.4014ZM14.2036 92.0318C17.2176 92.3013 19.9317 92.5424 20.246 92.5707C21.4173 92.67 17.2605 92.6558 13.8179 92.5282C10.2182 92.4006 9.20397 92.2587 8.5326 91.7624C8.14691 91.4646 7.84693 91.4504 14.2036 92.0318Z" fill="#FFC904"/>
<path d="M17.0243 20.9826C15.1816 21.2237 14.3245 21.4647 13.496 21.9895C12.9246 22.3582 12.5104 22.8545 12.6532 22.9963C12.6961 23.0389 13.096 23.1523 13.5531 23.2374L14.3817 23.4076L14.3245 25.9745L14.2817 28.5413L14.6816 28.8108C15.0245 29.0235 15.3816 29.066 16.9815 29.066C18.3814 29.066 18.9242 29.1086 19.0099 29.2504C19.0813 29.378 19.2956 29.4064 19.6955 29.3355C20.0241 29.2929 20.3955 29.3071 20.524 29.3922C21.0383 29.6616 17.3243 30.2714 15.0959 30.2714H13.7531L13.6817 30.8671C13.5246 32.0016 13.1675 36.6815 13.1675 37.4473C13.1675 38.0429 13.2246 38.2273 13.4389 38.3549C13.596 38.4258 14.5816 38.5109 15.6244 38.5109C17.4243 38.5251 17.4671 38.5393 16.5244 38.6527C13.9817 38.9789 11.7819 39.4185 9.49631 40.085C8.75351 40.2978 8.45354 40.4538 8.45354 40.6098C8.45354 41.0068 8.93921 41.7585 9.38204 42.0421C9.75344 42.2832 9.76772 42.3257 9.5106 42.3257C9.03921 42.3257 8.72494 42.7937 8.5821 43.7013C8.51067 44.1551 8.3964 48.0976 8.32497 52.4655C8.15356 62.6336 8.06785 65.1296 7.73931 69.5542C7.58217 71.5396 7.39647 74.2199 7.31077 75.5104C7.11078 78.7012 7.13935 85.4374 7.3679 88.2312C7.52504 90.3159 7.58217 90.5853 7.92501 91.0959C8.38211 91.7766 9.33918 92.358 10.4391 92.6133C10.9533 92.7409 13.1675 92.8544 16.7958 92.9536C19.867 93.0387 22.381 93.1238 22.4096 93.138C22.4953 93.2373 19.8384 93.8045 18.5956 93.9605C16.0387 94.2725 12.6675 93.9038 10.1534 93.0387C8.91064 92.6133 8.56781 92.5707 8.88208 92.8685C9.23919 93.1947 10.6534 93.6485 12.5675 94.0314C15.8101 94.698 19.2384 94.5136 22.4239 93.5067C23.7381 93.0813 24.0809 92.826 23.3524 92.7976C22.9667 92.7693 22.9667 92.7693 23.3095 92.7267C25.238 92.4289 26.3807 91.7482 26.8236 90.6137C27.2807 89.4083 26.895 88.3872 25.7379 87.8199C25.1237 87.5079 24.9523 87.4938 21.9525 87.5079L18.8099 87.5363L18.767 84.3171C18.6956 79.3394 19.0242 74.305 19.8098 67.9942C20.2526 64.4772 20.724 61.1587 20.7812 61.102C20.8097 61.0736 20.9097 62.1798 20.9954 63.5696C21.2526 67.1717 22.6953 84.0335 22.8667 85.2956C22.981 86.2174 23.0524 86.4018 23.4381 86.7421C23.9524 87.1959 24.1238 87.2243 24.8237 86.9265C25.1951 86.7705 25.3951 86.5578 25.6237 86.0472L25.9236 85.3665L25.8379 72.8868C25.7236 57.7694 25.3523 43.1199 25.0808 42.3966C25.0237 42.269 24.8237 42.0988 24.638 41.9854C24.2952 41.8152 24.3238 41.801 25.2523 41.645C26.6236 41.4181 26.9378 40.9217 26.2379 40.085C25.6379 39.376 23.3381 38.5534 21.7382 38.4825C21.4383 38.4683 21.3526 38.44 21.5383 38.3974C21.7954 38.3549 21.8811 38.1564 22.0668 37.2487C22.4239 35.5611 22.6239 33.8735 22.6382 32.3987C22.6525 31.2216 22.6239 30.9805 22.3096 30.4416C21.9668 29.8318 20.8954 28.9951 20.4526 28.9951C20.2526 28.9951 20.2098 28.6973 20.1812 26.3574L20.1526 23.7196L20.9097 23.8047C21.324 23.8472 23.0239 23.904 24.6809 23.9181C27.4235 23.9465 27.7235 23.9323 28.1092 23.6912C28.7091 23.2942 28.8663 23.0389 28.8806 22.4291C28.8806 21.7484 28.4092 21.2804 27.4807 21.0535C26.4093 20.784 18.9956 20.7415 17.0243 20.9826ZM27.095 21.3371C28.4806 21.6207 29.0091 22.4716 28.2377 23.1807L27.8521 23.5352L19.7812 23.4501L19.8527 26.0028C19.9098 28.3002 19.8955 28.5697 19.6813 28.6548C19.5527 28.7115 19.4098 28.7115 19.367 28.6831C19.3384 28.6406 19.2527 27.5911 19.1956 26.3432C19.0813 23.8756 18.9385 23.4501 18.1957 23.1665C17.7243 22.9822 17.1672 23.2091 17.1672 23.5636C17.1672 23.7054 17.2672 24.7407 17.3671 25.861C17.4814 26.9813 17.5386 27.9882 17.4957 28.0875C17.3957 28.3711 16.6815 28.3286 16.4244 28.0308C16.0672 27.6195 16.0387 27.3501 16.2387 26.485C16.5101 25.4072 16.4958 24.8258 16.2387 24.3152C15.9958 23.8472 15.6244 23.6061 15.1816 23.6061C15.0102 23.6061 14.8816 23.5069 14.8816 23.3934C14.8816 23.2091 14.096 22.8971 13.5674 22.8971C13.196 22.8971 13.1389 22.6843 13.4389 22.4149C14.0388 21.8618 15.6816 21.4931 18.9527 21.1386C19.9812 21.0393 26.3665 21.1811 27.095 21.3371ZM18.5385 23.8189C18.7242 24.1025 18.7956 24.6698 18.8527 26.4424L18.9242 28.7115H18.1671C17.4243 28.7115 17.41 28.7115 17.6671 28.4279C17.8957 28.1726 17.91 28.0166 17.7528 26.2723C17.5243 23.5211 17.5243 23.4643 17.9528 23.4643C18.1671 23.4643 18.3956 23.6061 18.5385 23.8189ZM15.6673 24.1309C16.1244 24.5705 16.1958 25.0243 15.953 26.0312C15.8387 26.5559 15.7387 27.1799 15.7387 27.3926C15.7387 27.8748 16.0815 28.3995 16.5101 28.5697C16.7243 28.6548 16.5672 28.6973 15.9244 28.6973C14.6531 28.7115 14.5959 28.6406 14.6816 26.6835C14.7816 24.2727 14.853 23.8898 15.1673 23.8898C15.3102 23.8898 15.5387 23.989 15.6673 24.1309ZM22.1811 30.9663C22.4096 31.6187 22.2668 34.0863 21.8811 36.2844C21.724 37.2204 21.5668 38.0004 21.5383 38.0429C21.2526 38.3123 21.1954 37.504 21.1669 33.7885L21.1526 29.6333L21.5811 30.0445C21.8239 30.2714 22.0954 30.6827 22.1811 30.9663ZM20.8812 38.0713H20.0669L19.9812 36.4688C19.8527 34.3841 19.8527 30.2005 19.9812 30.0871C20.0241 30.0304 20.2526 29.9878 20.4812 29.9878H20.8812V38.0713ZM19.6241 34.0579C19.6527 36.2277 19.6527 38.0287 19.6384 38.0571C19.6098 38.0854 18.3242 38.1422 16.7815 38.1847C14.5245 38.2273 13.896 38.1989 13.696 38.0429C13.4389 37.8585 13.4389 37.7309 13.7246 34.3132C13.896 32.3845 14.0388 30.782 14.0674 30.7678C14.0817 30.7536 14.6531 30.6969 15.353 30.6543L16.5958 30.5693V34.2423C16.5958 37.4189 16.6243 37.9294 16.81 37.9294C16.9957 37.9294 17.0243 37.4189 17.0243 34.2423V30.5693L17.4957 30.4983C17.7385 30.4558 18.2814 30.3707 18.667 30.2998C19.067 30.2289 19.4241 30.158 19.4813 30.1438C19.5241 30.1438 19.5955 31.9023 19.6241 34.0579ZM20.9383 40.2127C20.9812 40.9927 20.9954 41.7017 20.9526 41.7726C20.8954 41.8435 20.7097 41.9003 20.524 41.9003C20.3383 41.9003 20.1669 41.9712 20.1384 42.0704C20.0955 42.1697 19.9098 42.113 19.6098 41.8861C18.9099 41.3756 17.3243 41.3614 14.0388 41.8152C12.5818 42.0137 11.2105 42.1839 10.9676 42.1839C10.082 42.1697 8.88208 41.3897 8.88208 40.8225C8.88208 40.5956 9.41061 40.4112 11.4105 39.929C14.1817 39.2625 17.2386 38.8512 19.8955 38.7945L20.8383 38.7803L20.9383 40.2127ZM23.181 39.064C24.0952 39.2483 25.3522 39.7305 25.7951 40.0709C26.1808 40.3687 26.295 40.9501 26.0093 41.1345C25.8379 41.2337 22.3096 41.7443 21.7097 41.7585H21.3097V38.8087L21.9239 38.8796C22.2525 38.908 22.8239 38.9931 23.181 39.064ZM18.7099 41.8435C18.9527 41.8861 19.3527 42.0988 19.6098 42.3115C20.0384 42.6803 20.0669 42.7512 20.0384 43.5311C20.0241 43.9849 19.9384 44.4529 19.8527 44.5664C19.6813 44.7649 19.1099 44.7507 17.2243 44.5097C16.5529 44.4246 16.4529 44.4529 16.0387 44.8358C15.6673 45.1478 15.553 45.3889 15.453 46.0129C15.3673 46.6652 15.3387 46.5093 15.3244 45.0202C15.2959 42.8221 15.2102 42.1839 14.8959 42.1697C14.7673 42.1555 15.053 42.0704 15.5244 41.9712C16.4672 41.7726 18.0385 41.7159 18.7099 41.8435ZM24.6094 42.4108C24.8523 42.6377 24.8809 43.0915 25.1665 52.5364C25.3665 58.8613 25.6379 84.2178 25.5237 85.1396C25.4522 85.7211 25.3237 86.0047 25.0237 86.3167C24.5095 86.813 23.8381 86.8556 23.5381 86.4018C23.2524 85.9622 23.2096 85.6076 22.881 81.6084C22.7239 79.6939 22.3953 75.9926 22.1668 73.3832C21.7525 68.6466 21.424 64.7183 21.1669 61.0169C21.0526 59.2584 21.0669 58.8188 21.3954 56.4788C22.1525 51.019 22.2096 50.3383 22.2096 47.5729C22.2096 44.6515 21.9811 42.9781 21.5097 42.4533C21.2954 42.2264 21.3097 42.1981 21.6954 42.1414C22.4382 42.0137 24.3666 42.1839 24.6094 42.4108ZM20.724 42.9213C20.7097 43.517 20.6812 43.602 20.5955 43.3184C20.4241 42.8079 20.4241 42.1839 20.5955 42.1839C20.6812 42.1839 20.7383 42.5243 20.724 42.9213ZM14.9388 43.3468C14.9959 43.8431 14.9673 44.4671 14.8959 44.7366C14.7816 45.1762 14.7673 45.1195 14.7531 44.226C14.7388 43.5879 14.6673 43.1341 14.5245 42.9497C14.2388 42.581 14.2531 42.4675 14.5816 42.4675C14.8102 42.4675 14.8673 42.6093 14.9388 43.3468ZM10.7105 42.7512H11.0962L10.6677 42.9781C10.1248 43.2617 9.49631 43.8431 9.15348 44.382L8.88208 44.8075L8.89636 44.1693C8.92493 43.1482 9.05349 42.8362 9.52488 42.737C9.76772 42.6802 10.0391 42.6661 10.1391 42.6944C10.2534 42.7228 10.5105 42.7512 10.7105 42.7512ZM21.424 42.9922C21.6954 43.673 21.8811 45.5307 21.8811 47.5445C21.8811 49.2746 21.324 55.1458 21.0383 56.5072C20.8383 57.4006 20.724 49.9128 20.8669 46.5802C20.9526 44.8217 21.024 43.2191 21.024 42.9922C21.024 42.7795 21.0811 42.6093 21.1526 42.6093C21.224 42.6093 21.3383 42.7795 21.424 42.9922ZM14.0817 42.9781C14.2102 43.0915 14.3531 43.3468 14.3959 43.5453C14.5674 44.2402 14.3531 53.2596 14.1102 54.7345C13.4817 58.8188 12.5532 61.6551 10.8676 64.5907C9.49631 67.0015 9.53917 66.6895 9.56774 73.2414C9.61059 78.4743 9.53917 79.623 9.25348 79.3394C9.05349 79.1267 8.56781 76.0635 8.43925 74.0497C8.26784 71.6814 8.33926 66.3492 8.59638 62.3925C8.66781 61.2155 8.73923 57.9395 8.73923 55.0891C8.75351 48.0692 8.88208 45.6725 9.29633 44.8217C9.6963 43.9991 10.4248 43.4035 11.4533 43.049C12.4389 42.7086 13.7674 42.6661 14.0817 42.9781ZM20.5526 45.8994C20.524 46.2398 20.4955 45.9704 20.4955 45.3038C20.4955 44.6373 20.524 44.3678 20.5526 44.694C20.5812 45.0344 20.5812 45.5733 20.5526 45.8994ZM18.3956 45.0486C18.9385 45.162 19.267 45.162 19.5955 45.0486L20.0527 44.8784L19.9955 46.2965L19.9527 47.7005L19.3813 48.2819C18.8242 48.8492 18.8099 48.8776 18.8385 49.7852C18.867 50.4092 18.8099 50.8488 18.6528 51.1324C18.3671 51.6997 17.3243 52.1677 16.6529 52.04L16.1672 51.9549V51.0757C16.1672 50.5935 16.0958 49.6008 16.0244 48.8634C15.8244 47.0056 15.8244 45.6725 16.0244 45.318C16.3387 44.7224 16.6815 44.694 18.3956 45.0486ZM15.3959 48.1401C15.753 49.5583 15.8387 50.9481 15.5816 51.416C15.4673 51.643 15.4816 51.7706 15.653 51.9549C16.0815 52.4229 15.9244 58.0246 15.2244 68.0651C14.7816 74.3333 14.6245 82.3175 14.8673 85.4942C14.953 86.6571 14.9959 87.6356 14.9673 87.6639C14.9388 87.7065 14.0817 87.8199 13.0675 87.9334C12.0675 88.061 10.4677 88.3021 9.52488 88.4865C8.5821 88.6566 7.79644 88.7985 7.78216 88.7843C7.68217 88.6992 7.45361 83.9767 7.45361 82.0481C7.45361 79.6939 7.66788 74.7304 7.86787 72.6741C7.95357 71.653 7.96786 71.7098 8.06785 73.7377C8.15356 75.8508 8.25355 76.5882 8.69637 78.602C8.93921 79.7648 9.16777 79.9776 9.63916 79.4954C9.95342 79.1834 9.95342 79.1692 9.91057 73.525C9.882 68.9302 9.91057 67.7248 10.082 67.1717C10.182 66.803 10.8534 65.3848 11.5533 64.0234C13.8817 59.457 14.6245 56.1101 14.8388 49.2037C14.8959 47.4027 14.9673 46.1264 14.9959 46.3674C15.0245 46.5943 15.1959 47.4027 15.3959 48.1401ZM20.6526 58.5777C20.6955 58.6912 20.5669 59.8824 20.3812 61.2296C18.9385 70.9723 18.5385 75.4678 18.5242 81.495C18.5242 84.1895 18.4813 86.3309 18.4385 86.2458C18.2099 85.8062 17.9814 82.2324 17.9242 77.8503C17.8671 74.0923 17.9242 71.6814 18.1671 66.9306C18.3385 63.5696 18.4956 58.8046 18.5242 56.337C18.5671 52.0117 18.5671 51.8273 18.867 51.4586C19.1099 51.1466 19.167 50.8913 19.167 50.0263C19.167 49.0052 19.1813 48.9768 19.7384 48.367C20.0955 47.9841 20.3241 47.6012 20.3383 47.346C20.3526 47.1191 20.4098 49.5015 20.4669 52.6498C20.524 55.7981 20.6098 58.4642 20.6526 58.5777ZM17.8814 65.087C17.3529 76.2337 17.3671 80.8994 17.9528 85.3665C18.2671 87.7348 18.3814 87.5079 16.8672 87.6356C16.153 87.6781 15.5101 87.6781 15.4387 87.6072C15.3816 87.5505 15.2387 85.8771 15.153 83.9058C14.9388 79.7365 15.0816 75.1133 15.6816 66.8597C15.8815 63.995 16.0815 59.7973 16.1244 57.1028L16.2101 52.3946L16.8672 52.3804C17.2243 52.3804 17.6528 52.3237 17.81 52.2669C18.0957 52.1535 18.0957 52.2244 18.1385 55.6421C18.1528 57.6984 18.0528 61.5842 17.8814 65.087ZM25.5951 88.1603C26.4807 88.5999 26.8236 89.2948 26.595 90.1457C26.495 90.4719 26.295 90.9257 26.1522 91.1384C25.7808 91.6489 24.5666 92.202 23.5952 92.3155C22.8096 92.4006 8.91064 91.2235 8.42497 91.0391C8.06785 90.8973 7.6536 89.1246 7.96786 89.1246C8.01071 89.1246 8.71066 88.997 9.5106 88.841C11.0819 88.5432 14.0674 88.1319 14.7531 88.1319C15.1387 88.1319 15.1673 88.1603 15.1673 88.6992C15.1673 90.5995 17.8243 90.2308 18.5956 88.217L18.7385 87.8483H21.8525C24.7951 87.8483 24.9951 87.8625 25.5951 88.1603ZM18.1099 88.4014C17.7385 89.1104 17.0815 89.5501 16.3815 89.5501C16.0387 89.5501 15.7244 89.5075 15.6958 89.4366C15.653 89.3799 15.5816 89.0395 15.5244 88.6566L15.4244 87.9901H18.3242L18.1099 88.4014ZM14.7673 92.0318C17.7814 92.3013 20.4955 92.5424 20.8097 92.5707C21.9811 92.67 17.8243 92.6558 14.3817 92.5282C10.7819 92.4006 9.76772 92.2587 9.09634 91.7624C8.71066 91.4646 8.41068 91.4504 14.7673 92.0318Z" fill="#FFC904"/>
<path d="M81.8127 30.853C80.7128 30.9097 78.3844 31.0657 76.6417 31.1933C74.899 31.321 73.2562 31.3777 72.9848 31.3351C72.6991 31.2784 72.3563 31.3068 72.1992 31.3919C72.0278 31.477 71.2421 31.6188 70.4279 31.6897C69.6137 31.7606 68.6852 31.8599 68.3566 31.9166L67.7424 31.9875V33.6184C67.7424 35.5612 67.8852 35.8023 68.9708 35.8023C69.4994 35.8023 69.6994 35.8732 70.0422 36.2136C70.2707 36.4405 70.4564 36.7525 70.4564 36.9085C70.4564 37.1496 70.3279 37.2063 69.428 37.2914C68.8566 37.3481 68.328 37.4474 68.2423 37.5041C68.1709 37.5608 67.5852 37.6459 66.9567 37.6743C66.3282 37.7026 65.6568 37.8161 65.4711 37.9154C65.1569 38.0855 65.1426 38.1564 65.214 39.0499C65.2568 39.5604 65.3997 40.6808 65.514 41.5458C65.6425 42.3967 65.7425 43.7298 65.7425 44.4814C65.7425 45.8003 65.7282 45.8712 65.4283 45.9279C65.2426 45.9563 64.6855 46.0555 64.1712 46.1548C63.657 46.2399 62.8427 46.4526 62.3571 46.6086C61.4 46.9206 60.0858 47.7006 60.1287 47.9275C60.1429 47.9984 60.6572 48.126 61.2714 48.1828C63.7284 48.438 63.7998 48.4664 62.1714 48.594C61.3429 48.6507 60.5143 48.75 60.3286 48.7926L59.9858 48.8635L60.0858 50.8063C60.1429 51.8699 60.5572 58.9323 61.0286 66.5052C61.4857 74.064 61.9714 81.9772 62.0999 84.0903C62.3285 87.976 62.4856 89.6211 62.7713 91.2236C62.957 92.2021 63.0427 92.2588 63.9284 91.8901C64.6855 91.5781 64.714 91.6207 64.0427 92.1028C63.7141 92.3439 63.3713 92.6985 63.2713 92.9112C63.1284 93.2374 63.157 93.3083 63.4855 93.5919C63.8855 93.9322 64.1998 93.989 67.2424 94.23C69.8422 94.4428 75.7846 94.4002 78.5273 94.1591C81.9984 93.8613 82.3127 93.8046 82.3127 93.5493C82.3127 93.3792 82.1841 93.365 81.6413 93.4359C77.8702 93.9606 70.5422 94.1024 66.4282 93.7337C64.0998 93.5352 63.557 93.3933 63.6998 93.0246C63.8141 92.7126 64.8283 92.0603 65.6711 91.7341C66.8282 91.2945 69.1851 91.3796 71.5992 91.9326C74.9275 92.6984 75.2275 92.7268 78.5987 92.7268C82.0841 92.7268 82.5127 92.6559 82.8269 91.961C83.0126 91.5639 83.4983 68.4339 83.484 59.8399C83.484 54.8481 83.284 50.31 83.0126 49.4591C82.8412 48.906 82.4555 48.7784 80.5557 48.6366C79.7129 48.5657 79.3129 48.4806 79.3558 48.3813C79.4272 48.1402 80.8414 47.8424 81.727 47.8849C82.1984 47.9133 82.527 47.8708 82.5555 47.7715C82.6412 47.5304 81.3699 46.7504 80.4557 46.4668C79.8129 46.2824 79.1415 46.2399 76.8274 46.2683C74.4847 46.2966 71.0707 46.1264 70.9564 45.9846C70.9421 45.9563 70.9707 44.0276 71.0278 41.6876C71.085 38.979 71.0707 37.3623 70.985 37.2488C70.7421 36.9368 71.0135 36.8801 71.3564 37.1779C71.5278 37.3339 72.1277 37.731 72.6991 38.0572C74.5847 39.135 74.8847 39.844 74.6133 42.7229C74.3419 45.4883 74.5704 46.1548 75.7418 46.1548C76.3846 46.1548 76.9702 45.5308 77.0988 44.7225C77.1416 44.3821 77.1417 42.7371 77.0702 41.0637C76.9274 37.419 76.9702 37.5041 75.1704 37.5041C74.1276 37.5041 74.0276 37.4757 73.7562 37.1354C73.1848 36.4121 73.4848 35.1925 74.4704 34.214C75.0132 33.6751 75.3418 33.4907 76.1703 33.2355C77.0702 32.966 77.4273 32.9377 79.1843 32.9944L81.1699 33.0511L82.3555 33.6467C82.9984 33.9729 83.7269 34.2424 83.984 34.2424C84.6839 34.2424 85.1268 33.746 85.3982 32.7108C85.641 31.7181 85.5696 31.0515 85.1696 30.8388C84.8839 30.6828 84.7411 30.6828 81.8127 30.853ZM85.0982 31.4486C85.1982 31.8457 84.9411 33.0653 84.6554 33.4907C84.3554 33.9587 83.784 33.902 82.6412 33.3206C81.3842 32.6682 80.3414 32.498 78.2416 32.5689C76.3131 32.6398 75.4418 32.8951 74.4561 33.6751C72.9991 34.8238 72.6277 36.795 73.6991 37.6459C73.999 37.8728 74.2847 37.9295 75.1847 37.9295C76.1274 37.9295 76.3274 37.9721 76.4417 38.199C76.5274 38.3408 76.6131 39.9291 76.6274 41.8011C76.6703 44.9352 76.656 45.1479 76.3988 45.4315C76.1846 45.6585 75.9846 45.7294 75.6132 45.701C75.1561 45.6585 75.0847 45.6017 74.9704 45.1337C74.8847 44.7792 74.899 43.9992 75.0132 42.8505C75.3561 39.688 75.0132 38.9506 72.5134 37.4616C70.4279 36.2136 69.8422 34.682 70.8136 33.0227C70.9993 32.6966 71.3135 32.342 71.4992 32.2144C71.8563 31.9875 74.7133 31.7039 79.8129 31.4061C81.2271 31.321 82.6698 31.2359 83.0269 31.2217C84.8839 31.0941 85.0125 31.1082 85.0982 31.4486ZM70.5279 32.6824C70.0993 33.3631 69.8708 34.3133 69.9708 34.9798L70.0565 35.4761L69.2994 35.4052C68.8709 35.3769 68.4423 35.2776 68.3566 35.2067C68.228 35.1074 68.1709 34.6111 68.1709 33.6609V32.2711L68.9994 32.2144C69.4422 32.186 70.0565 32.1577 70.3565 32.1435L70.885 32.1151L70.5279 32.6824ZM70.6136 41.2764C70.5993 43.1341 70.5564 44.9777 70.4993 45.3606L70.4136 46.0414L69.7708 45.9563C69.4137 45.9137 68.9423 45.8712 68.728 45.8712H68.3138V37.9437L69.3565 37.9012C69.9136 37.8728 70.4422 37.8586 70.5136 37.8586C70.5993 37.8728 70.6279 39.291 70.6136 41.2764ZM67.8852 45.8712H66.2139L66.1139 43.7723C66.0711 42.6236 65.8997 40.9927 65.7568 40.1419C65.5997 39.291 65.514 38.511 65.5568 38.4117C65.6425 38.1706 65.9282 38.1139 66.9996 38.0855L67.8852 38.0714V45.8712ZM65.7425 47.0341C65.7425 48.2253 65.8139 48.1828 63.257 47.9842C62.0285 47.8849 61.0286 47.7715 61.0286 47.7148C61.0286 47.4028 63.9998 46.481 65.5711 46.3108C65.6854 46.2966 65.7425 46.5235 65.7425 47.0341ZM67.8852 48.282H66.9424C66.0282 48.282 65.9996 48.2678 66.0854 47.9559C66.1282 47.7857 66.1711 47.3461 66.1711 46.9632V46.2966H67.8852V48.282ZM70.1279 46.3817C70.2993 46.4243 70.485 46.6086 70.5422 46.7788C70.685 47.2042 70.8564 47.2893 71.7278 47.2893C72.3277 47.2893 72.5849 47.3602 72.842 47.6013C73.4705 48.1828 73.3134 48.2253 70.7421 48.2395L68.3138 48.2537V46.2966H69.0708C69.4708 46.2966 69.9565 46.3392 70.1279 46.3817ZM75.8418 46.6512C79.3272 46.6795 79.67 46.7079 80.6271 47.0199L81.6699 47.3461L80.4271 47.5871C79.0129 47.8708 78.8558 47.9275 78.9129 48.2537C78.9415 48.3813 78.8844 48.4806 78.813 48.4664C78.7272 48.4522 77.5559 48.3955 76.1989 48.3388C74.0276 48.2537 73.7419 48.2111 73.6705 47.9842C73.6276 47.8424 73.3562 47.5304 73.0705 47.2751C72.5991 46.8781 72.4849 46.8355 71.9135 46.9206C71.285 47.0057 70.885 46.8639 70.885 46.5377C70.885 46.4526 71.1135 46.4384 71.4992 46.5093C71.8278 46.5661 73.7848 46.637 75.8418 46.6512ZM73.4562 48.8493C73.6419 49.1896 73.9276 52.0543 73.8562 52.8485C73.7705 53.7135 73.4277 54.0964 72.742 54.0964C71.942 54.0964 71.7563 54.3092 71.5992 55.5146C71.3421 57.3865 71.2564 62.3784 71.4421 64.5198C72.0563 71.4404 74.2704 77.425 77.9559 82.1049C78.9844 83.4096 81.2842 85.7212 81.5556 85.7212C81.7842 85.7212 81.7842 85.5793 81.527 84.2179C80.7557 80.1195 80.37 75.0992 80.17 66.8598C79.9843 58.5069 79.77 52.8485 79.5843 50.778C79.5129 49.8562 79.47 49.062 79.5129 49.0336C79.5558 48.9911 80.2129 49.0195 80.9699 49.1046C81.9556 49.2038 82.4127 49.3031 82.527 49.4733C82.7412 49.7427 82.8555 51.2034 83.0269 55.4437C83.1555 58.4502 82.9269 76.7159 82.6555 86.4019C82.5698 89.2807 82.5412 89.536 82.3555 89.1673C82.2413 88.9545 81.3842 88.0469 80.4557 87.1677C76.4274 83.367 73.8133 78.6446 72.1706 72.1778C71.2135 68.4623 70.6993 64.7751 70.2422 58.3792C70.1136 56.6349 69.9422 55.16 69.8279 54.8906C69.6279 54.4084 68.9851 53.8128 68.6709 53.8128C68.3566 53.8128 68.3138 53.4441 68.3138 51.0474V48.7217L68.928 48.6649C69.2565 48.6366 70.385 48.6082 71.4278 48.6082C73.0563 48.6082 73.3419 48.6366 73.4562 48.8493ZM67.8852 51.1325C67.8852 52.4656 67.9424 53.671 68.0281 53.8128C68.0995 53.9546 68.3852 54.139 68.6423 54.2241C69.4422 54.4935 69.5851 55.0182 69.8279 58.3367C70.685 70.6604 72.3992 77.0421 76.4988 83.211C77.3988 84.5725 78.0702 85.3666 79.7129 86.9833C80.8414 88.1178 81.8984 89.2382 82.0413 89.4651C82.4412 90.1174 82.3984 90.8974 81.9413 91.3512C81.5842 91.7057 81.5413 91.7199 80.1271 91.6348C79.2272 91.5781 78.1416 91.4079 77.3131 91.181C73.4562 90.1174 72.6848 89.9756 70.9564 89.9756C70.0136 89.9756 68.828 90.0749 68.1995 90.2025C67.3281 90.3727 64.2855 91.2945 63.5141 91.6207C63.4284 91.6632 63.3141 91.5923 63.257 91.4647C63.0427 90.8974 62.7285 87.5648 62.4571 83.0267C62.2999 80.3322 61.7857 71.8942 61.3143 64.2787C60.8429 56.6633 60.4572 50.1398 60.4572 49.7994V49.1613L61.6428 49.062C64.0284 48.8493 65.5568 48.75 66.7139 48.7217L67.8852 48.7075V51.1325ZM78.9272 48.9911C79.1558 49.2038 79.4415 54.5077 79.5843 61.0454C79.8843 74.2767 80.1129 78.0064 80.8842 82.8565C81.0414 83.8067 81.1699 84.6717 81.1699 84.7568C81.1699 84.8561 80.7414 84.5157 80.2271 84.0194C76.1132 80.006 73.2134 73.9222 72.1563 67.0725C71.6278 63.7398 71.6564 55.3444 72.1992 54.7062C72.2849 54.607 72.5849 54.5219 72.8848 54.5219C73.5419 54.5219 74.099 53.9546 74.2562 53.1321C74.3561 52.5932 74.1133 49.374 73.9419 48.9202C73.8419 48.6791 73.9705 48.6649 76.3274 48.7642C77.6988 48.8209 78.8701 48.9202 78.9272 48.9911ZM75.2132 91.0534C78.613 91.9326 79.7843 92.1454 80.9128 92.0745C81.6842 92.0319 81.9413 91.961 82.2413 91.6774C82.6555 91.2945 82.7412 91.5356 82.327 91.9468C81.9841 92.2872 79.7272 92.4574 77.0988 92.3439C75.1704 92.2446 74.1419 92.0886 71.2421 91.4505C70.0279 91.181 69.0851 91.0676 67.9995 91.0534C67.1424 91.0534 66.4567 91.025 66.4567 91.025C66.4567 91.0109 66.9567 90.8832 67.571 90.7556C70.385 90.1174 71.7992 90.1741 75.2132 91.0534Z" fill="#FFC904"/>
<path d="M82.3765 30.853C81.2766 30.9097 78.9482 31.0657 77.2054 31.1933C75.4627 31.321 73.82 31.3777 73.5486 31.3351C73.2629 31.2784 72.9201 31.3068 72.7629 31.3919C72.5915 31.477 71.8058 31.6188 70.9916 31.6897C70.1774 31.7606 69.2489 31.8599 68.9204 31.9166L68.3061 31.9875V33.6184C68.3061 35.5612 68.449 35.8023 69.5346 35.8023C70.0631 35.8023 70.2631 35.8732 70.6059 36.2136C70.8345 36.4405 71.0202 36.7525 71.0202 36.9085C71.0202 37.1496 70.8916 37.2063 69.9917 37.2914C69.4203 37.3481 68.8918 37.4474 68.8061 37.5041C68.7347 37.5608 68.149 37.6459 67.5205 37.6743C66.8919 37.7026 66.2206 37.8161 66.0349 37.9154C65.7206 38.0855 65.7063 38.1564 65.7777 39.0499C65.8206 39.5604 65.9634 40.6808 66.0777 41.5458C66.2063 42.3967 66.3063 43.7298 66.3063 44.4814C66.3063 45.8003 66.292 45.8712 65.992 45.9279C65.8063 45.9563 65.2492 46.0555 64.735 46.1548C64.2207 46.2399 63.4065 46.4526 62.9208 46.6086C61.9637 46.9206 60.6496 47.7006 60.6924 47.9275C60.7067 47.9984 61.2209 48.126 61.8352 48.1828C64.2921 48.438 64.3636 48.4664 62.7351 48.594C61.9066 48.6507 61.0781 48.75 60.8924 48.7926L60.5496 48.8635L60.6496 50.8063C60.7067 51.8699 61.121 58.9323 61.5923 66.5052C62.0495 74.064 62.5351 81.9772 62.6637 84.0903C62.8922 87.976 63.0494 89.6211 63.3351 91.2236C63.5208 92.2021 63.6065 92.2588 64.4921 91.8901C65.2492 91.5781 65.2778 91.6207 64.6064 92.1028C64.2779 92.3439 63.935 92.6985 63.835 92.9112C63.6922 93.2374 63.7208 93.3083 64.0493 93.5919C64.4493 93.9322 64.7635 93.989 67.8062 94.23C70.406 94.4428 76.3484 94.4002 79.091 94.1591C82.5622 93.8613 82.8764 93.8046 82.8764 93.5493C82.8764 93.3792 82.7479 93.365 82.2051 93.4359C78.4339 93.9606 71.1059 94.1024 66.9919 93.7337C64.6635 93.5352 64.1207 93.3933 64.2636 93.0246C64.3778 92.7126 65.3921 92.0603 66.2348 91.7341C67.3919 91.2945 69.7489 91.3796 72.163 91.9326C75.4913 92.6984 75.7913 92.7268 79.1624 92.7268C82.6479 92.7268 83.0764 92.6559 83.3907 91.961C83.5764 91.5639 84.0621 68.4339 84.0478 59.8399C84.0478 54.8481 83.8478 50.31 83.5764 49.4591C83.405 48.906 83.0193 48.7784 81.1194 48.6366C80.2766 48.5657 79.8767 48.4806 79.9195 48.3813C79.9909 48.1402 81.4051 47.8424 82.2908 47.8849C82.7622 47.9133 83.0907 47.8708 83.1193 47.7715C83.205 47.5304 81.9336 46.7504 81.0194 46.4668C80.3766 46.2824 79.7052 46.2399 77.3911 46.2683C75.0485 46.2966 71.6344 46.1264 71.5202 45.9846C71.5059 45.9563 71.5344 44.0276 71.5916 41.6876C71.6487 38.979 71.6344 37.3623 71.5487 37.2488C71.3059 36.9368 71.5773 36.8801 71.9201 37.1779C72.0915 37.3339 72.6915 37.731 73.2629 38.0572C75.1485 39.135 75.4484 39.844 75.177 42.7229C74.9056 45.4883 75.1342 46.1548 76.3055 46.1548C76.9483 46.1548 77.534 45.5308 77.6625 44.7225C77.7054 44.3821 77.7054 42.7371 77.634 41.0637C77.4911 37.419 77.534 37.5041 75.7341 37.5041C74.6913 37.5041 74.5914 37.4757 74.3199 37.1354C73.7486 36.4121 74.0485 35.1925 75.0342 34.214C75.577 33.6751 75.9055 33.4907 76.734 33.2355C77.634 32.966 77.9911 32.9377 79.7481 32.9944L81.7337 33.0511L82.9193 33.6467C83.5621 33.9729 84.2906 34.2424 84.5477 34.2424C85.2477 34.2424 85.6905 33.746 85.9619 32.7108C86.2048 31.7181 86.1333 31.0515 85.7334 30.8388C85.4477 30.6828 85.3048 30.6828 82.3765 30.853ZM85.6619 31.4486C85.7619 31.8457 85.5048 33.0653 85.2191 33.4907C84.9191 33.9587 84.3478 33.902 83.205 33.3206C81.9479 32.6682 80.9052 32.498 78.8053 32.5689C76.8769 32.6398 76.0055 32.8951 75.0199 33.6751C73.5629 34.8238 73.1915 36.795 74.2628 37.6459C74.5628 37.8728 74.8485 37.9295 75.7484 37.9295C76.6912 37.9295 76.8912 37.9721 77.0055 38.199C77.0912 38.3408 77.1769 39.9291 77.1912 41.8011C77.234 44.9352 77.2197 45.1479 76.9626 45.4315C76.7483 45.6585 76.5483 45.7294 76.1769 45.701C75.7198 45.6585 75.6484 45.6017 75.5341 45.1337C75.4484 44.7792 75.4627 43.9992 75.577 42.8505C75.9198 39.688 75.577 38.9506 73.0772 37.4616C70.9916 36.2136 70.406 34.682 71.3773 33.0227C71.563 32.6966 71.8773 32.342 72.063 32.2144C72.4201 31.9875 75.277 31.7039 80.3766 31.4061C81.7908 31.321 83.2336 31.2359 83.5907 31.2217C85.4477 31.0941 85.5762 31.1082 85.6619 31.4486ZM71.0916 32.6824C70.6631 33.3631 70.4345 34.3133 70.5345 34.9798L70.6202 35.4761L69.8631 35.4052C69.4346 35.3769 69.0061 35.2776 68.9204 35.2067C68.7918 35.1074 68.7347 34.6111 68.7347 33.6609V32.2711L69.5632 32.2144C70.006 32.186 70.6202 32.1577 70.9202 32.1435L71.4487 32.1151L71.0916 32.6824ZM71.1773 41.2764C71.163 43.1341 71.1202 44.9777 71.063 45.3606L70.9773 46.0414L70.3345 45.9563C69.9774 45.9137 69.506 45.8712 69.2918 45.8712H68.8775V37.9437L69.9203 37.9012C70.4774 37.8728 71.0059 37.8586 71.0773 37.8586C71.163 37.8728 71.1916 39.291 71.1773 41.2764ZM68.449 45.8712H66.7777L66.6777 43.7723C66.6348 42.6236 66.4634 40.9927 66.3206 40.1419C66.1634 39.291 66.0777 38.511 66.1206 38.4117C66.2063 38.1706 66.492 38.1139 67.5633 38.0855L68.449 38.0714V45.8712ZM66.3063 47.0341C66.3063 48.2253 66.3777 48.1828 63.8207 47.9842C62.5923 47.8849 61.5923 47.7715 61.5923 47.7148C61.5923 47.4028 64.5635 46.481 66.1349 46.3108C66.2491 46.2966 66.3063 46.5235 66.3063 47.0341ZM68.449 48.282H67.5062C66.592 48.282 66.5634 48.2678 66.6491 47.9559C66.692 47.7857 66.7348 47.3461 66.7348 46.9632V46.2966H68.449V48.282ZM70.6917 46.3817C70.8631 46.4243 71.0488 46.6086 71.1059 46.7788C71.2487 47.2042 71.4202 47.2893 72.2915 47.2893C72.8915 47.2893 73.1486 47.3602 73.4057 47.6013C74.0343 48.1828 73.8771 48.2253 71.3059 48.2395L68.8775 48.2537V46.2966H69.6346C70.0346 46.2966 70.5202 46.3392 70.6917 46.3817ZM76.4055 46.6512C79.8909 46.6795 80.2338 46.7079 81.1908 47.0199L82.2336 47.3461L80.9909 47.5871C79.5767 47.8708 79.4196 47.9275 79.4767 48.2537C79.5053 48.3813 79.4481 48.4806 79.3767 48.4664C79.291 48.4522 78.1197 48.3955 76.7626 48.3388C74.5914 48.2537 74.3057 48.2111 74.2342 47.9842C74.1914 47.8424 73.92 47.5304 73.6343 47.2751C73.1629 46.8781 73.0486 46.8355 72.4772 46.9206C71.8487 47.0057 71.4487 46.8639 71.4487 46.5377C71.4487 46.4526 71.6773 46.4384 72.063 46.5093C72.3915 46.5661 74.3485 46.637 76.4055 46.6512ZM74.02 48.8493C74.2057 49.1896 74.4914 52.0543 74.4199 52.8485C74.3342 53.7135 73.9914 54.0964 73.3057 54.0964C72.5058 54.0964 72.3201 54.3092 72.163 55.5146C71.9058 57.3865 71.8201 62.3784 72.0058 64.5198C72.6201 71.4404 74.8342 77.425 78.5196 82.1049C79.5481 83.4096 81.8479 85.7212 82.1194 85.7212C82.3479 85.7212 82.3479 85.5793 82.0908 84.2179C81.3194 80.1195 80.9337 75.0992 80.7337 66.8598C80.548 58.5069 80.3338 52.8485 80.1481 50.778C80.0767 49.8562 80.0338 49.062 80.0767 49.0336C80.1195 48.9911 80.7766 49.0195 81.5337 49.1046C82.5193 49.2038 82.9764 49.3031 83.0907 49.4733C83.305 49.7427 83.4193 51.2034 83.5907 55.4437C83.7192 58.4502 83.4907 76.7159 83.2193 86.4019C83.1336 89.2807 83.105 89.536 82.9193 89.1673C82.805 88.9545 81.9479 88.0469 81.0194 87.1677C76.9912 83.367 74.3771 78.6446 72.7344 72.1778C71.7773 68.4623 71.263 64.7751 70.8059 58.3792C70.6774 56.6349 70.506 55.16 70.3917 54.8906C70.1917 54.4084 69.5489 53.8128 69.2346 53.8128C68.9204 53.8128 68.8775 53.4441 68.8775 51.0474V48.7217L69.4917 48.6649C69.8203 48.6366 70.9488 48.6082 71.9915 48.6082C73.62 48.6082 73.9057 48.6366 74.02 48.8493ZM68.449 51.1325C68.449 52.4656 68.5061 53.671 68.5918 53.8128C68.6632 53.9546 68.9489 54.139 69.206 54.2241C70.006 54.4935 70.1488 55.0182 70.3917 58.3367C71.2487 70.6604 72.9629 77.0421 77.0626 83.211C77.9625 84.5725 78.6339 85.3666 80.2766 86.9833C81.4051 88.1178 82.4622 89.2382 82.605 89.4651C83.005 90.1174 82.9621 90.8974 82.505 91.3512C82.1479 91.7057 82.1051 91.7199 80.6909 91.6348C79.791 91.5781 78.7053 91.4079 77.8768 91.181C74.02 90.1174 73.2486 89.9756 71.5202 89.9756C70.5774 89.9756 69.3917 90.0749 68.7632 90.2025C67.8919 90.3727 64.8492 91.2945 64.0779 91.6207C63.9922 91.6632 63.8779 91.5923 63.8207 91.4647C63.6065 90.8974 63.2922 87.5648 63.0208 83.0267C62.8637 80.3322 62.3494 71.8942 61.878 64.2787C61.4066 56.6633 61.021 50.1398 61.021 49.7994V49.1613L62.2066 49.062C64.5921 48.8493 66.1206 48.75 67.2776 48.7217L68.449 48.7075V51.1325ZM79.491 48.9911C79.7195 49.2038 80.0052 54.5077 80.1481 61.0454C80.4481 74.2767 80.6766 78.0064 81.448 82.8565C81.6051 83.8067 81.7337 84.6717 81.7337 84.7568C81.7337 84.8561 81.3051 84.5157 80.7909 84.0194C76.6769 80.006 73.7771 73.9222 72.7201 67.0725C72.1915 63.7398 72.2201 55.3444 72.7629 54.7062C72.8486 54.607 73.1486 54.5219 73.4486 54.5219C74.1057 54.5219 74.6628 53.9546 74.8199 53.1321C74.9199 52.5932 74.6771 49.374 74.5056 48.9202C74.4057 48.6791 74.5342 48.6649 76.8912 48.7642C78.2625 48.8209 79.4338 48.9202 79.491 48.9911ZM75.777 91.0534C79.1767 91.9326 80.3481 92.1454 81.4765 92.0745C82.2479 92.0319 82.505 91.961 82.805 91.6774C83.2193 91.2945 83.305 91.5356 82.8907 91.9468C82.5479 92.2872 80.2909 92.4574 77.6625 92.3439C75.7341 92.2446 74.7056 92.0886 71.8058 91.4505C70.5917 91.181 69.6489 91.0676 68.5632 91.0534C67.7062 91.0534 67.0205 91.025 67.0205 91.025C67.0205 91.0109 67.5205 90.8832 68.1347 90.7556C70.9488 90.1174 72.363 90.1741 75.777 91.0534Z" fill="#FFC904"/>
<path d="M38.4589 54.9615C36.0591 55.0892 33.0307 55.5004 30.7738 56.011C28.9453 56.4222 28.4597 56.5782 28.4597 56.7909C28.4597 56.876 28.7882 57.5851 29.1882 58.3935C29.5881 59.1876 30.0167 60.0811 30.1167 60.3789C30.3309 60.9745 30.2881 61.0596 29.3167 61.6552C28.2168 62.3501 28.8596 63.5272 30.5595 63.8959C31.1452 64.0377 32.2451 64.066 34.3878 64.0235C39.416 63.9101 46.5583 64.066 53.4149 64.4348C55.5862 64.5482 56.0575 64.7468 56.1433 65.5693C56.2004 66.1507 56.029 66.2075 54.6005 66.0089C53.472 65.8529 53.3863 65.8671 52.9864 66.1649C52.4864 66.5194 53.9291 66.5336 39.1874 65.9947C31.4737 65.7111 31.2594 65.7111 30.9023 65.9664C30.3452 66.3918 30.2024 67.1009 30.031 70.235C29.9452 71.8517 29.7453 75.468 29.6024 78.2759C29.1882 85.6361 29.2453 87.9051 29.8738 89.1247C30.5595 90.4578 32.2594 90.6422 32.8736 89.4509C32.9879 89.2382 33.0307 86.331 33.0307 79.5239C33.0307 72.0644 33.0736 69.8237 33.2164 69.5543C33.3164 69.3557 33.6164 69.1288 33.8878 69.0438C34.5878 68.8168 37.0876 68.5616 38.6589 68.5616C39.8159 68.5616 40.0016 68.5899 40.0588 68.8027C40.2159 69.4692 39.6588 81.0129 39.2445 85.9339C38.9446 89.3942 38.9446 89.5927 39.4445 90.1458L39.8588 90.6138L42.3729 90.6563C44.8441 90.6989 44.8727 90.6989 45.087 90.3727C45.3584 89.9614 45.6012 82.9274 45.6012 75.3262V70.1074L45.944 69.767C46.4726 69.2423 49.0152 68.6325 49.2295 68.9728C49.2866 69.0579 49.4295 70.0932 49.5438 71.2844C49.9723 75.5672 49.7723 82.6296 49.1009 86.6572C48.9867 87.3521 48.8867 88.1746 48.8867 88.4866C48.8867 89.3233 49.3295 90.16 49.9723 90.5571C50.458 90.8549 50.7008 90.8974 51.8436 90.8974C52.5578 90.8974 53.1863 90.8549 53.2435 90.7982C53.8149 90.2309 54.0006 80.4599 53.572 74.0924C53.4292 72.1779 53.2863 69.7954 53.2292 68.7885L53.1292 66.9591L54.3148 67.0442C55.729 67.1292 56.1575 67.3845 56.4147 68.278C56.8289 69.6961 56.9289 71.8517 56.8289 77.9214C56.7289 84.5867 56.5575 88.0895 56.2575 89.536C55.8861 91.2945 54.9576 92.6985 53.772 93.2799C52.7435 93.8046 51.915 93.8755 46.8154 93.8614C39.8873 93.833 35.2163 93.5494 33.3736 93.0247C32.1308 92.6701 31.1452 91.8334 31.6023 91.5214C31.8308 91.3654 50.2009 91.4505 53.2149 91.6349C54.6862 91.7058 54.7719 91.7058 54.7148 91.4505C54.6719 91.1952 54.472 91.1811 52.1007 91.096C50.6865 91.0392 45.6726 90.9542 40.9587 90.8974C34.5163 90.8123 32.2308 90.8265 31.7737 90.9542C30.1452 91.3938 30.9595 92.7836 33.2593 93.4926C35.1163 94.0599 41.373 94.4286 48.101 94.3435C52.2578 94.301 52.5864 94.2726 53.372 93.9748C54.4862 93.5635 55.4005 92.7836 55.9718 91.7625C56.9432 90.0182 57.1003 88.5291 57.3146 79.7933C57.4717 73.1564 57.3717 69.9372 56.9432 68.3347C56.7289 67.5121 56.2861 66.8598 55.9433 66.8598C55.8433 66.8598 55.7147 66.7889 55.6719 66.718C55.6147 66.6329 55.629 66.5762 55.7004 66.5904C56.3147 66.6896 56.7861 66.0231 56.6432 65.2573C56.4575 64.3071 55.3005 63.8959 52.7007 63.8533C51.1865 63.8391 51.2293 63.8391 53.5292 63.7257C56.0861 63.5981 57.0432 63.4421 57.9288 63.0024C58.5431 62.7046 58.5716 62.6054 58.1574 62.2366C57.6717 61.797 57.5574 61.3574 57.5432 59.5563C57.5289 57.6844 57.3146 56.9895 56.6004 56.479C55.929 55.9968 49.858 55.2026 44.887 54.9474C41.8301 54.7914 41.5015 54.7914 38.4589 54.9615ZM48.9581 55.7273C52.5721 56.1102 55.9004 56.6208 56.2718 56.876C56.8432 57.2448 57.0289 57.8971 57.0289 59.5989C57.0289 61.1305 57.1717 61.8963 57.5432 62.3359C57.7146 62.5345 57.7003 62.577 57.386 62.7188C56.7575 63.0024 56.6004 62.9315 56.5861 62.3501C56.5861 62.0665 56.5004 60.9178 56.4004 59.8116C56.229 57.812 56.129 57.5 55.5862 57.2164C55.1862 56.9895 32.0451 56.323 31.5737 56.5215C31.1166 56.7059 30.8452 57.3298 30.6023 58.7338L30.4309 59.7691L29.7453 58.3793C29.3024 57.4858 29.131 56.9753 29.231 56.9186C29.831 56.5782 34.4878 55.7841 37.3161 55.5146C39.3017 55.3303 46.4583 55.4579 48.9581 55.7273ZM43.9442 57.2164C56.1433 57.5851 55.2719 57.5426 55.5433 57.7978C55.7147 57.968 55.8147 58.6062 55.9433 60.4923C56.0575 61.8537 56.1147 62.9883 56.0718 63.0308C55.7861 63.3428 37.9732 63.357 34.9592 63.0308C33.045 62.8323 31.3023 62.5061 31.1166 62.3217C30.9023 62.109 30.9452 59.4854 31.1737 58.4218C31.5166 56.8335 31.388 56.9328 33.1164 56.9328C33.9592 56.9328 38.8303 57.0604 43.9442 57.2164ZM31.3166 62.9174C31.6737 63.045 32.5736 63.2435 33.3164 63.357L34.6735 63.5555L33.1022 63.5839C31.2166 63.5981 30.0024 63.3428 29.4881 62.8464C29.1739 62.5344 29.1453 62.4494 29.3167 62.2508C29.431 62.1232 29.7024 61.9388 29.9453 61.8396C30.3881 61.6694 30.3881 61.6694 30.5309 62.1657C30.6595 62.577 30.788 62.7188 31.3166 62.9174ZM41.3158 66.5762C45.8298 66.7322 50.258 66.9023 51.1436 66.9449L52.7435 67.03V68.2921C52.7435 68.9728 52.8721 71.5681 53.0435 74.0498C53.5006 80.8144 53.4577 87.0259 52.9292 89.9473L52.8435 90.4294L51.6579 90.3727C49.5152 90.2876 49.1581 89.6636 49.6009 86.7423C50.1151 83.282 50.2437 81.4242 50.2437 77.1414C50.2437 72.8728 50.0294 69.5401 49.6866 68.8452C49.5866 68.6041 49.3866 68.4765 49.1009 68.4339C48.4581 68.363 46.9011 68.675 46.1726 69.0296C45.0155 69.5826 45.087 69.0438 44.987 79.6515C44.9298 84.8278 44.8441 89.3091 44.787 89.6211L44.6727 90.1884H42.6014C41.4587 90.1884 40.3587 90.1458 40.1445 90.0891C39.5731 89.9189 39.4445 89.3658 39.6017 87.664C40.0588 82.8991 40.7301 69.3841 40.5587 68.675C40.4016 68.0794 39.8159 67.9376 37.9589 68.051C36.0734 68.1503 34.3021 68.3772 33.645 68.5758C33.3878 68.6609 33.045 68.8878 32.8879 69.0863C32.6022 69.4408 32.6022 69.6394 32.6022 79.1552C32.6022 87.5506 32.5736 88.912 32.3879 89.2666C31.9451 90.1174 30.9166 89.9189 30.3452 88.8695C29.8881 88.0611 29.731 85.6928 29.9024 82.3176C29.9738 80.9562 30.1595 77.2832 30.3167 74.1633C30.4738 71.0433 30.6452 68.1645 30.6881 67.7816C30.8738 66.3776 31.1309 66.1365 32.3879 66.2358C32.7879 66.2784 36.8019 66.4202 41.3158 66.5762ZM54.3577 66.5336C54.172 66.562 53.8863 66.562 53.7149 66.5336C53.5292 66.5053 53.672 66.4769 54.0291 66.4769C54.3862 66.4769 54.5291 66.5053 54.3577 66.5336Z" fill="#FFC904"/>
<path d="M39.0226 54.9615C36.6228 55.0892 33.5945 55.5004 31.3375 56.011C29.5091 56.4222 29.0234 56.5782 29.0234 56.7909C29.0234 56.876 29.3519 57.5851 29.7519 58.3935C30.1519 59.1876 30.5804 60.0811 30.6804 60.3789C30.8947 60.9745 30.8518 61.0596 29.8805 61.6552C28.7806 62.3501 29.4234 63.5272 31.1232 63.8959C31.7089 64.0377 32.8088 64.066 34.9515 64.0235C39.9797 63.9101 47.122 64.066 53.9786 64.4348C56.1499 64.5482 56.6213 64.7468 56.707 65.5693C56.7641 66.1507 56.5927 66.2075 55.1643 66.0089C54.0358 65.8529 53.9501 65.8671 53.5501 66.1649C53.0501 66.5194 54.4929 66.5336 39.7512 65.9947C32.0375 65.7111 31.8232 65.7111 31.4661 65.9664C30.909 66.3918 30.7661 67.1009 30.5947 70.235C30.509 71.8517 30.309 75.468 30.1662 78.2759C29.7519 85.6361 29.8091 87.9051 30.4376 89.1247C31.1232 90.4578 32.8231 90.6422 33.4373 89.4509C33.5516 89.2382 33.5945 86.331 33.5945 79.5239C33.5945 72.0644 33.6373 69.8237 33.7802 69.5543C33.8802 69.3557 34.1802 69.1288 34.4516 69.0438C35.1515 68.8168 37.6513 68.5616 39.2226 68.5616C40.3797 68.5616 40.5654 68.5899 40.6225 68.8027C40.7796 69.4692 40.2225 81.0129 39.8083 85.9339C39.5083 89.3942 39.5083 89.5927 40.0083 90.1458L40.4225 90.6138L42.9366 90.6563C45.4079 90.6989 45.4364 90.6989 45.6507 90.3727C45.9221 89.9614 46.165 82.9274 46.165 75.3262V70.1074L46.5078 69.767C47.0363 69.2423 49.579 68.6325 49.7932 68.9728C49.8504 69.0579 49.9932 70.0932 50.1075 71.2844C50.536 75.5672 50.3361 82.6296 49.6647 86.6572C49.5504 87.3521 49.4504 88.1746 49.4504 88.4866C49.4504 89.3233 49.8932 90.16 50.536 90.5571C51.0217 90.8549 51.2646 90.8974 52.4073 90.8974C53.1216 90.8974 53.7501 90.8549 53.8072 90.7982C54.3786 90.2309 54.5643 80.4599 54.1358 74.0924C53.9929 72.1779 53.8501 69.7954 53.7929 68.7885L53.693 66.9591L54.8786 67.0442C56.2928 67.1292 56.7213 67.3845 56.9784 68.278C57.3927 69.6961 57.4927 71.8517 57.3927 77.9214C57.2927 84.5867 57.1213 88.0895 56.8213 89.536C56.4499 91.2945 55.5214 92.6985 54.3358 93.2799C53.3073 93.8046 52.4788 93.8755 47.3791 93.8614C40.4511 93.833 35.78 93.5494 33.9373 93.0247C32.6945 92.6701 31.7089 91.8334 32.166 91.5214C32.3946 91.3654 50.7646 91.4505 53.7787 91.6349C55.25 91.7058 55.3357 91.7058 55.2785 91.4505C55.2357 91.1952 55.0357 91.1811 52.6645 91.096C51.2503 91.0392 46.2364 90.9542 41.5224 90.8974C35.0801 90.8123 32.7945 90.8265 32.3374 90.9542C30.709 91.3938 31.5232 92.7836 33.823 93.4926C35.68 94.0599 41.9367 94.4286 48.6648 94.3435C52.8216 94.301 53.1501 94.2726 53.9358 93.9748C55.05 93.5635 55.9642 92.7836 56.5356 91.7625C57.5069 90.0182 57.6641 88.5291 57.8783 79.7933C58.0355 73.1564 57.9355 69.9372 57.5069 68.3347C57.2927 67.5121 56.8498 66.8598 56.507 66.8598C56.407 66.8598 56.2785 66.7889 56.2356 66.718C56.1785 66.6329 56.1928 66.5762 56.2642 66.5904C56.8784 66.6896 57.3498 66.0231 57.207 65.2573C57.0213 64.3071 55.8642 63.8959 53.2644 63.8533C51.7502 63.8391 51.7931 63.8391 54.0929 63.7257C56.6499 63.5981 57.6069 63.4421 58.4926 63.0024C59.1068 62.7046 59.1354 62.6054 58.7211 62.2366C58.2355 61.797 58.1212 61.3574 58.1069 59.5563C58.0926 57.6844 57.8783 56.9895 57.1641 56.479C56.4927 55.9968 50.4218 55.2026 45.4507 54.9474C42.3938 54.7914 42.0653 54.7914 39.0226 54.9615ZM49.5218 55.7273C53.1358 56.1102 56.4642 56.6208 56.8356 56.876C57.407 57.2448 57.5927 57.8971 57.5927 59.5989C57.5927 61.1305 57.7355 61.8963 58.1069 62.3359C58.2783 62.5345 58.264 62.577 57.9498 62.7188C57.3212 63.0024 57.1641 62.9315 57.1498 62.3501C57.1498 62.0665 57.0641 60.9178 56.9641 59.8116C56.7927 57.812 56.6927 57.5 56.1499 57.2164C55.7499 56.9895 32.6088 56.323 32.1374 56.5215C31.6803 56.7059 31.4089 57.3298 31.1661 58.7338L30.9947 59.7691L30.309 58.3793C29.8662 57.4858 29.6948 56.9753 29.7948 56.9186C30.3947 56.5782 35.0515 55.7841 37.8799 55.5146C39.8654 55.3303 47.022 55.4579 49.5218 55.7273ZM44.5079 57.2164C56.707 57.5851 55.8356 57.5426 56.1071 57.7978C56.2785 57.968 56.3785 58.6062 56.507 60.4923C56.6213 61.8537 56.6784 62.9883 56.6356 63.0308C56.3499 63.3428 38.537 63.357 35.5229 63.0308C33.6088 62.8323 31.866 62.5061 31.6803 62.3217C31.4661 62.109 31.5089 59.4854 31.7375 58.4218C32.0803 56.8335 31.9517 56.9328 33.6802 56.9328C34.523 56.9328 39.394 57.0604 44.5079 57.2164ZM31.8803 62.9174C32.2374 63.045 33.1374 63.2435 33.8802 63.357L35.2372 63.5555L33.6659 63.5839C31.7803 63.5981 30.5661 63.3428 30.0519 62.8464C29.7376 62.5344 29.7091 62.4494 29.8805 62.2508C29.9948 62.1232 30.2662 61.9388 30.509 61.8396C30.9518 61.6694 30.9518 61.6694 31.0947 62.1657C31.2232 62.577 31.3518 62.7188 31.8803 62.9174ZM41.8796 66.5762C46.3935 66.7322 50.8217 66.9023 51.7074 66.9449L53.3073 67.03V68.2921C53.3073 68.9728 53.4358 71.5681 53.6072 74.0498C54.0644 80.8144 54.0215 87.0259 53.493 89.9473L53.4073 90.4294L52.2216 90.3727C50.0789 90.2876 49.7218 89.6636 50.1646 86.7423C50.6789 83.282 50.8075 81.4242 50.8075 77.1414C50.8075 72.8728 50.5932 69.5401 50.2504 68.8452C50.1504 68.6041 49.9504 68.4765 49.6647 68.4339C49.0219 68.363 47.4649 68.675 46.7363 69.0296C45.5793 69.5826 45.6507 69.0438 45.5507 79.6515C45.4936 84.8278 45.4079 89.3091 45.3507 89.6211L45.2365 90.1884H43.1652C42.0224 90.1884 40.9225 90.1458 40.7082 90.0891C40.1368 89.9189 40.0083 89.3658 40.1654 87.664C40.6225 82.8991 41.2939 69.3841 41.1225 68.675C40.9653 68.0794 40.3797 67.9376 38.5227 68.051C36.6371 68.1503 34.8658 68.3772 34.2087 68.5758C33.9516 68.6609 33.6088 68.8878 33.4516 69.0863C33.1659 69.4408 33.1659 69.6394 33.1659 79.1552C33.1659 87.5506 33.1374 88.912 32.9517 89.2666C32.5089 90.1174 31.4804 89.9189 30.909 88.8695C30.4519 88.0611 30.2947 85.6928 30.4661 82.3176C30.5376 80.9562 30.7233 77.2832 30.8804 74.1633C31.0375 71.0433 31.2089 68.1645 31.2518 67.7816C31.4375 66.3776 31.6946 66.1365 32.9517 66.2358C33.3516 66.2784 37.3656 66.4202 41.8796 66.5762ZM54.9214 66.5336C54.7357 66.562 54.45 66.562 54.2786 66.5336C54.0929 66.5053 54.2358 66.4769 54.5929 66.4769C54.95 66.4769 55.0928 66.5053 54.9214 66.5336Z" fill="#FFC904"/>
</g>
<defs>
<clipPath id="clip0_1135_77756">
<rect width="93.4463" height="136.524" fill="white"/>
</clipPath>
</defs>
</svg>