<svg xmlns="http://www.w3.org/2000/svg" width="94" height="137" viewBox="0 0 94 137" fill="none">
<g clip-path="url(#clip0_1135_45261)">
<path d="M28.3058 20.3829C22.3302 20.8637 17.0118 22.9375 12.6197 26.494C10.6976 28.0468 9.5622 29.3392 9.16383 30.4111C8.94472 31.0323 8.94472 32.0341 9.18374 32.2946C9.28334 32.4048 9.44269 32.4949 9.54228 32.4949C9.64188 32.4949 10.0901 32.1042 10.5482 31.6334C13.8049 28.2271 18.2369 26.474 24.8698 25.973C26.8518 25.8228 31.7617 25.9129 33.3353 26.1233C37.847 26.7444 40.9742 28.0468 43.0856 30.1707C45.6651 32.7754 46.6909 36.8228 45.456 39.5378L45.2169 40.0587L44.9381 39.5077C44.2907 38.2053 43.0557 36.8529 41.6714 35.9212C39.5899 34.4986 37.3789 33.8374 34.4309 33.7272C31.8713 33.637 29.9392 33.8875 25.0192 34.9494C20.5574 35.9212 19.7208 36.0314 16.8226 36.0514C15.2889 36.0714 14.263 36.1115 14.2033 36.1716C14.1435 36.2317 14.1137 36.402 14.1336 36.5623C14.1535 36.7827 14.3128 36.9731 14.8307 37.3538C17.5198 39.3775 21.6729 40.8702 26.2144 41.4512C28.1365 41.7017 30.7758 41.8119 34.0823 41.7919C36.5423 41.7818 37.3789 41.8119 38.2055 41.9421C40.2771 42.2828 41.7909 42.994 42.996 44.2063L43.7429 44.9576L43.1952 45.0378C42.8964 45.0879 42.0797 45.2181 41.3826 45.3283C40.6954 45.4385 38.8728 45.8292 37.349 46.2099C32.2 47.4822 30.1782 47.6926 26.6625 47.3119C24.4416 47.0715 21.7525 46.3101 19.5913 45.3183C17.5995 44.4066 16.0259 43.4048 14.2033 41.882C12.8986 40.8001 12.4006 40.5095 11.6836 40.4394C11.096 40.3893 10.5681 40.6197 10.339 41.0405C10.1996 41.2709 10.2195 41.341 10.4984 41.9722C10.6777 42.3529 10.8669 42.944 10.9366 43.2946C11.0661 43.9859 11.0163 45.3984 10.837 45.8493L10.7275 46.1298L10.4187 45.9494C9.89086 45.6389 9.15387 44.7372 8.08821 43.1143C6.89308 41.2809 6.08636 40.4594 5.01075 39.9485C4.1144 39.5277 3.3774 39.4276 2.6404 39.648C1.55483 39.9585 0.847709 40.7299 0.449333 42.0423C0.270063 42.6434 0.250144 42.9039 0.299941 44.0961C0.429414 47.5423 2.14243 53.9741 4.27375 58.9932C4.99083 60.6863 6.46482 63.6517 7.20182 64.924C8.42683 67.0278 9.78131 67.9094 11.1856 67.5287L11.7035 67.3885L11.8728 68.2C12.1815 69.6326 13.0878 72.8685 13.6954 74.6718C17.9978 87.415 25.7761 98.2447 36.373 106.259C38.2553 107.682 40.8049 109.395 42.747 110.537C46.5814 112.791 52.9853 115.626 56.491 116.608C58.4231 117.149 59.8871 116.959 61.8193 115.927C64.0203 114.745 67.8945 112.18 70.733 110.046C74.2586 107.381 76.4895 105.418 80.0052 101.881C83.6005 98.2547 86.2597 95.109 89.0981 91.1117C90.8311 88.6873 93.0919 85.1008 93.0919 84.7902C93.0919 84.5698 92.7732 84.2893 92.5242 84.2893C92.2652 84.2893 92.1656 84.4195 91.3988 85.6918C89.2077 89.3485 85.931 93.7966 82.744 97.4633C81.1605 99.2866 76.5194 103.905 74.6171 105.548C71.1015 108.584 67.6455 111.128 63.7912 113.523C59.3195 116.308 58.931 116.368 54.5091 114.845C50.6448 113.523 46.1631 111.379 42.3586 109.054C36.2136 105.298 30.9052 100.709 26.2841 95.1591C19.8702 87.4651 15.259 78.118 12.9683 68.22L12.6098 66.6371L12.809 66.4167C12.9185 66.3065 13.1277 65.9358 13.287 65.6052C13.536 65.0643 13.5659 64.904 13.5659 63.9021C13.5659 62.71 13.2771 61.2573 12.9185 60.6662C12.5002 59.975 11.5939 60.1954 11.1358 61.087C10.8171 61.7182 10.8171 62.5797 11.1657 64.5934C11.3051 65.4149 11.4246 66.1462 11.4246 66.2063C11.4246 66.3766 10.9764 66.557 10.5681 66.557C9.83111 66.557 9.02439 65.8857 8.1878 64.5734C7.1321 62.9103 4.90119 57.9914 3.91521 55.1462C2.61053 51.3793 1.48511 46.6607 1.3158 44.2664C1.14649 42.0223 2.003 40.6097 3.51683 40.6097C4.72192 40.6097 5.77762 41.5113 7.32133 43.8656C8.5563 45.7491 9.39289 46.6407 10.359 47.1216C10.9864 47.4321 11.0362 47.4422 11.2653 47.2819C11.564 47.0915 11.9624 45.8993 12.072 44.8975C12.1517 44.086 11.9923 42.9039 11.6736 42.0323L11.4445 41.3911L11.7035 41.4613C12.0819 41.5514 12.56 41.882 13.7252 42.8638C14.283 43.3347 15.2192 44.0359 15.7968 44.4267C17.6094 45.6389 20.5674 47.0114 22.5991 47.5724L23.1767 47.7327L22.6588 48.3538C22.0015 49.1453 21.1848 50.4076 21.1848 50.6179C21.1848 50.8383 21.3741 51.0287 21.5832 51.0287C21.6729 51.0287 22.0314 50.6079 22.4099 50.0469C22.7784 49.5159 23.2265 48.8848 23.3958 48.6443C23.6747 48.2636 23.7046 48.1935 23.5851 48.0132C23.4755 47.8329 23.4855 47.8128 23.6448 47.8529C23.7444 47.883 24.093 47.9631 24.4217 48.0232C24.7503 48.0833 25.0989 48.1635 25.1885 48.1835C25.3379 48.2236 25.2582 48.454 24.6109 49.7363C24.1328 50.7081 23.8838 51.3092 23.9237 51.4294C23.9934 51.6398 24.3121 51.7801 24.4814 51.6699C24.5511 51.6298 24.9495 50.8584 25.3877 49.9567L26.1745 48.3137L26.6426 48.3738C27.5589 48.4941 27.7581 48.5341 27.7581 48.6243C27.7581 48.6744 27.5788 49.2254 27.3597 49.8465C27.1406 50.4677 26.9613 51.0587 26.9613 51.1489C26.9613 51.3593 27.2302 51.5196 27.4692 51.4595C27.6585 51.4094 27.768 51.1689 28.2959 49.576L28.6245 48.5742L29.9292 48.5241C30.6563 48.4941 31.2439 48.474 31.2439 48.474C31.2439 48.4841 30.9351 49.2655 30.5467 50.2172C30.0089 51.5797 29.8794 52.0005 29.9591 52.1407C30.0886 52.4012 30.4073 52.3812 30.5865 52.1006C30.8654 51.6699 31.951 48.7846 31.9111 48.6043C31.8713 48.474 31.9311 48.4139 32.18 48.3738C33.8532 48.1034 34.1819 48.0533 34.2018 48.0633C34.2118 48.0733 33.8632 49.025 33.4349 50.1671C32.9967 51.3192 32.6382 52.301 32.6382 52.3411C32.6382 52.4813 33.0366 52.6416 33.2158 52.5915C33.3752 52.5414 34.2317 50.4376 34.9388 48.3738L35.1081 47.8729L35.9447 47.6626C36.4028 47.5524 36.8909 47.4221 37.0402 47.3921L37.3091 47.3219L36.861 48.0833C36.2236 49.1753 35.6061 50.4476 35.2276 51.4495C34.9587 52.1708 34.9189 52.3511 35.0284 52.4813C35.1778 52.6617 35.4667 52.6817 35.6061 52.5014C35.6658 52.4413 35.8451 52.0305 36.0144 51.6097C36.3829 50.658 37.0602 49.3055 37.6577 48.2837C37.8968 47.8729 38.1159 47.4321 38.1358 47.3019C38.1657 47.1015 38.2852 47.0514 39.1118 46.8511C40.3368 46.5605 40.3169 46.5605 40.1575 46.8911C39.9584 47.3119 38.8827 49.9667 38.5142 50.9485C38.335 51.4194 38.2155 51.8802 38.2453 51.9704C38.2852 52.0706 38.4246 52.1307 38.6039 52.1307C38.8827 52.1307 38.9126 52.0806 39.2911 51.0988C39.5102 50.5378 39.9882 49.3556 40.3468 48.474C40.8746 47.2017 40.9941 46.831 40.9145 46.6607C40.8248 46.4604 40.8647 46.4503 41.6216 46.3301C42.0598 46.26 42.4382 46.2199 42.4582 46.25C42.498 46.28 41.5319 49.4759 41.1535 50.5578C40.9643 51.0988 40.9643 51.2992 41.1634 51.4094C41.4423 51.5597 41.6813 51.4294 41.8307 51.0487C42.0299 50.5478 43.2948 46.3802 43.2948 46.2299C43.2948 46.1598 43.5437 46.1197 44.0218 46.1197C45.1572 46.1197 45.3364 45.8593 44.8683 44.9075C44.1413 43.4549 42.3486 42.0423 40.3567 41.3611C38.8529 40.8501 38.325 40.8001 33.1859 40.7099C28.1465 40.6197 26.5331 40.5095 24.3818 40.0988C21.9716 39.6379 19.9001 38.9667 18.0476 38.055C16.3545 37.2235 16.3645 37.2436 17.8086 37.1634C19.3922 37.0833 21.3342 36.7928 23.7245 36.3019C24.7603 36.0815 26.3837 35.7509 27.3099 35.5605C29.9292 35.0195 30.9351 34.8893 33.0366 34.8292C34.5603 34.7891 35.2177 34.8091 36.114 34.9394C40.2571 35.5605 43.3744 37.8647 44.4799 41.1307C44.6194 41.5414 44.719 41.6817 44.9381 41.7618C45.187 41.852 45.2468 41.8219 45.5356 41.4813C46.0137 40.9303 46.5515 39.7481 46.7905 38.7363C46.9698 37.9849 46.9997 37.6543 46.9499 36.4521C46.8901 34.7591 46.6909 33.9977 45.934 32.4448C44.46 29.4093 41.9502 27.3556 38.1557 26.0933C33.0465 24.3902 23.8739 24.3601 18.1074 26.0332C15.3984 26.8146 13.2074 27.9266 11.2453 29.5195C10.2195 30.351 10.349 30.0505 11.4943 28.9184C19.2627 21.2444 31.7418 19.1807 42.0498 23.8492C47.1989 26.1834 49.609 29.4193 50.854 35.7108C51.9993 41.4112 52.2682 47.8429 51.6009 53.7336C51.0233 58.9431 49.7485 64.0825 47.8064 68.9914C47.398 70.0333 47.0196 71.1353 46.9598 71.4459C46.7706 72.4878 47.169 73.3293 48.0753 73.8002C48.5732 74.0606 48.6928 74.0807 49.4696 74.0506C50.356 74.0005 50.9834 73.7701 51.7403 73.1991L52.079 72.9486L52.2383 73.179C52.6865 73.8402 53.4932 74.5616 54.0709 74.822C55.1266 75.3029 56.0329 75.0925 57.5865 74.0406C58.7518 73.2391 59.6481 73.0087 60.3752 73.3093C60.9329 73.5497 60.9628 74.0707 60.4548 74.6718C60.1361 75.0625 59.7079 75.2829 58.6223 75.6135C57.1882 76.0443 56.4113 76.7155 55.9333 77.9477C55.6146 78.7592 55.6046 80.7628 55.9233 81.8849C56.0329 82.2956 56.1125 82.6563 56.0827 82.6763C55.9333 82.8366 54.6784 82.7865 53.7422 82.5962C51.581 82.1454 50.5054 82.2355 49.0214 82.9869C47.8761 83.5579 46.9897 84.3594 45.4261 86.2128C42.8366 89.2784 41.5021 90.4906 40.1874 90.9714C39.5799 91.1918 39.4006 91.4724 39.6396 91.843C39.8189 92.1135 41.5419 93.3959 43.4441 94.6782C47.0694 97.1126 51.9196 99.6673 54.5987 100.549C57.6363 101.551 59.9071 101.34 63.0244 99.7675C65.3051 98.6154 67.3268 97.1727 68.8008 95.65C69.8864 94.5179 70.4242 93.7565 71.0019 92.5343C71.3604 91.803 71.4002 91.6427 71.3106 91.4022C71.221 91.1718 71.2409 91.0917 71.3903 90.9614C71.7289 90.6709 71.6094 90.3904 70.6234 89.098C67.5061 85.0406 65.2852 83.2374 62.2675 82.3257C61.4807 82.0853 61.2018 82.0552 59.927 82.0452C58.8315 82.0452 58.3235 82.0853 57.8455 82.2255C57.3674 82.3557 57.1881 82.3658 57.1384 82.2856C56.9292 81.945 56.6902 80.5525 56.6902 79.6809C56.7001 77.8876 57.3575 77.0461 59.18 76.5251C60.8233 76.0443 61.9189 75.0224 61.9189 73.9705C61.9189 73.3193 61.3512 72.5379 60.7038 72.3074C60.5246 72.2373 60.0764 72.1772 59.7079 72.1772C58.8813 72.1672 58.1841 72.4076 57.2877 73.0288C55.1465 74.5014 54.1704 74.3311 52.9056 72.2774C52.4276 71.506 52.2284 71.4859 51.4017 72.1271C50.6349 72.7282 50.1568 72.9687 49.5792 73.0388C48.9816 73.1089 48.4438 72.9386 48.1749 72.598C47.8163 72.1371 47.906 71.6362 48.7127 69.5825C49.6389 67.2382 49.9477 66.3466 50.5054 64.4231C53.1546 55.3866 53.7223 46.0095 52.1487 36.923C50.9436 29.9202 48.8621 26.4539 44.2608 23.8091C39.7592 21.2244 33.7736 19.9421 28.3058 20.3829ZM12.3807 62.4495C12.5699 63.2509 12.6197 64.3129 12.4803 64.8038C12.3608 65.2546 12.2712 64.9741 12.072 63.5515C11.9027 62.3593 11.9226 61.3976 12.1118 61.608C12.1616 61.658 12.2811 62.0387 12.3807 62.4495ZM61.8193 83.3075C63.9307 83.8585 66.1417 85.3813 68.0638 87.6053C69.2689 89.0079 70.3047 90.3804 70.1952 90.4505C70.1354 90.4805 69.8267 90.4104 69.498 90.3002C68.1535 89.8494 66.4803 89.8093 64.6278 90.2L63.7614 90.3804L62.4666 89.8594C61.7595 89.5689 60.5345 89.058 59.7477 88.7374L58.3235 88.1463L58.3833 87.6855C58.4928 86.864 58.1243 84.9805 57.5666 83.5279C57.5268 83.4277 58.2538 83.2073 59.1302 83.047C59.5884 82.9669 61.0624 83.1071 61.8193 83.3075ZM53.6326 83.6481C54.9274 83.8885 55.8835 83.9186 56.3814 83.7282C56.6503 83.6281 57.3375 86.0926 57.3375 87.1745C57.3375 87.7355 57.3176 87.8057 57.1682 87.7556C56.242 87.4651 55.4652 87.3549 54.3497 87.3549C53.1745 87.3448 53.0749 87.3649 52.5371 87.6254C52.2184 87.7856 51.83 88.0762 51.6607 88.2765C51.2822 88.7374 51.0332 89.5589 51.1229 90.0397L51.1826 90.4004H50.3261C49.8481 90.4004 47.8462 90.5607 45.8643 90.751C43.8923 90.9514 42.249 91.0917 42.2291 91.0716C42.2092 91.0416 42.3088 90.9514 42.4582 90.8512C43.0059 90.4906 44.3604 89.088 45.5157 87.6955C47.6371 85.1308 48.8023 84.1089 50.1568 83.6281C51.0332 83.3175 51.9097 83.3175 53.6326 83.6481ZM56.0926 88.5871C56.5109 88.6873 56.8794 88.7975 56.9093 88.8376C56.9392 88.8676 56.8495 89.068 56.6902 89.2884C56.3715 89.7492 55.5847 90.3303 54.9572 90.5507C54.4394 90.731 53.4832 90.751 52.9355 90.5807C51.6706 90.2 52.0391 88.7674 53.5032 88.3867C53.9215 88.2765 55.1963 88.3767 56.0926 88.5871ZM59.8672 89.9095C60.8034 90.3002 61.6798 90.6709 61.8193 90.721C62.0384 90.8111 61.879 90.8813 60.5644 91.252C58.4729 91.8531 57.2678 92.0434 55.9432 91.9833C55.3556 91.9532 54.7879 91.8831 54.6883 91.823C54.5091 91.7128 54.5091 91.7128 54.7282 91.7028C55.1166 91.7028 56.1524 91.2219 56.7101 90.7911C56.9989 90.5607 57.4073 90.1099 57.6164 89.7893C57.8156 89.4687 58.0247 89.2082 58.0745 89.2082C58.1144 89.1982 58.9211 89.5188 59.8672 89.9095ZM67.5758 91.0716C67.4264 91.0917 67.1575 91.0917 66.9783 91.0716C66.799 91.0516 66.9185 91.0315 67.2472 91.0315C67.5758 91.0315 67.7252 91.0516 67.5758 91.0716ZM50.9237 91.5124C51.2424 91.5725 52.0292 91.8631 52.6566 92.1536C55.495 93.486 56.7898 93.4359 62.5364 91.803L63.7116 91.4623L64.8768 91.7629C65.9325 92.0234 66.2114 92.0534 67.5459 92.0434C68.6514 92.0434 69.1693 91.9933 69.5378 91.8731C69.8067 91.7829 70.0657 91.7428 70.1155 91.7929C70.3346 92.0133 69.01 93.9969 67.9443 95.0689C65.823 97.1727 61.8591 99.4769 59.5087 99.9578C58.0845 100.248 56.6404 100.138 55.0469 99.6172C52.8956 98.8959 49.0015 96.9123 45.5854 94.7784C43.7728 93.6463 41.7809 92.2638 41.9004 92.2237C42.0299 92.1736 49.5194 91.4323 49.9775 91.4122C50.1668 91.4122 50.595 91.4523 50.9237 91.5124Z" fill="black"/>
<path d="M28.3058 20.3829C22.3302 20.8637 17.0118 22.9375 12.6197 26.494C10.6976 28.0468 9.5622 29.3392 9.16383 30.4111C8.94472 31.0323 8.94472 32.0341 9.18374 32.2946C9.28334 32.4048 9.44269 32.4949 9.54228 32.4949C9.64188 32.4949 10.0901 32.1042 10.5482 31.6334C13.8049 28.2271 18.2369 26.474 24.8698 25.973C26.8518 25.8228 31.7617 25.9129 33.3353 26.1233C37.847 26.7444 40.9742 28.0468 43.0856 30.1707C45.6651 32.7754 46.6909 36.8228 45.456 39.5378L45.2169 40.0587L44.9381 39.5077C44.2907 38.2053 43.0557 36.8529 41.6714 35.9212C39.5899 34.4986 37.3789 33.8374 34.4309 33.7272C31.8713 33.637 29.9392 33.8875 25.0192 34.9494C20.5574 35.9212 19.7208 36.0314 16.8226 36.0514C15.2889 36.0714 14.263 36.1115 14.2033 36.1716C14.1435 36.2317 14.1137 36.402 14.1336 36.5623C14.1535 36.7827 14.3128 36.9731 14.8307 37.3538C17.5198 39.3775 21.6729 40.8702 26.2144 41.4512C28.1365 41.7017 30.7758 41.8119 34.0823 41.7919C36.5423 41.7818 37.3789 41.8119 38.2055 41.9421C40.2771 42.2828 41.7909 42.994 42.996 44.2063L43.7429 44.9576L43.1952 45.0378C42.8964 45.0879 42.0797 45.2181 41.3826 45.3283C40.6954 45.4385 38.8728 45.8292 37.349 46.2099C32.2 47.4822 30.1782 47.6926 26.6625 47.3119C24.4416 47.0715 21.7525 46.3101 19.5913 45.3183C17.5995 44.4066 16.0259 43.4048 14.2033 41.882C12.8986 40.8001 12.4006 40.5095 11.6836 40.4394C11.096 40.3893 10.5681 40.6197 10.339 41.0405C10.1996 41.2709 10.2195 41.341 10.4984 41.9722C10.6777 42.3529 10.8669 42.944 10.9366 43.2946C11.0661 43.9859 11.0163 45.3984 10.837 45.8493L10.7275 46.1298L10.4187 45.9494C9.89086 45.6389 9.15387 44.7372 8.08821 43.1143C6.89308 41.2809 6.08636 40.4594 5.01075 39.9485C4.1144 39.5277 3.3774 39.4276 2.6404 39.648C1.55483 39.9585 0.847709 40.7299 0.449333 42.0423C0.270063 42.6434 0.250144 42.9039 0.299941 44.0961C0.429414 47.5423 2.14243 53.9741 4.27375 58.9932C4.99083 60.6863 6.46482 63.6517 7.20182 64.924C8.42683 67.0278 9.78131 67.9094 11.1856 67.5287L11.7035 67.3885L11.8728 68.2C12.1815 69.6326 13.0878 72.8685 13.6954 74.6718C17.9978 87.415 25.7761 98.2447 36.373 106.259C38.2553 107.682 40.8049 109.395 42.747 110.537C46.5814 112.791 52.9853 115.626 56.491 116.608C58.4231 117.149 59.8871 116.959 61.8193 115.927C64.0203 114.745 67.8945 112.18 70.733 110.046C74.2586 107.381 76.4895 105.418 80.0052 101.881C83.6005 98.2547 86.2597 95.109 89.0981 91.1117C90.8311 88.6873 93.0919 85.1008 93.0919 84.7902C93.0919 84.5698 92.7732 84.2893 92.5242 84.2893C92.2652 84.2893 92.1656 84.4195 91.3988 85.6918C89.2077 89.3485 85.931 93.7966 82.744 97.4633C81.1605 99.2866 76.5194 103.905 74.6171 105.548C71.1015 108.584 67.6455 111.128 63.7912 113.523C59.3195 116.308 58.931 116.368 54.5091 114.845C50.6448 113.523 46.1631 111.379 42.3586 109.054C36.2136 105.298 30.9052 100.709 26.2841 95.1591C19.8702 87.4651 15.259 78.118 12.9683 68.22L12.6098 66.6371L12.809 66.4167C12.9185 66.3065 13.1277 65.9358 13.287 65.6052C13.536 65.0643 13.5659 64.904 13.5659 63.9021C13.5659 62.71 13.2771 61.2573 12.9185 60.6662C12.5002 59.975 11.5939 60.1954 11.1358 61.087C10.8171 61.7182 10.8171 62.5797 11.1657 64.5934C11.3051 65.4149 11.4246 66.1462 11.4246 66.2063C11.4246 66.3766 10.9764 66.557 10.5681 66.557C9.83111 66.557 9.02439 65.8857 8.1878 64.5734C7.1321 62.9103 4.90119 57.9914 3.91521 55.1462C2.61053 51.3793 1.48511 46.6607 1.3158 44.2664C1.14649 42.0223 2.003 40.6097 3.51683 40.6097C4.72192 40.6097 5.77762 41.5113 7.32133 43.8656C8.5563 45.7491 9.39289 46.6407 10.359 47.1216C10.9864 47.4321 11.0362 47.4422 11.2653 47.2819C11.564 47.0915 11.9624 45.8993 12.072 44.8975C12.1517 44.086 11.9923 42.9039 11.6736 42.0323L11.4445 41.3911L11.7035 41.4613C12.0819 41.5514 12.56 41.882 13.7252 42.8638C14.283 43.3347 15.2192 44.0359 15.7968 44.4267C17.6094 45.6389 20.5674 47.0114 22.5991 47.5724L23.1767 47.7327L22.6588 48.3538C22.0015 49.1453 21.1848 50.4076 21.1848 50.6179C21.1848 50.8383 21.3741 51.0287 21.5832 51.0287C21.6729 51.0287 22.0314 50.6079 22.4099 50.0469C22.7784 49.5159 23.2265 48.8848 23.3958 48.6443C23.6747 48.2636 23.7046 48.1935 23.5851 48.0132C23.4755 47.8329 23.4855 47.8128 23.6448 47.8529C23.7444 47.883 24.093 47.9631 24.4217 48.0232C24.7503 48.0833 25.0989 48.1635 25.1885 48.1835C25.3379 48.2236 25.2582 48.454 24.6109 49.7363C24.1328 50.7081 23.8838 51.3092 23.9237 51.4294C23.9934 51.6398 24.3121 51.7801 24.4814 51.6699C24.5511 51.6298 24.9495 50.8584 25.3877 49.9567L26.1745 48.3137L26.6426 48.3738C27.5589 48.4941 27.7581 48.5341 27.7581 48.6243C27.7581 48.6744 27.5788 49.2254 27.3597 49.8465C27.1406 50.4677 26.9613 51.0587 26.9613 51.1489C26.9613 51.3593 27.2302 51.5196 27.4692 51.4595C27.6585 51.4094 27.768 51.1689 28.2959 49.576L28.6245 48.5742L29.9292 48.5241C30.6563 48.4941 31.2439 48.474 31.2439 48.474C31.2439 48.4841 30.9351 49.2655 30.5467 50.2172C30.0089 51.5797 29.8794 52.0005 29.9591 52.1407C30.0886 52.4012 30.4073 52.3812 30.5865 52.1006C30.8654 51.6699 31.951 48.7846 31.9111 48.6043C31.8713 48.474 31.9311 48.4139 32.18 48.3738C33.8532 48.1034 34.1819 48.0533 34.2018 48.0633C34.2118 48.0733 33.8632 49.025 33.4349 50.1671C32.9967 51.3192 32.6382 52.301 32.6382 52.3411C32.6382 52.4813 33.0366 52.6416 33.2158 52.5915C33.3752 52.5414 34.2317 50.4376 34.9388 48.3738L35.1081 47.8729L35.9447 47.6626C36.4028 47.5524 36.8909 47.4221 37.0402 47.3921L37.3091 47.3219L36.861 48.0833C36.2236 49.1753 35.6061 50.4476 35.2276 51.4495C34.9587 52.1708 34.9189 52.3511 35.0284 52.4813C35.1778 52.6617 35.4667 52.6817 35.6061 52.5014C35.6658 52.4413 35.8451 52.0305 36.0144 51.6097C36.3829 50.658 37.0602 49.3055 37.6577 48.2837C37.8968 47.8729 38.1159 47.4321 38.1358 47.3019C38.1657 47.1015 38.2852 47.0514 39.1118 46.8511C40.3368 46.5605 40.3169 46.5605 40.1575 46.8911C39.9584 47.3119 38.8827 49.9667 38.5142 50.9485C38.335 51.4194 38.2155 51.8802 38.2453 51.9704C38.2852 52.0706 38.4246 52.1307 38.6039 52.1307C38.8827 52.1307 38.9126 52.0806 39.2911 51.0988C39.5102 50.5378 39.9882 49.3556 40.3468 48.474C40.8746 47.2017 40.9941 46.831 40.9145 46.6607C40.8248 46.4604 40.8647 46.4503 41.6216 46.3301C42.0598 46.26 42.4382 46.2199 42.4582 46.25C42.498 46.28 41.5319 49.4759 41.1535 50.5578C40.9643 51.0988 40.9643 51.2992 41.1634 51.4094C41.4423 51.5597 41.6813 51.4294 41.8307 51.0487C42.0299 50.5478 43.2948 46.3802 43.2948 46.2299C43.2948 46.1598 43.5437 46.1197 44.0218 46.1197C45.1572 46.1197 45.3364 45.8593 44.8683 44.9075C44.1413 43.4549 42.3486 42.0423 40.3567 41.3611C38.8529 40.8501 38.325 40.8001 33.1859 40.7099C28.1465 40.6197 26.5331 40.5095 24.3818 40.0988C21.9716 39.6379 19.9001 38.9667 18.0476 38.055C16.3545 37.2235 16.3645 37.2436 17.8086 37.1634C19.3922 37.0833 21.3342 36.7928 23.7245 36.3019C24.7603 36.0815 26.3837 35.7509 27.3099 35.5605C29.9292 35.0195 30.9351 34.8893 33.0366 34.8292C34.5603 34.7891 35.2177 34.8091 36.114 34.9394C40.2571 35.5605 43.3744 37.8647 44.4799 41.1307C44.6194 41.5414 44.719 41.6817 44.9381 41.7618C45.187 41.852 45.2468 41.8219 45.5356 41.4813C46.0137 40.9303 46.5515 39.7481 46.7905 38.7363C46.9698 37.9849 46.9997 37.6543 46.9499 36.4521C46.8901 34.7591 46.6909 33.9977 45.934 32.4448C44.46 29.4093 41.9502 27.3556 38.1557 26.0933C33.0465 24.3902 23.8739 24.3601 18.1074 26.0332C15.3984 26.8146 13.2074 27.9266 11.2453 29.5195C10.2195 30.351 10.349 30.0505 11.4943 28.9184C19.2627 21.2444 31.7418 19.1807 42.0498 23.8492C47.1989 26.1834 49.609 29.4193 50.854 35.7108C51.9993 41.4112 52.2682 47.8429 51.6009 53.7336C51.0233 58.9431 49.7485 64.0825 47.8064 68.9914C47.398 70.0333 47.0196 71.1353 46.9598 71.4459C46.7706 72.4878 47.169 73.3293 48.0753 73.8002C48.5732 74.0606 48.6928 74.0807 49.4696 74.0506C50.356 74.0005 50.9834 73.7701 51.7403 73.1991L52.079 72.9486L52.2383 73.179C52.6865 73.8402 53.4932 74.5616 54.0709 74.822C55.1266 75.3029 56.0329 75.0925 57.5865 74.0406C58.7518 73.2391 59.6481 73.0087 60.3752 73.3093C60.9329 73.5497 60.9628 74.0707 60.4548 74.6718C60.1361 75.0625 59.7079 75.2829 58.6223 75.6135C57.1882 76.0443 56.4113 76.7155 55.9333 77.9477C55.6146 78.7592 55.6046 80.7628 55.9233 81.8849C56.0329 82.2956 56.1125 82.6563 56.0827 82.6763C55.9333 82.8366 54.6784 82.7865 53.7422 82.5962C51.581 82.1454 50.5054 82.2355 49.0214 82.9869C47.8761 83.5579 46.9897 84.3594 45.4261 86.2128C42.8366 89.2784 41.5021 90.4906 40.1874 90.9714C39.5799 91.1918 39.4006 91.4724 39.6396 91.843C39.8189 92.1135 41.5419 93.3959 43.4441 94.6782C47.0694 97.1126 51.9196 99.6673 54.5987 100.549C57.6363 101.551 59.9071 101.34 63.0244 99.7675C65.3051 98.6154 67.3268 97.1727 68.8008 95.65C69.8864 94.5179 70.4242 93.7565 71.0019 92.5343C71.3604 91.803 71.4002 91.6427 71.3106 91.4022C71.221 91.1718 71.2409 91.0917 71.3903 90.9614C71.7289 90.6709 71.6094 90.3904 70.6234 89.098C67.5061 85.0406 65.2852 83.2374 62.2675 82.3257C61.4807 82.0853 61.2018 82.0552 59.927 82.0452C58.8315 82.0452 58.3235 82.0853 57.8455 82.2255C57.3674 82.3557 57.1881 82.3658 57.1384 82.2856C56.9292 81.945 56.6902 80.5525 56.6902 79.6809C56.7001 77.8876 57.3575 77.0461 59.18 76.5251C60.8233 76.0443 61.9189 75.0224 61.9189 73.9705C61.9189 73.3193 61.3512 72.5379 60.7038 72.3074C60.5246 72.2373 60.0764 72.1772 59.7079 72.1772C58.8813 72.1672 58.1841 72.4076 57.2877 73.0288C55.1465 74.5014 54.1704 74.3311 52.9056 72.2774C52.4276 71.506 52.2284 71.4859 51.4017 72.1271C50.6349 72.7282 50.1568 72.9687 49.5792 73.0388C48.9816 73.1089 48.4438 72.9386 48.1749 72.598C47.8163 72.1371 47.906 71.6362 48.7127 69.5825C49.6389 67.2382 49.9477 66.3466 50.5054 64.4231C53.1546 55.3866 53.7223 46.0095 52.1487 36.923C50.9436 29.9202 48.8621 26.4539 44.2608 23.8091C39.7592 21.2244 33.7736 19.9421 28.3058 20.3829ZM12.3807 62.4495C12.5699 63.2509 12.6197 64.3129 12.4803 64.8038C12.3608 65.2546 12.2712 64.9741 12.072 63.5515C11.9027 62.3593 11.9226 61.3976 12.1118 61.608C12.1616 61.658 12.2811 62.0387 12.3807 62.4495ZM61.8193 83.3075C63.9307 83.8585 66.1417 85.3813 68.0638 87.6053C69.2689 89.0079 70.3047 90.3804 70.1952 90.4505C70.1354 90.4805 69.8267 90.4104 69.498 90.3002C68.1535 89.8494 66.4803 89.8093 64.6278 90.2L63.7614 90.3804L62.4666 89.8594C61.7595 89.5689 60.5345 89.058 59.7477 88.7374L58.3235 88.1463L58.3833 87.6855C58.4928 86.864 58.1243 84.9805 57.5666 83.5279C57.5268 83.4277 58.2538 83.2073 59.1302 83.047C59.5884 82.9669 61.0624 83.1071 61.8193 83.3075ZM53.6326 83.6481C54.9274 83.8885 55.8835 83.9186 56.3814 83.7282C56.6503 83.6281 57.3375 86.0926 57.3375 87.1745C57.3375 87.7355 57.3176 87.8057 57.1682 87.7556C56.242 87.4651 55.4652 87.3549 54.3497 87.3549C53.1745 87.3448 53.0749 87.3649 52.5371 87.6254C52.2184 87.7856 51.83 88.0762 51.6607 88.2765C51.2822 88.7374 51.0332 89.5589 51.1229 90.0397L51.1826 90.4004H50.3261C49.8481 90.4004 47.8462 90.5607 45.8643 90.751C43.8923 90.9514 42.249 91.0917 42.2291 91.0716C42.2092 91.0416 42.3088 90.9514 42.4582 90.8512C43.0059 90.4906 44.3604 89.088 45.5157 87.6955C47.6371 85.1308 48.8023 84.1089 50.1568 83.6281C51.0332 83.3175 51.9097 83.3175 53.6326 83.6481ZM56.0926 88.5871C56.5109 88.6873 56.8794 88.7975 56.9093 88.8376C56.9392 88.8676 56.8495 89.068 56.6902 89.2884C56.3715 89.7492 55.5847 90.3303 54.9572 90.5507C54.4394 90.731 53.4832 90.751 52.9355 90.5807C51.6706 90.2 52.0391 88.7674 53.5032 88.3867C53.9215 88.2765 55.1963 88.3767 56.0926 88.5871ZM59.8672 89.9095C60.8034 90.3002 61.6798 90.6709 61.8193 90.721C62.0384 90.8111 61.879 90.8813 60.5644 91.252C58.4729 91.8531 57.2678 92.0434 55.9432 91.9833C55.3556 91.9532 54.7879 91.8831 54.6883 91.823C54.5091 91.7128 54.5091 91.7128 54.7282 91.7028C55.1166 91.7028 56.1524 91.2219 56.7101 90.7911C56.9989 90.5607 57.4073 90.1099 57.6164 89.7893C57.8156 89.4687 58.0247 89.2082 58.0745 89.2082C58.1144 89.1982 58.9211 89.5188 59.8672 89.9095ZM67.5758 91.0716C67.4264 91.0917 67.1575 91.0917 66.9783 91.0716C66.799 91.0516 66.9185 91.0315 67.2472 91.0315C67.5758 91.0315 67.7252 91.0516 67.5758 91.0716ZM50.9237 91.5124C51.2424 91.5725 52.0292 91.8631 52.6566 92.1536C55.495 93.486 56.7898 93.4359 62.5364 91.803L63.7116 91.4623L64.8768 91.7629C65.9325 92.0234 66.2114 92.0534 67.5459 92.0434C68.6514 92.0434 69.1693 91.9933 69.5378 91.8731C69.8067 91.7829 70.0657 91.7428 70.1155 91.7929C70.3346 92.0133 69.01 93.9969 67.9443 95.0689C65.823 97.1727 61.8591 99.4769 59.5087 99.9578C58.0845 100.248 56.6404 100.138 55.0469 99.6172C52.8956 98.8959 49.0015 96.9123 45.5854 94.7784C43.7728 93.6463 41.7809 92.2638 41.9004 92.2237C42.0299 92.1736 49.5194 91.4323 49.9775 91.4122C50.1668 91.4122 50.595 91.4523 50.9237 91.5124Z" fill="url(#paint0_linear_1135_45261)"/>
<path d="M14.5678 19.0159C14.1284 19.1927 13.6362 20.0414 13.6362 20.6073C13.6362 20.8195 13.7592 21.2085 13.8998 21.5091C14.1284 21.9158 14.1459 22.2164 14.0053 22.9414C13.812 24.0377 13.8998 24.356 14.4096 24.2852C14.7085 24.2499 14.7964 24.0554 14.9194 23.295C15.0425 22.57 15.1304 22.3755 15.394 22.3755C16.8355 22.3755 17.6441 20.625 16.7476 19.4933C16.3257 18.9451 15.271 18.7153 14.5678 19.0159ZM16.8003 20.9256C16.8003 21.4914 16.2906 22.0219 15.728 22.0219H15.2007L15.8687 21.3323C16.6421 20.5542 16.8003 20.4835 16.8003 20.9256Z" fill="#FFC904"/>
<path d="M14.0757 28.3168C13.9174 28.476 13.8295 28.7412 13.8823 28.9004C14.146 29.8729 14.146 30.4918 13.8999 30.9692C13.4956 31.7472 13.5659 32.3838 14.1284 33.0027C14.5503 33.4624 14.7612 33.5685 15.3941 33.5685C17.4859 33.5685 17.7848 30.5979 15.7456 30.1735C15.1655 30.0674 15.1128 29.9967 14.9722 29.1479C14.7964 28.1577 14.5151 27.8925 14.0757 28.3168ZM16.4312 32.9143C16.062 33.3033 15.3941 33.4978 15.3941 33.2149C15.3941 33.1442 15.6929 32.7905 16.062 32.4015C16.6597 31.7826 16.7125 31.7472 16.7652 32.1009C16.8003 32.3308 16.6597 32.6667 16.4312 32.9143Z" fill="#FFC904"/>
<path d="M61.598 65.4858C59.7698 66.476 61.1761 69.2109 63.0981 68.4093C64.4106 67.8671 64.4106 66.0045 63.1215 65.3915C62.3949 65.0614 62.348 65.0614 61.598 65.4858ZM63.2621 68.0085C62.4887 68.6451 62.2777 68.2914 63.0043 67.5134C63.4731 66.9711 63.6371 66.9004 63.7075 67.2069C63.7543 67.4191 63.5434 67.7728 63.2621 68.0085Z" fill="#FFC904"/>
</g>
<defs>
<linearGradient id="paint0_linear_1135_45261" x1="65.6083" y1="107.609" x2="72.4844" y2="107.609" gradientUnits="userSpaceOnUse">
<stop stop-color="#FECF24"/>
<stop offset="1" stop-color="#FE9724"/>
</linearGradient>
<clipPath id="clip0_1135_45261">
<rect width="93.4463" height="136.524" fill="white"/>
</clipPath>
</defs>
</svg>