<svg xmlns="http://www.w3.org/2000/svg" width="94" height="137" viewBox="0 0 94 137" fill="none">
<g clip-path="url(#clip0_1135_71353)">
<g clip-path="url(#clip1_1135_71353)">
<path d="M48.3902 5.61816C48.0078 5.9386 47.6254 6.16748 47.5404 6.1217C47.4696 6.06067 47.4413 6.09118 47.4979 6.15222C47.5687 6.22851 46.9597 7.00671 46.1524 7.89172C45.3593 8.77673 44.4103 9.92113 44.0562 10.4247C42.2292 12.9881 40.4587 16.4214 39.7647 18.6797C39.5523 19.3663 39.3115 20.0224 39.2124 20.1445C38.8866 20.587 37.0454 21.823 35.6432 22.5554C32.938 23.9592 30.0345 24.8289 26.961 25.1494C23.4202 25.5308 20.4459 24.5848 18.5055 22.4791C18.0381 21.9603 17.4999 21.2279 17.3016 20.8311L16.9475 20.114L18.1797 18.8933C19.4686 17.6115 20.2759 16.2383 20.2759 15.3685C20.2759 14.8345 19.6811 14.0563 19.157 13.9342C18.3072 13.7358 17.075 14.7276 16.6926 15.9178C16.1544 17.5353 16.2819 18.8933 17.0892 20.6786C18.7321 24.2796 22.797 26.0039 27.8392 25.2409C31.6349 24.6611 34.7367 23.5014 37.8243 21.5025C38.4759 21.0753 39.0282 20.7243 39.0566 20.7243C39.0707 20.7243 38.9716 21.1668 38.8299 21.7162C38.4617 23.1047 37.881 26.9346 37.7677 28.6589C37.6685 30.2 37.8668 33.3128 38.1784 35.2201C38.3484 36.273 38.3484 36.3646 38.0934 36.5934C37.2436 37.3564 37.7394 39.0348 38.8299 39.0348C39.1132 39.0348 39.1415 38.9738 39.0566 38.3787C39.0141 38.0278 38.9149 37.4784 38.8299 37.1428C38.7166 36.7613 38.7166 36.5019 38.8016 36.4103C39.099 36.0899 40.3171 36.273 41.7334 36.8223C43.0223 37.3411 43.2489 37.3869 44.297 37.3259C47.2005 37.1733 49.6933 34.7319 50.7838 31.0087C51.3787 28.9183 51.4778 27.5297 51.3929 22.3265C51.2795 15.9026 50.9963 13.5832 49.8774 9.55492C49.1975 7.11352 49.1409 6.09118 49.6649 5.54187C50.0757 5.08411 50.2315 5.06885 50.8405 5.46558C51.1804 5.69446 51.4495 6.09118 51.7894 6.88464C53.7723 11.5691 54.8487 17.0927 55.0612 23.8524C55.1745 27.4534 54.9054 36.273 54.6363 37.3564C54.2397 38.9585 53.5032 39.3248 49.5375 39.8741C45.5009 40.4386 41.5918 40.3318 37.711 39.5536C36.6629 39.34 35.714 39.2179 35.6007 39.2637C35.4307 39.3248 35.4024 39.6757 35.4591 41.2168C35.5157 42.758 35.5865 43.2463 35.884 44.0245L36.238 44.9705L35.9831 45.7792C35.629 46.8778 35.629 48.8615 35.9973 50.5094C36.7904 54.1563 37.0454 58.7949 36.6488 62.5028C36.4505 64.2881 35.8981 67.1262 35.3599 69.0183C35.2749 69.3082 35.3458 69.3235 36.5921 69.3387C38.0934 69.354 39.2832 69.7355 42.5266 71.2766C44.7219 72.3295 45.77 72.6194 47.243 72.6194C49.8207 72.6346 51.4353 71.185 52.1577 68.2401C52.4126 67.1567 52.4693 66.1954 52.6392 59.0238C52.7525 54.614 52.8659 50.0822 52.9083 48.953C52.9933 46.6947 53.3474 44.8179 53.8998 43.643C54.183 43.0479 55.6135 40.7743 55.9393 40.3776C55.996 40.3166 56.0101 44.5738 55.996 49.838C55.9393 60.5192 56.0668 64.5475 56.5342 66.3175C56.8741 67.6603 57.4548 68.9267 58.4037 70.4221C60.2733 73.4281 60.7973 75.5948 60.0184 77.2275C59.8342 77.6242 59.7492 77.9447 59.8201 77.9447C59.8909 77.9447 60.075 77.6242 60.245 77.2275C60.4857 76.6477 60.5282 76.2967 60.4716 75.2744C60.4008 73.779 59.9192 72.5583 58.517 70.3153C56.1942 66.5922 56.0243 65.1121 56.1517 49.1819C56.2226 40.9269 56.2509 39.813 56.4633 39.279C56.7466 38.5618 56.7749 37.5242 56.52 37.0207L56.3359 36.6697L56.2367 37.0512C56.1801 37.2648 56.1376 37.9515 56.1234 38.5923C56.1093 39.6757 56.0668 39.8283 55.6277 40.4997C52.7242 44.9247 52.8092 44.4517 52.4976 57.4216C52.271 67.5229 52.2285 68.0723 51.4353 69.8118C50.6422 71.5513 49.2117 72.4515 47.2713 72.4515C45.855 72.4515 44.5095 72.0395 42.0734 70.8799C39.5381 69.6592 38.405 69.2777 36.8471 69.0793C36.1956 69.003 35.6432 68.9115 35.6149 68.8962C35.6007 68.8657 35.714 68.4079 35.8556 67.8586C36.5213 65.5698 36.8754 62.8843 36.9462 59.6799C37.0312 56.1704 36.8896 54.2631 36.2664 51.013C35.799 48.6021 35.7565 47.244 36.0822 46.0691L36.2947 45.2757L37.0454 46.0996C38.2351 47.3966 39.7081 47.7934 40.6853 47.0762C41.3227 46.6184 41.5493 46.1149 41.4785 45.3367C41.3935 44.4975 40.8553 43.7345 40.0622 43.3225C38.9291 42.7275 37.966 43.0021 36.8896 44.1923L36.2947 44.8484L35.9973 43.8108C35.8273 43.2463 35.6573 42.1934 35.6149 41.4762C35.544 40.225 35.544 40.1792 35.8698 40.0267C36.0539 39.9351 36.1956 39.7825 36.1672 39.6757C36.1247 39.4468 36.0114 39.4316 37.881 39.7978C40.2746 40.2403 42.13 40.4081 44.9769 40.4081C47.7529 40.4081 49.0701 40.2861 51.5062 39.7825C53.8006 39.3095 54.4238 38.8975 54.7637 37.5853C55.2878 35.6016 55.5002 23.3183 55.0612 19.5036C54.4663 14.2546 53.5315 10.2873 52.1152 7.03723C51.662 5.98437 50.7555 5.00781 50.2456 5.00781C50.0473 5.00781 49.7074 5.17566 49.495 5.37402C49.1267 5.70972 49.0984 5.83179 49.0984 6.79309C49.0984 7.55602 49.24 8.31896 49.6224 9.66173C50.7555 13.6443 51.0104 15.8873 51.1096 22.357C51.1946 27.8349 51.1096 29.0556 50.5006 31.1003C49.5799 34.2131 47.3846 36.5324 44.8635 37.0359C43.8155 37.2496 43.1923 37.1428 41.5918 36.4714C40.5296 36.0289 40.1896 35.9678 39.4531 36.0136L38.5892 36.0746L38.4334 35.1439C37.7394 31.0087 37.9518 26.3701 39.0424 21.945C39.3398 20.7549 39.4815 20.4192 39.8639 20.0682C40.1046 19.8241 40.912 19.0611 41.6343 18.3897C44.6369 15.5364 47.1155 11.6606 48.4327 7.75439C48.8859 6.3811 49.2117 5.1604 49.1409 5.08411C49.1126 5.06885 48.7868 5.29773 48.3902 5.61816ZM48.3052 7.38818C47.1438 10.9282 45.2601 14.102 42.5974 16.9859C41.5776 18.0998 40.4729 19.2137 40.1613 19.4731L39.5664 19.9614L39.9064 19.0764C40.0905 18.6034 40.2463 18.1151 40.2463 18.0083C40.2463 17.9015 40.6287 17.0165 41.0819 16.0246C42.0167 14.0105 43.4614 11.5996 44.7361 9.89061C46.1524 7.99853 48.4469 5.74023 48.716 5.99963C48.7301 6.01489 48.546 6.6405 48.3052 7.38818ZM19.6811 14.514C20.0918 14.9107 20.0918 15.811 19.7094 16.696C19.412 17.3369 18.0523 18.9238 17.3016 19.5036L16.8909 19.8241L16.7492 19.2442C15.9561 16.2077 18.0239 12.8813 19.6811 14.514ZM38.6741 37.6463C39.0282 38.9128 39.0282 38.8823 38.7591 38.8823C38.405 38.8823 37.8385 38.1651 37.8385 37.7378C37.8385 37.4174 38.1926 36.5934 38.3342 36.5934C38.3626 36.5934 38.5042 37.0665 38.6741 37.6463ZM56.3925 38.9891C56.2651 39.2179 56.2509 39.1722 56.3075 38.7449C56.35 38.4703 56.4067 38.0125 56.4209 37.7531C56.435 37.4632 56.4633 37.5547 56.4917 37.9972C56.52 38.394 56.4775 38.8517 56.3925 38.9891ZM39.8922 43.4446C41.0819 44.0245 41.6201 45.2299 41.1527 46.2827C40.5296 47.7018 38.6458 47.5492 37.1587 45.9471L36.408 45.1383L36.7054 44.6806C37.272 43.8261 38.2351 43.2005 39.0424 43.17C39.1982 43.17 39.5806 43.292 39.8922 43.4446Z" fill="#FFC904"/>
<path d="M15.4604 20.9685C11.8345 23.8524 7.65635 25.9123 4.08718 26.599C2.98244 26.8126 2.24594 26.8431 0.617153 26.7821C-1.6065 26.6905 -1.98891 26.6142 -5.28897 25.6224C-9.42468 24.3712 -11.705 24.6611 -13.957 26.7058C-14.651 27.3314 -16.4072 29.4676 -16.4072 29.6965C-16.4072 29.8186 -16.2231 29.6202 -15.1325 28.2317C-13.3054 25.9123 -11.705 25.0731 -9.1839 25.0884C-8.00834 25.0884 -7.39932 25.1799 -6.28041 25.5156C-2.82455 26.5532 -1.7198 26.8279 -0.289301 26.9804C4.18633 27.4687 9.08685 25.8055 14.3273 22.0214C16.2818 20.6023 16.8767 20.114 16.6643 20.1293C16.5934 20.1293 16.0411 20.5107 15.4604 20.9685Z" fill="#FFC904"/>
<path d="M33.5187 71.9327C32.9663 73.2908 32.4423 75.1981 32.3714 76.1899C32.2298 77.8684 33.0371 78.8755 35.3174 79.8978C35.884 80.1572 36.8329 80.4624 37.4136 80.5997C38.9149 80.9506 43.4614 81.1948 47.1155 81.1185C50.4439 81.0575 50.3306 81.1643 46.6906 81.4542C43.9288 81.6983 38.1784 81.5763 35.8556 81.2253C33.7028 80.9201 32.7397 80.7065 32.7397 80.5387C32.7397 80.2182 31.8191 79.3027 31.3375 79.1501C30.9268 79.0128 30.7143 79.028 30.3036 79.2112C29.8079 79.44 29.3688 79.9893 29.5813 80.1267C29.6521 80.1724 30.3602 80.3556 31.1817 80.5387C32.0032 80.737 32.7114 80.9659 32.768 81.0575C32.8955 81.2558 32.938 81.7899 33.3062 86.2607C34.0852 96.0568 34.3402 106.57 34.0002 115.176C33.8019 120.41 33.6461 122.622 33.4337 123.37C33.1929 124.209 33.4195 125.048 34.1135 125.872C36.7054 128.97 49.2542 129.779 56.5058 127.307C58.078 126.773 58.7578 126.162 59.296 124.82L59.4943 124.316L60.245 124.865C60.6557 125.155 61.4064 125.552 61.9163 125.72C63.0068 126.086 64.8339 126.147 65.6695 125.827C66.2078 125.628 66.2644 125.628 67.0859 126.101C68.1623 126.727 69.3804 127.017 72.8929 127.475C76.3771 127.948 80.881 128.115 83.1755 127.856C87.9202 127.322 91.9709 125.72 95.8092 122.851C96.8148 122.104 96.8998 122.058 96.8998 122.378C96.914 123.401 98.1745 124.682 99.6333 125.186C100.582 125.506 103.273 125.644 104.279 125.415C104.704 125.323 105.936 124.759 107.027 124.179C109.293 122.943 110.114 122.699 113.683 122.119C121.898 120.807 129.263 118.335 136.486 114.459C139.05 113.07 140.435 112.27 140.435 112.103C140.435 112.042 140.65 111.834 139.786 112.384C132.266 117.022 123.513 120.257 114.321 121.814C109.902 122.561 109.194 122.775 106.885 124.026C105.624 124.698 104.591 125.155 104.052 125.262C102.848 125.506 100.71 125.338 99.52 124.911C98.2737 124.484 97.268 123.507 97.1264 122.592C97.0273 121.997 97.0273 121.981 98.1037 120.929C99.0101 120.028 99.1518 119.83 98.9535 119.708C98.4294 119.403 97.3813 120.272 97.0556 121.31C96.659 122.577 91.6593 125.552 88.0052 126.696C84.9176 127.673 80.8385 128.039 76.7878 127.703C73.9693 127.459 69.7486 126.879 68.573 126.544C67.6807 126.3 66.5902 125.75 66.5902 125.552C66.5902 125.506 66.8734 125.247 67.2134 124.987C68.3748 124.102 69.0546 122.241 68.573 121.264C68.3464 120.837 67.6808 120.517 66.9726 120.517C65.8395 120.517 64.8906 121.569 64.8906 122.805C64.8906 123.462 65.3438 124.575 65.8253 125.109L66.1794 125.506L65.5421 125.689C64.6356 125.933 63.0918 125.903 62.1853 125.613C60.8682 125.186 59.381 124.209 59.5651 123.889C59.6926 123.675 60.2025 120.944 60.4999 118.838C61.548 111.438 61.9587 105.212 61.9729 96.6367C61.9871 87.3441 61.6755 82.5986 60.9248 80.737C60.5991 79.9283 59.99 79.0586 59.5935 78.8297C59.3952 78.7229 59.4801 78.8755 59.8201 79.2874C60.9815 80.676 61.2647 81.8051 61.5905 86.4133C61.8738 90.4569 61.9163 101.169 61.6613 104.876C61.1939 111.834 60.6557 116.549 59.551 123.385C59.5085 123.645 59.4235 123.874 59.3527 123.874C58.9561 123.874 57.3273 120.852 56.9024 119.296L56.6758 118.472L57.2282 117.923C58.8003 116.397 60.1883 113.772 60.3158 112.079C60.4858 109.942 59.1402 108.31 56.605 107.547L55.7552 107.287V102.038C55.7693 94.3478 56.3784 88.2901 57.8089 81.5457C58.2479 79.5011 58.3612 78.494 58.0072 79.852C57.2848 82.6139 56.3217 88.8089 55.8968 93.3255C55.6277 96.2399 55.3586 103.076 55.4294 105.41L55.4719 107.165H53.2058C50.6422 107.165 49.7924 107.348 47.328 108.493C43.5605 110.217 40.657 112.841 36.5213 118.289C35.8273 119.22 34.9633 120.44 34.6093 121.02C34.2552 121.585 33.9577 122.027 33.9436 122.012C33.9294 121.981 33.9719 121.035 34.0286 119.906C34.0852 118.777 34.1844 114.413 34.241 110.217C34.3685 100.467 34.1277 93.6459 33.3204 84.2771C33.1646 82.5223 33.0655 81.0575 33.0938 81.0269C33.1079 80.9964 33.7878 81.088 34.5951 81.21C37.4419 81.6525 39.354 81.8051 42.3708 81.8051C45.77 81.8204 48.2911 81.6068 51.2229 81.0727C53.5032 80.6607 57.6531 79.5468 57.8797 79.2874C57.9788 79.1654 57.9505 79.1501 57.7522 79.2264C56.5342 79.6842 51.1663 81.0117 50.5997 80.9812C50.4722 80.9812 50.7555 80.8591 51.2229 80.7065C52.3701 80.3556 52.9083 80.0199 53.744 79.1806C54.6504 78.2804 55.1178 77.2275 55.1178 76.0831C55.1178 74.954 54.7354 74.4352 53.829 74.2978L53.2058 74.2063L54.0556 73.4739C55.302 72.421 55.741 72.2226 56.8883 72.2226C57.4406 72.2226 58.0072 72.2684 58.163 72.3447C58.3187 72.4057 58.1913 72.3142 57.8797 72.1463C56.8316 71.5665 55.4861 72.009 53.8148 73.4586L52.8234 74.3131L48.0645 74.2368C44.0279 74.1758 43.0365 74.1147 41.6768 73.8401C39.6798 73.4433 37.3994 72.6346 36.0114 71.8259C35.4449 71.4902 34.935 71.2461 34.9067 71.2919C34.7792 71.4139 36.6488 72.421 37.9801 72.9551C40.912 74.1147 43.5605 74.4962 48.716 74.4962C50.8263 74.4962 52.5684 74.5115 52.5684 74.542C52.5684 74.6946 50.9963 75.3965 50.2031 75.5948C48.7726 75.961 42.4133 75.8084 40.6004 75.3812C38.1218 74.8014 36.1389 73.7027 34.8642 72.2074C34.4818 71.7344 34.156 71.2919 34.156 71.2156C34.156 70.8188 33.8303 71.185 33.5187 71.9327ZM36.1389 73.6264C38.3909 75.2591 40.6429 75.8542 45.2743 76.0373C48.9993 76.2052 50.9821 75.8542 52.4409 74.8166C53.2341 74.2673 54.0131 74.2978 54.5796 74.8929C54.9762 75.3354 55.0045 75.427 54.9479 76.2357C54.7921 78.3719 53.2624 79.9893 50.7697 80.6455C49.9624 80.8438 49.0417 80.8896 45.0618 80.8591C42.4558 80.8438 39.7789 80.7675 39.1132 80.676C35.4449 80.2182 32.768 78.7076 32.5272 76.9834C32.4139 76.1747 32.7539 74.5725 33.4479 72.6194L33.9011 71.3529L34.7084 72.2532C35.1475 72.7567 35.7848 73.3823 36.1389 73.6264ZM31.7341 79.5316C32.1023 79.7452 32.683 80.4929 32.5697 80.615C32.5272 80.6607 30.3319 80.1877 29.8504 80.0351C29.7654 80.0046 29.8504 79.8368 30.0203 79.6537C30.3886 79.2569 31.1392 79.2112 31.7341 79.5316ZM55.4294 107.486C55.5002 107.531 55.5427 108.081 55.5427 108.706C55.5427 110.949 55.9251 115.512 56.3359 117.999C56.4067 118.426 56.3359 118.502 55.5569 119.052C54.3955 119.845 52.4551 120.608 51.0105 120.837C50.2173 120.959 49.1126 120.99 47.6962 120.913C40.6429 120.593 39.9064 120.608 37.7535 121.219C36.7621 121.493 34.7084 122.546 34.3685 122.973C34.0569 123.324 33.8728 123.355 33.8728 123.034C33.8728 121.814 39.0849 115.008 42.1583 112.185C44.8069 109.774 48.5602 107.821 51.4354 107.394C52.3135 107.272 55.2028 107.333 55.4294 107.486ZM56.9307 107.913C57.8939 108.264 58.9278 108.92 59.3952 109.485C60.1317 110.354 60.3016 112.079 59.7917 113.559C59.3952 114.703 58.5029 116.122 57.4831 117.282L56.605 118.258L56.435 117.282C56.35 116.748 56.1801 115.008 56.0526 113.421C55.6985 108.691 55.656 107.547 55.7977 107.547C55.8827 107.547 56.3784 107.715 56.9307 107.913ZM57.7381 121.966C57.9647 122.378 58.4179 123.05 58.7578 123.431L59.381 124.148L59.1544 124.728C58.5595 126.254 57.7805 126.803 55.0895 127.536C52.3701 128.268 50.0898 128.527 46.2657 128.527C42.7815 128.512 41.2944 128.375 38.8299 127.81C37.2436 127.444 35.4591 126.773 34.85 126.3C34.241 125.842 33.5895 124.82 33.6037 124.347C33.6178 123.507 35.7848 122.042 37.9377 121.402C39.1274 121.051 41.3227 120.99 48.107 121.112C50.8122 121.173 51.1804 121.142 52.2143 120.837C53.4324 120.486 55.047 119.723 55.911 119.082L56.4492 118.701L56.8883 119.952C57.129 120.654 57.5114 121.554 57.7381 121.966ZM98.5286 120.15C98.5286 120.364 97.3389 121.493 97.2256 121.386C97.1123 121.264 97.5655 120.517 97.9479 120.181C98.2595 119.906 98.5286 119.891 98.5286 120.15ZM67.964 120.974C68.4739 121.31 68.6439 121.798 68.5164 122.546C68.3889 123.294 67.6807 124.408 67.0009 124.942L66.3919 125.399L65.9387 124.926C65.4713 124.438 65.0322 123.355 65.0322 122.744C65.0322 122.561 65.1597 122.149 65.3013 121.798C65.7404 120.745 67.0151 120.349 67.964 120.974Z" fill="#FFC904"/>
<path d="M48.7099 5.61816C48.3275 5.9386 47.9451 6.16748 47.8601 6.1217C47.7893 6.06067 47.7609 6.09118 47.8176 6.15222C47.8884 6.22851 47.2794 7.00671 46.4721 7.89172C45.6789 8.77673 44.73 9.92113 44.3759 10.4247C42.5488 12.9881 40.7784 16.4214 40.0844 18.6797C39.8719 19.3663 39.6312 20.0224 39.532 20.1445C39.2063 20.587 37.365 21.823 35.9628 22.5554C33.2576 23.9592 30.3541 24.8289 27.2807 25.1494C23.7398 25.5308 20.7655 24.5848 18.8252 22.4791C18.3578 21.9603 17.8196 21.2279 17.6213 20.8311L17.2672 20.114L18.4994 18.8933C19.7883 17.6115 20.5956 16.2383 20.5956 15.3685C20.5956 14.8345 20.0007 14.0563 19.4767 13.9342C18.6269 13.7358 17.3946 14.7276 17.0122 15.9178C16.474 17.5353 16.6015 18.8933 17.4088 20.6786C19.0518 24.2796 23.1167 26.0039 28.1588 25.2409C31.9546 24.6611 35.0564 23.5014 38.144 21.5025C38.7955 21.0753 39.3479 20.7243 39.3762 20.7243C39.3904 20.7243 39.2912 21.1668 39.1496 21.7162C38.7814 23.1047 38.2007 26.9346 38.0873 28.6589C37.9882 30.2 38.1865 33.3128 38.4981 35.2201C38.668 36.273 38.668 36.3646 38.4131 36.5934C37.5633 37.3564 38.059 39.0348 39.1496 39.0348C39.4329 39.0348 39.4612 38.9738 39.3762 38.3787C39.3337 38.0278 39.2346 37.4784 39.1496 37.1428C39.0363 36.7613 39.0363 36.5019 39.1213 36.4103C39.4187 36.0899 40.6367 36.273 42.0531 36.8223C43.342 37.3411 43.5686 37.3869 44.6167 37.3259C47.5202 37.1733 50.0129 34.7319 51.1035 31.0087C51.6983 28.9183 51.7975 27.5297 51.7125 22.3265C51.5992 15.9026 51.3159 13.5832 50.197 9.55492C49.5172 7.11352 49.4605 6.09118 49.9846 5.54187C50.3953 5.08411 50.5511 5.06885 51.1601 5.46558C51.5001 5.69446 51.7692 6.09118 52.1091 6.88464C54.0919 11.5691 55.1684 17.0927 55.3808 23.8524C55.4941 27.4534 55.225 36.273 54.9559 37.3564C54.5593 38.9585 53.8229 39.3248 49.8571 39.8741C45.8205 40.4386 41.9115 40.3318 38.0307 39.5536C36.9826 39.34 36.0337 39.2179 35.9203 39.2637C35.7504 39.3248 35.7221 39.6757 35.7787 41.2168C35.8354 42.758 35.9062 43.2463 36.2036 44.0245L36.5577 44.9705L36.3028 45.7792C35.9487 46.8778 35.9487 48.8615 36.3169 50.5094C37.1101 54.1563 37.365 58.7949 36.9684 62.5028C36.7701 64.2881 36.2178 67.1262 35.6796 69.0183C35.5946 69.3082 35.6654 69.3235 36.9118 69.3387C38.4131 69.354 39.6028 69.7355 42.8462 71.2766C45.0416 72.3295 46.0897 72.6194 47.5626 72.6194C50.1404 72.6346 51.755 71.185 52.4773 68.2401C52.7323 67.1567 52.7889 66.1954 52.9589 59.0238C53.0722 54.614 53.1855 50.0822 53.228 48.953C53.313 46.6947 53.6671 44.8179 54.2194 43.643C54.5027 43.0479 55.9332 40.7743 56.2589 40.3776C56.3156 40.3166 56.3298 44.5738 56.3156 49.838C56.259 60.5192 56.3864 64.5475 56.8538 66.3175C57.1937 67.6603 57.7744 68.9267 58.7234 70.4221C60.5929 73.4281 61.117 75.5948 60.338 77.2275C60.1539 77.6242 60.0689 77.9447 60.1397 77.9447C60.2105 77.9447 60.3947 77.6242 60.5646 77.2275C60.8054 76.6477 60.8479 76.2967 60.7912 75.2744C60.7204 73.779 60.2389 72.5583 58.8367 70.3153C56.5139 66.5922 56.3439 65.1121 56.4714 49.1819C56.5422 40.9269 56.5705 39.813 56.783 39.279C57.0663 38.5618 57.0946 37.5242 56.8397 37.0207L56.6555 36.6697L56.5564 37.0512C56.4997 37.2648 56.4572 37.9515 56.4431 38.5923C56.4289 39.6757 56.3864 39.8283 55.9474 40.4997C53.0439 44.9247 53.1288 44.4517 52.8173 57.4216C52.5906 67.5229 52.5481 68.0723 51.755 69.8118C50.9619 71.5513 49.5313 72.4515 47.591 72.4515C46.1746 72.4515 44.8291 72.0395 42.393 70.8799C39.8578 69.6592 38.7247 69.2777 37.1667 69.0793C36.5152 69.003 35.9628 68.9115 35.9345 68.8962C35.9203 68.8657 36.0337 68.4079 36.1753 67.8586C36.841 65.5698 37.195 62.8843 37.2659 59.6799C37.3508 56.1704 37.2092 54.2631 36.586 51.013C36.1186 48.6021 36.0761 47.244 36.4019 46.0691L36.6144 45.2757L37.365 46.0996C38.5547 47.3966 40.0277 47.7934 41.005 47.0762C41.6424 46.6184 41.869 46.1149 41.7981 45.3367C41.7132 44.4975 41.175 43.7345 40.3818 43.3225C39.2487 42.7275 38.2856 43.0021 37.2092 44.1923L36.6144 44.8484L36.3169 43.8108C36.147 43.2463 35.977 42.1934 35.9345 41.4762C35.8637 40.225 35.8637 40.1792 36.1895 40.0267C36.3736 39.9351 36.5152 39.7825 36.4869 39.6757C36.4444 39.4468 36.3311 39.4316 38.2006 39.7978C40.5943 40.2403 42.4497 40.4081 45.2965 40.4081C48.0725 40.4081 49.3897 40.2861 51.8258 39.7825C54.1203 39.3095 54.7435 38.8975 55.0834 37.5853C55.6074 35.6016 55.8199 23.3183 55.3808 19.5036C54.786 14.2546 53.8512 10.2873 52.4348 7.03723C51.9816 5.98437 51.0752 5.00781 50.5653 5.00781C50.367 5.00781 50.0271 5.17566 49.8146 5.37402C49.4464 5.70972 49.418 5.83179 49.418 6.79309C49.418 7.55602 49.5597 8.31896 49.9421 9.66173C51.0752 13.6443 51.3301 15.8873 51.4292 22.357C51.5142 27.8349 51.4292 29.0556 50.8202 31.1003C49.8996 34.2131 47.7043 36.5324 45.1832 37.0359C44.1351 37.2496 43.5119 37.1428 41.9115 36.4714C40.8492 36.0289 40.5093 35.9678 39.7728 36.0136L38.9088 36.0746L38.753 35.1439C38.059 31.0087 38.2715 26.3701 39.362 21.945C39.6595 20.7549 39.8011 20.4192 40.1835 20.0682C40.4243 19.8241 41.2316 19.0611 41.9539 18.3897C44.9566 15.5364 47.4352 11.6606 48.7524 7.75439C49.2056 6.3811 49.5313 5.1604 49.4605 5.08411C49.4322 5.06885 49.1064 5.29773 48.7099 5.61816ZM48.6249 7.38818C47.4635 10.9282 45.5798 14.102 42.9171 16.9859C41.8973 18.0998 40.7925 19.2137 40.481 19.4731L39.8861 19.9614L40.226 19.0764C40.4101 18.6034 40.5659 18.1151 40.5659 18.0083C40.5659 17.9015 40.9483 17.0165 41.4016 16.0246C42.3364 14.0105 43.781 11.5996 45.0557 9.89061C46.4721 7.99853 48.7665 5.74023 49.0356 5.99963C49.0498 6.01489 48.8657 6.6405 48.6249 7.38818ZM20.0007 14.514C20.4115 14.9107 20.4114 15.811 20.029 16.696C19.7316 17.3369 18.3719 18.9238 17.6213 19.5036L17.2105 19.8241L17.0689 19.2442C16.2757 16.2077 18.3436 12.8813 20.0007 14.514ZM38.9938 37.6463C39.3479 38.9128 39.3479 38.8823 39.0788 38.8823C38.7247 38.8823 38.1582 38.1651 38.1582 37.7378C38.1582 37.4174 38.5122 36.5934 38.6539 36.5934C38.6822 36.5934 38.8238 37.0665 38.9938 37.6463ZM56.7122 38.9891C56.5847 39.2179 56.5705 39.1722 56.6272 38.7449C56.6697 38.4703 56.7263 38.0125 56.7405 37.7531C56.7547 37.4632 56.783 37.5547 56.8113 37.9972C56.8397 38.394 56.7972 38.8517 56.7122 38.9891ZM40.2118 43.4446C41.4016 44.0245 41.9398 45.2299 41.4724 46.2827C40.8492 47.7018 38.9655 47.5492 37.4783 45.9471L36.7277 45.1383L37.0251 44.6806C37.5916 43.8261 38.5547 43.2005 39.362 43.17C39.5178 43.17 39.9003 43.292 40.2118 43.4446Z" fill="#FFC904"/>
<path d="M15.78 20.9685C12.1542 23.8524 7.97601 25.9123 4.40683 26.599C3.30209 26.8126 2.5656 26.8431 0.936808 26.7821C-1.28684 26.6905 -1.66926 26.6142 -4.96932 25.6224C-9.10503 24.3712 -11.3853 24.6611 -13.6373 26.7058C-14.3313 27.3314 -16.0876 29.4676 -16.0876 29.6965C-16.0876 29.8186 -15.9034 29.6202 -14.8129 28.2317C-12.9858 25.9123 -11.3853 25.0731 -8.86425 25.0884C-7.68869 25.0884 -7.07967 25.1799 -5.96076 25.5156C-2.50489 26.5532 -1.40015 26.8279 0.0303516 26.9804C4.50598 27.4687 9.40651 25.8055 14.647 22.0214C16.6015 20.6023 17.1964 20.114 16.9839 20.1293C16.9131 20.1293 16.3607 20.5107 15.78 20.9685Z" fill="#FFC904"/>
<path d="M33.8383 71.9327C33.286 73.2908 32.7619 75.1981 32.6911 76.1899C32.5495 77.8684 33.3568 78.8755 35.6371 79.8978C36.2036 80.1572 37.1526 80.4624 37.7333 80.5997C39.2346 80.9506 43.781 81.1948 47.4352 81.1185C50.7636 81.0575 50.6503 81.1643 47.0103 81.4542C44.2484 81.6983 38.4981 81.5763 36.1753 81.2253C34.0225 80.9201 33.0593 80.7065 33.0593 80.5387C33.0593 80.2182 32.1387 79.3027 31.6572 79.1501C31.2464 79.0128 31.034 79.028 30.6232 79.2112C30.1275 79.44 29.6885 79.9893 29.9009 80.1267C29.9717 80.1724 30.6799 80.3556 31.5014 80.5387C32.3229 80.737 33.031 80.9659 33.0877 81.0575C33.2151 81.2558 33.2576 81.7899 33.6259 86.2607C34.4049 96.0568 34.6598 106.57 34.3199 115.176C34.1216 120.41 33.9658 122.622 33.7534 123.37C33.5126 124.209 33.7392 125.048 34.4332 125.872C37.0251 128.97 49.5738 129.779 56.8255 127.307C58.3976 126.773 59.0775 126.162 59.6157 124.82L59.814 124.316L60.5646 124.865C60.9754 125.155 61.726 125.552 62.2359 125.72C63.3265 126.086 65.1536 126.147 65.9892 125.827C66.5274 125.628 66.5841 125.628 67.4055 126.101C68.482 126.727 69.7 127.017 73.2125 127.475C76.6967 127.948 81.2007 128.115 83.4951 127.856C88.2399 127.322 92.2906 125.72 96.1289 122.851C97.1345 122.104 97.2195 122.058 97.2195 122.378C97.2336 123.401 98.4941 124.682 99.953 125.186C100.902 125.506 103.593 125.644 104.599 125.415C105.023 125.323 106.256 124.759 107.346 124.179C109.612 122.943 110.434 122.699 114.003 122.119C122.218 120.807 129.583 118.335 136.806 114.459C139.37 113.07 140.754 112.27 140.754 112.103C140.754 112.042 140.97 111.834 140.106 112.384C132.585 117.022 123.832 120.257 114.64 121.814C110.221 122.561 109.513 122.775 107.205 124.026C105.944 124.698 104.91 125.155 104.372 125.262C103.168 125.506 101.029 125.338 99.8397 124.911C98.5933 124.484 97.5877 123.507 97.4461 122.592C97.3469 121.997 97.3469 121.981 98.4233 120.929C99.3298 120.028 99.4714 119.83 99.2731 119.708C98.7491 119.403 97.701 120.272 97.3752 121.31C96.9787 122.577 91.979 125.552 88.3248 126.696C85.2372 127.673 81.1582 128.039 77.1074 127.703C74.2889 127.459 70.0682 126.879 68.8927 126.544C68.0004 126.3 66.9098 125.75 66.9098 125.552C66.9098 125.506 67.1931 125.247 67.533 124.987C68.6944 124.102 69.3742 122.241 68.8927 121.264C68.6661 120.837 68.0004 120.517 67.2922 120.517C66.1592 120.517 65.2102 121.569 65.2102 122.805C65.2102 123.462 65.6634 124.575 66.145 125.109L66.4991 125.506L65.8617 125.689C64.9553 125.933 63.4115 125.903 62.505 125.613C61.1878 125.186 59.7007 124.209 59.8848 123.889C60.0123 123.675 60.5221 120.944 60.8196 118.838C61.8677 111.438 62.2784 105.212 62.2926 96.6367C62.3067 87.3441 61.9951 82.5986 61.2445 80.737C60.9187 79.9283 60.3097 79.0586 59.9131 78.8297C59.7148 78.7229 59.7998 78.8755 60.1397 79.2874C61.3011 80.676 61.5844 81.8051 61.9101 86.4133C62.1934 90.4569 62.2359 101.169 61.981 104.876C61.5136 111.834 60.9754 116.549 59.8706 123.385C59.8281 123.645 59.7431 123.874 59.6723 123.874C59.2758 123.874 57.647 120.852 57.2221 119.296L56.9955 118.472L57.5478 117.923C59.12 116.397 60.508 113.772 60.6354 112.079C60.8054 109.942 59.4599 108.31 56.9246 107.547L56.0748 107.287V102.038C56.089 94.3478 56.698 88.2901 58.1285 81.5457C58.5676 79.5011 58.6809 78.494 58.3268 79.852C57.6045 82.6139 56.6414 88.8089 56.2165 93.3255C55.9474 96.2399 55.6783 103.076 55.7491 105.41L55.7916 107.165H53.5254C50.9619 107.165 50.1121 107.348 47.6476 108.493C43.8802 110.217 40.9767 112.841 36.841 118.289C36.147 119.22 35.283 120.44 34.9289 121.02C34.5748 121.585 34.2774 122.027 34.2632 122.012C34.2491 121.981 34.2916 121.035 34.3482 119.906C34.4049 118.777 34.504 114.413 34.5607 110.217C34.6881 100.467 34.4474 93.6459 33.64 84.2771C33.4842 82.5223 33.3851 81.0575 33.4134 81.0269C33.4276 80.9964 34.1074 81.088 34.9148 81.21C37.7616 81.6525 39.6736 81.8051 42.6904 81.8051C46.0897 81.8204 48.6107 81.6068 51.5426 81.0727C53.8229 80.6607 57.9727 79.5468 58.1993 79.2874C58.2985 79.1654 58.2702 79.1501 58.0719 79.2264C56.8538 79.6842 51.4859 81.0117 50.9194 80.9812C50.7919 80.9812 51.0752 80.8591 51.5426 80.7065C52.6898 80.3556 53.228 80.0199 54.0636 79.1806C54.9701 78.2804 55.4375 77.2275 55.4375 76.0831C55.4375 74.954 55.0551 74.4352 54.1486 74.2978L53.5254 74.2063L54.3752 73.4739C55.6216 72.421 56.0607 72.2226 57.2079 72.2226C57.7603 72.2226 58.3268 72.2684 58.4826 72.3447C58.6384 72.4057 58.5109 72.3142 58.1993 72.1463C57.1513 71.5665 55.8057 72.009 54.1345 73.4586L53.143 74.3131L48.3841 74.2368C44.3476 74.1758 43.3561 74.1147 41.9964 73.8401C39.9994 73.4433 37.7191 72.6346 36.3311 71.8259C35.7646 71.4902 35.2547 71.2461 35.2263 71.2919C35.0989 71.4139 36.9684 72.421 38.2998 72.9551C41.2316 74.1147 43.8802 74.4962 49.0356 74.4962C51.146 74.4962 52.8881 74.5115 52.8881 74.542C52.8881 74.6946 51.3159 75.3965 50.5228 75.5948C49.0923 75.961 42.7329 75.8084 40.92 75.3812C38.4414 74.8014 36.4586 73.7027 35.1839 72.2074C34.8014 71.7344 34.4757 71.2919 34.4757 71.2156C34.4757 70.8188 34.1499 71.185 33.8383 71.9327ZM36.4586 73.6264C38.7105 75.2591 40.9625 75.8542 45.5939 76.0373C49.3189 76.2052 51.3018 75.8542 52.7606 74.8166C53.5537 74.2673 54.3327 74.2978 54.8993 74.8929C55.2959 75.3354 55.3242 75.427 55.2675 76.2357C55.1117 78.3719 53.5821 79.9893 51.0893 80.6455C50.282 80.8438 49.3614 80.8896 45.3815 80.8591C42.7754 80.8438 40.0985 80.7675 39.4329 80.676C35.7646 80.2182 33.0877 78.7076 32.8469 76.9834C32.7336 76.1747 33.0735 74.5725 33.7675 72.6194L34.2207 71.3529L35.0281 72.2532C35.4671 72.7567 36.1045 73.3823 36.4586 73.6264ZM32.0537 79.5316C32.422 79.7452 33.0027 80.4929 32.8894 80.615C32.8469 80.6607 30.6516 80.1877 30.17 80.0351C30.085 80.0046 30.17 79.8368 30.34 79.6537C30.7082 79.2569 31.4589 79.2112 32.0537 79.5316ZM55.7491 107.486C55.8199 107.531 55.8624 108.081 55.8624 108.706C55.8624 110.949 56.2448 115.512 56.6555 117.999C56.7263 118.426 56.6555 118.502 55.8765 119.052C54.7151 119.845 52.7748 120.608 51.3301 120.837C50.537 120.959 49.4322 120.99 48.0159 120.913C40.9625 120.593 40.226 120.608 38.0732 121.219C37.0817 121.493 35.0281 122.546 34.6881 122.973C34.3765 123.324 34.1924 123.355 34.1924 123.034C34.1924 121.814 39.4045 115.008 42.478 112.185C45.1265 109.774 48.8798 107.821 51.755 107.394C52.6331 107.272 55.5225 107.333 55.7491 107.486ZM57.2504 107.913C58.2135 108.264 59.2474 108.92 59.7148 109.485C60.4513 110.354 60.6213 112.079 60.1114 113.559C59.7148 114.703 58.8225 116.122 57.8028 117.282L56.9246 118.258L56.7547 117.282C56.6697 116.748 56.4997 115.008 56.3723 113.421C56.0182 108.691 55.9757 107.547 56.1173 107.547C56.2023 107.547 56.698 107.715 57.2504 107.913ZM58.0577 121.966C58.2843 122.378 58.7376 123.05 59.0775 123.431L59.7007 124.148L59.4741 124.728C58.8792 126.254 58.1002 126.803 55.4092 127.536C52.6898 128.268 50.4095 128.527 46.5854 128.527C43.1012 128.512 41.614 128.375 39.1496 127.81C37.5633 127.444 35.7787 126.773 35.1697 126.3C34.5607 125.842 33.9092 124.82 33.9233 124.347C33.9375 123.507 36.1045 122.042 38.2573 121.402C39.447 121.051 41.6424 120.99 48.4266 121.112C51.1318 121.173 51.5001 121.142 52.534 120.837C53.752 120.486 55.3667 119.723 56.2306 119.082L56.7688 118.701L57.2079 119.952C57.4487 120.654 57.8311 121.554 58.0577 121.966ZM98.8482 120.15C98.8482 120.364 97.6585 121.493 97.5452 121.386C97.4319 121.264 97.8851 120.517 98.2675 120.181C98.5791 119.906 98.8482 119.891 98.8482 120.15ZM68.2837 120.974C68.7935 121.31 68.9635 121.798 68.836 122.546C68.7086 123.294 68.0004 124.408 67.3205 124.942L66.7115 125.399L66.2583 124.926C65.7909 124.438 65.3519 123.355 65.3519 122.744C65.3519 122.561 65.4793 122.149 65.621 121.798C66.06 120.745 67.3347 120.349 68.2837 120.974Z" fill="#FFC904"/>
<path d="M49.0295 5.61816C48.6471 5.9386 48.2647 6.16748 48.1797 6.1217C48.1089 6.06067 48.0806 6.09118 48.1372 6.15222C48.208 6.22851 47.599 7.00671 46.7917 7.89172C45.9986 8.77673 45.0496 9.92113 44.6955 10.4247C42.8685 12.9881 41.098 16.4214 40.404 18.6797C40.1916 19.3663 39.9508 20.0224 39.8517 20.1445C39.5259 20.587 37.6847 21.823 36.2825 22.5554C33.5773 23.9592 30.6738 24.8289 27.6003 25.1494C24.0595 25.5308 21.0852 24.5848 19.1448 22.4791C18.6774 21.9603 18.1392 21.2279 17.9409 20.8311L17.5868 20.114L18.819 18.8933C20.1079 17.6115 20.9152 16.2383 20.9152 15.3685C20.9152 14.8345 20.3204 14.0563 19.7963 13.9342C18.9465 13.7358 17.7143 14.7276 17.3319 15.9178C16.7937 17.5353 16.9212 18.8933 17.7285 20.6786C19.3714 24.2796 23.4363 26.0039 28.4785 25.2409C32.2743 24.6611 35.376 23.5014 38.4637 21.5025C39.1152 21.0753 39.6675 20.7243 39.6959 20.7243C39.71 20.7243 39.6109 21.1668 39.4693 21.7162C39.101 23.1047 38.5203 26.9346 38.407 28.6589C38.3079 30.2 38.5061 33.3128 38.8177 35.2201C38.9877 36.273 38.9877 36.3646 38.7328 36.5934C37.8829 37.3564 38.3787 39.0348 39.4693 39.0348C39.7525 39.0348 39.7808 38.9738 39.6959 38.3787C39.6534 38.0278 39.5542 37.4784 39.4693 37.1428C39.3559 36.7613 39.3559 36.5019 39.4409 36.4103C39.7384 36.0899 40.9564 36.273 42.3727 36.8223C43.6616 37.3411 43.8882 37.3869 44.9363 37.3259C47.8398 37.1733 50.3326 34.7319 51.4231 31.0087C52.018 28.9183 52.1171 27.5297 52.0322 22.3265C51.9189 15.9026 51.6356 13.5832 50.5167 9.55492C49.8368 7.11352 49.7802 6.09118 50.3042 5.54187C50.715 5.08411 50.8708 5.06885 51.4798 5.46558C51.8197 5.69446 52.0888 6.09118 52.4287 6.88464C54.4116 11.5691 55.488 17.0927 55.7005 23.8524C55.8138 27.4534 55.5447 36.273 55.2756 37.3564C54.879 38.9585 54.1425 39.3248 50.1768 39.8741C46.1402 40.4386 42.2311 40.3318 38.3503 39.5536C37.3023 39.34 36.3533 39.2179 36.24 39.2637C36.07 39.3248 36.0417 39.6757 36.0984 41.2168C36.155 42.758 36.2258 43.2463 36.5233 44.0245L36.8774 44.9705L36.6224 45.7792C36.2683 46.8778 36.2683 48.8615 36.6366 50.5094C37.4297 54.1563 37.6847 58.7949 37.2881 62.5028C37.0898 64.2881 36.5374 67.1262 35.9992 69.0183C35.9142 69.3082 35.9851 69.3235 37.2314 69.3387C38.7328 69.354 39.9225 69.7355 43.1659 71.2766C45.3612 72.3295 46.4093 72.6194 47.8823 72.6194C50.46 72.6346 52.0747 71.185 52.797 68.2401C53.0519 67.1567 53.1086 66.1954 53.2785 59.0238C53.3919 54.614 53.5052 50.0822 53.5476 48.953C53.6326 46.6947 53.9867 44.8179 54.5391 43.643C54.8223 43.0479 56.2528 40.7743 56.5786 40.3776C56.6353 40.3166 56.6494 44.5738 56.6353 49.838C56.5786 60.5192 56.7061 64.5475 57.1735 66.3175C57.5134 67.6603 58.0941 68.9267 59.043 70.4221C60.9126 73.4281 61.4366 75.5948 60.6577 77.2275C60.4735 77.6242 60.3885 77.9447 60.4594 77.9447C60.5302 77.9447 60.7143 77.6242 60.8843 77.2275C61.125 76.6477 61.1675 76.2967 61.1109 75.2744C61.0401 73.779 60.5585 72.5583 59.1563 70.3153C56.8336 66.5922 56.6636 65.1121 56.7911 49.1819C56.8619 40.9269 56.8902 39.813 57.1027 39.279C57.3859 38.5618 57.4143 37.5242 57.1593 37.0207L56.9752 36.6697L56.876 37.0512C56.8194 37.2648 56.7769 37.9515 56.7627 38.5923C56.7486 39.6757 56.7061 39.8283 56.267 40.4997C53.3635 44.9247 53.4485 44.4517 53.1369 57.4216C52.9103 67.5229 52.8678 68.0723 52.0747 69.8118C51.2815 71.5513 49.851 72.4515 47.9106 72.4515C46.4943 72.4515 45.1488 72.0395 42.7127 70.8799C40.1774 69.6592 39.0443 69.2777 37.4864 69.0793C36.8349 69.003 36.2825 68.9115 36.2542 68.8962C36.24 68.8657 36.3533 68.4079 36.4949 67.8586C37.1606 65.5698 37.5147 62.8843 37.5855 59.6799C37.6705 56.1704 37.5289 54.2631 36.9057 51.013C36.4383 48.6021 36.3958 47.244 36.7216 46.0691L36.934 45.2757L37.6847 46.0996C38.8744 47.3966 40.3474 47.7934 41.3247 47.0762C41.962 46.6184 42.1886 46.1149 42.1178 45.3367C42.0328 44.4975 41.4946 43.7345 40.7015 43.3225C39.5684 42.7275 38.6053 43.0021 37.5289 44.1923L36.934 44.8484L36.6366 43.8108C36.4666 43.2463 36.2967 42.1934 36.2542 41.4762C36.1833 40.225 36.1833 40.1792 36.5091 40.0267C36.6932 39.9351 36.8349 39.7825 36.8065 39.6757C36.764 39.4468 36.6507 39.4316 38.5203 39.7978C40.9139 40.2403 42.7693 40.4081 45.6162 40.4081C48.3922 40.4081 49.7094 40.2861 52.1455 39.7825C54.4399 39.3095 55.0631 38.8975 55.403 37.5853C55.9271 35.6016 56.1395 23.3183 55.7005 19.5036C55.1056 14.2546 54.1708 10.2873 52.7545 7.03723C52.3013 5.98437 51.3948 5.00781 50.8849 5.00781C50.6866 5.00781 50.3467 5.17566 50.1343 5.37402C49.766 5.70972 49.7377 5.83179 49.7377 6.79309C49.7377 7.55602 49.8793 8.31896 50.2617 9.66173C51.3948 13.6443 51.6497 15.8873 51.7489 22.357C51.8339 27.8349 51.7489 29.0556 51.1399 31.1003C50.2193 34.2131 48.0239 36.5324 45.5028 37.0359C44.4548 37.2496 43.8316 37.1428 42.2311 36.4714C41.1689 36.0289 40.8289 35.9678 40.0924 36.0136L39.2285 36.0746L39.0727 35.1439C38.3787 31.0087 38.5911 26.3701 39.6817 21.945C39.9791 20.7549 40.1208 20.4192 40.5032 20.0682C40.744 19.8241 41.5513 19.0611 42.2736 18.3897C45.2762 15.5364 47.7548 11.6606 49.072 7.75439C49.5252 6.3811 49.851 5.1604 49.7802 5.08411C49.7519 5.06885 49.4261 5.29773 49.0295 5.61816ZM48.9445 7.38818C47.7831 10.9282 45.8994 14.102 43.2367 16.9859C42.2169 18.0998 41.1122 19.2137 40.8006 19.4731L40.2057 19.9614L40.5457 19.0764C40.7298 18.6034 40.8856 18.1151 40.8856 18.0083C40.8856 17.9015 41.268 17.0165 41.7212 16.0246C42.656 14.0105 44.1007 11.5996 45.3754 9.89061C46.7917 7.99853 49.0862 5.74023 49.3553 5.99963C49.3694 6.01489 49.1853 6.6405 48.9445 7.38818ZM20.3204 14.514C20.7311 14.9107 20.7311 15.811 20.3487 16.696C20.0513 17.3369 18.6916 18.9238 17.9409 19.5036L17.5302 19.8241L17.3885 19.2442C16.5954 16.2077 18.6632 12.8813 20.3204 14.514ZM39.3134 37.6463C39.6675 38.9128 39.6675 38.8823 39.3984 38.8823C39.0443 38.8823 38.4778 38.1651 38.4778 37.7378C38.4778 37.4174 38.8319 36.5934 38.9735 36.5934C39.0019 36.5934 39.1435 37.0665 39.3134 37.6463ZM57.0318 38.9891C56.9044 39.2179 56.8902 39.1722 56.9469 38.7449C56.9893 38.4703 57.046 38.0125 57.0602 37.7531C57.0743 37.4632 57.1027 37.5547 57.131 37.9972C57.1593 38.394 57.1168 38.8517 57.0318 38.9891ZM40.5315 43.4446C41.7212 44.0245 42.2594 45.2299 41.792 46.2827C41.1689 47.7018 39.2851 47.5492 37.798 45.9471L37.0473 45.1383L37.3447 44.6806C37.9113 43.8261 38.8744 43.2005 39.6817 43.17C39.8375 43.17 40.2199 43.292 40.5315 43.4446Z" fill="#FFC904"/>
<path d="M16.0997 20.9685C12.4739 23.8524 8.29566 25.9123 4.72649 26.599C3.62174 26.8126 2.88525 26.8431 1.25646 26.7821C-0.967191 26.6905 -1.3496 26.6142 -4.64967 25.6224C-8.78538 24.3712 -11.0657 24.6611 -13.3177 26.7058C-14.0117 27.3314 -15.7679 29.4676 -15.7679 29.6965C-15.7679 29.8186 -15.5838 29.6202 -14.4932 28.2317C-12.6661 25.9123 -11.0657 25.0731 -8.5446 25.0884C-7.36904 25.0884 -6.76001 25.1799 -5.64111 25.5156C-2.18524 26.5532 -1.0805 26.8279 0.350004 26.9804C4.82563 27.4687 9.72616 25.8055 14.9666 22.0214C16.9212 20.6023 17.516 20.114 17.3036 20.1293C17.2327 20.1293 16.6804 20.5107 16.0997 20.9685Z" fill="#FFC904"/>
<path d="M34.158 71.9327C33.6056 73.2908 33.0816 75.1981 33.0108 76.1899C32.8691 77.8684 33.6764 78.8755 35.9567 79.8978C36.5233 80.1572 37.4722 80.4624 38.0529 80.5997C39.5542 80.9506 44.1007 81.1948 47.7548 81.1185C51.0832 81.0575 50.9699 81.1643 47.3299 81.4542C44.5681 81.6983 38.8177 81.5763 36.4949 81.2253C34.3421 80.9201 33.379 80.7065 33.379 80.5387C33.379 80.2182 32.4584 79.3027 31.9768 79.1501C31.5661 79.0128 31.3536 79.028 30.9429 79.2112C30.4472 79.44 30.0081 79.9893 30.2206 80.1267C30.2914 80.1724 30.9996 80.3556 31.821 80.5387C32.6425 80.737 33.3507 80.9659 33.4073 81.0575C33.5348 81.2558 33.5773 81.7899 33.9455 86.2607C34.7245 96.0568 34.9795 106.57 34.6395 115.176C34.4413 120.41 34.2855 122.622 34.073 123.37C33.8322 124.209 34.0588 125.048 34.7528 125.872C37.3447 128.97 49.8935 129.779 57.1451 127.307C58.7173 126.773 59.3971 126.162 59.9353 124.82L60.1336 124.316L60.8843 124.865C61.295 125.155 62.0457 125.552 62.5556 125.72C63.6461 126.086 65.4732 126.147 66.3089 125.827C66.8471 125.628 66.9037 125.628 67.7252 126.101C68.8016 126.727 70.0197 127.017 73.5322 127.475C77.0164 127.948 81.5203 128.115 83.8148 127.856C88.5595 127.322 92.6102 125.72 96.4485 122.851C97.4541 122.104 97.5391 122.058 97.5391 122.378C97.5533 123.401 98.8138 124.682 100.273 125.186C101.222 125.506 103.913 125.644 104.918 125.415C105.343 125.323 106.575 124.759 107.666 124.179C109.932 122.943 110.754 122.699 114.323 122.119C122.537 120.807 129.902 118.335 137.126 114.459C139.689 113.07 141.074 112.27 141.074 112.103C141.074 112.042 141.29 111.834 140.426 112.384C132.905 117.022 124.152 120.257 114.96 121.814C110.541 122.561 109.833 122.775 107.524 124.026C106.264 124.698 105.23 125.155 104.692 125.262C103.488 125.506 101.349 125.338 100.159 124.911C98.913 124.484 97.9073 123.507 97.7657 122.592C97.6666 121.997 97.6666 121.981 98.743 120.929C99.6495 120.028 99.7911 119.83 99.5928 119.708C99.0687 119.403 98.0207 120.272 97.6949 121.31C97.2983 122.577 92.2986 125.552 88.6445 126.696C85.5569 127.673 81.4778 128.039 77.4271 127.703C74.6086 127.459 70.3879 126.879 69.2123 126.544C68.32 126.3 67.2295 125.75 67.2295 125.552C67.2295 125.506 67.5127 125.247 67.8527 124.987C69.0141 124.102 69.6939 122.241 69.2123 121.264C68.9857 120.837 68.3201 120.517 67.6119 120.517C66.4788 120.517 65.5299 121.569 65.5299 122.805C65.5299 123.462 65.9831 124.575 66.4646 125.109L66.8187 125.506L66.1814 125.689C65.2749 125.933 63.7311 125.903 62.8247 125.613C61.5075 125.186 60.0203 124.209 60.2044 123.889C60.3319 123.675 60.8418 120.944 61.1392 118.838C62.1873 111.438 62.598 105.212 62.6122 96.6367C62.6264 87.3441 62.3148 82.5986 61.5641 80.737C61.2384 79.9283 60.6293 79.0586 60.2328 78.8297C60.0345 78.7229 60.1195 78.8755 60.4594 79.2874C61.6208 80.676 61.904 81.8051 62.2298 86.4133C62.5131 90.4569 62.5556 101.169 62.3006 104.876C61.8332 111.834 61.295 116.549 60.1903 123.385C60.1478 123.645 60.0628 123.874 59.992 123.874C59.5954 123.874 57.9666 120.852 57.5417 119.296L57.3151 118.472L57.8675 117.923C59.4396 116.397 60.8276 113.772 60.9551 112.079C61.1251 109.942 59.7795 108.31 57.2443 107.547L56.3945 107.287V102.038C56.4087 94.3478 57.0177 88.2901 58.4482 81.5457C58.8872 79.5011 59.0006 78.494 58.6465 79.852C57.9241 82.6139 56.961 88.8089 56.5361 93.3255C56.267 96.2399 55.9979 103.076 56.0687 105.41L56.1112 107.165H53.8451C51.2815 107.165 50.4317 107.348 47.9673 108.493C44.1998 110.217 41.2963 112.841 37.1606 118.289C36.4666 119.22 35.6026 120.44 35.2486 121.02C34.8945 121.585 34.5971 122.027 34.5829 122.012C34.5687 121.981 34.6112 121.035 34.6679 119.906C34.7245 118.777 34.8237 114.413 34.8803 110.217C35.0078 100.467 34.767 93.6459 33.9597 84.2771C33.8039 82.5223 33.7048 81.0575 33.7331 81.0269C33.7472 80.9964 34.4271 81.088 35.2344 81.21C38.0812 81.6525 39.9933 81.8051 43.0101 81.8051C46.4093 81.8204 48.9304 81.6068 51.8622 81.0727C54.1425 80.6607 58.2924 79.5468 58.519 79.2874C58.6181 79.1654 58.5898 79.1501 58.3915 79.2264C57.1735 79.6842 51.8056 81.0117 51.239 80.9812C51.1116 80.9812 51.3948 80.8591 51.8622 80.7065C53.0094 80.3556 53.5477 80.0199 54.3833 79.1806C55.2897 78.2804 55.7571 77.2275 55.7571 76.0831C55.7571 74.954 55.3747 74.4352 54.4683 74.2978L53.8451 74.2063L54.6949 73.4739C55.9413 72.421 56.3803 72.2226 57.5276 72.2226C58.0799 72.2226 58.6465 72.2684 58.8023 72.3447C58.9581 72.4057 58.8306 72.3142 58.519 72.1463C57.4709 71.5665 56.1254 72.009 54.4541 73.4586L53.4627 74.3131L48.7038 74.2368C44.6672 74.1758 43.6758 74.1147 42.3161 73.8401C40.3191 73.4433 38.0388 72.6346 36.6507 71.8259C36.0842 71.4902 35.5743 71.2461 35.546 71.2919C35.4185 71.4139 37.2881 72.421 38.6194 72.9551C41.5513 74.1147 44.1998 74.4962 49.3553 74.4962C51.4656 74.4962 53.2077 74.5115 53.2077 74.542C53.2077 74.6946 51.6356 75.3965 50.8424 75.5948C49.4119 75.961 43.0526 75.8084 41.2397 75.3812C38.7611 74.8014 36.7782 73.7027 35.5035 72.2074C35.1211 71.7344 34.7953 71.2919 34.7953 71.2156C34.7953 70.8188 34.4696 71.185 34.158 71.9327ZM36.7782 73.6264C39.0302 75.2591 41.2822 75.8542 45.9136 76.0373C49.6386 76.2052 51.6214 75.8542 53.0803 74.8166C53.8734 74.2673 54.6524 74.2978 55.2189 74.8929C55.6155 75.3354 55.6438 75.427 55.5872 76.2357C55.4314 78.3719 53.9017 79.9893 51.409 80.6455C50.6017 80.8438 49.681 80.8896 45.7011 80.8591C43.0951 80.8438 40.4182 80.7675 39.7525 80.676C36.0842 80.2182 33.4073 78.7076 33.1665 76.9834C33.0532 76.1747 33.3932 74.5725 34.0872 72.6194L34.5404 71.3529L35.3477 72.2532C35.7868 72.7567 36.4241 73.3823 36.7782 73.6264ZM32.3734 79.5316C32.7416 79.7452 33.3223 80.4929 33.209 80.615C33.1666 80.6607 30.9712 80.1877 30.4897 80.0351C30.4047 80.0046 30.4897 79.8368 30.6596 79.6537C31.0279 79.2569 31.7785 79.2112 32.3734 79.5316ZM56.0687 107.486C56.1395 107.531 56.182 108.081 56.182 108.706C56.182 110.949 56.5645 115.512 56.9752 117.999C57.046 118.426 56.9752 118.502 56.1962 119.052C55.0348 119.845 53.0944 120.608 51.6498 120.837C50.8566 120.959 49.7519 120.99 48.3355 120.913C41.2822 120.593 40.5457 120.608 38.3928 121.219C37.4014 121.493 35.3477 122.546 35.0078 122.973C34.6962 123.324 34.5121 123.355 34.5121 123.034C34.5121 121.814 39.7242 115.008 42.7976 112.185C45.4462 109.774 49.1995 107.821 52.0747 107.394C52.9528 107.272 55.8421 107.333 56.0687 107.486ZM57.5701 107.913C58.5332 108.264 59.5671 108.92 60.0345 109.485C60.771 110.354 60.9409 112.079 60.4311 113.559C60.0345 114.703 59.1422 116.122 58.1224 117.282L57.2443 118.258L57.0743 117.282C56.9894 116.748 56.8194 115.008 56.6919 113.421C56.3378 108.691 56.2953 107.547 56.437 107.547C56.522 107.547 57.0177 107.715 57.5701 107.913ZM58.3774 121.966C58.604 122.378 59.0572 123.05 59.3971 123.431L60.0203 124.148L59.7937 124.728C59.1988 126.254 58.4199 126.803 55.7288 127.536C53.0094 128.268 50.7291 128.527 46.905 128.527C43.4208 128.512 41.9337 128.375 39.4693 127.81C37.883 127.444 36.0984 126.773 35.4893 126.3C34.8803 125.842 34.2288 124.82 34.243 124.347C34.2571 123.507 36.4241 122.042 38.577 121.402C39.7667 121.051 41.962 120.99 48.7463 121.112C51.4515 121.173 51.8197 121.142 52.8536 120.837C54.0717 120.486 55.6863 119.723 56.5503 119.082L57.0885 118.701L57.5276 119.952C57.7683 120.654 58.1507 121.554 58.3774 121.966ZM99.1679 120.15C99.1679 120.364 97.9782 121.493 97.8649 121.386C97.7516 121.264 98.2048 120.517 98.5872 120.181C98.8988 119.906 99.1679 119.891 99.1679 120.15ZM68.6033 120.974C69.1132 121.31 69.2832 121.798 69.1557 122.546C69.0282 123.294 68.32 124.408 67.6402 124.942L67.0312 125.399L66.578 124.926C66.1106 124.438 65.6715 123.355 65.6715 122.744C65.6715 122.561 65.799 122.149 65.9406 121.798C66.3797 120.745 67.6544 120.349 68.6033 120.974Z" fill="#FFC904"/>
<path d="M49.5153 5.61816C49.1328 5.9386 48.7504 6.16748 48.6655 6.1217C48.5946 6.06067 48.5663 6.09118 48.623 6.15222C48.6938 6.22851 48.0848 7.00671 47.2774 7.89172C46.4843 8.77673 45.5354 9.92113 45.1813 10.4247C43.3542 12.9881 41.5838 16.4214 40.8898 18.6797C40.6773 19.3663 40.4365 20.0224 40.3374 20.1445C40.0116 20.587 38.1704 21.823 36.7682 22.5554C34.063 23.9592 31.1595 24.8289 28.0861 25.1494C24.5452 25.5308 21.5709 24.5848 19.6305 22.4791C19.1631 21.9603 18.6249 21.2279 18.4267 20.8311L18.0726 20.114L19.3048 18.8933C20.5936 17.6115 21.401 16.2383 21.401 15.3685C21.401 14.8345 20.8061 14.0563 20.2821 13.9342C19.4322 13.7358 18.2 14.7276 17.8176 15.9178C17.2794 17.5353 17.4069 18.8933 18.2142 20.6786C19.8572 24.2796 23.922 26.0039 28.9642 25.2409C32.76 24.6611 35.8618 23.5014 38.9494 21.5025C39.6009 21.0753 40.1533 20.7243 40.1816 20.7243C40.1958 20.7243 40.0966 21.1668 39.955 21.7162C39.5867 23.1047 39.006 26.9346 38.8927 28.6589C38.7936 30.2 38.9919 33.3128 39.3035 35.2201C39.4734 36.273 39.4734 36.3646 39.2185 36.5934C38.3687 37.3564 38.8644 39.0348 39.955 39.0348C40.2383 39.0348 40.2666 38.9738 40.1816 38.3787C40.1391 38.0278 40.04 37.4784 39.955 37.1428C39.8417 36.7613 39.8417 36.5019 39.9267 36.4103C40.2241 36.0899 41.4421 36.273 42.8585 36.8223C44.1473 37.3411 44.374 37.3869 45.422 37.3259C48.3255 37.1733 50.8183 34.7319 51.9089 31.0087C52.5037 28.9183 52.6029 27.5297 52.5179 22.3265C52.4046 15.9026 52.1213 13.5832 51.0024 9.55492C50.3226 7.11352 50.2659 6.09118 50.79 5.54187C51.2007 5.08411 51.3565 5.06885 51.9655 5.46558C52.3054 5.69446 52.5745 6.09118 52.9145 6.88464C54.8973 11.5691 55.9738 17.0927 56.1862 23.8524C56.2995 27.4534 56.0304 36.273 55.7613 37.3564C55.3647 38.9585 54.6282 39.3248 50.6625 39.8741C46.6259 40.4386 42.7168 40.3318 38.8361 39.5536C37.788 39.34 36.839 39.2179 36.7257 39.2637C36.5558 39.3248 36.5274 39.6757 36.5841 41.2168C36.6408 42.758 36.7116 43.2463 37.009 44.0245L37.3631 44.9705L37.1081 45.7792C36.7541 46.8778 36.7541 48.8615 37.1223 50.5094C37.9155 54.1563 38.1704 58.7949 37.7738 62.5028C37.5755 64.2881 37.0232 67.1262 36.485 69.0183C36.4 69.3082 36.4708 69.3235 37.7172 69.3387C39.2185 69.354 40.4082 69.7355 43.6516 71.2766C45.8469 72.3295 46.895 72.6194 48.368 72.6194C50.9458 72.6346 52.5604 71.185 53.2827 68.2401C53.5377 67.1567 53.5943 66.1954 53.7643 59.0238C53.8776 54.614 53.9909 50.0822 54.0334 48.953C54.1184 46.6947 54.4724 44.8179 55.0248 43.643C55.3081 43.0479 56.7386 40.7743 57.0643 40.3776C57.121 40.3166 57.1352 44.5738 57.121 49.838C57.0643 60.5192 57.1918 64.5475 57.6592 66.3175C57.9991 67.6603 58.5798 68.9267 59.5288 70.4221C61.3983 73.4281 61.9224 75.5948 61.1434 77.2275C60.9593 77.6242 60.8743 77.9447 60.9451 77.9447C61.0159 77.9447 61.2 77.6242 61.37 77.2275C61.6108 76.6477 61.6533 76.2967 61.5966 75.2744C61.5258 73.779 61.0442 72.5583 59.6421 70.3153C57.3193 66.5922 57.1493 65.1121 57.2768 49.1819C57.3476 40.9269 57.3759 39.813 57.5884 39.279C57.8717 38.5618 57.9 37.5242 57.645 37.0207L57.4609 36.6697L57.3618 37.0512C57.3051 37.2648 57.2626 37.9515 57.2485 38.5923C57.2343 39.6757 57.1918 39.8283 56.7527 40.4997C53.8493 44.9247 53.9342 44.4517 53.6226 57.4216C53.396 67.5229 53.3535 68.0723 52.5604 69.8118C51.7672 71.5513 50.3367 72.4515 48.3963 72.4515C46.98 72.4515 45.6345 72.0395 43.1984 70.8799C40.6632 69.6592 39.5301 69.2777 37.9721 69.0793C37.3206 69.003 36.7682 68.9115 36.7399 68.8962C36.7257 68.8657 36.839 68.4079 36.9807 67.8586C37.6464 65.5698 38.0004 62.8843 38.0713 59.6799C38.1562 56.1704 38.0146 54.2631 37.3914 51.013C36.924 48.6021 36.8815 47.244 37.2073 46.0691L37.4197 45.2757L38.1704 46.0996C39.3601 47.3966 40.8331 47.7934 41.8104 47.0762C42.4477 46.6184 42.6743 46.1149 42.6035 45.3367C42.5186 44.4975 41.9803 43.7345 41.1872 43.3225C40.0541 42.7275 39.091 43.0021 38.0146 44.1923L37.4197 44.8484L37.1223 43.8108C36.9523 43.2463 36.7824 42.1934 36.7399 41.4762C36.6691 40.225 36.6691 40.1792 36.9948 40.0267C37.179 39.9351 37.3206 39.7825 37.2923 39.6757C37.2498 39.4468 37.1365 39.4316 39.006 39.7978C41.3996 40.2403 43.2551 40.4081 46.1019 40.4081C48.8779 40.4081 50.1951 40.2861 52.6312 39.7825C54.9257 39.3095 55.5489 38.8975 55.8888 37.5853C56.4128 35.6016 56.6253 23.3183 56.1862 19.5036C55.5913 14.2546 54.6566 10.2873 53.2402 7.03723C52.787 5.98437 51.8805 5.00781 51.3707 5.00781C51.1724 5.00781 50.8325 5.17566 50.62 5.37402C50.2518 5.70972 50.2234 5.83179 50.2234 6.79309C50.2234 7.55602 50.3651 8.31896 50.7475 9.66173C51.8805 13.6443 52.1355 15.8873 52.2346 22.357C52.3196 27.8349 52.2346 29.0556 51.6256 31.1003C50.705 34.2131 48.5097 36.5324 45.9886 37.0359C44.9405 37.2496 44.3173 37.1428 42.7168 36.4714C41.6546 36.0289 41.3147 35.9678 40.5782 36.0136L39.7142 36.0746L39.5584 35.1439C38.8644 31.0087 39.0769 26.3701 40.1674 21.945C40.4649 20.7549 40.6065 20.4192 40.9889 20.0682C41.2297 19.8241 42.037 19.0611 42.7593 18.3897C45.762 15.5364 48.2406 11.6606 49.5577 7.75439C50.011 6.3811 50.3367 5.1604 50.2659 5.08411C50.2376 5.06885 49.9118 5.29773 49.5153 5.61816ZM49.4303 7.38818C48.2689 10.9282 46.3852 14.102 43.7224 16.9859C42.7027 18.0998 41.5979 19.2137 41.2863 19.4731L40.6915 19.9614L41.0314 19.0764C41.2155 18.6034 41.3713 18.1151 41.3713 18.0083C41.3713 17.9015 41.7537 17.0165 42.207 16.0246C43.1417 14.0105 44.5864 11.5996 45.8611 9.89061C47.2775 7.99853 49.5719 5.74023 49.841 5.99963C49.8552 6.01489 49.6711 6.6405 49.4303 7.38818ZM20.8061 14.514C21.2168 14.9107 21.2168 15.811 20.8344 16.696C20.537 17.3369 19.1773 18.9238 18.4267 19.5036L18.0159 19.8241L17.8743 19.2442C17.0811 16.2077 19.149 12.8813 20.8061 14.514ZM39.7992 37.6463C40.1533 38.9128 40.1533 38.8823 39.8842 38.8823C39.5301 38.8823 38.9635 38.1651 38.9635 37.7378C38.9635 37.4174 39.3176 36.5934 39.4593 36.5934C39.4876 36.5934 39.6292 37.0665 39.7992 37.6463ZM57.5176 38.9891C57.3901 39.2179 57.3759 39.1722 57.4326 38.7449C57.4751 38.4703 57.5317 38.0125 57.5459 37.7531C57.5601 37.4632 57.5884 37.5547 57.6167 37.9972C57.645 38.394 57.6025 38.8517 57.5176 38.9891ZM41.0172 43.4446C42.207 44.0245 42.7452 45.2299 42.2778 46.2827C41.6546 47.7018 39.7709 47.5492 38.2837 45.9471L37.533 45.1383L37.8305 44.6806C38.397 43.8261 39.3601 43.2005 40.1674 43.17C40.3232 43.17 40.7056 43.292 41.0172 43.4446Z" fill="#FFC904"/>
<path d="M16.5854 20.9685C12.9596 23.8524 8.78139 25.9123 5.21222 26.599C4.10748 26.8126 3.37098 26.8431 1.74219 26.7821C-0.481461 26.6905 -0.863871 26.6142 -4.16394 25.6224C-8.29964 24.3712 -10.5799 24.6611 -12.8319 26.7058C-13.5259 27.3314 -15.2822 29.4676 -15.2822 29.6965C-15.2822 29.8186 -15.0981 29.6202 -14.0075 28.2317C-12.1804 25.9123 -10.5799 25.0731 -8.05887 25.0884C-6.88331 25.0884 -6.27428 25.1799 -5.15537 25.5156C-1.69951 26.5532 -0.594766 26.8279 0.835735 26.9804C5.31136 27.4687 10.2119 25.8055 15.4523 22.0214C17.4069 20.6023 18.0017 20.114 17.7893 20.1293C17.7185 20.1293 17.1661 20.5107 16.5854 20.9685Z" fill="#FFC904"/>
<path d="M34.6437 71.9327C34.0913 73.2908 33.5673 75.1981 33.4965 76.1899C33.3549 77.8684 34.1622 78.8755 36.4425 79.8978C37.009 80.1572 37.9579 80.4624 38.5386 80.5997C40.04 80.9506 44.5864 81.1948 48.2406 81.1185C51.569 81.0575 51.4557 81.1643 47.8157 81.4542C45.0538 81.6983 39.3035 81.5763 36.9807 81.2253C34.8278 80.9201 33.8647 80.7065 33.8647 80.5387C33.8647 80.2182 32.9441 79.3027 32.4626 79.1501C32.0518 79.0128 31.8394 79.028 31.4286 79.2112C30.9329 79.44 30.4938 79.9893 30.7063 80.1267C30.7771 80.1724 31.4853 80.3556 32.3068 80.5387C33.1282 80.737 33.8364 80.9659 33.8931 81.0575C34.0205 81.2558 34.063 81.7899 34.4313 86.2607C35.2103 96.0568 35.4652 106.57 35.1253 115.176C34.927 120.41 34.7712 122.622 34.5587 123.37C34.318 124.209 34.5446 125.048 35.2386 125.872C37.8305 128.97 50.3792 129.779 57.6309 127.307C59.203 126.773 59.8829 126.162 60.4211 124.82L60.6194 124.316L61.37 124.865C61.7807 125.155 62.5314 125.552 63.0413 125.72C64.1319 126.086 65.9589 126.147 66.7946 125.827C67.3328 125.628 67.3894 125.628 68.2109 126.101C69.2873 126.727 70.5054 127.017 74.0179 127.475C77.5021 127.948 82.0061 128.115 84.3005 127.856C89.0452 127.322 93.096 125.72 96.9342 122.851C97.9398 122.104 98.0248 122.058 98.0248 122.378C98.039 123.401 99.2995 124.682 100.758 125.186C101.707 125.506 104.398 125.644 105.404 125.415C105.829 125.323 107.061 124.759 108.152 124.179C110.418 122.943 111.239 122.699 114.808 122.119C123.023 120.807 130.388 118.335 137.611 114.459C140.175 113.07 141.56 112.27 141.56 112.103C141.56 112.042 141.775 111.834 140.912 112.384C133.391 117.022 124.638 120.257 115.446 121.814C111.027 122.561 110.319 122.775 108.01 124.026C106.749 124.698 105.716 125.155 105.177 125.262C103.973 125.506 101.835 125.338 100.645 124.911C99.3987 124.484 98.3931 123.507 98.2514 122.592C98.1523 121.997 98.1523 121.981 99.2287 120.929C100.135 120.028 100.277 119.83 100.079 119.708C99.5545 119.403 98.5064 120.272 98.1806 121.31C97.7841 122.577 92.7844 125.552 89.1302 126.696C86.0426 127.673 81.9636 128.039 77.9128 127.703C75.0943 127.459 70.8736 126.879 69.6981 126.544C68.8058 126.3 67.7152 125.75 67.7152 125.552C67.7152 125.506 67.9985 125.247 68.3384 124.987C69.4998 124.102 70.1796 122.241 69.6981 121.264C69.4715 120.837 68.8058 120.517 68.0976 120.517C66.9645 120.517 66.0156 121.569 66.0156 122.805C66.0156 123.462 66.4688 124.575 66.9504 125.109L67.3045 125.506L66.6671 125.689C65.7607 125.933 64.2168 125.903 63.3104 125.613C61.9932 125.186 60.506 124.209 60.6902 123.889C60.8176 123.675 61.3275 120.944 61.625 118.838C62.673 111.438 63.0838 105.212 63.0979 96.6367C63.1121 87.3441 62.8005 82.5986 62.0499 80.737C61.7241 79.9283 61.1151 79.0586 60.7185 78.8297C60.5202 78.7229 60.6052 78.8755 60.9451 79.2874C62.1065 80.676 62.3898 81.8051 62.7155 86.4133C62.9988 90.4569 63.0413 101.169 62.7863 104.876C62.319 111.834 61.7807 116.549 60.676 123.385C60.6335 123.645 60.5485 123.874 60.4777 123.874C60.0811 123.874 58.4524 120.852 58.0275 119.296L57.8008 118.472L58.3532 117.923C59.9253 116.397 61.3134 113.772 61.4408 112.079C61.6108 109.942 60.2653 108.31 57.73 107.547L56.8802 107.287V102.038C56.8944 94.3478 57.5034 88.2901 58.9339 81.5457C59.373 79.5011 59.4863 78.494 59.1322 79.852C58.4099 82.6139 57.4467 88.8089 57.0219 93.3255C56.7527 96.2399 56.4836 103.076 56.5545 105.41L56.597 107.165H54.3308C51.7672 107.165 50.9174 107.348 48.453 108.493C44.6856 110.217 41.7821 112.841 37.6464 118.289C36.9524 119.22 36.0884 120.44 35.7343 121.02C35.3802 121.585 35.0828 122.027 35.0686 122.012C35.0545 121.981 35.0969 121.035 35.1536 119.906C35.2103 118.777 35.3094 114.413 35.3661 110.217C35.4935 100.467 35.2527 93.6459 34.4454 84.2771C34.2896 82.5223 34.1905 81.0575 34.2188 81.0269C34.233 80.9964 34.9128 81.088 35.7201 81.21C38.567 81.6525 40.479 81.8051 43.4958 81.8051C46.895 81.8204 49.4161 81.6068 52.3479 81.0727C54.6282 80.6607 58.7781 79.5468 59.0047 79.2874C59.1039 79.1654 59.0755 79.1501 58.8773 79.2264C57.6592 79.6842 52.2913 81.0117 51.7248 80.9812C51.5973 80.9812 51.8806 80.8591 52.3479 80.7065C53.4952 80.3556 54.0334 80.0199 54.869 79.1806C55.7755 78.2804 56.2429 77.2275 56.2429 76.0831C56.2429 74.954 55.8605 74.4352 54.954 74.2978L54.3308 74.2063L55.1806 73.4739C56.427 72.421 56.8661 72.2226 58.0133 72.2226C58.5657 72.2226 59.1322 72.2684 59.288 72.3447C59.4438 72.4057 59.3163 72.3142 59.0047 72.1463C57.9566 71.5665 56.6111 72.009 54.9398 73.4586L53.9484 74.3131L49.1895 74.2368C45.1529 74.1758 44.1615 74.1147 42.8018 73.8401C40.8048 73.4433 38.5245 72.6346 37.1365 71.8259C36.5699 71.4902 36.0601 71.2461 36.0317 71.2919C35.9043 71.4139 37.7738 72.421 39.1052 72.9551C42.037 74.1147 44.6856 74.4962 49.841 74.4962C51.9514 74.4962 53.6935 74.5115 53.6935 74.542C53.6935 74.6946 52.1213 75.3965 51.3282 75.5948C49.8977 75.961 43.5383 75.8084 41.7254 75.3812C39.2468 74.8014 37.2639 73.7027 35.9892 72.2074C35.6068 71.7344 35.2811 71.2919 35.2811 71.2156C35.2811 70.8188 34.9553 71.185 34.6437 71.9327ZM37.2639 73.6264C39.5159 75.2591 41.7679 75.8542 46.3993 76.0373C50.1243 76.2052 52.1072 75.8542 53.566 74.8166C54.3591 74.2673 55.1381 74.2978 55.7047 74.8929C56.1012 75.3354 56.1296 75.427 56.0729 76.2357C55.9171 78.3719 54.3875 79.9893 51.8947 80.6455C51.0874 80.8438 50.1668 80.8896 46.1869 80.8591C43.5808 80.8438 40.9039 80.7675 40.2383 80.676C36.5699 80.2182 33.8931 78.7076 33.6523 76.9834C33.539 76.1747 33.8789 74.5725 34.5729 72.6194L35.0261 71.3529L35.8334 72.2532C36.2725 72.7567 36.9099 73.3823 37.2639 73.6264ZM32.8591 79.5316C33.2274 79.7452 33.8081 80.4929 33.6948 80.615C33.6523 80.6607 31.457 80.1877 30.9754 80.0351C30.8904 80.0046 30.9754 79.8368 31.1454 79.6537C31.5136 79.2569 32.2643 79.2112 32.8591 79.5316ZM56.5545 107.486C56.6253 107.531 56.6678 108.081 56.6678 108.706C56.6678 110.949 57.0502 115.512 57.4609 117.999C57.5317 118.426 57.4609 118.502 56.6819 119.052C55.5205 119.845 53.5802 120.608 52.1355 120.837C51.3423 120.959 50.2376 120.99 48.8213 120.913C41.7679 120.593 41.0314 120.608 38.8786 121.219C37.8871 121.493 35.8334 122.546 35.4935 122.973C35.1819 123.324 34.9978 123.355 34.9978 123.034C34.9978 121.814 40.2099 115.008 43.2834 112.185C45.9319 109.774 49.6852 107.821 52.5604 107.394C53.4385 107.272 56.3278 107.333 56.5545 107.486ZM58.0558 107.913C59.0189 108.264 60.0528 108.92 60.5202 109.485C61.2567 110.354 61.4267 112.079 60.9168 113.559C60.5202 114.703 59.6279 116.122 58.6082 117.282L57.73 118.258L57.5601 117.282C57.4751 116.748 57.3051 115.008 57.1777 113.421C56.8236 108.691 56.7811 107.547 56.9227 107.547C57.0077 107.547 57.5034 107.715 58.0558 107.913ZM58.8631 121.966C59.0897 122.378 59.5429 123.05 59.8829 123.431L60.506 124.148L60.2794 124.728C59.6846 126.254 58.9056 126.803 56.2145 127.536C53.4952 128.268 51.2149 128.527 47.3908 128.527C43.9066 128.512 42.4194 128.375 39.955 127.81C38.3687 127.444 36.5841 126.773 35.9751 126.3C35.3661 125.842 34.7145 124.82 34.7287 124.347C34.7429 123.507 36.9099 122.042 39.0627 121.402C40.2524 121.051 42.4477 120.99 49.232 121.112C51.9372 121.173 52.3055 121.142 53.3394 120.837C54.5574 120.486 56.1721 119.723 57.036 119.082L57.5742 118.701L58.0133 119.952C58.2541 120.654 58.6365 121.554 58.8631 121.966ZM99.6536 120.15C99.6536 120.364 98.4639 121.493 98.3506 121.386C98.2373 121.264 98.6905 120.517 99.0729 120.181C99.3845 119.906 99.6536 119.891 99.6536 120.15ZM69.0891 120.974C69.5989 121.31 69.7689 121.798 69.6414 122.546C69.514 123.294 68.8058 124.408 68.1259 124.942L67.5169 125.399L67.0637 124.926C66.5963 124.438 66.1572 123.355 66.1572 122.744C66.1572 122.561 66.2847 122.149 66.4263 121.798C66.8654 120.745 68.1401 120.349 69.0891 120.974Z" fill="#FFC904"/>
<path d="M49.8349 5.61816C49.4525 5.9386 49.0701 6.16748 48.9851 6.1217C48.9143 6.06067 48.886 6.09118 48.9426 6.15222C49.0134 6.22851 48.4044 7.00671 47.5971 7.89172C46.8039 8.77673 45.855 9.92113 45.5009 10.4247C43.6738 12.9881 41.9034 16.4214 41.2094 18.6797C40.997 19.3663 40.7562 20.0224 40.657 20.1445C40.3313 20.587 38.4901 21.823 37.0879 22.5554C34.3827 23.9592 31.4792 24.8289 28.4057 25.1494C24.8649 25.5308 21.8906 24.5848 19.9502 22.4791C19.4828 21.9603 18.9446 21.2279 18.7463 20.8311L18.3922 20.114L19.6244 18.8933C20.9133 17.6115 21.7206 16.2383 21.7206 15.3685C21.7206 14.8345 21.1257 14.0563 20.6017 13.9342C19.7519 13.7358 18.5197 14.7276 18.1373 15.9178C17.5991 17.5353 17.7265 18.8933 18.5339 20.6786C20.1768 24.2796 24.2417 26.0039 29.2839 25.2409C33.0796 24.6611 36.1814 23.5014 39.269 21.5025C39.9206 21.0753 40.4729 20.7243 40.5012 20.7243C40.5154 20.7243 40.4163 21.1668 40.2746 21.7162C39.9064 23.1047 39.3257 26.9346 39.2124 28.6589C39.1132 30.2 39.3115 33.3128 39.6231 35.2201C39.7931 36.273 39.7931 36.3646 39.5381 36.5934C38.6883 37.3564 39.1841 39.0348 40.2746 39.0348C40.5579 39.0348 40.5862 38.9738 40.5012 38.3787C40.4588 38.0278 40.3596 37.4784 40.2746 37.1428C40.1613 36.7613 40.1613 36.5019 40.2463 36.4103C40.5437 36.0899 41.7618 36.273 43.1781 36.8223C44.467 37.3411 44.6936 37.3869 45.7417 37.3259C48.6452 37.1733 51.1379 34.7319 52.2285 31.0087C52.8234 28.9183 52.9225 27.5297 52.8375 22.3265C52.7242 15.9026 52.441 13.5832 51.3221 9.55492C50.6422 7.11352 50.5856 6.09118 51.1096 5.54187C51.5204 5.08411 51.6761 5.06885 52.2852 5.46558C52.6251 5.69446 52.8942 6.09118 53.2341 6.88464C55.217 11.5691 56.2934 17.0927 56.5059 23.8524C56.6192 27.4534 56.3501 36.273 56.081 37.3564C55.6844 38.9585 54.9479 39.3248 50.9821 39.8741C46.9456 40.4386 43.0365 40.3318 39.1557 39.5536C38.1076 39.34 37.1587 39.2179 37.0454 39.2637C36.8754 39.3248 36.8471 39.6757 36.9038 41.2168C36.9604 42.758 37.0312 43.2463 37.3287 44.0245L37.6827 44.9705L37.4278 45.7792C37.0737 46.8778 37.0737 48.8615 37.442 50.5094C38.2351 54.1563 38.49 58.7949 38.0935 62.5028C37.8952 64.2881 37.3428 67.1262 36.8046 69.0183C36.7196 69.3082 36.7904 69.3235 38.0368 69.3387C39.5381 69.354 40.7279 69.7355 43.9713 71.2766C46.1666 72.3295 47.2147 72.6194 48.6877 72.6194C51.2654 72.6346 52.88 71.185 53.6024 68.2401C53.8573 67.1567 53.914 66.1954 54.0839 59.0238C54.1972 54.614 54.3105 50.0822 54.353 48.953C54.438 46.6947 54.7921 44.8179 55.3445 43.643C55.6277 43.0479 57.0582 40.7743 57.384 40.3776C57.4406 40.3166 57.4548 44.5738 57.4407 49.838C57.384 60.5192 57.5115 64.5475 57.9789 66.3175C58.3188 67.6603 58.8995 68.9267 59.8484 70.4221C61.718 73.4281 62.242 75.5948 61.463 77.2275C61.2789 77.6242 61.1939 77.9447 61.2648 77.9447C61.3356 77.9447 61.5197 77.6242 61.6897 77.2275C61.9304 76.6477 61.9729 76.2967 61.9163 75.2744C61.8455 73.779 61.3639 72.5583 59.9617 70.3153C57.6389 66.5922 57.469 65.1121 57.5964 49.1819C57.6673 40.9269 57.6956 39.813 57.908 39.279C58.1913 38.5618 58.2196 37.5242 57.9647 37.0207L57.7806 36.6697L57.6814 37.0512C57.6248 37.2648 57.5823 37.9515 57.5681 38.5923C57.5539 39.6757 57.5115 39.8283 57.0724 40.4997C54.1689 44.9247 54.2539 44.4517 53.9423 57.4216C53.7157 67.5229 53.6732 68.0723 52.88 69.8118C52.0869 71.5513 50.6564 72.4515 48.716 72.4515C47.2997 72.4515 45.9542 72.0395 43.5181 70.8799C40.9828 69.6592 39.8497 69.2777 38.2918 69.0793C37.6402 69.003 37.0879 68.9115 37.0595 68.8962C37.0454 68.8657 37.1587 68.4079 37.3003 67.8586C37.966 65.5698 38.3201 62.8843 38.3909 59.6799C38.4759 56.1704 38.3342 54.2631 37.7111 51.013C37.2437 48.6021 37.2012 47.244 37.5269 46.0691L37.7394 45.2757L38.4901 46.0996C39.6798 47.3966 41.1528 47.7934 42.13 47.0762C42.7674 46.6184 42.994 46.1149 42.9232 45.3367C42.8382 44.4975 42.3 43.7345 41.5068 43.3225C40.3738 42.7275 39.4107 43.0021 38.3343 44.1923L37.7394 44.8484L37.442 43.8108C37.272 43.2463 37.102 42.1934 37.0595 41.4762C36.9887 40.225 36.9887 40.1792 37.3145 40.0267C37.4986 39.9351 37.6402 39.7825 37.6119 39.6757C37.5694 39.4468 37.4561 39.4316 39.3257 39.7978C41.7193 40.2403 43.5747 40.4081 46.4215 40.4081C49.1976 40.4081 50.5148 40.2861 52.9509 39.7825C55.2453 39.3095 55.8685 38.8975 56.2084 37.5853C56.7325 35.6016 56.9449 23.3183 56.5059 19.5036C55.911 14.2546 54.9762 10.2873 53.5599 7.03723C53.1067 5.98437 52.2002 5.00781 51.6903 5.00781C51.492 5.00781 51.1521 5.17566 50.9397 5.37402C50.5714 5.70972 50.5431 5.83179 50.5431 6.79309C50.5431 7.55602 50.6847 8.31896 51.0671 9.66173C52.2002 13.6443 52.4551 15.8873 52.5543 22.357C52.6393 27.8349 52.5543 29.0556 51.9453 31.1003C51.0246 34.2131 48.8293 36.5324 46.3082 37.0359C45.2601 37.2496 44.637 37.1428 43.0365 36.4714C41.9742 36.0289 41.6343 35.9678 40.8978 36.0136L40.0339 36.0746L39.8781 35.1439C39.1841 31.0087 39.3965 26.3701 40.4871 21.945C40.7845 20.7549 40.9261 20.4192 41.3086 20.0682C41.5493 19.8241 42.3567 19.0611 43.079 18.3897C46.0816 15.5364 48.5602 11.6606 49.8774 7.75439C50.3306 6.3811 50.6564 5.1604 50.5856 5.08411C50.5572 5.06885 50.2315 5.29773 49.8349 5.61816ZM49.7499 7.38818C48.5885 10.9282 46.7048 14.102 44.0421 16.9859C43.0223 18.0998 41.9176 19.2137 41.606 19.4731L41.0111 19.9614L41.351 19.0764C41.5352 18.6034 41.691 18.1151 41.691 18.0083C41.691 17.9015 42.0734 17.0165 42.5266 16.0246C43.4614 14.0105 44.9061 11.5996 46.1808 9.89061C47.5971 7.99853 49.8916 5.74023 50.1607 5.99963C50.1748 6.01489 49.9907 6.6405 49.7499 7.38818ZM21.1258 14.514C21.5365 14.9107 21.5365 15.811 21.1541 16.696C20.8566 17.3369 19.497 18.9238 18.7463 19.5036L18.3356 19.8241L18.1939 19.2442C17.4008 16.2077 19.4686 12.8813 21.1258 14.514ZM40.1188 37.6463C40.4729 38.9128 40.4729 38.8823 40.2038 38.8823C39.8497 38.8823 39.2832 38.1651 39.2832 37.7378C39.2832 37.4174 39.6373 36.5934 39.7789 36.5934C39.8072 36.5934 39.9489 37.0665 40.1188 37.6463ZM57.8372 38.9891C57.7097 39.2179 57.6956 39.1722 57.7522 38.7449C57.7947 38.4703 57.8514 38.0125 57.8655 37.7531C57.8797 37.4632 57.908 37.5547 57.9364 37.9972C57.9647 38.394 57.9222 38.8517 57.8372 38.9891ZM41.3369 43.4446C42.5266 44.0245 43.0648 45.2299 42.5974 46.2827C41.9742 47.7018 40.0905 47.5492 38.6034 45.9471L37.8527 45.1383L38.1501 44.6806C38.7167 43.8261 39.6798 43.2005 40.4871 43.17C40.6429 43.17 41.0253 43.292 41.3369 43.4446Z" fill="#FFC904"/>
<path d="M16.9051 20.9685C13.2792 23.8524 9.10104 25.9123 5.53187 26.599C4.42713 26.8126 3.69063 26.8431 2.06184 26.7821C-0.161806 26.6905 -0.544218 26.6142 -3.84429 25.6224C-7.97999 24.3712 -10.2603 24.6611 -12.5123 26.7058C-13.2063 27.3314 -14.9625 29.4676 -14.9625 29.6965C-14.9625 29.8186 -14.7784 29.6202 -13.6878 28.2317C-11.8608 25.9123 -10.2603 25.0731 -7.73921 25.0884C-6.56365 25.0884 -5.95463 25.1799 -4.83572 25.5156C-1.37986 26.5532 -0.275114 26.8279 1.15539 26.9804C5.63101 27.4687 10.5315 25.8055 15.772 22.0214C17.7265 20.6023 18.3214 20.114 18.1089 20.1293C18.0381 20.1293 17.4858 20.5107 16.9051 20.9685Z" fill="#FFC904"/>
<path d="M34.9634 71.9327C34.411 73.2908 33.887 75.1981 33.8161 76.1899C33.6745 77.8684 34.4818 78.8755 36.7621 79.8978C37.3287 80.1572 38.2776 80.4624 38.8583 80.5997C40.3596 80.9506 44.9061 81.1948 48.5602 81.1185C51.8886 81.0575 51.7753 81.1643 48.1353 81.4542C45.3735 81.6983 39.6231 81.5763 37.3003 81.2253C35.1475 80.9201 34.1844 80.7065 34.1844 80.5387C34.1844 80.2182 33.2638 79.3027 32.7822 79.1501C32.3715 79.0128 32.159 79.028 31.7483 79.2112C31.2526 79.44 30.8135 79.9893 31.026 80.1267C31.0968 80.1724 31.8049 80.3556 32.6264 80.5387C33.4479 80.737 34.1561 80.9659 34.2127 81.0575C34.3402 81.2558 34.3827 81.7899 34.7509 86.2607C35.5299 96.0568 35.7848 106.57 35.4449 115.176C35.2466 120.41 35.0908 122.622 34.8784 123.37C34.6376 124.209 34.8642 125.048 35.5582 125.872C38.1501 128.97 50.6989 129.779 57.9505 127.307C59.5227 126.773 60.2025 126.162 60.7407 124.82L60.939 124.316L61.6897 124.865C62.1004 125.155 62.8511 125.552 63.3609 125.72C64.4515 126.086 66.2786 126.147 67.1142 125.827C67.6524 125.628 67.7091 125.628 68.5306 126.101C69.607 126.727 70.825 127.017 74.3376 127.475C77.8217 127.948 82.3257 128.115 84.6202 127.856C89.3649 127.322 93.4156 125.72 97.2539 122.851C98.2595 122.104 98.3445 122.058 98.3445 122.378C98.3587 123.401 99.6192 124.682 101.078 125.186C102.027 125.506 104.718 125.644 105.724 125.415C106.148 125.323 107.381 124.759 108.471 124.179C110.737 122.943 111.559 122.699 115.128 122.119C123.343 120.807 130.708 118.335 137.931 114.459C140.495 113.07 141.879 112.27 141.879 112.103C141.879 112.042 142.095 111.834 141.231 112.384C133.71 117.022 124.957 120.257 115.765 121.814C111.346 122.561 110.638 122.775 108.33 124.026C107.069 124.698 106.035 125.155 105.497 125.262C104.293 125.506 102.154 125.338 100.965 124.911C99.7183 124.484 98.7127 123.507 98.5711 122.592C98.472 121.997 98.472 121.981 99.5484 120.929C100.455 120.028 100.596 119.83 100.398 119.708C99.8741 119.403 98.826 120.272 98.5003 121.31C98.1037 122.577 93.104 125.552 89.4499 126.696C86.3623 127.673 82.2832 128.039 78.2325 127.703C75.414 127.459 71.1933 126.879 70.0177 126.544C69.1254 126.3 68.0349 125.75 68.0349 125.552C68.0349 125.506 68.3181 125.247 68.658 124.987C69.8194 124.102 70.4993 122.241 70.0177 121.264C69.7911 120.837 69.1254 120.517 68.4173 120.517C67.2842 120.517 66.3353 121.569 66.3353 122.805C66.3353 123.462 66.7885 124.575 67.27 125.109L67.6241 125.506L66.9868 125.689C66.0803 125.933 64.5365 125.903 63.63 125.613C62.3128 125.186 60.8257 124.209 61.0098 123.889C61.1373 123.675 61.6472 120.944 61.9446 118.838C62.9927 111.438 63.4034 105.212 63.4176 96.6367C63.4318 87.3441 63.1202 82.5986 62.3695 80.737C62.0437 79.9283 61.4347 79.0586 61.0382 78.8297C60.8399 78.7229 60.9248 78.8755 61.2648 79.2874C62.4262 80.676 62.7094 81.8051 63.0352 86.4133C63.3185 90.4569 63.3609 101.169 63.106 104.876C62.6386 111.834 62.1004 116.549 60.9957 123.385C60.9532 123.645 60.8682 123.874 60.7974 123.874C60.4008 123.874 58.772 120.852 58.3471 119.296L58.1205 118.472L58.6729 117.923C60.245 116.397 61.633 113.772 61.7605 112.079C61.9304 109.942 60.5849 108.31 58.0497 107.547L57.1999 107.287V102.038C57.214 94.3478 57.8231 88.2901 59.2536 81.5457C59.6926 79.5011 59.8059 78.494 59.4518 79.852C58.7295 82.6139 57.7664 88.8089 57.3415 93.3255C57.0724 96.2399 56.8033 103.076 56.8741 105.41L56.9166 107.165H54.6505C52.0869 107.165 51.2371 107.348 48.7727 108.493C45.0052 110.217 42.1017 112.841 37.966 118.289C37.272 119.22 36.408 120.44 36.054 121.02C35.6999 121.585 35.4024 122.027 35.3883 122.012C35.3741 121.981 35.4166 121.035 35.4733 119.906C35.5299 118.777 35.6291 114.413 35.6857 110.217C35.8132 100.467 35.5724 93.6459 34.7651 84.2771C34.6093 82.5223 34.5101 81.0575 34.5385 81.0269C34.5526 80.9964 35.2325 81.088 36.0398 81.21C38.8866 81.6525 40.7987 81.8051 43.8155 81.8051C47.2147 81.8204 49.7358 81.6068 52.6676 81.0727C54.9479 80.6607 59.0978 79.5468 59.3244 79.2874C59.4235 79.1654 59.3952 79.1501 59.1969 79.2264C57.9789 79.6842 52.6109 81.0117 52.0444 80.9812C51.9169 80.9812 52.2002 80.8591 52.6676 80.7065C53.8148 80.3556 54.353 80.0199 55.1887 79.1806C56.0951 78.2804 56.5625 77.2275 56.5625 76.0831C56.5625 74.954 56.1801 74.4352 55.2737 74.2978L54.6505 74.2063L55.5003 73.4739C56.7466 72.421 57.1857 72.2226 58.3329 72.2226C58.8853 72.2226 59.4518 72.2684 59.6076 72.3447C59.7634 72.4057 59.636 72.3142 59.3244 72.1463C58.2763 71.5665 56.9308 72.009 55.2595 73.4586L54.2681 74.3131L49.5092 74.2368C45.4726 74.1758 44.4812 74.1147 43.1215 73.8401C41.1244 73.4433 38.8441 72.6346 37.4561 71.8259C36.8896 71.4902 36.3797 71.2461 36.3514 71.2919C36.2239 71.4139 38.0935 72.421 39.4248 72.9551C42.3567 74.1147 45.0052 74.4962 50.1607 74.4962C52.271 74.4962 54.0131 74.5115 54.0131 74.542C54.0131 74.6946 52.441 75.3965 51.6478 75.5948C50.2173 75.961 43.858 75.8084 42.0451 75.3812C39.5665 74.8014 37.5836 73.7027 36.3089 72.2074C35.9265 71.7344 35.6007 71.2919 35.6007 71.2156C35.6007 70.8188 35.275 71.185 34.9634 71.9327ZM37.5836 73.6264C39.8356 75.2591 42.0876 75.8542 46.719 76.0373C50.4439 76.2052 52.4268 75.8542 53.8856 74.8166C54.6788 74.2673 55.4578 74.2978 56.0243 74.8929C56.4209 75.3354 56.4492 75.427 56.3926 76.2357C56.2368 78.3719 54.7071 79.9893 52.2144 80.6455C51.4071 80.8438 50.4864 80.8896 46.5065 80.8591C43.9005 80.8438 41.2236 80.7675 40.5579 80.676C36.8896 80.2182 34.2127 78.7076 33.9719 76.9834C33.8586 76.1747 34.1986 74.5725 34.8926 72.6194L35.3458 71.3529L36.1531 72.2532C36.5922 72.7567 37.2295 73.3823 37.5836 73.6264ZM33.1788 79.5316C33.547 79.7452 34.1277 80.4929 34.0144 80.615C33.9719 80.6607 31.7766 80.1877 31.2951 80.0351C31.2101 80.0046 31.2951 79.8368 31.465 79.6537C31.8333 79.2569 32.5839 79.2112 33.1788 79.5316ZM56.8741 107.486C56.9449 107.531 56.9874 108.081 56.9874 108.706C56.9874 110.949 57.3698 115.512 57.7806 117.999C57.8514 118.426 57.7806 118.502 57.0016 119.052C55.8402 119.845 53.8998 120.608 52.4551 120.837C51.662 120.959 50.5572 120.99 49.1409 120.913C42.0875 120.593 41.3511 120.608 39.1982 121.219C38.2068 121.493 36.1531 122.546 35.8132 122.973C35.5016 123.324 35.3175 123.355 35.3175 123.034C35.3175 121.814 40.5296 115.008 43.603 112.185C46.2516 109.774 50.0049 107.821 52.88 107.394C53.7582 107.272 56.6475 107.333 56.8741 107.486ZM58.3754 107.913C59.3385 108.264 60.3725 108.92 60.8399 109.485C61.5764 110.354 61.7463 112.079 61.2364 113.559C60.8399 114.703 59.9476 116.122 58.9278 117.282L58.0497 118.258L57.8797 117.282C57.7947 116.748 57.6248 115.008 57.4973 113.421C57.1432 108.691 57.1007 107.547 57.2424 107.547C57.3273 107.547 57.8231 107.715 58.3754 107.913ZM59.1827 121.966C59.4094 122.378 59.8626 123.05 60.2025 123.431L60.8257 124.148L60.5991 124.728C60.0042 126.254 59.2252 126.803 56.5342 127.536C53.8148 128.268 51.5345 128.527 47.7104 128.527C44.2262 128.512 42.7391 128.375 40.2746 127.81C38.6883 127.444 36.9038 126.773 36.2947 126.3C35.6857 125.842 35.0342 124.82 35.0484 124.347C35.0625 123.507 37.2295 122.042 39.3823 121.402C40.5721 121.051 42.7674 120.99 49.5516 121.112C52.2569 121.173 52.6251 121.142 53.659 120.837C54.8771 120.486 56.4917 119.723 57.3557 119.082L57.8939 118.701L58.3329 119.952C58.5737 120.654 58.9561 121.554 59.1827 121.966ZM99.9733 120.15C99.9733 120.364 98.7836 121.493 98.6702 121.386C98.5569 121.264 99.0102 120.517 99.3926 120.181C99.7042 119.906 99.9733 119.891 99.9733 120.15ZM69.4087 120.974C69.9186 121.31 70.0886 121.798 69.9611 122.546C69.8336 123.294 69.1254 124.408 68.4456 124.942L67.8366 125.399L67.3833 124.926C66.9159 124.438 66.4769 123.355 66.4769 122.744C66.4769 122.561 66.6044 122.149 66.746 121.798C67.1851 120.745 68.4598 120.349 69.4087 120.974Z" fill="#FFC904"/>
<path d="M50.1546 5.61816C49.7721 5.9386 49.3897 6.16748 49.3048 6.1217C49.2339 6.06067 49.2056 6.09118 49.2623 6.15222C49.3331 6.22851 48.7241 7.00671 47.9167 7.89172C47.1236 8.77673 46.1747 9.92113 45.8206 10.4247C43.9935 12.9881 42.2231 16.4214 41.5291 18.6797C41.3166 19.3663 41.0758 20.0224 40.9767 20.1445C40.6509 20.587 38.8097 21.823 37.4075 22.5554C34.7023 23.9592 31.7988 24.8289 28.7254 25.1494C25.1845 25.5308 22.2102 24.5848 20.2698 22.4791C19.8024 21.9603 19.2642 21.2279 19.066 20.8311L18.7119 20.114L19.9441 18.8933C21.233 17.6115 22.0403 16.2383 22.0403 15.3685C22.0403 14.8345 21.4454 14.0563 20.9214 13.9342C20.0716 13.7358 18.8393 14.7276 18.4569 15.9178C17.9187 17.5353 18.0462 18.8933 18.8535 20.6786C20.4965 24.2796 24.5613 26.0039 29.6035 25.2409C33.3993 24.6611 36.5011 23.5014 39.5887 21.5025C40.2402 21.0753 40.7926 20.7243 40.8209 20.7243C40.8351 20.7243 40.7359 21.1668 40.5943 21.7162C40.226 23.1047 39.6453 26.9346 39.532 28.6589C39.4329 30.2 39.6312 33.3128 39.9428 35.2201C40.1127 36.273 40.1127 36.3646 39.8578 36.5934C39.008 37.3564 39.5037 39.0348 40.5943 39.0348C40.8776 39.0348 40.9059 38.9738 40.8209 38.3787C40.7784 38.0278 40.6793 37.4784 40.5943 37.1428C40.481 36.7613 40.481 36.5019 40.566 36.4103C40.8634 36.0899 42.0814 36.273 43.4978 36.8223C44.7866 37.3411 45.0133 37.3869 46.0614 37.3259C48.9648 37.1733 51.4576 34.7319 52.5482 31.0087C53.143 28.9183 53.2422 27.5297 53.1572 22.3265C53.0439 15.9026 52.7606 13.5832 51.6417 9.55492C50.9619 7.11352 50.9052 6.09118 51.4293 5.54187C51.84 5.08411 51.9958 5.06885 52.6048 5.46558C52.9447 5.69446 53.2139 6.09118 53.5538 6.88464C55.5366 11.5691 56.6131 17.0927 56.8255 23.8524C56.9388 27.4534 56.6697 36.273 56.4006 37.3564C56.004 38.9585 55.2675 39.3248 51.3018 39.8741C47.2652 40.4386 43.3561 40.3318 39.4754 39.5536C38.4273 39.34 37.4783 39.2179 37.365 39.2637C37.1951 39.3248 37.1668 39.6757 37.2234 41.2168C37.2801 42.758 37.3509 43.2463 37.6483 44.0245L38.0024 44.9705L37.7474 45.7792C37.3934 46.8778 37.3934 48.8615 37.7616 50.5094C38.5548 54.1563 38.8097 58.7949 38.4131 62.5028C38.2148 64.2881 37.6625 67.1262 37.1243 69.0183C37.0393 69.3082 37.1101 69.3235 38.3565 69.3387C39.8578 69.354 41.0475 69.7355 44.2909 71.2766C46.4863 72.3295 47.5343 72.6194 49.0073 72.6194C51.5851 72.6346 53.1997 71.185 53.922 68.2401C54.177 67.1567 54.2336 66.1954 54.4036 59.0238C54.5169 54.614 54.6302 50.0822 54.6727 48.953C54.7577 46.6947 55.1117 44.8179 55.6641 43.643C55.9474 43.0479 57.3779 40.7743 57.7036 40.3776C57.7603 40.3166 57.7745 44.5738 57.7603 49.838C57.7036 60.5192 57.8311 64.5475 58.2985 66.3175C58.6384 67.6603 59.2191 68.9267 60.1681 70.4221C62.0376 73.4281 62.5617 75.5948 61.7827 77.2275C61.5986 77.6242 61.5136 77.9447 61.5844 77.9447C61.6552 77.9447 61.8393 77.6242 62.0093 77.2275C62.2501 76.6477 62.2926 76.2967 62.2359 75.2744C62.1651 73.779 61.6836 72.5583 60.2814 70.3153C57.9586 66.5922 57.7886 65.1121 57.9161 49.1819C57.9869 40.9269 58.0152 39.813 58.2277 39.279C58.511 38.5618 58.5393 37.5242 58.2843 37.0207L58.1002 36.6697L58.0011 37.0512C57.9444 37.2648 57.9019 37.9515 57.8878 38.5923C57.8736 39.6757 57.8311 39.8283 57.3921 40.4997C54.4886 44.9247 54.5735 44.4517 54.2619 57.4216C54.0353 67.5229 53.9928 68.0723 53.1997 69.8118C52.4065 71.5513 50.976 72.4515 49.0357 72.4515C47.6193 72.4515 46.2738 72.0395 43.8377 70.8799C41.3025 69.6592 40.1694 69.2777 38.6114 69.0793C37.9599 69.003 37.4075 68.9115 37.3792 68.8962C37.365 68.8657 37.4783 68.4079 37.62 67.8586C38.2857 65.5698 38.6397 62.8843 38.7106 59.6799C38.7955 56.1704 38.6539 54.2631 38.0307 51.013C37.5633 48.6021 37.5208 47.244 37.8466 46.0691L38.059 45.2757L38.8097 46.0996C39.9994 47.3966 41.4724 47.7934 42.4497 47.0762C43.087 46.6184 43.3137 46.1149 43.2428 45.3367C43.1579 44.4975 42.6196 43.7345 41.8265 43.3225C40.6934 42.7275 39.7303 43.0021 38.6539 44.1923L38.059 44.8484L37.7616 43.8108C37.5917 43.2463 37.4217 42.1934 37.3792 41.4762C37.3084 40.225 37.3084 40.1792 37.6341 40.0267C37.8183 39.9351 37.9599 39.7825 37.9316 39.6757C37.8891 39.4468 37.7758 39.4316 39.6453 39.7978C42.0389 40.2403 43.8944 40.4081 46.7412 40.4081C49.5172 40.4081 50.8344 40.2861 53.2705 39.7825C55.565 39.3095 56.1882 38.8975 56.5281 37.5853C57.0521 35.6016 57.2646 23.3183 56.8255 19.5036C56.2307 14.2546 55.2959 10.2873 53.8795 7.03723C53.4263 5.98437 52.5198 5.00781 52.01 5.00781C51.8117 5.00781 51.4718 5.17566 51.2593 5.37402C50.8911 5.70972 50.8627 5.83179 50.8627 6.79309C50.8627 7.55602 51.0044 8.31896 51.3868 9.66173C52.5199 13.6443 52.7748 15.8873 52.8739 22.357C52.9589 27.8349 52.8739 29.0556 52.2649 31.1003C51.3443 34.2131 49.149 36.5324 46.6279 37.0359C45.5798 37.2496 44.9566 37.1428 43.3561 36.4714C42.2939 36.0289 41.954 35.9678 41.2175 36.0136L40.3535 36.0746L40.1977 35.1439C39.5037 31.0087 39.7162 26.3701 40.8067 21.945C41.1042 20.7549 41.2458 20.4192 41.6282 20.0682C41.869 19.8241 42.6763 19.0611 43.3986 18.3897C46.4013 15.5364 48.8799 11.6606 50.1971 7.75439C50.6503 6.3811 50.976 5.1604 50.9052 5.08411C50.8769 5.06885 50.5511 5.29773 50.1546 5.61816ZM50.0696 7.38818C48.9082 10.9282 47.0245 14.102 44.3617 16.9859C43.342 18.0998 42.2372 19.2137 41.9256 19.4731L41.3308 19.9614L41.6707 19.0764C41.8548 18.6034 42.0106 18.1151 42.0106 18.0083C42.0106 17.9015 42.393 17.0165 42.8463 16.0246C43.781 14.0105 45.2257 11.5996 46.5004 9.89061C47.9168 7.99853 50.2112 5.74023 50.4803 5.99963C50.4945 6.01489 50.3104 6.6405 50.0696 7.38818ZM21.4454 14.514C21.8561 14.9107 21.8561 15.811 21.4737 16.696C21.1763 17.3369 19.8166 18.9238 19.066 19.5036L18.6552 19.8241L18.5136 19.2442C17.7204 16.2077 19.7883 12.8813 21.4454 14.514ZM40.4385 37.6463C40.7926 38.9128 40.7926 38.8823 40.5235 38.8823C40.1694 38.8823 39.6029 38.1651 39.6029 37.7378C39.6029 37.4174 39.9569 36.5934 40.0986 36.5934C40.1269 36.5934 40.2685 37.0665 40.4385 37.6463ZM58.1569 38.9891C58.0294 39.2179 58.0152 39.1722 58.0719 38.7449C58.1144 38.4703 58.171 38.0125 58.1852 37.7531C58.1994 37.4632 58.2277 37.5547 58.256 37.9972C58.2843 38.394 58.2419 38.8517 58.1569 38.9891ZM41.6565 43.4446C42.8463 44.0245 43.3845 45.2299 42.9171 46.2827C42.2939 47.7018 40.4102 47.5492 38.923 45.9471L38.1724 45.1383L38.4698 44.6806C39.0363 43.8261 39.9994 43.2005 40.8067 43.17C40.9625 43.17 41.3449 43.292 41.6565 43.4446Z" fill="#FFC904"/>
<path d="M17.2247 20.9685C13.5989 23.8524 9.42069 25.9123 5.85152 26.599C4.74678 26.8126 4.01029 26.8431 2.3815 26.7821C0.157846 26.6905 -0.224566 26.6142 -3.52463 25.6224C-7.66034 24.3712 -9.94064 24.6611 -12.1926 26.7058C-12.8866 27.3314 -14.6429 29.4676 -14.6429 29.6965C-14.6429 29.8186 -14.4588 29.6202 -13.3682 28.2317C-11.5411 25.9123 -9.94064 25.0731 -7.41956 25.0884C-6.244 25.0884 -5.63498 25.1799 -4.51607 25.5156C-1.0602 26.5532 0.0445385 26.8279 1.47504 26.9804C5.95067 27.4687 10.8512 25.8055 16.0916 22.0214C18.0462 20.6023 18.6411 20.114 18.4286 20.1293C18.3578 20.1293 17.8054 20.5107 17.2247 20.9685Z" fill="#FFC904"/>
<path d="M35.283 71.9327C34.7307 73.2908 34.2066 75.1981 34.1358 76.1899C33.9942 77.8684 34.8015 78.8755 37.0818 79.8978C37.6483 80.1572 38.5973 80.4624 39.178 80.5997C40.6793 80.9506 45.2257 81.1948 48.8799 81.1185C52.2083 81.0575 52.095 81.1643 48.455 81.4542C45.6931 81.6983 39.9428 81.5763 37.62 81.2253C35.4671 80.9201 34.504 80.7065 34.504 80.5387C34.504 80.2182 33.5834 79.3027 33.1019 79.1501C32.6911 79.0128 32.4787 79.028 32.0679 79.2112C31.5722 79.44 31.1332 79.9893 31.3456 80.1267C31.4164 80.1724 32.1246 80.3556 32.9461 80.5387C33.7675 80.737 34.4757 80.9659 34.5324 81.0575C34.6598 81.2558 34.7023 81.7899 35.0706 86.2607C35.8496 96.0568 36.1045 106.57 35.7646 115.176C35.5663 120.41 35.4105 122.622 35.198 123.37C34.9573 124.209 35.1839 125.048 35.8779 125.872C38.4698 128.97 51.0185 129.779 58.2702 127.307C59.8423 126.773 60.5222 126.162 61.0604 124.82L61.2587 124.316L62.0093 124.865C62.4201 125.155 63.1707 125.552 63.6806 125.72C64.7712 126.086 66.5983 126.147 67.4339 125.827C67.9721 125.628 68.0287 125.628 68.8502 126.101C69.9266 126.727 71.1447 127.017 74.6572 127.475C78.1414 127.948 82.6454 128.115 84.9398 127.856C89.6846 127.322 93.7353 125.72 97.5736 122.851C98.5792 122.104 98.6641 122.058 98.6641 122.378C98.6783 123.401 99.9388 124.682 101.398 125.186C102.347 125.506 105.038 125.644 106.043 125.415C106.468 125.323 107.7 124.759 108.791 124.179C111.057 122.943 111.879 122.699 115.448 122.119C123.662 120.807 131.027 118.335 138.251 114.459C140.814 113.07 142.199 112.27 142.199 112.103C142.199 112.042 142.415 111.834 141.551 112.384C134.03 117.022 125.277 120.257 116.085 121.814C111.666 122.561 110.958 122.775 108.649 124.026C107.389 124.698 106.355 125.155 105.817 125.262C104.613 125.506 102.474 125.338 101.284 124.911C100.038 124.484 99.0324 123.507 98.8907 122.592C98.7916 121.997 98.7916 121.981 99.868 120.929C100.774 120.028 100.916 119.83 100.718 119.708C100.194 119.403 99.1457 120.272 98.8199 121.31C98.4234 122.577 93.4237 125.552 89.7695 126.696C86.6819 127.673 82.6029 128.039 78.5521 127.703C75.7336 127.459 71.5129 126.879 70.3374 126.544C69.4451 126.3 68.3545 125.75 68.3545 125.552C68.3545 125.506 68.6378 125.247 68.9777 124.987C70.1391 124.102 70.8189 122.241 70.3374 121.264C70.1108 120.837 69.4451 120.517 68.7369 120.517C67.6039 120.517 66.6549 121.569 66.6549 122.805C66.6549 123.462 67.1081 124.575 67.5897 125.109L67.9438 125.506L67.3064 125.689C66.4 125.933 64.8561 125.903 63.9497 125.613C62.6325 125.186 61.1453 124.209 61.3295 123.889C61.4569 123.675 61.9668 120.944 62.2643 118.838C63.3123 111.438 63.7231 105.212 63.7372 96.6367C63.7514 87.3441 63.4398 82.5986 62.6892 80.737C62.3634 79.9283 61.7544 79.0586 61.3578 78.8297C61.1595 78.7229 61.2445 78.8755 61.5844 79.2874C62.7458 80.676 63.0291 81.8051 63.3548 86.4133C63.6381 90.4569 63.6806 101.169 63.4257 104.876C62.9583 111.834 62.4201 116.549 61.3153 123.385C61.2728 123.645 61.1878 123.874 61.117 123.874C60.7205 123.874 59.0917 120.852 58.6668 119.296L58.4401 118.472L58.9925 117.923C60.5647 116.397 61.9527 113.772 62.0801 112.079C62.2501 109.942 60.9046 108.31 58.3693 107.547L57.5195 107.287V102.038C57.5337 94.3478 58.1427 88.2901 59.5732 81.5457C60.0123 79.5011 60.1256 78.494 59.7715 79.852C59.0492 82.6139 58.0861 88.8089 57.6612 93.3255C57.3921 96.2399 57.1229 103.076 57.1938 105.41L57.2363 107.165H54.9701C52.4065 107.165 51.5567 107.348 49.0923 108.493C45.3249 110.217 42.4214 112.841 38.2857 118.289C37.5917 119.22 36.7277 120.44 36.3736 121.02C36.0195 121.585 35.7221 122.027 35.7079 122.012C35.6938 121.981 35.7363 121.035 35.7929 119.906C35.8496 118.777 35.9487 114.413 36.0054 110.217C36.1328 100.467 35.892 93.6459 35.0847 84.2771C34.9289 82.5223 34.8298 81.0575 34.8581 81.0269C34.8723 80.9964 35.5521 81.088 36.3594 81.21C39.2063 81.6525 41.1183 81.8051 44.1351 81.8051C47.5343 81.8204 50.0554 81.6068 52.9872 81.0727C55.2675 80.6607 59.4174 79.5468 59.644 79.2874C59.7432 79.1654 59.7149 79.1501 59.5166 79.2264C58.2985 79.6842 52.9306 81.0117 52.3641 80.9812C52.2366 80.9812 52.5199 80.8591 52.9872 80.7065C54.1345 80.3556 54.6727 80.0199 55.5083 79.1806C56.4148 78.2804 56.8822 77.2275 56.8822 76.0831C56.8822 74.954 56.4998 74.4352 55.5933 74.2978L54.9701 74.2063L55.8199 73.4739C57.0663 72.421 57.5054 72.2226 58.6526 72.2226C59.205 72.2226 59.7715 72.2684 59.9273 72.3447C60.0831 72.4057 59.9556 72.3142 59.644 72.1463C58.5959 71.5665 57.2504 72.009 55.5791 73.4586L54.5877 74.3131L49.8288 74.2368C45.7923 74.1758 44.8008 74.1147 43.4411 73.8401C41.4441 73.4433 39.1638 72.6346 37.7758 71.8259C37.2092 71.4902 36.6994 71.2461 36.671 71.2919C36.5436 71.4139 38.4131 72.421 39.7445 72.9551C42.6763 74.1147 45.3249 74.4962 50.4803 74.4962C52.5907 74.4962 54.3328 74.5115 54.3328 74.542C54.3328 74.6946 52.7606 75.3965 51.9675 75.5948C50.537 75.961 44.1776 75.8084 42.3647 75.3812C39.8861 74.8014 37.9033 73.7027 36.6285 72.2074C36.2461 71.7344 35.9204 71.2919 35.9204 71.2156C35.9204 70.8188 35.5946 71.185 35.283 71.9327ZM37.9032 73.6264C40.1552 75.2591 42.4072 75.8542 47.0386 76.0373C50.7636 76.2052 52.7465 75.8542 54.2053 74.8166C54.9984 74.2673 55.7774 74.2978 56.344 74.8929C56.7405 75.3354 56.7689 75.427 56.7122 76.2357C56.5564 78.3719 55.0268 79.9893 52.534 80.6455C51.7267 80.8438 50.8061 80.8896 46.8262 80.8591C44.2201 80.8438 41.5432 80.7675 40.8776 80.676C37.2092 80.2182 34.5324 78.7076 34.2916 76.9834C34.1783 76.1747 34.5182 74.5725 35.2122 72.6194L35.6654 71.3529L36.4727 72.2532C36.9118 72.7567 37.5492 73.3823 37.9032 73.6264ZM33.4984 79.5316C33.8667 79.7452 34.4474 80.4929 34.3341 80.615C34.2916 80.6607 32.0963 80.1877 31.6147 80.0351C31.5297 80.0046 31.6147 79.8368 31.7847 79.6537C32.1529 79.2569 32.9036 79.2112 33.4984 79.5316ZM57.1938 107.486C57.2646 107.531 57.3071 108.081 57.3071 108.706C57.3071 110.949 57.6895 115.512 58.1002 117.999C58.171 118.426 58.1002 118.502 57.3212 119.052C56.1598 119.845 54.2195 120.608 52.7748 120.837C51.9816 120.959 50.8769 120.99 49.4606 120.913C42.4072 120.593 41.6707 120.608 39.5179 121.219C38.5264 121.493 36.4727 122.546 36.1328 122.973C35.8212 123.324 35.6371 123.355 35.6371 123.034C35.6371 121.814 40.8492 115.008 43.9227 112.185C46.5712 109.774 50.3245 107.821 53.1997 107.394C54.0778 107.272 56.9671 107.333 57.1938 107.486ZM58.6951 107.913C59.6582 108.264 60.6921 108.92 61.1595 109.485C61.896 110.354 62.066 112.079 61.5561 113.559C61.1595 114.703 60.2672 116.122 59.2475 117.282L58.3693 118.258L58.1994 117.282C58.1144 116.748 57.9444 115.008 57.817 113.421C57.4629 108.691 57.4204 107.547 57.562 107.547C57.647 107.547 58.1427 107.715 58.6951 107.913ZM59.5024 121.966C59.729 122.378 60.1822 123.05 60.5222 123.431L61.1453 124.148L60.9187 124.728C60.3239 126.254 59.5449 126.803 56.8538 127.536C54.1345 128.268 51.8542 128.527 48.0301 128.527C44.5459 128.512 43.0587 128.375 40.5943 127.81C39.008 127.444 37.2234 126.773 36.6144 126.3C36.0054 125.842 35.3538 124.82 35.368 124.347C35.3822 123.507 37.5492 122.042 39.702 121.402C40.8917 121.051 43.087 120.99 49.8713 121.112C52.5765 121.173 52.9448 121.142 53.9787 120.837C55.1967 120.486 56.8114 119.723 57.6753 119.082L58.2135 118.701L58.6526 119.952C58.8934 120.654 59.2758 121.554 59.5024 121.966ZM100.293 120.15C100.293 120.364 99.1032 121.493 98.9899 121.386C98.8766 121.264 99.3298 120.517 99.7122 120.181C100.024 119.906 100.293 119.891 100.293 120.15ZM69.7284 120.974C70.2382 121.31 70.4082 121.798 70.2807 122.546C70.1533 123.294 69.4451 124.408 68.7652 124.942L68.1562 125.399L67.703 124.926C67.2356 124.438 66.7965 123.355 66.7965 122.744C66.7965 122.561 66.924 122.149 67.0656 121.798C67.5047 120.745 68.7794 120.349 69.7284 120.974Z" fill="#FFC904"/>
</g>
</g>
<defs>
<clipPath id="clip0_1135_71353">
<rect width="93.4463" height="136.524" fill="white"/>
</clipPath>
<clipPath id="clip1_1135_71353">
<rect width="141.826" height="141.826" fill="white" transform="translate(-8.00488 -4.02734)"/>
</clipPath>
</defs>
</svg>