<svg xmlns="http://www.w3.org/2000/svg" width="94" height="137" viewBox="0 0 94 137" fill="none">
<g clip-path="url(#clip0_1135_77705)">
<g clip-path="url(#clip1_1135_77705)">
<path d="M66.8409 3.76519C69.2472 9.71891 70.7532 16.7897 70.9198 23.0528C70.9633 24.2189 71.1906 25.4892 71.4277 25.8421C71.652 26.2607 71.9706 27.4127 72.0398 28.4476C72.1483 29.4563 72.2843 30.8448 72.4044 31.4472C72.5116 32.1151 72.4613 32.7181 72.2652 32.8498C72.0691 32.9815 72.9129 34.4069 74.1372 35.975C76.2965 38.8501 76.3891 39.0725 76.9025 43.395C77.3614 47.128 77.1983 49.1728 75.8746 56.4372C74.9744 61.1972 74.4375 64.9731 74.6336 64.8413C74.8297 64.7096 76.456 65.0969 78.2532 65.6539C81.8612 66.8728 84.5812 68.9728 85.52 71.302C86.7896 74.5472 86.5181 75.5834 83.2844 80.0896C80.5594 83.9127 79.4936 90.0361 81.012 93.228C82.0421 95.4389 81.6652 96.3182 79.3091 97.0474C78.1834 97.4052 76.7575 98.0786 76.1171 98.5657C75.1759 99.1981 74.2721 99.2931 72.2395 98.8941C69.8136 98.418 67.2007 96.9859 59.9107 92.1504C57.6778 90.6907 52.2101 89.7537 48.1492 90.1482L44.8875 90.4613L46.5983 92.4994C48.7172 95.0602 48.208 95.5731 45.2532 93.8015C43.3886 92.7205 43.1919 92.6819 43.6539 93.6238C44.4854 95.285 44.8598 97.3672 44.3499 97.7097C44.1146 97.8678 43.1967 97.6877 42.4222 97.2973C40.2695 96.296 39.9962 96.8211 41.4981 99.0566C43.2107 101.606 45.5742 102.921 49.3237 103.418C52.6142 103.826 53.439 103.613 52.1774 102.583C51.678 102.178 50.6786 101.199 49.9812 100.415L48.6785 98.8998L50.3765 97.3606C54.5042 93.6767 55.5245 93.162 58.0552 93.6247C59.3402 93.8428 61.4267 94.6609 62.7135 95.3901C64.6964 96.5624 65.2356 97.1108 66.0806 98.8768C67.0046 100.761 67.2981 102.214 68.5167 109.535C68.7575 110.91 69.0762 112.062 69.2073 112.088C69.3648 112.153 69.7625 109.779 70.0928 106.882C70.6273 102.425 71.3271 100.247 71.9067 101.11C72.2493 101.62 69.725 117.603 69.2795 117.617C68.7292 117.645 68.6759 117.397 67.1239 108.478C66.4549 104.602 65.8274 101.381 65.7484 101.263C65.6694 101.145 65.146 101.383 64.5578 101.778C62.3352 103.215 57.8804 103.362 55.4906 102.007C54.7817 101.63 54.0733 101.423 53.8772 101.554C53.4066 101.871 53.8539 102.367 55.1003 102.782C57.908 103.741 56.077 104.744 51.4775 104.76C45.5282 104.716 40.6567 101.956 39.4233 97.8322C38.8265 95.8425 37.6585 95.375 32.4292 95.1316C22.2584 94.5652 20.827 93.7055 14.5297 84.3324C8.91754 75.979 6.24897 73.6168 -0.798444 70.6674C-2.30768 70.0307 -3.52892 69.3143 -3.4511 69.0913C-3.36162 68.462 0.898961 68.9578 3.23482 69.8929C6.96166 71.3734 9.35387 73.4091 18.8106 83.164C24.5319 89.0534 29.2048 91.2643 34.7988 90.8643C36.1481 90.7546 38.625 90.7982 40.2898 90.9888C42.0332 91.1267 43.0026 91.0446 42.5822 90.7578C41.3867 89.9103 42.9573 89.3675 47.5555 89.0103C55.2194 88.4718 59.3256 89.7544 66.7614 95.0611C69.2707 96.8474 73.4044 98.5099 73.546 97.7887C73.5454 97.6184 73.1906 97.3444 72.7445 97.1888C72.2592 97.0595 71.8253 96.6679 71.8241 96.3272C71.8094 95.8817 72.6348 95.8395 74.2476 96.122C76.6472 96.5589 80.1964 95.9959 80.6388 95.1294C80.9507 94.4076 78.0959 91.2597 76.1528 90.2315C74.3145 89.1897 72.5203 89.4844 72.2501 90.8613C72.1729 91.2547 71.5595 91.9514 70.8928 92.3993C69.0887 93.6114 67.2388 92.9759 65.0543 90.4022L63.2645 88.2465L63.9373 85.8591C64.2995 84.5343 64.3731 83.1188 64.1359 82.7659C63.688 82.0992 60.3809 80.7351 52.4168 77.9462L48.6906 76.6361L49.4707 74.9166L50.2507 73.1972L53.5646 72.7922C57.5464 72.28 62.3432 72.4725 62.8174 73.1785C63.6606 74.4334 60.139 75.3764 55.7871 74.9989C54.6204 74.872 53.6118 74.9804 53.5603 75.2427C53.3286 76.4229 66.8609 82.5858 68.0375 81.7953C68.1943 81.6899 68.6797 78.1763 69.0971 73.9684C69.7909 66.4442 70.2443 65.0012 72.2996 64.4172C73.098 64.1654 73.5123 62.7487 74.7606 56.3888C76.3295 48.049 76.3657 43.528 74.8835 39.4579C73.6929 36.3304 72.0225 34.6066 69.4912 33.9736L67.5107 33.4827L66.5707 38.0987C64.7935 46.8061 64.5035 53.6605 65.4273 66.473C65.9787 74.0713 65.9713 75.67 65.2231 75.3189C65.0393 75.2147 64.6637 72.7918 64.4701 69.9621C63.7405 60.1498 62.9997 58.1999 59.7465 57.255C58.3298 56.8407 57.0068 56.9896 53.8786 58.0098C51.6273 58.7255 47.5959 60.011 44.8733 60.8725C31.2869 65.2192 24.2051 63.659 9.70108 53.2539C4.02568 49.2119 -2.76922 43.5884 -8.26506 38.4582C-12.6696 34.3593 -18.8253 27.908 -18.8535 27.3577C-18.897 26.1916 -18.0299 26.8044 -14.794 30.2654C-3.17915 42.5547 16.072 57.5685 23.7609 60.3715C30.7937 62.8754 37.2915 62.3804 48.7828 58.4736C57.2115 55.5998 60.2766 55.2481 61.9598 56.9063C63.262 58.2514 63.8907 58.1705 63.7412 56.6772C63.4416 53.5202 64.2457 43.8728 65.2109 38.9553C65.8293 35.9785 66.0432 33.5011 65.768 33.5151C64.8378 33.5709 64.6516 32.7853 65.4758 32.4023C65.9206 32.2173 66.4268 30.8527 66.6824 29.0303C66.9385 27.3783 67.4827 25.6466 67.8743 25.2128C68.4748 24.5816 68.4025 22.6949 67.7157 17.5213C66.6104 8.929 64.8844 2.63215 62.298 -2.40364C61.1895 -4.56184 60.4358 -6.44612 60.5927 -6.55151C61.181 -6.94674 65.1884 -0.304245 66.8409 3.76519ZM69.7854 31.9545C68.8288 31.971 68.9882 32.547 70.0237 32.6481C70.5875 32.7248 70.8228 32.5667 70.6647 32.3314C70.5066 32.096 70.0997 31.9141 69.7854 31.9545ZM81.132 68.1596C80.1601 67.5603 78.1392 66.7551 76.6441 66.3935L73.9553 65.6955L73.4423 68.8292C72.8019 72.9593 72.4973 75.7253 72.7081 76.039C72.8135 76.1959 73.6371 75.6426 74.6169 74.8135C76.3805 73.2872 78.1348 72.8484 77.8768 73.9894C77.7733 74.3436 76.6267 76.1954 75.2578 78.1397C73.8888 80.084 72.6896 81.8573 72.6381 82.1196C72.5866 82.3818 73.3624 83.1129 74.4525 83.8035C75.5555 84.4285 76.857 85.6032 77.3839 86.3876C77.9109 87.1719 78.5028 87.7988 78.7259 87.8766C78.9226 87.9152 79.3252 86.9048 79.5826 85.5935C79.9815 83.5609 81.2567 81.0535 84.1767 76.758C85.9102 74.1703 84.5071 70.2179 81.132 68.1596ZM71.7928 65.6115C71.2045 66.0067 70.5488 69.521 70.2374 74.0561C69.7661 81.4877 69.0522 83.3904 66.9927 82.7819C65.6679 82.4197 65.4724 82.7218 65.7291 84.883C65.851 85.9964 66.0011 87.6601 66.0569 88.5903C66.1426 90.5818 67.5238 92.0445 69.1874 91.8944C70.0913 91.7994 70.5484 91.3785 71.3953 90.0126C72.6852 87.9507 73.3923 87.8171 76.3189 89.0384L78.3006 89.87L77.496 88.4183C77.0475 87.5813 75.6271 86.1449 74.3134 85.2061C73.0125 84.2018 71.6724 83.2237 71.3439 82.989C70.8972 82.663 71.2612 81.8493 72.6958 79.9179C74.7431 77.1194 75.392 75.3742 73.6045 77.5428C73.0304 78.2132 72.4298 78.8443 72.273 78.9497C71.2533 79.6347 71.1468 75.4943 72.0826 69.6858C72.658 65.7133 72.6556 65.0319 71.7928 65.6115ZM50.8102 75.7243C50.6533 75.8297 50.7593 76.1569 51.0877 76.3916C51.4554 76.5999 51.8751 76.7164 52.0712 76.5846C52.2281 76.4792 52.1221 76.152 51.7936 75.9173C51.426 75.709 51.0062 75.5925 50.8102 75.7243ZM60.9591 95.8288C58.0056 94.398 56.1967 94.2472 54.4447 95.3673C52.6928 96.4874 52.7731 96.9458 54.7928 97.4103C57.2058 97.952 58.9663 99.2168 58.3664 100.018C57.7407 100.951 58.1611 101.238 59.7721 101.009C65.469 100.085 65.8949 98.2616 60.9591 95.8288ZM54.4042 98.6959C52.398 98.3361 52.02 98.8748 53.5175 99.9177C54.2927 100.478 56.1016 100.629 56.7291 100.208C57.3173 99.8124 56.0826 98.9913 54.4042 98.6959ZM42.1091 94.0355C41.6103 93.8014 40.9418 93.7383 40.628 93.9491C39.8829 94.4497 40.647 95.587 42.1164 96.0797C43.0742 96.4039 43.2182 96.3641 43.1894 95.6435C43.1594 94.5821 43.2121 94.6606 42.1091 94.0355ZM35.3141 92.0549C32.6933 92.0512 29.7048 91.8391 28.7079 91.5413C26.1631 90.8035 23.0239 88.7574 19.7634 85.7682C18.2909 84.4238 16.6346 82.9752 16.0304 82.5842C15.0586 81.9849 15.0856 82.1945 16.3785 84.6272C18.0807 87.9233 20.949 91.176 23.2861 92.4518C24.2052 92.9727 26.4216 93.4758 28.2305 93.6266C30.0394 93.7773 33.0806 94.0678 35.0341 94.3491C38.0231 94.7316 38.6911 94.6243 39.1078 93.889C39.3811 93.3639 39.9559 92.8639 40.4534 92.7573C42.3126 92.3051 39.9265 91.9729 35.3141 92.0549Z" fill="#FFC904"/>
</g>
</g>
<defs>
<clipPath id="clip0_1135_77705">
<rect width="93.4463" height="136.524" fill="white"/>
</clipPath>
<clipPath id="clip1_1135_77705">
<rect width="113" height="113" fill="white" transform="matrix(-0.557674 -0.83006 -0.83006 0.557674 125.056 73.2656)"/>
</clipPath>
</defs>
</svg>