<svg xmlns="http://www.w3.org/2000/svg" width="94" height="137" viewBox="0 0 94 137" fill="none">
<g clip-path="url(#clip0_1135_79681)">
<g clip-path="url(#clip1_1135_79681)">
<path d="M55.7987 15.4666C51.8491 18.2184 47.3431 21.2817 45.7855 22.2682C42.3365 24.5527 42.6703 24.345 37.9975 27.9794C30.1538 34.1579 29.5419 35.5079 32.4346 39.5576L33.9922 41.7902L31.2664 44.1266C29.7644 45.4246 27.1499 47.6053 25.481 48.9552C23.8121 50.3051 21.9207 52.1223 21.3088 52.9531C20.7525 53.7838 19.3618 54.978 18.2492 55.5491C17.1923 56.1202 15.5234 57.3663 14.5221 58.3009C12.1857 60.5854 8.79232 65.8812 8.79232 67.335C8.79232 67.958 8.40292 68.7368 7.95788 69.1003C7.23471 69.6714 7.12345 72.3193 7.12345 87.2205C7.12345 100.824 6.90093 105.393 6.28902 107.937C5.56584 110.792 5.56584 111.415 6.28902 112.973C7.17908 115.05 8.9592 115.413 9.90489 113.752C10.5168 112.661 10.4056 111.26 9.01483 103.42C8.5698 101.031 8.23603 96.0988 8.23603 92.4125C8.23603 85.6109 8.62543 83.7937 11.7963 76.1095C12.2413 74.9673 12.6307 73.0462 12.6863 71.904C12.6863 70.0349 13.2983 69.0484 17.1367 64.2717C21.587 58.872 22.9777 57.574 29.9313 52.382C31.9339 50.9282 34.4929 48.8514 35.6611 47.8649L37.775 45.9958L38.8319 47.2938C40.2226 48.9552 40.2226 49.111 38.5538 49.7859C36.9962 50.4609 36.718 51.8108 38.0531 52.33C38.665 52.5377 38.8319 53.005 38.5538 53.8876C38.3869 54.6145 38.4981 55.4972 38.8875 55.9125C39.3882 56.4837 39.1657 56.9509 38.0531 58.2489C36.5511 59.8585 36.3286 60.6373 36.9405 62.091C37.6081 63.6487 40.5008 64.4275 48.567 65.2063C56.0769 65.8812 59.9709 66.8677 59.9709 68.01C59.9709 68.9445 57.8014 69.2041 47.065 69.4637C41.0014 69.6195 36.1617 69.931 36.273 70.0868C36.5511 70.5021 58.3577 69.8272 59.5815 69.3599C61.1947 68.7368 60.6941 67.2312 58.5245 66.2447C57.3563 65.7255 53.9073 65.1543 50.5696 64.8428C41.3352 64.0121 38.9432 63.4929 37.8862 62.0391C37.0518 60.793 37.0518 60.6373 38.1087 59.3393C39.3326 57.7817 39.9445 57.7297 47.7882 58.4566C51.0146 58.7682 52.1272 58.7162 52.461 58.197C52.7391 57.7817 52.5166 57.2105 51.8491 56.7952C51.0146 56.1721 49.6796 56.0683 45.7299 56.3279C40.2226 56.6394 38.3313 56.0683 38.9988 54.303C39.3326 53.628 39.7776 53.4723 40.9458 53.7319C46.3974 54.978 52.4054 54.6664 52.0716 53.1088C51.8491 51.9666 47.065 51.4993 42.5591 52.1743C39.1657 52.6416 37.8306 52.2262 38.4425 50.7724C38.8319 49.734 46.8425 48.9033 49.8464 49.6302C50.514 49.7859 51.0703 49.6821 51.0703 49.3706C51.0703 49.111 50.1802 48.8514 49.1233 48.8514C46.62 48.8514 46.6756 48.2803 49.2901 46.463C52.9617 43.9189 59.0252 38.8827 63.6424 34.5733C66.1457 32.2888 69.4278 29.4851 70.9854 28.3948C74.7125 25.6949 75.4357 24.1373 74.2119 21.1778C72.8212 17.6473 65.645 10.4304 63.6424 10.4304C63.3086 10.4304 59.804 12.7148 55.7987 15.4666ZM67.7589 14.4282C71.5417 17.6992 74.045 21.3336 72.4318 21.3336C71.2079 21.3336 65.8676 16.1935 64.4768 13.5975C63.8093 12.4552 63.5311 11.4688 63.8093 11.4688C64.1431 11.4688 65.8676 12.8187 67.7589 14.4282ZM64.6993 15.1032C67.0358 18.478 71.9867 22.5797 73.1549 22.1643C74.3788 21.6971 74.6013 23.2547 73.6 24.8123C73.0437 25.5911 71.5973 27.0448 70.3179 27.9794C69.094 28.9659 65.4225 32.133 62.196 34.9886C55.2981 41.2191 46.3418 48.0206 44.3948 48.5918C43.1153 48.9552 43.0597 48.9033 43.8385 48.0726C44.2835 47.6053 47.6213 44.9573 51.3484 42.2056C62.4186 34.0022 69.2609 27.2006 67.8146 25.8507C67.3139 25.3834 66.9245 25.3834 66.0901 25.9026C64.6993 26.6814 64.3656 26.6814 64.755 25.8507C65.0887 24.9161 63.3643 23.5143 62.8636 24.2931C62.6411 24.6046 61.3616 25.3315 60.0822 25.9545C56.6332 27.616 49.6796 32.9638 47.1206 35.9751C44.7286 38.8307 44.5617 39.2461 45.7855 39.6615C47.3431 40.2326 57.7457 32.185 61.4172 27.5121C62.4742 26.1103 63.6424 24.968 63.9205 24.968C64.9219 24.968 63.3086 27.5121 60.9722 29.5889C59.0252 31.3542 58.8027 31.6658 59.804 31.5619C60.4716 31.4581 61.5841 30.7312 62.3073 29.8485C64.9219 26.7333 68.0371 25.1757 66.5907 27.6679C65.7563 29.1736 58.5245 36.1309 56.355 37.5847L54.6861 38.7269L56.4106 36.6501C57.412 35.5079 58.6914 34.106 59.359 33.5868C60.0265 33.0157 60.5272 32.3407 60.5272 32.0292C60.5272 31.7177 59.8596 32.0811 59.1365 32.8599C58.4133 33.6906 57.6345 34.3137 57.412 34.3137C57.1894 34.3137 57.4676 33.8464 58.0239 33.2753C58.5802 32.7042 58.9139 32.133 58.7471 31.9773C58.2464 31.51 47.7325 42.1537 47.7325 43.0882C47.7325 43.5555 46.3974 45.0612 44.7286 46.4111C41.8359 48.7475 40.5008 49.3706 40.5008 48.436C40.5008 48.1764 38.8319 46.1515 36.8293 43.867C32.7127 39.2461 31.6002 37.5327 31.6002 35.7155C31.6002 34.0022 37.3856 28.9659 47.0094 22.3201C51.2372 19.4126 56.2994 15.882 58.302 14.5321C60.3047 13.1302 62.0848 11.988 62.2517 11.988C62.4186 11.988 63.5311 13.3898 64.6993 15.1032ZM60.5828 27.4083C58.2464 30.4716 47.8994 38.9865 46.5643 38.9865C45.563 38.9865 46.1193 38 48.7339 35.3002C51.1815 32.7561 60.249 26.0064 61.2504 26.0064C61.5285 26.0064 61.1947 26.6295 60.5828 27.4083ZM54.6861 37.5847C52.2385 40.2845 49.3458 42.6209 48.5113 42.6209C48.3445 42.6209 50.1246 40.7518 52.5166 38.4673C54.853 36.1828 56.9113 34.4175 57.0782 34.5733C57.1894 34.6771 56.1325 36.0271 54.6861 37.5847ZM36.0505 43.9189C37.6081 45.4766 37.6637 45.4246 30.9326 50.7205C23.7565 56.3279 23.4783 56.4837 22.1432 55.3414C21.1976 54.5107 21.1419 54.303 21.8651 53.3165C22.6995 52.1743 33.8809 42.7248 34.4372 42.6729C34.6041 42.6209 35.3273 43.1921 36.0505 43.9189ZM50.959 52.9531C51.5153 53.2646 51.404 53.4723 50.4027 53.68C47.7325 54.4068 41.8915 53.8357 42.5034 52.9531C42.8928 52.382 50.0133 52.382 50.959 52.9531ZM21.9207 56.3279C22.0876 56.7952 20.975 58.6124 19.2505 60.6373C17.5817 62.5583 15.4122 65.2582 14.3552 66.6081C12.3526 69.308 11.7963 69.5156 10.1274 68.3734C9.07046 67.6465 9.12609 67.5946 10.6281 64.739C13.6877 58.8201 20.8082 53.5761 21.9207 56.3279ZM50.7921 57.1586C51.7934 57.5221 51.8491 57.574 50.9034 57.9374C49.5127 58.4566 43.4491 57.7297 44.4504 57.1067C45.3961 56.5356 49.2901 56.5356 50.7921 57.1586ZM11.0731 70.1906C12.0188 71.0733 12.1857 71.6444 11.8519 73.1501C11.3512 76.0057 8.68106 82.0804 8.1804 81.7688C7.40159 81.3535 7.56848 70.4502 8.34729 69.7233C9.29298 68.8407 9.73801 68.9445 11.0731 70.1906ZM9.57112 110.429C9.79364 111.883 9.62675 112.817 9.07046 113.544C8.23603 114.531 8.23603 114.531 7.34597 113.492C6.4559 112.454 6.4559 112.09 7.45722 104.666L7.90225 101.55L8.5698 104.925C8.90357 106.794 9.34861 109.235 9.57112 110.429Z" fill="#FFC904"/>
<path d="M62.1978 69.6195C62.1978 69.8791 62.5316 70.1387 62.921 70.1387C63.3104 70.1387 64.1448 70.9175 64.7011 71.8001C65.758 73.4097 65.8137 74.5519 65.8137 95.1643C65.8693 107.106 65.7024 116.867 65.4799 116.867C65.2574 116.867 64.0335 116.504 62.7541 116.088C60.9183 115.465 57.5806 115.309 47.9568 115.309H35.4959L35.4403 103.212C35.4403 89.1415 34.9396 83.1707 33.6602 81.3535C32.2695 79.3805 31.2125 80.2112 29.7662 84.3649C27.8748 90.0242 28.0973 98.2795 30.3781 107.677C31.3794 111.623 32.1582 115.05 32.1582 115.257C32.1582 115.673 27.986 116.867 26.4284 116.867C24.9264 116.867 24.3701 111.571 24.0364 93.5028C23.8695 83.638 23.7026 75.0192 23.7026 74.2923C23.7026 72.7347 25.6496 71.1771 27.5966 71.1771C28.5979 71.1771 28.8761 71.0213 28.4311 70.606C27.5966 69.8272 24.092 71.2809 23.2576 72.7866C22.7013 73.6693 22.7013 76.0057 23.2019 82.963C23.5913 87.9993 23.7026 95.1643 23.4801 99.1102C22.9794 109.339 24.4258 118.009 26.8734 119.048C27.5966 119.359 34.8284 119.359 46.6217 119.048C63.5885 118.58 65.2018 118.476 65.9249 117.594C66.4812 116.867 66.6481 112.402 66.6481 95.8912C66.6481 83.8976 66.4256 74.2923 66.0918 73.3058C65.313 70.8137 62.1978 67.8542 62.1978 69.6195ZM33.7158 83.3784C34.1608 84.7283 34.4946 90.2838 34.7171 100.408C35.0509 114.738 34.9953 115.413 34.0496 115.206C33.2151 115.102 32.6589 113.7 31.435 109.079C29.9887 103.835 29.8218 102.07 29.7105 94.8008C29.6549 87.9474 29.8218 86.0263 30.6562 83.7418C31.88 80.6266 32.6589 80.5228 33.7158 83.3784ZM61.9196 116.504C63.4216 116.867 64.4229 117.334 64.0892 117.542C63.0322 118.165 34.9396 118.632 34.9396 118.009C34.9396 115.932 35.1622 115.88 47.3449 115.88C55.3554 115.829 60.0283 116.036 61.9196 116.504ZM33.3264 117.75C33.7714 118.84 33.6602 118.944 31.7132 118.944C27.3185 118.944 25.7609 117.802 28.9873 116.919C31.5463 116.192 32.8257 116.452 33.3264 117.75ZM34.2165 117.49C34.0496 117.905 33.8827 117.75 33.8827 117.178C33.8271 116.607 33.9939 116.296 34.1608 116.504C34.3277 116.659 34.3833 117.127 34.2165 117.49Z" fill="#FFC904"/>
<path d="M7.3463 116.607C6.9569 117.542 7.51319 118.425 8.51451 118.425C9.34894 118.425 9.8496 117.438 9.51583 116.452C9.18206 115.569 7.7357 115.673 7.3463 116.607Z" fill="#FFC904"/>
<path d="M55.7987 14.5245C51.8491 17.2763 47.3431 20.3396 45.7855 21.3261C42.3365 23.6106 42.6703 23.4029 37.9975 27.0373C30.1538 33.2159 29.5419 34.5658 32.4346 38.6156L33.9922 40.8481L31.2664 43.1846C29.7644 44.4826 27.1499 46.6632 25.481 48.0131C23.8121 49.3631 21.9207 51.1803 21.3088 52.011C20.7525 52.8417 19.3618 54.0359 18.2492 54.607C17.1923 55.1781 15.5234 56.4242 14.5221 57.3588C12.1857 59.6433 8.79232 64.9392 8.79232 66.3929C8.79232 67.016 8.40292 67.7948 7.95788 68.1582C7.23471 68.7293 7.12345 71.3773 7.12345 86.2784C7.12345 99.8815 6.90093 104.451 6.28902 106.995C5.56584 109.85 5.56584 110.473 6.28902 112.031C7.17908 114.108 8.9592 114.471 9.90489 112.81C10.5168 111.719 10.4056 110.317 9.01483 102.478C8.5698 100.089 8.23603 95.1568 8.23603 91.4704C8.23603 84.6689 8.62543 82.8517 11.7963 75.1675C12.2413 74.0252 12.6307 72.1042 12.6863 70.9619C12.6863 69.0928 13.2983 68.1063 17.1367 63.3296C21.587 57.9299 22.9777 56.6319 29.9313 51.4399C31.9339 49.9861 34.4929 47.9093 35.6611 46.9228L37.775 45.0537L38.8319 46.3517C40.2226 48.0131 40.2226 48.1689 38.5538 48.8439C36.9962 49.5188 36.718 50.8688 38.0531 51.388C38.665 51.5956 38.8319 52.0629 38.5538 52.9456C38.3869 53.6725 38.4981 54.5551 38.8875 54.9705C39.3882 55.5416 39.1657 56.0089 38.0531 57.3069C36.5511 58.9164 36.3286 59.6952 36.9405 61.149C37.6081 62.7066 40.5008 63.4854 48.567 64.2642C56.0769 64.9392 59.9709 65.9256 59.9709 67.0679C59.9709 68.0025 57.8014 68.2621 47.065 68.5217C41.0014 68.6774 36.1617 68.9889 36.273 69.1447C36.5511 69.5601 58.3577 68.8851 59.5815 68.4178C61.1947 67.7948 60.6941 66.2891 58.5245 65.3026C57.3563 64.7834 53.9073 64.2123 50.5696 63.9007C41.3352 63.07 38.9432 62.5508 37.8862 61.0971C37.0518 59.851 37.0518 59.6952 38.1087 58.3972C39.3326 56.8396 39.9445 56.7877 47.7882 57.5146C51.0146 57.8261 52.1272 57.7742 52.461 57.255C52.7391 56.8396 52.5166 56.2685 51.8491 55.8531C51.0146 55.2301 49.6796 55.1262 45.7299 55.3858C40.2226 55.6973 38.3313 55.1262 38.9988 53.3609C39.3326 52.686 39.7776 52.5302 40.9458 52.7898C46.3974 54.0359 52.4054 53.7244 52.0716 52.1668C51.8491 51.0245 47.065 50.5572 42.5591 51.2322C39.1657 51.6995 37.8306 51.2841 38.4425 49.8303C38.8319 48.7919 46.8425 47.9612 49.8464 48.6881C50.514 48.8439 51.0703 48.74 51.0703 48.4285C51.0703 48.1689 50.1802 47.9093 49.1233 47.9093C46.62 47.9093 46.6756 47.3382 49.2901 45.521C52.9617 42.9769 59.0252 37.9406 63.6424 33.6312C66.1457 31.3467 69.4278 28.543 70.9854 27.4527C74.7125 24.7528 75.4357 23.1952 74.2119 20.2358C72.8212 16.7052 65.645 9.48828 63.6424 9.48828C63.3086 9.48828 59.804 11.7728 55.7987 14.5245ZM67.7589 13.4861C71.5417 16.7571 74.045 20.3915 72.4318 20.3915C71.2079 20.3915 65.8676 15.2514 64.4768 12.6554C63.8093 11.5132 63.5311 10.5267 63.8093 10.5267C64.1431 10.5267 65.8676 11.8766 67.7589 13.4861ZM64.6993 14.1611C67.0358 17.5359 71.9867 21.6376 73.1549 21.2223C74.3788 20.755 74.6013 22.3126 73.6 23.8702C73.0437 24.649 71.5973 26.1028 70.3179 27.0373C69.094 28.0238 65.4225 31.191 62.196 34.0466C55.2981 40.277 46.3418 47.0786 44.3948 47.6497C43.1153 48.0131 43.0597 47.9612 43.8385 47.1305C44.2835 46.6632 47.6213 44.0153 51.3484 41.2635C62.4186 33.0601 69.2609 26.2585 67.8146 24.9086C67.3139 24.4413 66.9245 24.4413 66.0901 24.9605C64.6993 25.7393 64.3656 25.7393 64.755 24.9086C65.0887 23.974 63.3643 22.5722 62.8636 23.351C62.6411 23.6625 61.3616 24.3894 60.0822 25.0124C56.6332 26.6739 49.6796 32.0217 47.1206 35.0331C44.7286 37.8887 44.5617 38.304 45.7855 38.7194C47.3431 39.2905 57.7457 31.2429 61.4172 26.5701C62.4742 25.1682 63.6424 24.026 63.9205 24.026C64.9219 24.026 63.3086 26.5701 60.9722 28.6469C59.0252 30.4122 58.8027 30.7237 59.804 30.6198C60.4716 30.516 61.5841 29.7891 62.3073 28.9065C64.9219 25.7913 68.0371 24.2336 66.5907 26.7258C65.7563 28.2315 58.5245 35.1888 56.355 36.6426L54.6861 37.7848L56.4106 35.708C57.412 34.5658 58.6914 33.1639 59.359 32.6447C60.0265 32.0736 60.5272 31.3986 60.5272 31.0871C60.5272 30.7756 59.8596 31.139 59.1365 31.9178C58.4133 32.7486 57.6345 33.3716 57.412 33.3716C57.1894 33.3716 57.4676 32.9043 58.0239 32.3332C58.5802 31.7621 58.9139 31.191 58.7471 31.0352C58.2464 30.5679 47.7325 41.2116 47.7325 42.1461C47.7325 42.6134 46.3974 44.1191 44.7286 45.469C41.8359 47.8055 40.5008 48.4285 40.5008 47.4939C40.5008 47.2343 38.8319 45.2094 36.8293 42.9249C32.7127 38.304 31.6002 36.5907 31.6002 34.7735C31.6002 33.0601 37.3856 28.0238 47.0094 21.378C51.2372 18.4705 56.2994 14.9399 58.302 13.59C60.3047 12.1881 62.0848 11.0459 62.2517 11.0459C62.4186 11.0459 63.5311 12.4477 64.6993 14.1611ZM60.5828 26.4662C58.2464 29.5295 47.8994 38.0444 46.5643 38.0444C45.563 38.0444 46.1193 37.058 48.7339 34.3581C51.1815 31.814 60.249 25.0644 61.2504 25.0644C61.5285 25.0644 61.1947 25.6874 60.5828 26.4662ZM54.6861 36.6426C52.2385 39.3424 49.3458 41.6789 48.5113 41.6789C48.3445 41.6789 50.1246 39.8097 52.5166 37.5252C54.853 35.2407 56.9113 33.4755 57.0782 33.6312C57.1894 33.7351 56.1325 35.085 54.6861 36.6426ZM36.0505 42.9769C37.6081 44.5345 37.6637 44.4826 30.9326 49.7784C23.7565 55.3858 23.4783 55.5416 22.1432 54.3993C21.1976 53.5686 21.1419 53.3609 21.8651 52.3744C22.6995 51.2322 33.8809 41.7827 34.4372 41.7308C34.6041 41.6789 35.3273 42.25 36.0505 42.9769ZM50.959 52.011C51.5153 52.3225 51.404 52.5302 50.4027 52.7379C47.7325 53.4648 41.8915 52.8937 42.5034 52.011C42.8928 51.4399 50.0133 51.4399 50.959 52.011ZM21.9207 55.3858C22.0876 55.8531 20.975 57.6703 19.2505 59.6952C17.5817 61.6163 15.4122 64.3161 14.3552 65.666C12.3526 68.3659 11.7963 68.5736 10.1274 67.4313C9.07046 66.7044 9.12609 66.6525 10.6281 63.7969C13.6877 57.878 20.8082 52.634 21.9207 55.3858ZM50.7921 56.2165C51.7934 56.58 51.8491 56.6319 50.9034 56.9953C49.5127 57.5146 43.4491 56.7877 44.4504 56.1646C45.3961 55.5935 49.2901 55.5935 50.7921 56.2165ZM11.0731 69.2485C12.0188 70.1312 12.1857 70.7023 11.8519 72.208C11.3512 75.0636 8.68106 81.1383 8.1804 80.8268C7.40159 80.4114 7.56848 69.5081 8.34729 68.7813C9.29298 67.8986 9.73801 68.0025 11.0731 69.2485ZM9.57112 109.487C9.79364 110.941 9.62675 111.875 9.07046 112.602C8.23603 113.588 8.23603 113.588 7.34597 112.55C6.4559 111.512 6.4559 111.148 7.45722 103.724L7.90225 100.608L8.5698 103.983C8.90357 105.852 9.34861 108.293 9.57112 109.487Z" fill="#FFC904"/>
<path d="M62.1978 68.6774C62.1978 68.937 62.5316 69.1966 62.921 69.1966C63.3104 69.1966 64.1448 69.9754 64.7011 70.8581C65.758 72.4676 65.8137 73.6098 65.8137 94.2222C65.8693 106.164 65.7024 115.925 65.4799 115.925C65.2574 115.925 64.0335 115.561 62.7541 115.146C60.9183 114.523 57.5806 114.367 47.9568 114.367H35.4959L35.4403 102.27C35.4403 88.1995 34.9396 82.2286 33.6602 80.4114C32.2695 78.4384 31.2125 79.2692 29.7662 83.4228C27.8748 89.0821 28.0973 97.3374 30.3781 106.735C31.3794 110.681 32.1582 114.108 32.1582 114.315C32.1582 114.731 27.986 115.925 26.4284 115.925C24.9264 115.925 24.3701 110.629 24.0364 92.5608C23.8695 82.6959 23.7026 74.0771 23.7026 73.3502C23.7026 71.7926 25.6496 70.235 27.5966 70.235C28.5979 70.235 28.8761 70.0793 28.4311 69.6639C27.5966 68.8851 24.092 70.3389 23.2576 71.8446C22.7013 72.7272 22.7013 75.0636 23.2019 82.0209C23.5913 87.0572 23.7026 94.2222 23.4801 98.1681C22.9794 108.396 24.4258 117.067 26.8734 118.106C27.5966 118.417 34.8284 118.417 46.6217 118.106C63.5885 117.638 65.2018 117.534 65.9249 116.652C66.4812 115.925 66.6481 111.46 66.6481 94.9491C66.6481 82.9555 66.4256 73.3502 66.0918 72.3638C65.313 69.8716 62.1978 66.9121 62.1978 68.6774ZM33.7158 82.4363C34.1608 83.7862 34.4946 89.3417 34.7171 99.4662C35.0509 113.796 34.9953 114.471 34.0496 114.263C33.2151 114.16 32.6589 112.758 31.435 108.137C29.9887 102.893 29.8218 101.128 29.7105 93.8588C29.6549 87.0053 29.8218 85.0842 30.6562 82.7997C31.88 79.6845 32.6589 79.5807 33.7158 82.4363ZM61.9196 115.561C63.4216 115.925 64.4229 116.392 64.0892 116.6C63.0322 117.223 34.9396 117.69 34.9396 117.067C34.9396 114.99 35.1622 114.938 47.3449 114.938C55.3554 114.886 60.0283 115.094 61.9196 115.561ZM33.3264 116.808C33.7714 117.898 33.6602 118.002 31.7132 118.002C27.3185 118.002 25.7609 116.859 28.9873 115.977C31.5463 115.25 32.8257 115.51 33.3264 116.808ZM34.2165 116.548C34.0496 116.963 33.8827 116.808 33.8827 116.236C33.8271 115.665 33.9939 115.354 34.1608 115.561C34.3277 115.717 34.3833 116.184 34.2165 116.548Z" fill="#FFC904"/>
<path d="M7.3463 115.665C6.9569 116.6 7.51319 117.482 8.51451 117.482C9.34894 117.482 9.8496 116.496 9.51583 115.509C9.18206 114.627 7.7357 114.731 7.3463 115.665Z" fill="#FFC904"/>
<path d="M54.9915 15.4666C51.0419 18.2184 46.536 21.2817 44.9783 22.2682C41.5294 24.5527 41.8631 24.345 37.1903 27.9794C29.3466 34.1579 28.7347 35.5079 31.6274 39.5576L33.185 41.7902L30.4592 44.1266C28.9572 45.4246 26.3427 47.6053 24.6738 48.9552C23.0049 50.3051 21.1136 52.1223 20.5016 52.9531C19.9453 53.7838 18.5546 54.978 17.442 55.5491C16.3851 56.1202 14.7162 57.3663 13.7149 58.3009C11.3785 60.5854 7.98513 65.8812 7.98513 67.335C7.98513 67.958 7.59573 68.7368 7.1507 69.1003C6.42753 69.6714 6.31627 72.3193 6.31627 87.2205C6.31627 100.824 6.09375 105.393 5.48183 107.937C4.75866 110.792 4.75866 111.415 5.48183 112.973C6.3719 115.05 8.15202 115.413 9.09771 113.752C9.70963 112.661 9.59837 111.26 8.20765 103.42C7.76262 101.031 7.42885 96.0988 7.42885 92.4125C7.42885 85.6109 7.81825 83.7937 10.9891 76.1095C11.4341 74.9673 11.8235 73.0462 11.8792 71.904C11.8792 70.0349 12.4911 69.0484 16.3295 64.2717C20.7798 58.872 22.1705 57.574 29.1241 52.382C31.1268 50.9282 33.6857 48.8514 34.8539 47.8649L36.9678 45.9958L38.0247 47.2938C39.4155 48.9552 39.4155 49.111 37.7466 49.7859C36.189 50.4609 35.9108 51.8108 37.2459 52.33C37.8578 52.5377 38.0247 53.005 37.7466 53.8876C37.5797 54.6145 37.691 55.4972 38.0804 55.9125C38.581 56.4837 38.3585 56.9509 37.2459 58.2489C35.7439 59.8585 35.5214 60.6373 36.1334 62.091C36.8009 63.6487 39.6936 64.4275 47.7598 65.2063C55.2697 65.8812 59.1637 66.8677 59.1637 68.01C59.1637 68.9445 56.9942 69.2041 46.2578 69.4637C40.1943 69.6195 35.3545 69.931 35.4658 70.0868C35.7439 70.5021 57.5505 69.8272 58.7743 69.3599C60.3875 68.7368 59.8869 67.2312 57.7174 66.2447C56.5492 65.7255 53.1002 65.1543 49.7624 64.8428C40.528 64.0121 38.136 63.4929 37.079 62.0391C36.2446 60.793 36.2446 60.6373 37.3016 59.3393C38.5254 57.7817 39.1373 57.7297 46.981 58.4566C50.2075 58.7682 51.32 58.7162 51.6538 58.197C51.932 57.7817 51.7094 57.2105 51.0419 56.7952C50.2075 56.1721 48.8724 56.0683 44.9227 56.3279C39.4155 56.6394 37.5241 56.0683 38.1916 54.303C38.5254 53.628 38.9704 53.4723 40.1386 53.7319C45.5903 54.978 51.5982 54.6664 51.2644 53.1088C51.0419 51.9666 46.2578 51.4993 41.7519 52.1743C38.3585 52.6416 37.0234 52.2262 37.6353 50.7724C38.0247 49.734 46.0353 48.9033 49.0393 49.6302C49.7068 49.7859 50.2631 49.6821 50.2631 49.3706C50.2631 49.111 49.373 48.8514 48.3161 48.8514C45.8128 48.8514 45.8684 48.2803 48.483 46.463C52.1545 43.9189 58.218 38.8827 62.8352 34.5733C65.3385 32.2888 68.6206 29.4851 70.1782 28.3948C73.9054 25.6949 74.6285 24.1373 73.4047 21.1778C72.014 17.6473 64.8379 10.4304 62.8352 10.4304C62.5014 10.4304 58.9968 12.7148 54.9915 15.4666ZM66.9518 14.4282C70.7345 17.6992 73.2378 21.3336 71.6246 21.3336C70.4007 21.3336 65.0604 16.1935 63.6697 13.5975C63.0021 12.4552 62.724 11.4688 63.0021 11.4688C63.3359 11.4688 65.0604 12.8187 66.9518 14.4282ZM63.8922 15.1032C66.2286 18.478 71.1796 22.5797 72.3478 22.1643C73.5716 21.6971 73.7941 23.2547 72.7928 24.8123C72.2365 25.5911 70.7901 27.0448 69.5107 27.9794C68.2868 28.9659 64.6153 32.133 61.3889 34.9886C54.4909 41.2191 45.5346 48.0206 43.5876 48.5918C42.3082 48.9552 42.2525 48.9033 43.0313 48.0726C43.4764 47.6053 46.8141 44.9573 50.5412 42.2056C61.6114 34.0022 68.4537 27.2006 67.0074 25.8507C66.5067 25.3834 66.1173 25.3834 65.2829 25.9026C63.8922 26.6814 63.5584 26.6814 63.9478 25.8507C64.2816 24.9161 62.5571 23.5143 62.0564 24.2931C61.8339 24.6046 60.5544 25.3315 59.275 25.9545C55.826 27.616 48.8724 32.9638 46.3134 35.9751C43.9214 38.8307 43.7545 39.2461 44.9783 39.6615C46.536 40.2326 56.9386 32.185 60.6101 27.5121C61.667 26.1103 62.8352 24.968 63.1134 24.968C64.1147 24.968 62.5014 27.5121 60.165 29.5889C58.218 31.3542 57.9955 31.6658 58.9968 31.5619C59.6644 31.4581 60.7769 30.7312 61.5001 29.8485C64.1147 26.7333 67.2299 25.1757 65.7835 27.6679C64.9491 29.1736 57.7174 36.1309 55.5478 37.5847L53.879 38.7269L55.6035 36.6501C56.6048 35.5079 57.8842 34.106 58.5518 33.5868C59.2193 33.0157 59.72 32.3407 59.72 32.0292C59.72 31.7177 59.0525 32.0811 58.3293 32.8599C57.6061 33.6906 56.8273 34.3137 56.6048 34.3137C56.3823 34.3137 56.6604 33.8464 57.2167 33.2753C57.773 32.7042 58.1068 32.133 57.9399 31.9773C57.4392 31.51 46.9254 42.1537 46.9254 43.0882C46.9254 43.5555 45.5903 45.0612 43.9214 46.4111C41.0287 48.7475 39.6936 49.3706 39.6936 48.436C39.6936 48.1764 38.0247 46.1515 36.0221 43.867C31.9056 39.2461 30.793 37.5327 30.793 35.7155C30.793 34.0022 36.5784 28.9659 46.2022 22.3201C50.43 19.4126 55.4922 15.882 57.4948 14.5321C59.4975 13.1302 61.2776 11.988 61.4445 11.988C61.6114 11.988 62.724 13.3898 63.8922 15.1032ZM59.7756 27.4083C57.4392 30.4716 47.0922 38.9865 45.7571 38.9865C44.7558 38.9865 45.3121 38 47.9267 35.3002C50.3743 32.7561 59.4419 26.0064 60.4432 26.0064C60.7213 26.0064 60.3875 26.6295 59.7756 27.4083ZM53.879 37.5847C51.4313 40.2845 48.5386 42.6209 47.7042 42.6209C47.5373 42.6209 49.3174 40.7518 51.7094 38.4673C54.0459 36.1828 56.1041 34.4175 56.271 34.5733C56.3823 34.6771 55.3253 36.0271 53.879 37.5847ZM35.2433 43.9189C36.8009 45.4766 36.8565 45.4246 30.1254 50.7205C22.9493 56.3279 22.6712 56.4837 21.3361 55.3414C20.3904 54.5107 20.3347 54.303 21.0579 53.3165C21.8924 52.1743 33.0738 42.7248 33.6301 42.6729C33.7969 42.6209 34.5201 43.1921 35.2433 43.9189ZM50.1518 52.9531C50.7081 53.2646 50.5969 53.4723 49.5955 53.68C46.9254 54.4068 41.0843 53.8357 41.6962 52.9531C42.0856 52.382 49.2061 52.382 50.1518 52.9531ZM21.1136 56.3279C21.2804 56.7952 20.1679 58.6124 18.4434 60.6373C16.7745 62.5583 14.605 65.2582 13.548 66.6081C11.5454 69.308 10.9891 69.5156 9.32023 68.3734C8.26328 67.6465 8.31891 67.5946 9.82089 64.739C12.8805 58.8201 20.001 53.5761 21.1136 56.3279ZM49.9849 57.1586C50.9863 57.5221 51.0419 57.574 50.0962 57.9374C48.7055 58.4566 42.6419 57.7297 43.6432 57.1067C44.5889 56.5356 48.483 56.5356 49.9849 57.1586ZM10.2659 70.1906C11.2116 71.0733 11.3785 71.6444 11.0447 73.1501C10.5441 76.0057 7.87388 82.0804 7.37322 81.7688C6.59441 81.3535 6.7613 70.4502 7.5401 69.7233C8.48579 68.8407 8.93083 68.9445 10.2659 70.1906ZM8.76394 110.429C8.98645 111.883 8.81957 112.817 8.26328 113.544C7.42885 114.531 7.42885 114.531 6.53878 113.492C5.64872 112.454 5.64872 112.09 6.65004 104.666L7.09507 101.55L7.76262 104.925C8.09639 106.794 8.54142 109.235 8.76394 110.429Z" fill="#FFC904"/>
<path d="M61.3895 69.6195C61.3895 69.8791 61.7233 70.1387 62.1127 70.1387C62.5021 70.1387 63.3365 70.9175 63.8928 71.8001C64.9498 73.4097 65.0054 74.5519 65.0054 95.1643C65.061 107.106 64.8941 116.867 64.6716 116.867C64.4491 116.867 63.2253 116.504 61.9458 116.088C60.11 115.465 56.7723 115.309 47.1485 115.309H34.6876L34.632 103.212C34.632 89.1415 34.1313 83.1707 32.8519 81.3535C31.4612 79.3805 30.4042 80.2112 28.9579 84.3649C27.0665 90.0242 27.289 98.2795 29.5698 107.677C30.5711 111.623 31.3499 115.05 31.3499 115.257C31.3499 115.673 27.1777 116.867 25.6201 116.867C24.1181 116.867 23.5619 111.571 23.2281 93.5028C23.0612 83.638 22.8943 75.0192 22.8943 74.2923C22.8943 72.7347 24.8413 71.1771 26.7883 71.1771C27.7897 71.1771 28.0678 71.0213 27.6228 70.606C26.7883 69.8272 23.2837 71.2809 22.4493 72.7866C21.893 73.6693 21.893 76.0057 22.3937 82.963C22.7831 87.9993 22.8943 95.1643 22.6718 99.1102C22.1711 109.339 23.6175 118.009 26.0652 119.048C26.7883 119.359 34.0201 119.359 45.8134 119.048C62.7802 118.58 64.3935 118.476 65.1166 117.594C65.6729 116.867 65.8398 112.402 65.8398 95.8912C65.8398 83.8976 65.6173 74.2923 65.2835 73.3058C64.5047 70.8137 61.3895 67.8542 61.3895 69.6195ZM32.9075 83.3784C33.3525 84.7283 33.6863 90.2838 33.9088 100.408C34.2426 114.738 34.187 115.413 33.2413 115.206C32.4069 115.102 31.8506 113.7 30.6267 109.079C29.1804 103.835 29.0135 102.07 28.9022 94.8008C28.8466 87.9474 29.0135 86.0263 29.8479 83.7418C31.0718 80.6266 31.8506 80.5228 32.9075 83.3784ZM61.1114 116.504C62.6133 116.867 63.6147 117.334 63.2809 117.542C62.2239 118.165 34.1313 118.632 34.1313 118.009C34.1313 115.932 34.3539 115.88 46.5366 115.88C54.5471 115.829 59.22 116.036 61.1114 116.504ZM32.5181 117.75C32.9631 118.84 32.8519 118.944 30.9049 118.944C26.5102 118.944 24.9526 117.802 28.1791 116.919C30.738 116.192 32.0174 116.452 32.5181 117.75ZM33.4082 117.49C33.2413 117.905 33.0744 117.75 33.0744 117.178C33.0188 116.607 33.1857 116.296 33.3525 116.504C33.5194 116.659 33.5751 117.127 33.4082 117.49Z" fill="#FFC904"/>
<path d="M6.539 116.607C6.14959 117.542 6.70588 118.425 7.7072 118.425C8.54164 118.425 9.0423 117.438 8.70852 116.452C8.37475 115.569 6.9284 115.673 6.539 116.607Z" fill="#FFC904"/>
</g>
</g>
<defs>
<clipPath id="clip0_1135_79681">
<rect width="93.4463" height="136.524" fill="white"/>
</clipPath>
<clipPath id="clip1_1135_79681">
<rect width="141.313" height="141.313" fill="white" transform="matrix(1 0 0 -1 -34.252 150.801)"/>
</clipPath>
</defs>
</svg>