<svg xmlns="http://www.w3.org/2000/svg" width="94" height="137" viewBox="0 0 94 137" fill="none">
<g clip-path="url(#clip0_1135_80929)">
<path d="M15.1453 -13.7223C15.0523 -13.5771 15.1918 -13.3488 15.5406 -13.162C19.7724 -10.6719 23.3299 -8.01568 27.2594 -4.38419C32.677 0.575396 34.4674 3.83336 33.6769 7.21584C33.3048 8.7722 32.212 10.3493 29.4683 13.2753C26.9339 15.9937 25.5853 18.0896 24.7715 20.6005C24.0739 22.7794 24.0042 27.6975 24.6785 29.8141C25.655 32.9268 27.7244 35.915 30.0728 37.5544C31.2122 38.3429 31.3982 38.5712 31.84 39.8785C34.6767 48.3244 34.4442 58.2228 31.2354 66.8554C29.9798 70.2171 28.7243 72.6242 26.0968 76.7123C22.0743 82.9584 20.7722 85.7391 20.0281 89.5781C19.4003 92.8361 19.6329 95.098 21.7488 105.66C21.958 106.802 22.1208 108.752 22.1208 110.641C22.1208 114.874 21.7488 116.078 19.3073 119.605C18.0052 121.494 17.61 122.635 17.61 124.627C17.61 126.599 19.7956 140.627 20.3071 141.809C20.7489 142.888 22.051 143.947 22.9346 143.947C23.8647 143.947 24.539 143.2 24.9342 141.643C25.283 140.315 27.9569 128.736 31.8167 111.886C34.5604 99.8293 35.7695 93.5624 36.4206 87.7728C36.6066 86.2579 36.7461 85.7806 37.1414 85.4279C38.49 84.2243 39.0015 81.4021 38.9782 75.571C38.955 72.6243 38.8155 71.8357 38.3039 71.8357C38.0017 71.8357 37.9552 72.6035 37.9087 76.6708C37.8622 80.2815 37.7692 81.8379 37.4901 82.7924C36.9786 84.577 36.7693 84.6393 36.8623 82.9585C37.0251 80.6135 36.1415 79.2024 34.5372 79.2024C33.4443 79.2024 33.0026 79.5552 32.6073 80.6965C31.933 82.7302 32.2585 84.411 33.5606 85.4071C34.0256 85.7806 34.6302 86.0504 34.9789 86.0504H35.5835L35.4207 87.8143C35.0022 92.8361 33.4676 100.576 29.4451 117.904C25.3528 135.522 25.1202 136.518 24.4459 139.589C23.7716 142.536 23.3764 143.262 22.5626 143.034C22.3068 142.951 21.8185 142.453 21.4697 141.892C20.9582 141.042 20.7722 140.212 20.2839 136.954C19.9816 134.816 19.4468 131.434 19.1213 129.462C18.1912 123.673 18.3075 122.843 20.5164 119.543C21.2372 118.464 22.0278 117.074 22.2603 116.472C23.5159 113.172 23.4694 109.375 22.0278 102.133C20.8652 96.1771 20.5862 93.4794 20.8652 90.8647C21.2837 86.9842 22.5393 84.079 26.5618 77.7291C30.3519 71.7942 31.9562 68.4325 33.3048 63.7219C34.3977 59.7999 34.6767 57.6625 34.6767 52.6407C34.6999 47.6603 34.4442 45.5437 33.2816 41.3519C32.9793 40.2313 32.7235 39.256 32.7235 39.2145C32.7235 39.173 33.0258 39.2767 33.3978 39.4635C35.2347 40.3143 38.1644 40.8539 41.4429 40.9576C46.4188 41.1236 48.4184 40.8124 64.2063 37.4091C68.1823 36.5376 71.4376 35.8735 71.4841 35.8943C71.5771 35.998 62.9275 45.8342 61.6951 46.9963C60.672 47.9716 59.3234 48.5526 58.3934 48.4281C57.9981 48.3659 56.975 47.9508 56.1845 47.4943C54.2313 46.4152 53.4873 46.27 52.1619 46.7888C50.8598 47.3075 50.1623 48.2414 49.116 50.856C48.0929 53.4085 47.2326 54.9233 45.884 56.5004C44.4424 58.2228 43.3728 59.0528 40.3036 60.8374C37.1181 62.6636 36.4438 63.3276 36.4438 64.5727C36.4438 65.7348 37.1646 66.5441 38.7922 67.1666C41.3034 68.1212 43.7448 67.9137 46.9768 66.5026C48.6974 65.7348 49.302 65.2783 53.0222 61.958C55.3009 59.9244 57.6028 57.9945 58.1376 57.6625C59.5792 56.7702 61.5788 55.9194 64.5783 54.9233C73.5302 51.9559 81.1335 46.851 91.5735 36.8073C95.2938 33.2173 96.2936 31.661 96.3168 29.3161C96.3168 28.1125 96.2006 27.6352 95.6658 26.6392C94.3404 24.2527 91.4107 22.4059 87.5975 21.5343C85.6211 21.0985 82.1566 20.559 70.5075 18.9196C66.0432 18.2763 59.2769 17.301 55.5102 16.7407C43.2798 14.9354 39.9781 14.7486 35.909 15.6824C31.9562 16.5955 28.6312 18.8574 27.1431 21.5966C25.7713 24.2112 25.9573 26.9712 27.7709 30.7272C30.1194 35.6038 30.5844 36.6621 30.3984 36.6621C29.9566 36.6621 27.7942 34.0059 26.9106 32.408C25.4923 29.8764 25.1667 28.5068 25.1667 25.2488C25.1667 22.9039 25.2598 22.1983 25.7248 20.891C26.7246 18.0273 27.7477 16.4917 30.9564 13.0055C33.5141 10.2663 34.6069 8.35717 34.7464 6.42729C35.0487 2.67129 32.7235 -0.897948 26.3758 -6.41782C23.2834 -9.1155 20.8187 -10.9416 17.6332 -12.913C15.8428 -14.0128 15.4243 -14.1373 15.1453 -13.7223ZM49.9298 16.8652C54.2546 17.467 70.3447 19.7704 81.8078 21.4098C87.8067 22.2814 90.5272 23.0699 92.7128 24.6263C93.9219 25.4771 94.9915 27.0542 95.317 28.3823C95.6425 29.8141 95.1775 31.329 93.8987 33.0513C92.7593 34.5869 85.5513 41.2274 81.9008 44.1326C75.2276 49.4449 70.7865 51.9351 63.439 54.4045C58.2306 56.1684 57.3936 56.7079 51.8364 61.8335C48.1161 65.2367 45.7212 66.5648 42.6287 66.8761C40.2106 67.1251 37.3739 65.9423 37.3739 64.6557C37.3739 63.7842 38.4202 62.8711 40.8849 61.5638C44.9539 59.4056 47.9069 56.2306 49.581 52.2049C50.7436 49.4034 51.4179 48.1791 52.0689 47.7848C52.9757 47.2245 54.1151 47.3698 55.8357 48.3036C57.8586 49.3827 58.7654 49.5072 60.3465 48.9054C61.8579 48.3244 62.2299 47.9508 68.2753 41.0821L73.2279 35.4585L75.8321 34.8982C80.1569 33.9436 82.1798 33.1551 83.7377 31.7648C84.505 31.08 85.2723 29.7934 85.2723 29.2331C85.2723 28.3408 81.9241 28.5275 79.5059 29.5443C77.948 30.2084 75.2276 32.1175 73.8325 33.5494L72.7397 34.6492L62.3229 36.8903C49.023 39.7748 47.1861 40.0653 42.373 40.0445C38.1412 40.0445 36.095 39.671 33.5838 38.4882C32.2585 37.8449 32.119 37.7204 31.6075 36.5583C31.3052 35.8735 30.3984 33.9644 29.5846 32.3043C27.6547 28.3823 27.2826 27.1994 27.2826 25.1451C27.2826 23.6925 27.3989 23.2774 28.0267 22.0531C29.0033 20.1855 30.9797 18.4631 33.2351 17.4878C37.4204 15.7239 40.8384 15.5787 49.9298 16.8652ZM84.1097 29.7726C84.1097 30.0424 83.0634 31.2252 82.4356 31.6817C81.366 32.4288 79.5524 33.1136 77.2737 33.6739C76.0181 33.9644 74.9021 34.1719 74.7625 34.1304C74.4835 34.0474 76.7389 32.159 78.2503 31.2252C79.8082 30.2706 81.738 29.6273 83.0169 29.6066C83.6214 29.6066 84.1097 29.6896 84.1097 29.7726ZM35.6067 80.9248C35.9555 81.5889 36.002 81.9831 35.8625 83.4772C35.723 84.9506 35.63 85.2204 35.2812 85.2204C34.6069 85.2204 33.6769 84.411 33.3978 83.581C33.1188 82.7302 33.4211 80.8418 33.9326 80.3023C34.3977 79.8042 35.1417 80.0947 35.6067 80.9248Z" fill="#FFC904"/>
<path d="M16.2731 -13.7223C16.18 -13.5771 16.3196 -13.3488 16.6683 -13.162C20.9001 -10.6719 24.4576 -8.01568 28.3872 -4.38419C33.8048 0.575396 35.5952 3.83336 34.8046 7.21584C34.4326 8.7722 33.3398 10.3493 30.5961 13.2753C28.0616 15.9937 26.713 18.0896 25.8992 20.6005C25.2017 22.7794 25.1319 27.6975 25.8062 29.8141C26.7828 32.9268 28.8522 35.915 31.2006 37.5544C32.34 38.3429 32.526 38.5712 32.9677 39.8785C35.8045 48.3244 35.5719 58.2228 32.3632 66.8554C31.1076 70.2171 29.852 72.6242 27.2246 76.7123C23.202 82.9584 21.9 85.7391 21.1559 89.5781C20.5281 92.8361 20.7606 95.098 22.8765 105.66C23.0858 106.802 23.2486 108.752 23.2486 110.641C23.2486 114.874 22.8765 116.078 20.4351 119.605C19.133 121.494 18.7377 122.635 18.7377 124.627C18.7377 126.599 20.9234 140.627 21.4349 141.809C21.8767 142.888 23.1788 143.947 24.0624 143.947C24.9924 143.947 25.6667 143.2 26.062 141.643C26.4108 140.315 29.0847 128.736 32.9445 111.886C35.6882 99.8293 36.8973 93.5624 37.5483 87.7728C37.7343 86.2579 37.8738 85.7806 38.2691 85.4279C39.6177 84.2243 40.1293 81.4021 40.106 75.571C40.0828 72.6243 39.9432 71.8357 39.4317 71.8357C39.1294 71.8357 39.0829 72.6035 39.0364 76.6708C38.9899 80.2815 38.8969 81.8379 38.6179 82.7924C38.1064 84.577 37.8971 84.6393 37.9901 82.9585C38.1529 80.6135 37.2693 79.2024 35.6649 79.2024C34.5721 79.2024 34.1303 79.5552 33.7351 80.6965C33.0608 82.7302 33.3863 84.411 34.6884 85.4071C35.1534 85.7806 35.7579 86.0504 36.1067 86.0504H36.7113L36.5485 87.8143C36.13 92.8361 34.5954 100.576 30.5728 117.904C26.4805 135.522 26.248 136.518 25.5737 139.589C24.8994 142.536 24.5041 143.262 23.6903 143.034C23.4346 142.951 22.9463 142.453 22.5975 141.892C22.086 141.042 21.9 140.212 21.4117 136.954C21.1094 134.816 20.5746 131.434 20.2491 129.462C19.319 123.673 19.4353 122.843 21.6442 119.543C22.365 118.464 23.1555 117.074 23.3881 116.472C24.6437 113.172 24.5971 109.375 23.1555 102.133C21.993 96.1771 21.7139 93.4794 21.993 90.8647C22.4115 86.9842 23.6671 84.079 27.6896 77.7291C31.4796 71.7942 33.084 68.4325 34.4326 63.7219C35.5254 59.7999 35.8045 57.6625 35.8045 52.6407C35.8277 47.6603 35.5719 45.5437 34.4094 41.3519C34.1071 40.2313 33.8513 39.256 33.8513 39.2145C33.8513 39.173 34.1536 39.2767 34.5256 39.4635C36.3625 40.3143 39.2922 40.8539 42.5707 40.9576C47.5465 41.1236 49.5462 40.8124 65.3341 37.4091C69.3101 36.5376 72.5653 35.8735 72.6118 35.8943C72.7048 35.998 64.0552 45.8342 62.8229 46.9963C61.7998 47.9716 60.4512 48.5526 59.5212 48.4281C59.1259 48.3659 58.1028 47.9508 57.3122 47.4943C55.3591 46.4152 54.6151 46.27 53.2897 46.7888C51.9876 47.3075 51.2901 48.2414 50.2437 50.856C49.2207 53.4085 48.3604 54.9233 47.0118 56.5004C45.5702 58.2228 44.5006 59.0528 41.4314 60.8374C38.2459 62.6636 37.5716 63.3276 37.5716 64.5727C37.5716 65.7348 38.2924 66.5441 39.92 67.1666C42.4312 68.1212 44.8726 67.9137 48.1046 66.5026C49.8252 65.7348 50.4297 65.2783 54.15 61.958C56.4287 59.9244 58.7306 57.9945 59.2654 57.6625C60.707 56.7702 62.7066 55.9194 65.7061 54.9233C74.658 51.9559 82.2613 46.851 92.7013 36.8073C96.4215 33.2173 97.4214 31.661 97.4446 29.3161C97.4446 28.1125 97.3284 27.6352 96.7936 26.6392C95.4682 24.2527 92.5385 22.4059 88.7252 21.5343C86.7488 21.0985 83.2843 20.559 71.6353 18.9196C67.1709 18.2763 60.4047 17.301 56.6379 16.7407C44.4076 14.9354 41.1058 14.7486 37.0368 15.6824C33.084 16.5955 29.759 18.8574 28.2709 21.5966C26.8991 24.2112 27.0851 26.9712 28.8987 30.7272C31.2471 35.6038 31.7122 36.6621 31.5261 36.6621C31.0844 36.6621 28.922 34.0059 28.0384 32.408C26.62 29.8764 26.2945 28.5068 26.2945 25.2488C26.2945 22.9039 26.3875 22.1983 26.8526 20.891C27.8524 18.0273 28.8755 16.4917 32.0842 13.0055C34.6419 10.2663 35.7347 8.35717 35.8742 6.42729C36.1765 2.67129 33.8513 -0.897948 27.5036 -6.41782C24.4111 -9.1155 21.9465 -10.9416 18.761 -12.913C16.9706 -14.0128 16.5521 -14.1373 16.2731 -13.7223ZM51.0575 16.8652C55.3824 17.467 71.4725 19.7704 82.9356 21.4098C88.9345 22.2814 91.655 23.0699 93.8406 24.6263C95.0497 25.4771 96.1193 27.0542 96.4448 28.3823C96.7703 29.8141 96.3053 31.329 95.0264 33.0513C93.8871 34.5869 86.6791 41.2274 83.0286 44.1326C76.3554 49.4449 71.9143 51.9351 64.5668 54.4045C59.3584 56.1684 58.5213 56.7079 52.9642 61.8335C49.2439 65.2367 46.849 66.5648 43.7565 66.8761C41.3383 67.1251 38.5016 65.9423 38.5016 64.6557C38.5016 63.7842 39.548 62.8711 42.0126 61.5638C46.0817 59.4056 49.0346 56.2306 50.7088 52.2049C51.8714 49.4034 52.5457 48.1791 53.1967 47.7848C54.1035 47.2245 55.2428 47.3698 56.9635 48.3036C58.9864 49.3827 59.8932 49.5072 61.4743 48.9054C62.9857 48.3244 63.3577 47.9508 69.4031 41.0821L74.3557 35.4585L76.9599 34.8982C81.2847 33.9436 83.3076 33.1551 84.8655 31.7648C85.6328 31.08 86.4001 29.7934 86.4001 29.2331C86.4001 28.3408 83.0518 28.5275 80.6337 29.5443C79.0758 30.2084 76.3554 32.1175 74.9603 33.5494L73.8674 34.6492L63.4507 36.8903C50.1507 39.7748 48.3138 40.0653 43.5008 40.0445C39.2689 40.0445 37.2228 39.671 34.7116 38.4882C33.3863 37.8449 33.2468 37.7204 32.7352 36.5583C32.433 35.8735 31.5261 33.9644 30.7123 32.3043C28.7824 28.3823 28.4104 27.1994 28.4104 25.1451C28.4104 23.6925 28.5267 23.2774 29.1545 22.0531C30.131 20.1855 32.1074 18.4631 34.3628 17.4878C38.5481 15.7239 41.9661 15.5787 51.0575 16.8652ZM85.2375 29.7726C85.2375 30.0424 84.1912 31.2252 83.5634 31.6817C82.4938 32.4288 80.6802 33.1136 78.4015 33.6739C77.1459 33.9644 76.0298 34.1719 75.8903 34.1304C75.6113 34.0474 77.8667 32.159 79.3781 31.2252C80.9359 30.2706 82.8658 29.6273 84.1447 29.6066C84.7492 29.6066 85.2375 29.6896 85.2375 29.7726ZM36.7345 80.9248C37.0833 81.5889 37.1298 81.9831 36.9903 83.4772C36.8508 84.9506 36.7578 85.2204 36.409 85.2204C35.7347 85.2204 34.8046 84.411 34.5256 83.581C34.2466 82.7302 34.5489 80.8418 35.0604 80.3023C35.5254 79.8042 36.2695 80.0947 36.7345 80.9248Z" fill="#FFC904"/>
</g>
<defs>
<clipPath id="clip0_1135_80929">
<rect width="93.4463" height="136.524" fill="white"/>
</clipPath>
</defs>
</svg>