<svg xmlns="http://www.w3.org/2000/svg" width="94" height="115" viewBox="0 0 94 115" fill="none">
<g clip-path="url(#clip0_1135_6648)">
<path d="M39.7056 -2.55933C38.2823 -2.26878 35.8132 -1.62955 34.2446 -1.1356C27.3601 1.01451 22.8286 0.811134 21.6957 -1.62954C21.3472 -2.4431 21.0857 -2.4431 20.8533 -1.62954C20.3595 0.259079 21.4343 2.26391 23.4386 3.13558C24.1067 3.42614 24.1648 3.51331 23.7291 3.54236C23.4096 3.54236 22.7124 3.28086 22.1896 2.96125C21.6667 2.64164 21.1729 2.38013 21.0567 2.38013C20.7372 2.38013 21.231 7.14526 21.6957 8.48183C23.1772 12.6368 26.4016 14.0896 30.8459 12.5496C31.7174 12.2591 32.5017 12.0557 32.5598 12.1428C32.6179 12.2009 31.7755 12.6658 30.6716 13.1888C28.1444 14.3801 25.3268 14.5254 23.9615 13.5375C21.9572 12.0557 20.5919 9.35349 20.1852 6.07021C19.9819 4.32687 19.5171 4.09442 16.0604 4.09442C13.5622 4.06536 12.6037 4.29781 11.5579 5.11137C10.8608 5.66342 10.8608 7.37772 11.5579 8.39466C12.1098 9.29539 14.1142 10.1961 15.4504 10.2252C16.2056 10.2252 16.3509 10.3123 16.0313 10.5157C14.7242 11.3583 11.6741 10.2542 10.8898 8.65616C10.6284 8.07504 10.3088 7.61015 10.1927 7.61015C9.90217 7.61015 9.66979 9.12104 9.84407 10.0218C10.0184 10.9806 11.8194 12.5496 12.7489 12.5496C13.0975 12.5496 13.4751 12.6658 13.5622 12.8402C13.9689 13.5084 10.7155 12.8111 9.87313 12.0266C9.58264 11.7942 9.35025 11.2712 9.35025 10.8934C9.35025 9.99271 8.62405 10.0218 7.22974 10.9515C5.28351 12.2881 4.76064 14.4382 5.86447 16.8208C6.15496 17.5181 6.30019 18.0702 6.184 18.0702C5.77732 18.0702 5.05112 17.0823 4.84778 16.2397C4.47016 14.816 4.12158 15.0775 4.12158 16.7627C4.12158 18.2155 4.23777 18.506 5.02207 19.2905C5.80637 20.1041 6.00971 20.1622 7.17164 19.9879C7.89784 19.9007 9.26311 19.4358 10.2217 18.9419C11.1803 18.4479 11.9646 18.1574 11.9646 18.2445C11.9646 18.5351 9.96027 20.9757 8.94358 21.9346C7.8688 22.9806 5.51589 24.1719 4.61539 24.1719C3.62775 24.1719 2.0882 23.0387 1.44914 21.8474C0.98437 21.0339 0.926278 20.4237 1.01342 18.7966C1.10057 17.6634 1.2458 16.5302 1.362 16.2397C1.68153 15.4842 1.04247 15.6295 0.0838761 16.5883C-1.07805 17.7506 -1.51378 19.4358 -1.10711 21.3244C-0.932817 22.138 -0.874712 22.8644 -0.932809 22.9225C-1.31044 23.3002 -2.29808 22.2542 -2.7919 20.9467C-3.08238 20.1041 -3.43096 19.5811 -3.54715 19.7554C-3.92478 20.3656 -4.30241 23.1549 -4.12812 24.0847C-3.72144 26.2348 -1.39758 27.397 1.47819 26.8159C2.34964 26.6416 3.10489 26.5544 3.19204 26.6125C3.48252 26.9031 1.07151 28.7627 -0.0032692 29.0823C-1.13615 29.4309 -1.83331 29.3438 -3.05333 28.7627C-4.01192 28.2978 -4.15716 28.6464 -3.5181 29.7506C-2.12379 32.1622 1.3039 33.2372 3.88919 32.1041C5.3416 31.4358 5.71922 30.7675 6.00971 28.1815C6.21305 26.4673 6.99735 25.0435 7.78165 25.0435C8.13023 25.0435 8.13022 25.1598 7.7526 25.7409C7.20068 26.5835 7.17164 27.2518 7.46212 31.5811C7.66545 34.5157 7.63641 34.8934 7.08449 35.9975C6.35829 37.3922 5.19636 38.4091 4.26682 38.4091C3.25013 38.4091 2.1463 37.3341 0.461501 34.7481C-0.380898 33.4406 -1.2233 32.2784 -1.39759 32.1622C-2.50142 31.4648 -3.43095 34.5157 -3.43095 38.8159C-3.43095 41.6924 -2.90809 43.2905 -1.68806 44.3656C-0.990908 45.0048 1.39105 45.1791 3.10489 44.7142L4.00538 44.4818L4.35396 46.8353C4.73159 49.4503 5.83542 52.2396 6.9102 53.2566C7.54926 53.8668 7.60736 54.0701 7.43307 55.6682C7.0264 59.8232 8.47881 64.6173 10.8898 67.1161C12.3132 68.598 14.2885 69.7602 14.2885 69.0919C14.2885 68.8885 14.0851 68.5108 13.7946 68.3074C12.2841 67.029 10.1055 62.351 9.61169 59.213C9.26311 57.15 9.69883 54.6222 10.5703 53.7505C11.2384 53.0823 12.6617 53.1694 13.7656 53.9249C14.4046 54.3898 14.3756 54.3898 13.0975 54.3898C11.3546 54.3898 10.7155 55.058 10.7446 56.8304C10.8027 59.5617 12.807 63.6295 15.218 65.8958C16.7866 67.3486 17.9485 67.581 18.8781 66.5641C19.6043 65.8086 19.8076 64.7626 19.8076 61.6827C19.8076 59.9394 19.9238 58.9805 20.2143 58.5738C20.621 58.0217 20.65 58.0217 21.7248 58.6028C22.5381 59.0387 23.2643 59.8813 24.4263 61.7408C28.3478 67.9587 29.4226 69.4696 31.1655 71.1839C36.0746 76.0653 41.9714 78.3607 49.0301 78.1573L52.2835 78.0701L53.5907 79.0289C57.2507 81.644 61.7823 81.4406 65.6166 78.535L67.1271 77.3728L69.1024 78.3316C70.1772 78.8837 71.3972 79.6391 71.7749 80.075C72.7625 81.121 72.3558 81.0338 70.7582 79.8135C68.1729 77.8377 67.6791 77.8377 69.3058 79.7844C69.8286 80.4527 70.6129 81.6149 71.0486 82.4285C71.6587 83.5907 71.8039 83.7069 71.6587 83.0096C71.5715 82.5156 71.1649 81.644 70.7582 81.0338C69.8867 79.6972 70.2934 79.6391 71.4553 80.9466C72.1525 81.7602 72.3849 81.8764 72.5011 81.4987C72.9368 80.3655 75.1154 83.6488 76.0159 86.7578C76.4226 88.0943 76.4807 89.2275 76.3935 91.9878C76.1611 97.5374 74.883 100.646 72.1525 102.128C66.6914 105.092 51.354 103.842 40.9257 99.6004C36.6556 97.857 35.697 97.3921 33.7217 96.0846C31.3107 94.4575 30.0326 93.0628 28.9288 90.8546C28.1445 89.1984 28.0863 88.9079 27.883 83.4745C27.7668 79.6101 27.5054 76.8207 27.0697 74.8159C25.9368 69.2372 24.252 64.3268 23.3805 64.0362C23.1191 63.9491 23.032 64.8498 23.0901 67.6101C23.1482 71.1549 23.1191 71.3001 22.451 71.8522C21.5795 72.5495 20.2143 72.5495 18.2971 71.8231C17.4547 71.5035 16.6704 71.242 16.5833 71.242C16.4671 71.242 16.6994 72.259 17.048 73.5084C18.0357 76.8788 18.6166 80.6561 18.9943 86.0895C19.3428 90.8837 19.3428 90.9127 18.5585 93.7892C15.3923 105.644 16.7575 113.053 22.6543 116.017L23.7291 116.54H22.8577C21.5215 116.569 19.7786 115.639 18.4423 114.186C16.5252 112.094 15.7118 110.206 14.8985 105.964L14.3756 103.349L14.4627 106.08C15.6828 113.344 19.3719 117.411 24.4844 117.092C26.0239 117.005 26.4306 116.511 25.1234 116.336C23.8163 116.191 21.4924 114.971 20.4176 113.925C18.239 111.746 16.9318 107.097 17.3385 102.767C17.5709 100.269 18.5585 95.1258 19.1105 93.5568C20.0109 90.9418 19.3719 80.6851 17.9195 74.9321C17.5128 73.3631 17.1933 72.0265 17.1933 71.9394C17.1933 71.8813 17.5999 72.0265 18.0938 72.259C18.5585 72.5205 19.5752 72.811 20.3305 72.8982C23.061 73.2178 24.1648 71.242 23.6129 67.0871C23.4386 65.8086 23.3515 64.7045 23.4096 64.6464C23.5839 64.443 24.7168 67.3195 25.472 69.9345C26.7211 74.3219 27.3601 78.535 27.3601 82.719C27.3601 87.3679 27.7087 89.4599 28.8997 91.6682C30.5845 94.8352 34.0412 97.334 40.2285 99.8037C50.2211 103.842 64.2223 105.47 70.4967 103.319C73.7501 102.244 75.0863 100.704 76.2192 96.811C77.8169 91.3485 76.8873 85.2469 73.8082 81.3825C72.9368 80.2783 72.9368 80.2493 73.2854 78.5931C73.7792 76.2977 73.692 72.811 73.1401 71.2711C72.8787 70.5447 72.6754 69.0338 72.6463 67.6391C72.6463 66.3607 72.5301 65.0241 72.4139 64.7045C72.1815 64.1525 72.1815 64.1525 71.9782 64.7626C71.4844 66.3316 69.7415 66.8256 68.7538 65.7215C68.26 65.1694 68.26 65.0241 68.7538 62.4091C69.3639 59.0677 69.0734 56.7433 67.7953 54.6803L66.9529 53.3438L67.7953 52.3559C68.3181 51.7166 68.6086 51.0193 68.6086 50.4091V49.4793L67.5629 50.1767C66.9819 50.5835 66.2266 50.9031 65.8781 50.9031C65.4133 50.9031 65.5005 50.7868 66.2557 50.3801C67.65 49.6827 67.9114 49.1307 67.4757 48.0556C66.7495 46.3123 65.3262 46.7772 64.9776 48.8982C64.7742 50.0024 64.7452 50.0314 63.6414 50.0314C62.2761 50.0314 61.9856 49.5665 62.5375 48.259C62.8861 47.3583 64.2223 46.5447 65.3261 46.5447C67.3305 46.5447 69.48 45.0919 69.48 43.7554C69.48 42.9128 69.48 42.9128 68.26 43.6392C67.7371 43.9297 66.2557 44.3656 64.9776 44.598C62.189 45.0919 61.4918 45.4116 60.9108 46.5447C59.7489 48.782 60.7946 51.397 64.3385 55.1743C68.0567 59.1839 68.5505 61.1307 66.43 63.6295C65.3262 64.9079 64.1933 65.3147 63.0604 64.8788L62.3632 64.5883H63.1475C64.4837 64.5592 64.4547 63.9491 63.0894 63.0193C61.8113 62.1476 60.5913 62.3801 58.9646 63.8328C58.1512 64.5592 57.3088 65.1403 57.0765 65.1403C56.2922 65.1403 55.4788 64.5011 55.1012 63.6004C54.404 61.9152 55.4207 61.0726 58.4417 60.8111C60.3008 60.6367 60.3299 60.6367 60.2718 59.8232C60.1556 58.3123 59.226 56.8885 57.8317 56.1912C56.786 55.6391 56.2341 55.5229 54.8107 55.6391C53.8521 55.7263 52.8064 55.8716 52.5159 56.0169C52.0511 56.1912 52.1092 55.9878 52.8354 54.9418C53.794 53.5762 54.6074 51.3099 54.2878 50.9902C54.1716 50.9031 53.794 51.0774 53.4164 51.397C52.603 52.1525 50.4825 53.2275 49.8144 53.2275C48.4201 53.2275 47.4905 51.5423 48.2458 50.351C48.4491 50.0605 48.5653 50.1767 48.7106 50.845C48.943 51.9781 49.5239 52.4721 50.3954 52.2396C51.2087 52.0362 51.6735 51.1355 51.9349 49.1888C52.1092 47.7651 52.1092 47.707 51.2959 47.3873C50.0177 46.8934 47.1129 47.736 44.7891 49.276C42.0004 51.1355 41.8843 51.1646 43.6271 49.5084C45.8929 47.3873 47.3744 46.69 49.7854 46.69C51.4411 46.69 51.8478 46.8062 52.3997 47.3583C52.9516 47.9103 53.0678 48.2881 53.0097 49.5956C52.9516 51.0774 53.0097 51.1646 53.5035 50.9031C54.3459 50.4672 55.2464 48.753 55.2464 47.6198C55.2464 46.8062 55.014 46.3995 54.1426 45.615C51.9059 43.6101 48.8849 43.4648 42.4943 45.0919C40.4899 45.5859 38.5728 45.9346 38.1951 45.8183C37.2365 45.5859 37.3527 44.7142 38.5147 43.6973C40.9838 41.5181 45.2248 41.1694 50.3082 42.6803C56.5826 44.5689 58.9646 44.6271 62.8861 42.9709C64.1933 42.4188 65.5876 41.8668 65.9943 41.7505L66.7205 41.5762L65.9943 42.1573C65.5876 42.4769 64.6871 42.9709 63.9609 43.2324C63.2347 43.5229 62.5375 43.8426 62.3923 43.9878C61.9275 44.3946 65.239 44.2493 66.7205 43.8135C69.1024 43.0871 70.8744 40.7336 69.0153 40.7336C68.4343 40.7336 68.3181 40.6174 68.4634 40.1815C68.5796 39.8329 68.3472 39.3099 67.8533 38.6997C67.1271 37.8571 67.04 37.4503 66.8367 34.7191C66.5752 31.029 66.1686 29.2566 65.0647 26.8159C64.2514 24.9564 64.2514 24.9273 64.7452 23.9104C65.3552 22.661 65.4133 19.3486 64.8614 17.6925C64.3676 16.2397 63.9899 16.3268 64.1642 17.8668C64.3676 19.6392 63.8156 22.8644 63.1185 23.8232C62.799 24.2881 61.9275 24.9564 61.1722 25.3632C59.8941 26.0024 59.4584 26.0605 56.0017 26.0314C53.184 26.0024 51.4702 25.828 49.4368 25.3632C47.5196 24.8983 45.3119 24.6658 42.1747 24.5496C39.7056 24.4624 37.6432 24.3462 37.5851 24.3172C37.3237 24.1138 37.9627 23.3293 38.4275 23.2421C38.8632 23.184 39.2118 22.6029 39.7347 20.9758C41.4485 15.9201 44.2372 11.9976 47.0258 10.7191C49.2044 9.73122 51.993 9.84743 54.3169 11.0387C56.2922 12.0557 56.6407 11.8813 55.1883 10.6319C52.8935 8.71427 49.4949 8.1041 46.9967 9.17916C45.2248 9.93461 43.1043 11.6489 41.71 13.5375C40.1123 15.6295 38.2532 19.4068 37.7885 21.4697L37.4399 23.0096H35.6389C34.6512 23.0096 32.8212 23.0968 31.6012 23.213L29.3354 23.3874L32.3855 19.3196C35.8713 14.6707 38.4566 11.9104 41.5938 9.58594C44.2081 7.63921 45.6896 6.85471 47.9263 6.30265C52.574 5.11137 57.2508 8.24938 60.4751 14.6707C61.2885 16.2687 61.9275 17.7215 61.9275 17.954C61.9275 18.1864 62.0437 18.3607 62.1889 18.3607C62.9442 18.3607 62.7699 12.1719 61.8985 9.00483C60.7946 4.84987 57.1055 0.0847397 53.794 -1.45521C50.0177 -3.22761 44.9343 -3.63439 39.7056 -2.55933ZM50.8892 -2.09444C53.5326 -1.30994 55.3045 -0.263924 57.1926 1.6828C60.3589 4.90798 62.247 9.90555 62.1889 14.9612V17.0532L61.4918 15.5423C59.6908 11.5327 56.2922 7.61015 53.5907 6.36076C52.4868 5.86681 51.6735 5.72153 49.7273 5.72153C47.5487 5.75059 47.0258 5.86682 45.37 6.65132C42.8428 7.90071 38.8632 10.9516 36.6265 13.3632C35.6389 14.4382 33.5474 16.9951 32.0079 19.0871C30.4683 21.1501 29.0159 23.0097 28.7835 23.184C28.5511 23.3583 27.4182 23.6489 26.2273 23.8523L24.0487 24.2009L22.6253 22.8063C20.2433 20.4818 19.5171 17.983 20.5338 15.5423C21.1148 14.1767 20.9114 14.0314 19.9238 15.0484C17.6871 17.46 16.8447 21.3535 18.0357 24.0266C18.7619 25.6537 18.7328 25.6247 18.2971 25.6247C18.1228 25.6247 16.9028 26.1477 15.6247 26.7578C12.9813 28.0363 11.0931 29.5472 10.0765 31.1452C9.11787 32.6561 7.72356 36.753 7.20069 39.5714C6.70687 42.0702 6.56162 46.8353 6.9683 46.8353C7.08449 46.8353 7.34593 45.4116 7.54927 43.6682C7.95594 40.0944 8.97263 36.23 10.1055 33.9636C10.5412 33.1501 11.6741 31.6682 12.6618 30.7094C14.0561 29.2857 14.8694 28.7627 16.4671 28.1525C19.8367 26.9031 19.7495 26.874 21.6957 28.5012C24.833 31.0581 28.6092 32.5399 30.9331 32.1041C32.4145 31.8426 33.8669 30.9709 34.9127 29.8087C35.8422 28.7336 37.2365 26.1186 37.2365 25.3922C37.2365 24.7239 44.9634 24.9273 49.1463 25.7409C56.2341 27.1356 59.3422 27.0193 62.0147 25.3341C63.6123 24.3171 64.1352 23.3874 64.4838 20.9467L64.7742 19.0871L64.8033 20.8305C64.8323 22.0799 64.6581 22.9225 64.2514 23.736L63.6704 24.8983L64.5128 26.6416C65.6166 28.9079 66.2847 31.7263 66.2847 34.0799C66.3138 36.4624 66.6624 37.9733 67.4757 39.0774C68.3181 40.2106 67.9986 40.6755 65.9943 41.3147C65.1228 41.5762 63.3799 42.2154 62.1309 42.7384C58.5579 44.1622 56.5245 44.0169 48.5653 41.7505C46.2705 41.0823 42.2328 41.2857 40.1994 42.1573C38.718 42.8256 36.946 44.4527 36.946 45.1791C36.946 45.8183 37.6142 46.2542 38.5728 46.2542C39.0956 46.2542 41.129 45.8474 43.1043 45.3825C48.8558 43.9588 51.6735 44.075 53.765 45.8474C54.985 46.8643 55.1012 47.4745 54.3459 49.0726L53.7069 50.4672L53.5035 49.0435C53.3002 47.4164 52.2545 46.2832 50.9473 46.2251C47.8682 46.0508 46.0962 46.7191 43.569 48.9854C42.4652 50.0023 41.2452 50.7869 40.3156 51.1065C39.0375 51.5423 38.9504 51.6295 39.6185 51.7166C40.8385 51.8619 42.5814 51.2808 44.2662 50.1476C46.7353 48.4624 47.9844 47.9394 49.8144 47.7651L51.5573 47.6198L51.383 49.305C51.2668 50.4091 51.0054 51.1936 50.6568 51.5423C50.1339 52.0944 50.0758 52.0944 49.582 51.6004C49.2044 51.1936 49.1173 50.7578 49.2044 49.6827C49.2915 48.9273 49.2625 48.2881 49.1173 48.2881C48.7687 48.2881 47.7229 50.1767 47.5196 51.1646C47.3744 51.891 47.4615 52.2396 47.9844 52.7917C48.972 53.8377 50.6568 53.7796 52.4578 52.6464C53.794 51.7747 53.8231 51.7747 53.6488 52.414C53.2711 53.6634 52.0511 55.5229 51.1216 56.2493C50.0177 57.121 50.192 57.1791 52.1673 56.5689C54.1136 55.9588 56.815 56.0169 57.8898 56.627C58.6741 57.0919 59.8941 59.0387 59.8941 59.8232C59.8941 59.9975 59.1098 60.2299 58.1513 60.3462C56.0888 60.5786 54.5493 61.4793 54.4331 62.5544C54.375 62.9612 54.6364 63.7166 55.014 64.2687C55.566 65.0822 55.9145 65.3147 56.7569 65.3728C57.6574 65.46 58.0351 65.2566 59.2841 64.1525C60.9108 62.6997 61.637 62.5253 62.8861 63.3389C63.9318 64.0362 63.6413 64.2687 62.1599 63.92C60.3299 63.5132 60.2427 64.1234 62.0437 64.966C63.6414 65.7215 64.9485 65.5762 66.1395 64.5302C69.1605 61.8571 68.6667 59.0387 64.3095 54.4769C62.0437 52.0653 60.9689 50.1767 60.998 48.5496C61.027 46.1379 61.7823 45.4697 64.9195 45.0338C66.0814 44.8886 67.4176 44.5689 67.9405 44.3656C69.0734 43.9007 69.1605 44.1622 68.231 45.0338C67.7952 45.4406 66.8076 45.8183 65.4714 46.0508C63.1766 46.4866 62.3342 47.0677 61.9856 48.4043C61.5789 49.9152 61.8404 50.2929 63.409 50.4963C64.1933 50.6125 64.8614 50.874 64.9485 51.0774C65.1228 51.5423 66.1686 51.397 67.5338 50.6997C67.9695 50.4963 68.3181 50.3801 68.3181 50.4672C68.3181 50.874 67.4467 52.2396 66.8948 52.7045L66.2847 53.2275L67.1562 54.4769C68.6377 56.6851 68.8991 59.1258 68.1438 63.7457C67.8534 65.5181 68.1729 66.2445 69.3929 66.5641C70.2353 66.7965 70.671 66.7675 71.3391 66.4478C71.8039 66.2154 72.2396 66.012 72.2977 66.012C72.3268 66.012 72.3849 66.7384 72.3849 67.6391V69.2662L71.3101 68.3365C69.9158 67.0871 67.621 66.0701 65.9943 65.9539L64.6871 65.8667L64.7742 67.4939C64.8904 69.2662 64.5709 69.7892 63.8447 69.0338C63.3218 68.5108 63.2347 67.4067 63.6704 66.5931C64.1061 65.7505 63.6414 65.6633 60.998 66.012C57.977 66.4478 56.0598 67.2033 52.6611 69.4406C50.8892 70.6319 49.6692 71.242 49.0882 71.242C48.2458 71.242 47.3163 70.5156 46.6482 69.3534C46.3577 68.8304 46.2996 68.8304 45.8057 69.6149C44.9924 70.8353 45.0796 73.5374 45.9801 74.874C46.7934 76.0943 48.6234 77.0532 50.0758 77.0532C51.7606 77.0532 54.6364 76.0072 57.425 74.38C63.0894 71.0968 63.409 70.9515 65.21 70.9515C67.069 70.9515 68.0276 71.3001 68.0276 72.0265C68.0276 72.3461 67.8533 72.4333 67.3886 72.259C67.0109 72.1428 65.9652 71.9975 65.0647 71.9103C63.6414 71.765 63.2056 71.8522 62.1309 72.4914C60.8237 73.2469 59.0227 75.0774 59.0227 75.6294C59.0227 76.6173 62.0437 75.9781 65.8781 74.1476C67.2143 73.5084 68.6376 72.9854 69.0443 72.9854C70.1191 72.9854 71.4263 72.2299 71.8911 71.3292L72.2977 70.5447L72.6463 71.213C73.1982 72.2299 73.3725 75.6294 72.9658 77.7505C72.7625 78.7965 72.5011 79.6682 72.3849 79.6682C72.2396 79.6682 71.4844 79.2323 70.671 78.7093C69.8577 78.1573 68.6957 77.5762 68.0567 77.3437C66.9529 76.9951 66.8657 76.9951 65.7619 77.8958C61.6951 81.0919 57.0765 81.2372 53.3002 78.2735C52.2254 77.4309 52.1673 77.4018 50.163 77.6633C48.8849 77.8377 47.2291 77.8377 45.6605 77.6343C37.2365 76.6464 31.3979 72.5495 26.5758 64.3268C23.5548 59.1549 22.4219 57.8764 20.7952 57.8764C19.6624 57.8764 19.3719 58.6319 19.3428 61.7989C19.3138 66.1573 18.5876 67.4648 16.6704 66.4769C15.3342 65.7796 13.7365 63.7747 12.5165 61.2178C10.0765 56.1912 10.9189 53.7796 14.6661 55.0871C16.1185 55.6101 16.1185 55.029 14.637 54.012C12.8941 52.7917 11.8774 52.5302 10.8608 53.0532C7.92689 54.5641 8.68215 61.7989 12.3422 67.1161C13.0103 68.1331 13.0684 68.3365 12.6327 68.075C11.7903 67.6391 10.0474 65.6052 9.3793 64.3268C8.39167 62.4091 7.89784 59.8522 7.89784 56.7142C7.89784 53.8668 7.8688 53.7505 7.0264 52.6755C5.86447 51.2227 5.02207 48.9564 4.81873 46.7481C4.73159 45.7602 4.6154 44.6852 4.5573 44.3365L4.41206 43.7263L2.81441 44.2784C-1.8333 45.8474 -3.89573 42.6803 -2.82095 35.707C-2.50142 33.5569 -2.15283 32.598 -1.71711 32.598C-1.57187 32.598 -0.72948 33.7312 0.171014 35.1259C1.85581 37.7699 3.22108 38.9903 4.41206 38.9903C5.3416 38.9903 7.49117 36.6949 7.86879 35.3002C8.27547 33.8765 8.27547 32.7142 7.86879 29.8087C7.46212 26.9322 7.63641 26.0605 8.76929 25.3632C9.72788 24.782 9.64074 24.4624 8.50786 24.4624C6.91021 24.4624 5.57399 26.1477 5.57399 28.1815C5.57399 30.8547 4.32491 32.1041 1.65248 32.075C0.810077 32.075 -0.322796 31.8426 -0.845664 31.5811C-1.8914 31.0581 -3.14048 30.0121 -3.14048 29.6924C-3.14048 29.5762 -2.41427 29.5472 -1.54283 29.6343C-0.235656 29.7506 0.22912 29.6343 1.33295 28.9951C2.64012 28.2397 4.4992 26.2639 4.26682 25.9152C4.17967 25.799 3.45347 25.8862 2.61107 26.1186C1.76867 26.351 0.374356 26.4673 -0.49709 26.4092C-1.83331 26.322 -2.21093 26.1477 -2.90809 25.3632C-3.54715 24.6368 -3.72144 24.1719 -3.72144 23.0678C-3.72144 22.3123 -3.5762 21.4987 -3.43095 21.2663C-3.22762 20.9467 -3.14048 20.9176 -3.14048 21.2082C-3.14048 21.4406 -2.87904 21.9927 -2.53046 22.4576C-2.09474 23.0678 -1.68807 23.3002 -1.049 23.3002C-0.264703 23.3002 -0.177556 23.213 -0.380894 22.6319C-0.874713 21.0048 -0.845665 18.7966 -0.293749 17.8087C0.490553 16.3559 0.92628 16.3269 0.548653 17.6925C-0.0323114 19.9297 0.86818 22.6029 2.69822 23.9685C4.52825 25.305 7.8107 24.0847 10.2507 21.1791C12.0808 19 13.2718 17.2276 13.0684 17.0242C12.9813 16.937 12.2551 17.2857 11.4708 17.7506C9.66979 18.8547 7.83975 19.523 6.56163 19.523C5.51589 19.523 4.41206 18.4479 4.41206 17.431C4.41206 16.9661 4.52825 16.9951 5.16731 17.7506C5.95161 18.6804 7.0264 18.9709 7.0264 18.2445C7.0264 18.0121 6.91021 17.7215 6.73592 17.6344C6.59068 17.5472 6.24209 16.7627 6.00971 15.9201C5.60303 14.4963 5.60303 14.2639 6.03876 13.1598C6.32924 12.4334 6.88116 11.7361 7.52022 11.3583C8.56595 10.6901 8.68214 10.7191 9.17596 11.736C9.96027 13.3341 13.3879 13.8862 17.4256 13.0145C20.0981 12.4334 20.0109 12.2009 17.1642 12.4334C13.0394 12.753 10.2217 11.5327 10.2217 9.44067V8.71426L11.0641 9.615C11.5289 10.1089 12.2551 10.6319 12.6618 10.8063C13.8527 11.2421 16.0313 11.1549 17.8033 10.6029L19.3719 10.1089L16.9028 9.9346C13.9108 9.70216 12.3713 9.03387 11.7613 7.72637C11.0931 6.36076 11.4417 5.43098 12.836 4.87892C14.027 4.41403 16.4961 4.26875 18.4133 4.58836C19.459 4.7627 19.459 4.79176 19.8076 6.70943C20.3886 10.1961 22.1315 13.0726 24.3101 14.2058C25.5011 14.845 28.0283 14.7579 29.8873 14.0605C32.1241 13.2179 38.137 9.00483 37.7304 8.56899C37.6432 8.51088 36.5103 9.12104 35.2032 9.90555C31.9788 11.8813 29.9745 12.6077 27.6506 12.6658C26.1401 12.6949 25.5592 12.5496 24.6877 12.0266C23.2063 11.0968 21.9281 8.45277 21.5795 5.57626C21.4053 4.38498 21.3181 3.36803 21.3762 3.33897C21.4053 3.30992 21.9862 3.48425 22.6834 3.71669C23.4386 3.9782 24.6877 4.12347 25.7334 4.06536L27.5054 3.9782L26.1982 3.60047C22.9158 2.67069 21.26 1.36319 21.26 -0.234871V-1.07749L22.0153 -0.38015C23.9034 1.36319 27.6506 1.24697 34.7093 -0.786926C36.8299 -1.39709 39.5604 -2.06538 40.7514 -2.26877C41.9423 -2.4431 43.1043 -2.64649 43.3367 -2.70461C44.3243 -2.9661 49.4077 -2.55933 50.8892 -2.09444ZM52.1383 9.44067C52.8645 9.76028 52.6902 9.78933 50.6859 9.70216C48.5944 9.58594 48.2748 9.6731 46.532 10.5738C43.5981 12.0847 40.9838 15.8329 39.2699 20.9758C38.5437 23.0968 38.5437 23.1259 38.1661 22.8934C37.8465 22.69 38.2823 21.0339 39.299 18.6222C41.2161 14.0605 44.7019 10.3414 47.9844 9.32443C49.0882 9.00482 51.2378 9.06294 52.1383 9.44067ZM19.6914 17.6925C19.6914 19.6973 20.4176 21.2954 22.1605 23.0387C22.7996 23.6779 23.2934 24.259 23.2353 24.2881C23.2062 24.3462 22.3058 24.5787 21.26 24.8401C19.0524 25.3922 18.8781 25.276 18.1809 23.2421C17.5999 21.4406 17.7742 19.6683 18.82 17.5472C19.2266 16.7336 19.6043 16.0363 19.6333 16.0363C19.6914 16.0363 19.7205 16.7917 19.6914 17.6925ZM37.2365 23.8523C37.2365 24.3462 36.9461 24.4334 34.7093 24.6077C33.286 24.6949 31.0493 24.8983 29.684 25.0145C28.3187 25.1307 27.1859 25.2469 27.1568 25.2179C27.1278 25.1888 27.5344 24.8692 28.0573 24.5205C28.8707 23.9685 29.5969 23.8232 32.7631 23.6198C34.8255 23.5036 36.6846 23.3583 36.888 23.3293C37.0623 23.3293 37.2365 23.5617 37.2365 23.8523ZM27.3601 24.4624C27.1278 24.6077 26.4596 24.7239 25.9077 24.7239C25.0653 24.7239 25.0072 24.6658 25.472 24.4624C25.7915 24.3171 26.4597 24.2009 26.9244 24.2009C27.5925 24.1719 27.6797 24.259 27.3601 24.4624ZM24.6877 24.9273C25.8206 25.2469 25.3849 25.4794 22.7996 25.9733C20.7372 26.351 20.1562 26.3511 19.8657 26.0605C19.5462 25.7699 19.7786 25.6246 21.1729 25.2469C23.0901 24.753 23.7582 24.6949 24.6877 24.9273ZM36.5103 26.2348C34.506 31.9007 29.8873 33.2372 24.252 29.7796C22.2477 28.5302 20.5338 27.1355 20.7662 26.9031C21.2891 26.3801 30.7007 25.1598 34.8255 25.0726L36.917 25.0435L36.5103 26.2348ZM19.43 26.3801C19.4881 26.5544 18.7619 26.9031 17.8614 27.1937C13.8818 28.4431 11.2965 30.6513 9.46644 34.3995C8.18832 36.9854 8.44976 35.5907 9.75693 32.7433C10.8608 30.3607 12.2841 28.966 14.9275 27.6295C18.0647 26.0314 19.2266 25.7409 19.43 26.3801ZM69.48 41.2566C69.48 42.0411 66.6914 43.6392 65.3552 43.6392C64.7161 43.6392 64.7161 43.6392 65.4133 43.1452C65.82 42.8837 66.5752 42.3026 67.0981 41.8377C67.9695 41.0823 69.48 40.7045 69.48 41.2566ZM66.8076 47.7651C67.5919 48.5496 67.0109 50.0314 65.9362 50.0314C65.3262 50.0314 65.21 48.8982 65.7038 47.9685C66.0524 47.3292 66.3138 47.2711 66.8076 47.7651ZM62.8861 67.3195C62.6828 68.598 63.409 69.7892 64.3966 69.7892C65.239 69.7892 65.5876 68.8595 65.3261 67.2614L65.1519 66.2445L66.3719 66.4188C68.1729 66.7094 70.5258 67.9587 71.3972 69.0629C72.0944 69.9926 72.1234 70.0798 71.6877 70.9224C71.1649 71.9103 70.9615 72.0556 69.7415 72.4043C68.9862 72.6367 68.841 72.5786 68.6376 72.0265C68.1729 70.8353 67.4757 70.5156 65.2971 70.5156C63.2928 70.5156 63.0894 70.5738 60.6203 72.0556C59.1679 72.8982 56.7569 74.2057 55.2464 74.9612C52.9226 76.1234 52.1964 76.3268 50.4535 76.4139C48.5363 76.5302 48.3039 76.4721 47.4324 75.7166C45.8638 74.4091 45.1667 71.8522 45.951 70.3413C46.2415 69.7892 46.2996 69.8183 46.9677 70.6319C47.3744 71.0968 48.0425 71.5326 48.4782 71.6198C49.4658 71.8231 51.2959 71.0386 53.1549 69.673C55.4498 68.0169 57.5122 67.1452 60.6203 66.4769C60.9399 66.4188 61.608 66.3607 62.1309 66.3316C63.0313 66.3026 63.0604 66.3316 62.8861 67.3195ZM66.5752 72.5205L67.5919 72.8982L65.849 73.6827C63.6414 74.6996 59.8651 75.9781 59.6908 75.7747C59.2551 75.3389 61.4046 73.2469 63.0894 72.4914C64.048 72.0556 65.3262 72.0556 66.5752 72.5205Z" fill="#FFC904"/>
<path d="M39.7056 -2.01245C38.2823 -1.7219 35.8132 -1.08267 34.2446 -0.58873C27.3601 1.56139 22.8286 1.35801 21.6957 -1.08266C21.3472 -1.89622 21.0857 -1.89622 20.8533 -1.08266C20.3595 0.805954 21.4343 2.81078 23.4386 3.68246C24.1067 3.97301 24.1648 4.06018 23.7291 4.08923C23.4096 4.08923 22.7124 3.82774 22.1896 3.50813C21.6667 3.18851 21.1729 2.92701 21.0567 2.92701C20.7372 2.92701 21.231 7.69214 21.6957 9.0287C23.1772 13.1837 26.4016 14.6364 30.8459 13.0965C31.7174 12.8059 32.5017 12.6025 32.5598 12.6897C32.6179 12.7478 31.7755 13.2127 30.6716 13.7357C28.1444 14.927 25.3268 15.0723 23.9615 14.0844C21.9572 12.6025 20.5919 9.90037 20.1852 6.61708C19.9819 4.87374 19.5171 4.6413 16.0604 4.6413C13.5622 4.61224 12.6037 4.84468 11.5579 5.65824C10.8608 6.2103 10.8608 7.92459 11.5579 8.94154C12.1098 9.84226 14.1142 10.743 15.4504 10.772C16.2056 10.772 16.3509 10.8592 16.0313 11.0626C14.7242 11.9052 11.6741 10.8011 10.8898 9.20303C10.6284 8.62192 10.3088 8.15703 10.1927 8.15703C9.90217 8.15703 9.66979 9.66792 9.84407 10.5686C10.0184 11.5275 11.8194 13.0965 12.7489 13.0965C13.0975 13.0965 13.4751 13.2127 13.5622 13.387C13.9689 14.0553 10.7155 13.358 9.87313 12.5735C9.58264 12.341 9.35025 11.818 9.35025 11.4403C9.35025 10.5396 8.62405 10.5686 7.22974 11.4984C5.28351 12.835 4.76064 14.9851 5.86447 17.3677C6.15496 18.065 6.30019 18.6171 6.184 18.6171C5.77732 18.6171 5.05112 17.6292 4.84778 16.7866C4.47016 15.3628 4.12158 15.6243 4.12158 17.3096C4.12158 18.7623 4.23777 19.0529 5.02207 19.8374C5.80637 20.651 6.00971 20.7091 7.17164 20.5347C7.89784 20.4476 9.26311 19.9827 10.2217 19.4887C11.1803 18.9948 11.9646 18.7042 11.9646 18.7914C11.9646 19.082 9.96027 21.5226 8.94358 22.4815C7.8688 23.5275 5.51589 24.7188 4.61539 24.7188C3.62775 24.7188 2.0882 23.5856 1.44914 22.3943C0.98437 21.5807 0.926278 20.9706 1.01342 19.3435C1.10057 18.2103 1.2458 17.0771 1.362 16.7866C1.68153 16.0311 1.04247 16.1764 0.0838761 17.1352C-1.07805 18.2975 -1.51378 19.9827 -1.10711 21.8713C-0.932817 22.6848 -0.874712 23.4112 -0.932809 23.4694C-1.31044 23.8471 -2.29808 22.8011 -2.7919 21.4936C-3.08238 20.651 -3.43096 20.128 -3.54715 20.3023C-3.92478 20.9125 -4.30241 23.7018 -4.12812 24.6316C-3.72144 26.7817 -1.39758 27.9439 1.47819 27.3628C2.34964 27.1885 3.10489 27.1013 3.19204 27.1594C3.48252 27.45 1.07151 29.3095 -0.0032692 29.6292C-1.13615 29.9778 -1.83331 29.8906 -3.05333 29.3095C-4.01192 28.8447 -4.15716 29.1933 -3.5181 30.2974C-2.12379 32.7091 1.3039 33.7841 3.88919 32.6509C5.3416 31.9827 5.71922 31.3144 6.00971 28.7284C6.21305 27.0141 6.99735 25.5904 7.78165 25.5904C8.13023 25.5904 8.13022 25.7066 7.7526 26.2878C7.20068 27.1304 7.17164 27.7987 7.46212 32.1279C7.66545 35.0626 7.63641 35.4403 7.08449 36.5444C6.35829 37.9391 5.19636 38.956 4.26682 38.956C3.25013 38.956 2.1463 37.881 0.461501 35.295C-0.380898 33.9875 -1.2233 32.8253 -1.39759 32.7091C-2.50142 32.0117 -3.43095 35.0626 -3.43095 39.3628C-3.43095 42.2393 -2.90809 43.8374 -1.68806 44.9124C-0.990908 45.5517 1.39105 45.726 3.10489 45.2611L4.00538 45.0287L4.35396 47.3822C4.73159 49.9972 5.83542 52.7865 6.9102 53.8035C7.54926 54.4136 7.60736 54.617 7.43307 56.2151C7.0264 60.37 8.47881 65.1642 10.8898 67.663C12.3132 69.1448 14.2885 70.3071 14.2885 69.6388C14.2885 69.4354 14.0851 69.0577 13.7946 68.8543C12.2841 67.5758 10.1055 62.8979 9.61169 59.7599C9.26311 57.6969 9.69883 55.1691 10.5703 54.2974C11.2384 53.6291 12.6617 53.7163 13.7656 54.4717C14.4046 54.9366 14.3756 54.9366 13.0975 54.9366C11.3546 54.9366 10.7155 55.6049 10.7446 57.3773C10.8027 60.1085 12.807 64.1763 15.218 66.4427C16.7866 67.8955 17.9485 68.1279 18.8781 67.1109C19.6043 66.3555 19.8076 65.3095 19.8076 62.2296C19.8076 60.4863 19.9238 59.5274 20.2143 59.1206C20.621 58.5686 20.65 58.5686 21.7248 59.1497C22.5381 59.5855 23.2643 60.4281 24.4263 62.2877C28.3478 68.5056 29.4226 70.0165 31.1655 71.7308C36.0746 76.6121 41.9714 78.9075 49.0301 78.7042L52.2835 78.617L53.5907 79.5758C57.2507 82.1908 61.7823 81.9874 65.6166 79.0819L67.1271 77.9197L69.1024 78.8785C70.1772 79.4305 71.3972 80.186 71.7749 80.6218C72.7625 81.6678 72.3558 81.5807 70.7582 80.3603C68.1729 78.3845 67.6791 78.3845 69.3058 80.3313C69.8286 80.9995 70.6129 82.1618 71.0486 82.9753C71.6587 84.1376 71.8039 84.2538 71.6587 83.5564C71.5715 83.0625 71.1649 82.1908 70.7582 81.5807C69.8867 80.2441 70.2934 80.186 71.4553 81.4935C72.1525 82.3071 72.3849 82.4233 72.5011 82.0456C72.9368 80.9124 75.1154 84.1957 76.0159 87.3046C76.4226 88.6412 76.4807 89.7744 76.3935 92.5346C76.1611 98.0843 74.883 101.193 72.1525 102.675C66.6914 105.639 51.354 104.389 40.9257 100.147C36.6556 98.4039 35.697 97.939 33.7217 96.6315C31.3107 95.0044 30.0326 93.6097 28.9288 91.4015C28.1445 89.7453 28.0863 89.4547 27.883 84.0213C27.7668 80.1569 27.5054 77.3676 27.0697 75.3628C25.9368 69.7841 24.252 64.8737 23.3805 64.5831C23.1191 64.4959 23.032 65.3967 23.0901 68.157C23.1482 71.7017 23.1191 71.847 22.451 72.3991C21.5795 73.0964 20.2143 73.0964 18.2971 72.37C17.4547 72.0504 16.6704 71.7889 16.5833 71.7889C16.4671 71.7889 16.6994 72.8059 17.048 74.0552C18.0357 77.4257 18.6166 81.2029 18.9943 86.6363C19.3428 91.4305 19.3428 91.4596 18.5585 94.3361C15.3923 106.191 16.7575 113.6 22.6543 116.564L23.7291 117.087H22.8577C21.5215 117.116 19.7786 116.186 18.4423 114.733C16.5252 112.641 15.7118 110.753 14.8985 106.51L14.3756 103.895L14.4627 106.627C15.6828 113.891 19.3719 117.958 24.4844 117.639C26.0239 117.552 26.4306 117.058 25.1234 116.883C23.8163 116.738 21.4924 115.518 20.4176 114.472C18.239 112.292 16.9318 107.644 17.3385 103.314C17.5709 100.816 18.5585 95.6727 19.1105 94.1036C20.0109 91.4886 19.3719 81.232 17.9195 75.479C17.5128 73.91 17.1933 72.5734 17.1933 72.4862C17.1933 72.4281 17.5999 72.5734 18.0938 72.8059C18.5585 73.0674 19.5752 73.3579 20.3305 73.4451C23.061 73.7647 24.1648 71.7889 23.6129 67.6339C23.4386 66.3555 23.3515 65.2514 23.4096 65.1933C23.5839 64.9899 24.7168 67.8664 25.472 70.4814C26.7211 74.8688 27.3601 79.0819 27.3601 83.2659C27.3601 87.9148 27.7087 90.0068 28.8997 92.215C30.5845 95.3821 34.0412 97.8809 40.2285 100.351C50.2211 104.389 64.2223 106.016 70.4967 103.866C73.7501 102.791 75.0863 101.251 76.2192 97.3579C77.8169 91.8954 76.8873 85.7937 73.8082 81.9293C72.9368 80.8252 72.9368 80.7962 73.2854 79.14C73.7792 76.8446 73.692 73.3579 73.1401 71.818C72.8787 71.0916 72.6754 69.5807 72.6463 68.186C72.6463 66.9076 72.5301 65.571 72.4139 65.2514C72.1815 64.6993 72.1815 64.6993 71.9782 65.3095C71.4844 66.8785 69.7415 67.3724 68.7538 66.2683C68.26 65.7163 68.26 65.571 68.7538 62.956C69.3639 59.6146 69.0734 57.2901 67.7953 55.2272L66.9529 53.8906L67.7953 52.9027C68.3181 52.2635 68.6086 51.5662 68.6086 50.956V50.0262L67.5629 50.7236C66.9819 51.1303 66.2266 51.45 65.8781 51.45C65.4133 51.45 65.5005 51.3337 66.2557 50.9269C67.65 50.2296 67.9114 49.6776 67.4757 48.6025C66.7495 46.8592 65.3262 47.3241 64.9776 49.4451C64.7742 50.5492 64.7452 50.5783 63.6414 50.5783C62.2761 50.5783 61.9856 50.1134 62.5375 48.8059C62.8861 47.9052 64.2223 47.0916 65.3261 47.0916C67.3305 47.0916 69.48 45.6388 69.48 44.3023C69.48 43.4596 69.48 43.4596 68.26 44.186C67.7371 44.4766 66.2557 44.9124 64.9776 45.1449C62.189 45.6388 61.4918 45.9584 60.9108 47.0916C59.7489 49.3289 60.7946 51.9439 64.3385 55.7211C68.0567 59.7308 68.5505 61.6775 66.43 64.1763C65.3262 65.4548 64.1933 65.8615 63.0604 65.4257L62.3632 65.1352H63.1475C64.4837 65.1061 64.4547 64.4959 63.0894 63.5662C61.8113 62.6945 60.5913 62.9269 58.9646 64.3797C58.1512 65.1061 57.3088 65.6872 57.0765 65.6872C56.2922 65.6872 55.4788 65.048 55.1012 64.1473C54.404 62.462 55.4207 61.6194 58.4417 61.3579C60.3008 61.1836 60.3299 61.1836 60.2718 60.37C60.1556 58.8591 59.226 57.4354 57.8317 56.7381C56.786 56.186 56.2341 56.0698 54.8107 56.186C53.8521 56.2732 52.8064 56.4185 52.5159 56.5638C52.0511 56.7381 52.1092 56.5347 52.8354 55.4887C53.794 54.1231 54.6074 51.8567 54.2878 51.5371C54.1716 51.45 53.794 51.6243 53.4164 51.9439C52.603 52.6993 50.4825 53.7744 49.8144 53.7744C48.4201 53.7744 47.4905 52.0892 48.2458 50.8979C48.4491 50.6073 48.5653 50.7236 48.7106 51.3918C48.943 52.525 49.5239 53.019 50.3954 52.7865C51.2087 52.5831 51.6735 51.6824 51.9349 49.7357C52.1092 48.3119 52.1092 48.2538 51.2959 47.9342C50.0177 47.4403 47.1129 48.2829 44.7891 49.8228C42.0004 51.6824 41.8843 51.7115 43.6271 50.0553C45.8929 47.9342 47.3744 47.2369 49.7854 47.2369C51.4411 47.2369 51.8478 47.3531 52.3997 47.9052C52.9516 48.4572 53.0678 48.8349 53.0097 50.1424C52.9516 51.6243 53.0097 51.7114 53.5035 51.45C54.3459 51.0141 55.2464 49.2998 55.2464 48.1667C55.2464 47.3531 55.014 46.9463 54.1426 46.1618C51.9059 44.157 48.8849 44.0117 42.4943 45.6388C40.4899 46.1328 38.5728 46.4814 38.1951 46.3652C37.2365 46.1328 37.3527 45.2611 38.5147 44.2442C40.9838 42.065 45.2248 41.7163 50.3082 43.2272C56.5826 45.1158 58.9646 45.1739 62.8861 43.5178C64.1933 42.9657 65.5876 42.4136 65.9943 42.2974L66.7205 42.1231L65.9943 42.7042C65.5876 43.0238 64.6871 43.5178 63.9609 43.7793C63.2347 44.0698 62.5375 44.3894 62.3923 44.5347C61.9275 44.9415 65.239 44.7962 66.7205 44.3604C69.1024 43.634 70.8744 41.2805 69.0153 41.2805C68.4343 41.2805 68.3181 41.1643 68.4634 40.7284C68.5796 40.3797 68.3472 39.8568 67.8533 39.2466C67.1271 38.404 67.04 37.9972 66.8367 35.266C66.5752 31.5759 66.1686 29.8035 65.0647 27.3628C64.2514 25.5033 64.2514 25.4742 64.7452 24.4573C65.3552 23.2079 65.4133 19.8955 64.8614 18.2393C64.3676 16.7866 63.9899 16.8737 64.1642 18.4137C64.3676 20.1861 63.8156 23.4112 63.1185 24.3701C62.799 24.835 61.9275 25.5033 61.1722 25.91C59.8941 26.5492 59.4584 26.6074 56.0017 26.5783C53.184 26.5493 51.4702 26.3749 49.4368 25.91C47.5196 25.4451 45.3119 25.2127 42.1747 25.0965C39.7056 25.0093 37.6432 24.8931 37.5851 24.864C37.3237 24.6606 37.9627 23.8761 38.4275 23.789C38.8632 23.7309 39.2118 23.1497 39.7347 21.5226C41.4485 16.4669 44.2372 12.5444 47.0258 11.266C49.2044 10.2781 51.993 10.3943 54.3169 11.5856C56.2922 12.6025 56.6407 12.4282 55.1883 11.1788C52.8935 9.26115 49.4949 8.65098 46.9967 9.72604C45.2248 10.4815 43.1043 12.1958 41.71 14.0844C40.1123 16.1764 38.2532 19.9536 37.7885 22.0166L37.4399 23.5565H35.6389C34.6512 23.5565 32.8212 23.6437 31.6012 23.7599L29.3354 23.9342L32.3855 19.8665C35.8713 15.2176 38.4566 12.4573 41.5938 10.1328C44.2081 8.18609 45.6896 7.40158 47.9263 6.84953C52.574 5.65824 57.2508 8.79626 60.4751 15.2176C61.2885 16.8156 61.9275 18.2684 61.9275 18.5008C61.9275 18.7333 62.0437 18.9076 62.1889 18.9076C62.9442 18.9076 62.7699 12.7188 61.8985 9.5517C60.7946 5.39674 57.1055 0.631615 53.794 -0.908333C50.0177 -2.68073 44.9343 -3.08752 39.7056 -2.01245ZM50.8892 -1.54756C53.5326 -0.763062 55.3045 0.282951 57.1926 2.22968C60.3589 5.45486 62.247 10.4524 62.1889 15.5081V17.6001L61.4918 16.0892C59.6908 12.0795 56.2922 8.15703 53.5907 6.90763C52.4868 6.41369 51.6735 6.26841 49.7273 6.26841C47.5487 6.29746 47.0258 6.4137 45.37 7.1982C42.8428 8.44759 38.8632 11.4984 36.6265 13.91C35.6389 14.9851 33.5474 17.542 32.0079 19.634C30.4683 21.697 29.0159 23.5565 28.7835 23.7309C28.5511 23.9052 27.4182 24.1957 26.2273 24.3991L24.0487 24.7478L22.6253 23.3531C20.2433 21.0287 19.5171 18.5299 20.5338 16.0892C21.1148 14.7236 20.9114 14.5783 19.9238 15.5953C17.6871 18.0069 16.8447 21.9003 18.0357 24.5735C18.7619 26.2006 18.7328 26.1715 18.2971 26.1715C18.1228 26.1715 16.9028 26.6945 15.6247 27.3047C12.9813 28.5832 11.0931 30.0941 10.0765 31.6921C9.11787 33.203 7.72356 37.2999 7.20069 40.1182C6.70687 42.617 6.56162 47.3822 6.9683 47.3822C7.08449 47.3822 7.34593 45.9584 7.54927 44.2151C7.95594 40.6413 8.97263 36.7768 10.1055 34.5105C10.5412 33.6969 11.6741 32.2151 12.6618 31.2563C14.0561 29.8326 14.8694 29.3095 16.4671 28.6994C19.8367 27.45 19.7495 27.4209 21.6957 29.048C24.833 31.6049 28.6092 33.0868 30.9331 32.6509C32.4145 32.3895 33.8669 31.5178 34.9127 30.3555C35.8422 29.2805 37.2365 26.6655 37.2365 25.9391C37.2365 25.2708 44.9634 25.4742 49.1463 26.2878C56.2341 27.6824 59.3422 27.5662 62.0147 25.881C63.6123 24.864 64.1352 23.9342 64.4838 21.4936L64.7742 19.634L64.8033 21.3773C64.8323 22.6267 64.6581 23.4694 64.2514 24.2829L63.6704 25.4451L64.5128 27.1885C65.6166 29.4548 66.2847 32.2732 66.2847 34.6267C66.3138 37.0093 66.6624 38.5202 67.4757 39.6243C68.3181 40.7575 67.9986 41.2224 65.9943 41.8616C65.1228 42.1231 63.3799 42.7623 62.1309 43.2853C58.5579 44.709 56.5245 44.5638 48.5653 42.2974C46.2705 41.6291 42.2328 41.8325 40.1994 42.7042C38.718 43.3725 36.946 44.9996 36.946 45.726C36.946 46.3652 37.6142 46.801 38.5728 46.801C39.0956 46.801 41.129 46.3943 43.1043 45.9294C48.8558 44.5056 51.6735 44.6219 53.765 46.3943C54.985 47.4112 55.1012 48.0214 54.3459 49.6194L53.7069 51.0141L53.5035 49.5904C53.3002 47.9633 52.2545 46.8301 50.9473 46.772C47.8682 46.5977 46.0962 47.2659 43.569 49.5323C42.4652 50.5492 41.2452 51.3337 40.3156 51.6533C39.0375 52.0892 38.9504 52.1763 39.6185 52.2635C40.8385 52.4088 42.5814 51.8277 44.2662 50.6945C46.7353 49.0093 47.9844 48.4863 49.8144 48.3119L51.5573 48.1667L51.383 49.8519C51.2668 50.956 51.0054 51.7405 50.6568 52.0892C50.1339 52.6412 50.0758 52.6412 49.582 52.1473C49.2044 51.7405 49.1173 51.3047 49.2044 50.2296C49.2915 49.4742 49.2625 48.8349 49.1173 48.8349C48.7687 48.8349 47.7229 50.7236 47.5196 51.7115C47.3744 52.4378 47.4615 52.7865 47.9844 53.3386C48.972 54.3846 50.6568 54.3265 52.4578 53.1933C53.794 52.3216 53.8231 52.3216 53.6488 52.9608C53.2711 54.2102 52.0511 56.0698 51.1216 56.7962C50.0177 57.6679 50.192 57.726 52.1673 57.1158C54.1136 56.5056 56.815 56.5637 57.8898 57.1739C58.6741 57.6388 59.8941 59.5855 59.8941 60.37C59.8941 60.5444 59.1098 60.7768 58.1513 60.893C56.0888 61.1255 54.5493 62.0262 54.4331 63.1013C54.375 63.508 54.6364 64.2635 55.014 64.8155C55.566 65.6291 55.9145 65.8616 56.7569 65.9197C57.6574 66.0068 58.0351 65.8034 59.2841 64.6993C60.9108 63.2465 61.637 63.0722 62.8861 63.8858C63.9318 64.5831 63.6413 64.8155 62.1599 64.4669C60.3299 64.0601 60.2427 64.6703 62.0437 65.5129C63.6414 66.2683 64.9485 66.1231 66.1395 65.077C69.1605 62.4039 68.6667 59.5855 64.3095 55.0238C62.0437 52.6122 60.9689 50.7236 60.998 49.0964C61.027 46.6848 61.7823 46.0165 64.9195 45.5807C66.0814 45.4354 67.4176 45.1158 67.9405 44.9124C69.0734 44.4475 69.1605 44.709 68.231 45.5807C67.7952 45.9875 66.8076 46.3652 65.4714 46.5977C63.1766 47.0335 62.3342 47.6146 61.9856 48.9512C61.5789 50.4621 61.8404 50.8398 63.409 51.0432C64.1933 51.1594 64.8614 51.4209 64.9485 51.6243C65.1228 52.0892 66.1686 51.9439 67.5338 51.2466C67.9695 51.0432 68.3181 50.9269 68.3181 51.0141C68.3181 51.4209 67.4467 52.7865 66.8948 53.2514L66.2847 53.7744L67.1562 55.0238C68.6377 57.232 68.8991 59.6727 68.1438 64.2925C67.8534 66.0649 68.1729 66.7913 69.3929 67.1109C70.2353 67.3434 70.671 67.3143 71.3391 66.9947C71.8039 66.7623 72.2396 66.5589 72.2977 66.5589C72.3268 66.5589 72.3849 67.2853 72.3849 68.186V69.8131L71.3101 68.8833C69.9158 67.6339 67.621 66.617 65.9943 66.5008L64.6871 66.4136L64.7742 68.0407C64.8904 69.8131 64.5709 70.3361 63.8447 69.5807C63.3218 69.0577 63.2347 67.9536 63.6704 67.14C64.1061 66.2974 63.6414 66.2102 60.998 66.5589C57.977 66.9947 56.0598 67.7502 52.6611 69.9875C50.8892 71.1787 49.6692 71.7889 49.0882 71.7889C48.2458 71.7889 47.3163 71.0625 46.6482 69.9003C46.3577 69.3773 46.2996 69.3773 45.8057 70.1618C44.9924 71.3821 45.0796 74.0843 45.9801 75.4209C46.7934 76.6412 48.6234 77.6 50.0758 77.6C51.7606 77.6 54.6364 76.554 57.425 74.9269C63.0894 71.6436 63.409 71.4984 65.21 71.4984C67.069 71.4984 68.0276 71.847 68.0276 72.5734C68.0276 72.893 67.8533 72.9802 67.3886 72.8059C67.0109 72.6896 65.9652 72.5444 65.0647 72.4572C63.6414 72.3119 63.2056 72.3991 62.1309 73.0383C60.8237 73.7937 59.0227 75.6243 59.0227 76.1763C59.0227 77.1642 62.0437 76.525 65.8781 74.6945C67.2143 74.0553 68.6376 73.5322 69.0443 73.5322C70.1191 73.5322 71.4263 72.7768 71.8911 71.8761L72.2977 71.0916L72.6463 71.7599C73.1982 72.7768 73.3725 76.1763 72.9658 78.2974C72.7625 79.3434 72.5011 80.215 72.3849 80.215C72.2396 80.215 71.4844 79.7792 70.671 79.2562C69.8577 78.7042 68.6957 78.123 68.0567 77.8906C66.9529 77.5419 66.8657 77.5419 65.7619 78.4427C61.6951 81.6388 57.0765 81.784 53.3002 78.8204C52.2254 77.9778 52.1673 77.9487 50.163 78.2102C48.8849 78.3845 47.2291 78.3845 45.6605 78.1812C37.2365 77.1933 31.3979 73.0964 26.5758 64.8737C23.5548 59.7018 22.4219 58.4233 20.7952 58.4233C19.6624 58.4233 19.3719 59.1788 19.3428 62.3458C19.3138 66.7042 18.5876 68.0117 16.6704 67.0238C15.3342 66.3264 13.7365 64.3216 12.5165 61.7647C10.0765 56.7381 10.9189 54.3265 14.6661 55.634C16.1185 56.157 16.1185 55.5759 14.637 54.5589C12.8941 53.3386 11.8774 53.0771 10.8608 53.6001C7.92689 55.111 8.68215 62.3458 12.3422 67.663C13.0103 68.68 13.0684 68.8833 12.6327 68.6218C11.7903 68.186 10.0474 66.1521 9.3793 64.8737C8.39167 62.956 7.89784 60.3991 7.89784 57.2611C7.89784 54.4136 7.8688 54.2974 7.0264 53.2223C5.86447 51.7696 5.02207 49.5032 4.81873 47.295C4.73159 46.3071 4.6154 45.232 4.5573 44.8834L4.41206 44.2732L2.81441 44.8253C-1.8333 46.3943 -3.89573 43.2272 -2.82095 36.2538C-2.50142 34.1037 -2.15283 33.1449 -1.71711 33.1449C-1.57187 33.1449 -0.72948 34.2781 0.171014 35.6727C1.85581 38.3168 3.22108 39.5371 4.41206 39.5371C5.3416 39.5371 7.49117 37.2417 7.86879 35.8471C8.27547 34.4233 8.27547 33.2611 7.86879 30.3555C7.46212 27.479 7.63641 26.6074 8.76929 25.91C9.72788 25.3289 9.64074 25.0093 8.50786 25.0093C6.91021 25.0093 5.57399 26.6945 5.57399 28.7284C5.57399 31.4016 4.32491 32.6509 1.65248 32.6219C0.810077 32.6219 -0.322796 32.3895 -0.845664 32.1279C-1.8914 31.6049 -3.14048 30.5589 -3.14048 30.2393C-3.14048 30.1231 -2.41427 30.094 -1.54283 30.1812C-0.235656 30.2974 0.22912 30.1812 1.33295 29.542C2.64012 28.7865 4.4992 26.8108 4.26682 26.4621C4.17967 26.3459 3.45347 26.433 2.61107 26.6655C1.76867 26.8979 0.374356 27.0141 -0.49709 26.956C-1.83331 26.8689 -2.21093 26.6945 -2.90809 25.91C-3.54715 25.1836 -3.72144 24.7187 -3.72144 23.6146C-3.72144 22.8592 -3.5762 22.0456 -3.43095 21.8132C-3.22762 21.4936 -3.14048 21.4645 -3.14048 21.7551C-3.14048 21.9875 -2.87904 22.5396 -2.53046 23.0045C-2.09474 23.6146 -1.68807 23.8471 -1.049 23.8471C-0.264703 23.8471 -0.177556 23.7599 -0.380894 23.1788C-0.874713 21.5517 -0.845665 19.3435 -0.293749 18.3556C0.490553 16.9028 0.92628 16.8737 0.548653 18.2393C-0.0323114 20.4766 0.86818 23.1497 2.69822 24.5154C4.52825 25.8519 7.8107 24.6316 10.2507 21.726C12.0808 19.5468 13.2718 17.7745 13.0684 17.5711C12.9813 17.4839 12.2551 17.8326 11.4708 18.2974C9.66979 19.4016 7.83975 20.0698 6.56163 20.0698C5.51589 20.0698 4.41206 18.9948 4.41206 17.9778C4.41206 17.5129 4.52825 17.542 5.16731 18.2974C5.95161 19.2272 7.0264 19.5178 7.0264 18.7914C7.0264 18.559 6.91021 18.2684 6.73592 18.1812C6.59068 18.0941 6.24209 17.3096 6.00971 16.4669C5.60303 15.0432 5.60303 14.8108 6.03876 13.7067C6.32924 12.9803 6.88116 12.2829 7.52022 11.9052C8.56595 11.2369 8.68214 11.266 9.17596 12.2829C9.96027 13.881 13.3879 14.4331 17.4256 13.5614C20.0981 12.9803 20.0109 12.7478 17.1642 12.9803C13.0394 13.2999 10.2217 12.0795 10.2217 9.98754V9.26114L11.0641 10.1619C11.5289 10.6558 12.2551 11.1788 12.6618 11.3531C13.8527 11.789 16.0313 11.7018 17.8033 11.1498L19.3719 10.6558L16.9028 10.4815C13.9108 10.249 12.3713 9.58075 11.7613 8.27325C11.0931 6.90763 11.4417 5.97785 12.836 5.4258C14.027 4.96091 16.4961 4.81563 18.4133 5.13524C19.459 5.30957 19.459 5.33863 19.8076 7.2563C20.3886 10.743 22.1315 13.6195 24.3101 14.7527C25.5011 15.3919 28.0283 15.3047 29.8873 14.6074C32.1241 13.7648 38.137 9.5517 37.7304 9.11587C37.6432 9.05775 36.5103 9.66792 35.2032 10.4524C31.9788 12.4282 29.9745 13.1546 27.6506 13.2127C26.1401 13.2418 25.5592 13.0965 24.6877 12.5735C23.2063 11.6437 21.9281 8.99964 21.5795 6.12314C21.4053 4.93185 21.3181 3.91491 21.3762 3.88585C21.4053 3.8568 21.9862 4.03112 22.6834 4.26357C23.4386 4.52507 24.6877 4.67035 25.7334 4.61224L27.5054 4.52507L26.1982 4.14735C22.9158 3.21757 21.26 1.91006 21.26 0.312004V-0.530617L22.0153 0.166725C23.9034 1.91006 27.6506 1.79385 34.7093 -0.240051C36.8299 -0.85022 39.5604 -1.5185 40.7514 -1.72189C41.9423 -1.89622 43.1043 -2.09962 43.3367 -2.15773C44.3243 -2.41923 49.4077 -2.01245 50.8892 -1.54756ZM52.1383 9.98754C52.8645 10.3072 52.6902 10.3362 50.6859 10.249C48.5944 10.1328 48.2748 10.22 46.532 11.1207C43.5981 12.6316 40.9838 16.3798 39.2699 21.5226C38.5437 23.6437 38.5437 23.6727 38.1661 23.4403C37.8465 23.2369 38.2823 21.5807 39.299 19.1691C41.2161 14.6074 44.7019 10.8883 47.9844 9.87131C49.0882 9.5517 51.2378 9.60982 52.1383 9.98754ZM19.6914 18.2393C19.6914 20.2442 20.4176 21.8422 22.1605 23.5856C22.7996 24.2248 23.2934 24.8059 23.2353 24.835C23.2062 24.8931 22.3058 25.1255 21.26 25.387C19.0524 25.9391 18.8781 25.8229 18.1809 23.789C17.5999 21.9875 17.7742 20.2151 18.82 18.0941C19.2266 17.2805 19.6043 16.5832 19.6333 16.5832C19.6914 16.5832 19.7205 17.3386 19.6914 18.2393ZM37.2365 24.3991C37.2365 24.8931 36.9461 24.9802 34.7093 25.1546C33.286 25.2418 31.0493 25.4451 29.684 25.5614C28.3187 25.6776 27.1859 25.7938 27.1568 25.7648C27.1278 25.7357 27.5344 25.4161 28.0573 25.0674C28.8707 24.5154 29.5969 24.3701 32.7631 24.1667C34.8255 24.0505 36.6846 23.9052 36.888 23.8761C37.0623 23.8761 37.2365 24.1086 37.2365 24.3991ZM27.3601 25.0093C27.1278 25.1546 26.4596 25.2708 25.9077 25.2708C25.0653 25.2708 25.0072 25.2127 25.472 25.0093C25.7915 24.864 26.4597 24.7478 26.9244 24.7478C27.5925 24.7187 27.6797 24.8059 27.3601 25.0093ZM24.6877 25.4742C25.8206 25.7938 25.3849 26.0262 22.7996 26.5202C20.7372 26.8979 20.1562 26.8979 19.8657 26.6074C19.5462 26.3168 19.7786 26.1715 21.1729 25.7938C23.0901 25.2999 23.7582 25.2418 24.6877 25.4742ZM36.5103 26.7817C34.506 32.4476 29.8873 33.7841 24.252 30.3265C22.2477 29.0771 20.5338 27.6824 20.7662 27.45C21.2891 26.927 30.7007 25.7066 34.8255 25.6195L36.917 25.5904L36.5103 26.7817ZM19.43 26.927C19.4881 27.1013 18.7619 27.45 17.8614 27.7405C13.8818 28.9899 11.2965 31.1982 9.46644 34.9463C8.18832 37.5323 8.44976 36.1376 9.75693 33.2902C10.8608 30.9076 12.2841 29.5129 14.9275 28.1764C18.0647 26.5783 19.2266 26.2878 19.43 26.927ZM69.48 41.8035C69.48 42.588 66.6914 44.186 65.3552 44.186C64.7161 44.186 64.7161 44.186 65.4133 43.6921C65.82 43.4306 66.5752 42.8495 67.0981 42.3846C67.9695 41.6291 69.48 41.2514 69.48 41.8035ZM66.8076 48.3119C67.5919 49.0964 67.0109 50.5783 65.9362 50.5783C65.3262 50.5783 65.21 49.4451 65.7038 48.5153C66.0524 47.8761 66.3138 47.818 66.8076 48.3119ZM62.8861 67.8664C62.6828 69.1448 63.409 70.3361 64.3966 70.3361C65.239 70.3361 65.5876 69.4063 65.3261 67.8083L65.1519 66.7913L66.3719 66.9657C68.1729 67.2562 70.5258 68.5056 71.3972 69.6097C72.0944 70.5395 72.1234 70.6267 71.6877 71.4693C71.1649 72.4572 70.9615 72.6025 69.7415 72.9511C68.9862 73.1836 68.841 73.1255 68.6376 72.5734C68.1729 71.3821 67.4757 71.0625 65.2971 71.0625C63.2928 71.0625 63.0894 71.1206 60.6203 72.6025C59.1679 73.4451 56.7569 74.7526 55.2464 75.508C52.9226 76.6703 52.1964 76.8736 50.4535 76.9608C48.5363 77.077 48.3039 77.0189 47.4324 76.2635C45.8638 74.956 45.1667 72.3991 45.951 70.8882C46.2415 70.3361 46.2996 70.3652 46.9677 71.1787C47.3744 71.6436 48.0425 72.0795 48.4782 72.1666C49.4658 72.37 51.2959 71.5855 53.1549 70.2199C55.4498 68.5637 57.5122 67.6921 60.6203 67.0238C60.9399 66.9657 61.608 66.9076 62.1309 66.8785C63.0313 66.8494 63.0604 66.8785 62.8861 67.8664ZM66.5752 73.0674L67.5919 73.4451L65.849 74.2296C63.6414 75.2465 59.8651 76.525 59.6908 76.3216C59.2551 75.8858 61.4046 73.7937 63.0894 73.0383C64.048 72.6025 65.3262 72.6025 66.5752 73.0674Z" fill="#FFC904"/>
</g>
<defs>
<clipPath id="clip0_1135_6648">
<rect width="113.991" height="113.991" fill="white" transform="translate(-20.5869 0.257812)"/>
</clipPath>
</defs>
</svg>