<svg xmlns="http://www.w3.org/2000/svg" width="94" height="137" viewBox="0 0 94 137" fill="none">
<g clip-path="url(#clip0_1135_5332)">
<path d="M8.78297 71.4556C7.93646 72.8676 7.64881 73.9493 4.86156 85.3351C1.64854 98.4723 -0.463875 105.396 -2.54386 109.47C-2.94885 110.244 -3.17852 110.982 -3.0678 111.071C-2.80206 111.286 -2.76736 111.243 -1.40468 108.33C0.619608 103.962 2.68773 97.0027 5.66629 84.564C8.3967 73.2034 8.45172 72.9992 10.0461 70.8413C12.3249 67.7442 15.6439 64.9889 22.6386 60.4409C27.3553 57.3574 27.5307 57.3213 32.9901 57.7128C34.6034 57.8425 36.9624 57.8634 38.2484 57.7645C40.9436 57.5952 42.2919 58.0081 43.7523 59.5056C45.9135 61.675 46.1519 62.6483 45.0314 64.7625L44.5444 65.6834L44.0979 64.9682C43.7938 64.4389 43.3288 64.0638 42.4371 63.6285C41.1659 63.0293 40.4315 62.0819 40.8132 61.6086C40.9173 61.4796 40.876 61.3042 40.7653 61.2149C40.6324 61.1077 40.3356 61.2944 40.0754 61.6171C39.312 62.5635 36.5012 62.6042 34.7525 61.6908C33.388 60.9807 32.6753 60.8674 32.7376 61.3792C32.7346 61.5188 33.2912 61.8258 33.922 62.086C34.5749 62.3641 35.533 62.8529 36.0549 63.2029C36.5941 63.5313 38.1974 64.3984 39.6583 65.0797C43.0528 66.717 43.8057 67.3243 43.4354 68.0553C42.553 69.829 41.7556 71.3161 41.5647 71.5527C41.4086 71.7463 40.776 71.307 39.172 69.9422C37.4747 68.4666 36.8247 68.0489 36.1784 67.9892C34.6392 67.8128 34.8374 68.2922 36.9423 69.6704C39.6354 71.4522 40.8091 72.3989 40.8618 72.832C40.8685 73.0504 40.5897 73.7131 40.2272 74.3439L39.5494 75.5014L38.6636 74.7869C37.2463 73.6438 34.3475 72.7967 33.8617 73.399C33.5147 73.8292 34.7673 74.7686 36.7608 75.5599C37.9559 76.0268 38.9882 76.469 39.0768 76.5404C39.1654 76.6119 38.9531 77.3282 38.6097 78.1164C38.2885 78.9225 37.9721 79.768 37.8824 80.0151C37.7801 80.3232 37.6221 80.3378 37.2899 80.0699C36.6035 79.5161 34.7842 79.0074 33.7352 79.0844C33.2391 79.1103 32.2141 79.3841 31.4924 79.6897C30.6398 80.0671 28.4819 80.3859 25.5497 80.5771C20.4357 80.8903 19.7894 80.8306 18.7313 80.0126C18.3548 79.7089 17.9533 79.527 17.8665 79.6346C17.5542 80.0218 18.1763 82.0148 18.8521 82.8084C20.2257 84.4134 24.303 86.2465 28.9972 87.4054C33.4005 88.4718 34.7917 87.9252 36.566 84.4567C37.0781 83.414 37.5854 82.3319 37.6703 82.0454C37.7851 81.6764 37.9209 81.644 38.2531 81.9119C38.4967 82.1084 39.1256 82.1896 39.6121 82.085C40.4098 81.9117 40.697 81.6463 41.6195 80.3666C42.706 78.7931 43.1575 77.4176 43.0418 75.9751C42.9968 75.4417 43.1039 75.173 43.3457 75.1905C44.7095 75.4029 45.6453 71.116 44.7239 68.633C44.3257 67.4953 44.7732 66.578 45.4597 67.1317C45.7033 67.3282 46.3418 67.4882 46.8995 67.4765C47.7163 67.4608 47.9784 67.3171 48.2273 66.7367C48.4983 66.1742 48.3521 65.6303 47.5853 64.0886C46.6934 62.3395 46.6107 61.9888 46.9073 60.4882C47.3168 58.4398 46.9183 54.6742 46.1503 53.4512C45.7528 52.8111 45.6875 52.4389 45.9496 52.2952C46.1375 52.1982 46.3092 51.8041 46.266 51.4498C46.2306 50.9952 46.3946 50.7013 46.8224 50.4428C47.626 49.9903 48.017 48.282 47.4365 47.7782C46.9936 47.421 46.9936 47.421 47.6967 47.4555C49.5644 47.5418 51.5312 49.5897 53.8944 53.9103C55.5957 57.0578 56.0877 57.4901 57.6387 57.108L58.6069 56.8593L59.0135 58.3944C59.4757 60.223 60.0611 60.7661 61.5589 60.7671C62.4152 60.7477 62.8563 60.926 63.4638 61.487L64.2532 62.2303L65.618 60.8102C67.721 58.5654 69.4887 58.3225 69.0917 60.3101C68.5333 63.2682 64.6379 68.5054 63.8747 67.3217C63.5802 66.8712 64.419 65.5594 66.3138 63.5728C68.0998 61.6758 68.4372 61.1669 67.9943 60.8096C67.2635 60.2202 63.7106 62.8577 62.2443 65.0835C61.1279 66.7394 60.9731 67.9282 61.726 68.5355C62.036 68.7856 62.2623 69.0036 62.2449 69.0251C62.2102 69.0681 61.5222 69.6493 60.6683 70.3453C59.8319 71.0198 58.1955 72.5048 57.0563 73.6452C55.9171 74.7856 54.2316 76.1955 53.346 76.7949C50.3926 78.7798 48.5238 82.4561 49.4224 84.4236C49.8803 85.3966 50.6277 85.4669 51.9112 84.6914C54.9359 82.7994 54.8665 82.8855 53.7592 81.9924C52.2756 80.7957 53.2273 78.936 56.3011 77.1191C57.6587 76.2969 58.6514 75.4288 60.7323 73.1662C63.004 70.667 63.7268 70.0428 65.8659 68.7503C68.3191 67.2496 68.3712 67.1851 69.3768 65.4398C70.7402 63.0245 70.9249 61.7533 70.5448 57.6476C70.3937 55.7505 70.3466 53.7242 70.4548 53.1369C70.6916 51.8012 72.6533 49.0519 74.5297 47.4054C76.698 45.5328 77.0235 45.5824 75.4321 47.6007C72.7524 51.0136 71.6041 54.703 71.7981 59.0846C71.899 61.2253 71.5164 63.331 70.5313 66.229C69.6108 69.0016 70.637 71.8531 72.7722 72.3327C73.5119 72.5032 73.245 72.6075 71.1614 72.8796C67.7445 73.3545 66.7165 73.768 63.2533 76.1584C61.6132 77.2853 59.2294 78.7 57.9836 79.2929C55.3388 80.5326 54.9774 80.8447 55.1589 81.8432C55.4057 83.2139 56.189 82.9226 60.874 79.7425C65.7074 76.4691 68.5545 75.2506 72.5069 74.7461C77.2666 74.1471 77.0392 74.2477 79.208 71.559L81.0819 69.2358L81.8836 65.1604C83.2893 57.8439 84.6102 55.5719 93.9483 44.3573C98.3571 39.0726 101.132 35.9496 102.32 34.8843C104.179 33.2593 104.318 33.0872 103.79 33.0165C102.976 32.8926 99.1885 37.0449 92.1964 45.7136C83.2609 56.7914 82.7046 57.7984 81.2661 65.3368C80.9086 67.3208 80.3787 69.2012 80.1358 69.5024C79.7667 69.9147 79.76 69.6964 80.1075 68.4499C80.3401 67.5724 80.8915 65.2122 81.3058 63.2031C81.7202 61.194 82.3612 58.5866 82.7626 57.4546C83.4486 55.3805 83.5344 53.4615 82.9587 52.9971C82.5158 52.6399 81.9846 53.525 81.2513 55.703C79.9863 59.5824 79.3594 60.994 77.5593 64.0867C76.571 65.8104 75.3734 68.1109 74.923 69.1678C74.4725 70.2247 73.9605 71.2673 73.7696 71.5039C73.2838 72.1062 72.1946 71.6893 71.4506 70.6631C70.5642 69.451 70.54 67.9403 71.418 65.311C72.3558 62.5169 72.5154 61.3675 72.3522 58.7149C72.1109 54.4372 73.419 50.9122 76.5361 47.3196C77.6609 46.061 78.778 44.9027 79.0401 44.7591C79.3416 44.6118 79.4236 44.4648 79.2686 44.3398C78.8921 44.0361 75.7453 45.581 74.3692 46.7434C72.6837 48.1532 70.8069 50.616 70.1597 52.1887C69.7188 53.3244 69.6807 54.3233 69.9583 57.4231C70.342 61.8867 70.1149 63.3013 68.6264 65.5091C67.7135 66.8676 67.3174 67.2227 65.8759 68.0128C63.7793 69.162 62.1728 70.5646 59.8017 73.2323C58.4861 74.7274 57.3325 75.7498 55.8312 76.7047C52.6157 78.8332 51.5964 80.9579 53.2129 82.2618C53.678 82.6369 53.6481 82.7193 52.8463 83.3508C50.6761 85.0444 49.7312 84.9923 49.8267 83.152C49.9059 81.0146 51.5284 78.5952 53.8284 77.1485C54.6099 76.6781 56.5257 75.028 58.0562 73.4931C59.6088 71.976 61.3936 70.3977 62.0392 69.9598C63.6099 68.9189 63.6099 68.9189 62.647 68.3907C61.4943 67.7805 61.5235 67.2005 62.8259 65.2686C63.9076 63.6557 66.4248 61.532 67.2984 61.4911C67.5749 61.4655 67.545 61.5479 67.1788 61.8206C66.1054 62.517 63.1182 66.3564 63.1332 66.9722C63.1549 67.8063 64.0293 68.263 64.9041 67.9035C66.7106 67.1593 69.9416 61.3862 69.6277 59.4643C69.2983 57.7429 67.3206 58.0649 65.4401 60.1697L64.1544 61.5824L63.6163 60.9354C63.1985 60.4564 62.7353 60.2603 61.7066 60.1762C60.4757 60.0709 60.3033 59.9674 59.9184 59.2664C59.6682 58.8515 59.4365 58.0965 59.3915 57.5632C59.2872 56.3784 58.9598 56.1498 57.7768 56.4383C56.2701 56.8562 55.832 56.5383 54.4647 53.8377C52.4749 49.9604 50.3717 47.4473 48.7517 47.0993C48.3819 47.014 47.6392 46.9831 47.121 46.9911C46.5459 47.0243 45.6907 46.7251 44.9396 46.2968C44.2502 45.8827 43.2969 45.4333 42.7421 45.3054L41.7732 45.0564L40.3996 46.8954L39.0307 48.7737L37.3372 48.97C35.7006 49.1411 34.237 49.9133 33.1074 51.1325C32.1908 52.1329 30.6761 54.7812 30.6517 55.4006C30.6051 56.0021 30.6715 56.0557 31.702 56.3188C33.0581 56.6315 38.7472 56.2851 39.9236 55.7783C40.5489 55.5015 41.0317 55.0389 41.7712 53.8956C43.0341 51.9673 46.2516 47.8876 46.5108 47.8836C46.8267 47.8544 46.9616 49.4545 46.7014 49.7771C46.5799 49.9277 46.2784 50.075 46.0019 50.1005C45.6464 50.1334 45.5471 50.3018 45.5921 50.8352C45.6179 51.211 45.4337 51.666 45.1937 51.8275C44.8275 52.1002 44.8659 52.4152 45.4693 53.4345C46.2882 54.9116 46.7285 58.0362 46.398 60.0774L46.1834 61.4311L45.6453 60.784C43.1051 57.6344 41.7501 57.0031 38.0011 57.2101C36.4734 57.2915 34.2724 57.2559 33.0588 57.1291C30.1702 56.8585 27.396 57.0352 26.1454 57.5887C24.5142 58.2967 17.1773 63.3144 14.346 65.6463C11.3711 68.111 9.8329 69.7461 8.78297 71.4556ZM35.4901 50.0364C36.7706 49.4006 38.4785 49.3224 39.898 49.8283C41.15 50.2701 41.3977 50.0083 40.4455 49.2402L39.7368 48.6687L40.9292 47.1451L42.1437 45.6394L43.5112 46.2098C45.9727 47.2366 45.9948 47.2544 44.3908 49.3336C43.6322 50.3195 42.3848 52.0472 41.6184 53.1333C40.2939 55.0473 40.1676 55.1585 39.0809 55.4182C35.873 56.1326 30.8864 56.0159 31.1854 55.192C31.771 53.605 34.1875 50.6545 35.4901 50.0364ZM25.5995 81.1498C28.8303 80.9509 30.8523 80.6646 31.7223 80.2657C33.4229 79.4715 35.3869 79.529 36.5288 80.3791C37.3655 81.0184 37.3703 81.0578 36.832 82.5409C35.6088 85.7794 34.1573 87.307 32.2125 87.407C31.018 87.4377 26.7284 86.321 24.2717 85.3336C21.0389 84.0397 19.3625 82.9006 18.792 81.6593L18.3514 80.6648L19.5591 81.0708C20.3305 81.338 22.4698 81.3593 25.5995 81.1498ZM39.6501 62.5522C40.2012 62.3221 40.3466 62.3684 40.6381 62.9586C40.871 63.395 41.2965 63.7737 42.0159 64.1054C43.3708 64.7367 44.3171 65.784 44.2059 66.511C44.1102 67.0374 44.0091 67.0269 43.234 66.4017C42.769 66.0266 41.2495 65.1915 39.8551 64.5638C36.7042 63.123 36.7042 63.123 37.9806 62.9453C38.5508 62.8727 39.309 62.7032 39.6501 62.5522ZM37.5454 69.3758C37.7986 69.6511 37.5867 69.5512 37.0996 69.1582C36.595 68.7868 36.4083 68.5651 36.6596 68.6614C36.9158 68.797 37.3144 69.1185 37.5454 69.3758ZM36.7701 74.3248C37.2776 74.5566 38.0066 74.9671 38.3657 75.2922C38.9414 75.7566 38.8451 75.7854 37.6105 75.3222C36.8169 75.0371 35.7846 74.595 35.3118 74.3202C34.4769 73.8598 34.4548 73.8419 35.1184 73.8802C35.4787 73.8867 36.2405 74.0751 36.7701 74.3248ZM46.6744 63.4959C47.1395 63.871 47.9597 66.3434 47.7168 66.6445C47.3871 67.0532 45.9096 66.8911 45.5092 66.3906C45.0423 65.8365 46.143 63.0672 46.6744 63.4959ZM44.3171 69.228C44.6978 70.3873 44.4303 73.438 43.8924 74.1048C43.2331 74.9222 42.8758 74.776 42.2784 73.4775C41.7887 72.4079 41.8264 72.2253 42.5245 70.9066C42.969 70.129 43.4829 69.2653 43.6863 68.9678C44.0458 68.4767 44.068 68.4946 44.3171 69.228ZM41.7992 74.2982C42.3912 75.0597 42.6332 76.391 42.4341 77.5442C42.1925 78.8406 41.9951 78.8588 41.4563 77.7141C41.1648 77.1239 40.7895 76.5016 40.568 76.323C40.3244 76.1266 40.3112 75.6898 40.5427 75.1309C41.1253 73.6836 41.2737 73.5902 41.7992 74.2982ZM40.3988 77.3938C41.4846 78.7666 41.0374 80.9977 39.6144 81.4477C38.3447 81.8437 38.1052 81.189 38.8181 79.1722C39.7028 76.7613 39.8069 76.6322 40.3988 77.3938ZM57.9466 79.9731C58.9746 79.5597 61.2101 78.2383 62.8848 77.0683C66.6969 74.4268 67.8781 73.9593 72.001 73.3794C73.8082 73.1328 75.9122 72.6995 76.6829 72.4691L78.1058 72.0191L77.568 72.6859C76.9781 73.4173 76.2815 73.6011 71.3262 74.3973C69.6992 74.6471 67.597 75.2594 66.4601 75.7626C64.6854 76.6034 63.4019 77.3789 58.2274 80.8032C56.2684 82.099 55.5767 82.3222 55.658 81.6776C55.7123 80.9759 55.9522 80.8143 57.9466 79.9731ZM82.7704 53.9103C83.0361 54.1247 82.7318 55.7255 82.0206 57.9213C81.6193 59.0533 80.8808 62.0081 80.3659 64.5043C79.0457 70.7179 78.9686 70.9042 77.1226 71.6521C76.3046 71.9864 75.2227 72.2855 74.7266 72.3114L73.8135 72.3559L74.3166 71.7321C74.5942 71.388 75.0889 70.3668 75.4574 69.4568C75.8037 68.529 76.9667 66.2715 78.0417 64.4403C79.4099 62.0643 80.3251 60.0687 81.1828 57.6005C82.4921 53.7569 82.5268 53.7138 82.7704 53.9103Z" fill="#FFC904"/>
<path d="M8.43629 71.1744C7.58978 72.5864 7.30213 73.6681 4.51488 85.0539C1.30186 98.191 -0.810555 105.115 -2.89054 109.189C-3.29553 109.963 -3.5252 110.701 -3.41448 110.79C-3.14874 111.005 -3.11404 110.962 -1.75135 108.049C0.272928 103.681 2.34105 96.7214 5.31961 84.2827C8.05002 72.9221 8.10504 72.718 9.69944 70.56C11.9783 67.4629 15.2972 64.7077 22.2919 60.1596C27.0087 57.0762 27.184 57.0401 32.6434 57.4316C34.2567 57.5612 36.6157 57.5822 37.9017 57.4833C40.5969 57.3139 41.9452 57.7269 43.4056 59.2244C45.5668 61.3937 45.8052 62.3671 44.6847 64.4812L44.1978 65.4022L43.7512 64.6869C43.4471 64.1576 42.9821 63.7825 42.0904 63.3473C40.8193 62.7481 40.0848 61.8006 40.4665 61.3274C40.5706 61.1983 40.5293 61.023 40.4186 60.9337C40.2857 60.8265 39.989 61.0132 39.7287 61.3358C38.9653 62.2823 36.1545 62.323 34.4058 61.4095C33.0413 60.6995 32.3286 60.5861 32.3909 61.098C32.3879 61.2376 32.9445 61.5445 33.5753 61.8048C34.2282 62.0829 35.1863 62.5717 35.7082 62.9216C36.2475 63.25 37.8508 64.1172 39.3116 64.7985C42.7061 66.4358 43.459 67.0431 43.0887 67.7741C42.2064 69.5477 41.4089 71.0348 41.2181 71.2714C41.0619 71.465 40.4293 71.0258 38.8253 69.661C37.128 68.1854 36.478 67.7676 35.8317 67.7079C34.2926 67.5316 34.4907 68.011 36.5956 69.3892C39.2888 71.171 40.4624 72.1176 40.5152 72.5507C40.5218 72.7691 40.243 73.4319 39.8805 74.0626L39.2027 75.2201L38.3169 74.5057C36.8997 73.3625 34.0008 72.5155 33.515 73.1178C33.168 73.548 34.4206 74.4874 36.4141 75.2787C37.6092 75.7456 38.6415 76.1877 38.7301 76.2592C38.8187 76.3306 38.6064 77.047 38.263 77.8352C37.9418 78.6413 37.6254 79.4867 37.5357 79.7339C37.4334 80.0419 37.2754 80.0565 36.9433 79.7886C36.2568 79.2349 34.4375 78.7261 33.3885 78.8031C32.8924 78.829 31.8674 79.1029 31.1458 79.4084C30.2931 79.7858 28.1353 80.1046 25.2031 80.2959C20.0891 80.6091 19.4428 80.5493 18.3846 79.7313C18.0082 79.4277 17.6066 79.2458 17.5198 79.3533C17.2075 79.7405 17.8296 81.7335 18.5054 82.5271C19.879 84.1322 23.9563 85.9652 28.6505 87.1242C33.0538 88.1906 34.445 87.644 36.2193 84.1754C36.7314 83.1327 37.2387 82.0507 37.3236 81.7641C37.4384 81.3952 37.5743 81.3627 37.9064 81.6307C38.15 81.8271 38.779 81.9084 39.2655 81.8037C40.0631 81.6305 40.3503 81.3651 41.2728 80.0854C42.3593 78.5119 42.8109 77.1364 42.6951 75.6938C42.6501 75.1605 42.7572 74.8918 42.999 74.9092C44.3628 75.1217 45.2986 70.8347 44.3772 68.3518C43.9791 67.214 44.4265 66.2968 45.113 66.8505C45.3566 67.047 45.9951 67.207 46.5528 67.1953C47.3697 67.1795 47.6317 67.0359 47.8806 66.4555C48.1516 65.8929 48.0055 65.349 47.2386 63.8073C46.3467 62.0582 46.2641 61.7075 46.5606 60.207C46.9702 58.1585 46.5716 54.393 45.8036 53.1699C45.4061 52.5298 45.3408 52.1576 45.6029 52.0139C45.7908 51.917 45.9625 51.5229 45.9193 51.1685C45.884 50.7139 46.0479 50.4201 46.4757 50.1616C47.2793 49.7091 47.6704 48.0007 47.0898 47.4969C46.6469 47.1397 46.6469 47.1397 47.3501 47.1743C49.2177 47.2605 51.1845 49.3085 53.5478 53.6291C55.249 56.7766 55.741 57.2089 57.292 56.8267L58.2602 56.578L58.6668 58.1131C59.1291 59.9417 59.7144 60.4849 61.2122 60.4859C62.0686 60.4665 62.5096 60.6447 63.1171 61.2057L63.9066 61.949L65.2713 60.5289C67.3743 58.2842 69.142 58.0413 68.745 60.0289C68.1866 62.987 64.2912 68.2242 63.528 67.0405C63.2335 66.5899 64.0723 65.2782 65.9671 63.2915C67.7531 61.3946 68.0905 60.8856 67.6476 60.5284C66.9168 59.939 63.3639 62.5765 61.8976 64.8022C60.7812 66.4581 60.6264 67.647 61.3793 68.2543C61.6894 68.5043 61.9156 68.7223 61.8983 68.7438C61.8635 68.7869 61.1755 69.368 60.3217 70.064C59.4852 70.7385 57.8488 72.2235 56.7096 73.3639C55.5704 74.5044 53.8849 75.9142 52.9994 76.5136C50.0459 78.4985 48.1771 82.1749 49.0757 84.1424C49.5336 85.1153 50.2811 85.1856 51.5645 84.4101C54.5892 82.5182 54.5198 82.6042 53.4126 81.7111C51.9289 80.5144 52.8806 78.6547 55.9544 76.8379C57.3121 76.0157 58.3047 75.1476 60.3856 72.885C62.6573 70.3858 63.3801 69.7616 65.5192 68.469C67.9725 66.9683 68.0245 66.9038 69.0301 65.1586C70.3935 62.7433 70.5782 61.472 70.1981 57.3664C70.047 55.4692 69.9999 53.443 70.1082 52.8557C70.3449 51.5199 72.3066 48.7706 74.183 47.1241C76.3513 45.2516 76.6769 45.3011 75.0854 47.3195C72.4057 50.7323 71.2574 54.4217 71.4514 58.8034C71.5523 60.9441 71.1697 63.0498 70.1846 65.9478C69.2641 68.7203 70.2903 71.5718 72.4255 72.0514C73.1652 72.222 72.8983 72.3263 70.8147 72.5984C67.3978 73.0733 66.3698 73.4868 62.9066 75.8771C61.2665 77.0041 58.8827 78.4188 57.6369 79.0116C54.9921 80.2513 54.6307 80.5634 54.8122 81.5619C55.059 82.9327 55.8423 82.6413 60.5273 79.4613C65.3608 76.1879 68.2078 74.9693 72.1603 74.4648C76.9199 73.8659 76.6926 73.9665 78.8614 71.2777L80.7352 68.9546L81.537 64.8791C82.9426 57.5626 84.2635 55.2906 93.6016 44.076C98.0104 38.7914 100.785 35.6684 101.974 34.603C103.833 32.978 103.971 32.806 103.444 32.7353C102.63 32.6114 98.8419 36.7637 91.8497 45.4323C82.9143 56.5102 82.3579 57.5171 80.9194 65.0556C80.5619 67.0396 80.032 68.92 79.7891 69.2211C79.42 69.6335 79.4134 69.4151 79.7608 68.1687C79.9935 67.2911 80.5448 64.9309 80.9592 62.9218C81.3735 60.9127 82.0146 58.3053 82.4159 57.1733C83.1019 55.0993 83.1878 53.1802 82.612 52.7158C82.1691 52.3586 81.6379 53.2438 80.9046 55.4217C79.6396 59.3011 79.0127 60.7127 77.2126 63.8054C76.2243 65.5291 75.0267 67.8296 74.5763 68.8865C74.1259 69.9434 73.6138 70.9861 73.423 71.2227C72.9371 71.825 71.848 71.408 71.1039 70.3818C70.2175 69.1697 70.1933 67.659 71.0713 65.0297C72.0091 62.2357 72.1687 61.0862 72.0055 58.4337C71.7642 54.1559 73.0723 50.6309 76.1894 47.0383C77.3143 45.7798 78.4313 44.6215 78.6934 44.4778C78.9949 44.3305 79.0769 44.1836 78.9219 44.0585C78.5454 43.7549 75.3986 45.2998 74.0225 46.4621C72.337 47.872 70.4602 50.3347 69.813 51.9075C69.3721 53.0431 69.334 54.042 69.6116 57.1419C69.9954 61.6055 69.7682 63.02 68.2797 65.2279C67.3668 66.5863 66.9707 66.9414 65.5293 67.7315C63.4326 68.8808 61.8261 70.2834 59.455 72.951C58.1394 74.4462 56.9858 75.4685 55.4846 76.4234C52.2691 78.552 51.2497 80.6767 52.8663 81.9806C53.3313 82.3557 53.3014 82.4381 52.4996 83.0696C50.3295 84.7631 49.3846 84.7111 49.48 82.8707C49.5592 80.7333 51.1817 78.314 53.4817 76.8672C54.2632 76.3969 56.179 74.7467 57.7095 73.2118C59.2621 71.6948 61.0469 70.1165 61.6926 69.6786C63.2632 68.6376 63.2632 68.6376 62.3003 68.1095C61.1476 67.4993 61.1768 66.9193 62.4793 64.9874C63.5609 63.3745 66.0781 61.2507 66.9518 61.2098C67.2282 61.1843 67.1983 61.2667 66.8321 61.5394C65.7587 62.2358 62.7715 66.0752 62.7865 66.6909C62.8082 67.525 63.6826 67.9818 64.5574 67.6222C66.3639 66.878 69.5949 61.105 69.281 59.1831C68.9516 57.4616 66.9739 57.7837 65.0935 59.8884L63.8077 61.3012L63.2696 60.6541C62.8518 60.1751 62.3886 59.979 61.3599 59.8949C60.129 59.7896 59.9566 59.6861 59.5717 58.9851C59.3215 58.5703 59.0898 57.8153 59.0448 57.2819C58.9405 56.0971 58.6131 55.8685 57.4301 56.157C55.9234 56.5749 55.4853 56.257 54.118 53.5565C52.1282 49.6792 50.025 47.1661 48.405 46.818C48.0352 46.7327 47.2925 46.7018 46.7743 46.7099C46.1992 46.7431 45.3441 46.4439 44.593 46.0156C43.9035 45.6015 42.9502 45.152 42.3954 45.0241L41.4265 44.7752L40.0529 46.6141L38.6841 48.4925L36.9906 48.6887C35.3539 48.8598 33.8903 49.6321 32.7607 50.8512C31.8441 51.8517 30.3294 54.4999 30.305 55.1193C30.2584 55.7209 30.3248 55.7744 31.3554 56.0376C32.7114 56.3503 38.4005 56.0039 39.5769 55.497C40.2022 55.2203 40.685 54.7576 41.4245 53.6143C42.6874 51.6861 45.905 47.6064 46.1641 47.6024C46.48 47.5732 46.615 49.1732 46.3547 49.4959C46.2333 49.6464 45.9317 49.7938 45.6552 49.8193C45.2998 49.8521 45.2004 50.0206 45.2454 50.5539C45.2712 50.9298 45.087 51.3848 44.8471 51.5463C44.4809 51.819 44.5192 52.134 45.1226 53.1532C45.9415 54.6304 46.3819 57.755 46.0513 59.7962L45.8367 61.1498L45.2986 60.5028C42.7584 57.3531 41.4035 56.7218 37.6544 56.9288C36.1267 57.0102 33.9257 56.9747 32.7121 56.8479C29.8235 56.5772 27.0493 56.7539 25.7987 57.3074C24.1675 58.0155 16.8307 63.0331 13.9994 65.3651C11.0245 67.8297 9.48622 69.4649 8.43629 71.1744ZM35.1434 49.7552C36.4239 49.1193 38.1318 49.0412 39.5513 49.5471C40.8033 49.9888 41.051 49.727 40.0988 48.959L39.3902 48.3874L40.5825 46.8638L41.7971 45.3581L43.1645 45.9285C45.626 46.9553 45.6481 46.9732 44.0441 49.0524C43.2855 50.0382 42.0381 51.766 41.2717 52.852C39.9472 54.7661 39.8209 54.8773 38.7343 55.1369C35.5263 55.8513 30.5397 55.7347 30.8387 54.9108C31.4243 53.3238 33.8408 50.3732 35.1434 49.7552ZM25.2528 80.8686C28.4836 80.6697 30.5056 80.3833 31.3756 79.9844C33.0762 79.1903 35.0402 79.2477 36.1821 80.0978C37.0188 80.7372 37.0236 80.7766 36.4853 82.2596C35.2621 85.4981 33.8106 87.0257 31.8658 87.1258C30.6714 87.1565 26.3817 86.0398 23.9251 85.0524C20.6922 83.7584 19.0158 82.6193 18.4453 81.378L18.0047 80.3835L19.2124 80.7896C19.9838 81.0567 22.1231 81.0781 25.2528 80.8686ZM39.3034 62.271C39.8545 62.0409 39.9999 62.0872 40.2914 62.6774C40.5243 63.1137 40.9498 63.4925 41.6692 63.8242C43.0241 64.4555 43.9704 65.5028 43.8592 66.2297C43.7635 66.7562 43.6624 66.7456 42.8874 66.1204C42.4223 65.7453 40.9028 64.9102 39.5084 64.2826C36.3575 62.8417 36.3575 62.8417 37.6339 62.6641C38.2042 62.5915 38.9623 62.4219 39.3034 62.271ZM37.1987 69.0946C37.4519 69.3698 37.2401 69.2699 36.7529 68.877C36.2484 68.5055 36.0616 68.2839 36.313 68.3801C36.5691 68.5157 36.9677 68.8372 37.1987 69.0946ZM36.4234 74.0435C36.9309 74.2754 37.6599 74.6858 38.019 75.011C38.5947 75.4754 38.4984 75.5042 37.2638 75.0409C36.4702 74.7559 35.4379 74.3138 34.9651 74.0389C34.1302 73.5785 34.1081 73.5607 34.7717 73.5989C35.132 73.6054 35.8938 73.7939 36.4234 74.0435ZM46.3277 63.2146C46.7928 63.5897 47.613 66.0621 47.3701 66.3633C47.0405 66.772 45.563 66.6098 45.1625 66.1093C44.6957 65.5552 45.7963 62.786 46.3277 63.2146ZM43.9704 68.9468C44.3512 70.1061 44.0836 73.1567 43.5457 73.8235C42.8864 74.6409 42.5292 74.4948 41.9317 73.1963C41.442 72.1267 41.4797 71.944 42.1778 70.6254C42.6223 69.8477 43.1362 68.984 43.3396 68.6865C43.6992 68.1955 43.7213 68.2133 43.9704 68.9468ZM41.4525 74.0169C42.0445 74.7784 42.2865 76.1098 42.0874 77.2629C41.8459 78.5593 41.6484 78.5776 41.1096 77.4329C40.8181 76.8427 40.4428 76.2204 40.2213 76.0418C39.9777 75.8453 39.9645 75.4086 40.196 74.8497C40.7786 73.4023 40.927 73.309 41.4525 74.0169ZM40.0522 77.1125C41.1379 78.4854 40.6907 80.7165 39.2677 81.1665C37.998 81.5625 37.7585 80.9077 38.4715 78.8909C39.3561 76.48 39.4602 76.351 40.0522 77.1125ZM57.5999 79.6919C58.6279 79.2784 60.8634 77.9571 62.5381 76.7871C66.3502 74.1455 67.5314 73.6781 71.6544 73.0981C73.4615 72.8515 75.5655 72.4183 76.3362 72.1878L77.7592 71.7379L77.2213 72.4047C76.6314 73.136 75.9349 73.3198 70.9795 74.116C69.3525 74.3659 67.2504 74.9781 66.1134 75.4813C64.3387 76.3221 63.0552 77.0976 57.8807 80.522C55.9217 81.8178 55.23 82.0409 55.3113 81.3964C55.3656 80.6946 55.6056 80.5331 57.5999 79.6919ZM82.4237 53.6291C82.6894 53.8434 82.3851 55.4442 81.6739 57.64C81.2726 58.772 80.5341 61.7268 80.0193 64.223C78.699 70.4367 78.6219 70.623 76.7759 71.3708C75.9579 71.7052 74.876 72.0042 74.38 72.0301L73.4668 72.0747L73.9699 71.4509C74.2475 71.1067 74.7423 70.0855 75.1107 69.1756C75.457 68.2477 76.62 65.9903 77.695 64.159C79.0632 61.7831 79.9784 59.7874 80.8361 57.3193C82.1454 53.4756 82.1801 53.4326 82.4237 53.6291Z" fill="#FFC904"/>
</g>
<defs>
<clipPath id="clip0_1135_5332">
<rect width="93.4463" height="136.524" fill="white"/>
</clipPath>
</defs>
</svg>