<svg xmlns="http://www.w3.org/2000/svg" width="94" height="137" viewBox="0 0 94 137" fill="none">
<g clip-path="url(#clip0_1135_76716)">
<path d="M37.5353 -1.0856C36.232 -0.960582 35.3807 -0.793899 34.3086 -0.450113C32.2381 0.216622 31.166 0.935446 27.6345 4.02951C25.4589 5.93596 24.1871 6.65479 21.2442 7.66531C20.3824 7.96742 19.3839 8.33204 19.0265 8.49872C17.0611 9.38423 15.7473 10.801 14.8434 13.0513C14.1077 14.864 13.8869 16.4162 13.7293 20.5312C13.5926 24.5108 13.3824 25.9068 12.7623 27.0527C12.4365 27.6778 11.6587 28.5216 11.7638 28.1362C12.983 23.9899 13.1722 22.9898 12.8464 22.3752C12.6362 21.9689 12.0792 21.6772 11.6903 21.7709C10.7128 22.0105 9.4936 24.6045 9.35697 26.7298C9.30441 27.5215 9.32543 27.6674 9.54615 28.0841C9.80891 28.5945 10.3555 29.0217 10.7443 29.0217C10.881 29.0217 10.9966 29.0633 10.9966 29.105C10.9966 29.4175 9.44105 33.5221 8.63175 35.3244C7.43357 37.9913 6.43508 39.8665 4.26994 43.4711C1.81051 47.5548 0.906621 49.6488 0.906621 51.2323C0.906621 52.1907 1.06428 52.6908 1.55826 53.2325C2.04174 53.7951 2.47267 53.9617 4.15433 54.3055C6.59274 54.7952 9.74585 55.9828 10.6182 56.7433C10.8705 56.962 11.1122 57.2746 11.1437 57.4204C11.2488 57.8163 11.0386 58.2538 10.6287 58.5039C10.0086 58.8789 9.33594 58.9414 6.89754 58.806C2.27297 58.5455 -0.554322 59.1081 -2.51976 60.6812C-2.9612 61.0354 -3.22396 61.3375 -3.33957 61.6396C-3.68641 62.5043 -3.29753 62.9731 -0.901165 64.5566C1.90511 66.4005 4.85852 67.5881 8.35848 68.2653C9.6933 68.5257 9.97708 68.5466 12.6993 68.5466C14.6016 68.557 15.6527 68.5153 15.7263 68.4424C15.7998 68.3695 15.7157 68.0153 15.4635 67.2444C13.7923 62.3689 12.6993 58.0351 12.3209 54.7535C12.1317 53.1596 12.1002 50.0655 12.2578 48.6591C12.6257 45.4504 13.6032 42.6064 15.1692 40.2207C16.483 38.2309 17.5551 37.0537 23.4724 31.0844C24.9964 29.553 26.2366 28.2299 26.2366 28.1466C26.2366 28.0528 26.0685 27.9382 25.8162 27.8757C25.3538 27.7507 25.3538 27.7299 25.8267 26.8131C25.9529 26.5631 26.5625 25.2609 27.1826 23.9066C28.7591 20.4375 29.7261 18.8123 31.208 17.1142C32.4588 15.6974 34.3822 14.4889 36.1689 14.0097C37.3146 13.7076 39.7425 13.6763 41.0563 13.9472C42.8746 14.3327 44.6508 15.0515 46.4271 16.1037C48.0141 17.0621 49.0021 17.7809 52.1973 20.3229C53.7843 21.5834 55.8969 23.1877 56.8744 23.8857C60.1431 26.188 60.7212 27.0215 62.098 31.4177C62.4449 32.5324 62.9389 33.918 63.1911 34.491C63.4434 35.064 63.6536 35.6369 63.6536 35.7619C63.6536 35.8974 63.7166 36.0016 63.8007 36.0016C64.032 36.0016 66.0184 39.9811 66.4809 41.3771C67.4268 44.1899 67.2797 46.5756 66.0499 48.4091C65.7136 48.8987 65.6506 49.0654 65.7451 49.1592C65.9238 49.3258 66.2812 48.8883 66.7541 47.9299C67.4583 46.5235 67.658 45.0442 67.3953 43.3252C67.1535 41.7001 66.6806 40.4499 65.3352 37.8247L64.1055 35.4182L64.032 32.9283C63.7692 23.8961 62.6131 15.8224 60.9524 11.4261C59.3443 7.14442 56.8008 4.34205 52.5126 2.11265C48.3715 -0.0438212 41.6869 -1.47105 37.5353 -1.0856ZM42.3596 -0.502202C44.1673 -0.262594 46.7214 0.331217 48.5817 0.945864C54.0996 2.74813 57.7993 5.68594 59.8698 9.90512C61.1311 12.4783 61.9719 15.937 62.7497 21.7293C63.3908 26.4381 63.9163 34.8035 63.5485 34.2305C63.3908 33.9909 62.6656 31.9491 62.1191 30.2197C61.8248 29.2821 61.3939 28.1987 61.0365 27.5111C60.2692 26.0214 59.2708 25.0004 57.2002 23.6044C56.3909 23.0627 54.7723 21.8438 53.5846 20.8958C50.0006 18.0205 49.1493 17.3746 47.846 16.51C45.6388 15.0306 43.2845 13.9993 41.0563 13.5305C39.753 13.2596 37.2095 13.2805 36.0638 13.5826C32.8161 14.4473 30.115 17.0309 27.9393 21.3646C27.5294 22.1668 26.8042 23.7086 26.3102 24.8025C24.8598 28.0216 25.049 27.7403 24.3132 27.8028C23.3463 27.8861 22.1166 28.532 21.3493 29.355C20.6556 30.0947 20.2878 30.8031 20.1301 31.7199C19.983 32.5429 20.0986 32.72 20.7187 32.6366C20.9604 32.595 21.2442 32.5429 21.3493 32.5012C21.4649 32.4595 20.8028 33.1992 19.8779 34.1368C18.9529 35.0744 17.7758 36.3141 17.2608 36.8871C14.1602 40.3353 12.7413 43.2002 11.974 47.5132C11.7218 48.9925 11.7113 53.6492 11.974 55.4411C12.426 58.6497 13.2563 61.8792 14.8539 66.661C15.1167 67.4527 15.2953 68.1299 15.2638 68.1715C15.1167 68.3174 10.6287 68.2236 9.47258 68.0465C5.25792 67.411 1.42163 65.8484 -1.85761 63.4315C-2.72997 62.7856 -3.08732 62.3689 -3.08732 61.9938C-3.08732 61.723 -2.24649 60.9104 -1.51077 60.4728C-0.680446 59.9936 0.32855 59.629 1.53724 59.379C2.49369 59.1914 4.80597 59.1394 8.21133 59.2331C9.86146 59.2748 10.0296 59.2644 10.4711 59.0664C11.396 58.6393 11.8164 57.8267 11.4696 57.1079C10.923 55.9619 8.21133 54.7743 4.2279 53.9201C2.64083 53.5867 2.09429 53.3471 1.70541 52.847C0.591309 51.399 1.41112 48.9404 5.01618 42.9398C6.72937 40.0957 8.15878 37.3663 9.25186 34.8869C9.96657 33.2409 11.2068 30.0114 11.4065 29.2821C11.4801 29.0008 11.6167 28.8029 11.8164 28.6883C12.3314 28.3862 12.8779 27.7507 13.2143 27.084C13.7713 25.9693 14.1497 23.3857 14.1497 20.6458C14.1497 15.9682 14.8959 12.9054 16.5145 10.8636C17.471 9.66551 18.7322 8.93627 21.528 7.98826C24.8703 6.85272 25.5955 6.41518 28.8117 3.5503C31.5444 1.11255 33.2471 0.13328 35.696 -0.398025C37.4722 -0.793899 39.9632 -0.83557 42.3596 -0.502202ZM12.2578 22.3335C12.7623 22.7398 12.6047 23.8649 11.5116 27.5007C11.3434 28.0632 11.2068 28.5425 11.2068 28.5633C11.2068 28.5841 11.0491 28.605 10.86 28.605C9.52513 28.605 9.35697 26.5318 10.4816 23.8545C10.8284 23.0315 11.3014 22.396 11.6692 22.2501C11.9846 22.1251 11.9951 22.1251 12.2578 22.3335ZM24.3448 28.7821C23.1256 30.9281 22.043 31.9803 20.8448 32.1887L20.4559 32.2616L20.519 31.8136C20.6872 30.7927 21.3808 29.7092 22.2742 29.0529C22.8208 28.657 23.9664 28.1987 24.4288 28.1882H24.6811L24.3448 28.7821ZM25.606 28.2716C25.606 28.3133 25.3433 28.605 25.0174 28.9175L24.4288 29.4905L24.7862 28.8446C25.049 28.3445 25.1856 28.1882 25.3748 28.1882C25.5009 28.1882 25.606 28.2299 25.606 28.2716Z" fill="#FFC904"/>
<path d="M38.5653 25.7922C37.9977 25.9172 37.0833 26.4173 36.5683 26.8548C35.2545 27.9799 34.5398 29.3342 33.6044 32.4387C32.711 35.3973 32.1855 36.4495 31.0504 37.5747C30.5774 38.0435 29.8417 38.5331 29.9258 38.3247C30.8717 36.1266 30.9137 35.762 30.1885 36.1995C29.642 36.5433 29.127 37.1788 28.9378 37.783C28.7171 38.4602 28.7066 39.0852 28.9168 39.1686C29.106 39.2415 29.127 39.1998 28.16 41.2625C27.1405 43.4503 25.7111 46.0964 24.103 48.7841C21.9169 52.4095 21.1811 54.0555 20.8238 56.0453C19.983 60.827 22.6421 65.9526 27.6345 69.1717C30.3252 70.9114 33.1314 71.6407 34.6344 70.9948C36.5578 70.1822 36.8942 67.6819 35.181 67.0777L34.6765 66.9006L34.6134 65.9109C34.5398 64.7024 34.6765 62.1084 34.9077 60.4833C35.6014 55.5036 37.5668 50.4614 40.4046 46.3672C41.7079 44.4816 42.6854 43.3252 44.3565 41.6792C48.7919 37.3142 51.2724 36.5329 54.8249 38.356C56.5906 39.2623 58.7978 41.0333 60.3218 42.7627C64.0635 46.9923 66.0815 51.9095 66.3442 57.4621C66.3863 58.431 66.3758 58.9623 66.2812 59.181L66.1656 59.4832L65.9343 59.0769C65.7977 58.8477 65.6295 58.6602 65.5454 58.6602C65.3668 58.6602 65.2091 59.3269 65.2512 59.8582C65.2827 60.1916 65.3142 60.2228 65.6716 60.2541L66.0604 60.2853L66.2286 61.0354C66.7436 63.2856 66.6385 65.4109 65.8502 68.557C65.4719 70.0572 62.9914 78.0476 62.7182 78.6726C62.4974 79.1727 62.1611 79.4227 61.6461 79.5061C61.1521 79.579 46.1433 77.4225 45.5232 77.1933C45.376 77.1308 45.1763 77.4121 45.2814 77.5163C45.3865 77.6204 53.5741 78.881 58.7452 79.5894C61.8983 80.0269 62.1191 80.0165 62.7182 79.3498C63.0545 78.9747 63.2121 78.558 64.2842 75.1514C66.1025 69.3488 66.4598 68.0257 66.7541 65.9734C67.0379 64.0357 66.9118 61.7021 66.4598 60.4312C66.3232 60.0457 66.3232 59.9832 66.5229 59.5978C66.7121 59.2331 66.7331 59.0039 66.7226 57.7538C66.6595 52.67 64.6941 47.3882 61.3098 43.2419C60.4374 42.1793 58.5876 40.3979 57.505 39.5749C55.014 37.7101 53.1012 36.9496 51.1567 37.0746C49.1387 37.1892 47.2889 38.3039 44.325 41.1584C42.4016 43.0231 41.3295 44.2837 39.9211 46.3672C36.1689 51.9303 34.2245 58.2122 34.2245 64.8066V66.8902L33.6675 67.1506C33.3416 67.3069 33.0263 67.5569 32.8897 67.7653C32.217 68.7758 33.0684 70.4114 34.3086 70.5051C34.75 70.5364 34.6344 70.651 34.0143 70.7968C32.9843 71.0364 31.2606 70.6406 29.3897 69.7134C24.3868 67.2548 21.076 62.5043 21.0865 57.8267C21.0971 55.2848 21.8223 53.3575 24.3237 49.2113C26.2787 45.9714 28.139 42.4502 29.2846 39.8249C29.6105 39.0852 29.6945 38.981 30.136 38.7623C30.8297 38.4081 31.723 37.5642 32.2906 36.7204C32.9002 35.8036 33.3522 34.7098 34.0038 32.5533C34.8972 29.6259 35.3912 28.5946 36.4317 27.5528C38.1239 25.8755 39.9106 25.6672 41.792 26.9381C42.5908 27.4799 44.346 28.9696 45.2499 29.8864L45.9121 30.5635L45.0922 30.6052C44.0938 30.6469 43.3055 30.9698 42.5803 31.6365C41.5187 32.6054 40.9722 33.6888 39.8896 36.96L39.0803 39.429L36.5473 42.7731C33.9197 46.2422 33.4678 46.9402 33.2996 47.8674C33.0999 48.93 33.5729 49.9405 34.193 49.7947C34.7711 49.6696 35.3807 49.3154 35.8431 48.8466C36.726 47.9611 37.0833 47.086 38.9542 41.2313L39.5007 39.5332L40.6253 38.0955C43.1373 34.8556 44.7034 33.3555 46.6898 32.3033L47.2048 32.0324L47.5832 32.47C48.1192 33.0742 48.424 32.8346 48.0457 32.1053C47.9616 31.9491 47.888 31.8032 47.888 31.7824C47.888 31.772 48.1613 31.7095 48.4976 31.6365C49.3174 31.4594 49.5907 31.3344 49.5381 31.1782C49.4856 31.0219 48.9916 31.0636 48.1823 31.2823L47.5937 31.4386L47.2153 31.1573C47.0051 31.0011 46.2799 30.3239 45.6073 29.6572C44.0833 28.157 42.4752 26.834 41.6028 26.3443C40.5413 25.7609 39.5007 25.563 38.5653 25.7922ZM46.2063 31.1052C46.406 31.1677 46.6583 31.324 46.7529 31.4594L46.9421 31.7095L46.1748 32.1262C44.5983 32.9804 42.6854 34.7827 40.8776 37.0954C40.3731 37.7413 39.9422 38.2622 39.9211 38.2414C39.8371 38.158 41.1193 34.5952 41.5502 33.7201C42.1704 32.47 43.0322 31.5532 43.8941 31.2303C44.5352 30.9906 45.5967 30.9281 46.2063 31.1052ZM29.7366 37.7413C29.2952 38.7831 29.3057 38.7623 29.2216 38.6789C29.0324 38.4914 29.7576 36.8454 30.0414 36.835C30.0834 36.835 29.9468 37.2413 29.7366 37.7413ZM37.756 43.5649C36.7365 46.7006 36.5578 47.1798 36.0743 47.9195C35.5488 48.7321 34.729 49.3363 34.1404 49.3363C33.8672 49.3363 33.6464 48.8675 33.657 48.2945C33.6675 47.4611 34.2035 46.5547 36.4527 43.5753C37.6089 42.0439 38.5758 40.8041 38.5968 40.825C38.6179 40.8458 38.2395 42.0751 37.756 43.5649ZM65.7872 59.7019C65.8292 59.7853 65.8082 59.879 65.7556 59.9103C65.6926 59.952 65.6505 59.879 65.6505 59.7644C65.6505 59.504 65.7136 59.4832 65.7872 59.7019ZM34.4452 68.7341C34.5398 69.4946 34.6029 70.1405 34.5924 70.1509C34.4768 70.2759 33.8461 69.9947 33.5413 69.6925C32.8477 69.0154 32.8687 68.0778 33.5834 67.5986C34.235 67.161 34.256 67.2027 34.4452 68.7341ZM35.2756 67.5152C36.0743 67.9215 36.0954 69.4008 35.3071 70.0988C35.0969 70.2759 35.0864 70.2759 35.0338 70.0467C35.0023 69.9113 34.9182 69.38 34.8551 68.8695C34.7921 68.3486 34.7185 67.8069 34.6975 67.6402C34.6449 67.3069 34.8026 67.2756 35.2756 67.5152Z" fill="#FFC904"/>
<path d="M61.8143 50.649C60.5215 50.8573 59.3548 51.3261 58.7137 51.8991C58.041 52.5033 57.7678 53.3055 58.1356 53.6076C58.3563 53.7951 58.6086 53.5659 58.6086 53.1805C58.6086 52.7846 59.1341 52.2012 59.7963 51.8782C60.7212 51.4094 61.7827 51.2011 63.1175 51.2219C64.137 51.2428 64.3368 51.2219 64.4313 51.0761C64.5049 50.9511 64.5049 50.8677 64.4208 50.7844C64.2947 50.6594 62.3713 50.5656 61.8143 50.649Z" fill="#FFC904"/>
<path d="M47.6253 53.6492C46.3325 54.0139 44.0622 55.1077 43.0427 55.8682C42.0548 56.6079 41.6448 57.2642 42.0758 57.4309C42.1914 57.4725 42.3385 57.3788 42.5592 57.1079C43.0112 56.5454 44.0307 55.8682 45.4391 55.1702C47.9721 53.9305 49.412 53.7638 50.915 54.5139C51.3459 54.7327 51.4931 54.7639 51.5982 54.6598C51.7979 54.4618 51.5666 54.2118 50.8835 53.868C50.3264 53.5971 50.1372 53.5555 49.2018 53.5346C48.5397 53.5138 47.9616 53.5555 47.6253 53.6492Z" fill="#FFC904"/>
<path d="M64.6205 56.4412C64.0004 57.1496 62.8968 57.3267 61.1626 56.9933C60.7107 56.91 59.9855 56.8371 59.544 56.8371C58.8819 56.8371 58.6822 56.8787 58.3879 57.0767C57.999 57.3371 57.9149 57.7017 58.2197 57.7538C58.3248 57.7747 58.5035 57.7122 58.6086 57.6184C58.9239 57.3371 59.6071 57.3163 61.0785 57.5663C62.6341 57.8372 63.4749 57.8059 64.2211 57.4517C64.7677 57.2017 65.3563 56.5975 65.2722 56.3787C65.1566 56.087 64.9148 56.1078 64.6205 56.4412Z" fill="#FFC904"/>
<path d="M57.2948 57.3579C57.2107 57.4933 57.2843 57.7329 57.6837 58.6497C58.0831 59.556 58.8083 60.7749 58.9975 60.8374C59.2813 60.952 59.2497 60.5874 58.9449 60.1498C58.5455 59.5664 57.999 58.483 57.7678 57.8371C57.5891 57.3162 57.4314 57.1495 57.2948 57.3579Z" fill="#FFC904"/>
<path d="M51.6192 58.7852C51.451 58.879 50.9465 59.2852 50.5156 59.6811C49.0336 61.0563 47.6883 61.4 45.9226 60.8479C45.4181 60.6916 44.7664 60.5562 44.4721 60.5458C43.9782 60.5354 43.9466 60.5458 43.9466 60.7958C43.9466 61.0354 43.9992 61.0667 44.5247 61.1188C44.84 61.1604 45.313 61.2646 45.5652 61.3584C46.364 61.6501 47.2889 61.7438 48.0667 61.6292C49.1072 61.4626 49.9165 61.025 50.915 60.1082C51.3985 59.6707 51.966 59.254 52.1762 59.1811C52.439 59.0873 52.5651 58.9831 52.5651 58.8477C52.5651 58.5977 52.0396 58.556 51.6192 58.7852Z" fill="#FFC904"/>
<path d="M60.7002 64.3065C60.6371 64.4732 60.4689 64.7233 60.3113 64.8899C60.1011 65.1087 60.0695 65.2025 60.1641 65.2962C60.2587 65.39 60.3428 65.4004 60.4794 65.3171C60.7002 65.1816 61.1311 64.4524 61.1311 64.2024C61.1311 63.9211 60.8263 63.994 60.7002 64.3065Z" fill="#FFC904"/>
<path d="M54.2993 65.5254C54.2993 66.2651 54.3309 66.4213 54.457 66.4213C54.5936 66.4213 54.6146 66.2755 54.5936 65.5671C54.5726 65.0045 54.5201 64.7024 54.436 64.6712C54.3309 64.6399 54.2993 64.8587 54.2993 65.5254Z" fill="#FFC904"/>
<path d="M56.4014 65.5359C56.4014 65.6505 56.5275 65.6921 56.9269 65.6921C57.3263 65.6921 57.4525 65.6505 57.4525 65.5359C57.4525 65.4213 57.3263 65.3796 56.9269 65.3796C56.5275 65.3796 56.4014 65.4213 56.4014 65.5359Z" fill="#FFC904"/>
<path d="M44.2094 66.3172C43.5472 66.4526 42.3596 67.0673 41.7815 67.5673C40.8671 68.3382 40.1103 69.7654 39.9422 70.9843L39.8791 71.4948L38.807 71.6302C36.1059 71.9636 33.226 72.7449 31.4813 73.62C30.4933 74.1096 29.6735 74.641 27.9183 75.9536C27.067 76.5787 26.2051 77.0995 25.0279 77.6725C23.1045 78.6309 22.4319 79.0893 21.9589 79.7977C21.055 81.1312 21.0655 82.4334 22.022 85.5587C22.6841 87.7152 22.8102 88.5278 22.8102 90.4863C22.8102 92.9658 22.4319 94.7576 21.4229 97.1016C20.9079 98.2788 19.7938 100.237 19.3103 100.8L19.037 101.112L18.0385 100.904C16.7037 100.612 14.5911 100.529 13.0882 100.696C9.54615 101.071 6.36151 102.446 3.54472 104.8C2.34654 105.8 0.486204 108.019 0.486204 108.447C0.486204 108.801 0.791006 108.582 1.27448 107.853C2.03123 106.759 4.1228 104.717 5.32098 103.936C7.22336 102.675 9.30441 101.8 11.5431 101.31C13.0566 100.977 16.0416 100.925 17.5551 101.206C18.1752 101.321 18.7217 101.435 18.7532 101.467C18.9319 101.654 16.3569 104.227 14.959 105.259C14.0341 105.946 12.5206 106.894 11.9215 107.165C11.6062 107.301 11.5221 107.571 11.7849 107.571C12.1737 107.571 13.8974 106.55 15.3058 105.488C18.2067 103.3 20.6977 100.039 22.0325 96.6849C22.558 95.3827 23.052 93.2887 23.1886 91.8094C23.3883 89.6842 23.1886 88.0382 22.4003 85.4858C21.8013 83.5377 21.6856 82.8918 21.7382 81.8292C21.8118 80.0894 22.4003 79.4227 24.9859 78.1517C26.9093 77.2037 26.9093 77.2037 28.6645 75.8911C29.9363 74.9431 30.8612 74.3388 31.0504 74.3388C31.1029 74.3388 31.187 74.4534 31.2186 74.5993C31.2606 74.7451 31.3342 74.8597 31.3972 74.8597C31.5654 74.8597 31.6285 74.5472 31.5128 74.2868C31.4077 74.0576 31.4393 74.0263 32.4167 73.6304C33.699 73.1095 34.8341 72.7553 36.1689 72.4741C37.4722 72.2032 39.8371 71.8386 39.7214 71.9323C39.6794 71.974 39.1644 72.1928 38.5863 72.4116C35.0338 73.7659 31.2921 75.8077 27.9498 78.2142C26.1736 79.4956 25.2907 80.2353 25.2907 80.4436C25.2907 80.7041 25.4904 80.5999 26.3207 79.9332C29.8417 77.0995 34.0774 74.8597 38.5128 73.5158C41.1509 72.7137 43.0112 72.4741 43.873 72.8283C44.2514 72.9949 44.7349 73.37 44.7349 73.5054C44.7349 73.5471 44.2514 73.7034 43.6628 73.8596C42.328 74.2138 40.0368 74.818 39.301 75.0264C38.4812 75.2452 38.5758 75.4431 39.5218 75.516C40.3416 75.5785 41.319 75.9015 41.9496 76.339C42.1493 76.4641 42.3175 76.5995 42.3175 76.6307C42.3175 76.662 41.834 76.8912 41.2455 77.1412C38.1449 78.4643 36.2635 79.5998 34.7921 81.0583C33.7095 82.1313 32.9948 83.2043 32.5323 84.444C32.1645 85.4546 32.0068 86.6318 32.2381 86.6318C32.3221 86.6318 34.4452 85.3191 36.9572 83.7252C39.4692 82.1209 41.5608 80.8395 41.6028 80.8708C41.6554 80.8916 41.6869 81.1625 41.6869 81.4541C41.6869 82.1938 41.2139 83.1522 40.5097 83.8606C39.9632 84.392 39.5428 84.6628 37.4197 85.8296C35.6224 86.8297 35.0128 87.4964 34.2245 89.3716C33.7095 90.5905 33.4257 91.0593 32.9317 91.4968C32.6059 91.7781 32.4588 91.8302 31.7125 91.8927C31.1029 91.9448 30.8612 92.0073 30.8612 92.1115C30.8612 92.4657 31.5969 92.5699 32.3327 92.3094C32.5744 92.2261 32.9002 92.1532 33.0474 92.1532H33.3101L33.2471 93.2158C33.163 94.8618 32.8582 95.591 30.7561 99.2893C27.645 104.738 26.2471 108.405 25.8162 112.207C25.6165 114.01 25.7111 115.801 26.0159 115.801C26.1631 115.801 26.1841 115.645 26.142 114.499C26.0264 110.155 27.4558 105.821 31.1555 99.3935C33.2681 95.7056 33.6254 94.7889 33.6359 93.0595C33.6465 92.0594 33.6254 91.9136 33.4468 91.7781C33.3311 91.6948 33.2786 91.6323 33.3416 91.6323C33.5308 91.6323 34.1404 90.6113 34.5924 89.5071C35.3702 87.6423 35.8431 87.1422 37.8296 86.0484C40.268 84.7149 40.8145 84.2982 41.4872 83.2668C42.1073 82.3084 42.2755 81.0062 41.8551 80.4228C41.7184 80.2561 41.3821 80.4436 37.1674 83.121C34.666 84.7149 32.5954 85.9859 32.5639 85.9546C32.4798 85.8713 32.8582 84.6003 33.184 83.9232C34.4452 81.2666 36.7996 79.4331 41.3821 77.5058C42.1599 77.1829 42.8325 76.8808 42.8851 76.8287C42.9481 76.7766 42.8851 76.6307 42.7274 76.4641C42.5172 76.2244 42.5067 76.1932 42.6749 76.2557C43.0532 76.3911 44.882 76.3286 45.5232 76.1619C47.0367 75.7765 48.34 74.7972 49.0126 73.5575C49.7378 72.1928 50.0111 70.2863 49.6327 69.1508C49.2439 67.9944 48.1298 66.9006 46.8895 66.4734C46.2799 66.2547 44.8926 66.1817 44.2094 66.3172ZM47.1943 67.036C48.0457 67.4527 48.8445 68.2861 49.1388 69.0779C49.7589 70.703 49.0757 73.3075 47.7304 74.5368C46.0067 76.089 43.1583 76.412 41.0563 75.2868C40.6148 75.0472 40.4677 75.1097 42.8956 74.4951C45.2394 73.9117 45.292 73.8909 45.1974 73.5783C44.9451 72.7345 44.0202 72.2553 42.6328 72.2553C41.6974 72.2553 39.3326 72.797 37.4407 73.4533C36.8626 73.6513 36.3792 73.7971 36.3581 73.7763C36.2951 73.7242 39.3221 72.5157 40.7199 72.0365C41.7184 71.7031 42.0022 71.5677 41.9812 71.4323C41.9496 71.2552 41.6238 71.2448 40.6989 71.3802L40.289 71.4427L40.3521 70.8906C40.3941 70.5572 40.5938 69.9842 40.8461 69.4842C41.5082 68.1507 42.801 67.0777 44.1778 66.7339C44.3986 66.6818 45.0187 66.6505 45.5442 66.6714C46.385 66.7026 46.6163 66.7547 47.1943 67.036Z" fill="#FFC904"/>
<path d="M63.1281 68.036C63.1281 68.4736 63.1596 68.609 63.2857 68.609C63.4539 68.609 63.4644 68.5882 63.4644 68.036C63.4644 67.4839 63.4539 67.4631 63.2857 67.4631C63.1596 67.4631 63.1281 67.5985 63.1281 68.036Z" fill="#FFC904"/>
<path d="M61.2152 69.5987C60.5425 70.203 60.0275 70.328 58.9239 70.1821C57.9359 70.0467 57.5365 70.1196 56.4014 70.5988C55.6236 70.9218 55.466 70.9322 54.5936 70.7343C54.1312 70.6301 54.2153 70.9843 54.6882 71.1822C55.1822 71.3802 55.8128 71.3072 57.0846 70.8905C57.9675 70.5988 58.0936 70.578 59.0921 70.6405C60.0485 70.703 60.1957 70.6926 60.7002 70.4842C61.1731 70.2759 61.9719 69.5571 61.9719 69.3279C61.9719 69.0987 61.6461 69.2133 61.2152 69.5987Z" fill="#FFC904"/>
<path d="M52.5546 70.0051C52.5231 70.0884 52.5126 70.3281 52.5336 70.5468C52.5546 70.8281 52.6177 70.9635 52.7543 70.9844C52.9015 71.0156 52.933 70.9323 52.933 70.4426C52.933 69.9843 52.9015 69.8593 52.7753 69.8593C52.6808 69.8593 52.5862 69.9218 52.5546 70.0051Z" fill="#FFC904"/>
<path d="M61.1521 72.0574C60.7212 72.5887 60.0275 72.9116 59.1446 72.995C57.9254 73.12 57.6521 73.1929 57.6837 73.3908C57.7467 73.7242 59.9749 73.5783 60.7317 73.1825C61.005 73.0366 61.7932 71.9636 61.7092 71.8386C61.5935 71.6615 61.4044 71.7344 61.1521 72.0574Z" fill="#FFC904"/>
<path d="M32.9002 76.4744C32.8266 76.6619 33.1419 76.9536 33.3732 76.912C33.657 76.8703 33.6044 76.6411 33.2786 76.4744C32.9843 76.3286 32.9528 76.3286 32.9002 76.4744Z" fill="#FFC904"/>
<path d="M38.2185 76.537C37.8401 76.6516 37.0728 76.787 36.5158 76.8599C35.8011 76.9329 35.4858 77.0162 35.4858 77.11C35.4858 77.1829 35.5173 77.2662 35.5699 77.2871C35.7275 77.3808 37.5353 77.1516 38.3025 76.9433C39.0698 76.7349 39.3221 76.5891 39.2064 76.4016C39.1329 76.287 39.0278 76.3078 38.2185 76.537Z" fill="#FFC904"/>
<path d="M33.0053 78.3184C32.669 78.6831 31.8702 79.6727 31.2291 80.5374C29.9783 82.2042 28.8012 83.4023 27.9919 83.819C27.5084 84.069 27.4138 84.2565 27.7291 84.319C28.0024 84.3711 29.4528 83.3189 30.0519 82.6418C30.3672 82.2876 31.124 81.3292 31.7336 80.5166C32.3537 79.704 33.1104 78.7768 33.4362 78.4643C33.7516 78.1413 34.0143 77.8392 34.0143 77.7767C34.0143 77.4954 33.5519 77.735 33.0053 78.3184Z" fill="#FFC904"/>
<path d="M34.8762 78.11C34.7921 78.1934 34.8341 78.3601 35.0233 78.7247C35.2861 79.2456 35.4437 79.3497 35.5488 79.0893C35.6014 78.9434 35.2545 78.1517 35.0864 78.0475C35.0338 78.0163 34.9392 78.0475 34.8762 78.11Z" fill="#FFC904"/>
<path d="M53.5846 83.5273C52.1973 88.1528 52.0712 88.6633 52.0606 90.0176C52.0501 91.7677 52.5756 93.2054 53.7738 94.6951C55.4765 96.8204 57.9465 98.1226 61.4044 98.7268C62.5605 98.9247 63.1491 98.9664 65.4929 98.9664C67.2166 98.9768 68.2466 98.9352 68.2782 98.8726C68.3097 98.8101 67.9418 98.758 67.2797 98.7476C65.2512 98.6955 62.4344 98.508 61.499 98.3518C57.1266 97.6434 53.9 95.3306 52.7543 92.1011C52.5021 91.3719 52.4705 91.1114 52.4705 90.0697C52.4705 88.6424 52.5967 88.1111 54.0366 83.3502C55.1612 79.6311 55.1402 79.7248 54.9195 79.6728C54.7828 79.6519 54.5306 80.3812 53.5846 83.5273Z" fill="#FFC904"/>
<path d="M22.2006 82.8709C22.1481 82.9439 22.7577 84.1628 22.9259 84.3294C22.9469 84.3503 23.0415 84.3399 23.1361 84.2982C23.2832 84.2461 23.2517 84.1315 22.9048 83.5064C22.5265 82.8189 22.3373 82.6522 22.2006 82.8709Z" fill="#FFC904"/>
<path d="M25.8372 86.3713C25.4694 86.5276 25.3012 86.788 25.4694 86.9547C25.5324 87.0172 25.6691 86.9756 25.8372 86.8401C26.2682 86.5068 26.7306 86.5693 27.1405 86.9964C27.3297 87.2048 27.5189 87.5277 27.5609 87.7256C27.6345 88.1319 27.7711 88.2778 27.9393 88.1111C28.097 87.9548 27.7606 87.0276 27.4138 86.7047C26.8988 86.2255 26.4258 86.1213 25.8372 86.3713Z" fill="#FFC904"/>
<path d="M48.1508 103.842C47.331 104.144 46.5952 104.852 46.5007 105.436C46.4481 105.738 46.8055 105.769 46.9 105.467C47.0367 105.019 47.4045 104.644 47.9931 104.363C48.8129 103.967 49.8009 103.988 51.0937 104.425C51.7138 104.634 52.0711 104.707 52.1447 104.634C52.3024 104.488 51.945 104.269 51.1462 104.009C50.3475 103.759 48.6343 103.654 48.1508 103.842Z" fill="#FFC904"/>
<path d="M37.9251 -1.0856C36.6218 -0.960582 35.7705 -0.793899 34.6984 -0.450113C32.6279 0.216622 31.5558 0.935446 28.0243 4.02951C25.8487 5.93596 24.5769 6.65479 21.634 7.66531C20.7722 7.96742 19.7737 8.33204 19.4163 8.49872C17.4509 9.38423 16.1371 10.801 15.2332 13.0513C14.4975 14.864 14.2768 16.4162 14.1191 20.5312C13.9825 24.5108 13.7723 25.9068 13.1522 27.0527C12.8263 27.6778 12.0486 28.5216 12.1537 28.1362C13.3729 23.9899 13.5621 22.9898 13.2362 22.3752C13.026 21.9689 12.469 21.6772 12.0801 21.7709C11.1026 22.0105 9.88343 24.6045 9.7468 26.7298C9.69425 27.5215 9.71527 27.6674 9.93599 28.0841C10.1987 28.5945 10.7453 29.0217 11.1342 29.0217C11.2708 29.0217 11.3864 29.0633 11.3864 29.105C11.3864 29.4175 9.83088 33.5221 9.02158 35.3244C7.8234 37.9913 6.82491 39.8665 4.65977 43.4711C2.20035 47.5548 1.29645 49.6488 1.29645 51.2323C1.29645 52.1907 1.45411 52.6908 1.9481 53.2325C2.43157 53.7951 2.8625 53.9617 4.54416 54.3055C6.98257 54.7952 10.1357 55.9828 11.008 56.7433C11.2603 56.962 11.502 57.2746 11.5336 57.4204C11.6387 57.8163 11.4285 58.2538 11.0186 58.5039C10.3984 58.8789 9.72578 58.9414 7.28737 58.806C2.6628 58.5455 -0.164489 59.1081 -2.12993 60.6812C-2.57137 61.0354 -2.83413 61.3375 -2.94974 61.6396C-3.29658 62.5043 -2.9077 62.9731 -0.511332 64.5566C2.29494 66.4005 5.24836 67.5881 8.74831 68.2653C10.0831 68.5257 10.3669 68.5466 13.0891 68.5466C14.9915 68.557 16.0425 68.5153 16.1161 68.4424C16.1897 68.3695 16.1056 68.0153 15.8533 67.2444C14.1822 62.3689 13.0891 58.0351 12.7107 54.7535C12.5215 53.1596 12.49 50.0655 12.6477 48.6591C13.0155 45.4504 13.993 42.6064 15.559 40.2207C16.8728 38.2309 17.9449 37.0537 23.8622 31.0844C25.3862 29.553 26.6265 28.2299 26.6265 28.1466C26.6265 28.0528 26.4583 27.9382 26.2061 27.8757C25.7436 27.7507 25.7436 27.7299 26.2166 26.8131C26.3427 26.5631 26.9523 25.2609 27.5724 23.9066C29.149 20.4375 30.1159 18.8123 31.5979 17.1142C32.8486 15.6974 34.772 14.4889 36.5588 14.0097C37.7044 13.7076 40.1323 13.6763 41.4461 13.9472C43.2644 14.3327 45.0406 15.0515 46.8169 16.1037C48.404 17.0621 49.3919 17.7809 52.5871 20.3229C54.1742 21.5834 56.2868 23.1877 57.2642 23.8857C60.533 26.188 61.111 27.0215 62.4879 31.4177C62.8347 32.5324 63.3287 33.918 63.581 34.491C63.8332 35.064 64.0434 35.6369 64.0434 35.7619C64.0434 35.8974 64.1065 36.0016 64.1906 36.0016C64.4218 36.0016 66.4082 39.9811 66.8707 41.3771C67.8166 44.1899 67.6695 46.5756 66.4398 48.4091C66.1035 48.8987 66.0404 49.0654 66.135 49.1592C66.3137 49.3258 66.671 48.8883 67.144 47.9299C67.8482 46.5235 68.0479 45.0442 67.7851 43.3252C67.5434 41.7001 67.0704 40.4499 65.7251 37.8247L64.4954 35.4182L64.4218 32.9283C64.159 23.8961 63.0029 15.8224 61.3422 11.4261C59.7342 7.14442 57.1906 4.34205 52.9024 2.11265C48.7613 -0.0438212 42.0767 -1.47105 37.9251 -1.0856ZM42.7494 -0.502202C44.5572 -0.262594 47.1112 0.331217 48.9715 0.945864C54.4895 2.74813 58.1891 5.68594 60.2597 9.90512C61.5209 12.4783 62.3618 15.937 63.1395 21.7293C63.7807 26.4381 64.3062 34.8035 63.9383 34.2305C63.7807 33.9909 63.0554 31.9491 62.5089 30.2197C62.2146 29.2821 61.7837 28.1987 61.4263 27.5111C60.6591 26.0214 59.6606 25.0004 57.59 23.6044C56.7807 23.0627 55.1621 21.8438 53.9745 20.8958C50.3904 18.0205 49.5391 17.3746 48.2358 16.51C46.0286 15.0306 43.6743 13.9993 41.4461 13.5305C40.1428 13.2596 37.5993 13.2805 36.4537 13.5826C33.206 14.4473 30.5048 17.0309 28.3291 21.3646C27.9192 22.1668 27.194 23.7086 26.7 24.8025C25.2496 28.0216 25.4388 27.7403 24.7031 27.8028C23.7361 27.8861 22.5064 28.532 21.7391 29.355C21.0455 30.0947 20.6776 30.8031 20.5199 31.7199C20.3728 32.5429 20.4884 32.72 21.1085 32.6366C21.3503 32.595 21.634 32.5429 21.7391 32.5012C21.8548 32.4595 21.1926 33.1992 20.2677 34.1368C19.3428 35.0744 18.1656 36.3141 17.6506 36.8871C14.55 40.3353 13.1311 43.2002 12.3639 47.5132C12.1116 48.9925 12.1011 53.6492 12.3639 55.4411C12.8158 58.6497 13.6461 61.8792 15.2437 66.661C15.5065 67.4527 15.6852 68.1299 15.6536 68.1715C15.5065 68.3174 11.0186 68.2236 9.86241 68.0465C5.64775 67.411 1.81146 65.8484 -1.46778 63.4315C-2.34014 62.7856 -2.69749 62.3689 -2.69749 61.9938C-2.69749 61.723 -1.85666 60.9104 -1.12093 60.4728C-0.290614 59.9936 0.718383 59.629 1.92708 59.379C2.88352 59.1914 5.1958 59.1394 8.60117 59.2331C10.2513 59.2748 10.4195 59.2644 10.8609 59.0664C11.7858 58.6393 12.2062 57.8267 11.8594 57.1079C11.3128 55.9619 8.60117 54.7743 4.61773 53.9201C3.03067 53.5867 2.48413 53.3471 2.09524 52.847C0.981142 51.399 1.80095 48.9404 5.40601 42.9398C7.1192 40.0957 8.54862 37.3663 9.6417 34.8869C10.3564 33.2409 11.5966 30.0114 11.7963 29.2821C11.8699 29.0008 12.0065 28.8029 12.2062 28.6883C12.7212 28.3862 13.2678 27.7507 13.6041 27.084C14.1612 25.9693 14.5395 23.3857 14.5395 20.6458C14.5395 15.9682 15.2858 12.9054 16.9044 10.8636C17.8608 9.66551 19.1221 8.93627 21.9178 7.98826C25.2601 6.85272 25.9853 6.41518 29.2015 3.5503C31.9342 1.11255 33.6369 0.13328 36.0858 -0.398025C37.8621 -0.793899 40.353 -0.83557 42.7494 -0.502202ZM12.6477 22.3335C13.1522 22.7398 12.9945 23.8649 11.9014 27.5007C11.7333 28.0632 11.5966 28.5425 11.5966 28.5633C11.5966 28.5841 11.439 28.605 11.2498 28.605C9.91496 28.605 9.7468 26.5318 10.8714 23.8545C11.2183 23.0315 11.6912 22.396 12.0591 22.2501C12.3744 22.1251 12.3849 22.1251 12.6477 22.3335ZM24.7346 28.7821C23.5154 30.9281 22.4328 31.9803 21.2346 32.1887L20.8458 32.2616L20.9088 31.8136C21.077 30.7927 21.7707 29.7092 22.6641 29.0529C23.2106 28.657 24.3562 28.1987 24.8187 28.1882H25.0709L24.7346 28.7821ZM25.9958 28.2716C25.9958 28.3133 25.7331 28.605 25.4073 28.9175L24.8187 29.4905L25.176 28.8446C25.4388 28.3445 25.5754 28.1882 25.7646 28.1882C25.8907 28.1882 25.9958 28.2299 25.9958 28.2716Z" fill="#FFC904"/>
<path d="M38.9551 25.7922C38.3876 25.9172 37.4732 26.4173 36.9582 26.8548C35.6444 27.9799 34.9297 29.3342 33.9942 32.4387C33.1009 35.3973 32.5753 36.4495 31.4402 37.5747C30.9672 38.0435 30.2315 38.5331 30.3156 38.3247C31.2615 36.1266 31.3036 35.762 30.5784 36.1995C30.0318 36.5433 29.5168 37.1788 29.3276 37.783C29.1069 38.4602 29.0964 39.0852 29.3066 39.1686C29.4958 39.2415 29.5168 39.1998 28.5499 41.2625C27.5304 43.4503 26.1009 46.0964 24.4929 48.7841C22.3067 52.4095 21.571 54.0555 21.2136 56.0453C20.3728 60.827 23.0319 65.9526 28.0243 69.1717C30.715 70.9114 33.5213 71.6407 35.0243 70.9948C36.9477 70.1822 37.284 67.6819 35.5708 67.0777L35.0663 66.9006L35.0032 65.9109C34.9297 64.7024 35.0663 62.1084 35.2975 60.4833C35.9912 55.5036 37.9566 50.4614 40.7945 46.3672C42.0977 44.4816 43.0752 43.3252 44.7464 41.6792C49.1817 37.3142 51.6622 36.5329 55.2147 38.356C56.9804 39.2623 59.1876 41.0333 60.7116 42.7627C64.4533 46.9923 66.4713 51.9095 66.7341 57.4621C66.7761 58.431 66.7656 58.9623 66.671 59.181L66.5554 59.4832L66.3242 59.0769C66.1875 58.8477 66.0194 58.6602 65.9353 58.6602C65.7566 58.6602 65.5989 59.3269 65.641 59.8582C65.6725 60.1916 65.704 60.2228 66.0614 60.2541L66.4503 60.2853L66.6184 61.0354C67.1335 63.2856 67.0284 65.4109 66.2401 68.557C65.8617 70.0572 63.3813 78.0476 63.108 78.6726C62.8873 79.1727 62.5509 79.4227 62.0359 79.5061C61.5419 79.579 46.5331 77.4225 45.913 77.1933C45.7659 77.1308 45.5662 77.4121 45.6713 77.5163C45.7764 77.6204 53.964 78.881 59.1351 79.5894C62.2882 80.0269 62.5089 80.0165 63.108 79.3498C63.4443 78.9747 63.602 78.558 64.674 75.1514C66.4923 69.3488 66.8497 68.0257 67.144 65.9734C67.4277 64.0357 67.3016 61.7021 66.8497 60.4312C66.713 60.0457 66.713 59.9832 66.9127 59.5978C67.1019 59.2331 67.1229 59.0039 67.1124 57.7538C67.0494 52.67 65.0839 47.3882 61.6996 43.2419C60.8272 42.1793 58.9774 40.3979 57.8948 39.5749C55.4039 37.7101 53.491 36.9496 51.5466 37.0746C49.5286 37.1892 47.6787 38.3039 44.7148 41.1584C42.7914 43.0231 41.7194 44.2837 40.311 46.3672C36.5588 51.9303 34.6143 58.2122 34.6143 64.8066V66.8902L34.0573 67.1506C33.7315 67.3069 33.4162 67.5569 33.2795 67.7653C32.6069 68.7758 33.4582 70.4114 34.6984 70.5051C35.1399 70.5364 35.0243 70.651 34.4041 70.7968C33.3741 71.0364 31.6504 70.6406 29.7796 69.7134C24.7766 67.2548 21.4659 62.5043 21.4764 57.8267C21.4869 55.2848 22.2121 53.3575 24.7136 49.2113C26.6685 45.9714 28.5288 42.4502 29.6745 39.8249C30.0003 39.0852 30.0844 38.981 30.5258 38.7623C31.2195 38.4081 32.1129 37.5642 32.6804 36.7204C33.29 35.8036 33.742 34.7098 34.3936 32.5533C35.287 29.6259 35.781 28.5946 36.8215 27.5528C38.5137 25.8755 40.3005 25.6672 42.1818 26.9381C42.9806 27.4799 44.7358 28.9696 45.6397 29.8864L46.3019 30.5635L45.4821 30.6052C44.4836 30.6469 43.6953 30.9698 42.9701 31.6365C41.9086 32.6054 41.362 33.6888 40.2794 36.96L39.4701 39.429L36.9371 42.7731C34.3095 46.2422 33.8576 46.9402 33.6894 47.8674C33.4897 48.93 33.9627 49.9405 34.5828 49.7947C35.1609 49.6696 35.7705 49.3154 36.2329 48.8466C37.1158 47.9611 37.4732 47.086 39.344 41.2313L39.8906 39.5332L41.0152 38.0955C43.5271 34.8556 45.0932 33.3555 47.0797 32.3033L47.5947 32.0324L47.973 32.47C48.5091 33.0742 48.8139 32.8346 48.4355 32.1053C48.3514 31.9491 48.2778 31.8032 48.2778 31.7824C48.2778 31.772 48.5511 31.7095 48.8874 31.6365C49.7073 31.4594 49.9805 31.3344 49.928 31.1782C49.8754 31.0219 49.3814 31.0636 48.5721 31.2823L47.9836 31.4386L47.6052 31.1573C47.395 31.0011 46.6698 30.3239 45.9971 29.6572C44.4731 28.157 42.865 26.834 41.9926 26.3443C40.9311 25.7609 39.8906 25.563 38.9551 25.7922ZM46.5962 31.1052C46.7959 31.1677 47.0481 31.324 47.1427 31.4594L47.3319 31.7095L46.5647 32.1262C44.9881 32.9804 43.0752 34.7827 41.2674 37.0954C40.7629 37.7413 40.332 38.2622 40.311 38.2414C40.2269 38.158 41.5092 34.5952 41.9401 33.7201C42.5602 32.47 43.422 31.5532 44.2839 31.2303C44.925 30.9906 45.9866 30.9281 46.5962 31.1052ZM30.1264 37.7413C29.685 38.7831 29.6955 38.7623 29.6114 38.6789C29.4222 38.4914 30.1474 36.8454 30.4312 36.835C30.4733 36.835 30.3366 37.2413 30.1264 37.7413ZM38.1458 43.5649C37.1263 46.7006 36.9477 47.1798 36.4642 47.9195C35.9387 48.7321 35.1188 49.3363 34.5303 49.3363C34.257 49.3363 34.0363 48.8675 34.0468 48.2945C34.0573 47.4611 34.5933 46.5547 36.8425 43.5753C37.9987 42.0439 38.9656 40.8041 38.9867 40.825C39.0077 40.8458 38.6293 42.0751 38.1458 43.5649ZM66.177 59.7019C66.2191 59.7853 66.198 59.879 66.1455 59.9103C66.0824 59.952 66.0404 59.879 66.0404 59.7644C66.0404 59.504 66.1034 59.4832 66.177 59.7019ZM34.8351 68.7341C34.9297 69.4946 34.9927 70.1405 34.9822 70.1509C34.8666 70.2759 34.236 69.9947 33.9312 69.6925C33.2375 69.0154 33.2585 68.0778 33.9732 67.5986C34.6249 67.161 34.6459 67.2027 34.8351 68.7341ZM35.6654 67.5152C36.4642 67.9215 36.4852 69.4008 35.6969 70.0988C35.4867 70.2759 35.4762 70.2759 35.4236 70.0467C35.3921 69.9113 35.308 69.38 35.245 68.8695C35.1819 68.3486 35.1083 67.8069 35.0873 67.6402C35.0348 67.3069 35.1924 67.2756 35.6654 67.5152Z" fill="#FFC904"/>
<path d="M62.2041 50.649C60.9113 50.8573 59.7447 51.3261 59.1035 51.8991C58.4309 52.5033 58.1576 53.3055 58.5255 53.6076C58.7462 53.7951 58.9984 53.5659 58.9984 53.1805C58.9984 52.7846 59.5239 52.2012 60.1861 51.8782C61.111 51.4094 62.1726 51.2011 63.5074 51.2219C64.5269 51.2428 64.7266 51.2219 64.8212 51.0761C64.8948 50.9511 64.8948 50.8677 64.8107 50.7844C64.6845 50.6594 62.7611 50.5656 62.2041 50.649Z" fill="#FFC904"/>
<path d="M48.0151 53.6492C46.7223 54.0139 44.4521 55.1077 43.4326 55.8682C42.4446 56.6079 42.0347 57.2642 42.4656 57.4309C42.5812 57.4725 42.7284 57.3788 42.9491 57.1079C43.401 56.5454 44.4205 55.8682 45.8289 55.1702C48.3619 53.9305 49.8018 53.7638 51.3048 54.5139C51.7358 54.7327 51.8829 54.7639 51.988 54.6598C52.1877 54.4618 51.9565 54.2118 51.2733 53.868C50.7163 53.5971 50.5271 53.5555 49.5916 53.5346C48.9295 53.5138 48.3514 53.5555 48.0151 53.6492Z" fill="#FFC904"/>
<path d="M65.0104 56.4412C64.3903 57.1496 63.2867 57.3267 61.5525 56.9933C61.1005 56.91 60.3753 56.8371 59.9339 56.8371C59.2717 56.8371 59.072 56.8787 58.7777 57.0767C58.3888 57.3371 58.3047 57.7017 58.6095 57.7538C58.7147 57.7747 58.8933 57.7122 58.9984 57.6184C59.3137 57.3371 59.9969 57.3163 61.4684 57.5663C63.0239 57.8372 63.8647 57.8059 64.611 57.4517C65.1575 57.2017 65.7461 56.5975 65.662 56.3787C65.5464 56.087 65.3047 56.1078 65.0104 56.4412Z" fill="#FFC904"/>
<path d="M57.6846 57.3579C57.6006 57.4933 57.6741 57.7329 58.0735 58.6497C58.4729 59.556 59.1981 60.7749 59.3873 60.8374C59.6711 60.952 59.6396 60.5874 59.3348 60.1498C58.9354 59.5664 58.3888 58.483 58.1576 57.8371C57.9789 57.3162 57.8213 57.1495 57.6846 57.3579Z" fill="#FFC904"/>
<path d="M52.009 58.7852C51.8409 58.879 51.3364 59.2852 50.9054 59.6811C49.4235 61.0563 48.0781 61.4 46.3124 60.8479C45.8079 60.6916 45.1563 60.5562 44.862 60.5458C44.368 60.5354 44.3365 60.5458 44.3365 60.7958C44.3365 61.0354 44.389 61.0667 44.9145 61.1188C45.2298 61.1604 45.7028 61.2646 45.9551 61.3584C46.7538 61.6501 47.6788 61.7438 48.4565 61.6292C49.497 61.4626 50.3063 61.025 51.3048 60.1082C51.7883 59.6707 52.3559 59.254 52.5661 59.1811C52.8288 59.0873 52.955 58.9831 52.955 58.8477C52.955 58.5977 52.4294 58.556 52.009 58.7852Z" fill="#FFC904"/>
<path d="M61.09 64.3065C61.0269 64.4732 60.8588 64.7233 60.7011 64.8899C60.4909 65.1087 60.4594 65.2025 60.554 65.2962C60.6486 65.39 60.7326 65.4004 60.8693 65.3171C61.09 65.1816 61.5209 64.4524 61.5209 64.2024C61.5209 63.9211 61.2161 63.994 61.09 64.3065Z" fill="#FFC904"/>
<path d="M54.6892 65.5254C54.6892 66.2651 54.7207 66.4213 54.8468 66.4213C54.9835 66.4213 55.0045 66.2755 54.9835 65.5671C54.9624 65.0045 54.9099 64.7024 54.8258 64.6712C54.7207 64.6399 54.6892 64.8587 54.6892 65.5254Z" fill="#FFC904"/>
<path d="M56.7913 65.5359C56.7913 65.6505 56.9174 65.6921 57.3168 65.6921C57.7162 65.6921 57.8423 65.6505 57.8423 65.5359C57.8423 65.4213 57.7162 65.3796 57.3168 65.3796C56.9174 65.3796 56.7913 65.4213 56.7913 65.5359Z" fill="#FFC904"/>
<path d="M44.5992 66.3172C43.9371 66.4526 42.7494 67.0673 42.1713 67.5673C41.2569 68.3382 40.5002 69.7654 40.332 70.9843L40.2689 71.4948L39.1969 71.6302C36.4957 71.9636 33.6159 72.7449 31.8711 73.62C30.8832 74.1096 30.0634 74.641 28.3081 75.9536C27.4568 76.5787 26.5949 77.0995 25.4178 77.6725C23.4944 78.6309 22.8217 79.0893 22.3487 79.7977C21.4448 81.1312 21.4554 82.4334 22.4118 85.5587C23.074 87.7152 23.2001 88.5278 23.2001 90.4863C23.2001 92.9658 22.8217 94.7576 21.8127 97.1016C21.2977 98.2788 20.1836 100.237 19.7001 100.8L19.4269 101.112L18.4284 100.904C17.0936 100.612 14.981 100.529 13.478 100.696C9.93598 101.071 6.75134 102.446 3.93456 104.8C2.73637 105.8 0.876037 108.019 0.876037 108.447C0.876037 108.801 1.18084 108.582 1.66432 107.853C2.42106 106.759 4.51263 104.717 5.71081 103.936C7.61319 102.675 9.69424 101.8 11.933 101.31C13.4464 100.977 16.4314 100.925 17.9449 101.206C18.565 101.321 19.1115 101.435 19.1431 101.467C19.3218 101.654 16.7467 104.227 15.3488 105.259C14.4239 105.946 12.9104 106.894 12.3113 107.165C11.996 107.301 11.9119 107.571 12.1747 107.571C12.5636 107.571 14.2873 106.55 15.6957 105.488C18.5965 103.3 21.0875 100.039 22.4223 96.6849C22.9478 95.3827 23.4418 93.2887 23.5785 91.8094C23.7782 89.6842 23.5785 88.0382 22.7902 85.4858C22.1911 83.5377 22.0755 82.8918 22.128 81.8292C22.2016 80.0894 22.7902 79.4227 25.3757 78.1517C27.2991 77.2037 27.2991 77.2037 29.0544 75.8911C30.3261 74.9431 31.251 74.3388 31.4402 74.3388C31.4928 74.3388 31.5769 74.4534 31.6084 74.5993C31.6504 74.7451 31.724 74.8597 31.7871 74.8597C31.9552 74.8597 32.0183 74.5472 31.9027 74.2868C31.7976 74.0576 31.8291 74.0263 32.8066 73.6304C34.0888 73.1095 35.224 72.7553 36.5588 72.4741C37.8621 72.2032 40.2269 71.8386 40.1113 71.9323C40.0692 71.974 39.5542 72.1928 38.9762 72.4116C35.4237 73.7659 31.682 75.8077 28.3397 78.2142C26.5634 79.4956 25.6805 80.2353 25.6805 80.4436C25.6805 80.7041 25.8802 80.5999 26.7105 79.9332C30.2315 77.0995 34.4672 74.8597 38.9026 73.5158C41.5407 72.7137 43.401 72.4741 44.2629 72.8283C44.6413 72.9949 45.1247 73.37 45.1247 73.5054C45.1247 73.5471 44.6413 73.7034 44.0527 73.8596C42.7179 74.2138 40.4266 74.818 39.6909 75.0264C38.8711 75.2452 38.9656 75.4431 39.9116 75.516C40.7314 75.5785 41.7089 75.9015 42.3395 76.339C42.5392 76.4641 42.7073 76.5995 42.7073 76.6307C42.7073 76.662 42.2239 76.8912 41.6353 77.1412C38.5347 78.4643 36.6534 79.5998 35.1819 81.0583C34.0993 82.1313 33.3846 83.2043 32.9222 84.444C32.5543 85.4546 32.3967 86.6318 32.6279 86.6318C32.712 86.6318 34.8351 85.3191 37.3471 83.7252C39.859 82.1209 41.9506 80.8395 41.9926 80.8708C42.0452 80.8916 42.0767 81.1625 42.0767 81.4541C42.0767 82.1938 41.6038 83.1522 40.8996 83.8606C40.353 84.392 39.9326 84.6628 37.8095 85.8296C36.0122 86.8297 35.4026 87.4964 34.6144 89.3716C34.0993 90.5905 33.8156 91.0593 33.3216 91.4968C32.9958 91.7781 32.8486 91.8302 32.1024 91.8927C31.4928 91.9448 31.251 92.0073 31.251 92.1115C31.251 92.4657 31.9868 92.5699 32.7225 92.3094C32.9642 92.2261 33.29 92.1532 33.4372 92.1532H33.7L33.6369 93.2158C33.5528 94.8618 33.248 95.591 31.1459 99.2893C28.0349 104.738 26.637 108.405 26.2061 112.207C26.0064 114.01 26.1009 115.801 26.4057 115.801C26.5529 115.801 26.5739 115.645 26.5319 114.499C26.4163 110.155 27.8457 105.821 31.5453 99.3935C33.6579 95.7056 34.0153 94.7889 34.0258 93.0595C34.0363 92.0594 34.0153 91.9136 33.8366 91.7781C33.721 91.6948 33.6684 91.6323 33.7315 91.6323C33.9207 91.6323 34.5303 90.6113 34.9822 89.5071C35.76 87.6423 36.233 87.1422 38.2194 86.0484C40.6578 84.7149 41.2044 84.2982 41.877 83.2668C42.4971 82.3084 42.6653 81.0062 42.2449 80.4228C42.1083 80.2561 41.7719 80.4436 37.5573 83.121C35.0558 84.7149 32.9852 85.9859 32.9537 85.9546C32.8696 85.8713 33.248 84.6003 33.5738 83.9232C34.8351 81.2666 37.1894 79.4331 41.7719 77.5058C42.5497 77.1829 43.2224 76.8808 43.2749 76.8287C43.338 76.7766 43.2749 76.6307 43.1173 76.4641C42.907 76.2244 42.8965 76.1932 43.0647 76.2557C43.4431 76.3911 45.2719 76.3286 45.913 76.1619C47.4265 75.7765 48.7298 74.7972 49.4025 73.5575C50.1277 72.1928 50.4009 70.2863 50.0226 69.1508C49.6337 67.9944 48.5196 66.9006 47.2794 66.4734C46.6698 66.2547 45.2824 66.1817 44.5992 66.3172ZM47.5842 67.036C48.4355 67.4527 49.2343 68.2861 49.5286 69.0779C50.1487 70.703 49.4655 73.3075 48.1202 74.5368C46.3965 76.089 43.5482 76.412 41.4461 75.2868C41.0047 75.0472 40.8575 75.1097 43.2854 74.4951C45.6292 73.9117 45.6818 73.8909 45.5872 73.5783C45.3349 72.7345 44.41 72.2553 43.0227 72.2553C42.0872 72.2553 39.7224 72.797 37.8305 73.4533C37.2525 73.6513 36.769 73.7971 36.748 73.7763C36.6849 73.7242 39.7119 72.5157 41.1098 72.0365C42.1083 71.7031 42.392 71.5677 42.371 71.4323C42.3395 71.2552 42.0137 71.2448 41.0887 71.3802L40.6788 71.4427L40.7419 70.8906C40.7839 70.5572 40.9836 69.9842 41.2359 69.4842C41.898 68.1507 43.1908 67.0777 44.5677 66.7339C44.7884 66.6818 45.4085 66.6505 45.934 66.6714C46.7749 66.7026 47.0061 66.7547 47.5842 67.036Z" fill="#FFC904"/>
<path d="M63.5179 68.036C63.5179 68.4736 63.5494 68.609 63.6756 68.609C63.8437 68.609 63.8542 68.5882 63.8542 68.036C63.8542 67.4839 63.8437 67.4631 63.6756 67.4631C63.5494 67.4631 63.5179 67.5985 63.5179 68.036Z" fill="#FFC904"/>
<path d="M61.605 69.5987C60.9323 70.203 60.4173 70.328 59.3137 70.1821C58.3258 70.0467 57.9264 70.1196 56.7912 70.5988C56.0135 70.9218 55.8558 70.9322 54.9835 70.7343C54.521 70.6301 54.6051 70.9843 55.0781 71.1822C55.572 71.3802 56.2027 71.3072 57.4744 70.8905C58.3573 70.5988 58.4834 70.578 59.4819 70.6405C60.4384 70.703 60.5855 70.6926 61.09 70.4842C61.563 70.2759 62.3617 69.5571 62.3617 69.3279C62.3617 69.0987 62.0359 69.2133 61.605 69.5987Z" fill="#FFC904"/>
<path d="M52.9445 70.0051C52.9129 70.0884 52.9024 70.3281 52.9234 70.5468C52.9445 70.8281 53.0075 70.9635 53.1442 70.9844C53.2913 71.0156 53.3228 70.9323 53.3228 70.4426C53.3228 69.9843 53.2913 69.8593 53.1652 69.8593C53.0706 69.8593 52.976 69.9218 52.9445 70.0051Z" fill="#FFC904"/>
<path d="M61.5419 72.0574C61.111 72.5887 60.4173 72.9116 59.5345 72.995C58.3153 73.12 58.042 73.1929 58.0735 73.3908C58.1366 73.7242 60.3648 73.5783 61.1215 73.1825C61.3948 73.0366 62.1831 71.9636 62.099 71.8386C61.9834 71.6615 61.7942 71.7344 61.5419 72.0574Z" fill="#FFC904"/>
<path d="M33.29 76.4744C33.2165 76.6619 33.5318 76.9536 33.763 76.912C34.0468 76.8703 33.9942 76.6411 33.6684 76.4744C33.3741 76.3286 33.3426 76.3286 33.29 76.4744Z" fill="#FFC904"/>
<path d="M38.6083 76.537C38.2299 76.6516 37.4627 76.787 36.9056 76.8599C36.1909 76.9329 35.8756 77.0162 35.8756 77.11C35.8756 77.1829 35.9071 77.2662 35.9597 77.2871C36.1173 77.3808 37.9251 77.1516 38.6924 76.9433C39.4596 76.7349 39.7119 76.5891 39.5963 76.4016C39.5227 76.287 39.4176 76.3078 38.6083 76.537Z" fill="#FFC904"/>
<path d="M33.3952 78.3184C33.0588 78.6831 32.26 79.6727 31.6189 80.5374C30.3682 82.2042 29.191 83.4023 28.3817 83.819C27.8982 84.069 27.8036 84.2565 28.1189 84.319C28.3922 84.3711 29.8426 83.3189 30.4417 82.6418C30.757 82.2876 31.5138 81.3292 32.1234 80.5166C32.7435 79.704 33.5003 78.7768 33.8261 78.4643C34.1414 78.1413 34.4041 77.8392 34.4041 77.7767C34.4041 77.4954 33.9417 77.735 33.3952 78.3184Z" fill="#FFC904"/>
<path d="M35.266 78.11C35.1819 78.1934 35.224 78.3601 35.4131 78.7247C35.6759 79.2456 35.8336 79.3497 35.9387 79.0893C35.9912 78.9434 35.6444 78.1517 35.4762 78.0475C35.4237 78.0163 35.3291 78.0475 35.266 78.11Z" fill="#FFC904"/>
<path d="M53.9745 83.5273C52.5871 88.1528 52.461 88.6633 52.4505 90.0176C52.44 91.7677 52.9655 93.2054 54.1637 94.6951C55.8663 96.8204 58.3363 98.1226 61.7942 98.7268C62.9503 98.9247 63.5389 98.9664 65.8827 98.9664C67.6064 98.9768 68.6365 98.9352 68.668 98.8726C68.6995 98.8101 68.3317 98.758 67.6695 98.7476C65.641 98.6955 62.8242 98.508 61.8888 98.3518C57.5165 97.6434 54.2898 95.3306 53.1442 92.1011C52.8919 91.3719 52.8604 91.1114 52.8604 90.0697C52.8604 88.6424 52.9865 88.1111 54.4264 83.3502C55.551 79.6311 55.53 79.7248 55.3093 79.6728C55.1727 79.6519 54.9204 80.3812 53.9745 83.5273Z" fill="#FFC904"/>
<path d="M22.5905 82.8709C22.5379 82.9439 23.1475 84.1628 23.3157 84.3294C23.3367 84.3503 23.4313 84.3399 23.5259 84.2982C23.673 84.2461 23.6415 84.1315 23.2947 83.5064C22.9163 82.8189 22.7271 82.6522 22.5905 82.8709Z" fill="#FFC904"/>
<path d="M26.2271 86.3713C25.8592 86.5276 25.691 86.788 25.8592 86.9547C25.9223 87.0172 26.0589 86.9756 26.2271 86.8401C26.658 86.5068 27.1204 86.5693 27.5304 86.9964C27.7195 87.2048 27.9087 87.5277 27.9508 87.7256C28.0243 88.1319 28.161 88.2778 28.3291 88.1111C28.4868 87.9548 28.1505 87.0276 27.8036 86.7047C27.2886 86.2255 26.8156 86.1213 26.2271 86.3713Z" fill="#FFC904"/>
<path d="M48.5406 103.842C47.7208 104.144 46.9851 104.852 46.8905 105.436C46.8379 105.738 47.1953 105.769 47.2899 105.467C47.4265 105.019 47.7944 104.644 48.383 104.363C49.2028 103.967 50.1907 103.988 51.4835 104.425C52.1036 104.634 52.461 104.707 52.5346 104.634C52.6922 104.488 52.3349 104.269 51.5361 104.009C50.7373 103.759 49.0241 103.654 48.5406 103.842Z" fill="#FFC904"/>
<path d="M38.315 -1.0856C37.0117 -0.960582 36.1603 -0.793899 35.0883 -0.450113C33.0177 0.216622 31.9457 0.935446 28.4142 4.02951C26.2385 5.93596 24.9668 6.65479 22.0239 7.66531C21.162 7.96742 20.1635 8.33204 19.8062 8.49872C17.8407 9.38423 16.5269 10.801 15.6231 13.0513C14.8873 14.864 14.6666 16.4162 14.5089 20.5312C14.3723 24.5108 14.1621 25.9068 13.542 27.0527C13.2162 27.6778 12.4384 28.5216 12.5435 28.1362C13.7627 23.9899 13.9519 22.9898 13.6261 22.3752C13.4159 21.9689 12.8588 21.6772 12.4699 21.7709C11.4925 22.0105 10.2733 24.6045 10.1366 26.7298C10.0841 27.5215 10.1051 27.6674 10.3258 28.0841C10.5886 28.5945 11.1351 29.0217 11.524 29.0217C11.6606 29.0217 11.7763 29.0633 11.7763 29.105C11.7763 29.4175 10.2207 33.5221 9.41142 35.3244C8.21323 37.9913 7.21475 39.8665 5.04961 43.4711C2.59018 47.5548 1.68629 49.6488 1.68629 51.2323C1.68629 52.1907 1.84394 52.6908 2.33793 53.2325C2.82141 53.7951 3.25233 53.9617 4.93399 54.3055C7.3724 54.7952 10.5255 55.9828 11.3979 56.7433C11.6501 56.962 11.8919 57.2746 11.9234 57.4204C12.0285 57.8163 11.8183 58.2538 11.4084 58.5039C10.7883 58.8789 10.1156 58.9414 7.6772 58.806C3.05264 58.5455 0.225344 59.1081 -1.7401 60.6812C-2.18153 61.0354 -2.44429 61.3375 -2.55991 61.6396C-2.90675 62.5043 -2.51787 62.9731 -0.121499 64.5566C2.68477 66.4005 5.63819 67.5881 9.13815 68.2653C10.473 68.5257 10.7567 68.5466 13.4789 68.5466C15.3813 68.557 16.4323 68.5153 16.5059 68.4424C16.5795 68.3695 16.4954 68.0153 16.2432 67.2444C14.572 62.3689 13.4789 58.0351 13.1006 54.7535C12.9114 53.1596 12.8798 50.0655 13.0375 48.6591C13.4054 45.4504 14.3828 42.6064 15.9489 40.2207C17.2627 38.2309 18.3347 37.0537 24.2521 31.0844C25.7761 29.553 27.0163 28.2299 27.0163 28.1466C27.0163 28.0528 26.8481 27.9382 26.5959 27.8757C26.1334 27.7507 26.1334 27.7299 26.6064 26.8131C26.7325 26.5631 27.3421 25.2609 27.9622 23.9066C29.5388 20.4375 30.5057 18.8123 31.9877 17.1142C33.2384 15.6974 35.1618 14.4889 36.9486 14.0097C38.0942 13.7076 40.5221 13.6763 41.8359 13.9472C43.6542 14.3327 45.4305 15.0515 47.2067 16.1037C48.7938 17.0621 49.7818 17.7809 52.9769 20.3229C54.564 21.5834 56.6766 23.1877 57.6541 23.8857C60.9228 26.188 61.5009 27.0215 62.8777 31.4177C63.2246 32.5324 63.7185 33.918 63.9708 34.491C64.223 35.064 64.4333 35.6369 64.4333 35.7619C64.4333 35.8974 64.4963 36.0016 64.5804 36.0016C64.8116 36.0016 66.7981 39.9811 67.2605 41.3771C68.2065 44.1899 68.0593 46.5756 66.8296 48.4091C66.4933 48.8987 66.4302 49.0654 66.5248 49.1592C66.7035 49.3258 67.0608 48.8883 67.5338 47.9299C68.238 46.5235 68.4377 45.0442 68.1749 43.3252C67.9332 41.7001 67.4602 40.4499 66.1149 37.8247L64.8852 35.4182L64.8116 32.9283C64.5489 23.8961 63.3927 15.8224 61.7321 11.4261C60.124 7.14442 57.5805 4.34205 53.2922 2.11265C49.1512 -0.0438212 42.4666 -1.47105 38.315 -1.0856ZM43.1392 -0.502202C44.947 -0.262594 47.501 0.331217 49.3614 0.945864C54.8793 2.74813 58.579 5.68594 60.6495 9.90512C61.9108 12.4783 62.7516 15.937 63.5294 21.7293C64.1705 26.4381 64.696 34.8035 64.3281 34.2305C64.1705 33.9909 63.4453 31.9491 62.8987 30.2197C62.6044 29.2821 62.1735 28.1987 61.8162 27.5111C61.0489 26.0214 60.0504 25.0004 57.9799 23.6044C57.1706 23.0627 55.552 21.8438 54.3643 20.8958C50.7803 18.0205 49.9289 17.3746 48.6256 16.51C46.4185 15.0306 44.0641 13.9993 41.8359 13.5305C40.5326 13.2596 37.9891 13.2805 36.8435 13.5826C33.5958 14.4473 30.8946 17.0309 28.719 21.3646C28.3091 22.1668 27.5839 23.7086 27.0899 24.8025C25.6394 28.0216 25.8286 27.7403 25.0929 27.8028C24.1259 27.8861 22.8962 28.532 22.129 29.355C21.4353 30.0947 21.0674 30.8031 20.9098 31.7199C20.7626 32.5429 20.8782 32.72 21.4984 32.6366C21.7401 32.595 22.0239 32.5429 22.129 32.5012C22.2446 32.4595 21.5824 33.1992 20.6575 34.1368C19.7326 35.0744 18.5554 36.3141 18.0404 36.8871C14.9399 40.3353 13.521 43.2002 12.7537 47.5132C12.5015 48.9925 12.491 53.6492 12.7537 55.4411C13.2057 58.6497 14.036 61.8792 15.6336 66.661C15.8963 67.4527 16.075 68.1299 16.0435 68.1715C15.8963 68.3174 11.4084 68.2236 10.2522 68.0465C6.03758 67.411 2.20129 65.8484 -1.07794 63.4315C-1.9503 62.7856 -2.30766 62.3689 -2.30766 61.9938C-2.30766 61.723 -1.46683 60.9104 -0.731101 60.4728C0.0992191 59.9936 1.10822 59.629 2.31691 59.379C3.27335 59.1914 5.58564 59.1394 8.991 59.2331C10.6411 59.2748 10.8093 59.2644 11.2507 59.0664C12.1756 58.6393 12.5961 57.8267 12.2492 57.1079C11.7027 55.9619 8.991 54.7743 5.00757 53.9201C3.4205 53.5867 2.87396 53.3471 2.48507 52.847C1.37098 51.399 2.19078 48.9404 5.79584 42.9398C7.50904 40.0957 8.93845 37.3663 10.0315 34.8869C10.7462 33.2409 11.9865 30.0114 12.1862 29.2821C12.2597 29.0008 12.3964 28.8029 12.5961 28.6883C13.1111 28.3862 13.6576 27.7507 13.9939 27.084C14.551 25.9693 14.9294 23.3857 14.9294 20.6458C14.9294 15.9682 15.6756 12.9054 17.2942 10.8636C18.2506 9.66551 19.5119 8.93627 22.3076 7.98826C25.6499 6.85272 26.3752 6.41518 29.5913 3.5503C32.324 1.11255 34.0267 0.13328 36.4756 -0.398025C38.2519 -0.793899 40.7429 -0.83557 43.1392 -0.502202ZM13.0375 22.3335C13.542 22.7398 13.3843 23.8649 12.2913 27.5007C12.1231 28.0632 11.9865 28.5425 11.9865 28.5633C11.9865 28.5841 11.8288 28.605 11.6396 28.605C10.3048 28.605 10.1366 26.5318 11.2612 23.8545C11.6081 23.0315 12.0811 22.396 12.4489 22.2501C12.7642 22.1251 12.7747 22.1251 13.0375 22.3335ZM25.1244 28.7821C23.9052 30.9281 22.8227 31.9803 21.6245 32.1887L21.2356 32.2616L21.2987 31.8136C21.4668 30.7927 22.1605 29.7092 23.0539 29.0529C23.6004 28.657 24.7461 28.1987 25.2085 28.1882H25.4608L25.1244 28.7821ZM26.3857 28.2716C26.3857 28.3133 26.1229 28.605 25.7971 28.9175L25.2085 29.4905L25.5659 28.8446C25.8286 28.3445 25.9653 28.1882 26.1544 28.1882C26.2806 28.1882 26.3857 28.2299 26.3857 28.2716Z" fill="#FFC904"/>
<path d="M39.345 25.7922C38.7774 25.9172 37.863 26.4173 37.348 26.8548C36.0342 27.9799 35.3195 29.3342 34.3841 32.4387C33.4907 35.3973 32.9652 36.4495 31.83 37.5747C31.3571 38.0435 30.6214 38.5331 30.7054 38.3247C31.6514 36.1266 31.6934 35.762 30.9682 36.1995C30.4217 36.5433 29.9066 37.1788 29.7175 37.783C29.4967 38.4602 29.4862 39.0852 29.6964 39.1686C29.8856 39.2415 29.9066 39.1998 28.9397 41.2625C27.9202 43.4503 26.4908 46.0964 24.8827 48.7841C22.6965 52.4095 21.9608 54.0555 21.6035 56.0453C20.7626 60.827 23.4217 65.9526 28.4142 69.1717C31.1048 70.9114 33.9111 71.6407 35.4141 70.9948C37.3375 70.1822 37.6738 67.6819 35.9606 67.0777L35.4561 66.9006L35.3931 65.9109C35.3195 64.7024 35.4561 62.1084 35.6874 60.4833C36.381 55.5036 38.3465 50.4614 41.1843 46.3672C42.4876 44.4816 43.465 43.3252 45.1362 41.6792C49.5716 37.3142 52.052 36.5329 55.6045 38.356C57.3703 39.2623 59.5774 41.0333 61.1014 42.7627C64.8431 46.9923 66.8611 51.9095 67.1239 57.4621C67.1659 58.431 67.1554 58.9623 67.0608 59.181L66.9452 59.4832L66.714 59.0769C66.5774 58.8477 66.4092 58.6602 66.3251 58.6602C66.1464 58.6602 65.9888 59.3269 66.0308 59.8582C66.0624 60.1916 66.0939 60.2228 66.4512 60.2541L66.8401 60.2853L67.0083 61.0354C67.5233 63.2856 67.4182 65.4109 66.6299 68.557C66.2515 70.0572 63.7711 78.0476 63.4978 78.6726C63.2771 79.1727 62.9408 79.4227 62.4258 79.5061C61.9318 79.579 46.923 77.4225 46.3028 77.1933C46.1557 77.1308 45.956 77.4121 46.0611 77.5163C46.1662 77.6204 54.3538 78.881 59.5249 79.5894C62.678 80.0269 62.8987 80.0165 63.4978 79.3498C63.8342 78.9747 63.9918 78.558 65.0639 75.1514C66.8822 69.3488 67.2395 68.0257 67.5338 65.9734C67.8176 64.0357 67.6915 61.7021 67.2395 60.4312C67.1029 60.0457 67.1029 59.9832 67.3026 59.5978C67.4918 59.2331 67.5128 59.0039 67.5023 57.7538C67.4392 52.67 65.4738 47.3882 62.0894 43.2419C61.2171 42.1793 59.3672 40.3979 58.2847 39.5749C55.7937 37.7101 53.8808 36.9496 51.9364 37.0746C49.9184 37.1892 48.0686 38.3039 45.1047 41.1584C43.1813 43.0231 42.1092 44.2837 40.7008 46.3672C36.9486 51.9303 35.0042 58.2122 35.0042 64.8066V66.8902L34.4471 67.1506C34.1213 67.3069 33.806 67.5569 33.6694 67.7653C32.9967 68.7758 33.848 70.4114 35.0883 70.5051C35.5297 70.5364 35.4141 70.651 34.794 70.7968C33.764 71.0364 32.0403 70.6406 30.1694 69.7134C25.1665 67.2548 21.8557 62.5043 21.8662 57.8267C21.8767 55.2848 22.6019 53.3575 25.1034 49.2113C27.0583 45.9714 28.9187 42.4502 30.0643 39.8249C30.3901 39.0852 30.4742 38.981 30.9156 38.7623C31.6093 38.4081 32.5027 37.5642 33.0703 36.7204C33.6799 35.8036 34.1318 34.7098 34.7835 32.5533C35.6768 29.6259 36.1708 28.5946 37.2114 27.5528C38.9035 25.8755 40.6903 25.6672 42.5717 26.9381C43.3704 27.4799 45.1257 28.9696 46.0296 29.8864L46.6917 30.5635L45.8719 30.6052C44.8734 30.6469 44.0851 30.9698 43.3599 31.6365C42.2984 32.6054 41.7518 33.6888 40.6693 36.96L39.86 39.429L37.327 42.7731C34.6994 46.2422 34.2474 46.9402 34.0793 47.8674C33.8796 48.93 34.3525 49.9405 34.9726 49.7947C35.5507 49.6696 36.1603 49.3154 36.6228 48.8466C37.5057 47.9611 37.863 47.086 39.7339 41.2313L40.2804 39.5332L41.405 38.0955C43.917 34.8556 45.483 33.3555 47.4695 32.3033L47.9845 32.0324L48.3629 32.47C48.8989 33.0742 49.2037 32.8346 48.8253 32.1053C48.7412 31.9491 48.6677 31.8032 48.6677 31.7824C48.6677 31.772 48.9409 31.7095 49.2773 31.6365C50.0971 31.4594 50.3704 31.3344 50.3178 31.1782C50.2653 31.0219 49.7713 31.0636 48.962 31.2823L48.3734 31.4386L47.995 31.1573C47.7848 31.0011 47.0596 30.3239 46.3869 29.6572C44.8629 28.157 43.2548 26.834 42.3825 26.3443C41.3209 25.7609 40.2804 25.563 39.345 25.7922ZM46.986 31.1052C47.1857 31.1677 47.438 31.324 47.5326 31.4594L47.7217 31.7095L46.9545 32.1262C45.3779 32.9804 43.465 34.7827 41.6573 37.0954C41.1528 37.7413 40.7218 38.2622 40.7008 38.2414C40.6167 38.158 41.899 34.5952 42.3299 33.7201C42.95 32.47 43.8119 31.5532 44.6737 31.2303C45.3149 30.9906 46.3764 30.9281 46.986 31.1052ZM30.5163 37.7413C30.0748 38.7831 30.0853 38.7623 30.0012 38.6789C29.8121 38.4914 30.5373 36.8454 30.8211 36.835C30.8631 36.835 30.7265 37.2413 30.5163 37.7413ZM38.5357 43.5649C37.5162 46.7006 37.3375 47.1798 36.854 47.9195C36.3285 48.7321 35.5087 49.3363 34.9201 49.3363C34.6468 49.3363 34.4261 48.8675 34.4366 48.2945C34.4471 47.4611 34.9832 46.5547 37.2324 43.5753C38.3885 42.0439 39.3555 40.8041 39.3765 40.825C39.3975 40.8458 39.0191 42.0751 38.5357 43.5649ZM66.5668 59.7019C66.6089 59.7853 66.5879 59.879 66.5353 59.9103C66.4723 59.952 66.4302 59.879 66.4302 59.7644C66.4302 59.504 66.4933 59.4832 66.5668 59.7019ZM35.2249 68.7341C35.3195 69.4946 35.3826 70.1405 35.372 70.1509C35.2564 70.2759 34.6258 69.9947 34.321 69.6925C33.6273 69.0154 33.6483 68.0778 34.363 67.5986C35.0147 67.161 35.0357 67.2027 35.2249 68.7341ZM36.0552 67.5152C36.854 67.9215 36.875 69.4008 36.0868 70.0988C35.8765 70.2759 35.866 70.2759 35.8135 70.0467C35.782 69.9113 35.6979 69.38 35.6348 68.8695C35.5717 68.3486 35.4982 67.8069 35.4771 67.6402C35.4246 67.3069 35.5823 67.2756 36.0552 67.5152Z" fill="#FFC904"/>
<path d="M62.5939 50.649C61.3011 50.8573 60.1345 51.3261 59.4934 51.8991C58.8207 52.5033 58.5474 53.3055 58.9153 53.6076C59.136 53.7951 59.3883 53.5659 59.3883 53.1805C59.3883 52.7846 59.9138 52.2012 60.5759 51.8782C61.5008 51.4094 62.5624 51.2011 63.8972 51.2219C64.9167 51.2428 65.1164 51.2219 65.211 51.0761C65.2846 50.9511 65.2846 50.8677 65.2005 50.7844C65.0744 50.6594 63.151 50.5656 62.5939 50.649Z" fill="#FFC904"/>
<path d="M48.4049 53.6492C47.1121 54.0139 44.8419 55.1077 43.8224 55.8682C42.8344 56.6079 42.4245 57.2642 42.8554 57.4309C42.9711 57.4725 43.1182 57.3788 43.3389 57.1079C43.7909 56.5454 44.8104 55.8682 46.2188 55.1702C48.7518 53.9305 50.1917 53.7638 51.6947 54.5139C52.1256 54.7327 52.2727 54.7639 52.3778 54.6598C52.5775 54.4618 52.3463 54.2118 51.6631 53.868C51.1061 53.5971 50.9169 53.5555 49.9815 53.5346C49.3193 53.5138 48.7412 53.5555 48.4049 53.6492Z" fill="#FFC904"/>
<path d="M65.4002 56.4412C64.7801 57.1496 63.6765 57.3267 61.9423 56.9933C61.4903 56.91 60.7651 56.8371 60.3237 56.8371C59.6615 56.8371 59.4618 56.8787 59.1675 57.0767C58.7787 57.3371 58.6946 57.7017 58.9994 57.7538C59.1045 57.7747 59.2832 57.7122 59.3883 57.6184C59.7036 57.3371 60.3868 57.3163 61.8582 57.5663C63.4137 57.8372 64.2546 57.8059 65.0008 57.4517C65.5473 57.2017 66.1359 56.5975 66.0518 56.3787C65.9362 56.087 65.6945 56.1078 65.4002 56.4412Z" fill="#FFC904"/>
<path d="M58.0745 57.3579C57.9904 57.4933 58.064 57.7329 58.4633 58.6497C58.8627 59.556 59.588 60.7749 59.7771 60.8374C60.0609 60.952 60.0294 60.5874 59.7246 60.1498C59.3252 59.5664 58.7787 58.483 58.5474 57.8371C58.3688 57.3162 58.2111 57.1495 58.0745 57.3579Z" fill="#FFC904"/>
<path d="M52.3989 58.7852C52.2307 58.879 51.7262 59.2852 51.2953 59.6811C49.8133 61.0563 48.468 61.4 46.7022 60.8479C46.1977 60.6916 45.5461 60.5562 45.2518 60.5458C44.7578 60.5354 44.7263 60.5458 44.7263 60.7958C44.7263 61.0354 44.7788 61.0667 45.3044 61.1188C45.6197 61.1604 46.0926 61.2646 46.3449 61.3584C47.1437 61.6501 48.0686 61.7438 48.8464 61.6292C49.8869 61.4626 50.6962 61.025 51.6947 60.1082C52.1781 59.6707 52.7457 59.254 52.9559 59.1811C53.2187 59.0873 53.3448 58.9831 53.3448 58.8477C53.3448 58.5977 52.8193 58.556 52.3989 58.7852Z" fill="#FFC904"/>
<path d="M61.4798 64.3065C61.4168 64.4732 61.2486 64.7233 61.0909 64.8899C60.8807 65.1087 60.8492 65.2025 60.9438 65.2962C61.0384 65.39 61.1225 65.4004 61.2591 65.3171C61.4798 65.1816 61.9108 64.4524 61.9108 64.2024C61.9108 63.9211 61.606 63.994 61.4798 64.3065Z" fill="#FFC904"/>
<path d="M55.079 65.5254C55.079 66.2651 55.1105 66.4213 55.2367 66.4213C55.3733 66.4213 55.3943 66.2755 55.3733 65.5671C55.3523 65.0045 55.2997 64.7024 55.2156 64.6712C55.1105 64.6399 55.079 64.8587 55.079 65.5254Z" fill="#FFC904"/>
<path d="M57.1811 65.5359C57.1811 65.6505 57.3072 65.6921 57.7066 65.6921C58.106 65.6921 58.2321 65.6505 58.2321 65.5359C58.2321 65.4213 58.106 65.3796 57.7066 65.3796C57.3072 65.3796 57.1811 65.4213 57.1811 65.5359Z" fill="#FFC904"/>
<path d="M44.989 66.3172C44.3269 66.4526 43.1392 67.0673 42.5611 67.5673C41.6467 68.3382 40.89 69.7654 40.7218 70.9843L40.6588 71.4948L39.5867 71.6302C36.8855 71.9636 34.0057 72.7449 32.261 73.62C31.273 74.1096 30.4532 74.641 28.698 75.9536C27.8466 76.5787 26.9848 77.0995 25.8076 77.6725C23.8842 78.6309 23.2115 79.0893 22.7386 79.7977C21.8347 81.1312 21.8452 82.4334 22.8016 85.5587C23.4638 87.7152 23.5899 88.5278 23.5899 90.4863C23.5899 92.9658 23.2115 94.7576 22.2025 97.1016C21.6875 98.2788 20.5734 100.237 20.09 100.8L19.8167 101.112L18.8182 100.904C17.4834 100.612 15.3708 100.529 13.8678 100.696C10.3258 101.071 7.14117 102.446 4.32439 104.8C3.12621 105.8 1.26587 108.019 1.26587 108.447C1.26587 108.801 1.57067 108.582 2.05415 107.853C2.8109 106.759 4.90246 104.717 6.10064 103.936C8.00302 102.675 10.0841 101.8 12.3228 101.31C13.8363 100.977 16.8212 100.925 18.3347 101.206C18.9548 101.321 19.5014 101.435 19.5329 101.467C19.7116 101.654 17.1365 104.227 15.7387 105.259C14.8137 105.946 13.3003 106.894 12.7012 107.165C12.3859 107.301 12.3018 107.571 12.5645 107.571C12.9534 107.571 14.6771 106.55 16.0855 105.488C18.9864 103.3 21.4773 100.039 22.8121 96.6849C23.3377 95.3827 23.8317 93.2887 23.9683 91.8094C24.168 89.6842 23.9683 88.0382 23.18 85.4858C22.5809 83.5377 22.4653 82.8918 22.5179 81.8292C22.5914 80.0894 23.18 79.4227 25.7656 78.1517C27.689 77.2037 27.689 77.2037 29.4442 75.8911C30.716 74.9431 31.6409 74.3388 31.8301 74.3388C31.8826 74.3388 31.9667 74.4534 31.9982 74.5993C32.0403 74.7451 32.1138 74.8597 32.1769 74.8597C32.3451 74.8597 32.4081 74.5472 32.2925 74.2868C32.1874 74.0576 32.2189 74.0263 33.1964 73.6304C34.4787 73.1095 35.6138 72.7553 36.9486 72.4741C38.2519 72.2032 40.6167 71.8386 40.5011 71.9323C40.4591 71.974 39.9441 72.1928 39.366 72.4116C35.8135 73.7659 32.0718 75.8077 28.7295 78.2142C26.9532 79.4956 26.0704 80.2353 26.0704 80.4436C26.0704 80.7041 26.2701 80.5999 27.1004 79.9332C30.6214 77.0995 34.857 74.8597 39.2924 73.5158C41.9305 72.7137 43.7909 72.4741 44.6527 72.8283C45.0311 72.9949 45.5146 73.37 45.5146 73.5054C45.5146 73.5471 45.0311 73.7034 44.4425 73.8596C43.1077 74.2138 40.8164 74.818 40.0807 75.0264C39.2609 75.2452 39.3555 75.4431 40.3014 75.516C41.1212 75.5785 42.0987 75.9015 42.7293 76.339C42.929 76.4641 43.0972 76.5995 43.0972 76.6307C43.0972 76.662 42.6137 76.8912 42.0251 77.1412C38.9246 78.4643 37.0432 79.5998 35.5717 81.0583C34.4892 82.1313 33.7745 83.2043 33.312 84.444C32.9442 85.4546 32.7865 86.6318 33.0177 86.6318C33.1018 86.6318 35.2249 85.3191 37.7369 83.7252C40.2489 82.1209 42.3404 80.8395 42.3825 80.8708C42.435 80.8916 42.4666 81.1625 42.4666 81.4541C42.4666 82.1938 41.9936 83.1522 41.2894 83.8606C40.7429 84.392 40.3224 84.6628 38.1993 85.8296C36.4021 86.8297 35.7925 87.4964 35.0042 89.3716C34.4892 90.5905 34.2054 91.0593 33.7114 91.4968C33.3856 91.7781 33.2384 91.8302 32.4922 91.8927C31.8826 91.9448 31.6409 92.0073 31.6409 92.1115C31.6409 92.4657 32.3766 92.5699 33.1123 92.3094C33.3541 92.2261 33.6799 92.1532 33.827 92.1532H34.0898L34.0267 93.2158C33.9426 94.8618 33.6378 95.591 31.5358 99.2893C28.4247 104.738 27.0268 108.405 26.5959 112.207C26.3962 114.01 26.4908 115.801 26.7956 115.801C26.9427 115.801 26.9637 115.645 26.9217 114.499C26.8061 110.155 28.2355 105.821 31.9352 99.3935C34.0477 95.7056 34.4051 94.7889 34.4156 93.0595C34.4261 92.0594 34.4051 91.9136 34.2264 91.7781C34.1108 91.6948 34.0583 91.6323 34.1213 91.6323C34.3105 91.6323 34.9201 90.6113 35.3721 89.5071C36.1498 87.6423 36.6228 87.1422 38.6092 86.0484C41.0477 84.7149 41.5942 84.2982 42.2669 83.2668C42.887 82.3084 43.0551 81.0062 42.6347 80.4228C42.4981 80.2561 42.1618 80.4436 37.9471 83.121C35.4456 84.7149 33.3751 85.9859 33.3435 85.9546C33.2595 85.8713 33.6378 84.6003 33.9637 83.9232C35.2249 81.2666 37.5792 79.4331 42.1618 77.5058C42.9395 77.1829 43.6122 76.8808 43.6647 76.8287C43.7278 76.7766 43.6647 76.6307 43.5071 76.4641C43.2969 76.2244 43.2864 76.1932 43.4545 76.2557C43.8329 76.3911 45.6617 76.3286 46.3028 76.1619C47.8163 75.7765 49.1196 74.7972 49.7923 73.5575C50.5175 72.1928 50.7908 70.2863 50.4124 69.1508C50.0235 67.9944 48.9094 66.9006 47.6692 66.4734C47.0596 66.2547 45.6722 66.1817 44.989 66.3172ZM47.974 67.036C48.8253 67.4527 49.6241 68.2861 49.9184 69.0779C50.5385 70.703 49.8554 73.3075 48.51 74.5368C46.7863 76.089 43.938 76.412 41.8359 75.2868C41.3945 75.0472 41.2474 75.1097 43.6753 74.4951C46.0191 73.9117 46.0716 73.8909 45.977 73.5783C45.7248 72.7345 44.7999 72.2553 43.4125 72.2553C42.4771 72.2553 40.1122 72.797 38.2204 73.4533C37.6423 73.6513 37.1588 73.7971 37.1378 73.7763C37.0747 73.7242 40.1017 72.5157 41.4996 72.0365C42.4981 71.7031 42.7819 71.5677 42.7608 71.4323C42.7293 71.2552 42.4035 71.2448 41.4786 71.3802L41.0687 71.4427L41.1317 70.8906C41.1738 70.5572 41.3735 69.9842 41.6257 69.4842C42.2879 68.1507 43.5807 67.0777 44.9575 66.7339C45.1782 66.6818 45.7983 66.6505 46.3239 66.6714C47.1647 66.7026 47.3959 66.7547 47.974 67.036Z" fill="#FFC904"/>
<path d="M63.9077 68.036C63.9077 68.4736 63.9393 68.609 64.0654 68.609C64.2336 68.609 64.2441 68.5882 64.2441 68.036C64.2441 67.4839 64.2336 67.4631 64.0654 67.4631C63.9393 67.4631 63.9077 67.5985 63.9077 68.036Z" fill="#FFC904"/>
<path d="M61.9948 69.5987C61.3222 70.203 60.8072 70.328 59.7036 70.1821C58.7156 70.0467 58.3162 70.1196 57.1811 70.5988C56.4033 70.9218 56.2457 70.9322 55.3733 70.7343C54.9108 70.6301 54.9949 70.9843 55.4679 71.1822C55.9619 71.3802 56.5925 71.3072 57.8643 70.8905C58.7471 70.5988 58.8733 70.578 59.8717 70.6405C60.8282 70.703 60.9753 70.6926 61.4798 70.4842C61.9528 70.2759 62.7516 69.5571 62.7516 69.3279C62.7516 69.0987 62.4258 69.2133 61.9948 69.5987Z" fill="#FFC904"/>
<path d="M53.3343 70.0051C53.3028 70.0884 53.2922 70.3281 53.3133 70.5468C53.3343 70.8281 53.3974 70.9635 53.534 70.9844C53.6811 71.0156 53.7127 70.9323 53.7127 70.4426C53.7127 69.9843 53.6811 69.8593 53.555 69.8593C53.4604 69.8593 53.3658 69.9218 53.3343 70.0051Z" fill="#FFC904"/>
<path d="M61.9318 72.0574C61.5008 72.5887 60.8072 72.9116 59.9243 72.995C58.7051 73.12 58.4318 73.1929 58.4633 73.3908C58.5264 73.7242 60.7546 73.5783 61.5114 73.1825C61.7846 73.0366 62.5729 71.9636 62.4888 71.8386C62.3732 71.6615 62.184 71.7344 61.9318 72.0574Z" fill="#FFC904"/>
<path d="M33.6799 76.4744C33.6063 76.6619 33.9216 76.9536 34.1528 76.912C34.4366 76.8703 34.3841 76.6411 34.0582 76.4744C33.764 76.3286 33.7324 76.3286 33.6799 76.4744Z" fill="#FFC904"/>
<path d="M38.9981 76.537C38.6198 76.6516 37.8525 76.787 37.2954 76.8599C36.5807 76.9329 36.2654 77.0162 36.2654 77.11C36.2654 77.1829 36.297 77.2662 36.3495 77.2871C36.5072 77.3808 38.315 77.1516 39.0822 76.9433C39.8495 76.7349 40.1017 76.5891 39.9861 76.4016C39.9125 76.287 39.8074 76.3078 38.9981 76.537Z" fill="#FFC904"/>
<path d="M33.785 78.3184C33.4487 78.6831 32.6499 79.6727 32.0087 80.5374C30.758 82.2042 29.5808 83.4023 28.7715 83.819C28.2881 84.069 28.1935 84.2565 28.5088 84.319C28.782 84.3711 30.2325 83.3189 30.8316 82.6418C31.1469 82.2876 31.9036 81.3292 32.5132 80.5166C33.1333 79.704 33.8901 78.7768 34.2159 78.4643C34.5312 78.1413 34.794 77.8392 34.794 77.7767C34.794 77.4954 34.3315 77.735 33.785 78.3184Z" fill="#FFC904"/>
<path d="M35.6558 78.11C35.5717 78.1934 35.6138 78.3601 35.803 78.7247C36.0657 79.2456 36.2234 79.3497 36.3285 79.0893C36.381 78.9434 36.0342 78.1517 35.866 78.0475C35.8135 78.0163 35.7189 78.0475 35.6558 78.11Z" fill="#FFC904"/>
<path d="M54.3643 83.5273C52.9769 88.1528 52.8508 88.6633 52.8403 90.0176C52.8298 91.7677 53.3553 93.2054 54.5535 94.6951C56.2562 96.8204 58.7261 98.1226 62.184 98.7268C63.3402 98.9247 63.9288 98.9664 66.2726 98.9664C67.9963 98.9768 69.0263 98.9352 69.0578 98.8726C69.0893 98.8101 68.7215 98.758 68.0593 98.7476C66.0308 98.6955 63.2141 98.508 62.2786 98.3518C57.9063 97.6434 54.6796 95.3306 53.534 92.1011C53.2817 91.3719 53.2502 91.1114 53.2502 90.0697C53.2502 88.6424 53.3763 88.1111 54.8163 83.3502C55.9409 79.6311 55.9198 79.7248 55.6991 79.6728C55.5625 79.6519 55.3102 80.3812 54.3643 83.5273Z" fill="#FFC904"/>
<path d="M22.9803 82.8709C22.9278 82.9439 23.5374 84.1628 23.7055 84.3294C23.7265 84.3503 23.8211 84.3399 23.9157 84.2982C24.0629 84.2461 24.0313 84.1315 23.6845 83.5064C23.3061 82.8189 23.1169 82.6522 22.9803 82.8709Z" fill="#FFC904"/>
<path d="M26.6169 86.3713C26.249 86.5276 26.0809 86.788 26.249 86.9547C26.3121 87.0172 26.4487 86.9756 26.6169 86.8401C27.0478 86.5068 27.5103 86.5693 27.9202 86.9964C28.1094 87.2048 28.2986 87.5277 28.3406 87.7256C28.4142 88.1319 28.5508 88.2778 28.719 88.1111C28.8766 87.9548 28.5403 87.0276 28.1935 86.7047C27.6784 86.2255 27.2055 86.1213 26.6169 86.3713Z" fill="#FFC904"/>
<path d="M48.9304 103.842C48.1106 104.144 47.3749 104.852 47.2803 105.436C47.2278 105.738 47.5851 105.769 47.6797 105.467C47.8163 105.019 48.1842 104.644 48.7728 104.363C49.5926 103.967 50.5806 103.988 51.8734 104.425C52.4935 104.634 52.8508 104.707 52.9244 104.634C53.082 104.488 52.7247 104.269 51.9259 104.009C51.1271 103.759 49.4139 103.654 48.9304 103.842Z" fill="#FFC904"/>
</g>
<defs>
<clipPath id="clip0_1135_76716">
<rect width="93.4463" height="136.524" fill="white"/>
</clipPath>
</defs>
</svg>