<svg xmlns="http://www.w3.org/2000/svg" width="94" height="137" viewBox="0 0 94 137" fill="none">
<g clip-path="url(#clip0_1135_97434)">
<path d="M37.0942 18.0056C30.8122 18.8792 22.8661 23.0395 10.8845 31.7345C6.55783 34.8963 3.06321 36.9764 -3.01079 40.0134C-5.42375 41.2199 -8.66876 43.0504 -10.2497 44.0905C-13.7027 46.3786 -17.6965 49.9565 -16.7397 49.9981C-16.4069 49.9981 -12.4962 48.2924 -8.08632 46.2538C-3.67643 44.1737 0.109413 42.4264 0.317427 42.3848C0.567043 42.3432 1.06628 43.3 1.5239 44.5065C1.93993 45.713 2.68878 47.2939 3.14641 48.0427C3.60404 48.8332 4.76892 51.371 5.68418 53.7007C7.5563 58.3602 8.05553 59.2755 10.1773 61.9796L11.5918 63.7686L9.22041 66.3479C5.47616 70.3418 5.30975 70.4666 3.60404 70.217L2.14795 70.009L3.60404 70.6746C5.55937 71.5899 11.7998 71.8811 14.7536 71.2154C16.0432 70.9242 19.3299 69.7178 22.0756 68.5113C28.5241 65.7239 32.6843 64.559 37.219 64.3094C41.8785 64.0598 44.5827 64.9334 45.7892 67.0136C47.3285 69.6345 47.1205 76.4574 45.4564 77.8303C44.7075 78.4543 36.6366 79.6608 35.3885 79.3696C34.0988 79.0368 30.8122 76.0414 29.9802 74.5021C28.316 71.2571 30.2714 66.8888 33.974 65.6823C34.3068 65.5575 34.0988 65.4327 33.5164 65.4327C32.0603 65.3911 29.6057 68.0952 28.9817 70.3834C28.316 72.7964 28.9817 74.4605 31.7275 77.331C32.9755 78.6623 33.974 79.7856 33.974 79.9104C33.974 80.2848 24.863 79.4944 22.5333 78.9119C18.0818 77.7471 15.7104 76.4158 15.0032 74.7517C14.3375 73.1292 13.5887 72.6299 12.4654 73.046C11.8414 73.2956 11.9662 73.5868 13.2975 74.8765C14.1711 75.7085 15.4608 77.331 16.1681 78.4543C18.8722 82.6146 23.9894 85.402 31.8939 87.0245C35.3053 87.7317 37.1774 87.8981 40.4224 87.7317C45.3731 87.5237 47.4949 86.8581 52.4872 83.9043C54.5673 82.6978 57.6459 81.2417 59.3517 80.7009C63.2623 79.4944 66.0081 77.123 66.0081 75.0013C66.0081 73.3788 65.4673 72.2555 63.8447 70.5498L62.6383 69.2601L66.3409 68.3033C68.421 67.804 72.2069 66.4727 74.7863 65.3495C77.3656 64.2262 79.529 63.3109 79.5706 63.3109C79.6122 63.3109 79.4874 63.935 79.321 64.7254C78.5305 68.3449 80.361 72.7131 84.3549 76.6238L87.1839 79.3696L87.2671 84.9443C87.3087 88.4806 87.1423 91.0183 86.8094 91.8088C84.9789 96.5099 85.7278 102.501 87.9743 100.67C88.4735 100.254 88.5568 99.2141 88.3903 94.8042L88.1823 89.479L90.0128 86.3172C90.9697 84.5699 91.8018 82.9058 91.8018 82.6146C91.8018 82.157 91.2609 81.6577 88.4319 79.328C87.2255 78.3711 86.9342 67.8872 87.8911 61.522C88.3487 58.7346 88.6816 54.5744 88.6816 52.2862C88.6816 48.6252 88.5152 47.5851 87.1423 43.5497C86.3102 41.0119 85.5198 37.7669 85.3533 36.3524C85.1453 34.6051 84.8957 33.8562 84.6461 34.1058C84.3965 34.3555 84.5213 35.9364 85.0205 38.5989C85.5198 41.0119 85.6862 42.8008 85.4366 42.884C84.7293 43.1336 84.4381 42.052 83.5228 36.4356C83.0236 33.357 82.4412 30.3616 82.2331 29.7792C81.4843 27.8238 80.0698 26.2013 78.5721 25.5773C76.9912 24.9116 44.1251 18.172 41.0465 17.8808C40.0064 17.7976 38.2591 17.8392 37.0942 18.0056ZM59.2685 21.8746C68.8371 23.7884 77.324 25.6605 78.1145 25.9933C80.9851 27.1998 81.7755 28.9055 83.0652 36.602C83.5644 39.639 83.8972 42.2184 83.814 42.3016C83.7724 42.3848 75.7431 39.5558 66.0081 35.978C44.4163 28.1151 41.8369 27.4078 36.4702 27.6574C31.6027 27.8654 27.3592 29.2383 18.4146 33.3986C14.9616 35.0211 11.9662 36.394 11.7166 36.4356C11.5086 36.4772 11.0093 36.6852 10.6765 36.8932C10.3437 37.1428 8.38835 38.0581 6.30822 39.015C3.06321 40.5127 2.52237 40.6375 2.27275 40.055C1.64871 38.5157 1.98153 37.9749 4.5609 36.5604C5.9754 35.7283 10.3021 32.8162 14.2127 30.0288C21.3268 24.9116 28.3576 21.0426 33.766 19.2537C38.0511 17.8392 40.2976 18.0888 59.2685 21.8746ZM44.9987 29.1551C46.6212 29.6127 56.1066 32.941 66.0913 36.5604L84.2717 43.1336L84.7709 45.4218C85.0205 46.6699 85.8942 49.7901 86.643 52.3694L88.0575 57.0289L87.3919 61.106C86.8926 64.2262 86.7678 66.7224 86.9759 71.7563C87.1839 77.9135 87.1423 78.2879 86.4766 77.9135C85.1869 77.2478 81.9419 73.5036 80.9851 71.6315C79.9034 69.5097 79.4458 65.5991 80.0698 63.7686C80.6522 62.1461 80.361 62.1461 77.324 63.6854C73.7462 65.4743 67.381 67.7624 64.4688 68.3033L61.8894 68.7609L57.9372 66.1399C55.7322 64.6838 53.9433 63.3941 53.9433 63.2693C53.9433 63.1029 54.4425 62.6453 55.0666 62.2709C56.1066 61.5636 56.1898 61.5636 56.8139 62.4373C57.7708 63.6854 60.1421 63.9766 62.0142 63.1029C62.8879 62.6869 64.7184 61.0228 66.0913 59.4003C68.5875 56.4465 72.4149 50.4141 72.0405 50.0397C71.7493 49.7485 70.8756 50.7053 70.7508 51.4126C70.4596 53.3263 64.8016 60.69 62.3055 62.3541C61.515 62.8949 60.3917 63.3109 59.8093 63.3109C58.686 63.3109 56.8555 62.3125 56.8555 61.6884C56.8555 61.522 58.478 60.2739 60.5165 58.9427C65.2176 55.8224 70.7092 51.6206 70.4596 51.371C70.3348 51.2878 69.0451 52.1198 67.589 53.2847C64.344 55.8224 57.6459 60.3987 57.1883 60.3987C56.5227 60.3987 56.8971 58.6098 59.3517 51.2046C60.6829 47.0027 61.7646 43.508 61.6814 43.4248C61.5982 43.3416 59.8925 46.4618 57.8956 50.2893C53.6521 58.4018 53.028 59.4003 51.3223 60.3987C50.1159 61.1476 50.0327 61.1476 48.4518 60.3571C47.5781 59.8995 45.7892 59.3171 44.4579 59.0259C42.1697 58.5266 42.0449 58.4434 40.9633 56.2385C38.2591 50.7469 35.6381 40.3046 35.6381 34.9795C35.6381 31.4017 34.9725 31.9841 34.6813 35.7283C34.39 40.263 34.9725 45.297 36.5118 51.0797C37.219 53.7839 37.9263 56.4465 38.0095 56.9457C38.2175 57.861 38.1759 57.861 33.7244 57.653C31.2282 57.5282 28.9401 57.3617 28.6905 57.2369C28.3992 57.1537 27.276 55.7392 26.1943 54.0751L24.1974 51.0381L23.9894 45.2554C23.823 41.1367 23.6149 39.3894 23.2821 39.2646C21.7012 38.7653 21.618 44.3401 23.1157 49.2908C24.9878 55.448 25.5287 57.9026 25.071 57.9026C24.8214 57.9442 23.823 58.1106 22.8245 58.277C21.7012 58.485 20.9524 58.485 20.786 58.1938C20.6195 57.9442 20.7444 57.9026 21.0772 58.1106C21.3684 58.277 20.6611 57.2369 19.5379 55.7808C15.128 50.1229 11.5502 42.5928 11.5086 38.8902C11.5086 37.1428 11.5502 37.1012 13.9215 36.0196C29.6889 28.7391 32.4347 27.8654 38.5503 28.1567C40.5056 28.2399 43.4178 28.6975 44.9987 29.1551ZM12.8398 47.4603C13.8799 49.4988 14.8784 50.9965 15.2112 50.9133C15.5024 50.8717 15.6272 50.9965 15.4608 51.2046C15.1696 51.7038 19.7875 57.9858 20.2035 57.7362C20.3699 57.6114 20.4947 57.9026 20.4947 58.3602C20.4947 58.7762 20.2451 59.1507 19.9539 59.1507C19.7043 59.1507 18.0402 59.8995 16.2929 60.7732L13.1311 62.4373L11.883 60.482C9.30361 56.4049 2.77199 42.7592 2.77199 41.4279C2.77199 41.3031 4.5193 40.3878 6.64104 39.431L10.4685 37.6421L10.7181 40.7623C10.9677 43.3416 11.3421 44.5481 12.8398 47.4603ZM0.400633 41.6359C0.109413 41.9271 -2.30354 43.0504 -11.997 47.5019C-15.4916 49.1244 -15.658 49.166 -14.7011 48.1259C-13.2035 46.545 -7.62869 42.9256 -3.26041 40.7207L0.483837 38.8069L0.608646 40.0966C0.691851 40.8039 0.608646 41.5111 0.400633 41.6359ZM1.93993 40.4711C1.93993 40.8871 1.77352 41.2615 1.5239 41.2615C1.31589 41.2615 1.10788 40.7623 1.10788 40.1798C1.10788 39.5974 1.27429 39.223 1.5239 39.3894C1.77352 39.5142 1.93993 40.0134 1.93993 40.4711ZM37.5102 48.5836C37.8847 49.9149 38.8415 52.619 39.632 54.5328C40.4224 56.4881 40.9633 58.1522 40.8385 58.2354C40.7136 58.3602 40.2144 58.277 39.7152 58.0274C38.9247 57.6946 38.5087 56.6545 37.427 52.6606C35.8045 46.6699 35.2221 43.3832 35.2637 40.8871C35.2637 39.1814 35.3469 39.3478 36.0541 42.5512C36.4702 44.5065 37.0942 47.2107 37.5102 48.5836ZM23.5317 44.0489C23.4901 47.5435 23.4069 48.2508 23.1157 47.2939C22.3253 44.7977 22.4917 39.5974 23.4069 39.5974C23.4901 39.5974 23.5733 41.5943 23.5317 44.0489ZM3.39603 44.6729C4.85212 48.4172 8.34675 55.5312 10.8429 59.7331C12.7566 62.9781 12.8398 64.143 11.0093 62.1461C9.30361 60.3571 7.88912 57.9442 6.59944 54.5744C5.89219 52.8687 4.4777 49.7069 3.43763 47.5435C1.64871 43.8409 1.06628 41.6775 1.85673 41.6775C2.06474 41.6775 2.73038 43.0504 3.39603 44.6729ZM87.5999 46.7531C88.4735 49.7485 88.8896 56.3633 88.0991 54.9904C87.5999 54.1583 85.1453 45.3386 85.1453 44.4649C85.1453 44.0489 85.4782 43.7577 85.9358 43.7577C86.5182 43.7577 86.8926 44.4233 87.5999 46.7531ZM14.7952 49.4572C15.0448 49.9981 15.2112 50.4141 15.0864 50.4141C14.7952 50.4141 12.4654 46.129 12.1326 45.0057C12.0078 44.4233 12.4238 45.0057 13.0895 46.2538C13.7135 47.5019 14.5039 48.958 14.7952 49.4572ZM59.1852 50.0813C58.8524 51.0797 58.1452 53.3679 57.5627 55.1984C56.9803 57.0289 56.3979 59.1091 56.2315 59.8579C56.065 60.7732 55.5242 61.4388 54.4841 62.0629C53.1113 62.8533 52.9448 62.8949 51.988 62.2709C51.4055 61.8964 50.8647 61.6468 50.7815 61.7716C50.6567 61.8548 51.0311 62.2709 51.6136 62.6037C52.5288 63.2277 52.5704 63.3941 52.1544 64.559C51.6136 66.0151 51.9048 66.764 53.6937 68.0536C54.5673 68.7193 55.6074 68.9689 58.3532 69.0937C61.7646 69.2185 61.8894 69.2601 63.5119 70.841C67.2978 74.5021 65.7585 78.0383 59.4349 80.1184C57.6875 80.7009 54.2345 82.3234 51.78 83.6963C44.6243 87.7733 38.9663 88.3558 29.7721 86.026C23.3237 84.4035 18.4562 81.4497 16.3761 77.9135L15.6272 76.6238L17.6658 77.6639C21.7012 79.6608 24.031 80.0768 33.5164 80.2432C41.7953 80.4096 42.5026 80.368 44.0003 79.5776C46.0804 78.4959 49.6998 77.9135 57.3131 77.5391C63.3455 77.2062 64.76 76.8318 64.76 75.5837C64.76 74.7101 63.4287 73.8364 59.9757 72.3387C58.1452 71.5483 54.6089 69.6761 52.1128 68.1368C46.9124 64.975 44.6243 64.1846 39.9648 63.8518C34.5148 63.4773 28.8153 64.8502 21.202 68.3449C16.6673 70.425 13.5471 71.2154 10.0109 71.1738C5.30975 71.1322 5.26815 71.0074 8.72117 67.5544C10.3437 65.9319 11.8414 64.4342 12.0078 64.3094C12.1326 64.1846 12.9646 64.5174 13.8799 65.0583C16.1265 66.4727 19.2467 66.764 22.6165 65.8487L24.3638 65.3911L23.823 63.8102C23.4901 62.9781 22.8245 61.5636 22.3253 60.69C21.2436 58.8594 21.41 58.8178 23.6981 60.1491C24.655 60.7316 26.5687 61.4804 27.9 61.8132C30.105 62.3957 30.4794 62.3957 31.3114 61.8548C31.9355 61.4804 32.7259 61.3556 33.5164 61.4804C35.7213 61.938 37.7183 61.314 38.4671 59.9411C39.4656 58.1938 41.1297 58.277 42.2529 60.1491C43.3346 61.8964 43.7922 62.0629 47.0789 62.0629C49.3254 62.0629 49.9494 61.8964 51.6968 60.69C53.4857 59.5251 54.0265 58.693 56.5643 53.8255C58.1452 50.8301 59.4765 48.334 59.5597 48.334C59.6429 48.334 59.4765 49.1244 59.1852 50.0813ZM27.4008 57.5698C26.7767 58.1938 26.1527 57.653 25.4455 55.9473C24.4054 53.4511 24.7382 53.1599 26.3191 55.1984C27.3176 56.5297 27.6504 57.3201 27.4008 57.5698ZM31.353 60.9812C31.0202 62.0629 29.4393 61.6468 27.9 60.1075L26.3191 58.5682L27.3592 58.277C28.0664 58.1106 28.7737 58.3602 29.9385 59.2755C30.8122 59.9411 31.4362 60.69 31.353 60.9812ZM38.2175 58.5682C38.7999 58.9427 37.7183 60.3987 36.5534 60.8564C35.9293 61.106 34.8477 61.1892 34.182 61.0644C32.9339 60.8148 32.3515 60.482 30.2298 58.693L29.1897 57.861L33.5164 58.1106C35.9293 58.2354 38.0095 58.4434 38.2175 58.5682ZM27.0264 59.7747C28.4825 61.6052 27.7752 61.6884 24.6966 60.1075L22.5333 58.9843L23.7813 58.693C24.4886 58.5266 25.2374 58.4018 25.4455 58.3602C25.6951 58.3602 26.4023 58.9843 27.0264 59.7747ZM44.4163 60.482C44.6659 61.522 44.6243 61.6052 43.9171 61.2308C43.501 60.9812 42.9602 60.3987 42.669 59.9411C42.2945 59.1923 42.3362 59.1091 43.1682 59.2339C43.7922 59.3171 44.2083 59.7331 44.4163 60.482ZM22.4917 62.1461C24.0726 65.0583 23.7813 65.4743 20.1203 65.7239C17.2913 65.8903 15.7104 65.3911 14.2959 63.8102C13.5471 63.0197 13.5887 62.9781 14.712 62.1877C15.752 61.4388 17.7906 60.4403 19.4131 59.8579C20.6611 59.4003 21.2436 59.8163 22.4917 62.1461ZM46.0388 60.6484C46.0388 61.314 45.3731 61.4388 44.9987 60.8148C44.6659 60.2739 45.1651 59.4835 45.6644 59.7747C45.8724 59.9411 46.0388 60.3155 46.0388 60.6484ZM48.7846 61.0228C49.5334 61.5636 49.4918 61.6052 48.0357 61.6468C46.538 61.6468 46.0804 61.314 46.746 60.69C47.1621 60.2323 47.9109 60.3571 48.7846 61.0228ZM13.6303 64.0182C14.1711 64.6838 14.1295 64.7254 13.5055 64.1846C12.7982 63.6438 12.5902 63.3109 12.923 63.3109C13.0063 63.3109 13.3391 63.6438 13.6303 64.0182ZM57.1051 66.2647L60.8078 68.8025L57.854 68.6361C54.9418 68.4281 52.9864 67.6376 52.5288 66.3895C52.3208 65.8487 52.9032 63.727 53.2777 63.727C53.3609 63.727 55.1082 64.8502 57.1051 66.2647ZM47.8277 66.2647C48.7846 66.764 51.2391 68.1785 53.2361 69.4265C55.2746 70.6746 57.3547 71.8395 57.9372 72.0475C59.5597 72.6715 59.102 75.2093 57.1883 76.2494C56.4811 76.6238 46.0388 78.3295 46.0388 78.0799C46.0388 78.0383 46.33 77.4143 46.7044 76.6654C47.7445 74.5853 47.3701 68.3865 46.122 66.6808C44.9987 65.1831 45.4148 65.0583 47.8277 66.2647ZM62.3055 73.9612C65.384 75.5005 64.4688 76.6654 59.8509 76.9566L56.6475 77.1646L58.0204 76.0414C58.8524 75.2925 59.3517 74.5021 59.3517 73.8364C59.3517 72.9628 59.4765 72.8796 60.3085 73.1292C60.8078 73.254 61.723 73.6284 62.3055 73.9612ZM14.1711 73.9612C14.5872 75.0013 14.2127 75.0845 13.3807 74.1276C12.7566 73.4204 12.715 73.2956 13.2559 73.2956C13.6303 73.2956 14.0463 73.5868 14.1711 73.9612ZM42.9186 79.536C42.461 79.744 41.3377 79.8688 40.4224 79.8688L38.7583 79.8272L40.4224 79.536C41.3377 79.3696 42.461 79.2448 42.9186 79.2032L43.7506 79.1616L42.9186 79.536ZM89.9712 81.3249L91.5105 82.6978L89.888 85.4852C89.0144 87.0245 88.1407 88.2726 87.9743 88.2726C87.8079 88.2726 87.6415 86.4004 87.6415 84.1123C87.6415 81.5745 87.8079 79.952 88.0575 79.952C88.3071 79.952 89.1808 80.5761 89.9712 81.3249ZM87.9743 96.4683C87.8495 99.5469 87.7247 100.129 87.1423 100.254C86.4766 100.379 86.3934 100.046 86.3934 97.55C86.3934 96.0107 86.6014 93.9721 86.851 93.0985C87.5583 90.5191 88.0991 92.1832 87.9743 96.4683Z" fill="#FFC904"/>
<path d="M35.6386 68.471C34.6401 70.1351 34.0993 72.4648 34.7233 72.4648C34.973 72.4648 35.4306 72.0488 35.6802 71.508C36.5123 69.9271 37.7603 68.7622 39.05 68.5126C40.5477 68.1798 40.1317 67.6805 38.0516 67.3477C36.6371 67.1397 36.4291 67.2229 35.6386 68.471ZM37.5939 68.5542C36.9699 68.887 36.0546 69.8023 35.6386 70.5095C34.5569 72.2568 34.5569 71.6328 35.6386 69.5527C36.3042 68.2214 36.7203 67.8885 37.6355 67.8885L38.7588 67.9301L37.5939 68.5542Z" fill="#FFC904"/>
<path d="M-6.37948 69.8418C-6.37948 70.5907 -3.96652 72.4212 -2.21921 72.9204C-0.679909 73.378 0.85939 73.2116 3.39715 72.2548C4.77004 71.7139 0.734581 75.7494 -1.67838 77.2887C-4.17454 78.9112 -8.95885 80.4921 -13.3271 81.1577C-18.8187 81.9898 -23.3118 83.9035 -26.432 86.8573C-28.3457 88.6462 -30.0098 89.5615 -34.4613 91.2256C-36.167 91.8496 -36.2502 91.9744 -35.0853 91.7664C-32.3812 91.3088 -27.5136 88.7294 -25.7247 86.8573C-23.603 84.694 -19.3179 82.7802 -14.284 81.865C-7.12833 80.4921 -6.29627 80.2841 -3.5505 78.9112C-0.347088 77.2887 3.97959 73.5444 4.22921 72.13C4.43722 71.0483 4.47882 71.0483 2.81472 71.8803C1.23381 72.6708 -1.76158 72.7124 -3.13447 72.0051C-3.6753 71.7555 -4.59056 71.0483 -5.2146 70.4658C-5.88025 69.8834 -6.37948 69.5922 -6.37948 69.8418Z" fill="#FFC904"/>
<mask id="path-4-outside-1_1135_97434" maskUnits="userSpaceOnUse" x="-17.5713" y="16.6953" width="110" height="85" fill="black">
<rect fill="white" x="-17.5713" y="16.6953" width="110" height="85"/>
<path d="M37.4067 17.6931C31.1247 18.5667 23.1786 22.727 11.197 31.422C6.87033 34.5838 3.37571 36.6639 -2.69829 39.7009C-5.11125 40.9074 -8.35626 42.7379 -9.93716 43.778C-13.3902 46.0661 -17.384 49.644 -16.4272 49.6856C-16.0944 49.6856 -12.1837 47.9799 -7.77382 45.9413C-3.36393 43.8612 0.421913 42.1139 0.629927 42.0723C0.879543 42.0307 1.37878 42.9875 1.8364 44.194C2.25243 45.4005 3.00128 46.9814 3.45891 47.7302C3.91654 48.5207 5.08142 51.0585 5.99668 53.3882C7.8688 58.0477 8.36803 58.963 10.4898 61.6671L11.9043 63.4561L9.53291 66.0354C5.78866 70.0293 5.62225 70.1541 3.91654 69.9045L2.46045 69.6965L3.91654 70.3621C5.87187 71.2774 12.1123 71.5686 15.0661 70.9029C16.3557 70.6117 19.6424 69.4053 22.3881 68.1988C28.8366 65.4114 32.9968 64.2465 37.5315 63.9969C42.191 63.7473 44.8952 64.6209 46.1017 66.7011C47.641 69.322 47.433 76.1449 45.7689 77.5178C45.02 78.1418 36.9491 79.3483 35.701 79.0571C34.4113 78.7243 31.1247 75.7289 30.2927 74.1896C28.6285 70.9446 30.5839 66.5763 34.2865 65.3698C34.6193 65.245 34.4113 65.1202 33.8289 65.1202C32.3728 65.0786 29.9182 67.7827 29.2942 70.0709C28.6285 72.4839 29.2942 74.148 32.04 77.0185C33.288 78.3498 34.2865 79.4731 34.2865 79.5979C34.2865 79.9723 25.1755 79.1819 22.8458 78.5994C18.3943 77.4346 16.0229 76.1033 15.3157 74.4392C14.65 72.8167 13.9012 72.3174 12.7779 72.7335C12.1539 72.9831 12.2787 73.2743 13.61 74.564C14.4836 75.396 15.7733 77.0185 16.4806 78.1418C19.1847 82.3021 24.3019 85.0895 32.2064 86.712C35.6178 87.4192 37.4899 87.5856 40.7349 87.4192C45.6856 87.2112 47.8074 86.5456 52.7997 83.5918C54.8798 82.3853 57.9584 80.9292 59.6642 80.3884C63.5748 79.1819 66.3206 76.8105 66.3206 74.6888C66.3206 73.0663 65.7798 71.943 64.1572 70.2373L62.9508 68.9476L66.6534 67.9908C68.7335 67.4915 72.5194 66.1602 75.0988 65.037C77.6781 63.9137 79.8415 62.9984 79.8831 62.9984C79.9247 62.9984 79.7999 63.6225 79.6335 64.4129C78.843 68.0324 80.6735 72.4006 84.6674 76.3113L87.4964 79.0571L87.5796 84.6318C87.6212 88.1681 87.4548 90.7058 87.1219 91.4963C85.2914 96.1974 86.0403 102.188 88.2868 100.358C88.786 99.9416 88.8693 98.9016 88.7028 94.4917L88.4948 89.1665L90.3253 86.0047C91.2822 84.2574 92.1143 82.5933 92.1143 82.3021C92.1143 81.8445 91.5734 81.3452 88.7444 79.0155C87.538 78.0586 87.2467 67.5747 88.2036 61.2095C88.6612 58.4221 88.9941 54.2619 88.9941 51.9737C88.9941 48.3127 88.8277 47.2726 87.4548 43.2372C86.6227 40.6994 85.8323 37.4544 85.6658 36.0399C85.4578 34.2926 85.2082 33.5437 84.9586 33.7933C84.709 34.043 84.8338 35.6239 85.333 38.2864C85.8323 40.6994 85.9987 42.4883 85.7491 42.5715C85.0418 42.8211 84.7506 41.7395 83.8353 36.1231C83.3361 33.0445 82.7537 30.0491 82.5456 29.4667C81.7968 27.5113 80.3823 25.8888 78.8846 25.2648C77.3037 24.5991 44.4376 17.8595 41.359 17.5683C40.3189 17.4851 38.5716 17.5267 37.4067 17.6931ZM59.581 21.5621C69.1496 23.4759 77.6365 25.348 78.427 25.6808C81.2976 26.8873 82.088 28.593 83.3777 36.2895C83.8769 39.3265 84.2097 41.9059 84.1265 41.9891C84.0849 42.0723 76.0556 39.2433 66.3206 35.6655C44.7288 27.8026 42.1494 27.0953 36.7827 27.3449C31.9152 27.5529 27.6717 28.9258 18.7271 33.0861C15.2741 34.7086 12.2787 36.0815 12.0291 36.1231C11.8211 36.1647 11.3218 36.3727 10.989 36.5807C10.6562 36.8303 8.70085 37.7456 6.62072 38.7025C3.37571 40.2002 2.83487 40.325 2.58525 39.7425C1.96121 38.2032 2.29403 37.6624 4.8734 36.2479C6.2879 35.4158 10.6146 32.5037 14.5252 29.7163C21.6393 24.5991 28.6701 20.7301 34.0785 18.9412C38.3636 17.5267 40.6101 17.7763 59.581 21.5621ZM45.3112 28.8426C46.9337 29.3002 56.4191 32.6285 66.4038 36.2479L84.5842 42.8211L85.0834 45.1093C85.333 46.3574 86.2067 49.4776 86.9555 52.0569L88.37 56.7164L87.7044 60.7935C87.2051 63.9137 87.0803 66.4099 87.2884 71.4438C87.4964 77.601 87.4548 77.9754 86.7891 77.601C85.4994 76.9353 82.2544 73.1911 81.2976 71.319C80.2159 69.1972 79.7583 65.2866 80.3823 63.4561C80.9647 61.8336 80.6735 61.8336 77.6365 63.3729C74.0587 65.1618 67.6935 67.4499 64.7813 67.9908L62.2019 68.4484L58.2497 65.8274C56.0447 64.3713 54.2558 63.0816 54.2558 62.9568C54.2558 62.7904 54.755 62.3328 55.3791 61.9584C56.4191 61.2511 56.5023 61.2511 57.1264 62.1248C58.0833 63.3729 60.4546 63.6641 62.3267 62.7904C63.2004 62.3744 65.0309 60.7103 66.4038 59.0878C68.9 56.134 72.7274 50.1016 72.353 49.7272C72.0618 49.436 71.1881 50.3928 71.0633 51.1001C70.7721 53.0138 65.1141 60.3775 62.618 62.0416C61.8275 62.5824 60.7042 62.9984 60.1218 62.9984C58.9985 62.9984 57.168 62 57.168 61.3759C57.168 61.2095 58.7905 59.9614 60.829 58.6302C65.5301 55.5099 71.0217 51.3081 70.7721 51.0585C70.6473 50.9753 69.3576 51.8073 67.9015 52.9722C64.6565 55.5099 57.9584 60.0862 57.5008 60.0862C56.8352 60.0862 57.2096 58.2973 59.6642 50.8921C60.9954 46.6902 62.0771 43.1955 61.9939 43.1123C61.9107 43.0291 60.205 46.1493 58.2081 49.9768C53.9646 58.0893 53.3405 59.0878 51.6348 60.0862C50.4284 60.8351 50.3452 60.8351 48.7643 60.0446C47.8906 59.587 46.1017 59.0046 44.7704 58.7134C42.4822 58.2141 42.3574 58.1309 41.2758 55.926C38.5716 50.4344 35.9506 39.9921 35.9506 34.667C35.9506 31.0892 35.285 31.6716 34.9938 35.4158C34.7025 39.9505 35.285 44.9845 36.8243 50.7672C37.5315 53.4714 38.2388 56.134 38.322 56.6332C38.53 57.5485 38.4884 57.5485 34.0369 57.3405C31.5407 57.2157 29.2526 57.0492 29.003 56.9244C28.7117 56.8412 27.5885 55.4267 26.5068 53.7626L24.5099 50.7256L24.3019 44.9429C24.1355 40.8242 23.9274 39.0769 23.5946 38.9521C22.0137 38.4528 21.9305 44.0276 23.4282 48.9783C25.3003 55.1355 25.8412 57.5901 25.3835 57.5901C25.1339 57.6317 24.1355 57.7981 23.137 57.9645C22.0137 58.1725 21.2649 58.1725 21.0985 57.8813C20.932 57.6317 21.0569 57.5901 21.3897 57.7981C21.6809 57.9645 20.9736 56.9244 19.8504 55.4683C15.4405 49.8104 11.8627 42.2803 11.8211 38.5777C11.8211 36.8303 11.8627 36.7887 14.234 35.7071C30.0014 28.4266 32.7472 27.5529 38.8628 27.8442C40.8181 27.9274 43.7303 28.385 45.3112 28.8426ZM13.1523 47.1478C14.1924 49.1863 15.1909 50.684 15.5237 50.6008C15.8149 50.5592 15.9397 50.684 15.7733 50.8921C15.4821 51.3913 20.1 57.6733 20.516 57.4237C20.6824 57.2989 20.8072 57.5901 20.8072 58.0477C20.8072 58.4637 20.5576 58.8382 20.2664 58.8382C20.0168 58.8382 18.3527 59.587 16.6054 60.4607L13.4436 62.1248L12.1955 60.1695C9.61611 56.0924 3.08449 42.4467 3.08449 41.1154C3.08449 40.9906 4.8318 40.0753 6.95354 39.1185L10.781 37.3296L11.0306 40.4498C11.2802 43.0291 11.6546 44.2356 13.1523 47.1478ZM0.713133 41.3234C0.421913 41.6146 -1.99104 42.7379 -11.6845 47.1894C-15.1791 48.8119 -15.3455 48.8535 -14.3886 47.8134C-12.891 46.2325 -7.31619 42.6131 -2.94791 40.4082L0.796337 38.4944L0.921146 39.7841C1.00435 40.4914 0.921146 41.1986 0.713133 41.3234ZM2.25243 40.1586C2.25243 40.5746 2.08602 40.949 1.8364 40.949C1.62839 40.949 1.42038 40.4498 1.42038 39.8673C1.42038 39.2849 1.58679 38.9105 1.8364 39.0769C2.08602 39.2017 2.25243 39.7009 2.25243 40.1586ZM37.8227 48.2711C38.1972 49.6024 39.154 52.3065 39.9445 54.2203C40.7349 56.1756 41.2758 57.8397 41.151 57.9229C41.0261 58.0477 40.5269 57.9645 40.0277 57.7149C39.2372 57.3821 38.8212 56.342 37.7395 52.3481C36.117 46.3574 35.5346 43.0707 35.5762 40.5746C35.5762 38.8689 35.6594 39.0353 36.3666 42.2387C36.7827 44.194 37.4067 46.8982 37.8227 48.2711ZM23.8442 43.7364C23.8026 47.231 23.7194 47.9383 23.4282 46.9814C22.6378 44.4852 22.8042 39.2849 23.7194 39.2849C23.8026 39.2849 23.8858 41.2818 23.8442 43.7364ZM3.70853 44.3604C5.16462 48.1047 8.65925 55.2187 11.1554 59.4206C13.0691 62.6656 13.1523 63.8305 11.3218 61.8336C9.61611 60.0446 8.20162 57.6317 6.91194 54.2619C6.20469 52.5562 4.7902 49.3944 3.75013 47.231C1.96121 43.5284 1.37878 41.365 2.16923 41.365C2.37724 41.365 3.04288 42.7379 3.70853 44.3604ZM87.9124 46.4406C88.786 49.436 89.2021 56.0508 88.4116 54.6779C87.9124 53.8458 85.4578 45.0261 85.4578 44.1524C85.4578 43.7364 85.7907 43.4452 86.2483 43.4452C86.8307 43.4452 87.2051 44.1108 87.9124 46.4406ZM15.1077 49.1447C15.3573 49.6856 15.5237 50.1016 15.3989 50.1016C15.1077 50.1016 12.7779 45.8165 12.4451 44.6932C12.3203 44.1108 12.7363 44.6932 13.402 45.9413C14.026 47.1894 14.8164 48.6455 15.1077 49.1447ZM59.4977 49.7688C59.1649 50.7672 58.4577 53.0554 57.8752 54.8859C57.2928 56.7164 56.7104 58.7966 56.544 59.5454C56.3775 60.4607 55.8367 61.1263 54.7966 61.7504C53.4238 62.5408 53.2573 62.5824 52.3005 61.9584C51.718 61.5839 51.1772 61.3343 51.094 61.4591C50.9692 61.5423 51.3436 61.9584 51.9261 62.2912C52.8413 62.9152 52.8829 63.0816 52.4669 64.2465C51.9261 65.7026 52.2173 66.4515 54.0062 67.7411C54.8798 68.4068 55.9199 68.6564 58.6657 68.7812C62.0771 68.906 62.2019 68.9476 63.8244 70.5285C67.6103 74.1896 66.071 77.7258 59.7474 79.8059C58 80.3884 54.547 82.0109 52.0925 83.3838C44.9368 87.4608 39.2788 88.0433 30.0846 85.7135C23.6362 84.091 18.7687 81.1372 16.6886 77.601L15.9397 76.3113L17.9783 77.3514C22.0137 79.3483 24.3435 79.7643 33.8289 79.9307C42.1078 80.0971 42.8151 80.0555 44.3128 79.2651C46.3929 78.1834 50.0123 77.601 57.6256 77.2266C63.658 76.8937 65.0725 76.5193 65.0725 75.2712C65.0725 74.3976 63.7412 73.5239 60.2882 72.0262C58.4577 71.2358 54.9214 69.3636 52.4253 67.8243C47.2249 64.6625 44.9368 63.8721 40.2773 63.5393C34.8273 63.1648 29.1278 64.5377 21.5145 68.0324C16.9798 70.1125 13.8596 70.9029 10.3234 70.8613C5.62225 70.8197 5.58065 70.6949 9.03367 67.2419C10.6562 65.6194 12.1539 64.1217 12.3203 63.9969C12.4451 63.8721 13.2771 64.2049 14.1924 64.7458C16.439 66.1602 19.5592 66.4515 22.929 65.5362L24.6763 65.0786L24.1355 63.4977C23.8026 62.6656 23.137 61.2511 22.6378 60.3775C21.5561 58.5469 21.7225 58.5053 24.0106 59.8366C24.9675 60.4191 26.8812 61.1679 28.2125 61.5007C30.4175 62.0832 30.7919 62.0832 31.6239 61.5423C32.248 61.1679 33.0384 61.0431 33.8289 61.1679C36.0338 61.6255 38.0308 61.0015 38.7796 59.6286C39.7781 57.8813 41.4422 57.9645 42.5654 59.8366C43.6471 61.5839 44.1047 61.7504 47.3914 61.7504C49.6379 61.7504 50.2619 61.5839 52.0093 60.3775C53.7982 59.2126 54.339 58.3805 56.8768 53.513C58.4577 50.5176 59.789 48.0215 59.8722 48.0215C59.9554 48.0215 59.789 48.8119 59.4977 49.7688ZM27.7133 57.2573C27.0892 57.8813 26.4652 57.3405 25.758 55.6348C24.7179 53.1386 25.0507 52.8474 26.6316 54.8859C27.6301 56.2172 27.9629 57.0076 27.7133 57.2573ZM31.6655 60.6687C31.3327 61.7504 29.7518 61.3343 28.2125 59.795L26.6316 58.2557L27.6717 57.9645C28.3789 57.7981 29.0862 58.0477 30.251 58.963C31.1247 59.6286 31.7487 60.3775 31.6655 60.6687ZM38.53 58.2557C39.1124 58.6302 38.0308 60.0862 36.8659 60.5439C36.2418 60.7935 35.1602 60.8767 34.4945 60.7519C33.2464 60.5023 32.664 60.1695 30.5423 58.3805L29.5022 57.5485L33.8289 57.7981C36.2418 57.9229 38.322 58.1309 38.53 58.2557ZM27.3389 59.4622C28.795 61.2927 28.0877 61.3759 25.0091 59.795L22.8458 58.6718L24.0938 58.3805C24.8011 58.2141 25.5499 58.0893 25.758 58.0477C26.0076 58.0477 26.7148 58.6718 27.3389 59.4622ZM44.7288 60.1695C44.9784 61.2095 44.9368 61.2927 44.2296 60.9183C43.8135 60.6687 43.2727 60.0862 42.9815 59.6286C42.607 58.8798 42.6487 58.7966 43.4807 58.9214C44.1047 59.0046 44.5208 59.4206 44.7288 60.1695ZM22.8042 61.8336C24.3851 64.7458 24.0938 65.1618 20.4328 65.4114C17.6038 65.5778 16.0229 65.0786 14.6084 63.4977C13.8596 62.7072 13.9012 62.6656 15.0245 61.8752C16.0645 61.1263 18.1031 60.1278 19.7256 59.5454C20.9736 59.0878 21.5561 59.5038 22.8042 61.8336ZM46.3513 60.3359C46.3513 61.0015 45.6856 61.1263 45.3112 60.5023C44.9784 59.9614 45.4776 59.171 45.9769 59.4622C46.1849 59.6286 46.3513 60.003 46.3513 60.3359ZM49.0971 60.7103C49.8459 61.2511 49.8043 61.2927 48.3482 61.3343C46.8505 61.3343 46.3929 61.0015 47.0585 60.3775C47.4746 59.9198 48.2234 60.0446 49.0971 60.7103ZM13.9428 63.7057C14.4836 64.3713 14.442 64.4129 13.818 63.8721C13.1107 63.3313 12.9027 62.9984 13.2355 62.9984C13.3188 62.9984 13.6516 63.3313 13.9428 63.7057ZM57.4176 65.9522L61.1203 68.49L58.1665 68.3236C55.2543 68.1156 53.2989 67.3251 52.8413 66.077C52.6333 65.5362 53.2157 63.4145 53.5902 63.4145C53.6734 63.4145 55.4207 64.5377 57.4176 65.9522ZM48.1402 65.9522C49.0971 66.4515 51.5516 67.866 53.5486 69.114C55.5871 70.3621 57.6672 71.527 58.2497 71.735C59.8722 72.359 59.4145 74.8968 57.5008 75.9369C56.7936 76.3113 46.3513 78.017 46.3513 77.7674C46.3513 77.7258 46.6425 77.1018 47.0169 76.3529C48.057 74.2728 47.6826 68.074 46.4345 66.3683C45.3112 64.8706 45.7273 64.7458 48.1402 65.9522ZM62.618 73.6487C65.6965 75.188 64.7813 76.3529 60.1634 76.6441L56.96 76.8521L58.3329 75.7289C59.1649 74.98 59.6642 74.1896 59.6642 73.5239C59.6642 72.6503 59.789 72.5671 60.621 72.8167C61.1203 72.9415 62.0355 73.3159 62.618 73.6487ZM14.4836 73.6487C14.8997 74.6888 14.5252 74.772 13.6932 73.8151C13.0691 73.1079 13.0275 72.9831 13.5684 72.9831C13.9428 72.9831 14.3588 73.2743 14.4836 73.6487ZM43.2311 79.2235C42.7735 79.4315 41.6502 79.5563 40.7349 79.5563L39.0708 79.5147L40.7349 79.2235C41.6502 79.0571 42.7735 78.9323 43.2311 78.8907L44.0631 78.8491L43.2311 79.2235ZM90.2837 81.0124L91.823 82.3853L90.2005 85.1727C89.3269 86.712 88.4532 87.9601 88.2868 87.9601C88.1204 87.9601 87.954 86.0879 87.954 83.7998C87.954 81.262 88.1204 79.6395 88.37 79.6395C88.6196 79.6395 89.4933 80.2636 90.2837 81.0124ZM88.2868 96.1558C88.162 99.2344 88.0372 99.8168 87.4548 99.9416C86.7891 100.066 86.7059 99.7336 86.7059 97.2375C86.7059 95.6982 86.9139 93.6596 87.1635 92.786C87.8708 90.2066 88.4116 91.8707 88.2868 96.1558Z"/>
</mask>
<path d="M37.4067 17.6931C31.1247 18.5667 23.1786 22.727 11.197 31.422C6.87033 34.5838 3.37571 36.6639 -2.69829 39.7009C-5.11125 40.9074 -8.35626 42.7379 -9.93716 43.778C-13.3902 46.0661 -17.384 49.644 -16.4272 49.6856C-16.0944 49.6856 -12.1837 47.9799 -7.77382 45.9413C-3.36393 43.8612 0.421913 42.1139 0.629927 42.0723C0.879543 42.0307 1.37878 42.9875 1.8364 44.194C2.25243 45.4005 3.00128 46.9814 3.45891 47.7302C3.91654 48.5207 5.08142 51.0585 5.99668 53.3882C7.8688 58.0477 8.36803 58.963 10.4898 61.6671L11.9043 63.4561L9.53291 66.0354C5.78866 70.0293 5.62225 70.1541 3.91654 69.9045L2.46045 69.6965L3.91654 70.3621C5.87187 71.2774 12.1123 71.5686 15.0661 70.9029C16.3557 70.6117 19.6424 69.4053 22.3881 68.1988C28.8366 65.4114 32.9968 64.2465 37.5315 63.9969C42.191 63.7473 44.8952 64.6209 46.1017 66.7011C47.641 69.322 47.433 76.1449 45.7689 77.5178C45.02 78.1418 36.9491 79.3483 35.701 79.0571C34.4113 78.7243 31.1247 75.7289 30.2927 74.1896C28.6285 70.9446 30.5839 66.5763 34.2865 65.3698C34.6193 65.245 34.4113 65.1202 33.8289 65.1202C32.3728 65.0786 29.9182 67.7827 29.2942 70.0709C28.6285 72.4839 29.2942 74.148 32.04 77.0185C33.288 78.3498 34.2865 79.4731 34.2865 79.5979C34.2865 79.9723 25.1755 79.1819 22.8458 78.5994C18.3943 77.4346 16.0229 76.1033 15.3157 74.4392C14.65 72.8167 13.9012 72.3174 12.7779 72.7335C12.1539 72.9831 12.2787 73.2743 13.61 74.564C14.4836 75.396 15.7733 77.0185 16.4806 78.1418C19.1847 82.3021 24.3019 85.0895 32.2064 86.712C35.6178 87.4192 37.4899 87.5856 40.7349 87.4192C45.6856 87.2112 47.8074 86.5456 52.7997 83.5918C54.8798 82.3853 57.9584 80.9292 59.6642 80.3884C63.5748 79.1819 66.3206 76.8105 66.3206 74.6888C66.3206 73.0663 65.7798 71.943 64.1572 70.2373L62.9508 68.9476L66.6534 67.9908C68.7335 67.4915 72.5194 66.1602 75.0988 65.037C77.6781 63.9137 79.8415 62.9984 79.8831 62.9984C79.9247 62.9984 79.7999 63.6225 79.6335 64.4129C78.843 68.0324 80.6735 72.4006 84.6674 76.3113L87.4964 79.0571L87.5796 84.6318C87.6212 88.1681 87.4548 90.7058 87.1219 91.4963C85.2914 96.1974 86.0403 102.188 88.2868 100.358C88.786 99.9416 88.8693 98.9016 88.7028 94.4917L88.4948 89.1665L90.3253 86.0047C91.2822 84.2574 92.1143 82.5933 92.1143 82.3021C92.1143 81.8445 91.5734 81.3452 88.7444 79.0155C87.538 78.0586 87.2467 67.5747 88.2036 61.2095C88.6612 58.4221 88.9941 54.2619 88.9941 51.9737C88.9941 48.3127 88.8277 47.2726 87.4548 43.2372C86.6227 40.6994 85.8323 37.4544 85.6658 36.0399C85.4578 34.2926 85.2082 33.5437 84.9586 33.7933C84.709 34.043 84.8338 35.6239 85.333 38.2864C85.8323 40.6994 85.9987 42.4883 85.7491 42.5715C85.0418 42.8211 84.7506 41.7395 83.8353 36.1231C83.3361 33.0445 82.7537 30.0491 82.5456 29.4667C81.7968 27.5113 80.3823 25.8888 78.8846 25.2648C77.3037 24.5991 44.4376 17.8595 41.359 17.5683C40.3189 17.4851 38.5716 17.5267 37.4067 17.6931ZM59.581 21.5621C69.1496 23.4759 77.6365 25.348 78.427 25.6808C81.2976 26.8873 82.088 28.593 83.3777 36.2895C83.8769 39.3265 84.2097 41.9059 84.1265 41.9891C84.0849 42.0723 76.0556 39.2433 66.3206 35.6655C44.7288 27.8026 42.1494 27.0953 36.7827 27.3449C31.9152 27.5529 27.6717 28.9258 18.7271 33.0861C15.2741 34.7086 12.2787 36.0815 12.0291 36.1231C11.8211 36.1647 11.3218 36.3727 10.989 36.5807C10.6562 36.8303 8.70085 37.7456 6.62072 38.7025C3.37571 40.2002 2.83487 40.325 2.58525 39.7425C1.96121 38.2032 2.29403 37.6624 4.8734 36.2479C6.2879 35.4158 10.6146 32.5037 14.5252 29.7163C21.6393 24.5991 28.6701 20.7301 34.0785 18.9412C38.3636 17.5267 40.6101 17.7763 59.581 21.5621ZM45.3112 28.8426C46.9337 29.3002 56.4191 32.6285 66.4038 36.2479L84.5842 42.8211L85.0834 45.1093C85.333 46.3574 86.2067 49.4776 86.9555 52.0569L88.37 56.7164L87.7044 60.7935C87.2051 63.9137 87.0803 66.4099 87.2884 71.4438C87.4964 77.601 87.4548 77.9754 86.7891 77.601C85.4994 76.9353 82.2544 73.1911 81.2976 71.319C80.2159 69.1972 79.7583 65.2866 80.3823 63.4561C80.9647 61.8336 80.6735 61.8336 77.6365 63.3729C74.0587 65.1618 67.6935 67.4499 64.7813 67.9908L62.2019 68.4484L58.2497 65.8274C56.0447 64.3713 54.2558 63.0816 54.2558 62.9568C54.2558 62.7904 54.755 62.3328 55.3791 61.9584C56.4191 61.2511 56.5023 61.2511 57.1264 62.1248C58.0833 63.3729 60.4546 63.6641 62.3267 62.7904C63.2004 62.3744 65.0309 60.7103 66.4038 59.0878C68.9 56.134 72.7274 50.1016 72.353 49.7272C72.0618 49.436 71.1881 50.3928 71.0633 51.1001C70.7721 53.0138 65.1141 60.3775 62.618 62.0416C61.8275 62.5824 60.7042 62.9984 60.1218 62.9984C58.9985 62.9984 57.168 62 57.168 61.3759C57.168 61.2095 58.7905 59.9614 60.829 58.6302C65.5301 55.5099 71.0217 51.3081 70.7721 51.0585C70.6473 50.9753 69.3576 51.8073 67.9015 52.9722C64.6565 55.5099 57.9584 60.0862 57.5008 60.0862C56.8352 60.0862 57.2096 58.2973 59.6642 50.8921C60.9954 46.6902 62.0771 43.1955 61.9939 43.1123C61.9107 43.0291 60.205 46.1493 58.2081 49.9768C53.9646 58.0893 53.3405 59.0878 51.6348 60.0862C50.4284 60.8351 50.3452 60.8351 48.7643 60.0446C47.8906 59.587 46.1017 59.0046 44.7704 58.7134C42.4822 58.2141 42.3574 58.1309 41.2758 55.926C38.5716 50.4344 35.9506 39.9921 35.9506 34.667C35.9506 31.0892 35.285 31.6716 34.9938 35.4158C34.7025 39.9505 35.285 44.9845 36.8243 50.7672C37.5315 53.4714 38.2388 56.134 38.322 56.6332C38.53 57.5485 38.4884 57.5485 34.0369 57.3405C31.5407 57.2157 29.2526 57.0492 29.003 56.9244C28.7117 56.8412 27.5885 55.4267 26.5068 53.7626L24.5099 50.7256L24.3019 44.9429C24.1355 40.8242 23.9274 39.0769 23.5946 38.9521C22.0137 38.4528 21.9305 44.0276 23.4282 48.9783C25.3003 55.1355 25.8412 57.5901 25.3835 57.5901C25.1339 57.6317 24.1355 57.7981 23.137 57.9645C22.0137 58.1725 21.2649 58.1725 21.0985 57.8813C20.932 57.6317 21.0569 57.5901 21.3897 57.7981C21.6809 57.9645 20.9736 56.9244 19.8504 55.4683C15.4405 49.8104 11.8627 42.2803 11.8211 38.5777C11.8211 36.8303 11.8627 36.7887 14.234 35.7071C30.0014 28.4266 32.7472 27.5529 38.8628 27.8442C40.8181 27.9274 43.7303 28.385 45.3112 28.8426ZM13.1523 47.1478C14.1924 49.1863 15.1909 50.684 15.5237 50.6008C15.8149 50.5592 15.9397 50.684 15.7733 50.8921C15.4821 51.3913 20.1 57.6733 20.516 57.4237C20.6824 57.2989 20.8072 57.5901 20.8072 58.0477C20.8072 58.4637 20.5576 58.8382 20.2664 58.8382C20.0168 58.8382 18.3527 59.587 16.6054 60.4607L13.4436 62.1248L12.1955 60.1695C9.61611 56.0924 3.08449 42.4467 3.08449 41.1154C3.08449 40.9906 4.8318 40.0753 6.95354 39.1185L10.781 37.3296L11.0306 40.4498C11.2802 43.0291 11.6546 44.2356 13.1523 47.1478ZM0.713133 41.3234C0.421913 41.6146 -1.99104 42.7379 -11.6845 47.1894C-15.1791 48.8119 -15.3455 48.8535 -14.3886 47.8134C-12.891 46.2325 -7.31619 42.6131 -2.94791 40.4082L0.796337 38.4944L0.921146 39.7841C1.00435 40.4914 0.921146 41.1986 0.713133 41.3234ZM2.25243 40.1586C2.25243 40.5746 2.08602 40.949 1.8364 40.949C1.62839 40.949 1.42038 40.4498 1.42038 39.8673C1.42038 39.2849 1.58679 38.9105 1.8364 39.0769C2.08602 39.2017 2.25243 39.7009 2.25243 40.1586ZM37.8227 48.2711C38.1972 49.6024 39.154 52.3065 39.9445 54.2203C40.7349 56.1756 41.2758 57.8397 41.151 57.9229C41.0261 58.0477 40.5269 57.9645 40.0277 57.7149C39.2372 57.3821 38.8212 56.342 37.7395 52.3481C36.117 46.3574 35.5346 43.0707 35.5762 40.5746C35.5762 38.8689 35.6594 39.0353 36.3666 42.2387C36.7827 44.194 37.4067 46.8982 37.8227 48.2711ZM23.8442 43.7364C23.8026 47.231 23.7194 47.9383 23.4282 46.9814C22.6378 44.4852 22.8042 39.2849 23.7194 39.2849C23.8026 39.2849 23.8858 41.2818 23.8442 43.7364ZM3.70853 44.3604C5.16462 48.1047 8.65925 55.2187 11.1554 59.4206C13.0691 62.6656 13.1523 63.8305 11.3218 61.8336C9.61611 60.0446 8.20162 57.6317 6.91194 54.2619C6.20469 52.5562 4.7902 49.3944 3.75013 47.231C1.96121 43.5284 1.37878 41.365 2.16923 41.365C2.37724 41.365 3.04288 42.7379 3.70853 44.3604ZM87.9124 46.4406C88.786 49.436 89.2021 56.0508 88.4116 54.6779C87.9124 53.8458 85.4578 45.0261 85.4578 44.1524C85.4578 43.7364 85.7907 43.4452 86.2483 43.4452C86.8307 43.4452 87.2051 44.1108 87.9124 46.4406ZM15.1077 49.1447C15.3573 49.6856 15.5237 50.1016 15.3989 50.1016C15.1077 50.1016 12.7779 45.8165 12.4451 44.6932C12.3203 44.1108 12.7363 44.6932 13.402 45.9413C14.026 47.1894 14.8164 48.6455 15.1077 49.1447ZM59.4977 49.7688C59.1649 50.7672 58.4577 53.0554 57.8752 54.8859C57.2928 56.7164 56.7104 58.7966 56.544 59.5454C56.3775 60.4607 55.8367 61.1263 54.7966 61.7504C53.4238 62.5408 53.2573 62.5824 52.3005 61.9584C51.718 61.5839 51.1772 61.3343 51.094 61.4591C50.9692 61.5423 51.3436 61.9584 51.9261 62.2912C52.8413 62.9152 52.8829 63.0816 52.4669 64.2465C51.9261 65.7026 52.2173 66.4515 54.0062 67.7411C54.8798 68.4068 55.9199 68.6564 58.6657 68.7812C62.0771 68.906 62.2019 68.9476 63.8244 70.5285C67.6103 74.1896 66.071 77.7258 59.7474 79.8059C58 80.3884 54.547 82.0109 52.0925 83.3838C44.9368 87.4608 39.2788 88.0433 30.0846 85.7135C23.6362 84.091 18.7687 81.1372 16.6886 77.601L15.9397 76.3113L17.9783 77.3514C22.0137 79.3483 24.3435 79.7643 33.8289 79.9307C42.1078 80.0971 42.8151 80.0555 44.3128 79.2651C46.3929 78.1834 50.0123 77.601 57.6256 77.2266C63.658 76.8937 65.0725 76.5193 65.0725 75.2712C65.0725 74.3976 63.7412 73.5239 60.2882 72.0262C58.4577 71.2358 54.9214 69.3636 52.4253 67.8243C47.2249 64.6625 44.9368 63.8721 40.2773 63.5393C34.8273 63.1648 29.1278 64.5377 21.5145 68.0324C16.9798 70.1125 13.8596 70.9029 10.3234 70.8613C5.62225 70.8197 5.58065 70.6949 9.03367 67.2419C10.6562 65.6194 12.1539 64.1217 12.3203 63.9969C12.4451 63.8721 13.2771 64.2049 14.1924 64.7458C16.439 66.1602 19.5592 66.4515 22.929 65.5362L24.6763 65.0786L24.1355 63.4977C23.8026 62.6656 23.137 61.2511 22.6378 60.3775C21.5561 58.5469 21.7225 58.5053 24.0106 59.8366C24.9675 60.4191 26.8812 61.1679 28.2125 61.5007C30.4175 62.0832 30.7919 62.0832 31.6239 61.5423C32.248 61.1679 33.0384 61.0431 33.8289 61.1679C36.0338 61.6255 38.0308 61.0015 38.7796 59.6286C39.7781 57.8813 41.4422 57.9645 42.5654 59.8366C43.6471 61.5839 44.1047 61.7504 47.3914 61.7504C49.6379 61.7504 50.2619 61.5839 52.0093 60.3775C53.7982 59.2126 54.339 58.3805 56.8768 53.513C58.4577 50.5176 59.789 48.0215 59.8722 48.0215C59.9554 48.0215 59.789 48.8119 59.4977 49.7688ZM27.7133 57.2573C27.0892 57.8813 26.4652 57.3405 25.758 55.6348C24.7179 53.1386 25.0507 52.8474 26.6316 54.8859C27.6301 56.2172 27.9629 57.0076 27.7133 57.2573ZM31.6655 60.6687C31.3327 61.7504 29.7518 61.3343 28.2125 59.795L26.6316 58.2557L27.6717 57.9645C28.3789 57.7981 29.0862 58.0477 30.251 58.963C31.1247 59.6286 31.7487 60.3775 31.6655 60.6687ZM38.53 58.2557C39.1124 58.6302 38.0308 60.0862 36.8659 60.5439C36.2418 60.7935 35.1602 60.8767 34.4945 60.7519C33.2464 60.5023 32.664 60.1695 30.5423 58.3805L29.5022 57.5485L33.8289 57.7981C36.2418 57.9229 38.322 58.1309 38.53 58.2557ZM27.3389 59.4622C28.795 61.2927 28.0877 61.3759 25.0091 59.795L22.8458 58.6718L24.0938 58.3805C24.8011 58.2141 25.5499 58.0893 25.758 58.0477C26.0076 58.0477 26.7148 58.6718 27.3389 59.4622ZM44.7288 60.1695C44.9784 61.2095 44.9368 61.2927 44.2296 60.9183C43.8135 60.6687 43.2727 60.0862 42.9815 59.6286C42.607 58.8798 42.6487 58.7966 43.4807 58.9214C44.1047 59.0046 44.5208 59.4206 44.7288 60.1695ZM22.8042 61.8336C24.3851 64.7458 24.0938 65.1618 20.4328 65.4114C17.6038 65.5778 16.0229 65.0786 14.6084 63.4977C13.8596 62.7072 13.9012 62.6656 15.0245 61.8752C16.0645 61.1263 18.1031 60.1278 19.7256 59.5454C20.9736 59.0878 21.5561 59.5038 22.8042 61.8336ZM46.3513 60.3359C46.3513 61.0015 45.6856 61.1263 45.3112 60.5023C44.9784 59.9614 45.4776 59.171 45.9769 59.4622C46.1849 59.6286 46.3513 60.003 46.3513 60.3359ZM49.0971 60.7103C49.8459 61.2511 49.8043 61.2927 48.3482 61.3343C46.8505 61.3343 46.3929 61.0015 47.0585 60.3775C47.4746 59.9198 48.2234 60.0446 49.0971 60.7103ZM13.9428 63.7057C14.4836 64.3713 14.442 64.4129 13.818 63.8721C13.1107 63.3313 12.9027 62.9984 13.2355 62.9984C13.3188 62.9984 13.6516 63.3313 13.9428 63.7057ZM57.4176 65.9522L61.1203 68.49L58.1665 68.3236C55.2543 68.1156 53.2989 67.3251 52.8413 66.077C52.6333 65.5362 53.2157 63.4145 53.5902 63.4145C53.6734 63.4145 55.4207 64.5377 57.4176 65.9522ZM48.1402 65.9522C49.0971 66.4515 51.5516 67.866 53.5486 69.114C55.5871 70.3621 57.6672 71.527 58.2497 71.735C59.8722 72.359 59.4145 74.8968 57.5008 75.9369C56.7936 76.3113 46.3513 78.017 46.3513 77.7674C46.3513 77.7258 46.6425 77.1018 47.0169 76.3529C48.057 74.2728 47.6826 68.074 46.4345 66.3683C45.3112 64.8706 45.7273 64.7458 48.1402 65.9522ZM62.618 73.6487C65.6965 75.188 64.7813 76.3529 60.1634 76.6441L56.96 76.8521L58.3329 75.7289C59.1649 74.98 59.6642 74.1896 59.6642 73.5239C59.6642 72.6503 59.789 72.5671 60.621 72.8167C61.1203 72.9415 62.0355 73.3159 62.618 73.6487ZM14.4836 73.6487C14.8997 74.6888 14.5252 74.772 13.6932 73.8151C13.0691 73.1079 13.0275 72.9831 13.5684 72.9831C13.9428 72.9831 14.3588 73.2743 14.4836 73.6487ZM43.2311 79.2235C42.7735 79.4315 41.6502 79.5563 40.7349 79.5563L39.0708 79.5147L40.7349 79.2235C41.6502 79.0571 42.7735 78.9323 43.2311 78.8907L44.0631 78.8491L43.2311 79.2235ZM90.2837 81.0124L91.823 82.3853L90.2005 85.1727C89.3269 86.712 88.4532 87.9601 88.2868 87.9601C88.1204 87.9601 87.954 86.0879 87.954 83.7998C87.954 81.262 88.1204 79.6395 88.37 79.6395C88.6196 79.6395 89.4933 80.2636 90.2837 81.0124ZM88.2868 96.1558C88.162 99.2344 88.0372 99.8168 87.4548 99.9416C86.7891 100.066 86.7059 99.7336 86.7059 97.2375C86.7059 95.6982 86.9139 93.6596 87.1635 92.786C87.8708 90.2066 88.4116 91.8707 88.2868 96.1558Z" fill="#FFC904"/>
<path d="M37.4067 17.6931C31.1247 18.5667 23.1786 22.727 11.197 31.422C6.87033 34.5838 3.37571 36.6639 -2.69829 39.7009C-5.11125 40.9074 -8.35626 42.7379 -9.93716 43.778C-13.3902 46.0661 -17.384 49.644 -16.4272 49.6856C-16.0944 49.6856 -12.1837 47.9799 -7.77382 45.9413C-3.36393 43.8612 0.421913 42.1139 0.629927 42.0723C0.879543 42.0307 1.37878 42.9875 1.8364 44.194C2.25243 45.4005 3.00128 46.9814 3.45891 47.7302C3.91654 48.5207 5.08142 51.0585 5.99668 53.3882C7.8688 58.0477 8.36803 58.963 10.4898 61.6671L11.9043 63.4561L9.53291 66.0354C5.78866 70.0293 5.62225 70.1541 3.91654 69.9045L2.46045 69.6965L3.91654 70.3621C5.87187 71.2774 12.1123 71.5686 15.0661 70.9029C16.3557 70.6117 19.6424 69.4053 22.3881 68.1988C28.8366 65.4114 32.9968 64.2465 37.5315 63.9969C42.191 63.7473 44.8952 64.6209 46.1017 66.7011C47.641 69.322 47.433 76.1449 45.7689 77.5178C45.02 78.1418 36.9491 79.3483 35.701 79.0571C34.4113 78.7243 31.1247 75.7289 30.2927 74.1896C28.6285 70.9446 30.5839 66.5763 34.2865 65.3698C34.6193 65.245 34.4113 65.1202 33.8289 65.1202C32.3728 65.0786 29.9182 67.7827 29.2942 70.0709C28.6285 72.4839 29.2942 74.148 32.04 77.0185C33.288 78.3498 34.2865 79.4731 34.2865 79.5979C34.2865 79.9723 25.1755 79.1819 22.8458 78.5994C18.3943 77.4346 16.0229 76.1033 15.3157 74.4392C14.65 72.8167 13.9012 72.3174 12.7779 72.7335C12.1539 72.9831 12.2787 73.2743 13.61 74.564C14.4836 75.396 15.7733 77.0185 16.4806 78.1418C19.1847 82.3021 24.3019 85.0895 32.2064 86.712C35.6178 87.4192 37.4899 87.5856 40.7349 87.4192C45.6856 87.2112 47.8074 86.5456 52.7997 83.5918C54.8798 82.3853 57.9584 80.9292 59.6642 80.3884C63.5748 79.1819 66.3206 76.8105 66.3206 74.6888C66.3206 73.0663 65.7798 71.943 64.1572 70.2373L62.9508 68.9476L66.6534 67.9908C68.7335 67.4915 72.5194 66.1602 75.0988 65.037C77.6781 63.9137 79.8415 62.9984 79.8831 62.9984C79.9247 62.9984 79.7999 63.6225 79.6335 64.4129C78.843 68.0324 80.6735 72.4006 84.6674 76.3113L87.4964 79.0571L87.5796 84.6318C87.6212 88.1681 87.4548 90.7058 87.1219 91.4963C85.2914 96.1974 86.0403 102.188 88.2868 100.358C88.786 99.9416 88.8693 98.9016 88.7028 94.4917L88.4948 89.1665L90.3253 86.0047C91.2822 84.2574 92.1143 82.5933 92.1143 82.3021C92.1143 81.8445 91.5734 81.3452 88.7444 79.0155C87.538 78.0586 87.2467 67.5747 88.2036 61.2095C88.6612 58.4221 88.9941 54.2619 88.9941 51.9737C88.9941 48.3127 88.8277 47.2726 87.4548 43.2372C86.6227 40.6994 85.8323 37.4544 85.6658 36.0399C85.4578 34.2926 85.2082 33.5437 84.9586 33.7933C84.709 34.043 84.8338 35.6239 85.333 38.2864C85.8323 40.6994 85.9987 42.4883 85.7491 42.5715C85.0418 42.8211 84.7506 41.7395 83.8353 36.1231C83.3361 33.0445 82.7537 30.0491 82.5456 29.4667C81.7968 27.5113 80.3823 25.8888 78.8846 25.2648C77.3037 24.5991 44.4376 17.8595 41.359 17.5683C40.3189 17.4851 38.5716 17.5267 37.4067 17.6931ZM59.581 21.5621C69.1496 23.4759 77.6365 25.348 78.427 25.6808C81.2976 26.8873 82.088 28.593 83.3777 36.2895C83.8769 39.3265 84.2097 41.9059 84.1265 41.9891C84.0849 42.0723 76.0556 39.2433 66.3206 35.6655C44.7288 27.8026 42.1494 27.0953 36.7827 27.3449C31.9152 27.5529 27.6717 28.9258 18.7271 33.0861C15.2741 34.7086 12.2787 36.0815 12.0291 36.1231C11.8211 36.1647 11.3218 36.3727 10.989 36.5807C10.6562 36.8303 8.70085 37.7456 6.62072 38.7025C3.37571 40.2002 2.83487 40.325 2.58525 39.7425C1.96121 38.2032 2.29403 37.6624 4.8734 36.2479C6.2879 35.4158 10.6146 32.5037 14.5252 29.7163C21.6393 24.5991 28.6701 20.7301 34.0785 18.9412C38.3636 17.5267 40.6101 17.7763 59.581 21.5621ZM45.3112 28.8426C46.9337 29.3002 56.4191 32.6285 66.4038 36.2479L84.5842 42.8211L85.0834 45.1093C85.333 46.3574 86.2067 49.4776 86.9555 52.0569L88.37 56.7164L87.7044 60.7935C87.2051 63.9137 87.0803 66.4099 87.2884 71.4438C87.4964 77.601 87.4548 77.9754 86.7891 77.601C85.4994 76.9353 82.2544 73.1911 81.2976 71.319C80.2159 69.1972 79.7583 65.2866 80.3823 63.4561C80.9647 61.8336 80.6735 61.8336 77.6365 63.3729C74.0587 65.1618 67.6935 67.4499 64.7813 67.9908L62.2019 68.4484L58.2497 65.8274C56.0447 64.3713 54.2558 63.0816 54.2558 62.9568C54.2558 62.7904 54.755 62.3328 55.3791 61.9584C56.4191 61.2511 56.5023 61.2511 57.1264 62.1248C58.0833 63.3729 60.4546 63.6641 62.3267 62.7904C63.2004 62.3744 65.0309 60.7103 66.4038 59.0878C68.9 56.134 72.7274 50.1016 72.353 49.7272C72.0618 49.436 71.1881 50.3928 71.0633 51.1001C70.7721 53.0138 65.1141 60.3775 62.618 62.0416C61.8275 62.5824 60.7042 62.9984 60.1218 62.9984C58.9985 62.9984 57.168 62 57.168 61.3759C57.168 61.2095 58.7905 59.9614 60.829 58.6302C65.5301 55.5099 71.0217 51.3081 70.7721 51.0585C70.6473 50.9753 69.3576 51.8073 67.9015 52.9722C64.6565 55.5099 57.9584 60.0862 57.5008 60.0862C56.8352 60.0862 57.2096 58.2973 59.6642 50.8921C60.9954 46.6902 62.0771 43.1955 61.9939 43.1123C61.9107 43.0291 60.205 46.1493 58.2081 49.9768C53.9646 58.0893 53.3405 59.0878 51.6348 60.0862C50.4284 60.8351 50.3452 60.8351 48.7643 60.0446C47.8906 59.587 46.1017 59.0046 44.7704 58.7134C42.4822 58.2141 42.3574 58.1309 41.2758 55.926C38.5716 50.4344 35.9506 39.9921 35.9506 34.667C35.9506 31.0892 35.285 31.6716 34.9938 35.4158C34.7025 39.9505 35.285 44.9845 36.8243 50.7672C37.5315 53.4714 38.2388 56.134 38.322 56.6332C38.53 57.5485 38.4884 57.5485 34.0369 57.3405C31.5407 57.2157 29.2526 57.0492 29.003 56.9244C28.7117 56.8412 27.5885 55.4267 26.5068 53.7626L24.5099 50.7256L24.3019 44.9429C24.1355 40.8242 23.9274 39.0769 23.5946 38.9521C22.0137 38.4528 21.9305 44.0276 23.4282 48.9783C25.3003 55.1355 25.8412 57.5901 25.3835 57.5901C25.1339 57.6317 24.1355 57.7981 23.137 57.9645C22.0137 58.1725 21.2649 58.1725 21.0985 57.8813C20.932 57.6317 21.0569 57.5901 21.3897 57.7981C21.6809 57.9645 20.9736 56.9244 19.8504 55.4683C15.4405 49.8104 11.8627 42.2803 11.8211 38.5777C11.8211 36.8303 11.8627 36.7887 14.234 35.7071C30.0014 28.4266 32.7472 27.5529 38.8628 27.8442C40.8181 27.9274 43.7303 28.385 45.3112 28.8426ZM13.1523 47.1478C14.1924 49.1863 15.1909 50.684 15.5237 50.6008C15.8149 50.5592 15.9397 50.684 15.7733 50.8921C15.4821 51.3913 20.1 57.6733 20.516 57.4237C20.6824 57.2989 20.8072 57.5901 20.8072 58.0477C20.8072 58.4637 20.5576 58.8382 20.2664 58.8382C20.0168 58.8382 18.3527 59.587 16.6054 60.4607L13.4436 62.1248L12.1955 60.1695C9.61611 56.0924 3.08449 42.4467 3.08449 41.1154C3.08449 40.9906 4.8318 40.0753 6.95354 39.1185L10.781 37.3296L11.0306 40.4498C11.2802 43.0291 11.6546 44.2356 13.1523 47.1478ZM0.713133 41.3234C0.421913 41.6146 -1.99104 42.7379 -11.6845 47.1894C-15.1791 48.8119 -15.3455 48.8535 -14.3886 47.8134C-12.891 46.2325 -7.31619 42.6131 -2.94791 40.4082L0.796337 38.4944L0.921146 39.7841C1.00435 40.4914 0.921146 41.1986 0.713133 41.3234ZM2.25243 40.1586C2.25243 40.5746 2.08602 40.949 1.8364 40.949C1.62839 40.949 1.42038 40.4498 1.42038 39.8673C1.42038 39.2849 1.58679 38.9105 1.8364 39.0769C2.08602 39.2017 2.25243 39.7009 2.25243 40.1586ZM37.8227 48.2711C38.1972 49.6024 39.154 52.3065 39.9445 54.2203C40.7349 56.1756 41.2758 57.8397 41.151 57.9229C41.0261 58.0477 40.5269 57.9645 40.0277 57.7149C39.2372 57.3821 38.8212 56.342 37.7395 52.3481C36.117 46.3574 35.5346 43.0707 35.5762 40.5746C35.5762 38.8689 35.6594 39.0353 36.3666 42.2387C36.7827 44.194 37.4067 46.8982 37.8227 48.2711ZM23.8442 43.7364C23.8026 47.231 23.7194 47.9383 23.4282 46.9814C22.6378 44.4852 22.8042 39.2849 23.7194 39.2849C23.8026 39.2849 23.8858 41.2818 23.8442 43.7364ZM3.70853 44.3604C5.16462 48.1047 8.65925 55.2187 11.1554 59.4206C13.0691 62.6656 13.1523 63.8305 11.3218 61.8336C9.61611 60.0446 8.20162 57.6317 6.91194 54.2619C6.20469 52.5562 4.7902 49.3944 3.75013 47.231C1.96121 43.5284 1.37878 41.365 2.16923 41.365C2.37724 41.365 3.04288 42.7379 3.70853 44.3604ZM87.9124 46.4406C88.786 49.436 89.2021 56.0508 88.4116 54.6779C87.9124 53.8458 85.4578 45.0261 85.4578 44.1524C85.4578 43.7364 85.7907 43.4452 86.2483 43.4452C86.8307 43.4452 87.2051 44.1108 87.9124 46.4406ZM15.1077 49.1447C15.3573 49.6856 15.5237 50.1016 15.3989 50.1016C15.1077 50.1016 12.7779 45.8165 12.4451 44.6932C12.3203 44.1108 12.7363 44.6932 13.402 45.9413C14.026 47.1894 14.8164 48.6455 15.1077 49.1447ZM59.4977 49.7688C59.1649 50.7672 58.4577 53.0554 57.8752 54.8859C57.2928 56.7164 56.7104 58.7966 56.544 59.5454C56.3775 60.4607 55.8367 61.1263 54.7966 61.7504C53.4238 62.5408 53.2573 62.5824 52.3005 61.9584C51.718 61.5839 51.1772 61.3343 51.094 61.4591C50.9692 61.5423 51.3436 61.9584 51.9261 62.2912C52.8413 62.9152 52.8829 63.0816 52.4669 64.2465C51.9261 65.7026 52.2173 66.4515 54.0062 67.7411C54.8798 68.4068 55.9199 68.6564 58.6657 68.7812C62.0771 68.906 62.2019 68.9476 63.8244 70.5285C67.6103 74.1896 66.071 77.7258 59.7474 79.8059C58 80.3884 54.547 82.0109 52.0925 83.3838C44.9368 87.4608 39.2788 88.0433 30.0846 85.7135C23.6362 84.091 18.7687 81.1372 16.6886 77.601L15.9397 76.3113L17.9783 77.3514C22.0137 79.3483 24.3435 79.7643 33.8289 79.9307C42.1078 80.0971 42.8151 80.0555 44.3128 79.2651C46.3929 78.1834 50.0123 77.601 57.6256 77.2266C63.658 76.8937 65.0725 76.5193 65.0725 75.2712C65.0725 74.3976 63.7412 73.5239 60.2882 72.0262C58.4577 71.2358 54.9214 69.3636 52.4253 67.8243C47.2249 64.6625 44.9368 63.8721 40.2773 63.5393C34.8273 63.1648 29.1278 64.5377 21.5145 68.0324C16.9798 70.1125 13.8596 70.9029 10.3234 70.8613C5.62225 70.8197 5.58065 70.6949 9.03367 67.2419C10.6562 65.6194 12.1539 64.1217 12.3203 63.9969C12.4451 63.8721 13.2771 64.2049 14.1924 64.7458C16.439 66.1602 19.5592 66.4515 22.929 65.5362L24.6763 65.0786L24.1355 63.4977C23.8026 62.6656 23.137 61.2511 22.6378 60.3775C21.5561 58.5469 21.7225 58.5053 24.0106 59.8366C24.9675 60.4191 26.8812 61.1679 28.2125 61.5007C30.4175 62.0832 30.7919 62.0832 31.6239 61.5423C32.248 61.1679 33.0384 61.0431 33.8289 61.1679C36.0338 61.6255 38.0308 61.0015 38.7796 59.6286C39.7781 57.8813 41.4422 57.9645 42.5654 59.8366C43.6471 61.5839 44.1047 61.7504 47.3914 61.7504C49.6379 61.7504 50.2619 61.5839 52.0093 60.3775C53.7982 59.2126 54.339 58.3805 56.8768 53.513C58.4577 50.5176 59.789 48.0215 59.8722 48.0215C59.9554 48.0215 59.789 48.8119 59.4977 49.7688ZM27.7133 57.2573C27.0892 57.8813 26.4652 57.3405 25.758 55.6348C24.7179 53.1386 25.0507 52.8474 26.6316 54.8859C27.6301 56.2172 27.9629 57.0076 27.7133 57.2573ZM31.6655 60.6687C31.3327 61.7504 29.7518 61.3343 28.2125 59.795L26.6316 58.2557L27.6717 57.9645C28.3789 57.7981 29.0862 58.0477 30.251 58.963C31.1247 59.6286 31.7487 60.3775 31.6655 60.6687ZM38.53 58.2557C39.1124 58.6302 38.0308 60.0862 36.8659 60.5439C36.2418 60.7935 35.1602 60.8767 34.4945 60.7519C33.2464 60.5023 32.664 60.1695 30.5423 58.3805L29.5022 57.5485L33.8289 57.7981C36.2418 57.9229 38.322 58.1309 38.53 58.2557ZM27.3389 59.4622C28.795 61.2927 28.0877 61.3759 25.0091 59.795L22.8458 58.6718L24.0938 58.3805C24.8011 58.2141 25.5499 58.0893 25.758 58.0477C26.0076 58.0477 26.7148 58.6718 27.3389 59.4622ZM44.7288 60.1695C44.9784 61.2095 44.9368 61.2927 44.2296 60.9183C43.8135 60.6687 43.2727 60.0862 42.9815 59.6286C42.607 58.8798 42.6487 58.7966 43.4807 58.9214C44.1047 59.0046 44.5208 59.4206 44.7288 60.1695ZM22.8042 61.8336C24.3851 64.7458 24.0938 65.1618 20.4328 65.4114C17.6038 65.5778 16.0229 65.0786 14.6084 63.4977C13.8596 62.7072 13.9012 62.6656 15.0245 61.8752C16.0645 61.1263 18.1031 60.1278 19.7256 59.5454C20.9736 59.0878 21.5561 59.5038 22.8042 61.8336ZM46.3513 60.3359C46.3513 61.0015 45.6856 61.1263 45.3112 60.5023C44.9784 59.9614 45.4776 59.171 45.9769 59.4622C46.1849 59.6286 46.3513 60.003 46.3513 60.3359ZM49.0971 60.7103C49.8459 61.2511 49.8043 61.2927 48.3482 61.3343C46.8505 61.3343 46.3929 61.0015 47.0585 60.3775C47.4746 59.9198 48.2234 60.0446 49.0971 60.7103ZM13.9428 63.7057C14.4836 64.3713 14.442 64.4129 13.818 63.8721C13.1107 63.3313 12.9027 62.9984 13.2355 62.9984C13.3188 62.9984 13.6516 63.3313 13.9428 63.7057ZM57.4176 65.9522L61.1203 68.49L58.1665 68.3236C55.2543 68.1156 53.2989 67.3251 52.8413 66.077C52.6333 65.5362 53.2157 63.4145 53.5902 63.4145C53.6734 63.4145 55.4207 64.5377 57.4176 65.9522ZM48.1402 65.9522C49.0971 66.4515 51.5516 67.866 53.5486 69.114C55.5871 70.3621 57.6672 71.527 58.2497 71.735C59.8722 72.359 59.4145 74.8968 57.5008 75.9369C56.7936 76.3113 46.3513 78.017 46.3513 77.7674C46.3513 77.7258 46.6425 77.1018 47.0169 76.3529C48.057 74.2728 47.6826 68.074 46.4345 66.3683C45.3112 64.8706 45.7273 64.7458 48.1402 65.9522ZM62.618 73.6487C65.6965 75.188 64.7813 76.3529 60.1634 76.6441L56.96 76.8521L58.3329 75.7289C59.1649 74.98 59.6642 74.1896 59.6642 73.5239C59.6642 72.6503 59.789 72.5671 60.621 72.8167C61.1203 72.9415 62.0355 73.3159 62.618 73.6487ZM14.4836 73.6487C14.8997 74.6888 14.5252 74.772 13.6932 73.8151C13.0691 73.1079 13.0275 72.9831 13.5684 72.9831C13.9428 72.9831 14.3588 73.2743 14.4836 73.6487ZM43.2311 79.2235C42.7735 79.4315 41.6502 79.5563 40.7349 79.5563L39.0708 79.5147L40.7349 79.2235C41.6502 79.0571 42.7735 78.9323 43.2311 78.8907L44.0631 78.8491L43.2311 79.2235ZM90.2837 81.0124L91.823 82.3853L90.2005 85.1727C89.3269 86.712 88.4532 87.9601 88.2868 87.9601C88.1204 87.9601 87.954 86.0879 87.954 83.7998C87.954 81.262 88.1204 79.6395 88.37 79.6395C88.6196 79.6395 89.4933 80.2636 90.2837 81.0124ZM88.2868 96.1558C88.162 99.2344 88.0372 99.8168 87.4548 99.9416C86.7891 100.066 86.7059 99.7336 86.7059 97.2375C86.7059 95.6982 86.9139 93.6596 87.1635 92.786C87.8708 90.2066 88.4116 91.8707 88.2868 96.1558Z" stroke="#FFC904" stroke-width="0.441603" mask="url(#path-4-outside-1_1135_97434)"/>
<path d="M35.9501 68.1585C34.9517 69.8226 34.4108 72.1523 35.0349 72.1523C35.2845 72.1523 35.7421 71.7363 35.9917 71.1955C36.8238 69.6146 38.0719 68.4497 39.3615 68.2001C40.8592 67.8673 40.4432 67.368 38.3631 67.0352C36.9486 66.8272 36.7406 66.9104 35.9501 68.1585ZM37.9055 68.2417C37.2814 68.5745 36.3662 69.4898 35.9501 70.197C34.8685 71.9443 34.8685 71.3203 35.9501 69.2402C36.6158 67.9089 37.0318 67.576 37.9471 67.576L39.0703 67.6176L37.9055 68.2417Z" fill="#FFC904"/>
<path d="M3.74915 72.045L3.74762 72.0456C1.20063 73.0059 -0.365833 73.1813 -1.93851 72.7139C-2.82928 72.4593 -3.88121 71.869 -4.70912 71.2507C-5.12373 70.941 -5.48609 70.6215 -5.74608 70.3295C-5.87601 70.1835 -5.98244 70.0422 -6.05696 69.9105C-6.1305 69.7804 -6.17836 69.6503 -6.17836 69.5293C-6.17836 69.4813 -6.16632 69.4251 -6.12284 69.3821C-6.07913 69.3388 -6.02311 69.3282 -5.97704 69.3292C-5.8909 69.3312 -5.78722 69.3747 -5.68193 69.4326C-5.46335 69.5528 -5.165 69.7775 -4.83038 70.0703L-4.83034 70.0702L-4.82775 70.0726C-4.20574 70.6532 -3.30097 71.3504 -2.77668 71.5924L-2.77664 71.5923L-2.77238 71.5945C-2.10965 71.9359 -1.03899 72.1022 0.0715866 72.0815C1.18075 72.0609 2.30664 71.8542 3.07687 71.4691C3.11191 71.4516 3.14623 71.4344 3.17983 71.4176C3.54366 71.2356 3.82345 71.0956 4.03398 71.0027C4.14903 70.9519 4.24714 70.9135 4.32943 70.8899C4.40925 70.8669 4.48681 70.8539 4.55528 70.8664C4.634 70.8807 4.69304 70.9273 4.72456 70.9996C4.75177 71.062 4.75555 71.1368 4.75174 71.2108C4.74493 71.3432 4.70943 71.5267 4.66582 71.7519C4.66043 71.7798 4.65492 71.8082 4.64933 71.8373C4.61446 72.034 4.51139 72.2609 4.36016 72.5063C4.20779 72.7536 4.002 73.0269 3.75431 73.3172C3.25887 73.898 2.59025 74.5533 1.83099 75.2134C0.312977 76.5332 -1.57707 77.8807 -3.18909 78.6972L-3.1896 78.6974C-5.95063 80.078 -6.79668 80.2882 -13.9517 81.6609L-13.9527 81.6611C-18.9763 82.5745 -23.235 84.4819 -25.3339 86.6216C-26.2409 87.5705 -27.9172 88.6898 -29.6989 89.6275C-31.4809 90.5654 -33.3857 91.3309 -34.7549 91.5627C-35.0457 91.6146 -35.2645 91.6469 -35.401 91.6551C-35.4355 91.6572 -35.4668 91.6579 -35.494 91.6566C-35.5189 91.6555 -35.549 91.6524 -35.5762 91.6423C-35.599 91.6339 -35.6643 91.6021 -35.6651 91.523C-35.6654 91.4912 -35.6536 91.4665 -35.6444 91.4516C-35.6349 91.4363 -35.6235 91.4242 -35.6139 91.4151C-35.5788 91.3821 -35.5209 91.3486 -35.4537 91.3147C-35.3827 91.2789 -35.2892 91.2369 -35.1734 91.1883C-34.9416 91.0911 -34.6148 90.9657 -34.1881 90.8095C-29.7418 89.1474 -28.0938 88.2383 -26.1961 86.4644C-23.0548 83.4908 -18.5384 81.5704 -13.0322 80.7361C-8.67234 80.0717 -3.90507 78.4944 -1.42702 76.8836L-1.42623 76.8831C-0.229141 76.1195 1.37661 74.7319 2.51272 73.6009C3.08168 73.0346 3.52634 72.539 3.74298 72.2219C3.79696 72.1429 3.83422 72.0786 3.85582 72.0296C3.85934 72.0216 3.86224 72.0145 3.86463 72.0081C3.83749 72.0138 3.79969 72.0251 3.74915 72.045Z" fill="#FFC904" stroke="#FFC904" stroke-width="0.220802"/>
</g>
<defs>
<clipPath id="clip0_1135_97434">
<rect width="93.4463" height="136.524" fill="white"/>
</clipPath>
</defs>
</svg>